<?xml version="1.0" encoding="utf-8"?>
<!-- Generator: Adobe Illustrator 20.0.0, SVG Export Plug-In . SVG Version: 6.00 Build 0)  -->
<svg version="1.1" id="Capa_1" xmlns="http://www.w3.org/2000/svg" xmlns:xlink="http://www.w3.org/1999/xlink" x="0px" y="0px"
	 viewBox="0 0 567.6 1015.6" style="enable-background:new 0 0 567.6 1015.6;" xml:space="preserve">
<style type="text/css">
	.st0{fill:#233875;}
	.st1{fill:#18223D;}
	.st2{fill:#E53237;}
	.st3{fill:#352525;}
	.st4{fill:#F7E4D7;}
	.st5{fill:#C9A28B;}
	.st6{clip-path:url(#SVGID_2_);fill:#988F8C;}
	.st7{clip-path:url(#SVGID_4_);fill:#726B68;}
	.st8{fill:#A7A19F;}
	.st9{fill:#726B68;}
	.st10{fill:#BFBABB;}
	.st11{fill:#8D8C8C;}
	.st12{fill:#988F8C;}
	.st13{fill:#F1D2BF;}
	.st14{fill:#A01D29;}
	.st15{fill:#CA1735;}
	.st16{opacity:0.4;}
	.st17{clip-path:url(#SVGID_6_);fill:#FFFFFF;}
	.st18{fill:#FFFFFF;}
	.st19{fill:#55F7CC;}
	.st20{fill:#20957C;}
	.st21{fill:#1D1E1C;}
	.st22{fill:#A20015;}
	.st23{fill:#221E20;}
	.st24{fill:none;stroke:#221E20;stroke-miterlimit:10;}
</style>
<g>
	<g>
		<path class="st0" d="M230.4,628.3l-114.9-58.3c0,0-8.2,6.9-13.2,19.8c-7.4,19.2-4.2,35.3,4.9,48.2c-4.2,50.4-7.7,142.9-7.7,167
			c0,29-13,137-15,145l28.4,4.1c0,0,23.6-112.1,25.6-137.1c1.5-18.5,6.8-105.7,9.4-150.1c6.4,2.4,12.9,4.3,19.4,5.7
			c0.4,39.1-1.4,107.8-1.2,134.3c0.4,38-5.6,140.8-8.6,153.4l25.2,0.2c0,0,17.8-118.5,18.8-149.5c0.8-23.4,11.5-94.7,16.2-140.8
			c2.2-1.3,4.2-2.8,5.3-4.7C231,650.8,230.3,645.1,230.4,628.3z"/>
		<path class="st1" d="M183.6,961.6l-27.4-0.2l0.3-1.2c2.9-12.2,9-113.3,8.6-153.1c-0.1-12.1,0.2-33.2,0.5-55.5
			c0.4-26.6,0.8-56.7,0.7-78c-6-1.3-11.8-3.1-17.5-5.1c-2.9,48.5-7.9,130.8-9.4,148.8c-2,24.8-25.4,136.1-25.6,137.2l-0.2,0.9
			l-30.4-4.4l0.3-1.1c1.9-7.8,15-116.3,15-144.8c0-24.7,3.5-117.3,7.7-166.7c-10.1-14.5-11.7-30.9-4.8-48.9
			c5-13,13.1-19.9,13.5-20.2l0.5-0.4l116,58.8l0,0.6c0,1.3,0,2.6,0,3.8c0,13.8,0,20.1-7.5,33.9c-1.2,2.1-3.2,3.7-5.2,4.9
			c-2,19.4-5,43.1-7.9,66c-4,31.3-7.8,60.8-8.2,74.2c-1,30.7-18.6,148.5-18.8,149.7L183.6,961.6z M158.7,959.4l23.2,0.1
			c1.6-10.8,17.7-119.4,18.6-148.6c0.4-13.5,4.2-43.1,8.2-74.4c3-23.1,6-47,8-66.4l0.1-0.5l0.4-0.3c1.9-1.1,3.9-2.5,4.9-4.4
			c7.2-13.3,7.3-19.1,7.3-33c0-1,0-2.1,0-3.2l-113.7-57.7c-1.8,1.7-8.3,8.3-12.4,18.9c-6.7,17.4-5.1,33.3,4.8,47.3l0.2,0.3l0,0.4
			c-4.1,49.3-7.7,142.1-7.7,166.9c0,28.8-12.2,130.4-14.8,144.2l26.4,3.8c2.3-10.8,23.5-112.6,25.4-136
			c1.5-18.2,6.5-101.8,9.4-150.1l0.1-1.4l1.3,0.5c6.2,2.4,12.6,4.3,19.2,5.7l0.8,0.2l0,0.8c0.2,21.4-0.3,51.9-0.7,78.9
			c-0.3,22.3-0.6,43.4-0.5,55.5C167.4,842.9,161.9,941.9,158.7,959.4z"/>
	</g>
	<path class="st1" d="M188.4,676.1c-47.9,0-81.7-37-82-37.4l1.5-1.3c0.3,0.4,35.3,38.6,84.2,36.7l0.1,2
		C190.9,676.1,189.7,676.1,188.4,676.1z"/>
	<path class="st1" d="M181.1,667.1l-0.7-0.1c-19.1-1.3-39.7-19.5-40.6-20.2l-0.4-0.3l0.1-0.5c0.4-4.2,3.4-11.4,8.8-21.5
		c3.4-6.5,6.7-11.8,6.7-11.9l0.5-0.8l40.1,23l-0.5,0.9c-3.9,6.5-13.5,30.6-13.6,30.9L181.1,667.1z M141.5,645.7
		c2.9,2.5,21.4,17.8,38.3,19.3c1.6-3.9,9.1-22.6,13-29.6l-36.6-21c-1,1.7-3.5,6-6.1,10.9C145,634.7,142.1,641.7,141.5,645.7z"/>
	<polygon class="st1" points="189.5,644.6 159.2,644.6 148.1,623.1 149.9,622.2 160.4,642.6 189.5,642.6 	"/>
	<path class="st1" d="M120.7,637.7l-0.9-0.3c-9.1-3.4-19.8-14.1-20.3-14.6l1.4-1.4c0.1,0.1,10.1,10.1,18.6,13.7
		c3.1-8.2,14.3-37.8,17-39.8l1.2,1.6c-1.9,1.6-11.2,25.3-16.7,39.9L120.7,637.7z"/>
	<polygon class="st1" points="129.5,612.6 106.1,612.6 99.1,596.6 101,595.8 107.4,610.6 129.5,610.6 	"/>
	<circle class="st2" cx="524.2" cy="368.3" r="3.2"/>
	<path class="st3" d="M512.2,365.6l-81.8,27.2c0,0-5.9,8.8,3.3,12.3l80.7-27.5l9.5-6.5l-2-5.5H512.2z"/>
	<g>
		<path class="st4" d="M311.9,511.4c0,0,19.3,19.1,44.4,17.9s75.9-59.6,82.5-72.4s7.1-44.7,11.4-53.8s25.1-27.4,25.8-28.1
			c2.9-3.4,11.3-0.9,6.5,5.3c0,0,12-6.8,9,4.5c0,0,13.2-6.6,6.2,8.3c-4.6,9.8-6.2,31.8-9.2,37.9c-3,6.1-10,29.7-19,39.9
			s-36.7,43.2-56.6,62c-27.4,25.7-53.4,54.1-113.4,10.2L311.9,511.4z"/>
		<path class="st5" d="M354.8,566.8c-16.4,0-34.7-7.5-55.9-23.1c-0.3-0.2-0.5-0.7-0.3-1.1l12.4-31.6c0.1-0.3,0.4-0.5,0.7-0.6
			c0.3-0.1,0.6,0,0.8,0.2c0.2,0.2,19.3,18.9,43.8,17.6c24.6-1.2,74.9-58.7,81.8-72c3.6-7,5.4-20.2,7-31.7c1.3-9.6,2.4-17.9,4.4-22
			c3.7-7.8,19.3-22.2,24.4-26.9c0.8-0.7,1.4-1.3,1.5-1.4c1-1.2,2.6-1.8,4.3-1.8c2.1,0,4,1,4.8,2.6c0.4,0.7,0.6,1.8,0.2,3.2
			c1.3-0.5,2.8-1,4.2-1c1.4,0,2.5,0.5,3.2,1.4c0.8,1,1,2.5,0.7,4.6c1.1-0.4,2.6-0.8,4-0.8c1.9,0,2.9,0.8,3.3,1.6
			c1.1,1.8,0.6,4.9-1.5,9.5c-2.5,5.3-4.1,14.3-5.6,22.3c-1.2,6.8-2.3,12.7-3.7,15.6c-0.8,1.6-1.9,4.4-3.2,8
			c-3.7,9.7-9.2,24.5-15.9,32.1c-1.6,1.8-3.8,4.4-6.5,7.4c-11.8,13.7-33.9,39.2-50.3,54.6c-1,0.9-2,1.9-3,2.8
			C394.6,551.3,378.2,566.8,354.8,566.8z M300.5,542.7c20.6,15,38.4,22.3,54.2,22.3c22.7,0,38.8-15.3,54.4-30c1-0.9,2-1.9,3-2.8
			c16.3-15.4,38.3-40.8,50.1-54.5c2.7-3.1,4.9-5.6,6.5-7.4c6.5-7.3,12-21.9,15.6-31.5c1.4-3.6,2.5-6.5,3.3-8.2
			c1.3-2.6,2.4-8.7,3.5-15.1c1.5-8.1,3.1-17.3,5.7-22.8c2.4-5.2,2.1-7.1,1.6-7.8c-0.1-0.2-0.5-0.7-1.8-0.7c-2.1,0-4.9,1.3-4.9,1.3
			c-0.3,0.2-0.7,0.1-1-0.1c-0.3-0.2-0.4-0.6-0.3-0.9c0.8-2.9,0.4-4.2,0-4.7c-0.3-0.5-0.9-0.7-1.8-0.7c-2.5,0-5.8,1.9-5.9,1.9
			c-0.4,0.2-0.8,0.1-1.1-0.2c-0.3-0.3-0.3-0.8,0-1.1c1.2-1.5,1.5-2.8,1-3.8c-0.5-0.9-1.7-1.6-3.2-1.6c-1.2,0-2.3,0.4-3,1.2
			c-0.1,0.2-0.5,0.5-1.7,1.6c-5.1,4.7-20.4,18.9-24,26.4c-1.8,3.9-3,12.4-4.2,21.5c-1.6,11.7-3.4,25-7.2,32.3
			c-6.9,13.4-58.1,71.7-83.3,72.9c-22,1.1-39.8-13.4-44.1-17.2L300.5,542.7z"/>
	</g>
	<g>
		<g>
			<defs>
				<polygon id="SVGID_1_" points="274.1,225.1 241.2,300.6 281,347.1 346.5,265 				"/>
			</defs>
			<clipPath id="SVGID_2_">
				<use xlink:href="#SVGID_1_"  style="overflow:visible;"/>
			</clipPath>
			<path class="st6" d="M266.2,319.2c0,0,7.7,3.3,24.9-25.4c10.7-17.9,36.2-65.6,61.9-113c0,0-17.2,40.6-9.3,43.8
				c7.9,3.2,28.1-34.3,28.1-34.3s-14.7,40.9-4.8,45.8c9.9,4.8,31.6-34.2,31.6-34.2s-21.6,41.8-8.6,49c13,7.1,34.9-34.6,34.9-34.6
				s-21,43.3-9.1,48.3c11.9,5,32.2-35.6,32.2-35.6s-19,42.4-8.8,50.2c10.2,7.8,33.9-28.6,33.9-28.6s-18.6,30.8-11.3,37.8
				c7.4,7,33.9-23.6,33.9-23.6c-8.9,21.2-8.2,18.7-14.2,33.5c-3.2,7.9-2.9,6.9-1.8,8.3c5.5-0.4,6.5-7.9,11.8-14.4
				c4.7-5.8,10.7-11.4,20.5-26.9c17.9-28.4,25.4-66.5,1.9-94.3c-18.7-22.1-44.3-27.5-67-28.5c-13.3-17.3-40-30.7-63.2-24
				c-29.5,8.4-43.9,31.6-61.5,66.3c-17.6,34.6-53.2,94-59.9,113.6C262.4,298.3,259.8,314.9,266.2,319.2"/>
		</g>
		<g>
			<defs>
				<polygon id="SVGID_3_" points="274.1,225.1 241.2,300.6 281,347.1 346.5,265 				"/>
			</defs>
			<clipPath id="SVGID_4_">
				<use xlink:href="#SVGID_3_"  style="overflow:visible;"/>
			</clipPath>
			<path class="st7" d="M267,320L267,320c-0.6,0-1-0.1-1.1-0.2c0,0-0.1,0-0.1-0.1c-6.8-4.5-4.3-20.9-4.1-21.6c0,0,0-0.1,0-0.1
				c4.8-15,20.6-42.8,35.8-69.7c9.1-16.1,17.7-31.3,24.2-44c17.1-33.5,31.5-57.9,62-66.6c4.1-1.2,8.4-1.8,12.9-1.8
				c18.5,0,38.9,10.4,50.9,25.8c19.3,0.9,47,4.9,67.2,28.7c24.4,28.8,16.6,68.6-1.9,95.2c-5.9,8.5-9.8,13.1-13.3,17.2
				c-2.4,2.8-4.7,5.5-7.2,9c-0.9,1.3-2,3-3.2,4.8c-4.1,6.4-7,10.6-9.2,10.6c-0.6,0-1.4-0.3-1.9-1.6c-0.2-0.7-0.1-0.9,0.3-1.8
				c0.4-0.9,1.3-2.6,2.9-6.6c3.8-9.2,4.6-11,6.9-16.4c1.2-2.7,2.8-6.3,5.3-12.3c-6.3,6.8-20.8,21.6-28.6,21.6
				c-1.3,0-2.5-0.4-3.3-1.2c-4.9-4.6,0.6-18.4,5.4-28.2c-6.7,8.8-16.9,20.3-24.2,20.3c-1.4,0-2.7-0.4-3.7-1.2
				c-7.2-5.5-1-26.4,4-39.7c-6.4,10.8-16.7,25.7-24.8,25.7c-0.9,0-1.7-0.2-2.5-0.5c-1.5-0.7-2.7-1.9-3.3-3.7
				c-2.7-7.3,2.5-22.9,6.9-33.9c-6.7,10.5-17.2,24.7-25.8,24.7c-1.3,0-2.5-0.3-3.6-0.9c-9.1-5-2.6-25,2.9-38.2
				c-6.6,10.3-16.8,23.9-23.7,23.9c-0.8,0-1.5-0.2-2.2-0.5c-7.9-3.8-1.9-27,2-39.4c-6,10.3-17.3,28.2-23.9,28.2
				c-0.5,0-0.9-0.1-1.3-0.2c-0.9-0.4-1.5-1.1-1.9-2.1c-2.3-5.5,2.6-20.9,6.5-31.6c-3.9,7.3-7.9,14.5-11.7,21.6
				c-19.5,36-36.3,67.1-44.6,80.9C277.8,317.5,269.8,320,267,320z M266.5,318.5c0.6,0.1,8.2,1.3,24-25.1
				c8.3-13.8,25.1-44.9,44.5-80.9c5.7-10.5,11.5-21.3,17.3-32c0.2-0.3,0.6-0.5,1-0.3c0.4,0.2,0.5,0.6,0.4,0.9
				c-0.1,0.3-14.1,33.5-10.8,41.5c0.3,0.7,0.6,1.1,1.1,1.3c0.2,0.1,0.5,0.1,0.8,0.1c6.6,0,21.3-24.6,26.4-34.1
				c0.2-0.3,0.6-0.5,0.9-0.3c0.4,0.2,0.5,0.6,0.4,0.9c-4,11.2-12.8,41.1-5.1,44.9c0.5,0.2,1,0.3,1.5,0.3c10,0,28.9-33.9,29.1-34.2
				c0.2-0.3,0.6-0.5,1-0.3c0.4,0.2,0.5,0.6,0.3,1c-0.2,0.4-21.2,41.3-8.9,48c0.9,0.5,1.9,0.7,2.9,0.7c12.5,0,30.8-34.7,31-35
				c0.2-0.4,0.6-0.5,1-0.3s0.5,0.6,0.3,1c-0.2,0.3-16.1,33.5-12,44.5c0.5,1.4,1.4,2.4,2.5,2.9c0.6,0.2,1.2,0.4,1.9,0.4
				c11.5,0,29.2-35.3,29.4-35.6c0.2-0.4,0.6-0.5,1-0.3c0.4,0.2,0.5,0.6,0.4,1c-0.2,0.4-18.6,42-9,49.3c0.8,0.6,1.8,0.9,2.9,0.9
				c10.7,0,29.8-29.1,30-29.4c0.2-0.3,0.7-0.4,1-0.2c0.3,0.2,0.4,0.7,0.2,1c-5.1,8.4-17.1,31.5-11.4,36.9c0.6,0.6,1.4,0.8,2.3,0.8
				c9.3,0,30.3-24.2,30.5-24.4c0.2-0.3,0.6-0.3,0.9-0.1c0.3,0.2,0.4,0.6,0.3,0.9c-3.6,8.4-5.6,13.1-7.1,16.4
				c-2.3,5.4-3.1,7.2-6.9,16.4c-1.6,4-2.5,5.8-3,6.7c-0.1,0.3-0.3,0.6-0.3,0.7c0,0,0,0,0,0.1c0.1,0.3,0.3,0.7,0.5,0.7
				c1.6,0,5.4-6,7.9-9.9c1.2-1.8,2.3-3.6,3.2-4.9c2.6-3.6,4.9-6.3,7.3-9.1c3.4-4,7.3-8.6,13.2-17.1c18.2-26.2,25.9-65.2,2-93.4
				c-19.9-23.5-47.5-27.4-66.5-28.2c-0.2,0-0.4-0.1-0.5-0.3c-11.7-15.2-31.8-25.5-49.9-25.5c-4.3,0-8.5,0.6-12.5,1.7
				c-29.9,8.5-44.2,32.7-61.1,65.9c-6.5,12.8-15.1,28-24.2,44.1c-15.1,26.8-30.8,54.5-35.6,69.4C263,299.5,260.8,314.6,266.5,318.5z
				"/>
		</g>
	</g>
	<path class="st8" d="M384.9,988.3c0,15.1-86.2,27.4-192.5,27.4C86.2,1015.6,0,1003.4,0,988.3s86.2-27.4,192.5-27.4
		C298.7,960.9,384.9,973.1,384.9,988.3"/>
	<path class="st8" d="M490.9,113.7c0,0,28.8-23.4,40.7-23.4l1.8,4c-15,3.1-40.1,23.2-40.1,23.2L490.9,113.7z"/>
	<path class="st9" d="M493.4,118.3c0,0-0.1,0-0.1,0c-0.2,0-0.4-0.2-0.5-0.3l-2.4-3.9c-0.2-0.3-0.1-0.7,0.1-0.9
		c1.1-1,26-23.6,42.5-23.6c0.6,0,1.1,0,1.6,0.1c0.2,0,0.4,0.1,0.5,0.3c0.1,0.2,0.2,0.4,0.1,0.6l-1,4c-0.1,0.3-0.3,0.5-0.6,0.5
		c-16.9,3-39.5,22.9-39.8,23.1C493.7,118.2,493.5,118.3,493.4,118.3z M491.9,113.8l1.6,2.6c3.9-3.3,23.6-19.7,39.3-22.8l0.7-2.7
		C518.9,90.4,495.4,110.7,491.9,113.8z"/>
	<g>
		<path class="st10" d="M531.8,94.8c1.9,9.1,9.5,16.4,23.8,11.2c5.5-2,15-8.8,9.6-21.4c-4.6-10.6-29.7-10.2-32.8,2.7
			C532.5,87.3,531.3,92.6,531.8,94.8"/>
		<path class="st9" d="M546.8,108.5C546.8,108.5,546.8,108.5,546.8,108.5c-8,0-13.9-5-15.7-13.5c-0.5-2.3,0.6-7.6,0.7-7.8
			c1.8-7.5,10.3-10.8,17.9-10.8c7.7,0,14.1,3.1,16.2,8c2,4.7,2.2,9.1,0.5,13c-2.1,4.9-6.8,8-10.5,9.4
			C552.6,107.9,549.6,108.5,546.8,108.5z M549.7,77.8c-7.1,0-14.9,3-16.5,9.7c-0.3,1.4-1,5.5-0.7,7.2c0.8,3.7,3.8,12.3,14.3,12.3h0
			c2.6,0,5.5-0.6,8.6-1.7c3.4-1.2,7.8-4.1,9.7-8.6c1.5-3.5,1.3-7.5-0.5-11.9C562.7,80.6,556.9,77.8,549.7,77.8z"/>
		<path class="st11" d="M548.4,97.5c0.3,1.9-0.6,3-1.9,4.5c-1.2,1.4-4.3,1.9-6.5,0.6c-2.6-1.5-4.3-2.8-5-7c-1.1-6.1-0.4-7.3,1.2-9.8
			c1.7-2.7,2.8-5.2,6.9-4.2c2.8,0.7,3.5,1.6,1.9,6.3c-1.6,4.7-0.5,4.8,0.4,6.3C546.2,95.6,548.2,96.5,548.4,97.5"/>
	</g>
	<path class="st4" d="M439.5,341.3c12.1-23.8,45-80.6,65.2-120.9c17.5-35.1-0.1-63.2-8.4-75.9c-15-23-96-66-144.2-12.7
		c-19.6,21.7-45.5,73.9-45.5,73.9s-3.9,4.1-9.7,15.2c-8.1,15.5-11.8,24.1-11.8,24.1s-19.8,118.9-58,159.8
		c6.4,40.9,21,51.4,47.1,27.6C315.6,396.5,409.7,400,439.5,341.3"/>
	<path class="st5" d="M250.7,445.8c-1.7,0-3.4-0.3-5-0.8c-9.4-3.3-15.8-16.4-19.5-40.1c0-0.3,0-0.5,0.2-0.8
		c37.5-40.3,59.5-169.3,59.7-170.6c0.1-0.5,0.5-0.8,1-0.7c0.5,0.1,0.8,0.5,0.7,1c-0.2,1.3-22.2,130.2-59.9,171.2
		c3.6,22.7,9.6,35.2,18.2,38.2c7,2.5,16.2-1.4,27.3-11.6c16.9-14.6,42-22.6,68.6-31.1c38.8-12.3,78.8-25.1,96.5-59.7
		c5-9.8,13.5-25.1,23.2-42.8c14.1-25.5,30.1-54.4,41.9-78.1c17.6-35.2-0.6-63.1-8.3-75c-8.8-13.6-41.4-34.7-77.1-37.5
		c-26.3-2.1-49,6.6-65.6,25c-19.3,21.4-45.1,73.1-45.4,73.7c-0.2,0.4-0.8,0.6-1.2,0.4c-0.4-0.2-0.6-0.8-0.4-1.2
		c0.3-0.5,26.2-52.5,45.7-74.1c17-18.8,40.2-27.7,67.1-25.6c36.3,2.9,69.5,24.5,78.5,38.3c7.9,12.2,26.5,40.7,8.4,76.8
		c-11.9,23.7-27.9,52.7-42,78.2c-9.8,17.7-18.2,33-23.2,42.8c-18,35.3-58.4,48.2-97.5,60.6c-26.4,8.4-51.4,16.3-68,30.7
		C265.5,441.6,257.5,445.8,250.7,445.8z"/>
	<path class="st12" d="M474.2,262.9c-1.3-0.9-2.7-2.5-4.4-4.4c-1.2-1.4-2.5-2.9-3.8-4.2c-1.2-1.1-2.5-2.2-4-3.2
		c-2-1.3-4-2.3-5.8-3.2c-1.3-0.6-2.4-1.2-3.2-1.7c-0.7-0.5-1.6-1.2-1.7-2.2c-0.1-0.7,0.2-1.4,0.9-2.1c2.1-2.2,6.8-1.1,12.9,2.9
		c6.4,4.2,13.3,11.1,13.8,15.3c0.1,1-0.1,1.9-0.7,2.5C477.5,263.4,476.1,264.2,474.2,262.9"/>
	<path class="st9" d="M464.8,245.3c7.8,5.1,15.6,13.8,12.9,16.7c-1,1.1-2,1-3.2,0.2c-2.2-1.5-4.8-5.5-8.1-8.6
		c-1.3-1.3-2.7-2.4-4.1-3.3c-3.6-2.4-7.1-3.7-8.9-4.9c-1.5-1-1.9-1.9-0.7-3.2C454.8,240.2,459.8,242,464.8,245.3 M465.6,244.1
		c-3.8-2.5-10.6-6.2-13.9-2.8c-0.8,0.9-1.2,1.8-1.1,2.7c0.1,1.3,1.2,2.2,2,2.7c0.9,0.6,2,1.1,3.2,1.8c1.7,0.9,3.7,1.8,5.7,3.2
		c1.5,1,2.7,2,3.9,3.1c1.3,1.3,2.6,2.8,3.8,4.2c1.6,2,3.1,3.6,4.5,4.6c2.5,1.7,4.2,0.4,5-0.4c0.5-0.6,1.1-1.5,0.9-3.1
		C479.1,255.3,472,248.3,465.6,244.1"/>
	<path class="st12" d="M383.3,205c-1.4-0.9-1.9-2.2-1.5-3.8c0.2-1.1,1-2,2.2-2.5c5.3-2.2,19.2,2.5,27.2,7.8c5.3,3.5,7.4,6.7,6.1,9.4
		c-0.5,1-1.1,1.5-1.8,1.7c-1.3,0.4-2.8-0.4-4.9-1.8c-0.5-0.3-1-0.7-1.5-1c-0.6-0.4-1.3-0.9-2-1.3c-2.5-1.6-5.8-3.6-9.9-4.9
		c-2.3-0.7-4.7-1.2-6.9-1.5C387.4,206.4,384.9,206,383.3,205"/>
	<path class="st9" d="M410.9,207.1c4.3,2.9,7.1,6,5.9,8.4c-1.1,2.3-2.9,1.5-5.7-0.3c-1-0.7-2.2-1.5-3.5-2.4c-2.7-1.8-6-3.7-10.1-5
		c-5.4-1.7-11.2-1.8-13.7-3.5c-1-0.7-1.5-1.6-1.2-3C383.7,195.6,401.3,200.8,410.9,207.1 M411.7,205.9c-8.3-5.5-22.4-10.2-27.9-7.9
		c-1.8,0.8-2.5,2.1-2.7,3c-0.4,1.9,0.2,3.5,1.8,4.5c1.7,1.1,4.3,1.6,7.3,2.1c2.1,0.4,4.5,0.8,6.8,1.5c4.1,1.3,7.3,3.3,9.8,4.8
		c0.7,0.5,1.3,0.9,1.9,1.3c0.5,0.4,1.1,0.7,1.6,1.1c1.9,1.3,3.7,2.3,5.5,1.9c1-0.3,1.7-1,2.3-2.1
		C419.1,214.1,418.8,210.6,411.7,205.9"/>
	<path class="st5" d="M397.9,323.6c-0.4,0-0.9-0.1-1.5-0.5c-1.9-1.3-2.2-3.7-1.9-6.3c-0.5,0.4-1,0.8-1.6,1c-2.3,1.2-3.9,0.7-4.9,0.1
		c-1.9-1.3-2.4-3.4-2.1-5.7c-0.5,0.4-1.1,0.7-1.6,1c-1.8,0.8-3.1,0.3-3.8-0.2c-4.6-3.5-2.2-8.2,0.7-12.3c0.3-0.4,0.8-0.5,1.3-0.2
		s0.5,0.8,0.2,1.3c-3.5,5.1-3.8,7.8-1,9.9c0.3,0.2,0.8,0.5,1.7,0.1c1.2-0.4,2.5-1.6,3.7-2.8c0.5-1.1,1.1-2.2,1.8-3.2
		c1.1-1.6,1.8-2.4,2.7-1.9c0.3,0.2,0.5,0.6,0.4,0.9c-0.1,0.7-1.4,3-3.3,5.1c-0.5,1.3-0.9,2.7-0.9,3.9c0,1.2,0.5,2.1,1.4,2.7
		c0.8,0.5,1.7,0.5,2.8-0.1c1.2-0.6,2.4-1.6,3.4-2.7c0.5-1.5,1.1-2.8,1.6-3.6c0.3-0.5,1.1-1.8,2.2-1.2c0.2,0.1,0.6,0.4,0.5,1
		c0,0.9-1.2,2.9-2.8,4.7c-0.4,1.3-0.7,2.7-0.7,4c0,1.4,0.4,2.4,1.2,2.9c0.3,0.2,0.5,0.2,0.7,0.1c2.1-0.8,4.5-9.4,7.1-18.6
		c4.4-15.7,10.3-37.2,21.7-50.9c0.3-0.4,0.9-0.4,1.3-0.1c0.4,0.3,0.4,0.9,0.1,1.3c-11.1,13.4-17.1,34.7-21.4,50.2
		c-3.4,12.3-5.3,18.8-8.2,19.8C398.5,323.5,398.2,323.6,397.9,323.6z"/>
	<path class="st13" d="M373.9,281c6.8-8.6-10.2-15.9-15.9-19.2c-6.4-3.7-23.8-6.6-24.2,4.7c-0.2,5.7,10.4,12.9,15.5,14.3
		C361.3,284.1,367.7,288.9,373.9,281"/>
	<path class="st13" d="M413.7,301.6c4.6-8.5,16.5,2.8,21.1,6.2c5.2,3.9,13.6,17,4.5,21.3c-4.5,2.1-14.1-4-16.9-7.7
		C415.6,313,409.4,309.4,413.7,301.6"/>
	<g>
		<path class="st5" d="M351.9,359.4c-0.2,0-0.4-0.1-0.6-0.2c-0.1,0-5.7-5-11-3.8c-0.5,0.1-1-0.2-1.1-0.7s0.2-1,0.7-1.1
			c6.2-1.4,12.3,4,12.6,4.2c0.4,0.3,0.4,0.9,0.1,1.3C352.4,359.3,352.1,359.4,351.9,359.4z"/>
		<path class="st14" d="M364.5,345.1c-7.7,3.5-3.6,8.7-15.8,3.6c-15.3-6.4-24.1-26.5-17.5-39.4c-2,3.9,6.2,20.9,15.4,28
			C353.2,342.4,356.7,341.5,364.5,345.1"/>
		<g>
			<path class="st2" d="M331.2,326.4c0,0,6.6-0.1,13,13.8C344.2,340.2,333.5,338.8,331.2,326.4"/>
			<path class="st15" d="M344.2,341.1c0,0-0.1,0-0.1,0c-0.1,0-11.3-1.7-13.8-14.5c0-0.2,0-0.5,0.2-0.7c0.2-0.2,0.4-0.3,0.6-0.3
				c0.8,0,7.4,0.4,13.7,14.1c0.1,0.1,0.2,0.3,0.2,0.5C345.1,340.7,344.7,341.1,344.2,341.1C344.2,341.1,344.2,341.1,344.2,341.1z
				 M332.3,327.5c2,7.8,7.6,10.6,10.4,11.5C338.4,330.5,334.2,328.1,332.3,327.5z"/>
		</g>
		<path class="st5" d="M372.7,348.9c-1.6,0-3.6-0.5-5.9-1.7c-5.3-2.8-8.2-3.7-10.8-4.5c-2.9-0.9-5.3-1.7-10-4.7
			c-14.6-9.6-17.3-28.1-15.2-33.6c0.2-0.5,0.7-0.7,1.2-0.5c0.5,0.2,0.7,0.7,0.5,1.2c-1.6,4-0.1,21.7,14.5,31.4
			c4.4,2.9,6.7,3.6,9.5,4.5c2.6,0.8,5.6,1.8,11.1,4.6c4.2,2.2,7.1,1.6,8.1,0.2c0.5-0.7,0.3-1.6-0.3-2.1c-0.4-0.3-0.4-0.9-0.1-1.3
			c0.3-0.4,0.9-0.4,1.3-0.1c1.4,1.1,1.7,3,0.7,4.5C376.5,348.1,374.9,348.9,372.7,348.9z"/>
		<path class="st5" d="M335.5,307.2c-0.3,0-0.5-0.1-0.7-0.3c0,0-1.6-2-3.8-2.5c-2-0.5-3.6,0.5-3.6,0.5c-0.4,0.3-1,0.2-1.3-0.2
			c-0.3-0.4-0.2-1,0.2-1.3c0.1-0.1,2.2-1.6,5.1-0.8c2.7,0.7,4.7,3,4.7,3.1c0.3,0.4,0.3,0.9-0.1,1.3
			C335.9,307.2,335.7,307.2,335.5,307.2z"/>
	</g>
	<path class="st12" d="M267.6,280.2c0,0,7.7,3.3,24.9-25.4c10.7-17.9,10.6-19.8,36.3-67.1c0,0-10.7,27.5-2.7,30.7
		c7.9,3.2,38.1-51.9,38.1-51.9s-5.6,25.8,4.3,30.6c9.9,4.8,31.6-34.2,31.6-34.2s-21.6,41.8-8.6,49c13,7.1,34.9-34.6,34.9-34.6
		s-21,43.3-9.1,48.3c11.9,5,32.2-35.6,32.2-35.6s-19,42.4-8.8,50.2c10.2,7.8,33.9-28.6,33.9-28.6s-18.6,30.8-11.3,37.8
		c7.4,7,33.9-23.6,33.9-23.6c-8.9,21.2-8.2,18.7-14.2,33.5c-3.2,7.9-2.9,6.9-1.8,8.3c5.5-0.4,6.5-7.9,11.8-14.4
		c4.7-5.8,10.7-11.4,20.5-26.9c17.9-28.4,25.4-66.5,1.9-94.3c-18.7-22.1-44.3-27.5-67-28.5c-13.3-17.3-40-30.7-63.2-24
		c-29.5,8.4-43.9,31.6-61.5,66.3c-17.6,34.6-53.2,94-59.9,113.6C263.8,259.4,261.2,276,267.6,280.2"/>
	<path class="st9" d="M268.5,281.1L268.5,281.1c-0.6,0-1-0.1-1.1-0.2c0,0-0.1,0-0.1-0.1c-6.8-4.5-4.3-20.9-4.1-21.6c0,0,0-0.1,0-0.1
		c4.8-15,20.6-42.8,35.8-69.7c9.1-16.1,17.7-31.3,24.2-44c17.1-33.5,31.5-57.9,62-66.6c4.1-1.2,8.4-1.8,12.9-1.8
		c18.5,0,38.9,10.4,50.9,25.8c19.3,0.9,47,4.9,67.2,28.7c24.4,28.8,16.6,68.6-1.9,95.2c-5.9,8.5-9.8,13.1-13.3,17.2
		c-2.4,2.8-4.7,5.5-7.2,9c-0.9,1.3-2,3-3.2,4.8c-4.1,6.4-7,10.6-9.2,10.6c-0.6,0-1.4-0.3-1.9-1.6c-0.2-0.7-0.1-0.9,0.3-1.8
		c0.4-0.9,1.3-2.6,2.9-6.6c3.8-9.2,4.6-11,6.9-16.4c1.2-2.7,2.8-6.3,5.3-12.3c-6.3,6.8-20.8,21.6-28.6,21.6c-1.3,0-2.5-0.4-3.3-1.2
		c-4.9-4.6,0.6-18.4,5.4-28.2c-6.7,8.8-16.9,20.3-24.2,20.3c-1.4,0-2.7-0.4-3.7-1.2c-7.2-5.5-1-26.4,4-39.7
		c-6.4,10.8-16.7,25.7-24.8,25.7c-0.9,0-1.7-0.2-2.5-0.5c-1.5-0.7-2.7-1.9-3.3-3.7c-2.7-7.3,2.5-22.9,6.9-33.9
		c-6.7,10.5-17.2,24.7-25.8,24.7c-1.3,0-2.5-0.3-3.6-0.9c-9.1-5-2.6-25,2.9-38.2c-6.6,10.3-16.8,23.9-23.7,23.9
		c-0.8,0-1.5-0.2-2.2-0.5c-7.8-3.8-6.2-19.7-4.8-27.6c-7.4,12.9-28.6,49.1-36.5,49.1c-0.4,0-0.7-0.1-1-0.2c-1.2-0.5-2.1-1.4-2.6-2.8
		c-1.8-4.3,0-12.3,1.9-18.6c-4.2,7.8-7.6,14-10.4,19.2c-11.6,21.4-13.4,24.7-21.5,38.3C279.2,278.6,271.2,281.1,268.5,281.1z
		 M268,279.6c0.6,0.1,8.2,1.3,24-25.1c8.1-13.5,9.9-16.8,21.4-38.2c3.7-6.9,8.5-15.7,14.8-27.3c0.2-0.3,0.6-0.5,1-0.3
		c0.4,0.2,0.5,0.6,0.4,0.9c-0.1,0.2-7.9,19.3-5,26.2c0.4,1,1,1.6,1.8,2c0.1,0.1,0.3,0.1,0.4,0.1c6.2,0,25.9-31.3,37.5-52.4
		c0.2-0.3,0.6-0.5,0.9-0.3c0.3,0.1,0.5,0.5,0.4,0.9c-0.1,0.3-6.2,26,3.1,30.5c0.5,0.2,1,0.3,1.5,0.3c10,0,28.9-33.9,29.1-34.2
		c0.2-0.3,0.6-0.5,1-0.3c0.4,0.2,0.5,0.6,0.3,1c-0.2,0.4-21.2,41.3-8.9,48c0.9,0.5,1.9,0.7,2.9,0.7c12.5,0,30.8-34.7,31-35
		c0.2-0.4,0.6-0.5,1-0.3s0.5,0.6,0.3,1c-0.2,0.3-16.1,33.5-12,44.4c0.5,1.4,1.4,2.4,2.5,2.9c0.6,0.2,1.2,0.4,1.9,0.4
		c11.5,0,29.2-35.3,29.4-35.6c0.2-0.4,0.6-0.5,1-0.3c0.4,0.2,0.5,0.6,0.4,1c-0.2,0.4-18.6,42-9,49.3c0.8,0.6,1.8,0.9,2.9,0.9
		c10.7,0,29.8-29.1,30-29.4c0.2-0.3,0.7-0.4,1-0.2c0.3,0.2,0.4,0.7,0.2,1c-5.1,8.4-17.1,31.5-11.4,36.9c0.6,0.6,1.4,0.8,2.3,0.8
		c9.3,0,30.3-24.2,30.5-24.4c0.2-0.3,0.6-0.3,0.9-0.1s0.4,0.6,0.3,0.9c-3.6,8.4-5.6,13.1-7,16.4c-2.3,5.4-3.1,7.2-6.9,16.4
		c-1.6,4-2.5,5.8-3,6.7c-0.1,0.3-0.3,0.6-0.3,0.7c0,0,0,0,0,0.1c0.1,0.2,0.3,0.7,0.5,0.7c1.6,0,5.4-6,8-9.9c1.2-1.8,2.3-3.6,3.2-4.9
		c2.6-3.6,4.9-6.3,7.3-9.1c3.4-4,7.3-8.6,13.2-17.1c18.2-26.2,25.9-65.2,2-93.4c-19.9-23.5-47.5-27.4-66.5-28.2
		c-0.2,0-0.4-0.1-0.5-0.3c-11.7-15.2-31.8-25.5-49.9-25.5c-4.3,0-8.5,0.6-12.5,1.7c-29.9,8.5-44.2,32.7-61.1,65.9
		c-6.5,12.8-15.1,28-24.2,44.1c-15.1,26.8-30.8,54.5-35.6,69.4C264.4,260.6,262.2,275.6,268,279.6z"/>
	<g class="st16">
		<g>
			<g>
				<defs>
					
						<rect id="SVGID_5_" x="416" y="56.9" transform="matrix(0.5515 -0.8342 0.8342 0.5515 81.0015 433.3884)" width="55" height="168.9"/>
				</defs>
				<clipPath id="SVGID_6_">
					<use xlink:href="#SVGID_5_"  style="overflow:visible;"/>
				</clipPath>
				<path class="st17" d="M364.1,108.5c5.8-8.8,13.1-12,22.3-16.3c-3.3,2.7-7.2,5.4-9.1,9c2.1-1.9,5.9-3.4,8.9-3
					c-0.6,1.5-2,2.6-3.1,3.6c1.7-0.5,2.8-2.1,4.6-2.6c-0.4,0.8-0.6,2-1,2.8c1.6-0.9,3.3-1.8,5.2-1.6c0.4,1.5-0.3,3-1,4.4
					c1-0.9,2.2-1.9,3.3-2.5c0.3,0,0.5,0.2,0.7,0.4c-0.5,1.8-0.5,3.9-0.5,5.6c2.6-2.3,4.9-5.9,8.4-7c0.1,2.2-1,4.6-1.1,6.9
					c2.4-1.6,4.2-4,7-5.4c0.8,2.6,0.6,8.2-1.1,10.6c2.7-2.8,4.9-6.4,8.6-8c0.1,3.1-1,6.4-1,9.3c2.4-3.3,4.4-8.9,8.4-10.7
					c1.9,4,1.1,12.1-1.5,15.7c0.7-2.6,3-4.5,5.6-5.2c0.5,2.1-0.1,5.1-0.5,7.3c1.1-0.9,2-2.4,3.2-2.6c-0.5,1.2-0.8,2.5-0.9,3.9
					c0.9-0.7,2.1-1.4,2.9-1.6c-0.6,1.6-0.3,3.4-0.1,5.1c1.1-0.7,2-1.7,3.2-2.2c-0.3,0.7-0.1,1.7-0.3,2.6c0.9-0.6,1.8-1.1,2.5-2
					c0.4,0.8,1.2,1.9,1.4,3c1.2-0.6,2.5-1.3,3.9-1c-0.4,1-0.3,2.2-0.4,3.2c1.7-0.4,2.8-1.7,4.4-2.2c-0.2,0.9,0.2,2,0,2.8
					c1-0.6,2.1-1.2,3-1.6c-0.3,1-0.1,4.2-0.2,5.3c4.1-2.5,6.6-8.4,11.1-10.3c1.2,3.8-1.7,10.6-2.9,14.3c2.6-1.7,6.6-7.6,9.6-8.7
					c-0.3,2.4-1.4,4.7-1.5,7.3c0.7-1.5,2.2-2.8,3.7-3.1c-0.4,1.9-0.6,3.8-0.7,5.7c1.3-0.6,2.5-1.5,3.8-2.1c-0.1,0.8,0.2,2.3,0.1,3
					c1.3-1,2.9-1.9,4.6-2.5c0.2,2.3-0.4,4.7,0.4,7c1.6-1.1,3.9-2.2,5.8-2.2c0,1.6-0.6,3.4-0.5,5.2c1.4-1.1,3.2-2.1,4.9-2.3
					c-0.5,2.1-0.9,4.5-0.4,6.6c3.2-1.6,6.5-3.5,9.5-5.4c-0.2,2.9-0.5,5.8-1.4,8.7c1.3-1.2,3.1-2.2,5-1.9c-0.2,2.2-0.1,4.3-0.1,6.4
					c1.2-1,2.5-1.9,3.7-2.8c0.1,1.1-0.5,2.9,0.1,4.1c0.5-0.6,1.5-0.9,2-1.5c0.1,0.3,0.3,0.9,0.4,1.2c2.6-1.8,2.2-5.4,4.2-7.6
					c2,3.2,2.8,10.3,1.4,13.8c0.9-1.8,2.3-3.4,3.9-4.6c6.2,12.6-5.6,29.5-13.1,39.6c-0.9-1.4,4.6-11.1,6-13.6
					c-0.7,1.9-1.4,3.8-2.8,5.4c-1-3,0.6-6.9,0.7-10.2c-1.3,0.8-2.1,2.5-3.6,3.2c0-2-0.6-5.2-0.5-6.4c-0.2,0.4-0.5,0.7-0.7,1.1
					c0.2-1.5,0.8-2.9,0.3-4.2c-3.5,5.1-7.9,9.7-13.2,12.9c1-5.2,2.6-10.5,4.2-15.5c-2.1,1.8-3.3,4.9-5.7,6.4
					c0.7-1.8,1.3-4.3,0.8-6.4c-0.4,0.3-1.8,0.6-2.2,1.1c1.1-1.9,2-4,2-6.2c-0.6,0.5-1.9,0.6-2.5,1c-0.3-1.9-0.9-3.9-1.3-5.7
					c-5.8,4.3-11.7,9.2-17.7,13.2c3-4.1,5-8.8,7.8-13.1c-0.8,1.4-2.4,2.5-3.5,3.5c0.6-2.4,2.2-4.5,2-7.1c-1.2,1.1-2.4,2.5-3.8,3.4
					c0.1-1.8-0.3-3.9-1-5.7c-1.3,1-3,1.6-4.6,2.1c0.1-2.6,0-5.3-0.1-7.8c-1,0.9-2,2-3.1,2.7c0.5-1,0.5-2.4,0.1-3.3
					c-4.5,2.5-11.5,9.6-14,14.2c1.1-5.6,3.5-11.5,5.9-16.7c-1.2,2.3-3.6,4.9-5.7,6.2c0.1-3.1,0.3-6.2-0.1-9.3
					c-1.6,1.2-2.5,3.4-4.3,4.2c0.1-2.2-0.2-4.6-0.1-6.8c-1.6,1.5-3.6,2.9-4.9,4.6c0.5-2.5,0.1-5.8,0.7-8.5
					c-6.1,4.8-12.5,7.8-12.5,7.8l5.3-12.6c0,0-6.4,5.1-8.7,7.5c0.4-2,0.6-4.1,0.6-6.1c-0.7,0.5-2,1-2.6,1.5c0.9-1.4,2-2.7,2.1-4.4
					c-0.8,0.7-2,1.1-2.7,1.5c1.1-1.4,2.1-3.1,1.9-5c-1.1,0.2-2.1,0.8-2.9,1.7c0-1.4,0.4-3.5,0.5-5.3c-2.6,1.9-5.5,4.1-8.3,5.7
					c1.6-2,1.6-4.6,3.1-6.6c-2.7,2-5.1,5.2-7.5,7.6c2.1-3.6,2.4-7.8,4.8-11.3c-2.9,5.6-5.4,14.1-10.2,18.2
					c-1.6-6.2,0.9-12.9,2.9-18.6c-1.2,2.1-3.1,5.1-5,6.2c0.6-2.3,0.5-4.9,0.3-7.3c-1,1.4-2.2,2.7-3.5,3.9c0.7-1.5,0.6-3.5,0.4-5
					c-1.9,1-3.7,2.6-5.2,4c1.4-2.4,1.5-5.1,2.4-7.6c-5.2,3.6-11.5,9.3-15.1,14.5c0.1-5.5,7.5-10.4,7.5-15.5c-1.9,2.1-5.1,3.7-7.7,5
					c1-3,1.7-6.1,2.3-9.2c-0.8,1.1-1.9,2.1-2.9,3c0.1-1.5-0.1-3.1-0.4-4.4c-1,0.6-2.1,1.2-3,1.9c0.4-1,0-1.9,0-2.6
					c-0.3,0.3-0.8,0.5-1.1,0.8c-0.6-1-0.7-2.5-1-3.5c-3.8,3.6-7.6,8-11.9,11.4c0.3-6.1,4.6-9.5,7.7-14.1"/>
			</g>
		</g>
	</g>
	<path class="st10" d="M459.6,30.9c-8.4-3.8-15.6-14.4-7.2-27.1c3.2-4.8,14.3-12.9,26.9-1.6c12.6,11.2,2.4,30.1-12.2,29.9
		C467,32,460.7,31.4,459.6,30.9"/>
	<path class="st9" d="M467.2,32.8l-0.2,0c-1.1-0.1-6.5-0.7-7.7-1.2c-5.3-2.4-9.3-6.8-10.8-11.9c-1.5-5.2-0.4-10.8,3.2-16.3
		c2.4-3.7,8-7.7,14.4-7.7c4.6,0,9.2,2,13.6,5.9c5.6,5,7.4,12.1,4.8,18.9C481.7,27.8,474.8,32.8,467.2,32.8z M466.2-2.8
		c-6.8,0-11.6,4.6-13.2,7c-3.4,5.1-4.4,10.3-3.1,15.1c1.4,4.7,5.1,8.8,10,11c0.8,0.3,4.8,0.8,7.2,1.1l0.1,0c7,0,13.4-4.6,16-11.3
		c2.4-6.3,0.8-12.7-4.4-17.3C474.7-1,470.4-2.8,466.2-2.8z"/>
	<path class="st8" d="M416.9,98.6c0,0,15.4-53.5,36.9-71.7l-2.7-3.4c0,0-26,22.5-40.5,72.8C410.7,96.4,411.6,101.7,416.9,98.6"/>
	<path class="st9" d="M413.9,100.3L413.9,100.3c-2.6,0-3.8-2.5-4-3.8c0-0.1,0-0.2,0-0.3c14.3-50,40.4-73,40.7-73.2
		c0.1-0.1,0.3-0.2,0.5-0.2c0.2,0,0.4,0.1,0.5,0.3l2.7,3.4c0.2,0.3,0.2,0.8-0.1,1c-21.1,17.8-36.5,70.8-36.7,71.3
		c-0.1,0.2-0.2,0.3-0.3,0.4C416.1,100,414.9,100.3,413.9,100.3z M411.4,96.5c0.1,0.5,0.7,2.4,2.5,2.4l0,0c0.7,0,1.5-0.2,2.4-0.7
		c1.4-4.7,15.9-53.3,36.5-71.3l-1.8-2.2C447.2,28.3,424.5,51.1,411.4,96.5z"/>
	<path class="st11" d="M465.9,27.4c-3.8-0.2-6.4-1-9.1-3.2c-3.3-2.7-4.9-5.3-5.1-8.4c-0.2-3.9-0.4-5,1.6-8.3
		c2.7-4.3,3.8-5.1,5.5-6.5c1.3-1.1,2.5-1.6,3.1-0.4c0.7,1.2,0.2,3-1,5.8c-1.1,2.8-2.7,5.3-1.5,8.6c1.5,4.3,2.4,3.8,4.9,5.7
		c2.5,2,2.3,1.2,3.8,2.9c1.3,1.6,1.4,2.7,0,3.2C466.9,27.5,465.9,27.4,465.9,27.4"/>
	<g>
		<path class="st4" d="M321.1,207.9c0,0-19.7-29.8-34.7,22.1c-4.9,16.8,19.6,21.4,19.6,21.4"/>
		<path class="st5" d="M306,252.3c-0.1,0-0.1,0-0.2,0c-0.6-0.1-13.9-2.7-19-11.1c-2.1-3.4-2.5-7.3-1.3-11.5
			c5.6-19.4,12.6-29.9,20.8-31.1c8.7-1.3,15.3,8.4,15.5,8.8c0.3,0.4,0.2,1-0.3,1.2c-0.4,0.3-1,0.2-1.2-0.3c-0.1-0.1-6.2-9.2-13.8-8
			c-7.3,1.1-14,11.4-19.3,29.9c-1.1,3.7-0.7,7.1,1.1,10c4.7,7.7,17.7,10.2,17.8,10.3c0.5,0.1,0.8,0.6,0.7,1.1
			C306.8,252,306.5,252.3,306,252.3z"/>
	</g>
	<g>
		<path class="st5" d="M299.9,233c-0.2,0-0.4-0.1-0.5-0.2c-0.3-0.3-0.2-0.8,0.1-1c0.1-0.1,8.9-8.2,10.4-17.7
			c0.1-0.4,0.4-0.7,0.8-0.6c0.4,0.1,0.7,0.4,0.6,0.8c-1.5,10-10.4,18.2-10.8,18.6C300.2,232.9,300,233,299.9,233z"/>
		<path class="st5" d="M297.3,226c-1.6,0-3.3-0.1-4.9-0.4c-0.4-0.1-0.7-0.5-0.6-0.9c0.1-0.4,0.5-0.7,0.9-0.6c4.9,1,10.5,0,12.7-0.5
			l-5.9-9.9c-0.2-0.3-0.1-0.8,0.3-1c0.3-0.2,0.8-0.1,1,0.3l6.4,10.8c0.1,0.2,0.1,0.4,0,0.6s-0.3,0.4-0.5,0.4
			C306.5,224.9,302.2,226,297.3,226z"/>
	</g>
	<g>
		<path class="st18" d="M367.1,234.1c-2.9,8-5.5,13.5-5.5,13.5c19.4,3.8,24.4,14.8,24.4,14.8s11.2-11.1,13.1-16.5
			c2.9-8-1.9-17.1-10.7-20.3C379.6,222.3,370,226.1,367.1,234.1"/>
		<path class="st9" d="M367.1,235c-0.1,0-0.2,0-0.3-0.1c-0.5-0.2-0.7-0.7-0.5-1.2c3.1-8.4,13.2-12.5,22.5-9.1
			c0.5,0.2,0.7,0.7,0.5,1.2c-0.2,0.5-0.7,0.7-1.2,0.5c-8.4-3.1-17.4,0.5-20.1,8C367.8,234.8,367.5,235,367.1,235z"/>
		<path class="st9" d="M399.1,246.8c-0.1,0-0.2,0-0.3-0.1c-0.5-0.2-0.7-0.7-0.5-1.2c1.3-3.6,1-7.6-0.9-11.2c-1.9-3.6-5.2-6.5-9.3-8
			c-0.5-0.2-0.7-0.7-0.5-1.2c0.2-0.5,0.7-0.7,1.2-0.5c4.5,1.6,8.1,4.8,10.3,8.8c2.1,4.1,2.5,8.6,1,12.7
			C399.9,246.5,399.5,246.8,399.1,246.8z"/>
		<path class="st5" d="M386,264.8c-0.4,0-0.8-0.2-1-0.6c-8.2-14.9-28.2-16.2-28.4-16.2c-0.6,0-1.1-0.6-1.1-1.2
			c0-0.6,0.6-1.1,1.2-1.1c0.9,0,21.4,1.3,30.3,17.4c0.3,0.5,0.1,1.2-0.4,1.5C386.4,264.7,386.2,264.8,386,264.8z"/>
		<path class="st3" d="M372.5,238.7c-2.1,4.6-1.4,9.4,1.5,10.7c2.9,1.3,7-1.3,9.1-5.9c2.1-4.6,1.4-9.4-1.5-10.7
			C378.6,231.5,374.6,234.1,372.5,238.7"/>
	</g>
	<g>
		<path class="st18" d="M430.4,273.5c-2.3,6.4-4.4,10.7-4.4,10.7c15.5,3.1,19.4,11.8,19.4,11.8s8.9-8.9,10.5-13.2
			c2.3-6.4-1.5-13.6-8.5-16.2C440.3,264.1,432.7,267.2,430.4,273.5"/>
		<path class="st9" d="M430.4,274.3c-0.1,0-0.2,0-0.3,0c-0.4-0.1-0.6-0.6-0.4-0.9c1.2-3.3,3.7-5.8,7.1-7.2c3.4-1.4,7.2-1.4,10.8-0.1
			c0.4,0.1,0.6,0.6,0.4,0.9s-0.6,0.6-0.9,0.4c-3.2-1.2-6.7-1.2-9.7,0.1c-3,1.2-5.3,3.5-6.3,6.3C431,274.1,430.7,274.3,430.4,274.3z"
			/>
		<path class="st9" d="M455.9,283.6c-0.1,0-0.2,0-0.3,0c-0.4-0.1-0.6-0.6-0.4-0.9c1.1-2.9,0.8-6.1-0.7-8.9c-1.5-2.9-4.2-5.2-7.4-6.3
			c-0.4-0.1-0.6-0.6-0.4-0.9c0.1-0.4,0.6-0.6,0.9-0.4c3.6,1.3,6.5,3.8,8.2,7c1.7,3.2,2,6.8,0.8,10.1
			C456.5,283.4,456.2,283.6,455.9,283.6z"/>
		<path class="st5" d="M445.4,298c-0.3,0-0.6-0.2-0.8-0.5c-6.6-11.9-22.5-12.9-22.7-12.9c-0.5,0-0.9-0.5-0.8-0.9
			c0-0.5,0.4-0.9,0.9-0.8c0.7,0,17.1,1.1,24.1,13.9c0.2,0.4,0.1,1-0.4,1.2C445.7,298,445.6,298,445.4,298z"/>
		<path class="st3" d="M434.7,277.2c-1.7,3.7-1.1,7.5,1.2,8.5c2.3,1.1,5.6-1.1,7.2-4.7c1.7-3.7,1.1-7.5-1.2-8.5
			C439.6,271.4,436.3,273.5,434.7,277.2"/>
	</g>
	<g>
		<path class="st19" d="M234.2,396.1c0,0-17.7-15.6-57,20.6c-16.6,15.2-38.6,50.4-47.6,77.4c-9,27-21.9,78.1-29.4,100.5
			c0,0,93.7,62,127.1,68.5c0,0,31.4-101.1,36.1-125.3c0,0,15.3,7.8,36.3,9.8c0,0,25.1-20.3,21.6-35.4c0,0-28.1-27.9-35.4-37.3
			s-12.9-27.8-18.7-36.8C267.1,438.2,230.8,429.4,234.2,396.1z"/>
		<path class="st20" d="M228.1,664.7l-1.2-0.2c-33.3-6.4-123.8-66.1-127.6-68.7l-0.8-0.6l0.3-1c3.6-10.7,8.4-27.9,13.4-46.1
			c5.5-19.8,11.3-40.4,16-54.5c8.8-26.4,30.8-62.1,48-78c21.8-20.1,37.2-24.3,46.2-24.3c8.4,0,12.5,3.5,12.6,3.7l0.5,0.5l-0.1,0.7
			c-3.2,31.7,30.5,40.3,31.9,40.7l0.5,0.1l0.3,0.4c2.5,4,5,9.6,7.6,15.6c3.4,7.8,7,15.9,11,21.1c7.1,9.2,35,36.8,35.2,37.1l0.3,0.3
			l0.1,0.4c3.7,15.7-21,35.9-22,36.7L300,549l-0.5-0.1c-17.4-1.7-30.8-7.2-35.2-9.2c-5.7,26.6-35.5,122.8-35.8,123.8L228.1,664.7z
			 M101.6,594.1c9.3,6.1,92.6,60.4,124.6,67.5c3.5-11.3,31.3-101.6,35.7-124l0.3-1.7l1.6,0.8c0.1,0.1,15.1,7.6,35.2,9.6
			c3.2-2.7,23.4-20.3,20.8-33.4c-3.1-3.1-28.3-28.2-35.2-37.1c-4.2-5.4-7.8-13.7-11.3-21.6c-2.5-5.7-4.8-11-7.2-14.8
			c-4.5-1.3-36.1-11.4-33.5-42.6c-1.2-0.8-4.6-2.6-10.4-2.6c-8.5,0-23.2,4.1-44.4,23.6c-16.9,15.6-38.6,50.8-47.3,76.9
			c-4.7,14-10.4,34.5-15.9,54.4C109.9,566.6,105.2,583.3,101.6,594.1z"/>
	</g>
	<path class="st20" d="M286.6,546l-1.8-2c14.9-13.3,24.2-40.5,24.3-40.8l2.5,0.9C311.3,505.3,302,532.3,286.6,546z"/>
	<path class="st20" d="M257.6,440.3c-15.6,0-21.3-7.3-27.9-15.5l-1-1.3c-8.3-10.4-3.1-29.9-2.9-30.7l2.6,0.7
		c-0.1,0.2-5.1,19,2.4,28.3l1,1.3c7.5,9.5,13.5,16.9,35.1,13.7l0.4,2.6C263.7,440,260.5,440.3,257.6,440.3z"/>
	<path class="st20" d="M264.3,465.5l-2.1-1.6c0.2-0.2,4.1-5.3,15.1-5.6l0.1,2.7C267.7,461.2,264.4,465.5,264.3,465.5z"/>
	<path class="st20" d="M264.6,475.4l-2.6-0.7c0.1-0.3,1.9-6.3,14.8-11.2l0.9,2.5C266.3,470.3,264.6,475.3,264.6,475.4z"/>
	<path class="st20" d="M262.8,539.1c-16.7-6.1-25.1-17.8-25.5-18.3l2.2-1.5c0.1,0.1,8.4,11.5,24.2,17.3L262.8,539.1z"/>
	<path class="st20" d="M255,544.8c-9.7,0-17-5.7-17.4-6l1.6-2.1c0.1,0.1,10.7,8.2,22.6,4.3l0.8,2.5C260,544.5,257.4,544.8,255,544.8
		z"/>
	<path class="st20" d="M230.3,654.4c-31.6-0.3-123.3-67.9-127.2-70.8l1.6-2.1c0.9,0.7,94.9,70,125.7,70.3L230.3,654.4z"/>
	<g>
		<g>
			<polygon class="st21" points="139.7,500.3 207.7,469.2 167.9,447.8 			"/>
			<polygon class="st21" points="137.1,504.6 177,526.1 171,488 138.9,501.4 			"/>
		</g>
	</g>
	<path class="st5" d="M470.1,394.1c-0.2,0-0.4-0.1-0.6-0.2c-0.4-0.3-0.4-0.9-0.1-1.3c0.4-0.4,8.9-9.9,12.4-13
		c0.4-0.3,0.9-0.3,1.3,0.1c0.3,0.4,0.3,0.9-0.1,1.3c-3.4,3.1-12.2,12.8-12.3,12.9C470.6,394,470.3,394.1,470.1,394.1z"/>
	<path class="st5" d="M480.8,400.2c-0.2,0-0.3,0-0.5-0.1c-0.4-0.3-0.5-0.8-0.3-1.2c0.3-0.4,7.1-10.8,11.3-15c0.4-0.4,0.9-0.4,1.3,0
		c0.4,0.4,0.4,0.9,0,1.3c-4.1,4.1-11,14.6-11.1,14.7C481.4,400.1,481.1,400.2,480.8,400.2z"/>
	<path class="st1" d="M183.5,682.7c-12,0-16.8-4.4-17-4.6l1.5-1.4l-0.7,0.7l0.5-0.7c0,0,4.6,4.1,15.6,4.1V682.7z"/>
	<path class="st1" d="M104.8,810c-4.6,0-5.8-0.9-6.1-1.2l1.4-1.4l-0.7,0.7l0.6-0.8c0,0,2.4,1.6,14.2-0.2l0.3,2
		C110.3,809.7,107.1,810,104.8,810z"/>
	<path class="st1" d="M114.2,818.5c-7.6,0-14.3-3.3-14.6-3.5l0.9-1.8c0.1,0.1,10.7,5.3,19.7,2.4l0.6,1.9
		C118.6,818.2,116.4,818.5,114.2,818.5z"/>
	<path class="st1" d="M171.3,815.3c-2.9,0-5.1-0.3-5.3-0.3l0.2-2c0.1,0,11.7,1.4,17-2.3l1.2,1.6
		C180.9,814.8,175.4,815.3,171.3,815.3z"/>
	<g>
		<path class="st22" d="M150,957.4c0,0-6.8,30.2-7.2,37.4s31.8,11.7,41,9.2c9.2-2.5,23.2-7.9,34.1-14c7.2-4,9.8-14.7,7.9-23.6
			c-1.9-9.1-19.2-16.3-34.2-9.8c-5,2.2-6,2.9-6,2.9v-2.2C185.5,957.4,159.5,960.6,150,957.4z"/>
		<path class="st23" d="M176.4,1005.2c-10.7,0-28.5-3-33-7.8c-0.8-0.9-1.2-1.8-1.1-2.7c0.5-7.2,7.1-36.3,7.4-37.5l0.1-0.5l0.5,0.2
			c2.8,0.9,7.3,1.4,13.4,1.4c10.4,0,22-1.4,22.2-1.4l0.6-0.1v1.8c0.8-0.5,2.3-1.3,5-2.4c3.9-1.7,8.1-2.5,12.4-2.5
			c10.8,0,20.8,5.7,22.3,12.7c1.8,8.5-0.5,19.9-8.2,24.1c-11.4,6.3-25.7,11.7-34.1,14C182.1,1005,179.6,1005.2,176.4,1005.2z
			 M150.6,958.1c-0.9,4.1-6.8,30.3-7.2,36.8c0,0.6,0.2,1.3,0.8,1.9c3.9,4.2,20.5,7.4,32.2,7.4c3.1,0,5.6-0.2,7.2-0.7
			c8.4-2.3,22.6-7.6,33.9-13.9c7.3-4,9.4-14.9,7.7-23c-1.4-6.6-10.9-11.9-21.3-11.9c-4.2,0-8.2,0.8-12,2.5c-4.7,2-5.6,2.8-5.6,2.8
			l-0.8,0.8l0-2.8c-2.5,0.3-12.5,1.3-21.7,1.3C157.9,959.3,153.5,958.9,150.6,958.1z"/>
	</g>
	<g>
		<path class="st18" d="M217.2,986.1c0.5,8.3,10.3-10.7,8.5-19.6c-1.9-9.1-19-16.3-34-9.8C191.7,956.7,215.7,960.6,217.2,986.1z"/>
		<path class="st23" d="M218.2,988.6L218.2,988.6c-0.9,0-1.4-0.8-1.5-2.5c-1.5-24.7-24.9-28.8-25.1-28.9l-1.7-0.3l1.6-0.7
			c3.9-1.7,8.1-2.5,12.4-2.5c10.8,0,20.8,5.7,22.3,12.7c1.3,6.3-3.1,17.3-5.9,20.8C219.4,988.1,218.8,988.6,218.2,988.6z
			 M193.4,956.6c5.4,1.4,23.1,7.7,24.3,29.4c0.1,1.3,0.4,1.6,0.5,1.6l0,0c0.1,0,0.5-0.1,1.3-1c2.7-3.3,7-14,5.7-20
			c-1.4-6.6-10.9-11.9-21.3-11.9C200.2,954.7,196.7,955.3,193.4,956.6z"/>
	</g>
	<g>
		<path class="st18" d="M212.5,983.5c0,0-20.7,12.3-29.5,13.1c-18.9,1.6-38-5.8-39.5-6.5s-1.5,5.7-0.6,7.2s20.3,10.1,38,7.4
			c10.2-1.5,36.2-12.9,39-16.1s9-10.6,4.9-24.7c-0.6-2.1-10.2,6.1-11.5,9.7S212.5,983.5,212.5,983.5z"/>
		<path class="st23" d="M173.7,1005.8c-15,0-30.4-6.6-31.3-8.2c-0.8-1.4-0.9-5.9-0.1-7.4c0.3-0.5,0.7-0.6,0.9-0.6
			c0.1,0,0.3,0,0.4,0.1c0.1,0.1,16,6.6,33.8,6.6c1.8,0,3.7-0.1,5.4-0.2c8.1-0.7,26.6-11.4,29-12.8c-0.1-1.3-0.4-6.5,0.8-9.7
			c1.2-3.3,9.1-10.3,11.5-10.3c0.5,0,0.9,0.3,1,0.7c4.3,14.6-2.5,22.3-5,25.1c-3.1,3.5-29.4,14.7-39.3,16.2
			C178.6,1005.6,176.2,1005.8,173.7,1005.8z M143.2,990.5c-0.6,0.4-0.7,5.2,0,6.5c0.7,1,14.8,7.7,30.4,7.7c2.4,0,4.8-0.2,7-0.5
			c10.2-1.5,36.1-13,38.7-15.9c2.4-2.8,8.9-10.1,4.8-24.2c-1.9,0-9.4,6.7-10.6,9.7c-1.3,3.4-0.7,9.5-0.7,9.6l0,0.3l-0.3,0.2
			c-0.8,0.5-20.9,12.4-29.7,13.1c-1.8,0.1-3.6,0.2-5.5,0.2C159.4,997.3,143.4,990.6,143.2,990.5z"/>
	</g>
	<path class="st24" d="M186,973.5"/>
	<path class="st23" d="M189.9,971.5c-1.3,0-2.5-0.3-3.2-1.1c-2.1-2.4-1.7-6-1.4-9.1c0.1-1.4,0.3-2.7,0.2-3.8l1-0.1
		c0.1,1.1,0,2.5-0.2,4c-0.3,3-0.7,6.3,1.2,8.3c2.8,3.1,14.7-3.3,19.1-6.1l0.5,0.8C205.7,965.4,195.7,971.5,189.9,971.5z"/>
	<path class="st18" d="M204.7,971.2c-0.3,0-0.7-0.2-0.8-0.5c-0.1-0.1-5.3-8.2-14.5-12.2c-0.5-0.2-0.7-0.8-0.5-1.3s0.8-0.7,1.3-0.5
		c9.8,4.2,15.2,12.6,15.4,13c0.3,0.5,0.2,1.1-0.3,1.4C205.1,971.1,204.9,971.2,204.7,971.2z"/>
	<path class="st18" d="M197.2,973.8c-0.3,0-0.7-0.2-0.9-0.5c-3.1-5.2-8-10.1-10.2-12c-0.4-0.4-0.5-1-0.1-1.4c0.4-0.4,1-0.5,1.4-0.1
		c2.4,2.1,7.3,7,10.6,12.5c0.3,0.5,0.1,1.1-0.3,1.4C197.6,973.8,197.4,973.8,197.2,973.8z"/>
	<g>
		<ellipse class="st18" cx="155.9" cy="971.1" rx="3.4" ry="5.1"/>
		<path class="st23" d="M155.9,976.7c-2.2,0-3.9-2.5-3.9-5.6s1.8-5.6,3.9-5.6s3.9,2.5,3.9,5.6S158.1,976.7,155.9,976.7z
			 M155.9,966.4c-1.6,0-2.9,2.1-2.9,4.6s1.3,4.6,2.9,4.6s2.9-2.1,2.9-4.6S157.5,966.4,155.9,966.4z"/>
	</g>
	<g>
		<path class="st22" d="M82.6,944.2c0,0-9.4,33.5-9.9,40.7s31.8,11.7,41,9.2c9.2-2.5,9.2-2.5,19.1-11c6.3-5.4,5.5-13.3,3.6-22.2
			c-1.9-9.1-6.9-13.2-15.1-12.9c-5.4,0.2-5.7,1.6-5.7,1.6v-2.2C115.5,947.4,94.5,947.3,82.6,944.2z"/>
		<path class="st23" d="M106.4,995.2c-10.7,0-28.5-3-33-7.8c-0.8-0.9-1.2-1.8-1.1-2.7c0.5-7.2,9.6-39.4,10-40.8l0.1-0.5l0.5,0.1
			c11.7,3.1,32.8,3.2,33,3.2l0.5,0v1.5c0.8-0.4,2.3-0.8,5-0.9c8.5-0.3,13.5,4,15.4,13.3c1.7,8.3,2.9,16.9-3.8,22.6
			c-9.9,8.5-9.9,8.5-19.2,11.1C112.1,995,109.6,995.2,106.4,995.2z M83.2,944.8c-1.2,4.1-9.4,33.5-9.9,40.1c0,0.6,0.2,1.3,0.8,1.9
			c3.9,4.2,20.5,7.4,32.2,7.4c3.1,0,5.6-0.2,7.2-0.7c9.1-2.5,9.1-2.5,18.8-10.9c6.2-5.3,5.2-13.3,3.4-21.7
			c-1.8-8.8-6.4-12.8-14.4-12.5c-4.6,0.2-5,1.2-5,1.2l-1-0.1v-1.7C112.2,947.9,94,947.5,83.2,944.8z"/>
	</g>
	<g>
		<ellipse class="st18" cx="90.2" cy="964.1" rx="5.1" ry="5.1"/>
		<path class="st23" d="M90.2,969.8c-3.1,0-5.7-2.6-5.7-5.7s2.6-5.7,5.7-5.7s5.7,2.6,5.7,5.7S93.4,969.8,90.2,969.8z M90.2,959.5
			c-2.5,0-4.5,2-4.5,4.5s2,4.5,4.5,4.5s4.5-2,4.5-4.5S92.7,959.5,90.2,959.5z"/>
	</g>
	<g>
		<path class="st18" d="M132.6,963.7c0,0-4.6-16.6-15-15.1c0,0,14.8-5.2,18.7,12L132.6,963.7z"/>
		<path class="st23" d="M132.3,964.5l-0.2-0.7c0-0.1-4.2-14.8-13.2-14.8c-0.4,0-0.8,0-1.2,0.1l-0.2-1c0.1,0,2.2-0.8,5.1-0.8
			c4.2,0,11.7,1.7,14.3,13.1l0.1,0.3L132.3,964.5z M121.6,948.4c6.9,2.1,10.4,11.7,11.3,14.4l2.9-2.4c-2.4-10-8.5-12.1-13.2-12.1
			C122.2,948.3,121.9,948.3,121.6,948.4z"/>
	</g>
	<g>
		<path class="st18" d="M129.6,976.2c0,0-7.9,9.6-16.7,10.4c-18.9,1.6-38-5.8-39.5-6.5s-1.5,5.7-0.6,7.2s20.3,10.1,38,7.4
			c10.2-1.5,20.2-9.9,23-13.1s6.6-6.7,2.5-20.7c-0.6-2.1-4.4,0.1-5.7,3.6S129.6,976.2,129.6,976.2z"/>
		<path class="st23" d="M103.7,995.8c-15,0-30.4-6.6-31.3-8.2c-0.8-1.4-0.9-5.9-0.1-7.4c0.3-0.5,0.7-0.6,0.9-0.6
			c0.1,0,0.3,0,0.4,0.1c0.1,0.1,16,6.6,33.8,6.6c1.8,0,3.7-0.1,5.4-0.2c7.9-0.7,15.2-8.9,16.2-10c0-1.3-0.2-8.3,1-11.7
			c1-2.5,3.3-4.8,5.1-4.8c0.8,0,1.3,0.4,1.6,1.2c4,13.8,0.5,17.7-2.3,20.8l-0.3,0.4c-3.1,3.5-13.3,11.7-23.3,13.2
			C108.6,995.6,106.2,995.8,103.7,995.8z M73.2,980.5c-0.6,0.4-0.7,5.2,0,6.5c0.7,1,14.8,7.7,30.4,7.7c2.4,0,4.8-0.2,7-0.5
			c9.8-1.5,19.7-9.5,22.7-12.9l0.3-0.4c2.7-3,6-6.7,2.1-19.9c-0.1-0.3-0.3-0.5-0.6-0.5c-1.1,0-3.2,1.6-4.2,4.1
			c-1.3,3.4-1,11.4-1,11.5l0,0.2l-0.1,0.1c-0.3,0.4-8.1,9.8-17,10.6c-1.8,0.1-3.6,0.2-5.5,0.2C89.4,987.3,73.4,980.6,73.2,980.5z"/>
	</g>
	<path class="st23" d="M118.1,961.9c-0.3,0-0.6-0.1-0.8-0.2c-0.9-0.7-2-2.7-1.9-13.1l1,0c-0.2,9.6,0.8,11.8,1.4,12.3
		c0.7,0.5,5-1.8,9.3-5l0.6,0.8C125.5,958.4,120.5,961.9,118.1,961.9z"/>
	<path class="st18" d="M126.2,961.1c-0.3,0-0.6-0.2-0.8-0.4c-1.5-2.2-6.1-8.2-8.6-9c-0.5-0.2-0.8-0.7-0.7-1.3
		c0.2-0.5,0.7-0.8,1.3-0.7c3.6,1.2,9.1,8.9,9.7,9.8c0.3,0.5,0.2,1.1-0.3,1.4C126.6,961,126.4,961.1,126.2,961.1z"/>
</g>
</svg>
