<?xml version="1.0" encoding="utf-8"?>
<!-- Generator: Adobe Illustrator 23.0.4, SVG Export Plug-In . SVG Version: 6.00 Build 0)  -->
<svg version="1.1" id="Capa_1" xmlns="http://www.w3.org/2000/svg" xmlns:xlink="http://www.w3.org/1999/xlink" x="0px" y="0px"
	 viewBox="0 0 221.6 334.5" style="enable-background:new 0 0 221.6 334.5;" xml:space="preserve">
<style type="text/css">
	.st0{fill:#4BA7BF;}
	.st1{fill:#FFFFFF;}
	.st2{fill:#B8B7B7;}
	.st3{fill:#B8B8B8;}
	.st4{fill:#20201E;}
	.st5{fill:#48A2B8;}
	.st6{fill:#188598;}
	.st7{fill:#C1525F;}
	.st8{fill:#E9C7B5;}
	.st9{fill:#90404B;}
	.st10{fill:#34A0B5;}
	.st11{fill:#BD4A4F;}
	.st12{fill:#E4C0AE;}
	.st13{fill:#DC9E83;}
	.st14{fill:#FAFBFA;}
	.st15{fill:#38818B;}
	.st16{fill:#E6F2F9;}
	.st17{fill:#C15360;}
	.st18{fill:#AB2F3D;}
	.st19{fill:#BF5661;}
	.st20{fill:#51A0B3;}
	.st21{fill:#49A3B9;}
	.st22{fill:#198698;}
	.st23{fill:#DCC549;}
	.st24{fill:#DC9F84;}
	.st25{fill:#C2AB37;}
	.st26{fill:#F8F4F1;}
	.st27{fill:#B95961;}
	.st28{fill:#E4E0DE;}
</style>
<g>
	<ellipse class="st0" cx="114.3" cy="310.6" rx="84.5" ry="10"/>
	<path class="st4" d="M74.1,69c-0.2-0.4-0.5-0.8-0.7-1.2c-0.2-0.5-0.4-1,0.4-1.3c0.7,0.2,0.9,0.8,1.2,1.3c2.2,3.8,5,7.1,8.1,10.3
		c0.2-0.5,0.1-1.1,0.8-1c0.6,0.1,0.5,0.7,0.6,1.1c0.3,1.9,0.6,2,2.1,0.9c2.9-2.4,5.9-4.7,7.1-8.5c0.1-0.1,0.2-0.2,0.2-0.3
		c0.1-0.1,0.1-0.2,0.1-0.3c1-2,1.5-4.2,1.5-6.4c0.1-1.5,0.5-2.5,2.4-2.6c2,0,2.9-1.5,2.4-3.1c-0.3-0.9-0.8-1.6-1.9-0.9
		c-0.4,0.2-0.9,0.5-1.1-0.1c-0.2-0.6,0.3-0.8,0.7-0.9c0.8-0.2,1.6-0.4,2.3-0.6c1.1,0.3,1.8,0.9,2,2.1c-0.1,1.1-0.4,2.2-1,3.1
		c-0.8,1.1-1.8,1.7-3.1,1.7c-0.8,0-1.3,0.3-1.4,1.1c-0.3,3.7-1.7,6.9-3.1,10.2c0,0.1,0,0.1-0.1,0.2c0,0,0,0.1,0,0.1
		c-0.7,0.3-0.9,1-1.3,1.6c-0.5,0.6-1,1.2-1.5,1.8c-0.7,1.4,0,2.6,0.3,3.8c0,0.1,0,0.2,0,0.3c0.4,2.9,1.4,4.9,4.8,5.1
		c3.2,0.3,6.1,1.8,9.1,2.9c0.1,0,0.2,0.1,0.3,0.1c0-0.1-0.1-0.2-0.1-0.3c-0.5-1.1-1.1-2.2-1.6-3.2c0.2-1.3-0.5-2.3-0.7-3.5
		c-0.1-1-0.9-0.2-1.3-0.1c-0.4,0.1-0.7,0.2-0.9-0.2c-0.2-0.3,0-0.7,0.3-0.7c2-0.4,1.7-1.8,1.7-3.2c0-0.5,0-1,0-1.5
		c0.2-1.4,0.4-2.9,0.7-4.4c-0.7,0.4-1.1,1-1.5,1.6c-0.9,1-1.8,2-2.7,3c-0.4,0.4-0.7,0.9-1.4,0.6c-0.2-0.7,0.3-1.2,0.7-1.6
		c3.8-4,6.8-8.7,9.3-13.6c1-1.9,1.6-3.9,1.7-6.1c0.9-3.9-0.2-7.5-1.8-10.9c-0.4-0.9-0.7-2-1.5-2.7c-0.2-0.6-0.5-1.1-1-1.5l0,0
		c-0.3-0.8-0.8-1.6-1.5-2.1l0,0c0-0.4-0.3-0.4-0.6-0.4c0-1.1-0.9-1.6-1.5-2.3c-1.3-1.5-2.7-3.1-4.4-4.2C91.9,28.7,87,24.7,80.5,24
		c-4.4-0.5-8.8-0.7-13.1,0.5c-2.8,0.8-5.3,2.1-6.7,4.8c-1.1,1.9-1.6,3.9-0.9,6.1c0,0.2-0.1,0.5,0.3,0.6l0,0c0.5,2.9,3.1,5.2,6.8,5.8
		c2.3,0.4,4.6,0.1,6.9-0.3c3.2-0.1,6.5-0.4,9.7-0.3c3.7,0.1,7.3,0.6,10.5,2.8c0.5-0.2,0.1-1.3,0.9-1.1c0.6,0.1,0.6,0.8,0.8,1.2
		c0.4,1.5,1.1,2.9,1.7,4.4c0.8,1.6-0.4,3.3,0.3,4.9c-0.8,0.9-1.1,0.3-1.2-0.4c-0.2-0.7-0.2-1.4-0.4-2c-0.4-2.1-0.2-4.4-2.3-5.8
		c-0.8-0.6-1.7-1.2-2.7-1.5c0,0-0.1,0-0.1,0c-0.2-0.1-0.4-0.2-0.6-0.3c-1.6-0.7-3.2-0.9-4.9-0.8c-0.5,0-1-0.1-1.6-0.1
		c-0.5-0.2-1-0.3-1.5,0c-0.5-0.1-0.6,0.4-0.9,0.5c-1.6,0.3-3.3,0.6-4.5,1.8c-0.3-0.1-0.5,0-0.7,0.3l0,0c-0.3,0-0.6,0.1-0.7,0.4
		l-0.1,0.1c-1.8,1.1-3.4,2.5-4.9,4c-1.2,1.2-0.3,2.6-0.1,4c0.1,2.2,0.3,4.3,0.4,6.5c0,0.3,0.1,0.9,0.3,1c1.4,0.9-0.1,2.1,0.5,3.1
		c0.1,0.2-0.2,0.3-0.4,0.3c-0.4,0-0.6-0.2-0.8-0.5c-0.4-0.6,0-1.6-0.8-2c-1.5,0.4-1.8,1-1.1,2.7c0.6,1.3,1.9,1.5,3.1,1.8
		c0.4,0.1,0.9,0,1.2,0.4c-0.1,0.3-0.2,0.7-0.7,0.8c-1.7,0.3-4.2-1.1-4.9-2.7c-0.8-1.8-0.1-3.5,1.8-4.1c0.6-0.2,0.8-0.3,0.8-1
		c-0.1-2.5-0.3-5.1-1-7.5c-0.4-1.4-0.3-2.7-0.5-4c0.2-0.4,0.1-1,0.8-1c0.2,0.4,0.4,0.8,0.6,1.3c2.3-2.3,4.8-4.3,7.6-5.8
		c-1.2,0.1-2.4,0.3-3.7,0.4c-0.1,0-0.2,0.1-0.3,0.1l0,0c-0.9,0-1.9,0.1-2.8,0.1c-1.2,0-2.3,0-3.5-0.1c-1.1-0.1-1.7,0-1.1,1.3
		c0.1,0.2,0.2,0.5,0.3,0.7c0.1,1.3,0.3,2.6,0.4,3.9c-1.2,8.9-7.4,14.4-13.7,19.8c-5.2,4.5-11.4,7.1-18,8.9c-0.5,0.1-1.1,0.2-1.5,0.6
		c-2.5,0.5-5,1.1-7.5,1.6c-1.1,0.1-2.1,0.4-3.3,0c-0.7-0.2-1.3,0.2-1.4,1c-0.1,0.7,0.1,1.3,0.8,1.3c2.5,0.1,4.8,1.3,7.3,1.3
		c4.4,0.6,8.8,0.4,13.2,0.2c2.2,0.1,4.3-0.1,6.4-0.5c6.5-0.5,12.8-2,19.1-3.8c0.7-0.2,1.5-0.9,2.3-0.2c0,0.2,0,0.4,0,0.5
		c-3.4,1.5-7,2.2-10.6,3c-3.4,0.8-6.8,1.2-10.2,1.6c-2.1,0.1-4.2,0.3-6.3,0.4c-3.5,0.3-7,0.3-10.5,0.1c-4.8-0.2-9.5-0.9-13.8-3.3
		c-0.4-0.2-1-0.3-1-1c0.1-0.8,0.8-0.6,1.2-0.7c4.5-0.7,8.9-2.2,13.4-3.2c9.8-2.2,18.5-6.5,25.4-14c2.8-3.1,5.4-6.3,6.6-10.4
		c0.8-2.2,0.9-4.5,0.4-6.8c0.2-0.9-1.4-1.9,0.2-2.7c-0.6-0.3-1.1-0.5-1.7-0.7c-4.2-2.1-6.7-7.3-5.3-11.5c0.9-2.7,2.8-4.8,5.4-6.1
		c2-1,4.2-1.5,6.4-1.9c5.2-0.3,10.3-0.3,15.3,1.4c2.7,0.9,5.1,2.1,7.4,3.8c0.3,0.2,0.5,0.7,1,0.4c0,0,0,0,0,0
		c0.3,0.8,0.7,1.6,1.8,1.3c0.8,0.2,1.3,0.7,1.9,1.2c2.4,1.9,4.4,4.2,6.3,6.6c2.7,3.6,5.4,7.1,6.5,11.6c1.7,6.8-0.1,13-3.8,18.8
		c-2.2,3.5-2.7,7.4-2.8,11.3c0,0.7,0.2,1,0.9,0.6c3.6-1.7,7.3-3.4,10.5-5.8c4.6-3.5,9.3-7,14.9-8.7c4.6-1.5,9-3.5,13.4-5.8
		c9.2-4.8,17.7-10.7,26.4-16.4c7.6-5,15.5-9.6,23.9-13.1c1.4-0.6,2.8-1.1,4.4-1c0.8,0.1,1.8,0.1,2.1,1.1c0.4,1.1-0.6,1.6-1.2,2.2
		c-0.3,0.2-0.7,0.4-1.1,0.5c-1.5,0.3-2.6,1.2-3.6,2.4c-1.3,1.2-2,2.6-2.4,4.4c-0.5,1.1-0.6,2.3-0.6,3.5c-0.1,2.6,0.1,5.2,0.6,7.8
		c0.2,1,0,1.7-1.2,1.1c-0.5-1.9-1.9-2.7-3.6-2.9c-2.4-0.4-4.6,0.7-6.9,1.2c-1.3,0.3-2.5,1.1-3.9,0.5c-1-1.3-0.6-2.8-0.6-4.5
		c-2.5,1.9-4.8,3.7-7.2,5.5c-4.3,3.4-8.7,6.7-13,10.1c-0.4,0.3-0.7,0.6-1,0.9c-0.1,0-0.1,0-0.2,0.1c-0.4,0.1-0.7,0.4-0.9,0.8
		c0,0,0,0,0,0c-0.2,0-0.3,0.1-0.4,0.3c0,0,0,0,0,0c-0.1,0.1-0.3,0.1-0.4,0.2c0,0,0,0,0,0c-0.2,0.1-0.4,0.2-0.5,0.4
		c-5.8,4.4-11.5,8.9-17.3,13.3c-0.6,0.5-0.5,0.8,0,1.3c1.4,1.6,2.4,3.4,2.9,5.4c0.5,2.4-0.2,4.3-1.9,4.9c-1.2,0.4-2.3,0.7-3.6,0.7
		c-1.6-0.1-3.1,0.1-4.7,0.3c-5.2,0.6-9.6,3.3-14.2,5.6c-0.8,0.4-0.6,0.9-0.3,1.5c1.8,4.4,3.8,8.7,6.1,12.9
		c3.3,6.1,7.1,11.9,11.5,17.4c0.8,1,0.8,1.5-0.5,1.9c-1.4,0.4-2.7,0.8-4.1,1.3c-3.7,0.9-7.4,1.9-11.2,2.5c-1.8,0.3-1.7,2.1-2.5,3.2
		c-1.2,3-1.1,6-0.2,9c1.5,4.9,3.1,9.9,4.7,14.8c6,19.2,12.2,38.4,19.5,57.2c4.9,12.5,10.5,24.6,15.5,37.1c2.8,6.8,5.3,13.8,7,21
		c1,4.4,2,8.9,2.2,13.5c-0.9,0.8-1.7,1.6-2.6,2.3c-0.3,0.2-0.6,0.3-0.9,0.5c-0.7,0.4-2,0.1-2.1,0.8c-0.2,0.8,0.4,1.7,0.7,2.6
		c0.5,1.4,1.1,2.8,1.7,4.2c0.2,0.5,0.4,1.3,1.1,1.2c0.8,0,1-0.8,1.2-1.4c0.8-2.4,0.9-5,1-7.5c0-0.6-0.2-1.3,0.3-1.9
		c0.2,0,0.4,0,0.4,0c3,2.6,5.2,5.7,7.3,8.9c0.2,0.4,0.4,0.8,0,1.1c-0.4,0.3-0.7-0.1-1-0.4c-1.4-1.4-2.7-2.8-4.4-4.5
		c0.1,1.2,0.2,2.1,0.3,2.9c0.4,4.1,0.9,8.2,0.8,12.3c0,1.2-0.3,2.5-1.7,2.7c-1.4,0.3-2.6-0.2-3.4-1.5c-0.7-1.1-1.3-2.3-1.7-3.6
		c-0.7-2.2-1-4.4-1.8-6.6c-2-4.9-2.4-10.2-3.8-15.3c-3.7-14.1-10-27.3-17.1-39.9c-13.4-23.9-28.2-47-43.3-69.8
		c-0.2-0.3-0.3-0.7-0.8-0.6c-0.1,0.3-0.2,0.5-0.2,0.8c-0.8,6.1-1.7,12.2-2.5,18.3c-1.2,9.7-1.7,19.4-1.9,29.2
		c-0.2,11.2-0.1,22.4,0.8,33.5c0.5,6.6,1,13.2,1.9,19.7c0.3,4.9,1.3,9.8,2,14.7c0.2,1.1,0.4,2.3,0.7,3.4c0.6,4,1.3,7.9,1.8,11.9
		c0.2,1.8,0.8,3.5,0.7,5.3c0,1-0.3,1.8-1.3,2.2c-1,0.4-1.8,0-2.4-0.7c-0.5-0.5-0.9-1.1-1.2-1.8c-0.8-1.6-1.4-3.4-1.8-5.1
		c-0.5-2-0.9-4.1-1.4-6.2c-0.2,0.4-0.3,0.5-0.4,0.7c-0.2,0.4-0.4,0.9-1,0.7c-0.6-0.2-0.3-0.7-0.3-1c0-0.4,0.1-0.7,0.2-1
		c0.3-1.8,0.8-3.6,0.9-5.4c0.1-2.4-0.6-4.8-1.5-7.1c-2.2-5.2-4.2-10.4-6.6-15.5c-8.6-18.6-12.9-38.2-15-58.4
		c-0.4-3.4-0.5-6.9-2.6-10c-1.5-2.1-1.7-4.8-2.4-7.3c-1.2-3.9-2.5-7.7-3.3-11.7c-0.9-3.9-2.3-7.6-2.7-11.7
		c-0.5-4.7-1.2-9.4-1.4-14.1c0-1.2-0.2-2.5-0.8-3.5c-0.8-1.5-0.7-2.9,0.1-4.3c0.7-1.3,0.9-2.8,0.6-4.3c-1.7-11.1-1.3-22.2,1.4-33.1
		c0.7-2.7,0.8-4.5-2.1-5.5c0,0-0.1-0.1-0.1-0.1c-0.7-0.5-0.9-1.1-0.2-1.7c0.6-0.6,1.2-1.3,1.7-1.9c2.7-3.4,4.7-7.2,7.5-10.5
		c3.4-4.1,7.4-7.1,12.9-7.4c0.9,0.1,1.8,0.2,2.7,0.4c0.4,0.1,0.8,0.3,0.7,0.8c-0.1,0.5-0.5,0.6-0.9,0.5c-6.4-1.3-10.6,2.1-14.2,6.5
		c-2.7,3.3-4.9,6.8-7.4,10.3c-0.5,0.7-1.1,1.4-1.6,2.1c4.7,3.2,9.5,6.1,14.8,8.1c0.9,0.3,1.3,0.3,1.7-0.7c1.6-4.3,3.8-8.3,6.2-12.2
		c0.4-0.6,1-1.2,0.5-2.2c-0.3-0.5,0.2-1,0.6-1.2c0.3-0.2,0.6-0.3,1,0c0.5,0.4,0.3,0.9,0.3,1.3c-0.2,1.2-0.8,2.2-1.5,3.2
		c-2.3,3.6-4.2,7.4-5.8,11.3c-0.3,0.8-0.6,1.5,0.6,1.5c-3.4,3.2-3.1,7.5-3.9,11.5c-0.2,1.1-0.2,2.3-0.3,3.7c0.6-0.8,1.2-1.3,1.8-0.3
		c-0.2,1.3-1,2.5-0.9,3.8c-0.7,0.6-0.6,1.5-0.8,2.3c-0.8,3.2-1.5,6.4-1.9,9.7l0,0c-0.1,0.1-0.1,0.1-0.1,0.2
		c-0.8,3.7-1.1,7.5-1.4,11.2c-0.4,5.8-0.6,11.7-0.4,17.5c0,1,0.3,1.3,1.2,1.1c0.5,0.4,0.8,0.8,0.1,1.3c-1-0.3-1.3,0.1-1.3,1.1
		c0.3,6.2,0.8,12.3,1.4,18.5c0.2,2.3,0.5,4.6,0.8,6.9c0,0.2,0,0.5,0.3,0.6c-0.1,0.7-0.1,1.5,0.1,2.2c0.1,2.2,0.4,4.3,0.8,6.4
		c0.4,3.6,0.7,7.1,1.5,10.7c0,0.2,0,0.4,0,0.6c-0.1,0.9,0.1,1.7,0.3,2.5c0.9,6.9,2.3,13.8,4.3,20.5c4.1,14.4,10.9,27.8,16.4,41.7
		c0.5,1.2,1.2,2.3,2.3,3.2c0.3,0.4,0.5,0.8,1.2,1c-0.5-3.1-0.9-6.1-1.4-9.2c-1-6.6-1.7-13.3-2.3-20c-1.1-12.5-1.4-24.9-1.5-37.4
		c0.4-3,0.2-6,0.2-8.9c0.4-5.9,0.8-11.7,1.2-17.6c0.7-8.8,1.8-17.6,3.3-26.3c0.2-1,0.1-1.8-0.6-2.7c-1-1.4-2-2.9-3-4.4
		c-0.2-0.3-0.4-0.5-0.5-0.8c-0.2-0.4-0.2-0.9,0.2-1.2c0.7-0.5,0.8,0.2,1,0.5c1.6,2.2,3.1,4.5,4.6,6.8c0.6,1,1.2,2.1,2,2.9l0,0
		c0.1,0.6,0.5,1.1,0.9,1.5l0,0c0.1,0.1,0.2,0.2,0.3,0.3c0.1,0.1,0.2,0.2,0.3,0.3l0,0c0,0.4,0.2,0.7,0.6,0.9l0,0
		c0.1,1.1,0.9,1.8,1.4,2.6c4.5,7,8.8,14.1,13.5,21c3.3,4.9,6,10.1,9.3,15c0.3,0.4,0.4,0.9,0.9,1.2l0,0c-0.1,0.3,0.1,0.5,0.3,0.6l0,0
		c0,0.5,0.3,0.8,0.6,1.1c2.2,3.9,4.6,7.7,7,11.5c0.1,0.2,0.2,0.4,0.4,0.6l0,0c0.1,0.1,0.2,0.2,0.3,0.3l-0.1,0
		c1.4,2.4,2.9,4.9,4.3,7.3c2.6,4.9,5.3,9.8,7.9,14.7c3.4,6.6,6.4,13.4,8.9,20.4c0.1,0.3,0.2,0.6,0.4,0.8c1.7,4.5,2.8,9.1,4,13.7
		c0.4,1.7,1,2,2.6,1.2c2-1,2.6-2.2,2.2-4.5c-0.6-3.2-1.2-6.5-1.8-9.7c-0.3-1.2-0.7-2.4-1-3.5c-1.7-6.8-4.3-13.4-7-19.9
		c-1.9-4.7-3.9-9.3-6-14c-5.7-12.9-10.7-26-15.4-39.3c-0.1-0.1-0.1-0.1-0.2,0l0.1-0.1c-0.1-0.3-0.1-0.7-0.4-0.9l0,0
		c0-0.6-0.2-1.1-0.6-1.6l0,0c0.1-0.7-0.3-1.3-0.6-1.9c-0.6-1.8-1.2-3.6-1.8-5.4c-0.8-2.4-1.3-4.8-2.5-7c0.2-1.2-0.6-2.2-0.9-3.3
		c-1.4-4.6-2.9-9.2-4.3-13.7c-0.1-0.4-0.1-0.8-0.6-1c-0.2-1.4-0.6-2.8-1.1-4.2c-1.5-4.9-3-9.8-4.6-14.7c-1.4-4.3-1.3-8.4,1.4-12.4
		c-1.9,0.3-3.6,0.5-5.3,0.7c-2.3,0.1-4.7,0.2-7,0.4c-2,0-4-0.1-6.1-0.1c-0.5-0.3-1.2,0.1-1.5-0.6c0.4-1.1,1.7-1.7,1.8-3.1
		c0.9-0.7,0.8-1.7,1.1-2.7c-5.1-0.2-10.2,0.2-15.2,0.5c-1.2,0-2.3,0.1-3.5-0.1c-1-0.1-1.2,0.3-1.1,1.2c0.2,1.5,0.4,3,0.6,4.5
		c0.3,1.4,0.6,2.8,1,4.2c0.2,0.8-0.3,1.1-0.7,1.5c-3.6-0.4-6.4-2.3-8.8-4.8c-0.3-0.3-0.6-0.7-0.9-1c-0.3-0.9-0.2-1.3,0.9-1
		c2.1,2.6,4.7,4.5,8.3,5.5c-0.4-1.7-0.7-3.2-1-4.8c-0.2-1.6-0.4-3.2-0.6-4.7c0.1-0.6,0-1-0.7-1.1c-0.3,0-0.6-0.2-0.6-0.6
		c0-0.4,0.3-0.5,0.6-0.5c0.8,0.1,0.7-0.4,0.6-0.9c0.1-5.9,1.3-11.6,2.6-17.3c1.8-5.1,3.5-10.3,5.3-15.4c0.6-0.7,0.6-1.2-0.4-1.6
		c-0.8-0.3-1.4-1-2-1.5c-0.2-0.9-1.5-1.4-0.5-2.6c-1.1-0.1-2-0.3-2.9-0.6c-0.4-0.2-0.7-0.4-0.5-0.9c0.2-0.5,0.5-0.3,0.9-0.2
		c0.6,0.1,1.2,0.5,1.9,0.4c1.2,0.2,2.5,0.7,3.5-0.7c1.2-1.5,1.4-3.3,1.6-5.1c0-0.4-0.3-0.7-0.6-1c-1-1-2-2-3-3
		C77.8,74.2,75.9,71.7,74.1,69z M148,58.7L148,58.7c-0.8,0.3-1.6,0.7-2.4,1.3c-2.3,1.1-4.7,2.2-7,3.4c-0.3,0-0.5,0.1-0.7,0.3l0,0
		c-0.3,0-0.5,0-0.7,0.3l0,0c-2.8,1-5.7,1.9-8.3,3.4l0,0c-0.3,0-0.5,0-0.6,0.3l0,0c-0.3,0-0.5,0-0.7,0.3l0,0c-0.3,0-0.5,0-0.7,0.3
		l0.1,0c-0.3,0-0.6,0.1-0.8,0.4c-1.3,0.5-2.4,1.2-3.5,2c-0.2,0.2-0.4,0.3-0.6,0.5l0,0c-0.3,0-0.5,0.1-0.7,0.4
		c-0.1,0-0.2,0.1-0.3,0.1c-1.6,1.2-3.3,2.3-4.9,3.5c-3.1,1.7-6.3,3.5-9.4,5.2c-0.2,0-0.5,0-0.6,0.3l0,0c-2.6,0.9-2.7,0.9-1.9,3.5
		c0.2,0.8,0.6,1.6,0.8,2.4c0.6,1.7,1.5,3.1,2.7,4.4c0.3,0.4,0.9,0.8,0.4,1.4c-0.5,0.5-0.9-0.1-1.3-0.3c-0.8-0.4-1.7-0.8-2.5-1.2
		c-3.2-1.6-6.7-2.6-10.2-3.4c-0.3-0.1-0.9-0.5-1.1,0.2c1,4.7,3.2,9.1,3.8,14c0.3,2,0.5,3.9,0.8,5.9c0.1,5-0.2,10-0.6,15
		c-0.4,2.7-0.8,5.4-1.2,8.1c-0.1,0.9-0.9,1.7-0.5,2.7c-0.2,0.6,0.3,0.5,0.6,0.5c1.2,0,2.3,0,3.5,0c8.9,0,17.5-1.3,26-3.9
		c1-0.3,1.9-0.6,2.9-0.8c0.9-0.2,0.9-0.6,0.4-1.2c-0.4-0.5-0.8-0.9-1.1-1.4c-3.6-5.1-7-10.2-9.9-15.6c-2.1-3.9-4-7.9-5.6-12.1
		c-0.5-1.2-0.9-1.8-2.1-0.8c-0.4,0.3-0.9,0.5-1.3,0.7c-0.4,0.2-0.8,0.3-1-0.1c-0.2-0.5,0.2-0.7,0.5-0.9c2.7-1.5,5.5-3,8.2-4.5
		c4.6-2.5,9.4-4.2,14.9-4.1c-1.9-1.2-3.8-2.5-5.6-3.9c-2.7-2.5-5.1-5.2-7-8.4c-0.1-0.6-0.8-1.2,0.2-1.6l0.1,0c1.2,1.7,2.4,3.3,3.6,5
		c0.4,0.6,1,1.1,1.5,1.7c0.2,0.2,0.4,0.4,0.6,0.6c0.1,0.1,0.1,0.2,0.2,0.2c1.6,1.6,1.9,1.5,3-0.5c4.1-4.3,9.2-7.4,13.9-11.1
		c8.3-6.5,16.6-12.9,24.9-19.4c0.2-0.2,0.4-0.4,0.7-0.6l0,0c0.4-0.1,0.7-0.3,0.9-0.7c2.7-2.1,5.5-4.1,8.2-6.2
		c0.7-0.6,1.3-0.8,1.8,0.2c-0.5,1.4-1.2,2.8-1.1,4.4c0.1,0.8,0.3,1.1,1.2,0.8c2.9-0.9,5.8-1.9,8.9-1.8c1.1,0.2,2,0.6,3.1,1
		c-0.7-7.7-0.2-14.8,8.6-17.9c-0.7-0.9-1.6-0.9-2.4-0.4c-1.4,0.8-2.9,1-4.3,1.7c-7.7,3.7-15.1,7.9-22.2,12.6
		c-6.9,4.6-13.9,9.2-21,13.5c-0.2,0.1-0.4,0.2-0.6,0.3l0,0C148.2,58.5,148.1,58.6,148,58.7z M62.5,120.1c0.3-0.3,0.5-0.8,0.6-1.2
		c0.3-0.5,0.5-1,0.8-1.4c0.8-1.1,0.4-1.6-0.8-1.6c-0.5-0.3-1-0.6-1.6-0.6c-2.5-1.4-4.9-2.8-7.4-4.1c-0.4-0.2-0.7-0.3-0.8,0.3
		c-0.1,0.5-0.2,1.1-0.3,1.6c-0.7,1.6-0.8,3.3-1.2,4.9c-0.6,2.9-1,5.9-1.2,8.8c-0.6,5.8-0.3,11.6,0.4,17.4c0.4,2.8,0.7,5.6-0.4,8.4
		c-0.5,1.2-0.2,2.4,0.1,3.5c1,4,0.9,8.2,1.5,12.2c0.2,1.2,0.4,2.4,0.6,3.6c0.1,0.3,0.2,0.5,0.5,0.2c1.1-0.2,2.1,0,2.4,1.1
		c0.4,1.4,1.5,1,2.3,0.9c1.1-0.1,0.7-1.1,0.6-1.7c-0.3-3.5-0.7-7-1-10.6c-1-12.1-1-24.1,2.8-35.9c0-0.1,0-0.3,0-0.5
		c0.6-1.6,1.2-3.2,1.9-4.8l0,0C62.4,120.6,62.5,120.4,62.5,120.1z M87.2,92.9c-1.1,0-2.9-0.4-3.3,0.1c-1,1.4-1.6,3.2-1.8,5
		c-1.1,1.8-1.5,3.7-2.1,5.7c-2.4,6.8-4.1,13.7-4.3,21c-0.2,2.7-0.2,2.8,2.5,2.8c1.5,0,2.9,0.2,4.4-0.2c4.3-0.1,8.6-0.1,12.9-0.2
		c0.1,0,0.2-0.2,0.3-0.2c0-1,0.5-2.1,0.1-3.1c0.8-4.7,1-9.5,0.9-14.2c0-1.2-0.1-2.4-0.1-3.7c-0.4-1.8-0.2-3.6-0.9-5.3
		c-0.3-2.3-0.9-4.6-1.8-6.7c-0.1-0.5-0.2-0.9-0.6-1.3c-0.7-2-1.6-0.4-2.4-0.2C89.6,92.3,88.4,92.7,87.2,92.9z M90,295.5
		c-0.9-0.6-1.6-1.4-2.5-2.2c-0.5,1.4,0.3,2.6,0.6,3.7c0.2,0.9,0.5,1.7,0.8,2.6c0.2,0.6,0.6,0.9,1.3,0.8c0.7-0.1,0.7-0.6,0.7-1.1
		c0-0.8,0.1-1.6-0.2-2.4C90.6,296.3,90.5,295.9,90,295.5z M61.5,202.9c-0.1-0.9-0.2-1.8-0.3-2.8c-0.6-6.9-1.4-13.8-1.5-20.7
		c0-1.2-0.5-2-1.7-2.2c-0.6-0.1-0.6,0.2-0.5,0.6c-0.8,1.6-1.9,1.3-3.4,0.7c0.9,4.1,2,8.1,3.4,12c0.1-0.6,0.1-1.3,0.2-1.9
		c0-0.4,0.1-0.7,0.6-0.7c0.4,0,0.5,0.4,0.5,0.6c0.1,0.7,0.1,1.4,0.1,2.1c-0.2,3.2-0.1,6.4,1.2,9.5C60.2,201.2,60.5,202.2,61.5,202.9
		z M90.9,84.6c-0.3-0.8-0.5-1.7-0.8-2.6c-0.2-0.7-0.4-1.5-0.5-2.2c-0.1-1.3-0.6-1-1.3-0.4c-0.9,0.8-1.9,1.5-3.2,1.7
		c-0.6,0.1-0.6,0.5-0.7,1c-0.3,2.3-1.2,4.4-3.3,5.8c-1.2,0.8-0.7,1.6,0,2.3c1.1,1.1,2.5,1.5,4,1.6c2.5,0.1,4.8-0.5,7.1-1.4
		c-0.6-1.2-1.3-2.2-1.8-3.4c-0.2-0.6-0.6-0.4-1-0.5c-0.5-0.1-1.4,0-1.3-0.7c0.1-0.9,0.9-0.4,1.5-0.5c0.1,0,0.2,0,0.3,0
		C90.7,85.6,91.3,85.8,90.9,84.6z M60.6,151.5c0.7-5.2,1.6-10.3,3-15.3c0.3-1.1-0.4-1.8-0.3-2.8c0.1-1.8,0-3.6,0.3-5.3
		c0.5-3.7,1-7.4,2.6-10.8c0-0.1,0-0.3-0.1-0.6c-0.8,0.8-1.2,1.7-1.6,2.5c-3.3,6.5-5,13.4-5.7,20.5c-0.9,9.3-0.5,18.6,0.6,27.9
		C59.6,162.2,59.9,156.8,60.6,151.5z M161.1,300.9c-0.4,1.9-1.4,2.2-3.5,1.2c1.1,2.8,2.1,5.4,3.2,7.9c0.3,0.8,1.1,0.9,1.8,0.7
		c0.9-0.2,1.2-1,1.2-1.8c0-1.3-0.2-2.6-0.3-3.9c-0.3-2.8-0.4-5.7-0.9-8.5c-0.1-0.4-0.1-0.8-0.5-1.1
		C161.8,297.3,161.5,299.1,161.1,300.9z M128.8,85.5c0.9,0.5,1.7,1,2.6,1.5c1,0.6,1.9,1.1,3,0c1.8-1.8,2.2-2.8,1.5-4.3
		c-1.8-4-2.7-4.2-5.8-1.2c-0.9,0.9-1.6,1.8-1.9,2.8C128.1,85.1,128.5,85.3,128.8,85.5z M87.9,301.3c0.4,3.6,1.3,7.2,3,10.5
		c0.4,0.8,1.1,0.4,1.8,0.3c0.5-0.1,0.7-0.3,0.6-0.8c-0.5-3-0.9-6.1-1.4-9.3C90.2,303.5,89.4,303.3,87.9,301.3z M54.4,177.1
		c0.3,0.1,0.6,0.6,0.9,0.2c0.2-0.3,0.6-0.8,0.3-1.1c-0.7-0.8-0.9-2.1-2.5-2.1C53.4,175.3,53.2,176.5,54.4,177.1z"/>
	<path class="st16" d="M76.9,109c1.8-5.1,3.5-10.3,5.3-15.4c-0.9-1-3.1-1-2.5-3.1c-0.2-0.9-1.5-1.4-0.5-2.6c-1.1-0.1-2-0.3-2.9-0.6
		c-0.4-0.2-3-0.5-2.1-0.3c0.4,0.1,0.8,0.3,0.7,0.8c-0.1,0.5-0.5,0.6-0.9,0.5c-6.4-1.3-10.6,2.1-14.2,6.5c-2.7,3.3-4.9,6.8-7.4,10.3
		c-0.5,0.7-1.1,1.4-1.6,2.1c4.7,3.2,9.5,6.1,14.8,8.1c0.9,0.3,1.3,0.3,1.7-0.7c1.6-4.3,3.8-8.3,6.2-12.2c0.4-0.6,1-1.2,0.5-2.2
		c-0.3-0.5,0.2-1,0.6-1.2c0.3-0.2,0.6-0.3,1,0c0.5,0.4,0.3,0.9,0.3,1.3c-0.2,1.2-0.8,2.2-1.5,3.2c-2.3,3.6-4.2,7.4-5.8,11.3
		c-0.3,0.8-0.6,1.5,0.6,1.5c-3.4,3.2-3.1,7.5-3.9,11.5c-0.2,1.1-0.2,2.3-0.3,3.7c0.6-0.8,1.2-1.3,1.8-0.3c0.9,0.4,1,1.3,1.2,2.1
		c2.1,2.6,4.7,4.5,8.3,5.5c-0.4-1.7-0.7-3.2-1-4.8c-2-1.4-2.2-3.1-0.6-4.7c0.1-0.6,0-1-0.7-1.1c-0.3,0-0.6-0.2-0.6-0.6
		c0-0.4,0.3-0.5,0.6-0.5c0.8,0.1,0.7-0.4,0.6-0.9c-1.1-2-0.7-4-0.5-6.1C74.1,116.2,74.9,112.4,76.9,109z"/>
	<path class="st17" d="M70.4,79.2c0,0.2,0,0.4,0,0.5c0.5,0.5,0.2,1.2,0.3,1.8c2.5-0.7,4.7-2.1,7.3-2.6c1.1-0.2,1.4-1.4,1.9-2.2
		c-2.1-2.5-4-5-5.8-7.7c-3.8,3.6-8.7,5.4-13.3,7.7c-2,1-4.1,1.9-6.1,2.9c5.8,0,11.3-1.1,16.8-2.5c2-0.5,3.9-1.3,5.9-1.2
		c0.9,0,1.6,0.6,1.3,1.4c-0.4,1-1.3,1.9-2.5,1.6C74.2,78.3,72.4,79.5,70.4,79.2z"/>
	<path class="st8" d="M176.4,50.7c-1-1.3-0.6-2.8-0.6-4.5c-2.5,1.9-4.8,3.7-7.2,5.5c-4.3,3.4-8.7,6.7-13,10.1
		c-0.4,0.3-0.7,0.6-1,0.9c0.6,0.5,1-0.1,1.5-0.3c6.5-3.8,13.2-7.3,19.4-11.4C175.8,50.8,176.1,50.8,176.4,50.7z"/>
	<path class="st18" d="M70.7,81.5c0-0.6,0.3-1.2-0.3-1.8c-3.4,1.5-7,2.2-10.6,3c-3.4,0.8-6.8,1.2-10.2,1.6c0.8,1.3,2.2,1.1,3.4,1.2
		c5.5-0.3,10.8-1.5,16.1-2.9C69.8,82.5,70.3,82.1,70.7,81.5z"/>
	<path class="st8" d="M161.1,289.1c-0.9,0.8-1.7,1.6-2.6,2.3c-0.3,0.2-0.6,0.3-0.9,0.5c-0.7,0.4-2,0.1-2.1,0.8
		c-0.2,0.8,0.4,1.7,0.7,2.6c0.5,1.4,1.1,2.8,1.7,4.2c0.2,0.5,0.4,1.3,1.1,1.2c0.8,0,1-0.8,1.2-1.4c0.8-2.4,0.9-5,1-7.5
		c0-0.6-0.2-1.3,0.3-1.9C161.3,289.7,161.2,289.4,161.1,289.1z"/>
	<path class="st19" d="M70.2,22.7c5.2-0.3,10.3-0.3,15.3,1.4c2.7,0.9,5.1,2.1,7.4,3.8c0.3,0.2,0.5,0.7,1,0.4
		c-3.3-3.2-7.2-5.4-11.7-6.4c-3.6-0.9-7.2-1-10.8,0.2C71,22.2,70.4,22.2,70.2,22.7z"/>
	<path class="st20" d="M89.3,277.3c0.3,4.9,1.3,9.8,2,14.7c0.2,1.1,0.4,2.3,0.7,3.4c0.7-1.7,0.3-3.4,0-5.1
		C91.4,285.9,90,281.7,89.3,277.3z"/>
	<path class="st19" d="M64.7,52.4c0.8-2.2,0.9-4.5,0.4-6.8c-0.6,0.3-1.2,0.6-1.7,1c-1.3,1.1-1.1,2.4,0.4,3.1
		c0.7,0.3,0.8,0.6,0.7,1.2C64.5,51.4,64.5,51.9,64.7,52.4z"/>
	<path class="st19" d="M53,85.6c-1.2-0.1-2.6,0.2-3.4-1.2c-2.1,0.1-4.2,0.3-6.3,0.4c0.4,0.6,0.8,1.1,1.5,1.1
		C47.6,85.9,50.3,86.1,53,85.6z"/>
	<path class="st8" d="M190.8,51.9c-0.5-1.9-1.9-2.7-3.6-2.9c0.2,0.4,0.4,0.7,0.5,1.1C188.6,52.4,188.6,52.4,190.8,51.9z"/>
	<path class="st8" d="M194.4,35.1c-1.3,1.2-2,2.6-2.4,4.4c0.6-0.3,0.9-0.8,1.5-1.2C194.8,37.6,194.8,36.3,194.4,35.1z"/>
	<path class="st19" d="M93.9,28.2c0.3,0.8,0.7,1.6,1.8,1.3C95.1,29,94.7,28.3,93.9,28.2z"/>
	<path class="st8" d="M154.4,62.8c-0.4,0.1-0.7,0.4-0.9,0.8C154,63.5,154.7,63.7,154.4,62.8z"/>
	<path class="st8" d="M152.8,64.1c-0.2,0.1-0.4,0.2-0.5,0.4C152.6,64.5,152.8,64.5,152.8,64.1z"/>
	<path class="st8" d="M153.5,63.6c-0.2,0-0.3,0.1-0.4,0.3C153.4,63.9,153.5,63.8,153.5,63.6z"/>
	<path class="st8" d="M153.2,63.8c-0.1,0.1-0.3,0.1-0.4,0.2C153,64.1,153.2,64.1,153.2,63.8z"/>
	<path class="st21" d="M75.9,143.6c0.9,0.2,2,0.2,2.4-0.9c0.4-1.1-0.4-1.7-1.3-2.2c-0.2-0.1-0.3-0.3-0.4-0.4
		c0.5-0.4,0.9-0.7,0.7-1.5c-0.4-1.4-0.7-2.8-1-4.2c3.3,0.7,6.7,0.9,10.1,0.6c2.1-0.2,4.2-0.2,6.1-0.9c0.3,0.7,1,0.3,1.5,0.6
		c-0.5,0.8-1.4,1.3-1.3,2.4c0.1,1.7,1.3,2.7,3,2.6c3.1-0.3,6.3,0,9.4,0.2c0.8,0.1,0.7,0.5,0.6,1.1c-0.7,4.1,0.6,7.8,2.3,11.4
		c0.8,1.6,1.7,3.2,2.1,5c0.1,0.8,0.4,1.6,0.7,2.3c0.9,2,2.9,2.5,4.6,1c0.5,1.4,0.9,2.8,1.1,4.2c-0.1,1.8,0.7,3.5,1.1,5.2
		c1.1,4,2.4,7.9,4,11.8c0.2,0.4,0.2,0.9,0.7,1.1c1.2,2.2,1.8,4.7,2.5,7c-0.4,2.3,0.8,4.1,1.7,6c0.1,0.5,0.1,1.1,0.7,1.3c0,0,0,0,0,0
		c-0.1,0.6,0,1.2,0.6,1.6l0,0c0.1,0.3-0.1,0.8,0.4,0.9c0,0-0.1,0.1-0.1,0.1c0.1,0,0.1,0,0.2,0c4.7,13.3,9.7,26.4,15.4,39.3
		c2,4.6,4.1,9.3,6,14c2.7,6.5,5.2,13.1,7,19.9c-0.4,1.4,0.2,2.5,1,3.5c0.6,3.2,1.2,6.5,1.8,9.7c0.4,2.3-0.2,3.4-2.2,4.5
		c-1.5,0.8-2.1,0.5-2.6-1.2c-1.2-4.6-2.3-9.2-4-13.7c0.9,0.4,1.8,0.5,2.5-0.3c0.8-0.8,0.6-1.7,0.3-2.6c-0.9-3-2.2-5.8-3.6-8.6
		c-5.7-11.9-11.4-23.8-17.5-35.6c-5.6-10.9-11.7-21.6-18.4-31.9c-4.6-7.2-9.6-14.2-14.9-20.9c-2.2-2.7-4.7-5.2-7.5-7.3
		c-0.4-0.3-0.7-0.6-1.2-0.2c-0.4,0.4-0.1,0.8,0.1,1.1c0.5,0.9,1,1.8,1.4,2.7c-0.2,0.1-0.3,0.3-0.5,0.4c-1.5-2.3-3.1-4.5-4.6-6.8
		c-0.2-0.3-0.3-1-1-0.5c-0.5,0.3-0.4,0.8-0.2,1.2c0.1,0.3,0.3,0.5,0.5,0.8c1,1.5,1.9,3,3,4.4c0.6,0.8,0.7,1.7,0.6,2.7
		c-1.4,8.7-2.6,17.5-3.3,26.3c-0.5,5.9-0.8,11.7-1.2,17.6c-0.6,1.1-0.2,2.3-0.3,3.4c-0.1,1.8,0,3.7,0,5.6c0,12.5,0.3,25,1.5,37.4
		c0.6,6.7,1.3,13.3,2.3,20c0.4,3,0.9,6.1,1.4,9.2c-0.7-0.1-0.9-0.5-1.2-1c0.8-1.7,0.1-3.3-0.2-4.9c-1.5-7.4-4.1-14.5-6.4-21.7
		c-2.7-8.5-5.6-17.1-7.6-25.8c-1.2-5.1-1.9-10.2-2.4-15.4c-0.6-6.2-0.9-12.4-1.2-18.6c-0.4-6-0.7-11.9-1-17.9
		c-0.1-2.9-0.4-5.9-0.4-8.8c0.1-5.1,0-10.1,0.4-15.2c0.3-3.2,0.1-6.5,0.1-9.8c0-1.3-1.5-2.4-2.8-2.3c-1.4,0.1-2.3,0.8-2.5,2.2
		c-0.4,2.4-0.8,4.8-1,7.2c-0.5,7.3-0.5,14.5-0.3,21.8c0.1,4.9,0.4,9.8,0.6,14.7c0.2,4.9,0.6,9.7,0.9,14.6c0.2,3.3,0.6,6.5,0.9,9.8
		c0,0.6,0.3,1.2-0.3,1.7c-0.8-3.5-1.1-7.1-1.5-10.7c-0.1-1.8-0.2-3.7-0.4-5.5c0-0.3,0.2-0.8-0.4-0.9c-0.2-0.7-0.2-1.5-0.1-2.2
		c0.3-2.3-0.2-4.6-0.3-6.9c-0.2-5.8-0.4-11.7-0.6-17.5c0-0.9-0.2-1.8-0.3-2.7c0.7-0.5,0.4-0.9-0.1-1.3c-0.7-6.2-0.6-12.4-0.5-18.6
		c0.3-2.7,0.6-5.4,0.9-8.1c0.1-1,0.5-2.1,0.3-3.1c0-0.1,0-0.2,0.1-0.2l0.1,0c0,0-0.1,0-0.1,0c0.4-3.3,1-6.5,1.9-9.7
		C67.4,141.2,71.4,142.8,75.9,143.6z M83.9,161.2c0.2-0.4,0.2-0.7-0.2-0.9c-0.5-0.3-0.6,0.2-0.8,0.4c-1,1.1-0.3,2.3-0.1,3.5
		C83.2,163.2,83.6,162.2,83.9,161.2z M103.1,153.8c0.1-0.4,0.1-0.9-0.3-1.1c-0.2-0.1-0.6,0-0.8,0.2c-0.5,0.3-0.2,0.7-0.1,1.1
		c0.2,0.5,0.5,0.9,0.7,1.4C102.8,154.7,103,154.3,103.1,153.8z"/>
	<path class="st16" d="M98.2,116.5c0-2.1-0.2-4.2,0.6-6.3c0.3-0.8-0.4-2-0.9-2.9c-0.3-2-0.5-3.9-0.8-5.9c-0.7-4.8-2.8-9.2-3.8-14
		c2.3,0.2,3.6,1.9,5.1,3.2c1.2,1.1,2.4,1.3,3.9,0.6c0.7-0.3,1.5-0.5,2.3-0.7c0.8,0.4,1.6,0.8,2.5,1.2c0.4,0.2,0.8,0.8,1.3,0.3
		c0.6-0.6-0.1-1-0.4-1.4c1-0.7,1.3-1.6,0.9-2.7c-0.5-1.6-1.8-1.7-3.1-1.8c0.9-1,1.3-2,0.5-3.3c-0.5-0.8,0-1.7,0.1-2.5c0,0,0,0,0,0
		c0.3,0,0.5,0,0.6-0.3c3.1-1.7,6.3-3.5,9.4-5.2c0.8,0,1.6,0.1,2.5,0.1c-1,0.4-0.4,1-0.2,1.6c-0.2,0.9,0.3,1.7,0.8,2.4
		c0.7,1,1,2,0.7,3.2c-0.5,2-0.1,2.5,2,2.5c1.2,0,2.3,0.6,3.5,0.3c1.8,1.3,3.7,2.6,5.6,3.9c-5.4-0.1-10.2,1.6-14.9,4.1
		c-2.7,1.5-5.5,3-8.2,4.5c-0.4,0.2-0.8,0.4-0.5,0.9c0.2,0.5,0.7,0.3,1,0.1c0.5-0.2,0.9-0.4,1.3-0.7c1.2-1,1.7-0.4,2.1,0.8
		c1.6,4.2,3.6,8.2,5.6,12.1c2.9,5.5,6.4,10.6,9.9,15.6c-0.1,1.5-1.2,1.9-2.5,2.2c0.1,0.4,0.3,0.8,0.4,1.2c-8.5,2.6-17.1,3.9-26,3.9
		c-1.2-1.4-2.6-0.6-4-0.5c-0.4-1,0.4-1.8,0.5-2.7c0.3-2.7,0.8-5.4,1.2-8.1C98.3,120.4,98.2,118.5,98.2,116.5z M123.2,127
		c-0.8-1.7-1.1-1.8-2.7-0.9c-1.7,1-3.7,1.3-5.5,2.1C117.8,128.1,120.6,127.6,123.2,127z M111.1,116.2c0.2,0.9,0.7,0.4,1.2,0.3
		c0.8-0.2,0.5-0.5,0.2-1c-0.6-0.8-1-1.7-1.9-2.4C110.4,114.3,110.9,115.3,111.1,116.2z"/>
	<path class="st22" d="M89.1,293c0.8-1.7,0.1-3.3-0.2-4.9c-1.5-7.4-4.1-14.5-6.4-21.7c-2.7-8.5-5.6-17.1-7.6-25.8
		c-1.2-5.1-1.9-10.2-2.4-15.4c-0.6-6.2-0.9-12.4-1.2-18.6c-0.4-6-0.7-11.9-1-17.9c-0.1-2.9-0.4-5.9-0.4-8.8c0.1-5.1,0-10.1,0.4-15.2
		c0.3-3.2,0.1-6.5,0.1-9.8c0-1.3-1.5-2.4-2.8-2.3c-1.4,0.1-2.3,0.8-2.5,2.2c-0.4,2.4-0.8,4.8-1,7.2c-0.5,7.3-0.5,14.5-0.3,21.8
		c0.1,4.9,0.4,9.8,0.6,14.7c0.2,4.9,0.6,9.7,0.9,14.6c0.2,3.3,0.6,6.5,0.9,9.8c0,0.6,0.3,1.2-0.3,1.7c0,0.2,0,0.4,0,0.6
		c0.9,0.7,0.7,1.6,0.3,2.5c0.9,6.9,2.3,13.8,4.3,20.5c4.1,14.4,10.9,27.8,16.4,41.7C87.3,291,88,292.2,89.1,293z"/>
	<path class="st8" d="M85.4,42.5c1.7-0.1,3.3,0.1,4.9,0.8c0.1,0.3,0.3,0.3,0.6,0.3c0,0,0.1,0,0.1,0c0.7,1.2,1.3,2.4,2.5,3.1
		c0.1,0.5,0.2,1,0.4,1.4c-1.7-0.6-3.4-1.2-5.2-0.2c-0.5,0.2-1,0.4-0.9,1c0.1,0.8,0.8,0.4,1.2,0.4c1.2,0,2.3-0.5,3.5-0.1
		c0.6,0.2,1.1-0.1,1.4-0.6c0.7,0.8,1.1,1.9,2.1,2.4c0.1,0.7,0.2,1.4,0.4,2c0.2,0.7,0.5,1.3,1.2,0.4c0.9,0.5,1.7,1.1,2.6,1.6
		c0,0.1,0.1,0.2,0.1,0.3c-0.8,0.2-1.6,0.4-2.3,0.6c-0.4,0.1-1,0.4-0.7,0.9c0.2,0.6,0.7,0.3,1.1,0.1c1.1-0.6,1.6,0,1.9,0.9
		c0.5,1.6-0.4,3.1-2.4,3.1c-1.9,0-2.3,1.1-2.4,2.6c-0.5,2.1-1.8,4.1-1.5,6.4c0,0.1,0,0.2-0.1,0.3c-0.1,0.1-0.2,0.2-0.2,0.3
		c-1.3,3.8-4.2,6.1-7.1,8.5c-1.4,1.2-1.7,1-2.1-0.9c-0.1-0.4,0-1-0.6-1.1c-0.6-0.1-0.5,0.5-0.8,1c-3.1-3.1-5.9-6.5-8.1-10.3
		c-0.3-0.5-0.5-1.2-1.2-1.3c-0.4-0.3-0.7-0.3-1,0.1c-0.3-0.4-0.8-0.4-1.2-0.4c-1.2-0.2-2.5-0.5-3.1-1.8c0.4-0.9,1-1.7,1.1-2.7
		c0.9,0.4,0.5,1.4,0.8,2c0.2,0.4,0.4,0.6,0.8,0.5c0.2,0,0.5-0.2,0.4-0.3c-0.6-1,0.9-2.2-0.5-3.1c-0.2-0.1-0.2-0.7-0.3-1
		c-0.2-2.2-0.3-4.3-0.4-6.5c0.4-2.4,1.6-4.2,3.3-5.8c0.6-0.6,1.7-1,1.6-2.1c0,0,0.1-0.1,0.1-0.1c0.5,0.4,0.7,0.1,0.7-0.4
		c0,0,0,0,0,0c0.3,0,0.5,0,0.7-0.3c1.3-1.2,2.9-1.5,4.5-1.8C82.8,43.5,84.1,42.8,85.4,42.5z M83.3,53.6c-0.1-0.6-0.3-1.1-0.7-1.5
		c-0.2-0.2-0.5-0.3-0.8-0.1c-0.2,0.1-0.3,0.4-0.1,0.7c1.4,2.7,1.2,5.7,1.9,8.5c0.2,0.6,0.2,1.3,0.3,1.9c0,0.5,0.1,1,0.7,1
		c0.6,0,0.5-0.6,0.5-1.1C84.7,59.8,83.9,56.7,83.3,53.6z M72.6,53.6c-0.1,0.1-0.1,0.4,0,0.6c0.2,0.4,0.6,0.5,0.9,0.3
		c1.3-0.5,2.7-1.1,4-1.8c0.2-0.1,0.3-0.4,0.3-0.7c-0.1-0.3-0.3-0.4-0.6-0.4c-0.4,0-0.7,0.1-1-0.2C74.7,51.7,73.7,52.6,72.6,53.6z
		 M78.3,58.2c0-0.4-0.3-1.1-0.9-1c-0.6,0.1-1.4,0.3-1.5,1c-0.1,0.9,0.7,0.5,1.2,0.4C77.6,58.7,78.3,59.2,78.3,58.2z M92.6,54.5
		c0-0.4-0.3-1.1-0.7-0.9c-0.5,0.2-1.5,0.3-1.5,1c-0.1,0.6,0.7,0.3,1,0.4C91.9,55,92.6,55.3,92.6,54.5z M78.7,52.9
		c0.6-0.1,1.1-0.4,1.1-1c0-0.3-0.1-0.5-0.5-0.4c-0.5,0.2-1,0.4-1.3,1C78.2,52.8,78.4,52.9,78.7,52.9z"/>
	<path class="st17" d="M97.7,53.4c0.9,0.5,1.7,1.1,2.6,1.6c0.9,0.2,1.8-1.3,2.5-0.4c0.5,0.7-0.2,1.8-0.4,2.8c-0.1,1.1-0.4,2.2-1,3.1
		c-0.8,1.1-1.8,1.7-3.1,1.7c-0.8,0-1.3,0.3-1.4,1.1c-0.3,3.7-1.7,6.9-3.1,10.2c3.2-2.3,6.3-4.9,8.8-7.9c3.1-3.8,5.4-8,5-13.2
		c0-0.4-0.3-1.1,0.3-1.2c0.5-0.1,0.7,0.6,0.8,0.9c0.6,1.3,1,2.6,1,4c0.9-3.9-0.2-7.5-1.8-10.9c-0.4-0.9-0.7-2-1.5-2.7
		c-0.6-0.3-1.1-0.7-1-1.5c0,0,0,0,0,0c-1-0.4-1.5-1.1-1.5-2.1c0,0,0,0,0,0c-0.5,0.3-0.4-0.3-0.6-0.4c0-1.1-0.9-1.6-1.5-2.3
		c-1.3-1.5-2.7-3.1-4.4-4.2C91.9,28.7,87,24.7,80.5,24c-4.4-0.5-8.8-0.7-13.1,0.5c-2.8,0.8-5.3,2.1-6.7,4.8c1.6-0.2,2.6,0.7,3.4,1.8
		c0.9,1.2,2.1,2,3.3,2.8c3.1,1.8,6.6,1.8,10,2.1c2.6,0.2,5.2-0.1,7.7,0.3c6.6,1.1,11.8,4.1,15.3,9.8c0.7,1.2,1.2,2.5,1.4,3.8
		c0.1,0.7,0.1,1.4-0.6,1.7c-0.7,0.3-1.1-0.3-1.6-0.6c-0.9-0.7-1.3-2-2.3-2.6C98.1,50.1,97,51.8,97.7,53.4z"/>
	<path class="st22" d="M150.8,275.9c0.9,0.4,1.8,0.5,2.5-0.3c0.8-0.8,0.6-1.7,0.3-2.6c-0.9-3-2.2-5.8-3.6-8.6
		c-5.7-11.9-11.4-23.8-17.5-35.6c-5.6-10.9-11.7-21.6-18.4-31.9c-4.6-7.2-9.6-14.2-14.9-20.9c-2.2-2.7-4.7-5.2-7.5-7.3
		c-0.4-0.3-0.7-0.6-1.2-0.2c-0.4,0.4-0.1,0.8,0.1,1.1c0.5,0.9,1,1.8,1.4,2.7c0.3,1.2,1.6,2,1.5,3.3c0,0,0,0,0,0
		c0.8,0.2,1,0.8,0.9,1.5c0,0,0,0,0,0c0.1,0,0.2,0,0.4,0c0.2,0.2,0.3,0.4,0.2,0.7c0,0,0,0,0,0c0.7,0,0.7,0.5,0.6,0.9c0,0,0,0,0,0
		c0.3,0,0.5,0.1,0.6,0.3c1.2,1.8,2.5,3.5,3.8,5.3c6.8,9.9,13.2,20.2,19.1,30.7c0.6,1.1,1.6,2,1.6,3.4c0,0,0,0,0,0
		c0.3,0.1,0.3,0.4,0.3,0.6c0,0,0,0,0,0c0.5,0.2,0.7,0.6,0.6,1.1c2.2,3.9,4.6,7.7,7,11.5c0.3,0.1,0.3,0.4,0.4,0.6c0,0,0,0,0,0
		c0.1,0.1,0.2,0.2,0.3,0.3c0,0-0.1,0-0.1,0c0.5-0.1,0.9,0.2,1.1,0.6c1.1,1.8,2.3,3.7,3.4,5.5c0.2,0.4,0.3,0.9-0.2,1.2
		c2.6,4.9,5.3,9.8,7.9,14.7c3.4,6.6,6.4,13.4,8.9,20.4C150.5,275.3,150.7,275.6,150.8,275.9z"/>
	<path class="st8" d="M187.1,47.6c1.1,0.2,2,0.6,3.1,1c-0.7-7.7-0.2-14.8,8.6-17.9c-0.7-0.9-1.6-0.9-2.4-0.4c-1.4,0.8-2.9,1-4.3,1.7
		c-7.7,3.7-15.1,7.9-22.2,12.6c-6.9,4.6-13.9,9.2-21,13.5c-0.1,0.3-0.4,0.3-0.6,0.3c0,0,0,0,0,0c-0.1,0.1-0.2,0.2-0.4,0.3
		c0,0,0,0,0,0c-0.6,0.8-1.1,1.9-2.4,1.3c-2.3,1.1-4.7,2.2-7,3.4c-0.1,0.3-0.4,0.3-0.7,0.3c0,0,0,0,0,0c-0.1,0.3-0.4,0.3-0.7,0.3
		c0,0,0,0,0,0c-0.4,1-1.4,1-2.1,1.2c-2.1,0.7-3.9,2-6.2,2.1c0,0,0,0,0,0c-0.1,0.4-0.3,0.4-0.6,0.3c0,0,0,0,0,0
		c-0.1,0.4-0.4,0.4-0.7,0.3c0,0,0,0,0,0c-0.1,0.4-0.4,0.4-0.7,0.3c0,0,0.1,0,0.1,0c-0.1,0.4-0.4,0.4-0.8,0.4c-1.3,0.5-2.4,1.2-3.5,2
		c-0.1,0.4-0.3,0.5-0.6,0.5c0,0,0,0,0,0c-0.1,0.4-0.4,0.3-0.7,0.4c-0.1,0-0.2,0.1-0.3,0.1c0.1,0.7-0.5,1-0.8,1.5
		c-0.6,0.7-1.4,1.2-1.5,2.2c1.2,1.7,2.4,3.3,3.6,5c0.4,0.6,1,1.1,1.5,1.7c0.1-1.2-0.3-2.4,0.9-3.4c1.9-1.6,3.8-3.2,5.7-4.9
		c5.2-4.4,10.8-8.4,16.6-12.1c4.9-3.2,10.1-5.8,15.3-8.5c1.5-0.8,2.9-2,4.7-2c0,0,0,0,0,0c0.1-0.5,0.4-0.7,0.9-0.7
		c2.7-2.1,5.5-4.1,8.2-6.2c0.7-0.6,1.3-0.8,1.8,0.2c2.1-1.4,3.7-1.2,4,0.7c0.2,1.5,0.9,1.4,2,1.2c1.2-0.3,2.5-0.3,3.7,0.2
		c0.3,0.1,0.6,0.2,0.6,0.6c0,0.4-0.3,0.6-0.7,0.7C187.6,47.4,187.4,47.5,187.1,47.6z"/>
	<path class="st23" d="M96.6,105.9c0,1.2,0.1,2.4,0.1,3.6c0,4.8-0.2,9.5-0.9,14.2c-0.6,0.6-0.6,1.6-1.3,2.2c-0.9,0-1.9,0.3-2.8-0.3
		c-0.2-0.1-0.3-0.2-0.4-0.1c-1.4,1.5-3.3,0.9-5,1.3c-1.3,0.3-2.6,0.3-3.9,0.4c-1.1,0-1.2-0.4-0.9-1.3c1.7-5.1,2.5-10.4,3.2-15.7
		c0.6-4.4,1.7-8.6,2.9-12.9c0.1-0.4,0.1-0.9,0.6-0.9c2,0,3.4-1.2,4.9-2.3c0.2-0.1,0.5-0.2,0.7-0.2c0.9,2.2,1.6,4.4,1.8,6.7
		C95.5,102.4,95.7,104.2,96.6,105.9z M91.4,119.5c-1.1,0.5-2.3,0.5-2.3,2.1C90.5,121.6,91.2,120.9,91.4,119.5z"/>
	<path class="st18" d="M70.4,79.2c2,0.3,3.8-0.9,5.9-0.4c1.2,0.3,2.1-0.6,2.5-1.6c0.3-0.8-0.4-1.4-1.3-1.4c-2.1,0-4,0.7-5.9,1.2
		c-5.5,1.4-11,2.5-16.8,2.5c2-0.9,4.1-1.9,6.1-2.9c4.6-2.3,9.4-4.1,13.3-7.7c-0.2-0.4-0.5-0.8-0.7-1.2c-0.8,0.1-1.6,0-2.4,0.2
		c-3.9,0.7-7.5,2.4-11.2,3.8c-6.6,2.5-12.9,5.8-20,6.6c-2,0.2-4.1,0.5-6.2-0.2c-2.5,0.5-5,1.1-7.5,1.6c0.1,2.2,1.8,2.9,3.4,3.6
		c4.4,0.6,8.8,0.4,13.2,0.2c1.7-0.5,3.5-0.9,5.2-1.4c1.1-0.4,1.2,0.1,1.2,1c6.5-0.5,12.8-2,19.1-3.8C68.8,79.2,69.6,78.5,70.4,79.2z
		"/>
	<path class="st17" d="M33.6,78.2c2,0.6,4.1,0.4,6.2,0.2c7.1-0.8,13.4-4.1,20-6.6c3.7-1.4,7.3-3.1,11.2-3.8c0.8-0.1,1.6-0.1,2.4-0.2
		c-0.2-0.5-0.4-1,0.4-1.3c-0.4-0.3-0.7-0.3-1,0.1c-0.1,0.3-0.2,0.7-0.7,0.8c-1.7,0.3-4.2-1.1-4.9-2.7c-0.8-1.8-0.1-3.5,1.8-4.1
		c0.6-0.2,0.8-0.3,0.8-1c-0.1-2.5-0.3-5.1-1-7.5c-0.4-1.4-0.3-2.7-0.5-4c-0.5,0.3-1.1,0.6-1.6,0.8c-1.2,8.9-7.4,14.4-13.7,19.8
		c-5.2,4.5-11.4,7.1-18,8.9C34.6,77.8,34,77.8,33.6,78.2z"/>
	<path class="st18" d="M97.4,48.5c1,0.6,1.4,1.8,2.3,2.6c0.5,0.4,0.9,1,1.6,0.6c0.7-0.3,0.7-1.1,0.6-1.7c-0.2-1.4-0.7-2.7-1.4-3.8
		c-3.5-5.7-8.7-8.8-15.3-9.8c-2.6-0.4-5.2-0.1-7.7-0.3c-3.4-0.3-6.9-0.2-10-2.1c-1.3-0.7-2.5-1.5-3.3-2.8c-0.8-1.1-1.8-2.1-3.4-1.8
		c-1.1,1.9-1.6,3.9-0.9,6.1c0.2,0.1,0.3,0.4,0.3,0.6c0,0,0,0,0,0c0.2,0.1,0.5,0.1,0.7,0.2c3.4,3.2,7.6,4.4,12.1,4.6
		c0.4,0,0.9-0.1,0.9,0.6c3.2-0.1,6.5-0.4,9.7-0.3c3.7,0.1,7.3,0.6,10.5,2.8c0.5-0.2,0.1-1.3,0.9-1.1c0.6,0.1,0.6,0.8,0.8,1.2
		C96,45.7,96.7,47.1,97.4,48.5z"/>
	<path class="st8" d="M51.9,118c-0.6,2.9-1,5.9-1.2,8.8c0.1,0.1,0.2,0.3,0.2,0.4c0.2,3.4-0.1,6.7,0.5,10.1c0.4,2.2-0.2,4.6-0.4,6.9
		c0.4,2.8,0.7,5.6-0.4,8.4c-0.5,1.2-0.2,2.4,0.1,3.5c1,4,0.9,8.2,1.5,12.2c0.2,1.2,0.4,2.4,0.6,3.6c0.1,0.3,0.2,0.5,0.5,0.2
		c-0.1-2.2-0.3-4.4-0.4-6.7c-0.2-2.9,0.3-5.8,0.3-8.7c-0.1-5.6,0.7-11.1,1.4-16.6c0.8-6.7,2.3-13.4,4.3-19.8
		c0.6-1.9,1.2-3.8,2.9-5.1c-2.5-1.4-4.9-2.8-7.4-4.1c-0.4-0.2-0.7-0.3-0.8,0.3c-0.1,0.5-0.2,1.1-0.3,1.6
		C53.5,114.9,52.8,116.5,51.9,118z"/>
	<path class="st24" d="M61.5,115.2c-1.7,1.3-2.3,3.2-2.9,5.1c-2,6.5-3.5,13.1-4.3,19.8c-0.7,5.5-1.4,11-1.4,16.6
		c0,2.9-0.4,5.8-0.3,8.7c0.1,2.2,0.3,4.4,0.4,6.7c1.1-0.2,2.1,0,2.4,1.1c0.4,1.4,1.5,1,2.3,0.9c1.1-0.1,0.7-1.1,0.6-1.7
		c-0.3-3.5-0.7-7-1-10.6c-1-12.1-1-24.1,2.8-35.9c0-0.1,0-0.3,0-0.5c0.1-1.8,0.6-3.5,1.9-4.8c0,0,0,0,0,0c0-0.3,0-0.5,0.3-0.6
		c0.3-0.3,0.5-0.8,0.6-1.2c0-1,0-2,0-3C62.6,115.5,62.1,115.3,61.5,115.2z"/>
	<path class="st24" d="M167.3,50.8c-1.8,0-3.2,1.2-4.7,2c-5.2,2.7-10.4,5.3-15.3,8.5C141.6,65,136,69,130.7,73.4
		c-1.9,1.6-3.7,3.3-5.7,4.9c-1.2,1-0.8,2.2-0.9,3.4c0.2,0.2,0.4,0.4,0.6,0.6c1.1,0.2,2.1-0.3,3.1-0.3c4.1-4.3,9.2-7.4,13.9-11.1
		c8.3-6.5,16.6-12.9,24.9-19.4C166.9,51.3,167.1,51,167.3,50.8z"/>
	<path class="st22" d="M94,134.7c-0.5,0.8-1.4,1.3-1.3,2.4c0.1,1.7,1.3,2.7,3,2.6c3.1-0.3,6.3,0,9.4,0.2c0.8,0.1,0.7,0.5,0.6,1.1
		c-0.7,4.1,0.6,7.8,2.3,11.4c0.8,1.6,1.7,3.2,2.1,5c0.1,0.8,0.4,1.6,0.7,2.3c0.9,2,2.9,2.5,4.6,1c-1.5-4.9-3-9.8-4.6-14.7
		c-1.4-4.3-1.3-8.4,1.4-12.4c-1.9,0.3-3.6,0.5-5.3,0.7c-0.1,0.9-0.7,1.2-1.6,1.2c-1.8,0-3.6-0.7-5.4-0.9
		C98.1,134.8,96.1,134.7,94,134.7z"/>
	<path class="st25" d="M82.5,127.2c-1.1,0-1.2-0.4-0.9-1.3c1.7-5.1,2.5-10.4,3.2-15.7c0.6-4.4,1.7-8.6,2.9-12.9
		c0.1-0.4,0.1-0.9,0.6-0.9c2,0,3.4-1.2,4.9-2.3c0.2-0.1,0.5-0.2,0.7-0.2c-0.1-0.5-0.2-0.9-0.6-1.3c-0.7,0.1-1.5,0.3-2.2,0.4
		c-0.3,0.1-0.6,0.2-0.8,0.3c-0.8,0.4-1.5,1.7-2.5,0.2c-0.1,0-0.2,0-0.2,0c-0.2,0.6-0.5,1.1-1,1.5c-2.8,2.4-4.1,5.6-5.1,9
		c-1.4,4.5-2.3,9.1-3.5,13.6c-0.6,2.4-1,4.9-2.4,7.1c-0.2,2.7-0.2,2.8,2.5,2.8C79.6,127.5,81,127.7,82.5,127.2
		C82.5,127.3,82.5,127.2,82.5,127.2z"/>
	<path class="st18" d="M109.6,56.1c-0.1-1.4-0.5-2.7-1-4c-0.2-0.4-0.3-1.1-0.8-0.9c-0.6,0.1-0.3,0.8-0.3,1.2c0.4,5.2-1.8,9.4-5,13.2
		c-2.5,3.1-5.6,5.6-8.8,7.9c0,0.1-0.1,0.1-0.1,0.2c0,0,0,0.1,0,0.1c-0.1,0.5-0.2,1-0.3,1.5c-0.2,0.7-0.6,0.6-1,0.1
		c-0.5,0.6-1,1.2-1.5,1.8c0.1,2.3,2.1,3.6,4,2.7c1.2-0.6,2.2-1.4,3-2.5c-0.2-0.7,0.3-1.2,0.7-1.6c3.8-4,6.8-8.7,9.3-13.6
		C108.9,60.3,109.5,58.3,109.6,56.1z"/>
	<path class="st22" d="M76.3,134.4c3.3,0.7,6.7,0.9,10.1,0.6c2.1-0.2,4.2-0.2,6.1-0.9c0.4-1.1,1.7-1.7,1.8-3.1
		c-0.3-0.6-0.8-0.7-1.4-0.8c-2.8-0.4-5.6-0.4-8.4-0.6c-1.4-0.1-3,0.1-4.3-0.7c-1.2,0-2.3,0.1-3.5-0.1c-1-0.1-1.2,0.3-1.1,1.2
		C75.9,131.4,76.1,132.9,76.3,134.4z"/>
	<path class="st8" d="M90.2,82.1c-0.2-0.7-0.4-1.5-0.5-2.2c-0.1-1.3-0.6-1-1.3-0.4c-0.9,0.8-1.9,1.5-3.2,1.7c-0.6,0.1-0.6,0.5-0.7,1
		c-0.3,2.3-1.2,4.4-3.3,5.8c-1.2,0.8-0.7,1.6,0,2.3c1.1,1.1,2.5,1.5,4,1.6c2.5,0.1,4.8-0.5,7.1-1.4c-0.6-1.2-1.3-2.2-1.8-3.4
		c-0.2-0.6-0.6-0.4-1-0.5c-0.5-0.1-1.4,0-1.3-0.7c0.1-0.9,0.9-0.4,1.5-0.5c0.1,0,0.2,0,0.3,0C89.6,84.2,89.4,83.1,90.2,82.1z"/>
	<path class="st17" d="M97.9,77.4c-0.8,1.1-1.8,1.9-3,2.5c-1.9,0.9-3.9-0.4-4-2.7c-0.7,1.4,0,2.6,0.3,3.8c0.9-0.1,1.7,0,2.5,0.4
		c1.9,0.9,3.8,1.9,5.7,2.7c1.4,0.6,2.7,1.6,4.3,1.8c0.2-1.3-0.5-2.3-0.7-3.5c-0.1-1-0.9-0.2-1.3-0.1c-0.4,0.1-0.7,0.2-0.9-0.2
		c-0.2-0.3,0-0.7,0.3-0.7c2-0.4,1.7-1.8,1.7-3.2c0-0.5,0-1,0-1.5c-0.8-0.8-0.3-2-0.8-2.9c-0.9,1-1.8,2-2.7,3
		C98.9,77.2,98.6,77.7,97.9,77.4z"/>
	<path class="st23" d="M75.6,124.7c1.3-2.2,1.8-4.7,2.4-7.1c1.1-4.5,2.1-9.1,3.5-13.6c1-3.4,2.3-6.6,5.1-9c0.5-0.4,0.8-0.9,1-1.5
		c-0.1-0.2-0.3-0.3-0.4-0.5c-1.1,0-2.9-0.4-3.3,0.1c-1,1.4-1.6,3.2-1.8,5c-0.4,2-0.3,4.2-2.1,5.7C77.5,110.5,75.8,117.4,75.6,124.7z
		"/>
	<path class="st22" d="M64.7,137.2c2.7,4,6.7,5.6,11.2,6.4c0.9,0.2,2,0.2,2.4-0.9c0.4-1.1-0.4-1.7-1.3-2.2c-0.2-0.1-0.3-0.3-0.4-0.4
		c-3.6-0.4-6.4-2.3-8.8-4.8c-0.3-0.3-0.6-0.7-0.9-1c-0.5,0.1-1,0.1-1.3,0.6C64.8,135.5,65,136.5,64.7,137.2z"/>
	<path class="st18" d="M103.7,85.9c-1.6-0.2-2.8-1.2-4.3-1.8c-2-0.8-3.8-1.8-5.7-2.7c-0.8-0.4-1.6-0.5-2.5-0.4c0,0.1,0,0.2,0,0.3
		c0.4,2.9,1.4,4.9,4.8,5.1c3.2,0.3,6.1,1.8,9.1,2.9c0.1-0.1,0.1-0.2,0.2-0.2C104.8,88.1,104.2,87,103.7,85.9z"/>
	<path class="st19" d="M162.2,295.5c-0.3,1.8-0.6,3.6-1,5.4c-0.4,1.9-1.4,2.2-3.5,1.2c1.1,2.8,2.1,5.4,3.2,7.9
		c0.3,0.8,1.1,0.9,1.8,0.7c0.9-0.2,1.2-1,1.2-1.8c0-1.3-0.2-2.6-0.3-3.9c-0.3-2.8-0.4-5.7-0.9-8.5
		C162.6,296.2,162.6,295.8,162.2,295.5z"/>
	<path class="st16" d="M128.2,84.5c-0.2,0.7,0.2,0.9,0.6,1.1c0.9,0.5,1.7,1,2.6,1.5c1,0.6,1.9,1.1,3,0c1.8-1.8,2.2-2.8,1.5-4.3
		c-1.8-4-2.7-4.2-5.8-1.2C129.3,82.5,128.5,83.4,128.2,84.5z"/>
	<path class="st20" d="M120.8,218.5c0.1-1.4-1-2.3-1.6-3.4c-5.9-10.5-12.3-20.7-19.1-30.7c-1.2-1.8-2.5-3.6-3.8-5.3
		c-0.2-0.2-0.4-0.3-0.6-0.3c0.1,1.1,0.9,1.8,1.4,2.6c4.5,7,8.8,14.1,13.5,21c3.3,4.9,6,10.1,9.3,15
		C120.2,217.8,120.3,218.3,120.8,218.5z"/>
	<path class="st24" d="M57.4,177.8c-0.8,1.6-1.9,1.3-3.4,0.7c0.9,4.1,2,8.1,3.4,12c0.1-0.6,0.1-1.3,0.2-1.9c0-0.4,0.1-0.7,0.6-0.7
		c0.4,0,0.5,0.4,0.5,0.6c0.1,0.7,0.1,1.4,0.1,2.1c0.5-0.4,0.6-1,0.6-1.6c0-3.5-0.7-7-0.9-10.5C58.5,177.7,57.9,177.9,57.4,177.8z"/>
	<path class="st24" d="M187.1,47.6c0.2-0.1,0.5-0.1,0.7-0.2c0.4-0.1,0.7-0.2,0.7-0.7c0-0.4-0.3-0.5-0.6-0.6
		c-1.2-0.5-2.5-0.4-3.7-0.2c-1.1,0.2-1.8,0.3-2-1.2c-0.3-1.9-2-2.2-4-0.7c-0.5,1.4-1.2,2.8-1.1,4.4c0.1,0.8,0.3,1.1,1.2,0.8
		C181.1,48.4,184,47.4,187.1,47.6z"/>
	<path class="st19" d="M91.8,301.9c-1.7,1.6-2.5,1.4-3.9-0.6c0.4,3.6,1.3,7.2,3,10.5c0.4,0.8,1.1,0.4,1.8,0.3
		c0.5-0.1,0.7-0.3,0.6-0.8C92.8,308.2,92.3,305.2,91.8,301.9z"/>
	<path class="st26" d="M63.4,205.4c0.3-2.3-0.2-4.6-0.3-6.9c-0.2-5.8-0.4-11.7-0.6-17.5c0-0.9-0.2-1.8-0.3-2.7
		c-1-0.3-1.3,0.1-1.3,1.1c0.3,6.2,0.8,12.3,1.4,18.5c0.2,2.3,0.5,4.6,0.8,6.9C63.1,205,63.1,205.3,63.4,205.4z"/>
	<path class="st8" d="M57.4,177.8c0.5,0,1.1-0.1,1.1,0.7c0.2,3.5,1,7,0.9,10.5c0,0.6-0.1,1.2-0.6,1.6c-0.2,3.2-0.1,6.4,1.2,9.5
		c0.4,0,0.7,0,1.1,0c-0.6-6.9-1.4-13.8-1.5-20.7c0-1.2-0.5-2-1.7-2.2C57.3,177.1,57.3,177.5,57.4,177.8z"/>
	<path class="st19" d="M73.7,41.5c0-0.6-0.5-0.5-0.9-0.6c-4.6-0.2-8.7-1.5-12.1-4.6c-0.2-0.2-0.5-0.2-0.7-0.2
		c0.5,2.9,3.1,5.2,6.8,5.8C69.1,42.3,71.4,42,73.7,41.5z"/>
	<path class="st20" d="M80.2,128.8c1.3,0.8,2.9,0.6,4.3,0.7c2.8,0.3,5.6,0.2,8.4,0.6c0.6,0.1,1.1,0.2,1.4,0.8
		c0.9-0.7,0.8-1.7,1.1-2.7C90.3,128.1,85.2,128.6,80.2,128.8z"/>
	<path class="st27" d="M93.3,87.5c2.3,0.2,3.6,1.9,5.1,3.2c1.2,1.1,2.4,1.3,3.9,0.6c0.7-0.3,1.5-0.5,2.3-0.7
		c-3.2-1.6-6.7-2.6-10.2-3.4C94.1,87.1,93.5,86.7,93.3,87.5z"/>
	<path class="st18" d="M66.8,49c0.5-0.3,1.1-0.6,1.6-0.8c0.2-0.4,0.1-1,0.8-1c1.7-1.1,3.1-2.4,4.3-4c-0.9,0-1.9,0.1-2.8,0.1
		c-1.3,0.8-2.8,1.4-4.3,1.8C66.5,46.4,66.7,47.7,66.8,49z"/>
	<path class="st26" d="M118.8,76.6c-0.2,0.9,0.3,1.7,0.8,2.4c0.7,1,1,2,0.7,3.2c-0.5,2-0.1,2.5,2,2.5c1.2,0,2.3,0.6,3.5,0.3
		C123.1,82.5,120.7,79.7,118.8,76.6z"/>
	<path class="st23" d="M76.9,109c-1.9,3.5-2.8,7.2-3.1,11.2c-0.2,2-0.6,4.1,0.5,6.1C74.4,120.3,75.6,114.6,76.9,109z"/>
	<path class="st19" d="M29.5,83.4c-1.6-0.7-3.3-1.4-3.4-3.6c-1.1,0.1-2.1,0.4-3.3,0c-0.7-0.2-1.3,0.2-1.4,1
		c-0.1,0.7,0.1,1.3,0.8,1.3C24.7,82.3,27,83.5,29.5,83.4z"/>
	<path class="st16" d="M116.6,165c-0.1,1.8,0.7,3.5,1.1,5.2c1.1,4,2.4,7.9,4,11.8c0.2,0.4,0.2,0.9,0.7,1.1c0.2-1.2-0.6-2.2-0.9-3.3
		c-1.4-4.6-2.9-9.2-4.3-13.7C117,165.7,117,165.2,116.6,165z"/>
	<path class="st1" d="M62.1,176.9c-0.7-6.2-0.6-12.4-0.5-18.6c0,0-0.1,0-0.1,0l-0.1,0c-0.4,5.8-0.6,11.7-0.4,17.5
		C60.9,176.8,61.2,177.1,62.1,176.9z"/>
	<path class="st20" d="M82.5,127.2C82.5,127.2,82.5,127.3,82.5,127.2c4.3,0,8.6,0,12.9-0.1c0.1,0,0.2-0.2,0.3-0.2
		c-0.4-0.3-0.8-0.6-1.2-1c-0.9,0-1.9,0.3-2.8-0.3c-0.2-0.1-0.3-0.2-0.4-0.1c-1.4,1.5-3.3,0.9-5,1.3
		C85.1,127.1,83.8,127.1,82.5,127.2z"/>
	<path class="st27" d="M73.5,43.1c-1.2,1.6-2.6,2.9-4.3,4c0.2,0.4,0.4,0.8,0.6,1.3c2.3-2.3,4.8-4.3,7.6-5.8
		c-1.2,0.1-2.4,0.3-3.7,0.4C73.7,43,73.6,43.1,73.5,43.1L73.5,43.1z"/>
	<path class="st1" d="M105.9,86.1c0.9-1,1.3-2,0.5-3.3c-0.5-0.8,0-1.7,0.1-2.5c-2.6,0.9-2.7,0.9-1.9,3.5c0.2,0.8,0.6,1.6,0.8,2.4
		C105.5,86.2,105.7,86.2,105.9,86.1z"/>
	<path class="st26" d="M51,144.2c0.2-2.3,0.8-4.7,0.4-6.9c-0.7-3.4-0.3-6.7-0.5-10.1c0-0.1-0.1-0.3-0.2-0.4
		C50.1,132.6,50.3,138.4,51,144.2z"/>
	<path class="st27" d="M105.9,86.1c-0.2,0.1-0.3,0.1-0.5,0.2c0.6,1.7,1.5,3.1,2.7,4.4c1-0.7,1.3-1.6,0.9-2.7
		C108.5,86.4,107.2,86.2,105.9,86.1z"/>
	<path class="st26" d="M70.4,53.3c0.4-2.4,1.6-4.2,3.3-5.8c0.6-0.6,1.7-1,1.6-2.1c-1.8,1.1-3.4,2.5-4.9,4
		C69.3,50.6,70.2,52,70.4,53.3z"/>
	<path class="st8" d="M88.1,297c0.2,0.9,0.5,1.7,0.8,2.6c0.2,0.6,0.6,0.9,1.3,0.8c0.7-0.1,0.7-0.6,0.7-1.1c0-0.8,0.1-1.6-0.2-2.4
		C89.8,297.1,88.9,297.1,88.1,297z"/>
	<path class="st1" d="M97.4,122.2c0.9-1.8,0.9-3.8,0.9-5.7c0-2.1-0.2-4.2,0.6-6.3c0.3-0.8-0.4-2-0.9-2.9
		C98,112.3,97.8,117.3,97.4,122.2z"/>
	<path class="st19" d="M94,48.6c0.7,0.8,1.1,1.9,2.1,2.4c-0.4-2.1-0.2-4.4-2.3-5.8c-0.1,0.5-0.1,1.1-0.2,1.6c0.1,0.5,0.2,1,0.4,1.4
		C93.9,48.3,94,48.4,94,48.6z"/>
	<path class="st20" d="M88.1,297c0.8,0.1,1.7,0.1,2.5-0.1c0.1-0.6,0-1-0.6-1.4c-0.9-0.6-1.6-1.4-2.5-2.2
		C87,294.7,87.7,295.8,88.1,297z"/>
	<path class="st20" d="M133.6,239.9c0.5-0.3,0.4-0.8,0.2-1.2c-1.1-1.8-2.2-3.7-3.4-5.5c-0.2-0.4-0.6-0.7-1.1-0.6
		C130.7,235,132.2,237.5,133.6,239.9z"/>
	<path class="st1" d="M127.9,126.3c-0.1,1.5-1.2,1.9-2.5,2.2c0.1,0.4,0.3,0.8,0.4,1.2c1-0.3,1.9-0.6,2.9-0.8
		c0.9-0.2,0.9-0.6,0.4-1.2C128.6,127.2,128.2,126.7,127.9,126.3z"/>
	<path class="st27" d="M66.4,45.1c1.5-0.4,3-1,4.3-1.8c-1.2,0-2.3,0-3.5-0.1c-1.1-0.1-1.7,0-1.1,1.3C66.2,44.6,66.3,44.8,66.4,45.1z
		"/>
	<path class="st20" d="M100.1,134.8c1.8,0.2,3.6,0.8,5.4,0.9c0.9,0,1.5-0.3,1.6-1.2C104.7,134.6,102.4,134.7,100.1,134.8z"/>
	<path class="st8" d="M53.1,174.2c0.3,1.2,0.2,2.3,1.3,3c0.3,0.1,0.6,0.6,0.9,0.2c0.2-0.3,0.6-0.8,0.3-1.1
		C54.9,175.5,54.7,174.2,53.1,174.2z"/>
	<path class="st26" d="M119.1,75c0.1-1,1-1.5,1.5-2.2c0.4-0.4,1-0.7,0.8-1.5c-1.6,1.2-3.3,2.3-4.9,3.5
		C117.3,74.9,118.2,74.9,119.1,75C119,75,119.1,75,119.1,75z"/>
	<path class="st28" d="M61.3,158.3l0.1,0c0,0,0.1,0,0.1,0c0.3-2.7,0.6-5.4,0.9-8.1c0.1-1,0.5-2.1,0.3-3.1
		C62,150.8,61.6,154.5,61.3,158.3z"/>
	<path class="st20" d="M74.4,129.2c-1.6,1.6-1.4,3.3,0.6,4.7C74.7,132.4,74.5,130.8,74.4,129.2z"/>
	<path class="st27" d="M49.1,83.2c0-0.8-0.1-1.3-1.2-1c-1.7,0.6-3.5,1-5.2,1.4C44.8,83.7,47,83.6,49.1,83.2z"/>
	<path class="st28" d="M129,67.2c2.3-0.1,4.1-1.4,6.2-2.1c0.8-0.3,1.7-0.3,2.1-1.2C134.5,64.8,131.6,65.7,129,67.2z"/>
	<path class="st26" d="M65.5,134.9c0.3-0.5,0.8-0.5,1.3-0.6c-0.3-0.9-0.2-1.3,0.9-1c-0.2-0.8-0.3-1.7-1.2-2.1
		C66.2,132.4,65.5,133.6,65.5,134.9z"/>
	<path class="st26" d="M102.3,57.4c0.2-0.9,0.9-2.1,0.4-2.8c-0.7-0.9-1.6,0.6-2.5,0.4c0,0.1,0.1,0.2,0.1,0.3
		C101.4,55.6,102.2,56.2,102.3,57.4z"/>
	<path class="st26" d="M79.6,90.4c-0.6,2.2,1.6,2.1,2.5,3.1c0.6-0.7,0.6-1.2-0.4-1.6C80.9,91.6,80.3,90.9,79.6,90.4z"/>
	<path class="st16" d="M124.9,190.1c-0.4,2.3,0.8,4.1,1.7,5.9c0-0.2,0.1-0.4,0.1-0.6C126.1,193.7,125.5,191.9,124.9,190.1z"/>
	<path class="st28" d="M93.6,46.7c0.1-0.5,0.1-1.1,0.2-1.6c-0.8-0.6-1.7-1.2-2.7-1.5C91.7,44.8,92.3,46,93.6,46.7z"/>
	<path class="st28" d="M79.9,103.7c1.8-1.5,1.8-3.6,2.1-5.7C81,99.8,80.5,101.8,79.9,103.7z"/>
	<path class="st28" d="M101.9,73.7c0.5,0.9,0,2.1,0.8,2.9c0.2-1.4,0.4-2.9,0.7-4.4C102.7,72.6,102.3,73.1,101.9,73.7z"/>
	<path class="st28" d="M64.3,214c-0.1-1.8-0.2-3.7-0.4-5.5c0-0.3,0.2-0.8-0.4-0.9C63.6,209.7,63.8,211.9,64.3,214z"/>
	<path class="st27" d="M90.2,82.1c-0.8,1.1-0.6,2.1-0.1,3.2c0.6,0.3,1.2,0.5,0.8-0.6C90.6,83.8,90.4,82.9,90.2,82.1z"/>
	<path class="st26" d="M95.4,63.6c-0.5,2.1-1.8,4.1-1.5,6.4C94.9,68,95.4,65.9,95.4,63.6z"/>
	<path class="st8" d="M127.9,81.9c-1,0-2.1,0.5-3.1,0.3c0.1,0.1,0.1,0.2,0.2,0.2C126.5,84,126.8,84,127.9,81.9z"/>
	<path class="st28" d="M95.7,100.6c-0.2,1.9,0,3.6,0.9,5.3C96.2,104.1,96.4,102.3,95.7,100.6z"/>
	<path class="st1" d="M99.8,133.5c-1.2-1.4-2.6-0.6-4-0.5c-0.2,0.6,0.3,0.5,0.6,0.5C97.4,133.5,98.6,133.5,99.8,133.5z"/>
	<path class="st28" d="M51.9,118c0.9-1.5,1.7-3.1,1.2-4.9C52.3,114.6,52.2,116.3,51.9,118z"/>
	<path class="st20" d="M85.4,218.5c-0.6,1.1-0.2,2.3-0.3,3.4c-0.1,1.8,0,3.7,0,5.6C85.6,224.4,85.3,221.5,85.4,218.5z"/>
	<path class="st8" d="M87.2,92.9c0.1,0.2,0.3,0.3,0.4,0.5c0.1,0,0.1,0,0.2,0c0.8-0.4,1.7-0.3,2.5-0.2c0.3-0.1,0.6-0.2,0.8-0.3
		c-0.2-0.1-0.4-0.1-0.6-0.2c0.1-0.1,0.2-0.3,0.4-0.4C89.6,92.3,88.4,92.7,87.2,92.9z"/>
	<path class="st26" d="M90.9,92.3c-0.1,0.1-0.2,0.3-0.4,0.4c0.2,0.1,0.4,0.1,0.6,0.2c0.7-0.1,1.5-0.3,2.2-0.4
		C92.7,90.6,91.7,92.1,90.9,92.3z"/>
	<path class="st8" d="M62.2,120.7c-1.3,1.3-1.8,3-1.9,4.8C61,123.9,61.6,122.3,62.2,120.7z"/>
	<path class="st26" d="M61.1,200.1c-0.4,0-0.7,0-1.1,0c0.2,1,0.5,2,1.5,2.7C61.4,202,61.3,201,61.1,200.1z"/>
	<path class="st8" d="M63.1,115.9c0,1,0,2,0,3c0.3-0.5,0.5-1,0.8-1.4C64.7,116.4,64.3,115.9,63.1,115.9z"/>
	<path class="st27" d="M68.5,64.5c0.4-0.9,1-1.7,1.1-2.7C68,62.2,67.8,62.8,68.5,64.5z"/>
	<path class="st26" d="M94.5,125.9c0.4,0.3,0.8,0.6,1.2,1c0-1,0.5-2.1,0.1-3.1C95.2,124.4,95.2,125.3,94.5,125.9z"/>
	<path class="st16" d="M93.6,175.7c0-1.4-1.2-2.1-1.5-3.3c-0.2,0.1-0.3,0.3-0.5,0.4C92.2,173.8,92.8,174.9,93.6,175.7z"/>
	<path class="st28" d="M156.7,273.1c-0.4,1.4,0.2,2.5,1,3.5C157.4,275.4,157,274.2,156.7,273.1z"/>
	<path class="st1" d="M81.4,42.9c1.4,0.6,2.7,0,4-0.4c-0.5,0-1-0.1-1.6-0.1c-0.5,0.2-1,0.2-1.5,0C81.9,42.2,81.7,42.8,81.4,42.9z"/>
	<path class="st28" d="M145.6,59.9c1.4,0.6,1.8-0.5,2.4-1.3C147.1,58.9,146.3,59.4,145.6,59.9z"/>
	<path class="st27" d="M92.4,75.4c0.4,0.5,0.7,0.5,1-0.1c0.2-0.5,0.2-1,0.3-1.5C92.9,74.1,92.7,74.8,92.4,75.4z"/>
	<path class="st28" d="M103.7,38.8c0,1,0.5,1.8,1.5,2.1C104.9,40.1,104.4,39.4,103.7,38.8z"/>
	<path class="st21" d="M66.2,227.6c0.4-0.9,0.6-1.7-0.3-2.5C65.7,226,66,226.8,66.2,227.6z"/>
	<path class="st28" d="M126.7,195.5c0,0.2-0.1,0.4-0.1,0.6c0.1,0.5,0.1,1.1,0.7,1.3C127.3,196.7,127,196.1,126.7,195.5z"/>
	<path class="st28" d="M105.3,41c-0.1,0.8,0.4,1.2,1,1.5C106,41.9,105.8,41.3,105.3,41z"/>
	<path class="st16" d="M94.6,177.3c0.1-0.7-0.2-1.3-0.9-1.5C93.8,176.3,94.1,176.8,94.6,177.3z"/>
	<path class="st28" d="M127.3,197.4c-0.1,0.6,0,1.2,0.6,1.6C127.9,198.3,127.7,197.8,127.3,197.4z"/>
	<path class="st8" d="M82.3,42.4c0.5,0.2,1,0.2,1.5,0C83.4,42.1,82.8,42.1,82.3,42.4z"/>
	<path class="st20" d="M95.8,178.8c0-0.5,0-0.9-0.6-0.9C95.2,178.3,95.4,178.6,95.8,178.8z"/>
	<path class="st28" d="M103.2,38.4c0.2,0.1,0.1,0.7,0.6,0.4C103.7,38.4,103.4,38.4,103.2,38.4z"/>
	<path class="st20" d="M121.7,220.2c0-0.5-0.1-0.9-0.6-1.1C121.2,219.6,121.4,219.9,121.7,220.2z"/>
	<path class="st24" d="M168.2,50.1c-0.5,0-0.8,0.2-0.9,0.7C167.7,50.7,168,50.5,168.2,50.1z"/>
	<path class="st26" d="M75.5,45.3c0.5,0.4,0.7,0.1,0.7-0.4C75.9,44.9,75.6,45,75.5,45.3z"/>
	<path class="st28" d="M127.9,198.9c0.1,0.3-0.1,0.8,0.4,0.9C128.1,199.5,128.2,199.1,127.9,198.9z"/>
	<path class="st20" d="M95.1,177.9c0-0.3,0-0.5-0.2-0.7c0,0.1-0.1,0.2-0.1,0.3C94.9,177.7,95,177.8,95.1,177.9z"/>
	<path class="st28" d="M137.9,63.6c0.3,0,0.5,0,0.7-0.3C138.3,63.3,138.1,63.4,137.9,63.6z"/>
	<path class="st28" d="M137.3,63.9c0.3,0,0.5,0,0.7-0.3C137.7,63.6,137.4,63.6,137.3,63.9z"/>
	<path class="st19" d="M60,36.1c0-0.3,0-0.5-0.3-0.6C59.8,35.7,59.7,36,60,36.1z"/>
	<path class="st28" d="M128.4,67.5c0.3,0.1,0.6,0,0.6-0.3C128.8,67.2,128.5,67.2,128.4,67.5z"/>
	<path class="st28" d="M127.8,67.8c0.3,0,0.6,0,0.7-0.3C128.2,67.5,127.9,67.5,127.8,67.8z"/>
	<path class="st28" d="M127.2,68.1c0.3,0,0.6,0,0.7-0.3C127.6,67.8,127.3,67.8,127.2,68.1z"/>
	<path class="st20" d="M121.1,219.1c0-0.3,0-0.5-0.3-0.6C120.7,218.8,120.9,219,121.1,219.1z"/>
	<path class="st28" d="M126.5,68.5c0.3,0,0.6,0,0.8-0.4C126.9,68.1,126.7,68.2,126.5,68.5z"/>
	<path class="st26" d="M122.3,70.9c0.3,0,0.6-0.1,0.6-0.5C122.8,70.6,122.5,70.7,122.3,70.9z"/>
	<path class="st20" d="M129.1,232.2c0-0.3-0.1-0.5-0.4-0.6C128.8,231.8,129,232,129.1,232.2z"/>
	<path class="st8" d="M62.5,120.1c-0.3,0.1-0.3,0.4-0.3,0.6C62.4,120.6,62.5,120.4,62.5,120.1z"/>
	<path class="st26" d="M121.7,71.2c0.3,0,0.6,0,0.7-0.4C122.1,70.9,121.9,71,121.7,71.2z"/>
	<path class="st1" d="M106.4,80.4c0.3,0,0.5,0,0.6-0.3C106.8,80.1,106.6,80.1,106.4,80.4z"/>
	<path class="st28" d="M148.3,58.4c0.3,0,0.5-0.1,0.6-0.3C148.7,58.2,148.5,58.3,148.3,58.4z"/>
	<path class="st26" d="M76.2,44.9c0.3,0,0.5,0,0.7-0.3C76.6,44.5,76.3,44.6,76.2,44.9z"/>
	<path class="st28" d="M90.3,43.3c0.1,0.3,0.3,0.3,0.6,0.3C90.7,43.5,90.5,43.4,90.3,43.3z"/>
	<path class="st16" d="M94.8,177.5c0-0.1,0.1-0.2,0.1-0.3c-0.1,0-0.2,0-0.4,0C94.6,177.3,94.7,177.4,94.8,177.5z"/>
	<polygon class="st28" points="62.8,146.8 62.9,146.9 62.8,146.9 	"/>
	<path class="st28" d="M128.2,199.8c0.1,0,0.1,0,0.2,0C128.3,199.8,128.2,199.8,128.2,199.8z"/>
	<path class="st26" d="M93.9,70.3c-0.1,0.1-0.2,0.2-0.2,0.3C93.7,70.5,93.8,70.4,93.9,70.3z"/>
	<path class="st20" d="M129.4,232.6c-0.1-0.1-0.2-0.2-0.3-0.3C129.2,232.3,129.3,232.5,129.4,232.6z"/>
	<path class="st28" d="M148,58.7c0.1-0.1,0.2-0.2,0.4-0.3C148.2,58.5,148.1,58.6,148,58.7z"/>
	<path class="st18" d="M105.1,89.4c0.1,0,0.2,0.1,0.3,0.1c0-0.1-0.1-0.2-0.1-0.3C105.3,89.2,105.2,89.3,105.1,89.4z"/>
	<path class="st18" d="M73.5,43.1c0.1,0,0.2-0.1,0.3-0.1C73.7,43,73.6,43.1,73.5,43.1z"/>
	<path class="st16" d="M82.9,164.2c0.4-1,0.7-2,1.1-3c0.2-0.4,0.2-0.7-0.2-0.9c-0.5-0.3-0.6,0.2-0.8,0.4
		C81.9,161.8,82.6,163,82.9,164.2z"/>
	<path class="st16" d="M102.7,155.3c0.2-0.6,0.3-1,0.4-1.5c0.1-0.4,0.1-0.9-0.3-1.1c-0.2-0.1-0.6,0-0.8,0.2
		c-0.5,0.3-0.2,0.7-0.1,1.1C102.1,154.4,102.4,154.8,102.7,155.3z"/>
	<path class="st1" d="M115.1,128.2c2.8-0.1,5.5-0.6,8.2-1.2c-0.8-1.7-1.1-1.8-2.7-0.9C118.8,127.1,116.9,127.4,115.1,128.2z"/>
	<path class="st1" d="M110.5,113.2c-0.1,1.2,0.4,2.1,0.6,3c0.2,0.9,0.7,0.4,1.2,0.3c0.8-0.2,0.5-0.5,0.2-1
		C111.9,114.7,111.4,113.9,110.5,113.2z"/>
	<path class="st4" d="M85,63c-0.3-3.2-1.1-6.3-1.7-9.4c-0.1-0.6-0.3-1.1-0.7-1.5c-0.2-0.2-0.5-0.3-0.8-0.1c-0.2,0.1-0.3,0.4-0.1,0.7
		c1.4,2.7,1.2,5.7,1.9,8.5c0.2,0.6,0.2,1.3,0.3,1.9c0,0.5,0.1,1,0.7,1C85.1,64,85,63.4,85,63z"/>
	<path class="st4" d="M94,48.6c0-0.1,0-0.3-0.1-0.4c-1.7-0.6-3.4-1.2-5.2-0.2c-0.5,0.2-1,0.4-0.9,1c0.1,0.8,0.8,0.4,1.2,0.4
		c1.2,0,2.3-0.5,3.5-0.1C93.1,49.4,93.6,49.1,94,48.6z"/>
	<path class="st4" d="M76.2,51.5c-1.5,0.2-2.6,1.1-3.6,2.1c-0.1,0.1-0.1,0.4,0,0.6c0.2,0.4,0.6,0.5,0.9,0.3c1.3-0.5,2.7-1.1,4-1.8
		c0.2-0.1,0.3-0.4,0.3-0.7c-0.1-0.3-0.3-0.4-0.6-0.4C76.8,51.7,76.5,51.7,76.2,51.5z"/>
	<path class="st4" d="M77.1,58.6c0.5,0.1,1.2,0.5,1.2-0.4c0-0.4-0.3-1.1-0.9-1c-0.6,0.1-1.4,0.3-1.5,1
		C75.9,59.1,76.6,58.7,77.1,58.6z"/>
	<path class="st4" d="M85.7,68.6c0.6-0.4,2-0.6,1.7-1.4c-0.4-1-1.6-0.1-2.5,0.3c-0.8,0.3-1.9,0.8-1.5,1.5C84,70,84.9,68.9,85.7,68.6
		z"/>
	<path class="st4" d="M91.4,55.1c0.5-0.1,1.2,0.2,1.3-0.6c0-0.4-0.3-1.1-0.7-0.9c-0.5,0.2-1.5,0.3-1.5,1
		C90.3,55.3,91.1,54.9,91.4,55.1z"/>
	<path class="st1" d="M78.1,52.5c0.1,0.3,0.3,0.4,0.6,0.4c0.6-0.1,1.1-0.4,1.1-1c0-0.3-0.1-0.5-0.5-0.4
		C78.9,51.7,78.4,51.9,78.1,52.5z"/>
	<path class="st26" d="M89.1,121.6c1.3,0,2-0.7,2.3-2.1C90.3,119.9,89.1,120,89.1,121.6z"/>
	<path class="st23" d="M90.3,93.2c-0.8,0-1.7-0.2-2.5,0.2C88.8,94.9,89.5,93.6,90.3,93.2z"/>
</g>
</svg>
