<?xml version="1.0" encoding="utf-8"?>
<!-- Generator: Adobe Illustrator 23.0.4, SVG Export Plug-In . SVG Version: 6.00 Build 0)  -->
<svg version="1.1" id="Capa_1" xmlns="http://www.w3.org/2000/svg" xmlns:xlink="http://www.w3.org/1999/xlink" x="0px" y="0px"
	 viewBox="0 0 221.6 334.5" style="enable-background:new 0 0 221.6 334.5;" xml:space="preserve">
<style type="text/css">
	.st0{fill:#4BA7BF;}
	.st1{fill:#FFFFFF;}
	.st2{fill:#B8B7B7;}
	.st3{fill:#B8B8B8;}
	.st4{fill:#20201E;}
	.st5{fill:#48A2B8;}
	.st6{fill:#188598;}
	.st7{fill:#C1525F;}
	.st8{fill:#E9C7B5;}
	.st9{fill:#90404B;}
	.st10{fill:#34A0B5;}
	.st11{fill:#BD4A4F;}
	.st12{fill:#E4C0AE;}
	.st13{fill:#DC9E83;}
	.st14{fill:#FAFBFA;}
	.st15{fill:#38818B;}
	.st16{fill:#E6F2F9;}
	.st17{fill:#C15360;}
	.st18{fill:#AB2F3D;}
	.st19{fill:#BF5661;}
	.st20{fill:#51A0B3;}
	.st21{fill:#49A3B9;}
	.st22{fill:#198698;}
	.st23{fill:#DCC549;}
	.st24{fill:#DC9F84;}
	.st25{fill:#C2AB37;}
	.st26{fill:#F8F4F1;}
	.st27{fill:#B95961;}
	.st28{fill:#E4E0DE;}
</style>
<g>
	<ellipse class="st0" cx="105.6" cy="317.5" rx="101.6" ry="12"/>
	<path class="st1" d="M75.1,280.9l-3.5-9.1L61,283.4l-1,4.6l-3.6,0.2l1.7,4.7l-1.7,1.3l-2.9,4.2l-2.4,2.5c0,0-12.4,2-17.1,12.9
		l-1.5,2.9l-1.7,2.6l3.1,1.3l22.5-3.1c0,0,14.3-3,14.5-8.6c0,0,0.3-10.4,5.1-13.5l1.8-5.1l-4.4-0.3L75.1,280.9z M186.2,314.7
		c-7.3-14.9-20.5-15.1-20.5-15.1l-1.4-2.4l-5-2.4c0,0-0.5-5.6-0.9-7.9c-0.4-2.3-5.5-3.5-5.5-3.5l0.2-1.1c0,0-9.6-0.8-10.3,0
		l3.1,15.1c0,0,1.5,12.9-0.2,13.7c-1.7,0.8,0.6,4.8,0.6,4.8l14.1,1.2l13.6,2.3c13.7,1.6,14.8-3.1,14.8-3.1L186.2,314.7z"/>
	<path class="st2" d="M33.4,314.8l1.2-0.4l1.5,2.9l3.3-0.5l23.9-4.1l5.7-2v1.9l-13.6,6.2l-18.2,2c0,0-4.8-0.4-5.1-0.6
		s-1.4-2.9-1.4-2.9L33.4,314.8z"/>
	<path class="st2" d="M145.6,311.5l-0.6,1.2v2.8l1.4,1.3l8.2,0.4l21.1,2.8l4.2,0.5c0,0,4.7-0.9,5-0.9c0.3,0,3.7-2,3.7-2v-1.7
		l-1.9-0.9l-4.1,1.7l-13-1l-9.8-1.8l-8.4-1.3L145.6,311.5z"/>
	<path class="st3" d="M60.1,286.9c-0.1-0.9-0.3-1.8-0.4-2.7c0.5-0.2,1.1-0.1,1.3-0.8c0.1-0.3,0.1-0.7-0.2-0.8
		c-1.5-0.3-0.8-1.4-0.7-2.1c0.5-3,1.1-5.9,1.8-8.9c0.4-1.9,0.5-3.9,1.6-5.7c1,0.2,1.5-0.2,1.8-1.2c0.6-2.2,0.9-4.5,1.5-6.8
		c0.1-0.6,0-1.1-0.7-1.3c0.1-0.3,0.2-0.6,0.2-0.9c1.7-8.9,3.4-17.8,5.1-26.6c0.1-0.7,0.3-1.2,1.2-1.2c2.5,0,5-0.5,7.4,0.2
		c0.4,0.1,1,0.2,1.2-0.4c0.2-0.6-0.4-0.7-0.8-0.8c-1.9-0.5-3.8-0.3-5.7-0.3c-2.9,0.1-2.8,0.1-2.4-2.7c0.2-1.4,0.8-1.8,2.2-1.8
		c3.4,0.1,6.8,0.1,10.2,0.5c0.5,0,1.2,0.4,1.4-0.4c0.2-0.9-0.6-0.7-1.1-0.8c-0.8-0.1-1.6-0.2-2.4-0.2c-3.2-0.2-6.3-0.3-9.6-0.3
		c0.9-4.8,1.7-9.3,2.5-13.9c0.7,0.3,0.4-0.3,0.5-0.5c1-4.3,2.1-8.6,2.9-12.9c0.8-4.5,2.8-8.7,1.9-13.5c-0.4-1.9,0.8-3.8,1.8-5.6
		c1.2,0,2.3-0.3,3.3-0.7c3.6-1.3,7.4-1.8,11.2-2c3.5-0.2,7,0.2,10.6,0.3c1.4,0.2,2.7,0.4,4.1,0.7c1.9,0.9,3.9,1.7,5.8,2.5
		c5.2,2.1,10.5,4,16.4,3.7c1.1,6.3,2.4,12.5,3.8,18.7c2.5,10.8,5.1,21.6,6.3,32.7c-0.1,0.1-0.2,0.2-0.3,0.3c-0.4-2-1.1-3.9-1.7-5.8
		c-0.4-2.6-1.1-5-3.9-6l0,0c-0.1-0.3-0.4-0.3-0.7-0.4c-3.1-1.1-5.2-0.8-6.8,1.2c-0.4,0.4-1,0.9,0,1.3c-0.3,2.2-1.2,4.3-0.9,6.6
		c-0.2,2,0.2,4,0.4,5.9c0.2,1.9,0.9,3.8,0.7,5.7c-2.2-4.2-2.4-8.7-2.2-13.3c0.1-1.5,0.3-3,0.4-4.5c0-0.5,0.2-1.2-0.5-1.3
		c-0.7-0.1-0.6,0.6-0.7,1.1c-0.3,1.9-0.6,3.8-0.6,5.8c0,1.2,0.2,2.4-1.5,2.6c-0.4,0-0.7,0.4-0.6,0.9c0.2,0.5,0.6,0.4,1,0.3
		c0.3-0.1,0.9-0.3,0.9-0.1c0.2,0.9,0.4,1.8,0.3,2.6c-0.1,0.5-0.9,0.2-1.3,0.3c-1.4,0.3-1.3-1-1.5-1.7c-4.4-14.4-8.8-28.8-13.5-43.1
		c-0.4-1.1-0.3-1.7,0.9-2c0.5-0.1,1.2-0.3,1-1c-0.3-0.8-0.9-0.3-1.4-0.1c-0.9,0.4-1.5,0.4-1.8-0.8c-0.2-0.6-0.1-1.9-1.1-1.6
		c-1.1,0.4-0.1,1.3,0,2c0,0.4,0.7,0.9-0.2,1.2c-0.5,0.2-1.1,0.7-1.5-0.1c-0.4-0.7-0.7-0.4-1.2,0.1c-1,1-0.5,2.3-0.8,3.4
		c-5.4,20.4-12.2,40.4-19.2,60.3c-3.6,10.2-7.2,20.3-10.8,30.5c-0.2,0.5-0.8,1.2,0.2,1.7c0,1.9-0.1,3.7-2,4.8
		c-0.7,0.4-0.4,1.6-1,2.3c-1.1,0.4-2.2,0.8-3.3,1.3c-1.1,0.1-1.6-0.8-2.2-1.5c-0.8-1-1-0.5-1.2,0.4
		C64.4,287.6,62.4,286.9,60.1,286.9z M129,195.5c0.4-0.1,0.8-0.2,0.7-0.6c-0.1-0.5-0.2-1-0.8-1c-0.4,0-0.6,0.2-0.4,0.5
		C128.6,194.7,128.3,195.4,129,195.5z"/>
	<path class="st3" d="M142.9,293.9c-1.5-1.3-2-3.1-2.5-4.8c-1.3-4.5-2.6-9.1-3.9-13.6c-0.1-0.3-0.3-0.5,0.1-0.8
		c0.4,0.3,0.4,0.9,0.6,1.3c1.8,5.1,3.5,10.2,5.3,15.4c0.2,0.5,0.2,1.3,1,1c0.7-0.3,0.3-0.9,0.1-1.4c-6.3-18-12-36.3-17.6-54.5
		c-0.1-0.4-0.6-1-0.1-1.3c0.3-0.2,1-0.1,1.5-0.1c0.8,0,0.6,0.8,0.8,1.3c0.9,3.1,2.3,5.9,4.6,8.3c0.1,0.1,0.2,0.2,0.3,0.3l0,0
		c0.9,3.3,4.4,4.6,7.5,2.7c0.5-0.1,0.9-0.4,1.3-0.9c1.4-1.9,1.7-4.1,1.6-6.3c0.4-2.1,0.7-4.3,0.7-6.5c0,1.5,0.9,2.8,1.1,4.3
		c1.2,9.2,3.3,18.2,5,27.2c1.1,6,2.1,12,2.6,18.1c0.1,0.9-0.2,1.4-1,1.8c-2.2,1.2-3.9,2.9-4.4,5.5c-0.1,0.5-0.4,1.1,0.3,1.2
		c0.6,0.1,0.7-0.4,0.8-0.9c0.5-2.3,2.1-3.6,4-4.6c0.1,1.7,0.9,3.3,0.3,5c-0.9,2.5-2.4,4.3-5.1,4.9c-0.3-1.5-0.6-3-1-4.5
		c-0.1-0.4-0.2-1.1-0.9-0.8c-0.6,0.2-0.3,0.7-0.3,1.1c0.2,1.3,0.9,2.6,0.6,3.9c-0.4,0-0.9,0-1.3,0c-0.2-0.6-0.4-1.2-0.6-1.8
		C144,293.4,143.5,293.5,142.9,293.9z"/>
	<path class="st4" d="M132.7,244.5c-2.3-2.3-3.7-5.1-4.6-8.3c-0.1-0.4,0-1.2-0.8-1.3c-0.5,0-1.1-0.1-1.5,0.1c-0.5,0.3,0,0.9,0.1,1.3
		c5.6,18.3,11.3,36.5,17.6,54.5c0.2,0.5,0.6,1.1-0.1,1.4c-0.8,0.3-0.8-0.5-1-1c-1.8-5.1-3.5-10.2-5.3-15.4c-0.2-0.5-0.2-1-0.6-1.3
		c0-0.2-0.1-0.4-0.1-0.6c0.1-0.2,0-0.3-0.2-0.4c0-0.2-0.1-0.4-0.1-0.5c0-0.2,0.1-0.3-0.2-0.3c-0.5-0.7-0.5-1.6-0.7-2.4
		c-1.6-5.2-3.2-10.4-4.9-15.5c-1.1-3.5-2-7.1-3.4-10.6c0-0.2-0.1-0.4-0.1-0.6c0.1-0.2,0-0.3-0.2-0.4c-2-7.2-4.2-14.3-6.5-21.4
		c-1-3.2-1.7-6.5-3.1-9.6c-0.1-0.2-0.1-0.5-0.1-0.7c0.1-0.3,0-0.5-0.2-0.6c0-0.1,0-0.2-0.1-0.3c-2.1-7.6-4.6-15-7-22.4
		c-0.1-0.2-0.1-0.6-0.5-0.6c-1-0.2-2.7,0.8-2.9,1.7c-1.8,7.1-3.8,14.1-6,21.1c-5.9,19.3-12.7,38.2-19.5,57.2
		c-1.6,4.5-3.2,9-4.8,13.5c-0.2,0.5-0.2,1.1-0.9,1.2c-0.9-0.5-0.4-1.1-0.2-1.7c3.6-10.2,7.2-20.3,10.8-30.5
		c7-19.9,13.8-39.9,19.2-60.3c0.3-1.1-0.1-2.4,0.8-3.4c0.5-0.5,0.8-0.8,1.2-0.1c0.5,0.8,1,0.3,1.5,0.1c0.8-0.3,0.2-0.8,0.2-1.2
		c0-0.7-1-1.7,0-2c1-0.3,0.9,1,1.1,1.6c0.3,1.2,0.9,1.2,1.8,0.8c0.4-0.2,1.1-0.7,1.4,0.1c0.2,0.7-0.5,0.9-1,1
		c-1.3,0.3-1.3,0.9-0.9,2c4.7,14.3,9,28.7,13.5,43.1c0.2,0.7,0.1,2,1.5,1.7c0.5-0.1,1.3,0.2,1.3-0.3c0.1-0.9-0.1-1.8-0.3-2.6
		c-0.1-0.3-0.6-0.1-0.9,0.1c-0.4,0.2-0.8,0.3-1-0.3c-0.2-0.5,0.1-0.9,0.6-0.9c1.7-0.2,1.6-1.4,1.5-2.6c0-2,0.3-3.9,0.6-5.8
		c0.1-0.5-0.1-1.2,0.7-1.1c0.8,0.1,0.6,0.8,0.5,1.3c-0.1,1.5-0.3,3-0.4,4.5c-0.2,4.6,0,9.1,2.2,13.3c0,0,0,0,0,0
		c0,0.3,0,0.6,0.3,0.8c0.5,1.5,1.4,2.8,2.7,3.7c2.6,2.2,6.8,1.1,7.8-2.1c1.4-4.7,1.3-9.4-0.3-14.1c0-0.2-0.1-0.4-0.1-0.6
		c0.1-0.3,0-0.5-0.2-0.6c-0.7-2.5-1.9-4.6-4-6.2c-1.9-1.4-3.6-1.4-5.4,0.1c-0.3,0.3-0.6,0.7-1.1,0.7c-1-0.4-0.4-0.9,0-1.3
		c1.6-2,3.7-2.3,6.8-1.2c0.1,0.3,0.3,0.5,0.7,0.4c0,0,0,0,0,0c1.5,1.8,2.9,3.8,3.9,6c0.6,1.9,1.3,3.8,1.7,5.8c0.1,0.5,0.2,1,0.3,1.9
		c0.2-0.9,0.2-1.5,0-2.1c-1.2-11.1-3.8-21.9-6.3-32.7c-1.4-6.2-2.7-12.4-3.8-18.7c0.1-0.4,0.1-0.8,0.2-1.1c0.5,0,1,0,1.2,0.6
		c0.6,3.8,1,7.6,2.1,11.3c0,0.2,0,0.5,0,0.7c1,4.3,1.9,8.6,2.9,12.9c1,4.5,2,9,3,13.4c0,0.2,0.1,0.4,0.1,0.5
		c0.8,3.6,1.3,7.3,1.9,10.9c0.8,4.6,1.1,9.3,1.9,13.9c0.5,3,0.8,6,1.8,8.8c0,0.3,0.1,0.6,0.1,0.9c0.1,0.7,0.1,1.5,0.5,2.2
		c0,0.2,0.1,0.4,0.1,0.6c-0.1,0.4-0.1,0.7,0.2,1c0.1,0.4,0.1,0.7,0.2,1.1c-0.1,0.2,0,0.3,0.1,0.4c1,5.5,2,11,2.9,16.6
		c0.5,3.1,0.8,6.2,1,9.3c0.1,1,0.3,1.2,1.3,1.2c2.1-0.1,3.2,1,3,2.7c0,0.3,0.1,0.9-0.5,1c-0.6,0-0.6-0.5-0.6-1
		c-0.1-1.4-0.7-1.9-2.1-1.6c-0.6,0.1-0.9,0.3-0.9,1.1c0,0.5,0.5,1.5-0.5,1.5c-0.9,0-0.5-0.9-0.6-1.4c0-0.1-0.2-0.2-0.3-0.3
		c-0.2,0-0.3,0.1-0.3,0.3c0,0,0,0,0,0c-2,1-3.6,2.3-4,4.6c-0.1,0.4-0.2,1-0.8,0.9c-0.7-0.2-0.4-0.7-0.3-1.2c0.5-2.6,2.2-4.3,4.4-5.5
		c0.9-0.4,1.1-0.9,1-1.8c-0.5-6.1-1.5-12.1-2.6-18.1c-1.7-9.1-3.7-18.1-5-27.2c-0.2-1.5-1.1-2.7-1.1-4.3c0,2.2-0.4,4.4-0.7,6.5
		c-0.9,2.4-1.7,4.7-4.2,5.8c-2.4,0.9-4.3-0.2-6.2-1.3c0,0,0,0,0,0C132.9,244.7,132.8,244.6,132.7,244.5z"/>
	<path class="st5" d="M91.1,90.8c1.8,0.5,3.1,1.9,4.7,2.7c0.1,0.2,0.3,0.4,0.4,0.6c0.7,1.2,0,1.9-0.8,2.6c-0.2,0.2-0.6,0.5-0.3,0.8
		c0.3,0.3,0.6,0,0.9-0.2c0.4-0.3,0.6-1,1.3-0.8c1.5,3.7,4.1,6.3,8.1,7c6.7,1.2,12.8-0.5,18.1-4.9c0.6,0.3,0.9,0.2,0.9-0.5
		c1.3-0.7,1.8-1.7,1.3-3.1c0.1-0.3,0.2-0.6,0.2-0.9c0.4-0.7,0.6-1.4,0.6-2.2l0,0c0.1-0.1,0.3-0.2,0.4-0.2c0.5,0,0.6,1.2,1.2,0.5
		c0.5-0.6-0.4-1-0.7-1.5c-0.1-0.2-0.3-0.4-0.5-0.6c0-0.2,0.1-0.5,0.1-0.7c1.9-3.3,4.4-6.1,7.4-8.5c1-0.8,1.9-1.4,3.3-1.2
		c-1,1-2.1,2-3.1,3c-0.4,0.3-0.8,0.6-0.7,1.2c0.4,1.9-0.6,3.6-0.9,5.3c-0.4,0.2-0.3,0.6-0.3,0.9c0.1,2.2,0.6,4.3,1.3,6.4
		c1.1,3.2,2.9,6,5.2,8.5c0.2,0.3,0.5,0.8,0.9,0.4c0.4-0.4,0-0.7-0.3-1c-0.4-0.6-0.9-1.1-1.3-1.6c1.6,0.4,2.6,1.6,3.6,2.8
		c-2.7,0.9-5.6,1.7-7.5,4.5c-0.2-0.8-0.3-1.4-0.4-1.9c0.5-0.7,0.7-1.5,0.5-2.4c-0.9-4-2.4-7.9-3.7-11.8c-0.1-0.3-0.2-0.8-0.6-0.7
		c-0.4,0-0.4,0.5-0.5,0.8c-1,4-1.5,8.1-0.7,12.2c0.5,2.6,1.6,3.4,4.3,2.9c1.1,1.6,0.1,2.9-0.6,4.3c-0.7-0.3-1-1.3-1.9-1.2
		c-0.2-0.1-0.3-0.2-0.5-0.2c-0.4-0.9-1.3-1.1-2.1-1.3c-6.1-1.9-12.3-3.5-18.7-4c-5.7-0.4-11.3-0.3-16.9,0.7c-2.2,0.4-4.3,1-6.5,1.5
		c-0.1-0.8,0.5-1.1,0.9-1.4c2.1-2.1,4.1-4.3,5.7-6.9c0.9-1.6,0.9-2.9-0.1-3.8c-1.1-0.9-2.7-0.6-3.9,0.5c-2.1,1.9-3.8,4.1-5.5,6.3
		c-0.8,1-1.8,1.9-1.9,3.3c-0.4,0.6-1.8,0.4-1.5,1.7c-0.2,1-0.8,1.8-1.5,2.4c-1.1-1.5-2.2-2.9-3.1-4.5c0-0.4,0-0.9-0.6-0.9l0,0
		c0.1-0.3,0-0.5-0.3-0.6l0,0c0-0.2,0-0.4-0.3-0.3l0,0c0-0.5,0-0.9-0.6-0.9c0,0,0,0,0,0c0.2-0.3,0-0.6-0.1-0.9c0.6,0,1.2-0.7,1.9-0.1
		c-0.2,0.3-1.2,0.4-0.7,1c0.4,0.5,0.8,0,1.2-0.2c4.4-2.4,8.3-5.3,11.8-8.8c0.4-0.4,1.1-0.7,0.6-1.5c0.4-1,0.8-2,1.2-3.1
		c1.7,1.3,3.3,2.5,5,3.7c0.4,0.3,0.9,0.8,1.3,0.2c0.3-0.5-0.4-0.7-0.7-1C93.6,92.8,92.1,92.1,91.1,90.8z"/>
	<path class="st6" d="M77.8,170c-0.2-0.5-0.3-1,0-1.4c0.4-0.7,0.3-1.5,0.4-2.3c0.6-0.4,1.1-0.9,1.9-0.9c0.3,0.5,0.6,0.7,0.8,0
		c0.2-0.9,0.9-1.2,1.6-1.5c1.6,0,3-0.6,4.5-0.9c2.6-0.6,5.4-0.7,7.9-1.8l0,0c0.2-0.1,0.4-0.1,0.6-0.2c2.9-0.2,5.8-0.3,8.6,0
		c5.4,0.6,10.6,2.3,15.7,3.9c3.8,1.2,7.5,2.5,11.3,3.8c0.4,0.1,1,0.6,1.3-0.1c0.2-0.6-0.6-0.6-0.9-0.7c-1.8-0.7-3.7-1.3-5.5-1.9
		c-7.5-2.7-15-5.3-23-6.1c3.1-0.7,6.1-0.1,9.1,0.6c3.4,0.8,6.5,2.4,9.9,3.3c4.4,1.3,9,1.7,13.3,3c0.1,2.4,0.2,4.8,0.4,7.1
		c0,0.8-0.2,1.1-1,0.9c-4.2-0.7-8.4-1.2-12.6-2c-4.4-0.8-8.8-1.8-13.3-2.2c-0.3-0.1-0.7-0.2-1-0.2c-4.1-0.6-8.1-1-12.2-1
		c-0.1-0.2-0.2-0.4-0.3-0.4c-3.7-0.6-7.4-0.5-11,0.2c-0.5,0-0.9,0-1.4,0c-0.7-0.7-1-0.3-1.3,0.4c-0.7-0.7-1.7-0.1-2.3-0.4
		c-1-0.5-1.1,0.1-1.1,0.8C78,170,77.9,170,77.8,170z"/>
	<path class="st4" d="M75.2,106.9c0.9,1.6,2,3,3.1,4.5c0.4,0.6,0.9,1.2,1.3,1.8c0.1,0.3,0.2,0.6-0.1,0.8c-0.3,0.2-0.5-0.1-0.7-0.3
		c-0.3-0.3-0.5-0.7-0.8-1c-2.6-3.8-5.1-7.5-7.7-11.3c-0.2-0.2-0.4-0.7-0.6-0.6c-1.8,0.6-0.6-0.6-0.7-1.1c-2.5-3.9-5-7.8-7.4-11.7
		c-4.6-7.4-9.1-14.9-13.6-22.4c0-0.1,0-0.2-0.1-0.3c-5-8.5-10.3-16.8-15.7-25c-0.2-0.2-0.3-0.5-0.7-0.4c-1.6-4.2-4.2-7.8-7.2-11.2
		c-1.6-1.9-3.6-3.4-5.5-5c-1.4-1.2-2-2.6-1.8-4.4c0.6-0.2,1,0.1,1.5,0.4c1.2,0.8,2.3,1.6,3.5,2.3c0.1,0,0.2,0.1,0.3,0.1
		c0-0.1-0.1-0.2-0.1-0.4c-1.1-2-2.2-3.9-3.4-5.9c-0.2-0.8-0.8-1.5-0.6-2.4c0.1-0.4,0.1-0.8,0.5-1c0.5-0.2,0.7,0.2,1,0.4
		c0.4,0.4,0.7,0.8,1.1,1.2c1.1,1.3,2.2,2.6,3.3,3.9c0.1,0.2-0.1,0.5,0.2,0.4c0.2-0.1,0.1-0.4-0.1-0.6c-0.6-1.3-1.1-2.5-1.7-3.8
		c-0.1-0.9-0.2-1.7-0.3-2.6c-0.2-1.4,0.4-1.5,1.5-0.9c1.3,1.5,1.8,3.4,3,5c-0.4-2-0.5-4.1-0.2-6.1c0.5-0.4,0.2-1.6,0.9-1.5
		c0.8,0.1,0.6,1.1,0.8,1.7c1.1,3.3,2.2,6.6,3.3,9.9c0.2,1.2,0.7,2.4,1.7,3.6c0.1-1.8,0.6-3.2,1.4-4.6c0.7-0.4,1.1-1.6,2-1.2
		c0.7,0.3,0.1,1.3,0.1,2.1c0.2,3.2,0,6.3,0.5,9.5c-0.1,2.2,0.3,4.1,2.2,5.7c1.5,1.3,3,2.8,4.3,4.4c0.9,1.1,1.6,2.3,2.9,3
		c1,0.1,0.5,1.1,0.9,1.6c1.8,2.3,3.4,4.8,5,7.2c0.3,0.5,0.6,1,1.1,0.1c0.1-0.2,0.4-0.3,0.6-0.2c0.4,0.2,0.2,0.5,0,0.8
		c-0.5,0.5-0.8,1.1,0,1.6c0.1,0.2,0.2,0.4,0.4,0.6c0.1,0.1,0.2,0.2,0.2,0.3c1.5,2.7,3.7,4.8,5.5,7.2c3.8,5.1,8.1,9.8,12.5,14.4
		c0,0,0,0,0,0c0,0.2,0.1,0.3,0.3,0.3c0,0,0,0,0,0c0,0.2,0.1,0.3,0.3,0.3c0,0,0,0,0,0c0,0.3,0.1,0.4,0.4,0.5c0,0,0,0,0,0
		c0.1,0.1,0.2,0.2,0.3,0.3c2.8,3.2,5.6,6.3,8.4,9.5c0.3,0.4,0.6,0.7,1,0c0.6-1.2,1.3-1.1,2-0.1c0.4,0.5,0.9,0.9,1.3,1.4
		c-0.3,0-0.7,0-1,0.1c-0.1,0-0.2-0.1-0.3-0.1c-0.4-0.6-0.8-0.9-1.5-0.5c-0.5,0.3-0.5,0.6,0,0.9c0.5,0.5,0.9,1,1.4,1.6
		c0.2,0.3,0.7,0.6,0.2,1c-0.4,0.3-0.6-0.1-0.8-0.4c-0.6-0.6-1-1.3-1.8-1.8c-0.7,1.8-2,3.1-3.2,4.4c-2.1,2.2-4.5,4.2-7,5.9
		c-2.4,1.3-2.4,1.3-1.3,2.8c0.4,0.6,0.7,1.2,1.1,1.8c0.2,0.3,0.3,0.7,0.7,0.9c0,0,0,0,0,0c0,0.4,0.2,0.7,0.6,0.9c0,0,0,0,0,0
		c0,0.2,0,0.4,0.3,0.3c0,0,0,0,0,0c-0.1,0.3,0,0.5,0.3,0.6c0,0,0,0,0,0C74.6,106.5,74.9,106.7,75.2,106.9z M70.8,98.9L70.8,98.9
		c4.7-2.5,8.3-6.3,11.5-10.4c0.4-0.5,0.3-0.8-0.1-1.2c-1.5-1.6-3-3.2-4.4-4.9c-5.8-6.7-12-12.9-17.4-20c-2.3-3-4.8-5.9-6.9-9.3
		c-0.7,1.3-1.1,2.5-1.4,3.7c-0.1,0.4,0,1.2-0.7,1.1c-0.7-0.1-0.2-0.9-0.2-1.3c0.2-1.2,0.6-2.4,1.2-3.5c0.2-0.4,0.5-0.8,0.1-1.4
		c-1.6-2.6-3.4-5.1-5.5-7.6c-0.3,1.2-0.6,2.3-0.9,3.3c-0.1,0.4-0.1,0.9-0.6,0.8c-0.6-0.1-0.3-0.6-0.2-1c0.2-1,0.5-2,0.7-3
		c0.1-0.5,0.3-1,0-1.4C45,41.5,44,40.1,42.6,39c-0.3,2.1-0.5,4-0.8,5.9c-0.1,0.4,0.1,1.2-0.6,1.2C40.5,46,41,45.3,41,44.9
		c0.2-1.5,0.3-3,0.6-4.4c0.4-1.7,0-3-1.3-4.2c-2-1.8-3.8-3.8-5.6-5.7c-0.3-0.3-0.7-0.6-0.2-1c0.4-0.3,0.6,0.1,0.9,0.3
		c0.4,0.3,0.6,0.9,1.4,1c-0.3-3.7-1-7.3-0.4-10.9c0-0.3,0-0.7-0.3-0.7c-0.2,0-0.5,0.3-0.7,0.5c-0.8,1.2-0.7,2.6-0.8,4
		c0,0.4,0.2,1-0.5,1.1c-0.5,0.1-0.6-0.4-0.8-0.8c-1.7-3.2-3.2-6.5-4.1-10c-0.4-1.4-0.8-2.7-1.7-4.3c-0.3,1.7-0.3,2.9,0.1,4.2
		c0.6,2.1,1.3,4.2,2,6.3c0.2,0.6,0.7,1.6,0,1.9c-0.8,0.3-0.9-0.9-1.2-1.4c-1.3-2.6-2.5-5.2-3.8-7.8c-0.1-0.3-0.2-0.8-0.7-0.5
		c-0.4,0.2-0.6,0.5-0.4,1.1c0.6,1.6,1.2,3.2,2,4.6c0.9,1.6,1.8,3.1,2.3,4.8c0.1,0.4,0.5,0.8,0,1.1c-0.6,0.3-0.7-0.3-1-0.6
		c-1.7-2.5-3.4-4.9-5-7.4c-0.5-0.7-0.9-1.4-1.7-1.9c-0.3,0.9,0.2,1.5,0.4,2.2c1.1,2.7,2.7,5.1,4.2,7.5c0.3,0.5,0.6,0.9,0.8,1.4
		c0.1,0.3,0.3,0.6-0.1,0.8c-0.2,0.1-0.5-0.1-0.6-0.2c-0.4-0.5-0.9-1-1.3-1.4c-1.5-1.4-3-2.9-5.1-3.9c0.5,2.3,1.9,3.5,3.4,4.6
		c3,2.2,5.3,5,7.3,8c1.5,2.2,2.4,4.8,4.2,6.9c0.6,1,1.2,2,1.9,3c8.7,13.4,16.7,27.2,25.1,40.9c3.1,5.1,6.2,10.2,9.6,15.1
		C70.1,99.7,70.5,99.2,70.8,98.9z"/>
	<path class="st4" d="M108.8,170.7c4.5,0.4,8.9,1.4,13.3,2.2c4.2,0.7,8.4,1.3,12.6,2c0.8,0.1,1-0.2,1-0.9c-0.1-2.4-0.2-4.8-0.4-7.1
		c-0.2-4.3-0.4-8.6-0.9-12.8c-0.2-2.3-0.4-4.6-0.6-6.9c0-0.4,0-0.8,0-1.2c0-0.3,0.2-0.7-0.3-0.8c-1,0-2,0-2.9,0
		c-3.8,0.1-7.5-0.2-11.3-0.5c-7.5-0.7-15-1.8-22.5-2.1c-3.8-0.2-7.6-0.1-11.4,0.3c-1.3,0.2-2.6,0.3-3.8,0.5
		c-0.5,0.1-1.2,0.6-1.3-0.2c-0.1-0.7,0.8-0.5,1.3-0.7c0.1-0.1,0.3,0,0.4-0.1c4-0.7,8.1-0.9,12.1-0.9c1.7,0.1,3.5,0.2,5.2,0.3
		c4.8,0.3,9.5,0.9,14.2,1.4c4.1,0.4,8.2,1,12.3,1c2.2,0.1,4.4,0.3,6.7,0.1c1.1-0.1,1.2-0.5,1.1-1.4c-0.2-1.9-0.4-3.7-0.6-5.6
		c-0.1-1-1.1-0.7-1.6-0.9c-2.8-1.3-5.5-2.7-8.5-3.2c-0.4-0.2-0.8-0.5-1.2-0.6c-4.9-1.4-9.8-2.2-14.8-2.4c-8.2-0.3-16.2,1-23.9,3.9
		c-0.3,0.1-0.8,0.6-1,0c-0.3-0.7,0.4-0.7,0.7-0.9c6.2-2.3,12.5-3.6,19.1-3.9c5.3-0.2,10.5,0.3,15.8,1.2l0,0c0.3,0.4,0.8,0.3,1.2,0.3
		c2.6,0.8,5.2,1.6,7.8,2.5c2.1,0.8,4.1,1.7,6.4,2.7c-0.3-2.4-0.7-4.7-0.8-6.9c-0.1-1.3-0.7-1.8-1.7-2.2c-7.1-3.3-14.6-5.1-22.4-5.7
		c-8.7-0.6-17.1,0.5-25.4,3.3c-0.6-0.7-0.6-0.7,0.4-1.1c4.2-1.5,8.6-2.3,13-3c0.6,0,1.2,0.1,1.8-0.2c0.4-0.1,0.8-0.1,1.2-0.2
		c0.8,0,1.7,0.1,2.5,0c6-0.2,11.8,0.4,17.6,1.8c3.7,0.9,7.2,2.3,10.7,3.6c0.5,0.4,1.1,0.6,1.9,0.8c-0.2-1.6-0.2-3.2-0.7-4.7
		c0-1.4-0.4-2.8-0.5-4.3c0-1.5-1-3.1-0.1-4.6c0.2,0.1,0.3,0.2,0.5,0.2c0.2,1.2,0.3,2.4,0.5,3.9c0.7-1,1.1-1.8,1.4-2.7
		c0.8-1.3,1.8-2.7,0.6-4.3c-0.8-2.7-1.5-5.3-1.6-8.1c0-0.4-0.2-1,0.4-1c0.5,0,0.4,0.6,0.4,1c0.3,2.4,0.5,4.8,1.5,7.1
		c0.1,0.5,0.2,1.1,0.4,1.9c1.9-2.8,4.7-3.6,7.5-4.5c1.2-0.4,2.4-0.8,3.6-1.3c0.3-0.1,0.7-0.3,0.3-0.6c-1-0.8-1.1-2.2-1.9-3.1
		c-1.7-2.5-3.5-5-4.7-7.9c-0.1-0.3-0.1-0.5-0.2-0.8c-0.2-0.3,0-0.7-0.4-0.9l0,0c-0.9-3.7-0.8-7.4,0.3-11.1l0,0c0.4,0,0.9,0,1,0.6
		c-0.2,0.6-0.5,1.2-0.4,1.9c-0.7,2.1-0.6,4.1,0,6.2c0.2,1.3,0.5,2.7,1.3,3.8l0,0c0.1,0.2,0.1,0.4,0.2,0.6c0.2,0.5,0.4,1.1,0.7,1.6
		c0.6,1,0.8,2.3,2,2.9c0,0.3,0.1,0.5,0.3,0.7c0.6,1.5,1.5,2.7,2.7,3.8c0,0,0.1,0.1,0.1,0.1c-0.1,0.3,0.1,0.4,0.3,0.5
		c0.6,0.8,1.2,1.6-0.3,2.1c-2.2,0.7-4.6,1.2-6.7,2.3c-0.5,0.2-0.9,0.5-1.4,0.7c-0.2,0-0.3,0.1-0.3,0.3l0,0c-1.3,0.5-2.2,1.4-3,2.5
		c-0.3,0.4-0.3,0.7,0,1c0.2,1,0.8,1.9,1.3,2.8c0.2,0.3,0.2,0.6-0.2,0.7c-0.3,0.1-0.4-0.1-0.5-0.3c-0.2-0.2-0.3-0.5-0.4-0.8
		c-0.3-0.5-0.3-1.4-1-1.4c-0.7,0-0.6,0.9-0.8,1.5c-0.1,0.2-0.1,0.4-0.2,0.5c-1.5,1.8-2.5,3.7-1.6,6.2c0.1,1.4,0.3,2.8,0.4,4.2
		c0.1,1,0.4,1.7,1.4,1.9c0.3,0.7,2,0.4,1.5,1.8c-0.4-0.1-0.8-0.2-1.1-0.3l0,0c0-0.2-0.1-0.3-0.3-0.3c-0.3-0.2-0.6-0.5-1.1-0.5
		c0.1,0.6,0.1,1.3,0.2,1.9c0.4,2.1,0.3,4.3,0.9,6.4c-0.1,1.1,0.1,2.3,0.2,3.4c0.9,9.2,1.7,18.5,2.2,27.7c-0.1,1.8,0.1,3.6,0.3,5.4
		c0,0.9-0.6,2,0.8,2.5c0.2,0.1,0.1,0.5,0,0.5c-1.3,0.3-0.7,1.3-0.8,2.1c-0.1,0.6-0.3,0.8-0.9,0.6c0-0.3-0.1-0.7,0-1
		c0.2-1.2-0.2-1.6-1.5-1.7c-1.8-0.1-3.5-0.4-5.3-0.6c-0.9-0.1-1.7-0.3-2.6-0.4c-0.4,0-0.8,0-1.2-0.1c-0.3-0.5-0.8-0.3-1.2-0.3
		c-0.2,0-0.4,0-0.6,0c-3.1-0.9-6.4-1.4-9.6-1.8c-0.2,0-0.4,0-0.6,0c-1.8-0.6-3.6-0.6-5.4-1C108.2,171.3,108.9,171.4,108.8,170.7z"/>
	<path class="st7" d="M127.1,89.6c0,0.2-0.1,0.5-0.1,0.7c-0.4-0.2-0.8-0.5-1.3-0.7c-0.3-0.1-0.7-0.3-0.9,0.1
		c-0.1,0.3,0.2,0.5,0.5,0.7c0.6,0.4,1.4,0.7,1.3,1.6c0,0,0,0,0,0c-0.4,0.7-0.6,1.4-0.6,2.2c-0.1,0.3-0.2,0.6-0.2,0.9
		c-0.5,0.8-1,1.6-1.4,2.4c-0.3-0.6-0.5-1.2-0.8-1.7c-0.2-0.4-0.4-1-1-0.6c-0.5,0.3,0,0.7,0.1,1c0.4,0.8,0.8,1.7,0.9,2.6
		c-5.3,4.5-11.3,6.1-18.1,4.9c-4-0.7-6.6-3.3-8.1-7c0,0,0.1-0.1,0.1-0.1c0.4,0,0.7,0.4,1,0.6c1.2,0.7,1.9,2.1,3.3,2.4
		c0.1,0.5-0.5,1.1,0.2,1.5c0.5,0.2,0.5-0.5,0.9-0.7c1.1,1.2,2.6,1.5,4.1,1.6c1.4,0.1,2.8-0.3,3.4-1.7c0.5-1.2,1.3-1.4,2.4-1.4
		c0.4,0.8,0.1,1.7,0.3,2.5c0.1,0.3,0.1,0.8,0.6,0.7c0.4-0.1,0.3-0.5,0.3-0.8c0-1-0.4-1.9-0.1-2.9l0.1,0l0.1,0c0.2,0,0.4,0,0.6,0
		c2.1,1.5,5.3,0.4,6.2-1.1c0.4-0.6,0.8-1.3,0.5-2.1c-0.4-1.1-0.3-2.1-0.4-3.2c-0.1-1.2-0.5-2.5-2-2.7c-0.5-0.7-0.6-1.6-0.9-2.3
		c-0.1-0.3-0.2-0.8-0.6-0.7c-0.6,0.1-0.3,0.6-0.2,1c0.1,0.6,0.3,1.1,0.4,1.7c-0.8,0-1.6,0.4-2.1,0.9c-1.9,1.8-4.1,2.2-6.6,1.5
		c-0.1-0.8,0-1.7,0.5-2.4c0.2-0.3,0.3-0.6-0.1-0.8c-0.3-0.2-0.5,0.1-0.7,0.3c-0.5,0.7-0.6,1.4-0.6,2.2c-2.9-0.3-5.1-1.8-7.1-3.8
		c0.3-0.4,1.3-0.5,0.9-1.1c-0.4-0.7-1,0.1-1.5,0.4c-0.3,0.2-0.6,0.5-0.9,0.7c-0.4-0.3-0.5-0.8-0.6-1.3c-0.2-1.4-0.4-2.8-0.6-4.2
		c0.3-0.5,1.3-1.2-0.3-1.2c0-0.4,0-0.8-0.2-1.2c-0.2-0.6-0.2-1.3-1-1.5c-1-0.2-1,0.7-1.4,1.2c-0.1-1.1,0.4-2.2,0.1-3.3
		c0.1,0,0.2-0.1,0.3-0.1c1,0.8,2.1,1.4,3.4,1.6c0.8,1.1,1.6,2.2,3,2.8c0.3,1.8,1.4,0.6,2.1,0.6c1.4,1.3,2.5,2.8,4.7,2.8
		c1.4,1,3,1.3,4.7,0.9c1.1-0.3,2.1-0.8,3.2-1.2c2.1,1.4,4.3,1.4,6.4,0c0.3,1,0.6,2,1,2.9c0.1,0.3,0.3,0.5,0.7,0.4
		c0.3-0.1,0.3-0.4,0.2-0.6c-0.4-1.3-0.6-2.6-1.4-3.7c0.6-0.6,1.3-1,2.2-1.3c0.1,0,0.1,0,0.1,0c0,0.1,0.1,0.2,0.1,0.3
		C126.8,83.8,127.2,86.7,127.1,89.6z"/>
	<path class="st8" d="M125.8,73.1c0,0.5,0.3,0.9,0.6,1.3c1.4,1.9,1.2,3.9-0.4,5.6c-0.6-1.5-0.5-3.7-3.1-3.3c0.4-0.7,0.8-1.3,1.2-2
		c0.1-0.2,0.3-0.5,0-0.6c-0.2-0.1-0.5,0-0.7,0.2c-0.2,0.3-0.4,0.7-0.6,1c-1.7,2.4-4,3.2-6.9,2.9c2.5-2.4,2.4-3.4-0.6-5.3
		c-1.1-0.7-2.1-1.4-2.7-2.5c-0.2-0.3-0.4-0.7-0.8-0.5c-0.4,0.2-0.1,0.6,0,0.9c0.7,1.5,1.9,2.3,3.3,3.1c0.7,0.3,1.5,0.6,1.3,1.7
		c-0.2,1-0.6,1.7-1.8,1.8c-3,0.2-6,0.8-8.9,1.6c-3.1,0.8-5.4-0.8-6-3.8c0.9-1.2,0.8-2.7-0.3-3.6c-0.2-0.4,0.1-1.1-0.5-1
		c-0.6,0-0.4,0.7-0.5,1.1c0,0.4,0,0.8,0,1.2c-0.4-0.8-0.4-1.8-1.3-2.4c0.1-1.8,0.3-3.7,0.4-5.5c0.1-1.1-0.8-2.6,0-3.3
		c0.8-0.7,2.3-0.7,3.5-1.1c0.6,0.1,1.2,0.3,1.8,0.3c4.7-0.1,9.3,0.5,14,0.6c1.7,0.1,3.4,0,4.9,1.4c0.6,0.5,0.5-0.3,0.4-0.7
		c0.2,0,0.5-0.1,0.7-0.1c0.2,0.2,0.4,0.4,0.6,0.7c-0.1,1.2-0.3,2.5-0.4,3.7c0,0.3,0.1,0.8-0.4,0.8c-0.4,0-0.8,0.1-1.1-0.3
		c-0.3-0.4-0.5-0.9-0.8-1.3c-1.5-2-4.5-2.5-6.2-0.9c-0.2,0.2-0.5,0.4-0.4,0.7c0.1,0.4,0.5,0.2,0.8,0.2c0.1,0.1,0.2,0.2,0.3,0.2
		c-0.4,1.5-1.6,1.8-3,1.8c-0.5,0-1.6-0.4-1.6,0.8c-0.1-0.1-0.3-0.2-0.3-0.2c-0.6-3-3.6-4.5-6.6-4.3c-0.4,0-1,0-0.8,0.5
		c0.4,1.3-1.1,1.6-1.1,2.7c-0.1,1.7-1.6,1.1-2.5,1.5c-0.6,0.2-1.7,0.1-1.5,0.8c0.2,0.8,1.1,0.1,1.6,0c0.8-0.1,1.8-0.7,2.1,0.9
		c0.5,2.3,2.4,3.6,4.7,3.4c2.4-0.2,3.8-1.4,4.2-3.9c0.1-0.5,0.1-1,0.2-1.4c0.4,0,0.9,0.1,1.3,0c1.4-0.2,2.5-0.2,3.1,1.6
		c0.6,1.8,3.1,2.8,4.7,2.4c1.5-0.4,2.1-1.3,2.2-3.6c0-0.3-0.2-0.6,0.3-0.7c0.2-0.1,0.5,0,0.7,0.2c0.3,0.3,0.2,0.6-0.1,0.9
		c-0.3,0.3-0.5,0.7-0.1,0.8c0.4,0.1,0.9,0.8,1.3,0.1c0.2-0.4,0.3-0.5,0.7-0.2c1.1,0.8,0.9,2.4-0.3,2.9c-0.3,0.1-0.6,0.1-0.5,0.5
		c0.1,0.4,0.5,0.4,0.7,0.3C125,73.5,125.4,73.2,125.8,73.1z M105.2,61.7c0-0.3-0.2-0.4-0.7-0.4c-1.6,0.3-3.1,1.1-4.3,2.2
		c-0.2,0.2-0.5,0.4-0.2,0.7c0.2,0.3,0.5,0.2,0.8-0.1c1.1-1,2.4-1.7,3.9-2.1C104.9,62,105.2,62,105.2,61.7z"/>
	<path class="st9" d="M101.7,99.4c-1.4-0.4-2.1-1.7-3.3-2.4c-0.3-0.2-0.6-0.5-1-0.6c-0.1-0.3,0.1-0.5,0.2-0.7
		c0.2-0.3,0.8-0.6,0.6-1.1c-0.3-0.7-0.8,0.1-1.1,0c-0.3-0.1-0.6-0.3-0.9-0.5c-0.1-0.2-0.3-0.4-0.4-0.6c-1.2-3.2-2.2-6.5-1.3-10
		c0.4-1.5,0.9-3,0.9-4.6c0.4-0.5,0.4-1.4,1.4-1.2c0.8,0.2,0.8,0.9,1,1.5c0.1,0.4,0.1,0.8,0.2,1.2c-0.8,0.7-1.6,1.4-2.4,2.2
		c-0.3,0.3-0.5,0.6-0.2,0.9c0.3,0.3,0.5,0,0.8-0.2c0.7-0.5,1.4-1.1,2.1-1.6c0.2,1.4,0.4,2.8,0.6,4.2c0.1,0.5,0.2,1,0.6,1.3
		c-0.4,0.6-0.8,1.1-1.1,1.7c-0.1,0.3-0.2,0.6,0.1,0.8c0.4,0.3,0.6-0.1,0.8-0.4c0.5-0.8,0.9-1.7,1.7-2.2c2,2,4.2,3.5,7.1,3.8
		c0.1,0.5,0.1,1.2,0.9,0.6c2.5,0.7,4.7,0.3,6.6-1.5c0.6-0.5,1.3-0.9,2.1-0.9c0.2,0.4,0.2,1.2,0.8,1.2c0.5,0,0.4-0.6,0.5-0.9
		c1.6,0.2,1.9,1.4,2,2.7c0.1,1.1,0,2.2,0.4,3.2c0.3,0.8-0.1,1.5-0.5,2.1c-0.9,1.5-4.1,2.6-6.2,1.1c0.2-1.5-0.5-2.8-0.9-4.1
		c-0.1-0.3-0.2-0.8-0.6-0.7c-0.6,0.1-0.4,0.6-0.3,1c0.2,0.9,0.7,1.6,0.5,2.6l0,0c-1.5,0-0.7,1.1-0.8,1.7c-1.1,0-1.9,0.2-2.4,1.4
		c-0.6,1.3-2,1.7-3.4,1.7c-1.5-0.1-3-0.4-4.1-1.6c0-1.3,0.7-2.5,0.9-3.7c0.1-0.3,0.4-0.7-0.1-0.9c-0.5-0.2-0.7,0.2-0.8,0.6
		C102.4,97.3,102.1,98.4,101.7,99.4z"/>
	<path class="st10" d="M44.4,315.1c-1.3-1-2.7-1.8-3.8-3.1c-1.1-1.3-2.1-2.8-2.3-4.5c1.2-1.1,2.6-2,4.1-2.6c0.6,0.2,1.2,0.5,1.6,1
		c0.8,0.8,1.5,1.6,2.2,2.4c0.6,0.7,1.1,0.9,1.9,0c0.8-1,1.9-1.7,2.9-2.6c1.2,0.2,2.2,0.7,3.2,1.2c0.3,0.2,0.7,0.3,0.9-0.1
		c0.2-0.4,0.1-0.8-0.4-1c-0.8-0.4-1.6-0.8-2.4-1.1c0.4-0.3,0.7-0.6,1.1-0.9c1.6,0.3,2.9,1.1,4.1,2.2c0.3,0.3,0.6,0.6,1,0.2
		c0.5-0.5,0.1-0.8-0.2-1.1c-0.9-0.9-2.1-1.6-3.3-2.2c0.9-0.6,1.7-1.1,2.6-1.7c0.9,0.3,1.5,0.8,2.2,1.4c0.4,0.3,0.8,0.9,1.2,0.3
		c0.4-0.5-0.1-0.9-0.5-1.2c-0.5-0.4-1.1-0.8-1.6-1.3c1.6-1.1,3.2-2.2,5-3.1c-0.2,0.5-0.4,0.9-0.5,1.4c-0.2,0.4-0.4,0.9,0.1,1.2
		c0.6,0.3,0.7-0.3,0.9-0.6c0.5-1.1,1-2.1,1.5-3.2c1.1-0.5,2.2-1,3.3-1.4c2.5-1.1,3.8-0.7,5.4,1.4c-0.9,1.5-1.8,3-2.7,4.6
		c-0.2,0.1-0.5,0.2-0.3,0.5l0.1,0c-0.3-0.4-0.5-0.1-0.8,0c-5.7,3-11.3,6.1-16.4,10.1c-1.1,0.9-2.1,1.8-2.8,3.1
		C49.4,314.8,46.9,315.2,44.4,315.1z"/>
	<path class="st4" d="M108.8,170.7c0.1,0.7-0.6,0.6-0.9,0.9c-0.4-0.1-0.8-0.2-1.2-0.3c-0.3-0.3-0.6-0.2-0.9-0.2
		c-1.9-0.1-3.8-0.3-5.7-0.4c-0.1,0-0.2,0-0.3,0c-3.7-0.3-7.3,0-10.9,0.2c-0.2,0.1-0.3,0.1-0.5,0.2c-0.5,0-0.9,0.1-1.4,0.1
		c-0.1,0.1-0.3,0.1-0.4,0.2c-0.5,0-0.9,0.1-1.4,0.1c-0.1,0.1-0.3,0.1-0.4,0.2c-1.8,0.1-3,0.9-3,2.9c-0.5,1.4-1.3,2.8-1.5,4.3
		c-0.6,3.7-1.2,7.4-1.9,11.1c-1,5.8-2.1,11.5-3.1,17.3c-0.8,4.6-1.7,9.2-2.5,13.9c3.3-0.1,6.4,0,9.6,0.3c0.8,0.1,1.6,0.1,2.4,0.2
		c0.5,0.1,1.3-0.1,1.1,0.8c-0.1,0.8-0.9,0.5-1.4,0.4c-3.4-0.3-6.8-0.3-10.2-0.5c-1.4-0.1-2,0.4-2.2,1.8c-0.4,2.8-0.5,2.8,2.4,2.7
		c1.9-0.1,3.8-0.3,5.7,0.3c0.4,0.1,1,0.2,0.8,0.8c-0.2,0.5-0.7,0.5-1.2,0.4c-2.5-0.6-5-0.1-7.4-0.2c-0.9,0-1,0.5-1.2,1.2
		c-1.7,8.9-3.4,17.8-5.1,26.6c-0.1,0.3-0.1,0.6-0.2,0.9c-0.7,3.1-1,6.3-2.5,9.2c-1.1,1.7-1.2,3.7-1.6,5.7c-0.7,2.9-1.3,5.9-1.8,8.9
		c-0.1,0.7-0.8,1.8,0.7,2.1c0.3,0,0.3,0.4,0.2,0.8c-0.2,0.7-0.8,0.6-1.3,0.8c-1.3-0.6-1.3-1.6-1.1-2.8c1.4-7.4,2.8-14.7,4.7-22
		c1.4-5.3,3-10.6,3.9-16.1c0.7-4.8,1.9-9.5,2.8-14.3c0.2-1.2,0.1-2.3,0.7-3.5c0.6-1.2,0.1-3,0.5-3.9c0.7-1.5,0.9-3.1,1.2-4.6
		c2.4-13,4.7-26,7-39.1c0.2-1.4,0.2-2.7,0.9-4c0.3-0.5-0.2-0.9-1.2-0.9c-1.3,0-1.3-0.1-0.9-1.3c2,0.9,3.2,0.1,3.3-2.3
		c0.3-0.6,0.6-1.1,1.3-0.4c-0.4,0.6-0.1,1.2-0.2,1.8c0,0.1,0,0.1,0,0.2c0.1,0,0.2-0.1,0.4-0.1c0.9-0.4,1.9-0.8,2.9-0.7
		c0.1-0.1,0.3-0.1,0.4-0.2c0.4-0.2,0.9,0.1,1.2-0.4c0.9-0.1,1.8-0.1,2.7-0.2c0.1,0.1,0.2,0.1,0.3,0c1.7-0.1,3.4-0.1,5.1-0.2
		c4.1,0,8.2,0.4,12.2,1C108.1,170.5,108.5,170.6,108.8,170.7z"/>
	<path class="st10" d="M180.2,306.9c-0.3,1.6-1.4,2.5-3,2.7c-4.6,0.5-9.1,1.3-13.3,3.5c-0.4,0.2-0.9,0.5-1.3,0.7
		c-3.2-0.1-6.3-0.5-9.4-1.3c-2-2.8-4.3-5.4-6.6-8c-0.1-1.1-0.2-2.1-0.4-3.2c0.2-0.4,0.5-0.8,0.7-1.2c0.6,0.1,1-0.1,1.1-0.7
		c1.3-0.5,2.5-0.1,3.4,0.8c1.1,1,2.1,2.1,3.2,3.1c0,0.5,0.2,0.8,0.8,0.8c0.1,0.5,0.5,0.9,0.8,1.3c0.8,0.9,1.3,2.6,2.3,2.7
		c1.1,0.1,2.3-1,3.4-1.6c0.5,0.4,0.9,0.3,1.3-0.1c0.6-0.6,1.4-1.1,2.2-1.5c0.3,0,0.6,0.1,0.6-0.3l0,0c1.7-0.2,3.3-0.6,4.9-1.2l0.1,0
		c1.4-0.1,2.9-0.2,4.3-0.3C177.2,304.1,178.7,305.4,180.2,306.9z"/>
	<path class="st5" d="M131,121.3c0.4,1.5,0.5,3.1,0.7,4.7c-0.8-0.2-1.3-0.5-1.9-0.8c-0.3-1.1-1.1-1.6-1.9-2.1
		c-4.4-3-9.5-3.6-14.6-4.1c-3.7-0.4-7.4-0.6-11.1,0c-1.1,0.2-2.4-0.2-3.3,0.8c-0.4,0.1-0.8,0.1-1.2,0.2c-0.7-0.6-1.2,0-1.8,0.2
		c-4.4,0.8-8.8,1.5-13,3c-1,0.4-1,0.4-0.4,1.1c-1,1-2.3,1.4-3.6,1.9c0-0.7,0-1.4,0.1-2.1c0.1-1.2,0.2-2.4,0.2-3.6
		c0-0.3,0.2-0.9-0.4-0.9c-0.5,0-0.4,0.6-0.5,0.9c0,0.1,0,0.3,0,0.4c-0.3,4.1-0.6,8.1-0.6,12.2c-0.1-0.7-0.2-1.3-0.6-1.9
		c-0.6-0.8-0.6-1.8-0.2-2.7c0.6-1.1,0.6-2.2,0.6-3.3c0-4.2-0.2-8.4,0.6-12.5c0.3,0.3,0.5,0.7,0.8,1c0.2,0.2,0.4,0.5,0.7,0.3
		c0.3-0.2,0.2-0.5,0.1-0.8c0.1,0.1,0.3,0.2,0.3,0.3c0.7,2.3,0.8,2.3,3.2,2.4c3.4,0.2,6.6-0.4,10-0.7c4.4-0.4,8.7-0.2,13,0.2
		c6.6,0.7,13.1,2.3,19.1,5.4C126.9,121.8,128.9,122.3,131,121.3z"/>
	<path class="st3" d="M81,267.9c6.8-19,13.6-37.9,19.5-57.2c2.1-7,4.2-14,6-21.1c0.2-0.9,1.9-1.9,2.9-1.7c0.4,0.1,0.4,0.4,0.5,0.6
		c2.4,7.5,4.9,14.9,7,22.4c-0.7-0.3-0.7-1.1-1-1.7c-2.6-5.9-5.6-11.6-7.7-17.7c-0.1-0.3-0.2-0.7-0.4-1.3c-0.6,2.1-1.1,3.9-1.6,5.7
		c-3.6,14.3-7.7,28.4-12.4,42.4c-2.2,6.4-4,12.9-6,19.4c-0.5,1.8-0.7,3.8-1.4,5.6c-0.5,1.2-1.1,2.2-1.9,3.2
		C83.6,267.9,82.3,267.9,81,267.9z"/>
	<path class="st7" d="M128.1,45.6c2.6,1,2.7,2,0.5,4.5c-0.2,0.1-0.5,0.1-0.7,0.2c-1.6,1-3.1,2-4.7,2.9c-1.5,0.8-1.6,0.9-0.7,2.3
		c0.5,0.8,1.3,1.5,1.4,2.6c-0.8-0.2-1.6-0.3-2.5-0.5c-1.2-1.4-2.7-1.6-4.5-1.4c-1.8,0.2-3.6,0.3-5.5,0.5c1.1-0.8,2.1-1.4,3.2-2
		c0.3-0.2,0.9-0.4,0.6-0.8c-0.2-0.4-0.7-0.1-1.1,0.1c-1.2,0.6-2.2,1.3-3.5,1.6c-3.1-0.8-6,0.3-8.8,1.2c-1.4-0.9-1.6,0.6-2.3,1.1
		c-0.6,0.7-1.2,1.3-1.2,2.3c-0.2,0-0.5,0.1-0.7,0.1c-1.4,0.1-1.7-1-2.3-2c-0.6-1,0.3-1.3,0.7-1.8c4.9-4.8,11-7.2,17.6-8.2
		C118.5,47.6,123.5,47.6,128.1,45.6z"/>
	<path class="st4" d="M144.1,98.6c-0.3-0.2-0.3-0.4-0.3-0.7c2.7-2.4,5.4-4.6,8-7.2c8.8-8.8,16.1-18.9,24.1-28.4
		c0.3-0.4,0.7-0.8,1-1.2c0.1-0.1,0.1-0.1,0.2-0.2c0.2-0.2,0.5-0.3,0.4-0.7l0,0c0.3,0.1,0.3-0.1,0.3-0.3l0,0c0.2,0,0.4-0.1,0.3-0.3
		l0,0c0.3,0,0.3-0.1,0.3-0.3l0,0c0.2,0,0.3-0.1,0.3-0.3l-0.1,0c0.1-0.1,0.3-0.2,0.4-0.3c4.7-5,9.4-10,14-15c1.4-1.6,3.2-2.9,4.3-4.8
		c-0.6-0.7,0-1,0.4-1.4c2.6-2.7,5.5-5,8.7-6.9c2.5-1.5,5.3-2.3,7.8-3.6c1.1-0.3,1.9-0.9,2.2-2.2c-0.9,0.2-1.8,0.2-2.6,0.7
		c-0.2,0.1-0.5,0.1-0.7,0.2c-1.4,0.7-2.9,1.4-4.3,2.1c-0.3,0.2-0.7,0.4-0.9,0.1c-0.2-0.3,0.1-0.6,0.4-0.9c0.3-0.2,0.6-0.5,0.9-0.8
		c2.1-1.8,4.4-3.5,6.2-5.6c0.4-0.5,1-1.1,0.5-1.7c-0.5-0.6-1.1,0.1-1.6,0.4c-2.4,1.5-4.5,3.4-6.6,5.3c-0.3,0.3-0.7,1.2-1.3,0.6
		c-0.5-0.5,0.2-1,0.5-1.4c1.2-1.8,2.8-3.2,4.4-4.7c1.1-1.1,2.4-2.1,3-3.7c-1.3,0-2,0.6-2.8,1.4c-1.8,1.9-3.6,3.7-5.4,5.6
		c-0.3,0.3-0.5,0.7-1,0.3c-0.4-0.3,0-0.6,0.1-0.9c0.9-1.7,2.1-3.2,3.3-4.8c1.3-1.7,2.5-3.6,3-5.8c0.5,0.5,0.2,1,0.1,1.5
		c-0.3,1.3-1,2.3-1.4,3.5c-0.1,0.2-0.3,0.3-0.4,0.5c0,0.1-0.1,0.3-0.1,0.3c0.2,0.1,0.2,0,0.3-0.2c0.1-0.1,0.3-0.3,0.4-0.4
		c1-1,2-1.9,3.1-2.9c0.7-0.3,1.4-1.1,2-0.5c0.6,0.6-0.3,1.5-0.3,2.2c-1,1.7-2.2,3.3-3.6,4.7c-0.1,0.2-0.3,0.3-0.4,0.5
		c-0.1,0-0.3,0.1-0.2,0.3c0,0,0.2,0,0.4-0.1c0.2-0.1,0.3-0.3,0.5-0.4c1.6-1,3.2-2,4.8-3c0.1-0.1,0.3-0.1,0.4-0.2
		c0.6-0.2,1.1-1.1,1.7-0.4c0.5,0.6,0.2,1.4-0.2,2c-0.8,1.3-2,2.1-3,3.1c-0.9,0.9-1.9,1.7-3,2.8c1.6,0.4,2.8-0.4,4-0.6
		c0.6-0.1,1.2-0.6,1.6,0.1c0.3,0.6-0.3,1-0.6,1.4c-1,1.3-2.5,2-3.8,2.8c-1.3,0.2-2.4,1-3.6,1.5c-2.2,0.9-4.3,2.2-6.2,3.7
		c-1.7,1.4-4.1,2.3-4.6,5c-0.2,0.8-1.3,1.5-2,2.2c-7.5,7.8-15,15.7-22,24c-2.9,3.4-5.7,6.9-8.3,10.5c0,0,0,0,0,0
		c-0.2,0-0.3,0.1-0.3,0.3c0,0,0,0,0,0c-0.2,0-0.3,0.1-0.3,0.3c0,0,0,0,0,0c-0.2,0-0.3,0.1-0.3,0.3c0,0,0,0,0,0
		c-0.1,0.1-0.2,0.2-0.3,0.3c-2.9,3.5-5.9,7-8.8,10.4c-0.2,0-0.2,0.1-0.2,0.2c0,0-0.1,0.1-0.1,0.1c-0.2,0-0.2,0-0.2,0.2
		c0,0-0.1,0.1-0.1,0.1c-0.2,0-0.2,0-0.2,0.2c0,0-0.1,0.1-0.1,0.1c-0.2,0-0.2,0.1-0.2,0.2c0,0-0.1,0.1-0.1,0.1c-0.2,0-0.2,0-0.2,0.2
		c0,0-0.1,0.1-0.1,0.1c-0.2,0-0.2,0-0.2,0.2c-0.1,0.1-0.3,0.3-0.4,0.4c-0.3,0-0.3,0.2-0.3,0.4c-0.1,0-0.1,0.1-0.1,0.2
		c-1.3,1.1-2.5,2.3-3.6,3.6c0,0-0.1,0.1-0.1,0.1c-0.3,0.1-0.4,0.2-0.5,0.5c0,0-0.1,0.1-0.1,0.1c-0.2,0-0.2,0-0.2,0.2
		c0,0-0.1,0.1-0.1,0.1c-0.2,0-0.2,0-0.2,0.2c0,0-0.1,0.1-0.1,0.1c-0.1,0-0.2,0-0.2,0.2c-0.1,0-0.1,0-0.1,0.1c-0.1,0-0.2,0-0.2,0.2
		c-0.1,0-0.1,0-0.1,0.1c-0.1,0-0.2,0-0.2,0.2c-0.1,0-0.1,0-0.1,0.1c-0.2,0-0.4,0.1-0.4,0.3c0,0-0.1,0.1-0.1,0.1
		c-0.2,0-0.2,0-0.2,0.2c0,0-0.1,0.1-0.1,0.1C146.5,96.8,145.3,97.7,144.1,98.6z"/>
	<path class="st4" d="M134,84.2c-0.2-0.6,0.3-0.9,0.7-1.2c1.1-1,2.1-2,3.1-3c2.2-2.2,4.5-4.4,6.7-6.6c6.5-6.6,13.9-11.9,21.3-17.4
		c3-2.3,6-4.7,8.9-7c0.9-0.7,1.6-1.6,1.9-2.8c0.1-0.4,0.1-0.9,0.6-0.9c0.6,0.1,0.1,0.7,0.4,1.1c2.1-1.8,4.4-3.5,5.4-6.4
		c0.1-0.2,0.2-0.5,0.4-0.7c0.3-0.4,0.3-1.2,0.9-0.9c0.7,0.3-0.1,0.8-0.1,1.3c-0.1,0.2-0.3,0.3,0,0.4c0,0,0.2-0.2,0.3-0.3
		c1.4-1.4,3-2.6,3.4-4.7c0.2-1.1,1.6-1.1,2.3-1.9c3.1-3.6,6.3-7.1,7.1-12.1c0.3-2,1.9-3.7,2.3-5.8c0.1-0.7,0.7-0.2,1,0.2
		c0.6,1,1,2.1,1.1,3.2c-0.1,0.9-0.2,1.8-0.4,3.1c0.8-0.9,1.4-1.5,1.9-2c1.9-2.1,3.6-4.3,5-6.8c0.8-1.5,2.3-2.5,3.2-4
		c0.6-0.9,0.6,0.1,0.8,0.5c0.1,0.8-0.7,0.8-0.9,1.3c-1.1,1.4-2.1,2.9-3.2,4.3c-2.1,2.8-4.5,5.5-7,8c-0.3,0.3-0.6,0.8-1.1,0.6
		c-0.6-0.3,0-0.8,0-1.2c0.2-1.1,0.6-2.2,0.7-3.3c0.1-0.5,0.6-1.3-0.4-1.5c-0.9-0.2-0.8,0.6-1,1.1c-1.7,4.5-2.8,9.3-6.5,13
		c-2.1,2.1-4.8,4.1-4.9,7.6c0,0.2-0.2,0.5-0.5,0.5c-0.3,0-0.4-0.3-0.4-0.5c0-0.2,0.2-0.6-0.2-0.8c-1.7,2.3-4.6,3.7-5.1,6.8
		c-0.1,0.3-0.2,0.6-0.6,0.5c-0.7-0.2,0-0.8-0.4-1.2c-1.9,1.8-4.7,3.1-4.1,6.5c0,0,0,0.1,0,0.1c-0.1,0.3-0.2,0.6-0.6,0.5
		c-0.3-0.1-0.3-0.4-0.3-0.6c0-0.6,0-1.3,0-2.1c-1.9,1.5-3.5,2.9-5.3,4.2c-7.1,5.6-14.7,10.7-21.3,16.9c-3.4,3.2-6.8,6.4-10,9.9l0,0
		c-1.2,0.7-2.1,1.7-3,2.7C135.3,83.3,135,84.3,134,84.2z"/>
	<path class="st8" d="M166.9,75.2c2.6-3.7,5.4-7.1,8.3-10.5c7-8.3,14.5-16.2,22-24c0.7-0.7,1.8-1.4,2-2.2c0.5-2.7,2.9-3.6,4.6-5
		c1.9-1.5,3.9-2.8,6.2-3.7c1.2-0.5,2.3-1.3,3.6-1.5c-0.1,1-1,1.3-1.7,1.8c-3.1,2.2-6.2,4.2-9.3,6.4c-1.1,0.7-2,1.6-2.8,2.7
		c-0.5,0.7-0.9,1.3-0.7,2.3c0.2,1.4-0.8,2.4-1.7,3.3c-3,3-6,6-9,9c-4.1,4.3-7.7,9-11.8,13.3c-2.7,2.8-5.7,5.4-8.8,7.8
		C167.6,75.1,167.3,75.3,166.9,75.2z"/>
	<path class="st4" d="M153.1,312.5c3.1,0.8,6.3,1.1,9.4,1.3c2.2,0.2,4.3,0.3,6.5,0.1c0.7-0.1,1.9-0.5,2.1,1c0.1,0.6,0.5,0.3,0.8,0.4
		c3.8,0.5,7.5,0.3,11.3,0.1c0.6,0,1.7-0.5,1.8,0.3c0.1,1.1-1.1,0.7-1.7,0.8c-4.6,0.4-9.3,0.7-13.6-0.4c-3.2-0.8-6.3-0.5-9.4-1.1
		c-2-0.3-4-0.6-6-0.9c-2.6-0.6-5.3-0.9-7.9-1.3c-1.1-0.1-1.5,0.3-1.5,1.3c-0.1,1.1,0.5,1.6,1.4,1.9c1.1,0.4,2.2,0.4,3.4,0.4
		c2.4,0,4.8-0.3,7.2,0.2c0.1,0,0.3,0,0.4,0c5.9,0.6,11.9,1.3,17.8,1.9c0.5,0.1,1.1,0,1.1,0.7c0,0.8-0.8,0.5-1.2,0.4
		c-4.3-0.5-8.5-1-12.8-1.5c-4.4-0.5-8.7-0.8-13.1-0.5c-0.7,0-1.5,0.1-2.2,0c-2.5-0.3-4.2-2.3-2.9-4.6c-0.1-0.1-0.1-0.1-0.2-0.2
		c-0.5-0.3-1.6,0.5-1.6-0.5c0-0.9,1.1-0.6,1.7-0.7C147,311.4,150.1,312.2,153.1,312.5z"/>
	<path class="st4" d="M128.1,45.6c-4.6,2-9.6,2-14.5,2.7c-6.6,1-12.7,3.4-17.6,8.2c-0.5,0.5-1.4,0.7-0.7,1.8c0.6,0.9,0.9,2.1,2.3,2
		c0.2,0,0.5-0.1,0.7-0.1c1.2-0.2,2.3-0.4,3.4-1c0.8-0.3,1.6-0.6,2.3-0.9c2.3-0.7,4.6-1.6,6.7-2.7c1.3-0.3,2.3-1.1,3.5-1.6
		c0.4-0.2,0.8-0.5,1.1-0.1c0.3,0.5-0.3,0.7-0.6,0.8c-1.1,0.6-2.2,1.2-3.2,2c1.8-0.1,3.7-0.2,5.5-0.5c1.7-0.2,3.3,0,4.5,1.4
		c0.4,0.7,0.8,1.4,1.2,2c0.3,0.4,0.6,0.9-0.1,1.3c-0.5-0.3-0.7-0.8-1-1.3c-1-2-2.8-2.5-4.9-2.4c-0.8,0-1.6,0.2-2.4,0.2
		c-4.6,0.2-9,1.1-13.2,3.2c-1.2,0.3-2.7,0.3-3.5,1.1c-0.8,0.7,0.1,2.2,0,3.3c-0.2,1.8-0.3,3.7-0.4,5.5c-0.2,0.3-0.1,0.9-0.7,0.9
		c-0.5-0.4-0.2-0.9-0.2-1.4c0.2-2,0.6-4.1,0.4-6.1c0.1-1.3-0.4-2.1-1.8-2.4c-1.8-0.4-2.3-1.6-1.3-3.2c1.3-2.2,3.2-3.8,5.3-5.2
		c5.3-3.5,11.2-5.3,17.6-6c4.3-0.5,8.7-0.9,12.7-2.9c0.3-0.2,0.8-0.6,1-0.1c0.3,0.6-0.4,0.6-0.7,0.9
		C129.1,45.1,128.5,45.4,128.1,45.6z"/>
	<path class="st4" d="M72,300.6c0.9-1.5,1.8-3,2.7-4.6c0.4-0.3,0.7-1.1,1.3-0.6c0.6,0.5-0.1,1-0.3,1.4c-2.7,4-4.6,8.4-4.9,13.3
		c-0.1,2.1-1.2,2.7-2.5,3.5c-5.3,3.2-11.1,4.8-17.1,5.7c-5.7,0.9-11.5,1.5-17.3,1.3c-1.2,0-2.5,0-3.1-1.3c-0.6-1.3,0-2.4,0.8-3.4
		c0.5-0.6,1-1.2,1.5-1.8c0.3-0.3,0.6-0.5,0.9-0.3c0.4,0.3,0.2,0.7,0,1c-0.5,0.6-1.1,1.2-1.5,1.9c-1.1,1.5-0.4,2.8,1.4,3
		c2.2,0.2,4.5-0.2,6.7-0.4c6.7-0.6,13.5-1.3,19.9-3.5c2.7-0.9,5.3-2.2,7.8-3.7c0.5-0.3,1-0.5,1-1.2c0.2-3.4,1.3-6.6,2.4-9.8
		c0,0-0.1,0-0.1,0C72,301.1,72,300.9,72,300.6z"/>
	<path class="st11" d="M122.8,76.7c2.6-0.4,2.5,1.8,3.1,3.3c0,0.2,0,0.4,0,0.5c-0.8,0.3-1.5,0.7-2.2,1.3c-0.9,0-0.4,0.7-0.5,1.1
		c-2.2,1.4-4.3,1.3-6.4,0c0.1-0.1,0.2-0.2,0.3-0.3c0.3-0.2,0.9-0.4,0.6-0.8c-0.3-0.6-0.8-0.1-1.1,0.1c-0.9,0.5-1.7,1-2.7,1.2
		c-1.2-1-2.4-1.4-3.8-0.4c-1.3-0.5-1.3-0.5-1.2,0.4c-2.1,0-3.3-1.5-4.7-2.8c0.3-0.1,0.5-0.2,0.8-0.3c0.3-0.1,0.7-0.2,1-0.2
		c3.4-0.8,6.9-1.8,10.5-0.7c2.4,1.3,2.5,1.2,3.3-0.3l0,0c0.3,0.1,0.5,0,0.6-0.3C121.6,78.4,121.9,77.2,122.8,76.7z"/>
	<path class="st12" d="M48,65.6c4.5,7.5,9.1,14.9,13.6,22.4c2.4,3.9,4.9,7.8,7.4,11.7c-1.2-0.1-2-0.9-2.7-1.7
		c-4.7-5.8-8.9-11.8-11.9-18.7c-1.7-3.8-3.5-7.5-5.9-10.9c-0.6-0.8-0.9-1.8-1-2.8C47.8,65.6,47.9,65.6,48,65.6z"/>
	<path class="st4" d="M123.8,58c-0.1-1.1-0.9-1.8-1.4-2.6c-0.9-1.4-0.8-1.5,0.7-2.3c1.6-0.9,3.1-1.9,4.7-2.9
		c0.2-0.1,0.5-0.1,0.7-0.2c0.4,0.6-0.1,0.8-0.5,1.1c-0.9,0.6-1.8,1.2-2.6,1.8c-0.2,0-0.4,0.1-0.4,0.3c0,0,0,0,0,0
		c-2.1,0.9-2.1,0.9-0.7,2.7c0.7,0.9,0.9,2,1,3.1c0.1,0.9,0.2,1.8,0.3,2.7c0,0.1,0,0.2,0,0.3c-0.8,0.3-1.1,0.9-1.3,1.8
		c-0.2,1.1-0.2,2.3-0.3,3.4c-0.1,1.1,0.3,1.8,1.4,2c1,1.2,1.1,2.5,0.5,3.9c-0.4,0.2-0.8,0.4-1.2,0.5c-0.3,0.1-0.6,0-0.7-0.3
		c-0.1-0.4,0.2-0.4,0.5-0.5c1.2-0.5,1.4-2.1,0.3-2.9c-0.4-0.3-0.5-0.2-0.7,0.2c-0.3,0.7-0.9,0-1.3-0.1c-0.4-0.1-0.2-0.6,0.1-0.8
		c0.3-0.3,0.4-0.6,0.1-0.9c-0.2-0.2-0.4-0.3-0.7-0.2c-0.4,0.1-0.2,0.5-0.3,0.7c-0.2,2.3-0.8,3.2-2.2,3.6c-1.6,0.4-4.1-0.6-4.7-2.4
		c-0.6-1.8-1.7-1.8-3.1-1.6c-0.4,0-0.9,0-1.3,0l0,0c0-1.3,1.1-0.8,1.6-0.8c1.4,0,2.6-0.2,3-1.8c0.1-0.1,0.3-0.3,0-0.4
		c0,0-0.2,0.1-0.3,0.2c-0.3,0-0.6,0.2-0.8-0.2c-0.1-0.3,0.2-0.5,0.4-0.7c1.7-1.5,4.7-1.1,6.2,0.9c0.3,0.4,0.5,0.8,0.8,1.3
		c0.3,0.4,0.7,0.3,1.1,0.3c0.5,0,0.4-0.4,0.4-0.8c0.1-1.2,0.3-2.5,0.4-3.7c0.9-1.3,1.3-2.7,0.6-4.2C124,58.2,124,58.1,123.8,58
		L123.8,58z M121.1,69.4c0-2.6-1.5-4.6-3.3-4.9c-0.4-0.1-1.1-0.1-1.1,0.2c0.2,1.1-0.9,1.5-1.2,2.4c-0.3,1.2-0.2,2.3,0.7,3.1
		c1,1,2.2,1.6,3.6,1C120.9,70.8,121.1,69.9,121.1,69.4z"/>
	<path class="st3" d="M148.9,251.1c-1-2.9-1.2-5.9-1.8-8.8c-0.8-4.6-1.1-9.3-1.9-13.9c-0.6-3.6-1.2-7.3-1.9-10.9
		c2.6,2.4,3.6,5.6,4.1,9c0.4,2.4,0.3,4.9,0.3,7.3c0,5.5,0.5,10.9,1.4,16.3C149.2,250.4,149.3,250.8,148.9,251.1z"/>
	<path class="st4" d="M180.2,306.9c-1.4-1.5-3-2.8-4.8-3.8c-2.6-2.2-5.8-2.4-8.9-2.2c-3.9,0.2-7.6,1.5-11.1,3.2
		c-0.6,0-0.8-0.2-0.8-0.8c4.2-2.5,8.8-3.6,13.7-3.8c4.4-0.2,7.9,1.9,11.1,4.7c2.7,2.4,4.9,5.2,6.6,8.5c0.2,0.4,0.4,0.7,0.5,1.1
		c0.1,0.3,0.1,0.6-0.2,0.8c-0.4,0.3-0.6-0.1-0.8-0.4c-0.7-1.2-1.3-2.4-2-3.5C182.4,309.4,181.4,308,180.2,306.9z"/>
	<path class="st4" d="M77.6,133.2c0-4.1,0.4-8.2,0.6-12.2c0-0.1,0-0.3,0-0.4c0.1-0.4-0.1-0.9,0.5-0.9c0.6,0,0.4,0.6,0.4,0.9
		c0,1.2-0.1,2.4-0.2,3.6c0,0.7,0,1.4-0.1,2.1c-0.1,2.1-0.2,4.2-0.3,6.3c0,5-0.1,10.1-0.1,15.1c-0.1,6.2,0.4,12.5-0.2,18.7
		c-0.1,0.8,0,1.6-0.4,2.3c-0.4-1.4-0.2-2.8-0.2-4.1C77.6,154,77.6,143.6,77.6,133.2z"/>
	<path class="st3" d="M143.2,216.9c-1-4.5-2-9-3-13.4c-1-4.3-1.9-8.6-2.9-12.9c-0.1-0.2,0-0.5,0-0.7c1.7,1.6,2.3,3.8,2.5,5.9
		c0.4,5.3,2.6,10,4.8,14.6c1.3,2.7,1.1,3.6-1.1,5.7C143.3,216.4,143.3,216.7,143.2,216.9z"/>
	<path class="st5" d="M129,175.2c1.8,0.2,3.5,0.5,5.3,0.6c1.3,0,1.6,0.5,1.5,1.7c-0.1,0.3,0,0.7,0,1c-0.2,0-0.4,0.1-0.6,0.1
		c-0.2-0.6-0.7-0.6-1.2-0.6c-0.3,0.1-0.7,0.3-1,0.2c-1.3-0.3-2.5-1.1-3.8,0c-0.2,0.1-0.7,0-1-0.1c-2.5-0.8-5.1-1.6-7.6-2.5
		c-2-0.6-4-1-5.8-2.2c1.3,0.2,2.5,0.4,3.8,0.5c1.6,0.1,3.2,1.1,4.9,0.4c0.2,0,0.4,0,0.6,0c0.3,0.7,0.7,0.7,1.2,0.3
		c0.4,0,0.8,0,1.2,0.1C127.1,175.7,128.1,175.1,129,175.2z"/>
	<path class="st4" d="M44.4,315.1c2.5,0.1,4.9-0.3,7.4-0.8c4-0.5,7.8-1.6,11.7-2.3c0.2,0,0.4-0.1,0.6-0.1c0.4,0,1.1-0.4,1.2,0.4
		c0.1,0.7-0.5,0.7-1,0.8c-1.8,0.4-3.6,0.8-5.4,1.2c-2.8,0.6-5.6,1.1-8.3,1.6c-0.2,0-0.5,0-0.5,0.3c0,0,0,0,0,0
		c-0.9-0.1-1.9-0.1-2.8,0.3c-2.6,0-5.2,0-7.7,0c-0.5,0-1.3,0.1-1.3-0.7c0-0.9,0.8-0.5,1.3-0.5C41.2,315.2,42.8,315.5,44.4,315.1z"/>
	<path class="st13" d="M48,65.6c-0.1,0-0.2,0-0.4,0c-3.6-5.2-7.2-10.2-10.5-15.6c-0.2-0.3-0.3-0.7-0.6-0.9c-2.8-2.5-3.5-6.1-5-9.3
		c0.4-0.1,0.5,0.2,0.7,0.4c5.4,8.3,10.7,16.6,15.7,25C48,65.4,48,65.5,48,65.6z"/>
	<path class="st4" d="M42.4,304.9c-1.5,0.6-2.9,1.5-4.1,2.6c-2.6,2.5-3.1,4.9-1.8,8.2c0.1,0.2,0.2,0.4,0.2,0.5
		c0.1,0.4,0.3,0.8-0.1,1.1c-0.6,0.3-0.8-0.3-1-0.7c-1.7-3.1-1.2-6.8,1.2-9.4c2.9-3,6.7-4.4,10.5-5.6c1.2-0.4,2.4-0.6,3.6-0.9
		c0.4-0.1,1-0.4,1.1,0.3c0.1,0.6-0.4,0.7-0.8,0.8c-0.5,0.1-1.1,0.3-1.6,0.4C47.2,302.9,44.7,303.7,42.4,304.9z"/>
	<path class="st8" d="M73.1,75.5c-4.4-4.6-8.7-9.3-12.5-14.4c-1.8-2.4-4-4.6-5.5-7.2c1,0,1.3,1,1.8,1.6c5.6,5.6,10.7,11.6,15.3,18
		C72.6,74.2,73.3,74.7,73.1,75.5z"/>
	<path class="st8" d="M46.8,41.8c-1.3-0.7-2-2-2.9-3c-1.3-1.6-2.7-3.1-4.3-4.4c-1.8-1.6-2.3-3.5-2.2-5.7c1.2-0.1,2.1,0.5,2.7,1.4
		C42.7,33.8,45,37.7,46.8,41.8z"/>
	<path class="st8" d="M96.8,63.8c0.2,2.1-0.1,4.1-0.4,6.1c-0.1,0.5-0.3,1,0.2,1.4c-0.2,1.4-0.7,2.7-0.7,4.1c-0.1,0-0.2,0.1-0.3,0.1
		c0,0-0.1,0-0.1,0s-0.1,0-0.1,0c0.1-0.7-0.5-0.7-0.9-0.9c-1.2-0.6-1.8-1.6-1.5-2.9c0.2-1.2,1.1-1.5,2-0.9c0.3,0.2,0.5,0.6,0.8,0.2
		c0.3-0.4-0.1-0.7-0.3-0.9c-0.4-0.6-1.1-0.7-1.8-0.5c-1,0.3-1.5,0.9-1.7,1.9c-0.2,0.9,0.2,1.8,0.3,2.6c-2-1.2-2.2-4.1-0.3-5.4
		c0.6-0.4,1.2-0.8,1.8-0.9c2.1-0.2,2.7-1.5,2.7-3.4C96.5,64.2,96.7,64,96.8,63.8z"/>
	<path class="st5" d="M136.4,167.5c-0.5-9.3-1.2-18.5-2.2-27.7c-0.1-1.1-0.4-2.3-0.2-3.4c0.2,0,0.4,0,0.6,0
		c0.7,7.1,1.4,14.2,2.1,21.3c0.4,3.8,0.8,7.6,1.5,11.4l-0.1,0.1C137.7,168.3,137,167.9,136.4,167.5z"/>
	<path class="st14" d="M42.4,304.9c2.3-1.2,4.8-2,7.3-2.5c0,0.1,0,0.1,0,0.2c-0.2,0.3-0.8,0.4-0.6,0.9c0.2,0.5,0.6,0.3,1,0.3
		c1.1-0.1,2.2-0.2,3.2,0.1c-0.4,0.3-0.7,0.6-1.1,0.9c-2-0.3-3.9-0.9-5.9-0.5c-0.4,0.1-0.9,0-0.8,0.6c0.1,0.5,0.6,0.5,1,0.5
		c1.5-0.1,3-0.1,4.4,0.4c-1,0.8-2,1.6-2.9,2.6c-0.8,0.9-1.2,0.7-1.9,0c-0.7-0.8-1.5-1.6-2.2-2.4C43.6,305.4,43.1,305.1,42.4,304.9z"
		/>
	<path class="st3" d="M127,244.5c1.4,3.4,2.3,7,3.4,10.6c1.7,5.2,3.3,10.4,4.9,15.5c-1.3-1.8-1.9-3.9-2.8-5.8
		c-2.9-6.3-3.9-13.2-5.6-19.9C126.9,244.7,127,244.6,127,244.5z"/>
	<path class="st4" d="M60.1,286.9c2.3,0,4.3,0.7,5.5,2.9c0.2,0.9,0.4,1.7,0.1,2.6c-0.1,0.3-0.2,0.7-0.6,0.7c-0.5,0-0.7-0.4-0.5-0.8
		c0.2-0.8,0-1.6-0.4-2.2c-0.8-1.2-1.9-1.7-3.3-1.7c-0.3-0.1-0.6-0.3-0.8-0.3c-0.9,0-1.9-0.3-2.5,0.6c-0.6,0.9-0.1,1.7,0.3,2.5
		c0.2,0.6,1.2,1.3,0.3,1.8c-0.9,0.4-1.1-0.7-1.4-1.3c-0.5-1.1-0.4-2.2-0.3-3.4c0-0.6,0.3-0.9,0.9-1c0.6-0.1,1.2-0.1,1.8-0.2
		c0.1,0,0.3,0,0.4,0C59.7,286.9,59.9,286.9,60.1,286.9z"/>
	<path class="st4" d="M146.2,301.3c0.1,1.1,0.2,2.1,0.4,3.2c-0.1,1.8,0.1,3.7-0.2,5.5c-0.1,0.4,0.1,1.2-0.6,1.1
		c-0.7-0.1-0.5-0.7-0.5-1.2c0.4-4.9-0.2-9.6-1.7-14.2c-0.2-0.6-0.4-1.2-0.6-1.8c0.6-0.4,1.1-0.5,1.3,0.3c0.2,0.6,0.4,1.2,0.6,1.8
		C145.3,297.8,145.7,299.6,146.2,301.3z"/>
	<path class="st4" d="M155,299.6c3-1.6,6-2.4,9.3-2.4c0.5,0,1.1-0.2,1.1,0.6c0,0.8-0.7,0.6-1.1,0.6c-3.2,0-6.1,0.8-8.8,2.4
		c-0.9,0.5-1.3,0.4-1.5-0.7c-0.2-1-0.5-1.9-0.8-2.9c-0.1-0.4-0.3-0.8,0.3-1c0.5-0.1,0.7,0.3,0.8,0.7
		C154.5,297.7,154.7,298.6,155,299.6z"/>
	<path class="st4" d="M180.9,320.3c-0.4-0.1-1.1-0.2-1.7-0.3c-0.5-0.1-1-0.2-0.8-0.8c0.1-0.5,0.6-0.5,1-0.3c2.3,0.7,4.4-0.1,6.4-1.2
		c1.1-0.6,2.4-1.1,1.5-2.8c-0.1-0.2,0-0.5,0.2-0.7c0.3-0.2,0.6,0,0.8,0.2c0.9,0.8,0.7,2.4-0.6,3.4
		C185.8,319.2,183.6,320.1,180.9,320.3z"/>
	<path class="st5" d="M136.7,177.9c0-0.8-0.6-1.8,0.8-2.1c0.2,0,0.2-0.4,0-0.5c-1.4-0.5-0.8-1.6-0.8-2.5c1.5-0.9,1.3-2.5,1.4-3.9
		l0.1-0.1C140.6,172,140,175.6,136.7,177.9z"/>
	<path class="st5" d="M134.3,128.8c0.4,0.1,0.8,0.2,1.1,0.3c1.8,2.7,1.5,5.1-0.8,7C134.4,133.7,134.1,131.2,134.3,128.8z"/>
	<path class="st5" d="M133.9,127.3c-1.1-0.2-1.4-1-1.4-1.9c-0.1-1.4-0.3-2.8-0.4-4.2c1-1.4,1.6-2.8,1.4-4.6c0-0.1,0.1-0.2,0.2-0.4
		C133.7,119.9,133.8,123.6,133.9,127.3z"/>
	<path class="st4" d="M53.4,303.8c-1.1-0.3-2.1-0.2-3.2-0.1c-0.4,0-0.8,0.2-1-0.3c-0.2-0.5,0.4-0.6,0.6-0.9c1.8-0.1,3.5-0.1,5.3,0.4
		c1.2,0.6,2.3,1.3,3.3,2.2c0.3,0.3,0.7,0.7,0.2,1.1c-0.4,0.4-0.7,0.1-1-0.2C56.3,305,55,304.2,53.4,303.8z"/>
	<path class="st4" d="M148,299.5c-0.1,0.6-0.5,0.9-1.1,0.7c-0.4-1.4,0-2.8-0.7-4.2c0.2-1.4-0.4-2.6-0.6-3.9
		c-0.1-0.5-0.3-0.9,0.3-1.1c0.7-0.3,0.8,0.4,0.9,0.8c0.4,1.5,0.7,3,1,4.5C147.8,297.4,147.6,298.4,148,299.5z"/>
	<path class="st4" d="M69,290.9c1.1-0.4,2.2-0.8,3.3-1.3c1.6,0.1,3.1-0.4,4.7,0c0.4,0.1,0.8,0.1,0.8,0.7c-0.1,0.7-0.6,0.6-1,0.5
		c-2.2-0.5-4.3,0-6.4,0.8C69.6,291.9,68.8,292.3,69,290.9z"/>
	<path class="st4" d="M58.9,300.4c0.5,0.4,1.1,0.8,1.6,1.3c0.4,0.3,0.9,0.7,0.5,1.2c-0.5,0.6-0.9,0-1.2-0.3
		c-0.7-0.5-1.4-1.1-2.2-1.4c-1-0.7-2.2-0.8-3.4-0.8c-0.4,0-0.8-0.1-0.8-0.6c0-0.5,0.5-0.5,0.9-0.5C55.9,299.2,57.4,299.8,58.9,300.4
		z"/>
	<path class="st4" d="M86,87.8c0.3,0,0.7,0,1-0.1c1,0.8,2.1,1.6,3.1,2.4c0.2,0.4,0.4,0.8,1,0.7l0,0c1,1.3,2.5,2,3.8,3
		c0.3,0.3,1,0.5,0.7,1c-0.4,0.6-0.9,0-1.3-0.2c-1.7-1.2-3.3-2.5-5-3.7C88.2,89.8,87.1,88.8,86,87.8z"/>
	<path class="st12" d="M22.1,22c-1.2-0.8-2.3-1.6-3.5-2.3c-0.4-0.3-0.9-0.6-1.5-0.4c0.9-1,1.8-1.9,1.9-3.4c1.1,2,2.2,3.9,3.4,5.9
		C22.2,21.8,22.2,21.9,22.1,22z"/>
	<path class="st7" d="M125.5,61.7c-0.1-0.9-0.2-1.8-0.3-2.7c-0.1-1.1-0.3-2.2-1-3.1c-1.4-1.8-1.4-1.8,0.7-2.7
		c-0.2,0.5-0.4,0.9,0.1,1.5C126.7,57,126.4,59.3,125.5,61.7z"/>
	<path class="st5" d="M81.6,169.6c-0.1,2.4-1.3,3.2-3.3,2.3c0-0.5-0.1-1-0.1-1.5c0-0.2,0-0.3,0-0.5c0.1-0.7,0.1-1.3,1.1-0.8
		C79.9,169.6,80.9,169,81.6,169.6z"/>
	<path class="st4" d="M92.3,74c-0.1-0.9-0.5-1.7-0.3-2.6c0.2-0.9,0.7-1.6,1.7-1.9c0.7-0.2,1.3-0.1,1.8,0.5c0.2,0.2,0.6,0.5,0.3,0.9
		c-0.3,0.4-0.5,0-0.8-0.2c-0.9-0.7-1.8-0.3-2,0.9c-0.2,1.4,0.3,2.3,1.5,2.9c0.4,0.2,1.1,0.2,0.9,0.9C94,75.7,93.2,74.7,92.3,74z"/>
	<path class="st12" d="M26.8,9.3c-0.3,2-0.2,4.1,0.2,6.1c-1.2-1.6-1.7-3.5-3-5C24.6,9.4,25.6,9.2,26.8,9.3z"/>
	<path class="st3" d="M144.1,98.6c1.2-0.9,2.4-1.8,3.5-2.7c-0.1,1.2-0.7,2.1-1.3,3.1c-0.6,0.9-0.7,1.5,0.1,2.3
		c0.3,0.3,0.6,0.7,0.4,1.2C145.6,101.3,144.7,100.1,144.1,98.6z"/>
	<path class="st6" d="M134.3,128.8c-0.2,2.5,0.2,4.9,0.3,7.4c0,0.1,0,0.1-0.1,0.2c-0.2,0-0.4,0-0.6,0c-0.6-2.1-0.5-4.3-0.9-6.4
		c-0.1-0.6-0.1-1.2-0.2-1.9c0.5-0.1,0.8,0.3,1.1,0.5C134.1,128.6,134.2,128.7,134.3,128.8L134.3,128.8z"/>
	<path class="st10" d="M157.3,316.6c-0.1,0-0.3,0-0.4,0c-0.7-1-2.1-1.3-2.5-2.6c2,0.3,4,0.6,6,0.9
		C159.5,315.9,158.4,316.1,157.3,316.6z"/>
	<path class="st7" d="M125.3,69.2c-1.1-0.3-1.5-0.9-1.4-2c0.1-1.1,0.1-2.3,0.3-3.4c0.1-0.9,0.4-1.5,1.3-1.8
		C125.2,64.4,124.6,66.8,125.3,69.2z"/>
	<path class="st4" d="M56.4,294.1c-0.1,1.5-0.7,2.9-1.9,3.9c-0.3,0.3-0.7,0.6-1,0.2c-0.4-0.3-0.1-0.7,0.2-1c0.9-0.9,1.4-2,1.5-3.3
		c0-0.4,0-1,0.6-1C56.6,293,56.3,293.7,56.4,294.1z"/>
	<path class="st12" d="M211.6,19.9c1.4-1.4,2.7-2.9,3.6-4.7c1.1,0.2,0.9,1.3,1.4,1.9c-1.6,1-3.2,2-4.8,3
		C211.8,20,211.7,20,211.6,19.9z"/>
	<path class="st12" d="M211.1,11c0.2-0.5,1.1-0.6,0.9-1.3c0,1.5,1.1,2.5,1.6,3.8c-1,1-2,1.9-3.1,2.9c-0.1-0.1-0.2-0.2-0.3-0.3
		c0.5-1.2,1.2-2.3,1.4-3.5c0.1-0.5,0.4-1-0.1-1.5C211.4,11.1,211.3,11.1,211.1,11z"/>
	<path class="st5" d="M140.2,107.5c2.1-1.1,4.4-1.6,6.7-2.3c-0.7,1.7-2,2.3-3.7,2.3C142.1,107.4,141.2,107.4,140.2,107.5z"/>
	<path class="st4" d="M66,296.1c-0.5,1.1-1,2.2-1.5,3.2c-0.2,0.4-0.3,1-0.9,0.6c-0.5-0.3-0.3-0.8-0.1-1.2c0.2-0.5,0.4-0.9,0.5-1.4
		c0.3-0.6,0.6-1.1,0.9-1.7c0.2-0.4,0.3-1,0.9-0.8C66.3,295,66.1,295.6,66,296.1z"/>
	<path class="st12" d="M34.9,18.4c-0.8,1.3-1.3,2.8-1.4,4.6c-1-1.2-1.4-2.3-1.7-3.6C32.8,18.8,33.7,18.2,34.9,18.4z"/>
	<path class="st6" d="M133.6,116.2c-0.1,0.1-0.2,0.2-0.2,0.4c0.2,1.7-0.4,3.2-1.4,4.6c-0.9-2.4,0.1-4.4,1.6-6.2
		C133.6,115.4,133.6,115.8,133.6,116.2z"/>
	<path class="st12" d="M24.3,18c-1.1-1.3-2.2-2.6-3.3-3.9c0.6,0,1.2,0,1.7,0c0.6,1.3,1.1,2.5,1.7,3.8C24.4,17.9,24.3,17.9,24.3,18z"
		/>
	<path class="st5" d="M135.5,111.9c-0.3-0.3-0.3-0.6,0-1c0.8-1.1,1.7-2,3-2.5C138.1,110.2,136.5,110.8,135.5,111.9z"/>
	<path class="st3" d="M60.8,288.3c1.4,0.1,2.5,0.5,3.3,1.7C62.7,290,61.4,289.8,60.8,288.3z"/>
	<path class="st3" d="M150.8,93.1c1.1-1.3,2.3-2.5,3.6-3.6C153.7,91.2,152.5,92.4,150.8,93.1z"/>
	<path class="st12" d="M202.9,20c-0.6,0.6-1.1,1.2-1.9,2c0.2-1.3,0.3-2.2,0.4-3.1C201.9,19.2,202.3,19.8,202.9,20z"/>
	<path class="st5" d="M47.3,316.4c0.9-0.4,1.8-0.4,2.8-0.3C49.2,317,48.3,316.8,47.3,316.4z"/>
	<path class="st3" d="M149.5,254.1c-0.4-0.7-0.4-1.4-0.5-2.2C149.9,252.5,149.4,253.3,149.5,254.1z"/>
	<path class="st4" d="M78.1,170c0,0.2,0,0.3,0,0.5c-0.2-0.1-0.3-0.2-0.3-0.4C77.9,170,78,170,78.1,170z"/>
	<path class="st5" d="M91.1,90.8c-0.5,0.1-0.7-0.3-1-0.7C90.5,90.2,91,90.3,91.1,90.8z"/>
	<path class="st3" d="M149.8,255.6c-0.3-0.3-0.3-0.6-0.2-1C149.9,254.9,149.9,255.2,149.8,255.6z"/>
	<path class="st3" d="M150.2,93.7c0.1-0.3,0.2-0.4,0.5-0.5C150.7,93.6,150.5,93.8,150.2,93.7z"/>
	<path class="st5" d="M50.1,316.1c0.1-0.3,0.3-0.3,0.5-0.3C50.5,316,50.3,316.2,50.1,316.1z"/>
	<path class="st3" d="M148.1,95.5c0-0.2,0.2-0.3,0.4-0.3C148.5,95.5,148.3,95.6,148.1,95.5z"/>
	<path class="st8" d="M54.9,53.6c-0.1-0.2-0.2-0.4-0.4-0.6C54.8,53.2,54.9,53.3,54.9,53.6z"/>
	<path class="st3" d="M154.6,89.4c0-0.2,0.1-0.4,0.3-0.4C154.9,89.2,154.9,89.5,154.6,89.4z"/>
	<path class="st8" d="M74.1,76.7c-0.3-0.1-0.4-0.2-0.4-0.5C74,76.2,74,76.4,74.1,76.7z"/>
	<path class="st3" d="M147.1,103c-0.2-0.1-0.3-0.3-0.3-0.5C147.2,102.6,147.2,102.8,147.1,103z"/>
	<path class="st3" d="M116.8,211.2c0.3,0.1,0.3,0.3,0.2,0.6C116.9,211.7,116.8,211.5,116.8,211.2z"/>
	<path class="st8" d="M126.1,80.9c0-0.1-0.1-0.2-0.1-0.3C126.1,80.7,126.1,80.8,126.1,80.9z"/>
	<path class="st3" d="M156.7,87.1c0-0.2,0-0.2,0.2-0.2C157,87,156.9,87.1,156.7,87.1z"/>
	<path class="st3" d="M156.4,87.4c0-0.2,0-0.2,0.2-0.2C156.6,87.3,156.5,87.3,156.4,87.4z"/>
	<path class="st3" d="M156.1,87.7c0-0.2,0-0.2,0.2-0.2C156.3,87.6,156.2,87.6,156.1,87.7z"/>
	<path class="st3" d="M155.9,88c0-0.2,0-0.2,0.2-0.2C156.1,88,156,88,155.9,88z"/>
	<path class="st3" d="M155.6,88.3c0-0.2,0-0.2,0.2-0.2C155.7,88.2,155.6,88.3,155.6,88.3z"/>
	<path class="st8" d="M74.3,77c-0.1-0.1-0.2-0.2-0.3-0.3C74.2,76.8,74.2,76.9,74.3,77z"/>
	<path class="st3" d="M126.8,243.5c0.2,0.1,0.2,0.2,0.2,0.4C126.8,243.8,126.7,243.7,126.8,243.5z"/>
	<path class="st5" d="M138.4,108.5c0-0.2,0.1-0.3,0.3-0.3C138.7,108.4,138.7,108.5,138.4,108.5z"/>
	<path class="st3" d="M150.1,257.1c-0.2-0.1-0.2-0.2-0.1-0.4C150.1,256.8,150.2,256.9,150.1,257.1z"/>
	<path class="st3" d="M136,273c0.3,0,0.3,0.1,0.2,0.3C136.2,273.2,136.1,273.1,136,273z"/>
	<path class="st3" d="M136.4,273.8c0.2,0,0.2,0.2,0.2,0.4C136.4,274.1,136.3,274,136.4,273.8z"/>
	<path class="st3" d="M152.5,286.4c0-0.2,0.1-0.3,0.3-0.3C152.7,286.2,152.6,286.3,152.5,286.4z"/>
	<path class="st3" d="M59.5,286.9c-0.1,0-0.3,0-0.4,0C59.2,286.8,59.3,286.8,59.5,286.9z"/>
	<path class="st8" d="M165.8,76.4c0.1-0.1,0.2-0.2,0.3-0.3C165.9,76.2,165.8,76.3,165.8,76.4z"/>
	<path class="st8" d="M166.6,75.5c0-0.2,0.1-0.3,0.3-0.3C166.9,75.4,166.8,75.5,166.6,75.5z"/>
	<path class="st8" d="M73.4,75.9c-0.2,0-0.3-0.1-0.3-0.3C73.3,75.5,73.4,75.6,73.4,75.9z"/>
	<path class="st3" d="M155.3,88.6c0-0.2,0-0.2,0.2-0.2C155.5,88.6,155.4,88.6,155.3,88.6z"/>
	<path class="st7" d="M125,53.3c0-0.2,0.2-0.3,0.4-0.3C125.3,53.2,125.2,53.4,125,53.3z"/>
	<path class="st8" d="M166.3,75.8c0-0.2,0.1-0.3,0.3-0.3C166.6,75.7,166.5,75.8,166.3,75.8z"/>
	<path class="st8" d="M166,76.1c0-0.2,0.1-0.3,0.3-0.3C166.2,75.9,166.1,76,166,76.1z"/>
	<path class="st8" d="M73.7,76.2c-0.2,0-0.3-0.1-0.3-0.3C73.6,75.8,73.7,76,73.7,76.2z"/>
	<path class="st3" d="M147.8,95.8c0-0.2,0.1-0.2,0.2-0.2C147.9,95.7,147.8,95.8,147.8,95.8z"/>
	<path class="st3" d="M148.6,95.1c0-0.1,0.1-0.2,0.2-0.2C148.8,95.1,148.8,95.2,148.6,95.1z"/>
	<path class="st3" d="M148.9,94.8c0-0.2,0.1-0.2,0.2-0.2C149.1,94.8,149.1,94.9,148.9,94.8z"/>
	<path class="st3" d="M149.2,94.6c0-0.2,0.1-0.2,0.2-0.2C149.4,94.5,149.4,94.6,149.2,94.6z"/>
	<path class="st3" d="M149.5,94.3c0-0.2,0-0.2,0.2-0.2C149.7,94.2,149.6,94.2,149.5,94.3z"/>
	<path class="st3" d="M149.8,94c0-0.2,0.1-0.2,0.2-0.2C150,93.9,149.9,93.9,149.8,94z"/>
	<path class="st10" d="M130.7,221.1c0.5,0,0.7-0.5,1.1-0.7c1.8-1.5,3.5-1.6,5.4-0.1c2.1,1.6,3.2,3.8,4,6.2c-0.4,0.4-0.1,0.5,0.2,0.6
		c0,0.2,0.1,0.4,0.1,0.6c-0.5,0.4-0.3,1-0.3,1.5c0.5,3.8,0.2,7.6,0.3,11.5c0,0.4-0.1,0.8,0.3,1.1c-1,3.1-5.2,4.2-7.8,2.1
		c-1.4-5.4-2.8-10.7-4.1-16.1C129.5,225.4,130.4,223.3,130.7,221.1z"/>
	<path class="st15" d="M88.9,170.8c3.6-0.1,7.3-0.5,10.9-0.2c0,0,0.1,0,0.1,0l0.1,0c1.9,0.1,3.8,0.3,5.7,0.4
		c0.1,0.1,0.2,0.2,0.3,0.3c0.3,0.6,1.1,0.5,1.5,0.9c-3.5-0.1-7-0.5-10.6-0.3c-3.8,0.2-7.6,0.7-11.2,2c-1.1,0.4-2.2,0.7-3.3,0.7
		c-0.2-0.2-0.4-0.3-0.6-0.2c0-2,1.2-2.8,3-2.9c0.1-0.1,0.3-0.1,0.4-0.2c0.5,0,0.9-0.1,1.4-0.1c0.1-0.1,0.3-0.1,0.4-0.2
		c0.5,0,0.9-0.1,1.4-0.1C88.6,170.9,88.7,170.9,88.9,170.8z"/>
	<path class="st14" d="M81.8,174.4c0.2-0.1,0.4,0,0.6,0.2c-1,1.8-2.2,3.7-1.8,5.6c0.9,4.8-1,9-1.9,13.5c-0.8,4.3-1.9,8.6-2.9,12.9
		c0,0.2,0.2,0.8-0.5,0.5c1-5.8,2.1-11.5,3.1-17.3c0.7-3.7,1.3-7.4,1.9-11.1C80.6,177.2,81.3,175.9,81.8,174.4z"/>
	<path class="st15" d="M114.8,173.5c1.8,1.2,3.8,1.5,5.8,2.2c2.5,0.8,5.1,1.6,7.6,2.5c0.3,0.1,0.8,0.3,1,0.1c1.3-1.1,2.5-0.4,3.8,0
		c0.3,0.1,0.7-0.1,1-0.2c-0.1,0.4-0.1,0.8-0.2,1.1c-5.8,0.3-11.1-1.5-16.4-3.7c-2-0.8-3.9-1.7-5.8-2.5c0.5-0.2,1.2,0.2,1.6-0.4
		c0.2,0,0.4,0,0.6,0C113.9,173.1,114.2,173.4,114.8,173.5z"/>
	<path class="st6" d="M129.8,227.7c1.4,5.4,2.8,10.7,4.1,16.1c-1.4-0.9-2.2-2.2-2.7-3.7c0-0.3,0.1-0.7-0.3-0.8c0,0,0,0,0,0
		c0.2-2-0.5-3.8-0.7-5.7C130,231.7,129.6,229.7,129.8,227.7z"/>
	<path class="st14" d="M63.5,266c1.5-2.9,1.9-6.1,2.5-9.2c0.6,0.2,0.8,0.7,0.7,1.3c-0.5,2.2-0.8,4.5-1.5,6.8
		C64.9,265.8,64.4,266.2,63.5,266z"/>
	<path class="st6" d="M113.3,172.5c-0.4,0.6-1.1,0.2-1.6,0.4c-1.4-0.2-2.7-0.4-4.1-0.7c-0.4-0.5-1.2-0.3-1.5-0.9
		c0.2,0,0.4,0,0.6-0.1c0.4,0.1,0.8,0.2,1.2,0.3C109.7,171.9,111.5,171.9,113.3,172.5z"/>
	<path class="st15" d="M142,225c-1-2.2-2.4-4.1-3.9-6C140.9,220,141.6,222.4,142,225z"/>
	<path class="st14" d="M129,195.5c-0.7-0.1-0.4-0.8-0.6-1.1c-0.2-0.4,0.1-0.5,0.4-0.5c0.6,0,0.8,0.5,0.8,1
		C129.8,195.3,129.4,195.4,129,195.5z"/>
	<path class="st15" d="M138.1,219c-0.4,0.1-0.5-0.1-0.7-0.4C137.7,218.7,138,218.7,138.1,219z"/>
	<path class="st15" d="M133,244.8c1.9,1.2,3.9,2.2,6.2,1.3c0.2,0.7,1.1,0.7,1.3,1.4C137.4,249.4,133.9,248.1,133,244.8z"/>
	<path class="st6" d="M140.5,247.5c-0.2-0.6-1.1-0.7-1.3-1.4c2.5-1.1,3.4-3.5,4.2-5.8c0.1,2.3-0.2,4.4-1.6,6.3
		C141.5,247.1,141.1,247.4,140.5,247.5z"/>
	<path class="st14" d="M146.2,296c0.7,1.3,0.3,2.8,0.7,4.2c-0.2,0.4-0.5,0.8-0.7,1.2c-0.4-1.8-0.9-3.5-1.3-5.3
		C145.3,296,145.7,296,146.2,296z"/>
	<path class="st15" d="M132.7,244.5c0.1,0.1,0.2,0.2,0.3,0.3C132.9,244.7,132.8,244.6,132.7,244.5z"/>
	<path class="st15" d="M141.8,241.8c-0.4-0.3-0.3-0.7-0.3-1.1c-0.1-3.8,0.2-7.6-0.3-11.5c-0.1-0.5-0.2-1.1,0.3-1.5
		C143,232.3,143.2,237,141.8,241.8z"/>
	<path class="st3" d="M144,230.5c0.2,0.6,0.2,1.2,0,2.1c-0.1-0.8-0.2-1.4-0.3-1.9C143.8,230.7,143.9,230.6,144,230.5z"/>
	<path class="st15" d="M141.3,227.1c-0.4-0.1-0.6-0.2-0.2-0.6C141.3,226.6,141.4,226.8,141.3,227.1z"/>
	<path class="st3" d="M130.9,239.4c0.4,0.1,0.3,0.5,0.3,0.8C131,240,130.9,239.7,130.9,239.4z"/>
	<path class="st6" d="M131,121.3c-2,1-4,0.5-5.9-0.4c-6-3.1-12.5-4.7-19.1-5.4c-4.3-0.4-8.6-0.6-13-0.2c-3.3,0.3-6.6,0.9-10,0.7
		c-2.4-0.1-2.5-0.1-3.2-2.4c0-0.1-0.2-0.2-0.3-0.3c-0.4-0.6-0.9-1.2-1.3-1.8c0.7-0.7,1.3-1.4,1.5-2.4c1.1,0,1.9-0.7,2.8-1.2
		c3.3-1.8,6.1-4.3,8.6-7.1c0.3-0.3,0.8-0.7,0.3-1.1c-0.5-0.4-0.8,0.2-1,0.5c-0.2,0.2-0.3,0.4-0.5,0.6c-2.6,2.7-5.3,5.1-8.8,6.7
		c0.1-1.4,1.2-2.3,1.9-3.3c1.8-2.1,3.5-4.4,5.5-6.3c1.2-1.1,2.8-1.4,3.9-0.5c1,0.8,1.1,2.2,0.1,3.8c-1.6,2.6-3.6,4.8-5.7,6.9
		c-0.4,0.4-0.9,0.6-0.9,1.4c2.2-0.5,4.3-1.1,6.5-1.5c5.6-1,11.2-1.1,16.9-0.7c6.5,0.4,12.6,2,18.7,4c0.8,0.2,1.7,0.4,2.1,1.3
		c-0.8,1.6,0.1,3.1,0.1,4.6C130.5,118.5,131,119.9,131,121.3z M97.7,110.9c-4.2-0.1-8.4,0.6-12.6,1.3c-0.4,0.1-0.9,0.1-0.8,0.7
		c0.1,0.6,0.6,0.3,1,0.3c1.9-0.3,3.8-0.5,5.8-0.8c6.1-0.8,12.2-0.7,18.1,1.3c0.4,0.1,1,0.7,1.3,0c0.2-0.7-0.6-0.7-1-0.8
		C105.6,111.3,101.7,110.8,97.7,110.9z M127,115.1c0.4,0,0.7,0.1,0.8-0.3c0.1-0.4-0.3-0.5-0.5-0.6c-2.3-0.5-4.5-1.3-6.6-2.2
		c-0.3-0.1-0.6-0.3-0.8,0.1c-0.2,0.3,0,0.6,0.3,0.7C122.4,113.9,124.7,114.6,127,115.1z"/>
	<path class="st6" d="M86,87.8c1.1,1,2.2,2,3.3,3c-0.4,1-0.8,2-1.2,3.1c-0.7,0-1,0.6-1.4,1c-3.4,3.3-7.2,6.2-11.5,8.5
		c-0.7-0.6-1.2,0.1-1.9,0.1c-0.2,0-0.4,0-0.6,0c-0.4-0.6-0.7-1.2-1.1-1.8c0.2-1,1.3-1.6,1.3-2.8c2.5-1.8,4.9-3.7,7-5.9
		c1.3-1.3,2.6-2.6,3.2-4.4c0.8,0.5,1.3,1.2,1.8,1.8c0.2,0.2,0.5,0.6,0.8,0.4c0.5-0.4,0-0.7-0.2-1c-0.4-0.5-0.9-1-1.4-1.6
		c0.4-0.4,1-0.3,1.5-0.4C85.8,87.7,85.9,87.8,86,87.8z"/>
	<path class="st6" d="M134,84.2c1,0.2,1.4-0.9,2.1-1.2c0.1,0.9,0.1,1.9,0.3,2.8c0.5,2,0.8,4.1,2.4,5.6c0,0,0,0,0,0
		c0,0.4-0.1,0.8,0.4,0.9c0.1,0.3,0.1,0.5,0.2,0.8c-0.2,1.8,0.2,3.6,0.6,5.4c0.3,1.7,2.3,3.2,4.1,2.5c0.8,0.9,0.9,2.2,1.9,3.1
		c0.3,0.3,0,0.5-0.3,0.6c-1.2,0.4-2.4,0.8-3.6,1.3c-1-1.2-2-2.4-3.6-2.8c-0.1-0.2-0.3-0.4-0.4-0.6c0-0.3,0-0.5-0.3-0.7l0,0
		c-0.1-0.1-0.2-0.2-0.3-0.3l0,0c-0.1-0.1-0.2-0.2-0.3-0.3c-2.2-3.2-3.1-6.8-3.6-10.6c-0.1-0.5,0.1-1-0.6-1.2
		C133.4,87.7,134.4,86.1,134,84.2z"/>
	<path class="st6" d="M134.2,108.5c-0.9-2.3-1.2-4.7-1.5-7.1c0-0.4,0.1-0.9-0.4-1c-0.7,0-0.5,0.6-0.4,1c0.1,2.8,0.8,5.5,1.6,8.1
		c-2.6,0.5-3.8-0.3-4.3-2.9c-0.7-4.1-0.3-8.2,0.7-12.2c0.1-0.3,0-0.8,0.5-0.8c0.5,0,0.5,0.4,0.6,0.7c1.4,3.9,2.8,7.7,3.7,11.8
		C134.9,107,134.8,107.8,134.2,108.5z"/>
	<path class="st4" d="M133,89.5c0.7,0.1,0.6,0.7,0.6,1.2c0.5,3.8,1.4,7.4,3.6,10.6c0.1,0.1,0.2,0.2,0.3,0.3c0,0,0,0,0,0
		c0,0.2,0.1,0.3,0.3,0.3c0,0,0,0,0,0c0,0.3,0.1,0.5,0.3,0.7c0.1,0.2,0.3,0.4,0.4,0.6c0.4,0.5,0.9,1.1,1.3,1.6c0.2,0.3,0.7,0.7,0.3,1
		c-0.4,0.4-0.7-0.2-0.9-0.4c-2.3-2.5-4.1-5.3-5.2-8.5c-0.7-2.1-1.2-4.2-1.3-6.4C132.7,90.1,132.6,89.7,133,89.5z"/>
	<path class="st4" d="M75.2,103.3c4.2-2.3,8-5.1,11.5-8.5c0.4-0.4,0.7-1,1.4-1c0.5,0.8-0.2,1.1-0.6,1.5c-3.5,3.5-7.5,6.4-11.8,8.8
		c-0.4,0.2-0.8,0.7-1.2,0.2C74.1,103.7,75,103.6,75.2,103.3z"/>
	<path class="st4" d="M81.2,107.3c3.4-1.6,6.2-4,8.8-6.7c0.2-0.2,0.3-0.4,0.5-0.6c0.3-0.3,0.6-0.9,1-0.5c0.5,0.4,0,0.8-0.3,1.1
		c-2.5,2.8-5.3,5.3-8.6,7.1c-0.9,0.5-1.7,1.2-2.8,1.2C79.4,107.7,80.8,107.9,81.2,107.3z"/>
	<path class="st4" d="M96.2,94.1c0.3,0.2,0.6,0.4,0.9,0.5c0.4,0.1,0.8-0.6,1.1,0c0.2,0.5-0.4,0.7-0.6,1.1c-0.1,0.2-0.3,0.4-0.2,0.7
		c0,0,0,0.1-0.1,0.1c-0.7-0.2-0.9,0.5-1.3,0.8c-0.3,0.2-0.6,0.5-0.9,0.2c-0.4-0.4,0-0.6,0.3-0.8C96.2,96,96.9,95.3,96.2,94.1z"/>
	<path class="st4" d="M123.5,98.7c-0.1-0.9-0.5-1.8-0.9-2.6c-0.2-0.3-0.6-0.7-0.1-1c0.5-0.3,0.8,0.3,1,0.6c0.3,0.6,0.5,1.2,0.8,1.7
		c0,0.3,0.1,0.5,0.1,0.8C124.4,98.9,124.1,99,123.5,98.7z"/>
	<path class="st4" d="M126.5,92c0.1-1-0.6-1.2-1.3-1.6c-0.2-0.1-0.6-0.3-0.5-0.7c0.2-0.4,0.6-0.3,0.9-0.1c0.4,0.2,0.9,0.5,1.3,0.7
		c0.2,0.2,0.3,0.4,0.5,0.6c0.3,0.5,1.2,0.9,0.7,1.5c-0.6,0.7-0.7-0.5-1.2-0.5C126.8,91.8,126.6,91.9,126.5,92z"/>
	<path class="st6" d="M132.8,113.9c-0.2,0.9-0.6,1.6-1.4,2.7c-0.2-1.5-0.3-2.7-0.5-3.9C131.8,112.6,132.1,113.6,132.8,113.9z"/>
	<path class="st14" d="M124.4,98.2c0-0.3-0.1-0.5-0.1-0.8c0.5-0.8,1-1.6,1.4-2.4C126.2,96.5,125.7,97.5,124.4,98.2z"/>
	<path class="st4" d="M125.9,94.2c0-0.8,0.2-1.5,0.6-2.2C126.5,92.8,126.3,93.5,125.9,94.2z"/>
	<path class="st14" d="M74,105.2c-0.4-0.2-0.6-0.5-0.6-0.9C74,104.3,74.1,104.7,74,105.2z"/>
	<path class="st14" d="M72.7,103.4c0.2,0,0.4,0,0.6,0c0,0.3,0.2,0.6,0.1,0.9C73,104.1,72.9,103.7,72.7,103.4z"/>
	<path class="st14" d="M75.2,106.9c-0.3-0.2-0.5-0.5-0.6-0.9C75.2,106.1,75.2,106.5,75.2,106.9z"/>
	<path class="st14" d="M74.6,106.1c-0.3-0.1-0.4-0.3-0.3-0.6C74.6,105.5,74.7,105.8,74.6,106.1z"/>
	<path class="st14" d="M74.3,105.5c-0.3,0.1-0.3-0.2-0.3-0.3C74.3,105.1,74.3,105.3,74.3,105.5z"/>
	<path class="st5" d="M78.3,166.2c0.6-6.2,0.1-12.5,0.2-18.7c0.1-5,0.1-10.1,0.1-15.1c1.2,0,2.4,0,3.5-0.4
		c5.6-2.4,11.6-2.8,17.6-3.1c4.3-0.2,8.6-0.3,12.8,0.3c1.7,0.2,3.5,0.2,5,1.2c-5.2-0.9-10.5-1.5-15.8-1.2
		c-6.6,0.3-12.9,1.6-19.1,3.9c-0.4,0.1-1,0.2-0.7,0.9c0.3,0.5,0.7,0.1,1,0c7.7-2.9,15.7-4.2,23.9-3.9c5,0.2,10,1.1,14.8,2.4
		c0.4,0.1,0.8,0.4,1.2,0.6c0.8,0.9,1.6,1.8,2.5,2.6c2.2,2,4.8,2.7,7.6,1.6c0.2,1.9,0.4,3.7,0.6,5.6c0.1,0.8,0,1.3-1.1,1.4
		c-2.2,0.1-4.5-0.1-6.7-0.1c-0.4-0.2-0.7-0.4-1.1-0.5c-6-1.5-12.1-2.2-18.2-2.5c-3.7-0.2-7.4,0-11.1,0c-0.5,0-1-0.1-1.4,0.3
		c-4.1,0-8.1,0.3-12.1,0.9c-0.1,0-0.3,0-0.4,0.1c-0.5,0.2-1.4,0-1.3,0.7c0.1,0.8,0.9,0.3,1.3,0.2c1.3-0.1,2.6-0.3,3.8-0.5
		c-0.2,0.4-0.6,0.5-0.9,0.7c-1.6,0.6-3,1.5-4.4,2.4c-0.9,0.6-1.3,1.4-1.2,2.4c0.1,1.1,0.7,1.7,1.7,2c1.7,0.6,3.5,1,5.2,1
		c5.2-0.1,10.4-0.4,15.6,0c0.6,0,1.2-0.3,1.6,0.4c-3.9-0.2-7.9,0-11.8,0.5c-3.9,0.5-7.6,1.3-11.4,2.4c-0.3,0.1-0.8,0.1-0.7,0.6
		c0.1,0.6,0.6,0.4,1,0.3c0.9-0.2,1.7-0.5,2.6-0.7c9.1-2.3,18.4-2.8,27.7-1.1c4.4,0.8,8.6,2.4,13,3.4c2.3,0.6,4.7,0.9,7.1,0.6
		c0.4-0.1,1.5,0.1,0.7-1c1.2-0.8,2.5-1.5,3.3-2.7c0.5,4.3,0.7,8.6,0.9,12.8c-4.4-1.3-9-1.7-13.3-3c-3.3-1-6.5-2.5-9.9-3.3
		c-3-0.7-6-1.3-9.1-0.6c-3.6-0.1-7.3-0.1-10.9,0.3c-3.2,0.4-6.4,0.8-9.4,2.1c-1.3,0.6-2.5,1.3-2.6,3
		C79.4,165.3,78.9,165.9,78.3,166.2z"/>
	<path class="st4" d="M80.2,165.3c0.1-1.7,1.3-2.4,2.6-3c3-1.3,6.2-1.7,9.4-2.1c3.6-0.4,7.3-0.5,10.9-0.3c8,0.8,15.5,3.4,23,6.1
		c1.8,0.6,3.7,1.3,5.5,1.9c0.4,0.1,1.1,0.1,0.9,0.7c-0.2,0.7-0.8,0.3-1.3,0.1c-3.8-1.3-7.5-2.6-11.3-3.8c-5.1-1.7-10.3-3.4-15.7-3.9
		c-2.9-0.3-5.8-0.2-8.6,0c-0.2,0.1-0.4,0.1-0.6,0.2c0,0,0,0,0,0c-1.9-0.1-3.7,0.3-5.4,0.7c-2.4,0.5-4.8,0.7-6.9,2
		c-0.7,0.3-1.4,0.6-1.6,1.5C80.8,166.1,80.5,165.8,80.2,165.3z"/>
	<path class="st5" d="M95.6,169.5c-1.7,0.1-3.4,0.1-5.1,0.2c-0.1-0.1-0.2-0.1-0.3,0c-0.9,0.1-1.8,0.1-2.7,0.2
		c-1-0.7-2.2-0.5-3.3-0.6c3.7-0.8,7.3-0.8,11-0.2C95.4,169,95.5,169.3,95.6,169.5z"/>
	<path class="st5" d="M82.6,163.9c2.1-1.3,4.6-1.5,6.9-2c1.8-0.4,3.6-0.8,5.4-0.7c-2.5,1.1-5.3,1.2-7.9,1.8
		C85.6,163.3,84.2,163.9,82.6,163.9z"/>
	<path class="st15" d="M84.2,169.3c1.1,0.1,2.3-0.2,3.3,0.6c-0.3,0.5-0.8,0.2-1.2,0.4c-0.1,0.1-0.3,0.1-0.4,0.2c-1,0-2,0.4-2.9,0.7
		c-0.1,0-0.2-0.1-0.3-0.1c0.1-0.6-0.1-1.3,0.2-1.8C83.3,169.2,83.8,169.2,84.2,169.3z"/>
	<path class="st5" d="M95,161.2c0.2-0.1,0.4-0.1,0.6-0.2C95.4,161.1,95.2,161.1,95,161.2z"/>
	<path class="st8" d="M33.2,39.9c-1.7-2.1-2.6-4.7-4.2-6.9c-2.1-3-4.4-5.8-7.3-8c-1.5-1.1-2.9-2.4-3.4-4.6c2.1,1,3.6,2.5,5.1,3.9
		c0.5,0.4,0.9,0.9,1.3,1.4c0.2,0.2,0.4,0.4,0.6,0.2c0.3-0.2,0.2-0.5,0.1-0.8c-0.3-0.5-0.6-0.9-0.8-1.4c-1.5-2.5-3.1-4.9-4.2-7.5
		c-0.3-0.7-0.7-1.3-0.4-2.2c0.9,0.4,1.3,1.2,1.7,1.9c1.7,2.5,3.4,4.9,5,7.4c0.2,0.3,0.4,1,1,0.6c0.5-0.3,0.1-0.7,0-1.1
		c-0.5-1.7-1.4-3.3-2.3-4.8c-0.8-1.5-1.4-3.1-2-4.6c-0.2-0.6,0-0.9,0.4-1.1c0.5-0.3,0.6,0.3,0.7,0.5c1.3,2.6,2.5,5.2,3.8,7.8
		c0.3,0.6,0.4,1.7,1.2,1.4c0.7-0.2,0.2-1.2,0-1.9c-0.6-2.1-1.3-4.2-2-6.3c-0.4-1.2-0.4-2.5-0.1-4.2c0.8,1.6,1.3,2.9,1.7,4.3
		c0.9,3.5,2.5,6.8,4.1,10c0.2,0.3,0.3,0.8,0.8,0.8c0.7-0.1,0.4-0.7,0.5-1.1c0.1-1.4,0-2.8,0.8-4c0.2-0.2,0.4-0.5,0.7-0.5
		c0.4,0,0.4,0.4,0.3,0.7c-0.6,3.6,0,7.2,0.4,10.9c-0.7-0.1-1-0.7-1.4-1c-0.3-0.2-0.5-0.6-0.9-0.3c-0.4,0.4,0,0.7,0.2,1
		c1.9,1.9,3.7,3.9,5.6,5.7c1.3,1.2,1.7,2.5,1.3,4.2c-0.3,1.5-0.4,3-0.6,4.4c-0.1,0.4-0.5,1.1,0.3,1.2c0.7,0.1,0.5-0.7,0.6-1.2
		c0.3-1.9,0.5-3.8,0.8-5.9c1.4,1.1,2.3,2.5,3.4,3.8c0.4,0.5,0.1,1,0,1.4c-0.2,1-0.5,2-0.7,3c-0.1,0.3-0.4,0.9,0.2,1
		c0.6,0.1,0.5-0.4,0.6-0.8c0.3-1.1,0.6-2.1,0.9-3.3c2.1,2.5,3.8,5,5.5,7.6c0.4,0.6,0.1,0.9-0.1,1.4c-0.6,1.1-1,2.3-1.2,3.5
		c-0.1,0.4-0.5,1.1,0.2,1.3c0.7,0.1,0.6-0.6,0.7-1.1c0.2-1.2,0.7-2.4,1.4-3.7c2.1,3.3,4.6,6.2,6.9,9.3c5.3,7.1,11.6,13.3,17.4,20
		c1.4,1.7,2.9,3.3,4.4,4.9c0.4,0.4,0.5,0.7,0.1,1.2c-3.2,4.2-6.9,7.9-11.5,10.5c1-3,0.8-5.8-1-8.5c-2.7-4.3-5.4-8.6-8.2-12.8
		c-5-7.4-10.1-14.8-15-22.3c-2.9-4.3-5.6-8.7-8.9-12.7C36.5,41.3,35.5,39.5,33.2,39.9z"/>
	<path class="st13" d="M33.2,39.9c2.3-0.4,3.3,1.4,4.4,2.8c3.3,4,6.1,8.4,8.9,12.7c5,7.5,10.1,14.8,15,22.3
		c2.8,4.2,5.5,8.5,8.2,12.8c1.7,2.7,2,5.5,1,8.5c0,0,0,0,0,0c-0.3,0-0.6,0-0.9,0c-3.4-4.9-6.5-10-9.6-15.1
		c-8.4-13.6-16.4-27.5-25.1-40.9C34.5,41.9,33.8,40.9,33.2,39.9z"/>
	<path class="st5" d="M72.9,98.9c0,1.1-1,1.8-1.3,2.8C70.4,100.2,70.4,100.2,72.9,98.9z"/>
	<path class="st3" d="M85.7,87.7c-0.5,0.1-1.1,0-1.5,0.4c-0.6-0.3-0.5-0.6,0-0.9C84.9,86.7,85.4,87,85.7,87.7z"/>
	<path class="st8" d="M69.8,98.9c0.3,0,0.6,0,0.9,0C70.5,99.2,70.1,99.7,69.8,98.9z"/>
	<path class="st12" d="M24.4,17.8c0.2,0.2,0.3,0.5,0.1,0.6c-0.3,0.1-0.2-0.3-0.2-0.4C24.3,17.9,24.4,17.9,24.4,17.8z"/>
	<path class="st12" d="M22.3,21.8c0,0.1,0.1,0.2,0.1,0.4c-0.1,0-0.2-0.1-0.3-0.1C22.2,21.9,22.2,21.8,22.3,21.8z"/>
	<path class="st8" d="M211.1,11c0.2,0,0.3,0.1,0.5,0.1c-0.4,2.2-1.6,4-3,5.8c-1.2,1.5-2.4,3.1-3.3,4.8c-0.1,0.3-0.5,0.6-0.1,0.9
		c0.4,0.4,0.7,0,1-0.3c1.8-1.9,3.6-3.7,5.4-5.6c0.7-0.8,1.5-1.4,2.8-1.4c-0.7,1.6-1.9,2.7-3,3.7c-1.5,1.5-3.2,2.9-4.4,4.7
		c-0.3,0.4-1,0.9-0.5,1.4c0.6,0.6,0.9-0.3,1.3-0.6c2.1-1.9,4.2-3.8,6.6-5.3c0.5-0.3,1.1-0.9,1.6-0.4c0.5,0.6,0,1.2-0.5,1.7
		c-1.8,2.2-4,3.8-6.2,5.6c-0.3,0.3-0.6,0.5-0.9,0.8c-0.3,0.2-0.6,0.5-0.4,0.9c0.2,0.4,0.6,0.1,0.9-0.1c1.4-0.7,2.9-1.4,4.3-2.1
		c0.2-0.1,0.5-0.1,0.7-0.2c0.5,0.4,0.3,1,0.3,1.5c-2.5,1.3-5.3,2.1-7.8,3.6c-3.2,2-6.1,4.3-8.7,6.9c-0.4,0.4-1.1,0.7-0.4,1.4
		c-2.1-0.3-3.7,0.9-5.4,1.8c-4.2,2.5-7.2,6.2-10.5,9.7c-1.5,1.6-2.9,3.4-4.4,5.1c-3.6,4.2-7.3,8.4-11.8,11.7c-3.5,2.6-7,5.2-9.7,8.7
		c-1.9,2.4-3.9,4.8-5.8,7.2c-0.5,0.7-0.8,0.7-1.6,0.3c-2-1.1-3.7-0.6-5,1.3c-0.5,0.7-1.1,1.3-1.3,2.2c-0.2,0.8-0.6,0.6-1.1,0.4
		c0-1.1,0.2-2.2,0.4-3.2c0.2-1.3,0.2-2.5-1.1-3.3c0-0.6-0.5-0.6-1-0.6c3.2-3.5,6.5-6.7,10-9.9c6.7-6.2,14.2-11.3,21.3-16.9
		c1.7-1.3,3.4-2.7,5.3-4.2c0,0.9,0,1.5,0,2.1c0,0.2-0.1,0.5,0.3,0.6c0.4,0.1,0.5-0.2,0.6-0.5c0,0,0-0.1,0-0.1
		c-0.5-3.4,2.2-4.7,4.1-6.5c0.4,0.4-0.2,1,0.4,1.2c0.4,0.1,0.5-0.2,0.6-0.5c0.5-3.2,3.4-4.5,5.1-6.8c0.4,0.2,0.2,0.5,0.2,0.8
		c0,0.3,0,0.5,0.4,0.5c0.3,0,0.5-0.2,0.5-0.5c0.1-3.5,2.9-5.5,4.9-7.6c3.7-3.7,4.8-8.5,6.5-13c0.2-0.6,0.2-1.3,1-1.1
		c1,0.2,0.5,1,0.4,1.5c-0.1,1.1-0.5,2.2-0.7,3.3c-0.1,0.4-0.6,0.9,0,1.2c0.5,0.3,0.8-0.2,1.1-0.6c2.5-2.6,4.8-5.2,7-8
		C208.9,13.9,210,12.5,211.1,11z"/>
	<path class="st6" d="M134.5,154c-0.8,1.3-2.1,2-3.3,2.7c-1.5,0.1-3,0.1-4.5-0.1c-0.3-0.4-0.8-0.2-1.2-0.2l0,0
		c-1.1-0.8-2.4-0.9-3.6-1.2c-2.5-0.6-5-1.7-7.6-1.8c-2.8-0.5-5.7-1-8.5-1.5c-0.9-0.6-1.8-0.2-2.7-0.3l0,0.1
		c-0.4-0.7-1.1-0.4-1.6-0.4c-5.2-0.4-10.4-0.1-15.6,0c-1.8,0-3.5-0.4-5.2-1c-1-0.3-1.6-1-1.7-2c-0.1-1,0.3-1.8,1.2-2.4
		c1.4-0.9,2.8-1.8,4.4-2.4c0.4-0.1,0.8-0.2,0.9-0.7c3.8-0.4,7.6-0.5,11.4-0.3c7.5,0.4,15,1.4,22.5,2.1c3.8,0.4,7.5,0.6,11.3,0.5
		c0.8,1,2.3,1.1,3.2,2C134.1,149.4,134.3,151.7,134.5,154z"/>
	<path class="st13" d="M140.6,87.4c0.5,0.2,1,0.3,1.1-0.4c0.2-0.8,0.8-1.5,1.3-2.2c1.3-1.9,3-2.4,5-1.3c0.7,0.4,1.1,0.3,1.6-0.3
		c1.9-2.4,3.9-4.7,5.8-7.2c2.7-3.5,6.2-6.1,9.7-8.7c4.5-3.3,8.2-7.5,11.8-11.7c1.5-1.7,2.9-3.4,4.4-5.1c3.3-3.5,6.3-7.2,10.5-9.7
		c1.7-1,3.3-2.1,5.4-1.8c-1.1,1.9-2.8,3.2-4.3,4.8c-4.6,5-9.3,10-14,15c-0.1,0.1-0.3,0.2-0.4,0.3c0,0,0.1,0,0,0
		c-0.1,0.1-0.2,0.2-0.3,0.3c0,0,0,0,0,0c-0.2,0-0.3,0.1-0.3,0.3c0,0,0,0,0,0c-0.2,0-0.3,0.1-0.3,0.3c0,0,0,0,0,0
		c-0.2,0-0.3,0.1-0.3,0.3c0,0,0,0,0,0c-0.4,0.1-0.4,0.4-0.4,0.7c-0.1,0.1-0.1,0.1-0.2,0.2c-0.9-0.1-1,0.5-1,1.2
		c-8,9.5-15.3,19.7-24.1,28.4c-2.5,2.5-5.3,4.8-8,7.2c-1.2-0.5-1.4-1.9-2-2.9c-0.3-0.5-0.5-1.1-0.7-1.6c0-0.2,0-0.4-0.2-0.6
		c0,0,0,0,0,0C140.7,91.1,140.2,89.3,140.6,87.4z"/>
	<path class="st6" d="M117.5,130.4c-1.5-1-3.3-1-5-1.2c-4.2-0.6-8.5-0.5-12.8-0.3c-6,0.3-12,0.7-17.6,3.1c-1.1,0.5-2.3,0.4-3.5,0.4
		c0.1-2.1,0.2-4.2,0.3-6.3c1.3-0.5,2.6-0.9,3.6-1.9c8.2-2.8,16.7-4,25.4-3.3c7.8,0.6,15.3,2.5,22.4,5.7c1,0.5,1.7,1,1.7,2.2
		c0.1,2.3,0.5,4.5,0.8,6.9c-2.3-1-4.3-1.9-6.4-2.7c-2.6-0.9-5.2-1.7-7.8-2.5C118.3,130.2,117.9,130.4,117.5,130.4L117.5,130.4z"/>
	<path class="st6" d="M98.9,119.8c0.9-1,2.2-0.6,3.3-0.8c3.7-0.6,7.4-0.4,11.1,0c5.1,0.5,10.2,1.1,14.6,4.1c0.8,0.6,1.7,1.1,1.9,2.1
		c-3.5-1.3-7.1-2.7-10.7-3.6c-5.8-1.4-11.7-2-17.6-1.8C100.6,119.8,99.7,119.8,98.9,119.8z"/>
	<path class="st6" d="M94.1,141.4c0.4-0.4,0.9-0.3,1.4-0.3c3.7,0,7.4-0.1,11.1,0c6.1,0.3,12.2,0.9,18.2,2.5c0.4,0.1,0.7,0.3,1.1,0.5
		c-4.1,0-8.2-0.6-12.3-1c-4.7-0.5-9.5-1.1-14.2-1.4C97.6,141.6,95.8,141.5,94.1,141.4z"/>
	<path class="st6" d="M133,137.2c-2.9,1-5.4,0.3-7.6-1.6c-0.9-0.8-1.7-1.7-2.5-2.6c3,0.5,5.8,2,8.5,3.2
		C131.9,136.5,132.9,136.3,133,137.2z"/>
	<path class="st5" d="M138.8,91.4c-1.6-1.5-1.9-3.6-2.4-5.6c-0.2-0.9-0.2-1.9-0.3-2.8c0.9-1,1.9-2,3-2.7
		C138,84,137.9,87.6,138.8,91.4z"/>
	<path class="st15" d="M144.1,101c-1.8,0.7-3.8-0.8-4.1-2.5c-0.4-1.8-0.8-3.6-0.6-5.4C140.6,95.9,142.4,98.4,144.1,101z"/>
	<path class="st15" d="M140.6,87.4c-0.4,1.8,0.1,3.6,0.2,5.4c-0.8-1.2-1-2.5-1.3-3.8c0-2.1,0-4.1,0-6.2c-0.1-0.7,0.1-1.3,0.4-1.9
		c1.2,0.8,1.3,2.1,1.1,3.3C140.9,85.3,140.6,86.4,140.6,87.4z"/>
	<path class="st6" d="M138.1,169c-0.1,1.4,0.1,3-1.4,3.9c-0.2-1.8-0.4-3.6-0.3-5.4C137,167.9,137.7,168.3,138.1,169z"/>
	<path class="st6" d="M114.8,173.5c-0.6,0-0.9-0.3-0.9-0.9c3.2,0.5,6.4,0.9,9.6,1.8c-1.7,0.7-3.2-0.3-4.9-0.4
		C117.3,173.9,116.1,173.6,114.8,173.5z"/>
	<path class="st5" d="M133.9,147.1c-1-0.8-2.4-0.9-3.2-2c1,0,2,0,2.9,0c0,0.3,0,0.6,0.3,0.8C133.9,146.3,133.9,146.7,133.9,147.1z"
		/>
	<path class="st6" d="M139.6,82.8c0,2.1,0,4.1,0,6.2C139,87,138.9,84.9,139.6,82.8z"/>
	<path class="st6" d="M129,175.2c-0.9,0-1.9,0.6-2.6-0.4C127.3,174.9,128.1,175,129,175.2z"/>
	<path class="st6" d="M95.9,120.1c0.6-0.2,1.2-0.8,1.8-0.2C97.1,120.3,96.5,120.1,95.9,120.1z"/>
	<path class="st6" d="M125.3,174.7c-0.5,0.4-1,0.5-1.2-0.3C124.5,174.4,124.9,174.2,125.3,174.7z"/>
	<path class="st5" d="M117.4,130.3c0.4,0,0.9-0.2,1.2,0.3C118.2,130.6,117.8,130.7,117.4,130.3z"/>
	<path class="st6" d="M133.9,145.9c-0.3-0.2-0.3-0.5-0.3-0.8C134.1,145.2,133.9,145.6,133.9,145.9z"/>
	<path class="st5" d="M139.2,92.3c-0.5-0.2-0.4-0.5-0.4-0.9C139.2,91.5,139,92,139.2,92.3z"/>
	<path class="st15" d="M140.9,92.9c0.2,0.1,0.2,0.4,0.2,0.6C141,93.2,140.9,93,140.9,92.9z"/>
	<path class="st5" d="M134.3,128.8c-0.1-0.1-0.2-0.2-0.3-0.3C134.1,128.6,134.3,128.6,134.3,128.8z"/>
	<path class="st4" d="M122.8,76.7c-0.9,0.5-1.2,1.8-2.4,1.8c-0.2,0-0.5-0.1-0.6,0.3c0,0,0,0,0,0c-1.1,0.1-2.2,0.5-3.3,0.3
		c-3.6-1-7-0.1-10.5,0.7c-0.3,0.1-0.7,0.2-1,0.2c-1-0.1-1.9-0.2-2.9-0.3c-1.3-0.6-2.2-1.7-3-2.8c-0.3-1.4-0.6-2.8-0.6-4.2
		c0-0.4,0-0.8,0-1.2c0-0.4-0.1-1,0.5-1.1c0.6,0,0.3,0.7,0.5,1c-0.1,1.2-0.2,2.4,0.3,3.6c0.6,2.9,2.9,4.6,6,3.8
		c2.9-0.8,5.9-1.5,8.9-1.6c1.2-0.1,1.6-0.8,1.8-1.8c0.2-1.1-0.6-1.4-1.3-1.7c-1.4-0.7-2.7-1.6-3.3-3.1c-0.1-0.3-0.4-0.7,0-0.9
		c0.4-0.2,0.6,0.2,0.8,0.5c0.6,1.2,1.6,1.9,2.7,2.5c2.9,1.9,3,2.9,0.6,5.3c2.9,0.3,5.2-0.5,6.9-2.9c0.2-0.3,0.4-0.7,0.6-1
		c0.2-0.2,0.4-0.3,0.7-0.2c0.3,0.2,0.1,0.5,0,0.6C123.7,75.3,123.2,76,122.8,76.7z"/>
	<path class="st11" d="M98.6,72.8c0,1.4,0.3,2.8,0.6,4.2c-1.3-0.1-2.4-0.8-3.4-1.6c0-1.4,0.5-2.7,0.7-4.1c0.6-0.1,0.5-0.6,0.7-0.9
		C98.1,70.9,98.1,72,98.6,72.8z"/>
	<path class="st4" d="M112.7,98.8c0.2-0.6-0.7-1.8,0.8-1.7c0,0.1,0.1,0.3,0.1,0.4c0.1,0,0.1-0.1,0.2-0.1c-0.1-0.1-0.2-0.2-0.3-0.3
		c0.1-0.9-0.4-1.7-0.5-2.6c-0.1-0.3-0.3-0.9,0.3-1c0.5-0.1,0.5,0.3,0.6,0.7c0.3,1.4,1.1,2.7,0.9,4.1c-0.2,0-0.4,0-0.6,0
		c0-0.1-0.1-0.2-0.1-0.2c0,0.1-0.1,0.2-0.1,0.3c-0.4,1,0.1,1.9,0.1,2.9c0,0.4,0.1,0.8-0.3,0.8c-0.4,0.1-0.5-0.4-0.6-0.7
		C112.9,100.5,113.2,99.6,112.7,98.8z"/>
	<path class="st4" d="M114,83.1c1-0.2,1.8-0.8,2.7-1.2c0.3-0.2,0.8-0.7,1.1-0.1c0.3,0.5-0.3,0.6-0.6,0.8c-0.1,0.1-0.2,0.2-0.3,0.3
		c-1.1,0.4-2.1,0.9-3.2,1.2c-1.7,0.4-3.2,0-4.7-0.9c-0.1-0.9-0.1-0.9,1.2-0.4C111.4,83.6,112.6,83.5,114,83.1z"/>
	<path class="st4" d="M101.7,99.4c0.4-1.1,0.7-2.1,1.1-3.2c0.1-0.4,0.3-0.8,0.8-0.6c0.5,0.2,0.1,0.6,0.1,0.9
		c-0.2,1.3-0.9,2.4-0.9,3.7c-0.3,0.2-0.4,0.9-0.9,0.7C101.2,100.6,101.8,99.9,101.7,99.4z"/>
	<path class="st4" d="M101,86.9c-0.9,0.5-1.3,1.4-1.7,2.2c-0.2,0.3-0.4,0.7-0.8,0.4c-0.3-0.2-0.2-0.6-0.1-0.8
		c0.3-0.6,0.7-1.2,1.1-1.7c0.3-0.2,0.6-0.6,0.9-0.7c0.5-0.3,1.1-1,1.5-0.4C102.3,86.4,101.3,86.5,101,86.9z"/>
	<path class="st4" d="M123.3,82.9c0.1-0.4-0.5-1.1,0.5-1.1c0.8,1.1,0.9,2.5,1.4,3.7c0.1,0.3,0.1,0.5-0.2,0.6
		c-0.4,0.2-0.6-0.1-0.7-0.4C123.9,84.9,123.6,83.9,123.3,82.9z"/>
	<path class="st4" d="M98.3,81.5c-0.7,0.5-1.4,1.1-2.1,1.6c-0.2,0.2-0.5,0.5-0.8,0.2c-0.3-0.3-0.1-0.6,0.2-0.9
		c0.8-0.7,1.6-1.4,2.4-2.2C99.6,80.3,98.6,81,98.3,81.5z"/>
	<path class="st4" d="M119,89.2c-0.1,0.3,0.1,0.9-0.5,0.9c-0.7,0-0.6-0.7-0.8-1.2c-0.2-0.6-0.3-1.1-0.4-1.7c-0.1-0.3-0.3-0.8,0.2-1
		c0.4-0.1,0.5,0.3,0.6,0.7C118.5,87.7,118.5,88.6,119,89.2z"/>
	<path class="st4" d="M109,91.4c-0.8,0.6-0.8-0.1-0.9-0.6c0-0.8,0.1-1.6,0.6-2.2c0.2-0.2,0.4-0.5,0.7-0.3c0.3,0.2,0.2,0.5,0.1,0.8
		C109,89.7,108.9,90.5,109,91.4z"/>
	<path class="st8" d="M102.2,79.8c1,0.1,1.9,0.2,2.9,0.3c-0.3,0.1-0.5,0.2-0.8,0.3C103.5,80.3,102.4,81.5,102.2,79.8z"/>
	<path class="st9" d="M113.9,98.3c0-0.1,0.1-0.2,0.1-0.3c0,0.1,0.1,0.2,0.1,0.2c0,0-0.1,0-0.1,0L113.9,98.3z"/>
	<path class="st13" d="M101.2,60.5c4.1-2.1,8.5-3.1,13.2-3.2c0.8,0,1.6-0.1,2.4-0.2c2.1-0.1,3.8,0.4,4.9,2.4c0.2,0.5,0.5,1,1,1.3
		c0.1,0.4,0.2,0.8,0.4,1.2c-0.2,0-0.5,0.1-0.7,0.1c-1.1-0.9-2.3-1.7-3.8-1.5c-0.6,0.1-1.4-0.1-1.4,0.9c-4.7-0.2-9.3-0.7-14-0.6
		C102.3,60.8,101.7,60.6,101.2,60.5z"/>
	<path class="st4" d="M110.6,68.3c-0.1,0.5-0.1,1-0.2,1.4c-0.4,2.5-1.7,3.7-4.2,3.9c-2.3,0.2-4.2-1.1-4.7-3.4
		c-0.3-1.6-1.3-0.9-2.1-0.9c-0.6,0-1.5,0.7-1.6,0c-0.2-0.7,1-0.6,1.5-0.8c0.9-0.4,2.4,0.2,2.5-1.5c0-1,1.6-1.4,1.1-2.7
		c-0.2-0.6,0.4-0.5,0.8-0.5c3.1-0.2,6,1.3,6.6,4.3C110.4,68.2,110.5,68.3,110.6,68.3C110.6,68.4,110.6,68.3,110.6,68.3z M102.3,69
		c0,2.2,1.7,4.1,3.6,4c1.9,0,3.8-2,3.7-4c0-2.1-2.3-4.4-4.4-4.3C103.8,64.7,102.3,66.9,102.3,69z"/>
	<path class="st11" d="M122.9,62c-0.1-0.4-0.2-0.8-0.4-1.2c0.6-0.4,0.3-0.8,0.1-1.3c-0.4-0.7-0.8-1.4-1.2-2c0.8,0.2,1.6,0.3,2.5,0.5
		c0,0,0,0,0,0c0.1,0.1,0.2,0.2,0.2,0.4c0.7,1.5,0.3,2.9-0.6,4.2C123.3,62.4,123.1,62.2,122.9,62z"/>
	<path class="st4" d="M116.9,61.4c0.1-1,0.9-0.8,1.4-0.9c1.5-0.2,2.7,0.6,3.8,1.5c0.1,0.4,0.2,1.2-0.4,0.7
		C120.3,61.4,118.6,61.5,116.9,61.4z"/>
	<path class="st4" d="M105.2,61.7c0,0.3-0.3,0.4-0.5,0.4c-1.4,0.4-2.8,1.1-3.9,2.1c-0.2,0.2-0.5,0.3-0.8,0.1c-0.3-0.3,0-0.5,0.2-0.7
		c1.2-1.2,2.7-1.9,4.3-2.2C104.9,61.2,105.2,61.4,105.2,61.7z"/>
	<path class="st13" d="M99.8,75.2c-0.4-1.2-0.4-2.4-0.3-3.6C100.6,72.5,100.8,74,99.8,75.2z"/>
	<path class="st4" d="M51,305.8c-1.4-0.5-2.9-0.5-4.4-0.4c-0.4,0-0.9,0-1-0.5c-0.1-0.6,0.5-0.5,0.8-0.6c2-0.4,4,0.2,5.9,0.5
		c0.8,0.4,1.6,0.8,2.4,1.1c0.4,0.2,0.6,0.6,0.4,1c-0.2,0.4-0.6,0.2-0.9,0.1C53.1,306.4,52.1,305.9,51,305.8z"/>
	<path class="st1" d="M72,300.6c0,0.2,0.1,0.5-0.3,0.5C71.5,300.8,71.8,300.8,72,300.6z"/>
	<path class="st4" d="M106.7,171.3c-0.2,0-0.4,0-0.6,0.1c-0.1-0.1-0.2-0.2-0.3-0.3C106.1,171.1,106.4,171,106.7,171.3z"/>
	<path class="st4" d="M82.7,171.1c0.1,0,0.2,0.1,0.3,0.1c-0.1,0-0.2,0.1-0.4,0.1C82.6,171.2,82.7,171.2,82.7,171.1z"/>
	<path class="st4" d="M90.2,169.7c0.1-0.1,0.2-0.1,0.3,0C90.4,169.8,90.3,169.8,90.2,169.7z"/>
	<path class="st4" d="M85.2,171.4c-0.1,0.1-0.3,0.1-0.4,0.2C85,171.5,85.1,171.5,85.2,171.4z"/>
	<path class="st4" d="M85.9,170.4c0.1-0.1,0.3-0.1,0.4-0.2C86.2,170.3,86,170.4,85.9,170.4z"/>
	<path class="st4" d="M87,171.1c-0.1,0.1-0.3,0.1-0.4,0.2C86.8,171.2,86.9,171.2,87,171.1z"/>
	<path class="st4" d="M88.9,170.8c-0.2,0.1-0.3,0.1-0.5,0.2C88.6,170.9,88.7,170.9,88.9,170.8z"/>
	<path class="st4" d="M100.1,170.7l-0.1,0c0,0-0.1,0-0.1,0C99.9,170.7,100,170.7,100.1,170.7z"/>
	<path class="st14" d="M155.3,304.2c3.5-1.7,7.2-3,11.1-3.2c3.2-0.2,6.3,0,8.9,2.2c-1.4,0.1-2.9,0.2-4.3,0.3
		c0.6-0.7,0.6-1.2-0.5-1.2c-3.3,0.1-6.1,1.3-8.5,3.5c-0.2,0.2-0.2,0.4-0.2,0.7c-1.1,0.6-2.3,1.7-3.4,1.6c-1.1-0.1-1.5-1.8-2.3-2.7
		C155.8,305.1,155.4,304.7,155.3,304.2z"/>
	<path class="st4" d="M161.9,306.5c0-0.3,0-0.5,0.2-0.7c2.4-2.2,5.2-3.4,8.5-3.5c1.1,0,1.1,0.4,0.5,1.2c0,0-0.1,0-0.1,0
		c-1.8-0.1-3.4,0.2-4.9,1.2c0,0,0,0,0,0c-0.3,0-0.5,0-0.6,0.3c-0.8,0.4-1.5,0.8-2.2,1.5C162.8,306.8,162.3,306.9,161.9,306.5z"/>
	<path class="st3" d="M166,304.7c1.5-1,3.2-1.3,4.9-1.2C169.3,304,167.7,304.5,166,304.7z"/>
	<path class="st3" d="M165.4,304.9c0.1-0.3,0.4-0.3,0.6-0.3C165.9,305,165.6,305,165.4,304.9z"/>
	<path class="st11" d="M110.7,55.5c-2.1,1.2-4.4,2-6.7,2.7c-0.8-0.5-1.6-0.8-2.1-1.5C104.7,55.7,107.6,54.6,110.7,55.5z"/>
	<path class="st12" d="M101.9,56.7c0.6,0.7,1.4,1.1,2.1,1.5c-0.8,0.3-1.6,0.6-2.3,0.9c-0.5-0.8-1.3-1-2.1-1.3
		C100.2,57.3,100.5,55.8,101.9,56.7z"/>
	<path class="st13" d="M99.5,57.8c0.8,0.2,1.6,0.5,2.1,1.3c-1,0.6-2.2,0.8-3.4,1C98.4,59.1,98.9,58.5,99.5,57.8z"/>
	<path class="st14" d="M214.2,26.9c-0.1-0.5,0.1-1.1-0.3-1.5c0.7-0.5,1.6-0.5,2.6-0.7C216.2,26,215.4,26.6,214.2,26.9z"/>
	<path class="st12" d="M175.9,62.3c0-0.7,0.2-1.2,1-1.2C176.6,61.5,176.2,61.9,175.9,62.3z"/>
	<path class="st12" d="M210.5,16.4c-0.1,0.1-0.3,0.3-0.4,0.4c-0.1-0.1-0.1-0.1-0.2-0.2c0.1-0.2,0.3-0.3,0.4-0.5
		C210.4,16.2,210.4,16.3,210.5,16.4z"/>
	<path class="st12" d="M211.2,20.4c0.1-0.2,0.3-0.3,0.4-0.5c0.1,0.1,0.2,0.2,0.2,0.2c-0.2,0.1-0.3,0.3-0.5,0.4
		C211.3,20.5,211.3,20.4,211.2,20.4z"/>
	<path class="st12" d="M177.1,60.9c0-0.3,0-0.6,0.4-0.7C177.6,60.6,177.3,60.7,177.1,60.9z"/>
	<path class="st12" d="M177.4,60.3c0-0.2,0.1-0.3,0.3-0.3C177.8,60.2,177.7,60.4,177.4,60.3z"/>
	<path class="st12" d="M177.7,60c0-0.2,0.1-0.3,0.3-0.3C178.1,59.9,178,60,177.7,60z"/>
	<path class="st12" d="M178,59.7c0-0.2,0.1-0.3,0.3-0.3C178.3,59.5,178.3,59.7,178,59.7z"/>
	<path class="st12" d="M178.3,59.4c0.1-0.1,0.2-0.2,0.3-0.3C178.6,59.3,178.5,59.4,178.3,59.4z"/>
	<path class="st12" d="M178.6,59.1c0.1-0.1,0.3-0.2,0.4-0.3C178.9,58.8,178.7,59,178.6,59.1z"/>
	<path class="st12" d="M211.4,20.5c-0.1,0-0.3,0.1-0.4,0.1c-0.1-0.2,0-0.2,0.2-0.3C211.3,20.4,211.3,20.5,211.4,20.5z"/>
	<path class="st12" d="M210.1,16.8c0,0.1-0.1,0.3-0.3,0.2c0,0,0.1-0.2,0.1-0.3C210,16.7,210,16.7,210.1,16.8z"/>
	<path class="st1" d="M184.3,39.9c-0.1,0.1-0.2,0.3-0.3,0.3c-0.3-0.1-0.1-0.3,0-0.4C184.1,39.8,184.2,39.8,184.3,39.9z"/>
	<path class="st7" d="M114,83.1c-1.3,0.4-2.6,0.5-3.8-0.4C111.5,81.7,112.8,82.1,114,83.1z"/>
	<path class="st12" d="M116.5,79.1c1.1,0.2,2.2-0.2,3.3-0.3C119,80.3,118.9,80.3,116.5,79.1z"/>
	<path class="st12" d="M119.8,78.8c0.1-0.3,0.3-0.3,0.6-0.3C120.3,78.8,120.1,78.9,119.8,78.8z"/>
	<path class="st12" d="M121.1,69.4c0,0.5-0.2,1.5-1.2,1.8c-1.4,0.6-2.6,0-3.6-1c-0.9-0.9-1.1-1.9-0.7-3.1c0.3-0.9,1.4-1.3,1.2-2.4
		c0-0.2,0.7-0.2,1.1-0.2C119.6,64.8,121.1,66.8,121.1,69.4z M118.6,67.1c-0.6,0-1.2,0.2-1.7,0.6c-0.4,0.3-1.1,0.6-0.8,1.1
		c0.4,0.6,0.8-0.1,1.2-0.3c0.8-0.4,1.5-0.9,2.2,0.1c0.2,0.3,0.2,1.3,0.9,0.9c0.6-0.4,0-1.1-0.3-1.5C119.8,67.3,119.3,67,118.6,67.1z
		"/>
	<path class="st8" d="M115,65.5c0.1-0.1,0.3-0.2,0.3-0.2c0.3,0.2,0,0.3,0,0.4C115.2,65.7,115.1,65.6,115,65.5z"/>
	<path class="st7" d="M124.1,58.4c-0.1-0.1-0.2-0.2-0.2-0.4C124,58.1,124,58.2,124.1,58.4z"/>
	<path class="st4" d="M97.7,110.9c4-0.1,7.9,0.5,11.7,1.8c0.4,0.1,1.2,0.1,1,0.8c-0.2,0.7-0.9,0.2-1.3,0c-5.9-2-12-2.1-18.1-1.3
		c-1.9,0.3-3.8,0.5-5.8,0.8c-0.4,0.1-0.9,0.4-1-0.3c-0.1-0.5,0.4-0.6,0.8-0.7C89.2,111.5,93.4,110.8,97.7,110.9z"/>
	<path class="st4" d="M127,115.1c-2.3-0.5-4.6-1.2-6.8-2.3c-0.3-0.1-0.5-0.4-0.3-0.7c0.2-0.4,0.5-0.2,0.8-0.1
		c2.2,0.9,4.4,1.7,6.6,2.2c0.3,0.1,0.6,0.2,0.5,0.6C127.8,115.2,127.4,115,127,115.1z"/>
	<path class="st5" d="M138.1,102.5c-0.2-0.2-0.4-0.4-0.3-0.7C138.1,102,138.1,102.3,138.1,102.5z"/>
	<path class="st5" d="M137.8,101.9c-0.2,0-0.3-0.1-0.3-0.3C137.6,101.7,137.7,101.8,137.8,101.9z"/>
	<path class="st5" d="M137.5,101.6c-0.1-0.1-0.2-0.2-0.3-0.3C137.4,101.4,137.4,101.5,137.5,101.6z"/>
	<path class="st4" d="M105.8,151.9c2.8,0.5,5.7,1,8.5,1.5c0.8,0.3,1.6,0.6,2.4,0.8c3,0.7,5.8,2,8.9,2.2c0,0,0,0,0,0
		c0.3,0.4,0.8,0.3,1.2,0.2c1.5,0.3,3,0.2,4.5,0.1c0.8,1.1-0.3,0.9-0.7,1c-2.4,0.3-4.8-0.1-7.1-0.6c-4.3-1.1-8.5-2.6-13-3.4
		c-9.3-1.7-18.5-1.2-27.7,1.1c-0.9,0.2-1.7,0.5-2.6,0.7c-0.4,0.1-0.9,0.3-1-0.3c-0.1-0.4,0.4-0.5,0.7-0.6c3.7-1.1,7.5-1.9,11.4-2.4
		c3.9-0.5,7.8-0.6,11.8-0.5c0,0,0-0.1,0-0.1C103.9,152.1,104.9,151.8,105.8,151.9z"/>
	<path class="st5" d="M125.6,156.4c-3.1-0.2-5.9-1.5-8.9-2.2c-0.8-0.2-1.6-0.5-2.4-0.8c2.7,0.1,5.1,1.1,7.6,1.8
		C123.2,155.5,124.5,155.6,125.6,156.4z"/>
	<path class="st5" d="M105.8,151.9c-0.9-0.1-1.9,0.2-2.7-0.3C104,151.7,105,151.3,105.8,151.9z"/>
	<path class="st5" d="M126.7,156.6c-0.4,0-0.9,0.1-1.2-0.2C125.9,156.5,126.4,156.2,126.7,156.6z"/>
	<path class="st9" d="M113.6,97.1c0.1,0.1,0.2,0.2,0.3,0.3c-0.1,0-0.1,0.1-0.2,0.1C113.6,97.3,113.6,97.2,113.6,97.1
		C113.6,97.1,113.6,97.1,113.6,97.1z"/>
	<path class="st8" d="M102.3,69c0-2.1,1.5-4.3,3-4.3c2.1,0,4.3,2.2,4.4,4.3c0,2-1.8,3.9-3.7,4C104,73.1,102.3,71.1,102.3,69z
		 M106.3,67.6c-1,0-1.8,0.3-2.3,1.1c-0.2,0.3-0.3,0.7,0.1,0.9c0.4,0.2,0.5-0.2,0.6-0.4c0.7-0.8,1.6-1.2,2.5-0.3
		c0.3,0.3,0.4,1,0.9,0.6c0.4-0.4,0-0.8-0.3-1.1C107.5,67.9,107,67.6,106.3,67.6z"/>
	<path class="st4" d="M118.6,67.1c0.7-0.1,1.2,0.2,1.5,0.8c0.3,0.5,0.9,1.1,0.3,1.5c-0.6,0.4-0.6-0.5-0.9-0.9
		c-0.7-1-1.4-0.5-2.2-0.1c-0.4,0.2-0.9,0.9-1.2,0.3c-0.3-0.5,0.4-0.8,0.8-1.1C117.4,67.3,118,67,118.6,67.1z"/>
	<path class="st4" d="M106.3,67.6c0.6,0,1.2,0.3,1.6,0.8c0.2,0.4,0.7,0.8,0.3,1.1c-0.5,0.4-0.7-0.3-0.9-0.6c-0.9-1-1.8-0.6-2.5,0.3
		c-0.2,0.2-0.3,0.6-0.6,0.4c-0.4-0.2-0.3-0.6-0.1-0.9C104.5,68,105.3,67.6,106.3,67.6z"/>
</g>
</svg>
