<?xml version="1.0" encoding="utf-8"?>
<!-- Generator: Adobe Illustrator 20.0.0, SVG Export Plug-In . SVG Version: 6.00 Build 0)  -->
<svg version="1.1" id="Capa_1" xmlns="http://www.w3.org/2000/svg" xmlns:xlink="http://www.w3.org/1999/xlink" x="0px" y="0px"
	 viewBox="0 0 384.9 1086" style="enable-background:new 0 0 384.9 1086;" xml:space="preserve">
<style type="text/css">
	.st0{fill:#A7A19F;}
	.st1{fill:#BFBABB;}
	.st2{fill:#726B68;}
	.st3{fill:#8D8C8C;}
	.st4{fill:#F7E4D7;}
	.st5{fill:#C9A28B;}
	.st6{fill:#233875;}
	.st7{fill:#18223D;}
	.st8{fill:#55F7CC;}
	.st9{fill:#20957C;}
	.st10{fill:#FAD68C;}
	.st11{fill:#C79D4B;}
	.st12{fill:#FFFFFF;}
	.st13{fill:#988F8C;}
	.st14{fill:#2B2523;}
	.st15{fill:#F1D2BF;}
	.st16{fill:none;}
	.st17{fill:#A01D29;}
	.st18{fill:#E53237;}
	.st19{fill:#CA1735;}
	.st20{opacity:0.4;}
	.st21{clip-path:url(#SVGID_2_);fill:#FFFFFF;}
	.st22{fill:#A20015;}
	.st23{fill:#221E20;}
	.st24{fill:#1D1E1C;}
</style>
<g>
	<path class="st0" d="M384.9,1058.8c0,15.1-86.2,27.4-192.5,27.4S0,1073.9,0,1058.8s86.2-27.4,192.5-27.4
		C298.7,1031.4,384.9,1043.7,384.9,1058.8"/>
	<path class="st1" d="M234.3,46.2c8.8,2.9,18.9,0.2,21.8-14.8c1.1-5.7,0-17.4-13.6-19.1c-11.5-1.4-23.9,20.4-14.3,29.6
		C228.2,41.8,232.2,45.5,234.3,46.2"/>
	<path class="st2" d="M240.4,48C240.4,48,240.4,48,240.4,48c-2.1,0-4.2-0.4-6.4-1.1c-2.3-0.8-6.2-4.4-6.4-4.5
		c-4-3.9-4.8-10.3-2-17.3c2.7-6.8,9-13.6,15.7-13.6c0.4,0,0.8,0,1.2,0.1c5.1,0.6,9,2.7,11.5,6.2c3.1,4.3,3.4,10,2.7,13.8
		C254.8,42,248.8,48,240.4,48z M241.4,12.9c-6.1,0-11.8,6.4-14.4,12.7c-2.6,6.4-1.9,12.2,1.6,15.7c1.1,1,4.2,3.7,5.8,4.2
		c2,0.7,4,1,5.9,1c7.7,0,13-5.4,14.9-15.3c0.7-3.6,0.4-8.8-2.4-12.7c-2.3-3.1-5.8-5-10.5-5.6C242.1,12.9,241.8,12.9,241.4,12.9z"/>
	<path class="st0" d="M215.6,87.7c0,0,8.8-39.2,15-43.8l3.7,2.3c-7,9.6-14.6,43.4-14.6,43.4L215.6,87.7z"/>
	<path class="st2" d="M219.7,90.3c-0.1,0-0.2,0-0.3-0.1l-4.2-1.9c-0.3-0.1-0.5-0.5-0.4-0.8c0.4-1.6,9-39.6,15.3-44.2
		c0.2-0.2,0.6-0.2,0.8,0l3.7,2.3c0.2,0.1,0.3,0.3,0.3,0.5c0,0.2,0,0.4-0.1,0.6c-6.8,9.4-14.4,42.7-14.4,43.1c0,0.2-0.2,0.4-0.4,0.5
		C220,90.3,219.9,90.3,219.7,90.3z M216.4,87.2l2.8,1.3c1.2-5.3,7.8-32.6,14-42.1l-2.6-1.6C225.9,49.4,218.9,76.3,216.4,87.2z"/>
	<path class="st3" d="M245.1,33.3c1.8,0.7,2.3,2.1,2.9,3.9c0.6,1.8-0.5,4.6-2.8,5.9c-2.6,1.5-4.6,2.3-8.6,0.8
		c-5.8-2.2-6.5-3.4-7.8-6.1c-1.5-2.9-3-5-0.1-8.1c2-2.1,3.1-2.2,6.4,1.6c3.3,3.8,3.8,2.9,5.6,2.9C242.4,34.2,244.1,32.9,245.1,33.3"
		/>
	<path class="st4" d="M265.9,543.6c0,0,2.7,33.2,6.8,51.8c1.8,8.1,3.2,12.8,5.8,14.5c1.7,1.2,4.2-0.3,7.4-4.1
		c2-2.4,30-58.6,31.9-71.1l17.2,3.4c0,0-24.8,74.4-36.3,85.8c-12.6,12.4-24.5,15.3-30.5,8c-4.9-6-12.3-8.8-19.7-53.3
		c-7.9-47.5-4.2-40.5-4.2-40.5L265.9,543.6z"/>
	<path class="st5" d="M276.8,636.8c-3.8,0-7-1.5-9.3-4.3c-0.6-0.7-1.2-1.4-1.9-2.1c-4.9-5.2-11.5-12.3-18-51.6
		c-6.5-39.3-5.1-40.9-4.6-41.6c0.2-0.3,0.5-0.4,0.8-0.4c0.4,0,0.7,0.2,0.9,0.5l21.3,5.4c0.4,0.1,0.6,0.4,0.7,0.8
		c0,0.3,2.7,33.3,6.8,51.7c1.8,7.9,3.2,12.5,5.5,14c0.2,0.2,0.5,0.2,0.8,0.2l0,0c0.9,0,2.5-0.7,5.4-4.2c1.8-2.1,29.9-58.4,31.7-70.6
		c0-0.2,0.2-0.5,0.4-0.6c0.2-0.1,0.5-0.2,0.7-0.1l17.2,3.4c0.3,0.1,0.5,0.2,0.6,0.4c0.1,0.2,0.2,0.5,0.1,0.7c-1,3-25,74.7-36.5,86.1
		C291.3,632.4,283.3,636.8,276.8,636.8C276.8,636.8,276.8,636.8,276.8,636.8z M244.4,539.1c-0.2,2.2,0.2,10.3,5,39.5
		c6.4,38.8,12.8,45.6,17.5,50.7c0.7,0.7,1.3,1.4,2,2.2c2,2.4,4.6,3.6,7.9,3.6c0,0,0,0,0,0c6.1,0,13.6-4.2,21.3-11.7
		c10.5-10.4,32.8-75.7,35.8-84.5l-15.3-3c-3,14.7-30.3,68.7-31.9,70.6c-2.7,3.3-4.9,4.8-6.8,4.8l0,0c-0.6,0-1.2-0.2-1.8-0.5
		c-2.8-1.9-4.2-6.4-6.2-15.1c-3.8-17.1-6.4-46.6-6.8-51.3L244.4,539.1z"/>
	<path class="st6" d="M251.8,627.2c10.1,24.9,16.1,263.4,13.4,382.4c0,0-4.5,0.5-13.3,0.6c-8.9,0.1-16.6-1.6-16.6-1.6
		S242,855.1,222,691.4c-2.9-0.8-2.8-3.9-0.6-5.1c0,0-13.8,2.5-34.3,0.8c2,1.9,1.7,4.5-0.2,6.4c-4.2,133.6-6.1,184.7-7.2,316.6
		c0,0-6.4,2-18.3,1.9c-9.2,0-14.3-2.8-14.3-2.8s-15.7-347-10.9-382C136.2,627.3,196.9,609.9,251.8,627.2"/>
	<path class="st7" d="M161.6,1013h-0.2c-9.3,0-14.6-2.8-14.8-2.9l-0.5-0.3l0-0.6c-0.2-3.5-15.6-347.5-10.9-382.2l0.1-0.6l0.6-0.2
		c0.3-0.1,27.6-7.8,61.7-7.8c19.9,0,38.2,2.6,54.5,7.7l0.4,0.1l0.2,0.4c10.4,25.6,16.1,264.1,13.5,382.8l0,0.8l-0.8,0.1
		c-0.2,0-4.6,0.5-13.4,0.6l-0.6,0c-8.6,0-16-1.6-16.3-1.7l-0.8-0.2l0-0.8c0.1-1.5,6.4-154.8-13.2-316.3c-1.3-0.6-2.1-1.6-2.3-2.9
		c-0.1-0.5,0-1.1,0.2-1.6c-3.3,0.4-9.6,1-18,1c-4,0-8-0.1-12-0.4c0.3,0.6,0.4,1.3,0.4,1.9c0,1.3-0.6,2.7-1.6,3.8l-1,31.4
		c-3.6,112.6-5.2,163.9-6.2,284.8l0,0.7l-0.7,0.2C179.8,1011.1,173.5,1013,161.6,1013z M148.1,1008.7c1.5,0.6,6.1,2.4,13.4,2.4h0.2
		c9.3,0,15.2-1.2,17.2-1.7c1-120.4,2.6-171.8,6.2-284.1l1-32.1l0.3-0.3c0.8-0.8,1.3-1.7,1.3-2.7c0-0.8-0.4-1.7-1.1-2.3l-1.9-1.9
		l2.6,0.2c4.6,0.4,9.3,0.6,13.9,0.6c12.3,0,20.1-1.4,20.2-1.4l5.9-1l-5.2,2.8c-0.7,0.4-1.2,1.1-1.1,1.8c0.1,0.7,0.6,1.2,1.5,1.4
		l0.6,0.2l0.1,0.6c19,155.8,13.8,304,13.3,316.4c2.1,0.4,8.3,1.5,15,1.5l0.6,0c6.5-0.1,10.7-0.3,12.4-0.5
		c2.5-115.4-3.2-353.7-13.2-380.7c-15.9-5-33.9-7.5-53.5-7.5c-31,0-56.3,6.4-60.5,7.5C132.7,665.2,147.3,992.6,148.1,1008.7z"/>
	<path class="st7" d="M187,688.1c-0.3,0-6.4-0.6-11.1-3l0.9-1.7c4.4,2.2,10.3,2.8,10.4,2.8L187,688.1z"/>
	<path class="st7" d="M185.2,694.7c-2.7,0-5.8-0.9-6-0.9l0.5-1.9c1.3,0.4,5.1,1.2,7,0.7l0.5,1.9
		C186.6,694.6,185.9,694.7,185.2,694.7z"/>
	<path class="st7" d="M221.5,687.3l-0.2-1.9c0.1,0,7.3-0.9,11.9-3.3l0.9,1.7C229.2,686.3,221.8,687.2,221.5,687.3z"/>
	<path class="st7" d="M222.1,692.4l0-1.9c0,0,4.4-0.1,6.7-0.9l0.7,1.8C226.7,692.3,222.2,692.4,222.1,692.4z"/>
	<path class="st7" d="M213.5,687.6l-1.8-0.7c0.1-0.2,6.2-16.6,2.3-40.8l1.9-0.3C219.9,670.6,213.7,687,213.5,687.6z"/>
	<path class="st7" d="M204,687.9l-1.9-0.4c0-0.2,3.7-16.6,2.1-32.7l1.9-0.2C207.8,671,204,687.7,204,687.9z"/>
	<path class="st4" d="M113.7,563.6c0,0-9,40.9-7.4,48.5c2.2,10.8,15.5,74.7,15.5,74.7l-21.9,4c0,0-14-33.8-21.7-80.7
		c-1.9-11.4,8.8-53.3,8.8-53.3"/>
	<path class="st5" d="M99.8,691.8c-0.4,0-0.7-0.2-0.8-0.6c-0.1-0.3-14.1-34.4-21.8-80.9c-1.9-11.4,8.4-51.9,8.8-53.6
		c0.1-0.5,0.6-0.8,1.1-0.7c0.5,0.1,0.8,0.6,0.6,1.1c-0.1,0.4-10.6,41.8-8.8,52.9c7,42.7,19.4,74.8,21.4,79.8l20.3-3.7
		c-1.6-7.8-13.2-63.8-15.3-73.8c-1.6-7.7,7.1-47.2,7.4-48.9c0.1-0.5,0.6-0.8,1.1-0.7c0.5,0.1,0.8,0.6,0.7,1.1
		c-0.1,0.4-8.9,40.8-7.4,48.1c2.2,10.8,15.5,74.7,15.5,74.7c0,0.2,0,0.5-0.1,0.7c-0.1,0.2-0.3,0.3-0.6,0.4l-21.9,4
		C99.9,691.8,99.9,691.8,99.8,691.8z"/>
	<path class="st8" d="M115.9,564.2c2.2-8.2,4.4-16.2,5.9-22.7c1.9,1.9,4.2,1.4,4.8,0c4.3,19.6,10.5,51.3,10.5,51.3l-2.9,74.7
		c0,0,47.4,12.8,78,7.6c21.5,3.4,46.9-4.3,46.9-4.3l-2.3-34.9l-0.5-10.8l-1.1-73.5l15.6-1c0,0-1.2,3.6,1.6-32
		c0.9-13.3,1.5-29.7-2-33c-3.5-3.3-11.4-11-30.2-12.6c-18.9-1.6-109.9,4.3-121.9,4.9c0,0-10.1,1.3-15.4,6.1
		c-5.3,4.8-12.1,18.9-12.8,40.9c-1.2,10.6-5,31.3-5,31.3L115.9,564.2z"/>
	<path class="st9" d="M195.5,677.6c-28.5,0-61.4-8.8-61.7-8.9l-1-0.3l2.9-75.6c-0.5-2.3-5.9-30.3-10-49c-0.9,0.3-2.1,0.3-3.1-0.2
		c-1.4,5.9-3.2,12.7-5.5,20.8l-0.3,1.2l-33.4-8.3l0.2-1.2c0-0.2,3.8-20.7,5-31.2c0.7-21.1,7.1-36.2,13.3-41.8
		c5.5-5.1,15.7-6.4,16.2-6.5l0.1,0c2.1-0.1,6.6-0.4,12.7-0.7c24.6-1.4,75.9-4.4,99.9-4.4c4.2,0,7.4,0.1,9.6,0.3
		c18.8,1.6,26.8,9,30.7,12.6l0.3,0.3c3.2,2.9,3.9,13.1,2.4,34c-1.7,21.2-1.9,28.2-1.8,30.5l0.8-0.1l-0.6,1.7l0.3,1l-1.2,0
		c-0.2,0.1-0.4,0.1-0.6,0.1c0,0,0,0,0,0c-0.1,0-0.3,0-0.4-0.1l-13.8,0.9l1.1,72.2l0.5,10.7l2.3,35.9l-1,0.3
		c-0.2,0.1-17.5,5.2-35.5,5.2c-4.2,0-8.2-0.3-11.9-0.8C207.2,677.2,201.7,677.6,195.5,677.6z M135.5,666.5c5.8,1.5,34.7,8.5,60,8.5
		c6.1,0,11.6-0.4,16.3-1.2l0.2,0l0.2,0c3.6,0.6,7.5,0.8,11.7,0.8c15.1,0,29.8-3.7,33.7-4.8l-2.2-33.8l-0.5-10.8l-1.2-74.8l15.4-1
		c-0.1-2.7,0.2-10,1.8-30.8c1.7-23.6,0.1-30.4-1.6-31.9l-0.3-0.3c-3.6-3.4-11.2-10.4-29.1-11.9c-2.1-0.2-5.2-0.3-9.3-0.3
		c-23.9,0-75.1,3-99.7,4.4c-6.1,0.4-10.5,0.6-12.7,0.7c-0.7,0.1-9.9,1.4-14.7,5.8c-4.3,3.9-11.7,16.7-12.4,40l0,0.1
		c-1,9-4,25.6-4.8,30.2l28.4,7.1c2.3-8.4,4.2-15.4,5.5-21.4l0.5-2.4l1.7,1.7c0.5,0.6,1.2,0.9,1.7,0.9c0.5,0,0.8-0.2,0.9-0.4l1.6-3.8
		l0.9,4c4.3,19.4,10.4,51,10.5,51.3l0,0.2L135.5,666.5z"/>
	<path class="st9" d="M255,625.3l-1.2-23.3c-1-41.3,0.6-64.3,1.4-75.4c0.3-4,0.5-6.7,0.4-7.8l2.6-0.3c0.1,1.4-0.1,4-0.4,8.3
		c-0.8,11-2.5,34-1.4,75.1l1.2,23.2L255,625.3z"/>
	<path class="st9" d="M257.6,530.1l-1.4-2.2c4.1-2.6,6.2-5.2,6.2-5.2l2,1.7C264.4,524.4,262,527.3,257.6,530.1z"/>
	
		<rect x="124.3" y="531.3" transform="matrix(0.9877 -0.1563 0.1563 0.9877 -82.2948 26.2358)" class="st9" width="2.7" height="10.2"/>
	<path class="st9" d="M120.6,542.2c-0.1-0.1-1.9-3-2.5-7.2l2.6-0.4c0.6,3.7,2.1,6.2,2.2,6.2L120.6,542.2z"/>
	<path class="st4" d="M298.2,305.9c-3-26.6-6.9-92-12.3-136.8c-4.7-38.9-35-52.7-48.8-58.7c-25.1-10.9-116.5-2.1-127.2,68.9
		c-4.4,28.9,2.8,86.7,2.8,86.7S72,252,88.1,303.6c5.2,16.7,28.2,7,28.2,7s49,110.1,39.8,165.3c27.9,30.6,45.8,31.3,54.5-3
		C225.3,420.3,305.7,371.3,298.2,305.9"/>
	<path class="st5" d="M190,499.7C190,499.7,190,499.7,190,499.7c-9.1,0-20.5-7.6-34.6-23.1c-0.2-0.2-0.3-0.5-0.2-0.8
		c8.7-51.8-35-154-39.4-164c-2,0.7-7.4,2.5-13.1,2.5c-8,0-13.4-3.6-15.5-10.5c-5-16-5.1-27.5-0.2-34.1c3.1-4.2,8.1-6.4,14.7-6.4
		c4.1,0,7.9,0.8,9.8,1.4c-1-8.9-6.5-59.4-2.6-85.6c3.7-24.7,17.9-44.7,40.8-57.8c17.7-10.1,40.4-15.8,62.2-15.8
		c10.5,0,19.6,1.4,25.4,4c13.3,5.8,44.5,19.3,49.4,59.4c3.2,26.4,5.8,59.3,8.1,88.4c1.6,20.1,3,37.5,4.2,48.4
		c4.5,39.4-22.2,72.4-47.9,104.3c-17.4,21.6-33.9,42-39.8,63.1C206.9,491,199.9,499.7,190,499.7z M157,475.6
		c13.7,15,24.5,22.2,33,22.2c0,0,0,0,0,0c8.9,0,15.4-8.2,19.7-25.1c6-21.5,22.6-42,40.1-63.8c25.5-31.7,51.9-64.4,47.5-103
		c-1.2-11-2.6-28.4-4.2-48.5c-2.3-29.1-4.9-62-8.1-88.3c-4.7-39.1-35.3-52.3-48.3-58c-5.6-2.4-14.6-3.8-24.7-3.8
		c-33.6,0-92.7,15.2-101.3,72.1c-4.3,28.5,2.7,85.9,2.8,86.5c0,0.3-0.1,0.6-0.3,0.8c-0.2,0.2-0.6,0.3-0.9,0.2c0,0-4.9-1.7-10.5-1.7
		c-6.1,0-10.5,1.9-13.3,5.6c-4.5,6.1-4.3,17.1,0.5,32.5c1.9,6.1,6.5,9.2,13.8,9.2c6.7,0,13.1-2.7,13.2-2.7c0.5-0.2,1,0,1.2,0.5
		C117.6,311.4,165.9,420.7,157,475.6z"/>
	<path class="st7" d="M257.9,994.6l-1.9,0c0-1.4,0.5-141.4-2.4-224.1l1.9-0.1C258.3,853.2,257.9,993.2,257.9,994.6z"/>
	<path class="st7" d="M157.6,997.7c-0.1-1.4-5.6-138.6-7.6-223.9l1.9,0c2,85.2,7.5,222.4,7.6,223.8L157.6,997.7z"/>
	<path class="st4" d="M135,694.8c7.6-1.7,18.3,7.1,2.4,19.6c-15.8,12.4-22.9-0.5-21.2-4.4"/>
	<path class="st5" d="M125.3,720.3c-2.8,0-4.9-1-6.1-2c-3.2-2.4-4.4-6.5-3.5-8.6c0.1-0.3,0.5-0.5,0.9-0.4c0.3,0.1,0.5,0.5,0.4,0.9
		c-0.6,1.4,0.3,4.9,3.1,7c2.4,1.8,7.8,3.8,17.1-3.4c6.6-5.1,9.2-10.4,7.3-14.4c-1.5-3-5.6-4.9-9.2-4c-0.4,0.1-0.7-0.1-0.8-0.5
		c-0.1-0.4,0.1-0.7,0.5-0.8c4.3-1,9,1.1,10.7,4.8c1,2.2,2.4,8.1-7.7,16C132.6,719,128.4,720.3,125.3,720.3z"/>
	<polyline class="st10" points="116.3,707 140.7,685.4 143.2,692 113.7,714.2 	"/>
	<path class="st11" d="M113.7,714.9c-0.2,0-0.4-0.1-0.5-0.3c-0.2-0.3-0.2-0.7,0.1-0.9l29.2-21.9l-2-5.4l-23.8,21
		c-0.3,0.2-0.7,0.2-0.9-0.1c-0.2-0.3-0.2-0.7,0.1-0.9l24.4-21.6c0.2-0.1,0.4-0.2,0.6-0.1c0.2,0,0.4,0.2,0.4,0.4l2.5,6.7
		c0.1,0.3,0,0.6-0.2,0.7l-29.5,22.2C114,714.8,113.8,714.9,113.7,714.9z"/>
	<path class="st4" d="M139.5,672.9c0,0,10.8,15.5,4.9,22.1c-5.9,6.5-10.1,2.1-10.1,2.1s1.9,5.5-4.6,9.3c-6.5,3.8-10.3-2.2-10.3-2.2
		s2.8,2.8-0.3,5.8c-3.1,3-11.1,3.6-15.5-4.3c-4.5-7.8-10.1-19.1-0.8-25.9C118.6,668.1,130.8,663.5,139.5,672.9"/>
	<path class="st5" d="M113.3,712.7c-4.2,0-8-2.4-10.4-6.7c-3.6-6.2-11-19.2-0.6-26.8c11.4-8.3,19.4-12.1,26.1-12.1
		c4.5,0,8.3,1.7,11.6,5.3c0.5,0.7,11.1,16.1,4.9,23c-2.3,2.5-4.6,3.8-6.9,3.8c-1.1,0-2.1-0.3-2.8-0.7c0.1,2.1-0.5,5.7-5.1,8.4
		c-1.5,0.9-3,1.3-4.5,1.3c-1.8,0-3.2-0.6-4.3-1.4c0,1.1-0.4,2.3-1.7,3.6C118,711.9,115.7,712.7,113.3,712.7z M128.4,668.5
		c-6.3,0-14.3,3.8-25.3,11.8c-8.3,6.1-4.4,15.6,0.9,25.1c2.2,3.8,5.5,6,9.2,6c2.1,0,4-0.7,5.3-1.9c1.8-1.7,1.4-3.3,0.7-4.3
		c-0.3-0.4-0.5-0.7-0.5-0.7c-0.2-0.3-0.1-0.7,0.1-0.9c0.3-0.2,0.7-0.2,0.9,0c0,0,0.3,0.3,0.6,0.8c0.8,0.9,2.5,2.5,5.1,2.5
		c1.2,0,2.5-0.4,3.8-1.2c5.9-3.4,4.4-8.3,4.3-8.5c-0.1-0.3,0-0.6,0.3-0.8c0.3-0.2,0.6-0.1,0.8,0.1c0,0,1.2,1.2,3.2,1.2
		c1.9,0,3.9-1.1,5.9-3.4c5.5-6.1-4.8-21.1-4.9-21.2C136,670.1,132.5,668.5,128.4,668.5z"/>
	<path class="st4" d="M134.7,697.5c0,0-3.3-3.2-5.3-9.2"/>
	<path class="st5" d="M134.7,698.2c-0.2,0-0.3-0.1-0.5-0.2c-0.1-0.1-3.4-3.4-5.5-9.5c-0.1-0.4,0.1-0.7,0.4-0.9
		c0.4-0.1,0.7,0.1,0.9,0.4c1.9,5.8,5.1,8.9,5.1,8.9c0.3,0.3,0.3,0.7,0,1C135.1,698.1,134.9,698.2,134.7,698.2z"/>
	<path class="st4" d="M119.3,704.2c0,0-2.9-4.3-4.1-9.1"/>
	<path class="st5" d="M119.3,704.8c-0.2,0-0.4-0.1-0.6-0.3c-0.1-0.2-3-4.4-4.2-9.4c-0.1-0.4,0.1-0.7,0.5-0.8
		c0.4-0.1,0.7,0.1,0.8,0.5c1.1,4.7,4,8.9,4,8.9c0.2,0.3,0.1,0.7-0.2,0.9C119.6,704.8,119.5,704.8,119.3,704.8z"/>
	<path class="st12" d="M155.9,277c-1-1-0.1,1.2,2.6,2.4c2.2,1,5.7-0.2,8,0c4.9,0.4,7.6-3.6,10.9-9.3c4.8-8.4,2.5-25.2-4.9-28.7
		c-6-2.9-17-3.2-20.5,5.4c-3.4,8.2-3.4,19.9,0.5,27.3C152.2,274.2,155.9,277,155.9,277"/>
	<path class="st5" d="M159.4,281.7c-5.5,0-9.7-1.9-9.7-2c-0.4-0.2-0.5-0.6-0.3-1c0.2-0.4,0.6-0.5,1-0.3c0.1,0,4.5,2.1,10.2,1.8
		c-1.7-0.5-3.2-1.3-4.7-2.4c-4.9-3.8-7.6-10.7-7.6-19.5c0-3.7,1.5-11.8,7-16.4c3.4-2.8,7.6-3.7,12.5-2.8c5.8,1.1,10.2,5.7,12,12.7
		c2.4,9.2-0.2,19.5-6.3,24.7c-2,1.7-4,2.8-6,3.6c-0.1,0-0.1,0.1-0.2,0.1c0,0-0.1,0-0.1,0C164.4,281.4,161.8,281.7,159.4,281.7z
		 M164.1,240.4c-3.1,0-5.8,0.9-8,2.8c-5.1,4.2-6.4,11.8-6.4,15.2c0,8.4,2.5,14.9,7,18.3c3,2.3,6.6,3.1,10,2.2
		c1.9-0.7,3.9-1.9,5.8-3.5c5.6-4.8,8.1-14.5,5.8-23.2c-1.7-6.4-5.6-10.6-10.9-11.6C166.2,240.5,165.1,240.4,164.1,240.4z"/>
	<path class="st5" d="M97.7,301.3c-0.1,0-0.1,0-0.2,0c-0.4-0.1-0.6-0.5-0.5-0.9c0-0.1,2.9-11.8-1.1-20.5c-0.2-0.4,0-0.8,0.4-1
		c0.4-0.2,0.8,0,1,0.4c4.3,9.2,1.3,21,1.2,21.4C98.3,301.1,98,301.3,97.7,301.3z"/>
	<path class="st5" d="M87.5,299.2c-0.3,0-0.6-0.2-0.7-0.5c-0.2-0.4,0-0.8,0.4-1c4.7-1.9,8.8-5.8,10.3-7.4l-10.4-5
		c-0.4-0.2-0.5-0.6-0.3-1c0.2-0.4,0.6-0.5,1-0.3l11.3,5.5c0.2,0.1,0.4,0.3,0.4,0.5c0,0.2,0,0.5-0.2,0.6c-0.2,0.2-5.3,5.9-11.5,8.5
		C87.7,299.1,87.6,299.2,87.5,299.2z"/>
	<path class="st13" d="M268,231.8c-1.6,0-3.7-0.6-6.1-1.3c-1.8-0.5-3.6-1.1-5.5-1.4c-1.6-0.3-3.3-0.5-5.1-0.5
		c-2.4,0-4.6,0.3-6.6,0.5c-1.4,0.2-2.6,0.3-3.6,0.3c-0.9,0-2-0.1-2.6-0.9c-0.5-0.5-0.6-1.3-0.4-2.3c0.6-3,5.1-4.7,12.4-4.7
		c7.6,0,17.2,1.9,19.9,5.2c0.7,0.8,0.9,1.6,0.8,2.5C271.1,230.5,270.4,231.8,268,231.8"/>
	<path class="st2" d="M250.5,222.4c9.3,0,20.6,2.9,20,6.8c-0.2,1.4-1.1,1.9-2.5,1.9c-2.7,0-7-1.9-11.5-2.7c-1.8-0.3-3.6-0.5-5.2-0.5
		c-4.3,0-7.9,0.8-10.2,0.8c-1.7,0-2.6-0.5-2.3-2.3C239.4,223.6,244.5,222.4,250.5,222.4 M250.5,220.9c-4.5,0-12.3,0.7-13.1,5.3
		c-0.2,1.2,0,2.2,0.6,2.9c0.8,1,2.2,1.1,3.2,1.1c1,0,2.3-0.1,3.7-0.3c1.9-0.2,4.1-0.5,6.5-0.5c1.8,0,3.4,0.1,4.9,0.4
		c1.8,0.4,3.7,0.9,5.5,1.4c2.5,0.7,4.6,1.3,6.3,1.3c3,0,3.8-2,4-3.1c0.1-0.7,0-1.9-1-3.1C268,222.8,258.2,220.9,250.5,220.9"/>
	<path class="st13" d="M144,223.1c-1.6,0-2.8-0.8-3.4-2.3c-0.4-1.1-0.3-2.2,0.5-3.3c3.2-4.7,17.4-8.5,27-8.5c6.3,0,9.9,1.5,10.3,4.4
		c0.1,1.1-0.1,1.9-0.6,2.5c-0.9,1-2.5,1.2-5.1,1.2c-0.6,0-1.2,0-1.9,0c-0.7,0-1.5,0-2.4,0c-2.9,0-6.8,0.2-11,1.4
		c-2.3,0.7-4.6,1.6-6.6,2.5C148.3,222.1,145.9,223.1,144,223.1"/>
	<path class="st2" d="M168.2,209.7c5.2,0,9.2,1.1,9.5,3.8c0.3,2.5-1.6,2.9-4.9,2.9c-1.2,0-2.7,0-4.2,0c-3.2,0-7.1,0.2-11.2,1.4
		c-5.4,1.6-10.3,4.7-13.4,4.7c-1.2,0-2.2-0.5-2.7-1.8C139.2,215.1,156.7,209.7,168.2,209.7 M168.2,208.3c-10,0-24.3,3.9-27.6,8.8
		c-1.1,1.6-0.9,3.1-0.6,4c0.7,1.8,2.1,2.8,4,2.8c2,0,4.5-1,7.3-2.3c2-0.8,4.2-1.8,6.5-2.5c4.1-1.2,7.9-1.3,10.8-1.3
		c0.8,0,1.6,0,2.3,0c0.7,0,1.3,0,1.9,0c2.3,0,4.4-0.1,5.6-1.5c0.7-0.8,0.9-1.8,0.8-3C178.9,211,176.7,208.3,168.2,208.3"/>
	<path class="st14" d="M163.5,264.9c6.9,0,4.5-9.6,0-9.2C157.9,256.2,158.3,264.9,163.5,264.9"/>
	<path class="st12" d="M241.9,273c2.4,3.8,4.4,4.8,7.9,5.9h-0.6c1-0.1,1.8,0.8,2.8,1c1.9,0.5,4-0.5,5.7-1.3c1.8-0.9,5.5-3,6.7-4.9
		c1.5-2.4,3-8.8,3-11.6c0-3.3-0.8-5.7-1.1-9c-0.7-7.4-7.8-11.2-13.5-11.2c-3.5,0-5.3,1-7.5,4.3c-2.3,3.4-4.5,7.1-5.4,11.4
		C239.1,262.7,239.3,268.8,241.9,273"/>
	<path class="st5" d="M257.2,281.2c-3.4,0-7-0.6-10.8-2.5c-6.3-3.1-8-12-7.4-19.3c0.6-7.7,3.8-16.3,9.7-18.2c4.2-1.3,7.9-1,11.1,1
		c4.7,2.9,7.2,9,7.9,13.7c1.8,11.1-1.1,17.2-3.8,20.3c-1.3,1.5-2.9,2.7-4.7,3.5c6.7-0.5,11.5-3.5,11.6-3.5c0.3-0.2,0.8-0.1,1,0.2
		c0.2,0.3,0.1,0.8-0.2,1C271.5,277.4,265.3,281.2,257.2,281.2z M253.5,241.9c-1.4,0-2.8,0.2-4.3,0.7c-4.5,1.4-8,8.3-8.7,16.9
		c-0.5,6.5,0.9,15.2,6.6,17.9c2.1,1,4.1,1.6,6.1,2c0.1,0,0.2,0,0.3,0c0.1,0,0.1,0,0.2,0c3.6,0,6.8-1.5,9.1-4.1
		c2.5-2.9,5.2-8.6,3.5-19.1c-0.7-4.2-3-10-7.3-12.7C257.3,242.4,255.5,241.9,253.5,241.9z"/>
	<path class="st14" d="M250.2,265.4c6.9,0,4.5-9.6,0-9.2C244.6,256.6,245,265.4,250.2,265.4"/>
	<path class="st5" d="M208.7,313.3c-0.1,0-0.1,0-0.2,0c-5.7-0.4-6.4-5.6-6.3-10.6c0-0.5,0.4-0.9,0.9-0.9c0.5,0,0.9,0.4,0.9,0.9
		c-0.1,6.2,1.1,8.6,4.6,8.8c0.4,0,0.9,0,1.5-0.8c0.8-1,1.3-2.7,1.5-4.4c-0.2-1.2-0.3-2.5-0.3-3.7c0-1.9,0.2-3,1.2-3
		c0.3,0,0.7,0.2,0.9,0.5c0.3,0.6,0.5,3.3,0.1,6.1c0.3,1.4,0.7,2.7,1.4,3.8c0.7,1,1.6,1.5,2.6,1.5c0.9,0,1.7-0.5,2.3-1.6
		c0.7-1.1,1.1-2.7,1.3-4.1c-0.4-1.5-0.6-2.9-0.6-3.9c0-0.5-0.1-2.1,1.2-2.2c0.2,0,0.7,0,1,0.6c0.5,0.8,0.6,3.1,0.3,5.5
		c0.4,1.3,0.9,2.7,1.7,3.7c0.8,1.2,1.7,1.8,2.6,1.8c0.4,0,0.6-0.1,0.8-0.4c1.8-2.2-0.2-12-2.5-23.3c-3.2-15.6-7.1-34.9-5.3-51.3
		c0.1-0.5,0.5-0.9,1-0.8c0.5,0.1,0.9,0.5,0.8,1c-1.8,16.1,2.1,35.3,5.3,50.7c2.9,14.4,4.4,22,2.1,24.8c-0.5,0.7-1.3,1-2.2,1
		c0,0,0,0,0,0c-2.3,0-3.9-1.9-5-4.2c-0.2,0.6-0.5,1.2-0.7,1.7c-1.3,2.3-2.9,2.8-4,2.8c-2.3,0-3.9-1.5-4.9-3.6
		c-0.2,0.6-0.5,1.2-0.8,1.7C210.8,313,209.6,313.3,208.7,313.3z"/>
	<path class="st5" d="M207.8,370.7c-0.2,0-0.4-0.1-0.6-0.2c-0.4-0.3-0.4-0.9,0-1.3c4.4-4.6,12.5-3.5,12.8-3.4c0.5,0.1,0.8,0.5,0.8,1
		c-0.1,0.5-0.5,0.8-1,0.8c-0.1,0-7.5-1.1-11.2,2.9C208.2,370.6,208,370.7,207.8,370.7z"/>
	<path class="st15" d="M178.7,298.9c0.9-10.9-17.3-7.7-23.9-7.3c-7.4,0.4-23.5,7.6-17.6,17.3c2.9,4.8,15.8,5,20.8,3.4
		C169.8,308.4,177.9,308.9,178.7,298.9"/>
	<path class="st15" d="M242.5,296.6c-0.8-9.7,15.3-6.8,21-6.4c6.5,0.4,20.7,6.7,15.5,15.2c-2.6,4.3-13.9,4.4-18.4,3
		C250.4,305,243.2,305.4,242.5,296.6"/>
	<path class="st8" d="M144.7,477.1c0,0,13,15.4,24.6,21.7c11.6,6.3,19.8,8.3,29.8,4.4c9-3.6,13.8-6.9,16.3-14.9
		c2.5-7.9,2.3-14.9,2.3-14.9l-7.2,0.8c0,0-0.9,1.6-5.6,11.1c-3.7,7.4-10.9,6.5-20.3,6.5c-9.4,0-28.9-13.3-28.6-15.9
		C156.4,473.4,144.7,477.1,144.7,477.1"/>
	<path class="st9" d="M189.1,506.6c-5.9,0-12-2-20.4-6.6c-11.7-6.4-24.4-21.4-25-22l-1.3-1.5l1.9-0.6c0.3-0.1,6.8-2.2,10.1-2.2
		c0.8,0,1.9,0.1,2.5,0.9c0.3,0.4,0.5,0.9,0.5,1.4c1.2,2.8,18.8,14.6,27.2,14.6c0.9,0,1.7,0,2.6,0c0.8,0,1.6,0,2.3,0
		c6.6,0,11.5-0.4,14.2-5.8c4.7-9.4,5.6-11,5.7-11.1l0.3-0.6l9.3-1l0,1.4c0,0.3,0.2,7.3-2.4,15.4c-2.7,8.6-8.1,12.1-17.1,15.7
		C196,505.9,192.5,506.6,189.1,506.6z M147.1,477.8c3.6,4,13.7,14.9,22.9,19.9c8,4.4,13.7,6.2,19.1,6.2c3.1,0,6.2-0.6,9.6-1.9
		c8.4-3.3,13.1-6.4,15.5-14c1.8-5.5,2.1-10.6,2.2-13l-5,0.5c-0.6,1.1-2,3.9-5.3,10.4c-3.4,6.7-9.5,7.3-16.6,7.3c-0.8,0-1.6,0-2.4,0
		c-0.8,0-1.7,0-2.6,0c-8.9,0-25.2-10.7-28.8-14.9c-0.6-0.7-1-1.3-1.1-1.9c-0.1,0-0.2,0-0.3,0C152.6,476.4,149.4,477.2,147.1,477.8z"
		/>
	<path class="st4" d="M319.8,536.7c-6.3-5.2-11.4-18.7-4.3-25.1c0.2-8.1-7.7-26.1,1.8-27.5c9.5-1.4,9.3,18.5,9.3,18.5
		s-2.8-15.7,5.1-16.9c7.9-1.3,6.7,18,6.7,18s-2-14.6,5.3-13.6c7.3,1,7.5,10.7,6.4,18c8.7-6.5,18.3-7.8,20.2-1.5
		c2.4,7.9-17.9,7.2-18.1,17.3c-0.1,7.9-2.7,13.3-10.3,15.6C334.3,541.8,326,541.9,319.8,536.7"/>
	<path class="st5" d="M332.5,541.7c-5.2,0-9.6-1.5-13.2-4.5c-4.5-3.8-7.9-10.9-8-16.9c-0.1-3.7,1.1-6.9,3.4-9.1
		c0-2.3-0.6-5.5-1.3-8.9c-1.3-6.5-2.7-13.2-0.2-16.7c0.9-1.2,2.2-2,3.9-2.2c4-0.6,7.1,2.3,8.7,8.2c0.8-3.9,2.8-6.2,5.7-6.7
		c3.4-0.6,5.8,2.2,6.9,7.9c1.1-2.8,3-3.5,4.6-3.5c0.2,0,0.5,0,0.8,0.1c2.1,0.3,3.8,1.2,5,2.9c2.7,3.5,2.7,9.5,2.2,14.4
		c4.5-3.1,9.2-4.9,13-4.9c3.6,0,6.1,1.6,7,4.6c1.4,4.4-3.4,6.5-8,8.5c-4.9,2.1-9.9,4.3-10,9.1c-0.2,9-3.5,14-10.8,16.2
		C338.7,541.2,335.5,541.7,332.5,541.7z M318.1,484.7c-0.3,0-0.5,0-0.8,0.1c-1.3,0.2-2.3,0.7-3,1.7c-2.2,3.1-0.8,9.8,0.4,15.7
		c0.7,3.6,1.4,7,1.3,9.5c0,0.2-0.1,0.4-0.2,0.5c-2.2,1.9-3.3,4.8-3.2,8.3c0.1,5.5,3.3,12.4,7.5,15.9c3.3,2.8,7.4,4.2,12.3,4.2
		c2.9,0,6-0.5,9.2-1.5c6.8-2.1,9.7-6.5,9.8-14.9c0.1-5.6,5.8-8.1,10.8-10.3c5.2-2.2,8.2-3.8,7.3-6.8c-0.9-3-3.6-3.7-5.8-3.7
		c-3.8,0-8.8,2.1-13.4,5.5c-0.2,0.2-0.5,0.2-0.7,0c-0.2-0.1-0.4-0.4-0.3-0.7c0.6-4,1.1-11.2-1.8-14.9c-1-1.3-2.4-2.1-4.1-2.3
		c-2.6-0.4-4.2,1.7-4.7,6c0.3,3.7,0.1,6.8,0.1,7c0,0.3-0.3,0.6-0.6,0.6c-0.3,0-0.6-0.2-0.7-0.6c0-0.1-0.5-3.6-0.1-7
		c-0.3-3.9-1.4-10.5-5.2-10.5c-0.2,0-0.4,0-0.6,0.1c-4,0.6-4.9,5.7-5,9.8c0.5,3.5,0.5,6.4,0.5,6.5c0,0.3-0.3,0.6-0.6,0.7
		c-0.3,0-0.7-0.2-0.7-0.6c0-0.1-0.5-3.1-0.5-6.5C324.6,490.9,322.8,484.7,318.1,484.7z"/>
	<line class="st16" x1="350.1" y1="508" x2="349.1" y2="513.2"/>
	<path class="st5" d="M349.1,513.9c0,0-0.1,0-0.1,0c-0.4-0.1-0.6-0.4-0.5-0.8l0.9-5.2c0.1-0.4,0.4-0.6,0.8-0.5
		c0.4,0.1,0.6,0.4,0.5,0.8l-0.9,5.2C349.7,513.7,349.5,513.9,349.1,513.9z"/>
	<line class="st16" x1="338.3" y1="503.6" x2="338.4" y2="507.4"/>
	<path class="st5" d="M338.4,508c-0.4,0-0.7-0.3-0.7-0.7l-0.1-3.7c0-0.4,0.3-0.7,0.7-0.7c0.3,0,0.7,0.3,0.7,0.7l0.1,3.7
		C339,507.7,338.7,508,338.4,508C338.4,508,338.4,508,338.4,508z"/>
	<line class="st16" x1="326.5" y1="502.5" x2="327.3" y2="509.4"/>
	<path class="st5" d="M327.3,510.1c-0.3,0-0.6-0.3-0.7-0.6l-0.8-6.9c0-0.4,0.2-0.7,0.6-0.7c0.4,0,0.7,0.2,0.7,0.6l0.8,6.9
		C328,509.7,327.7,510,327.3,510.1C327.3,510.1,327.3,510.1,327.3,510.1z"/>
	<path class="st17" d="M223.7,347.1c-4.5,7.2,1,10.7-12,13.2c-16.3,3.1-25.8-8.9-24-13.9c2.2,3.7,7.7,5.6,16,5.6
		C212,351.9,215.2,348.4,223.7,347.1"/>
	<path class="st18" d="M195.4,356c0,0,3.6-5.1,14.6,0.9C210,356.9,203.3,363.9,195.4,356"/>
	<path class="st19" d="M203.2,360.5c-2.9,0-5.7-1.3-8.4-4c-0.3-0.3-0.3-0.7-0.1-1c0.1-0.1,1.7-2.4,5.9-2.4c2.8,0,6.1,1,9.7,3
		c0.2,0.1,0.4,0.3,0.4,0.6s0,0.5-0.2,0.6C210.4,357.6,207.5,360.5,203.2,360.5z M196.5,356c2.2,2,4.4,3,6.7,3c2.4,0,4.4-1.2,5.4-1.9
		c-3-1.5-5.7-2.3-8-2.3C198.4,354.8,197.1,355.5,196.5,356z"/>
	<path class="st5" d="M203.7,352.8c-18.2,0-25.6-14.9-26.8-20.1c-0.1-0.5,0.2-1,0.7-1.1c0.5-0.1,1,0.2,1.1,0.7
		c1.1,4.9,7.9,18.7,25,18.7c4.5,0,8.6-1.4,12.7-2.7c5.1-1.7,10-3.3,15.1-2.1c2.3,0.5,4,0.3,4.8-0.6c0.8-0.9,0.7-2.4,0.3-3.3
		c-0.4-1-1.1-1.7-1.8-1.8c-0.5,0-0.9-0.5-0.8-1c0-0.5,0.5-0.8,1-0.8c1.4,0.1,2.6,1.2,3.3,2.9c0.8,1.9,0.5,3.9-0.6,5.2
		c-0.9,1-2.8,2.1-6.6,1.2c-4.6-1.1-9.2,0.4-14.1,2C212.7,351.4,208.4,352.8,203.7,352.8z"/>
	<path class="st5" d="M174.6,336.3c-0.1,0-0.2,0-0.3-0.1c-0.5-0.2-0.7-0.7-0.5-1.2c0-0.1,1-2.5,3.8-3.5c2.7-0.9,5.6,0,5.7,0
		c0.5,0.1,0.7,0.6,0.6,1.1c-0.1,0.5-0.6,0.7-1.1,0.6c0,0-2.5-0.7-4.6,0c-2,0.7-2.7,2.4-2.7,2.4C175.3,336.1,174.9,336.3,174.6,336.3
		z"/>
	<path class="st9" d="M118,557.3c-4.6,0-29.1-7.5-31.9-8.3l0.8-2.5c11,3.4,28.4,8.4,31.1,8.2l0.1,2.6
		C118.1,557.3,118,557.3,118,557.3z"/>
	<path class="st9" d="M263.3,544.9c-4,0-7.6-0.2-7.9-0.3l0.2-2.6c0.1,0,10,0.7,14.9-0.2l0.5,2.6C268.8,544.8,266,544.9,263.3,544.9z
		"/>
	<path class="st13" d="M115.2,279.6c0,0,8.3-1.5,6.8-34.9c-0.9-20.9,0-4.6-4.6-58.3c0,0,8,43.3,16.4,41.6c8.4-1.7,4.5-44.1,4.5-44.1
		s10.3,42.3,21.3,40.8c11-1.5,7.5-46,7.5-46s5,46.8,19.8,45.6c14.8-1.3,10-48.1,10-48.1s6.3,47.7,19.1,45.3
		c12.7-2.4,7.2-47.4,7.2-47.4s7.6,45.9,20.4,46.7c12.8,0.8,12.5-42.6,12.5-42.6s1.5,36,11.5,37.8c10,1.8,15.2-38.4,15.2-38.4
		c7,49,7,49,10.1,64.7c1.6,8.4-0.2,5.6,1.4,6.2c4.3-3.4,3.8-9.2,4.5-17.5c2.2-25.9-0.5-34.5-2.1-61.9c-2-33.5-15.5-69.5-50.4-79.7
		c-27.9-8.1-52.1,1.5-71.6,13.2c-20.7-7.1-50.3-3.5-66,14.8c-20,23.3-19.2,50.6-14.8,89.2c4.4,38.6,8,53.1,6.7,57.7
		C100.5,264.3,107.4,279.6,115.2,279.6"/>
	<path class="st2" d="M115.2,280.4c-8.1,0-15.1-15.1-15.4-15.7c-0.1-0.2-0.1-0.3,0-0.5c0.7-2.4-0.2-8.5-1.8-19.5
		c-1.3-8.9-3-21.1-5-37.9c-4.3-37.4-5.7-65.7,15-89.8c10.1-11.7,26.5-18.5,45.2-18.5c7.5,0,14.8,1.2,21.3,3.3
		c18.5-11,34.6-16.1,50.8-16.1c7,0,14.1,1,21.1,3c42.3,12.4,49.7,60.3,50.9,80.4c0.5,8.2,1.1,14.7,1.6,20.5
		c1.2,13.6,2.1,23.4,0.5,41.6c-0.1,1.5-0.2,2.9-0.3,4.3c-0.4,6.3-0.7,10.8-4.5,13.8c-0.2,0.2-0.5,0.2-0.7,0.1c-0.1,0-0.1,0-0.1,0
		c-0.3,0.2-0.7,0.1-0.9-0.2c-0.1-0.2-0.2-0.4-0.1-0.6c0-0.2,0.2-1.3-0.7-5.9c-3-15.1-3.1-15.7-9.4-59.8
		c-1.7,10.8-6.5,34.1-14.6,34.1c-0.3,0-0.5,0-0.8-0.1c-6.6-1.2-9.7-15.6-11-26.5c-0.7,10.2-2.6,24.1-7.7,29.2
		c-1.5,1.5-3.2,2.2-5.1,2.1c-9-0.6-15.4-21.5-18.6-35.3c0.7,13.8,0.2,34.4-8.8,36c-0.4,0.1-0.7,0.1-1.1,0.1
		c-8.4,0-13.9-19.7-16.7-33.4c0.2,11.2-0.5,26.6-5.9,33c-1.5,1.9-3.4,2.9-5.5,3.1c-10.2,0.9-15.9-19.2-18.6-33.2
		c0.1,13.6-1,32.6-8.7,33.6c-0.2,0-0.4,0-0.7,0c-8.4,0-15.9-22.1-19.4-34.1c0.7,12.6,1.1,36-5.6,37.3c-0.2,0-0.4,0.1-0.6,0.1
		c-5.9,0-11.2-17.9-14.2-30.5c1,11.6,1.7,18.8,2.1,23.5c0.9,9.6,0.9,9.6,1.2,17.7l0.2,5.1c1.5,33.1-6.5,35.5-7.4,35.7
		C115.2,280.4,115.2,280.4,115.2,280.4z M101.2,264.3c0.9,1.9,7.2,14.5,13.8,14.6c0.7-0.3,7.5-3.7,6.2-34.2l-0.2-5.1
		c-0.3-8-0.3-8-1.2-17.6c-0.6-6.2-1.5-16.5-3.2-35.5c0-0.4,0.2-0.7,0.6-0.8c0.4-0.1,0.7,0.2,0.8,0.6c2.9,15.9,9.7,41.1,15.2,41.1
		c0.1,0,0.2,0,0.3,0c5.6-1.1,5.4-27.2,3.9-43.3c0-0.4,0.2-0.7,0.6-0.8c0.4-0.1,0.7,0.2,0.8,0.5c2.7,11.2,11.6,40.3,20,40.3
		c0.2,0,0.3,0,0.5,0c8.4-1.1,7.8-33,6.9-45.2c0-0.4,0.3-0.7,0.7-0.8c0.4,0,0.8,0.3,0.8,0.6c0,0.4,5,44.9,18.5,44.9
		c0.2,0,0.3,0,0.5,0c1.7-0.1,3.2-1,4.5-2.6c8.3-10,4.9-44.4,4.8-44.7c0-0.4,0.2-0.8,0.6-0.8c0.4,0,0.8,0.2,0.8,0.6
		c1.7,12.4,8,44.7,17.4,44.7c0.3,0,0.5,0,0.8-0.1c9.9-1.9,8.1-34.3,6.6-46.6c0-0.4,0.2-0.8,0.6-0.8c0.4-0.1,0.8,0.2,0.8,0.6
		c0.1,0.5,7.6,45.3,19.7,46.1c1.5,0.1,2.7-0.4,4-1.7c7.9-8,7.7-39.8,7.7-40.2c0-0.4,0.3-0.7,0.7-0.7c0.4,0,0.7,0.3,0.7,0.7
		c0.4,9.8,3.1,35.7,10.9,37.1c0.2,0,0.4,0,0.5,0c7.3,0,12.5-27.3,13.9-37.8c0-0.4,0.4-0.6,0.7-0.6c0.4,0,0.7,0.3,0.7,0.6
		c7,49,7,49,10.1,64.7c0.5,2.3,0.7,4.1,0.7,5.3c2.8-2.6,3.1-6.7,3.4-12.3c0.1-1.3,0.2-2.8,0.3-4.3c1.6-18.1,0.7-27.8-0.5-41.3
		c-0.5-5.8-1.1-12.3-1.6-20.5c-1.2-19.7-8.4-67-49.9-79.1c-6.8-2-13.7-3-20.6-3c-16,0-32,5.1-50.4,16.1c-0.2,0.1-0.4,0.1-0.6,0.1
		c-6.4-2.2-13.7-3.4-21.2-3.4c-18.2,0-34.2,6.5-44,18c-20.3,23.6-18.8,51.6-14.6,88.7c1.9,16.8,3.7,29,5,37.9
		C101.1,255.6,101.9,261.4,101.2,264.3z"/>
	<g class="st20">
		<g>
			<g>
				<defs>
					<rect id="SVGID_1_" x="106.9" y="109.5" width="168.9" height="55"/>
				</defs>
				<clipPath id="SVGID_2_">
					<use xlink:href="#SVGID_1_"  style="overflow:visible;"/>
				</clipPath>
				<path class="st21" d="M106.9,153.3c0-10.5,4.3-17.3,9.6-25.9c-1.3,4-3.1,8.5-2.6,12.5c0.7-2.8,3-6.1,5.7-7.4
					c0.3,1.6-0.2,3.2-0.6,4.7c1.2-1.3,1.2-3.3,2.4-4.7c0.1,0.8,0.6,2,0.7,2.9c0.8-1.7,1.7-3.3,3.5-4.2c1.1,1,1.5,2.7,1.6,4.2
					c0.3-1.3,0.8-2.8,1.4-4c0.3-0.1,0.6-0.2,0.8,0c0.6,1.7,1.7,3.5,2.7,5c0.9-3.4,0.8-7.6,3.2-10.5c1.3,1.8,1.6,4.4,2.8,6.3
					c1.1-2.7,1.3-5.7,2.9-8.4c2.1,1.7,5,6.5,4.9,9.4c0.7-3.8,0.5-8.1,2.8-11.4c1.8,2.5,2.6,5.9,4.3,8.3c0.2-4.1-1.2-9.9,1.1-13.5
					c3.8,2.3,7.6,9.5,7.4,13.9c-0.8-2.6,0-5.4,1.8-7.4c1.6,1.4,2.7,4.4,3.7,6.4c0.4-1.4,0.3-3.1,1.2-3.9c0.3,1.3,0.7,2.6,1.4,3.7
					c0.3-1.1,0.9-2.3,1.5-2.9c0.4,1.7,1.6,3,2.7,4.3c0.5-1.2,0.8-2.5,1.5-3.6c0.2,0.8,0.9,1.5,1.1,2.3c0.5-1,0.9-1.9,1-3.1
					c0.8,0.4,2.1,0.9,2.8,1.7c0.7-1.2,1.4-2.5,2.7-3c0.2,1.1,1,2,1.5,2.9c1.2-1.3,1.4-2.9,2.4-4.2c0.3,0.9,1.2,1.5,1.6,2.4
					c0.5-1,1.1-2.1,1.7-3c0.3,1,2.2,3.6,2.8,4.5c2.1-4.4,0.9-10.7,3.6-14.7c3.1,2.5,4.4,9.8,5.4,13.5c1.2-2.8,1.3-9.9,3.2-12.5
					c1.1,2.2,1.4,4.7,2.8,6.9c-0.2-1.7,0.2-3.6,1.4-4.6c0.7,1.8,1.6,3.5,2.6,5.1c0.8-1.2,1.3-2.7,2-3.8c0.3,0.7,1.4,1.8,1.8,2.5
					c0.5-1.6,1.4-3.2,2.5-4.6c1.4,1.8,2.3,4.2,4.2,5.6c0.7-1.8,2.1-3.9,3.6-5c0.9,1.3,1.4,3.2,2.5,4.6c0.6-1.7,1.6-3.5,2.9-4.6
					c0.8,2,1.7,4.2,3.3,5.7c1.8-3.1,3.5-6.6,4.9-9.8c1.4,2.6,2.8,5.1,3.6,8c0.4-1.7,1.3-3.6,3.1-4.3c1.1,1.9,2.3,3.6,3.5,5.4
					c0.4-1.5,1-2.9,1.6-4.4c0.7,0.9,1.2,2.7,2.3,3.4c0.1-0.7,0.8-1.6,0.9-2.3c0.3,0.2,0.7,0.5,1,0.8c1.2-2.9-1.1-5.7-0.7-8.7
					c3.5,1.6,8,7,8.8,10.8c-0.2-2,0.1-4.1,0.8-6c12.1,7.1,11.6,27.7,10.9,40.3c-1.5-0.7-2.3-11.8-2.5-14.6c0.5,2,0.9,4,0.7,6.1
					c-2.5-2-3.4-6.1-5-8.9c-0.7,1.4-0.3,3.2-1.2,4.7c-1.1-1.6-3.4-4-4-5.1c0,0.4,0,0.9,0,1.3c-0.6-1.3-0.9-2.8-2.1-3.7
					c-0.2,6.2-1.2,12.5-3.9,18c-2.1-4.8-3.7-10.2-5.1-15.2c-0.7,2.7-0.1,5.9-1.2,8.5c-0.4-1.9-1.3-4.3-2.8-5.7
					c-0.2,0.5-1.1,1.5-1.3,2.1c-0.1-2.2-0.6-4.4-1.8-6.3c-0.3,0.8-1.2,1.6-1.5,2.2c-1.3-1.4-2.9-2.8-4.3-4
					c-2.5,6.8-4.6,14.1-7.5,20.8c0.2-5-0.7-10.1-0.7-15.2c0.1,1.7-0.7,3.4-1,4.9c-0.8-2.3-0.7-5-2.3-7c-0.4,1.6-0.6,3.4-1.3,4.9
					c-0.9-1.6-2.4-3.1-4-4.2c-0.5,1.6-1.6,3-2.7,4.3c-1.3-2.2-2.9-4.4-4.4-6.4c-0.4,1.3-0.6,2.7-1.1,4c-0.1-1.1-0.9-2.3-1.8-2.8
					c-2.4,4.6-4.4,14.4-3.9,19.6c-2.2-5.3-3.4-11.6-4.3-17.2c0.2,2.6-0.3,6-1.3,8.3c-1.6-2.6-3.1-5.4-5.2-7.7
					c-0.7,1.9-0.2,4.1-1.3,5.9c-1.2-1.9-2.7-3.7-3.8-5.6c-0.5,2.1-1.4,4.4-1.6,6.5c-1-2.4-3.1-4.9-4.1-7.5
					c-2.4,7.4-6.1,13.4-6.1,13.4l-2.5-13.4c0,0-2.5,7.8-3.1,11.1c-0.8-1.9-1.8-3.7-2.9-5.4c-0.3,0.8-1.1,1.9-1.3,2.7
					c-0.1-1.7,0.2-3.3-0.7-4.8c-0.3,1-1.1,2-1.4,2.8c0.1-1.8,0-3.7-1.1-5.2c-0.8,0.8-1.4,1.8-1.5,3c-0.8-1.1-1.6-3.2-2.5-4.7
					c-1.1,3-2.4,6.5-3.8,9.3c0.3-2.5-1.2-4.7-1-7.2c-1.2,3.2-1.4,7.1-2.1,10.4c-0.2-4.1-2.3-7.8-2.2-12.1c0.7,6.3,3.3,14.7,1.5,20.8
					c-4.7-4.4-6.4-11.3-7.9-17.1c0.1,2.4,0.3,5.9-0.8,8c-0.8-2.3-2.3-4.4-3.8-6.3c-0.1,1.8-0.4,3.5-0.8,5.2
					c-0.2-1.7-1.4-3.2-2.5-4.4c-1,1.9-1.6,4.2-2.1,6.3c-0.2-2.8-1.5-5.1-2.2-7.7c-2.4,5.9-4.5,14.1-4.6,20.4
					c-2.9-4.6,0.5-12.7-2.3-17.1c-0.5,2.8-2.3,5.9-3.6,8.4c-0.8-3.1-2-6-3.1-9c-0.1,1.3-0.4,2.8-0.8,4c-0.8-1.2-1.8-2.5-2.8-3.5
					c-0.6,1-1,2.2-1.4,3.3c-0.2-1.1-1-1.6-1.4-2.2c-0.1,0.4-0.4,0.9-0.5,1.3c-1.1-0.5-2-1.7-2.8-2.4c-1.1,5.1-1.9,10.9-3.6,16
					c-3.1-5.3-1.4-10.5-1.3-16.1"/>
			</g>
		</g>
	</g>
	<path class="st1" d="M143.8,35.9c-9.2,1.5-21-3.4-21-18.7c0-5.8,4.8-18.6,21.5-16.2c16.7,2.4,18.6,23.7,6.3,31.7
		C150.6,32.8,145,35.7,143.8,35.9"/>
	<path class="st2" d="M140.6,36.9c-9.2,0-18.5-6.1-18.5-19.7c0-4.5,3.4-17.2,18.3-17.2c1.3,0,2.7,0.1,4.1,0.3
		c7.5,1.1,12.8,6,14.4,13.2c1.7,7.7-1.5,15.7-7.8,19.8c-1,0.5-5.8,3-7.1,3.3C142.8,36.8,141.7,36.9,140.6,36.9z M140.3,1.5
		c-13.7,0-16.8,11.7-16.8,15.8c0,13.4,9.2,18.2,17.1,18.2c1,0,2-0.1,3-0.2c0.8-0.1,4.5-2,6.6-3.1c5.8-3.8,8.7-11.1,7.2-18.2
		c-1.4-6.6-6.4-11.1-13.2-12.1C142.9,1.6,141.6,1.5,140.3,1.5z"/>
	<path class="st0" d="M145.5,115.9c0,0-16.7-53.1-8.8-80.1l-4.1-1.3c0,0-9.3,33.1,6.4,83.1C139.1,117.5,142.8,121.4,145.5,115.9"/>
	<path class="st2" d="M142,119.6L142,119.6c-1.9,0-3.3-1.5-3.4-1.6c-0.1-0.1-0.1-0.2-0.2-0.3c-15.6-49.6-6.5-83.2-6.4-83.5
		c0.1-0.2,0.2-0.4,0.4-0.4c0.2-0.1,0.4-0.1,0.6-0.1l4.1,1.3c0.4,0.1,0.6,0.5,0.5,0.9c-7.8,26.5,8.6,79.2,8.8,79.7
		c0.1,0.2,0,0.4,0,0.5C145.1,118.5,143.6,119.6,142,119.6z M139.8,117.1c0.3,0.3,1.2,1,2.2,1c1,0,2-0.8,2.8-2.3
		c-1.4-4.7-16.1-53.2-8.9-79.6l-2.7-0.9C132,40.5,125.6,72.2,139.8,117.1z"/>
	<path class="st3" d="M147.1,29.5c-3.3,1.9-5.9,2.7-9.3,2.4c-4.2-0.4-7-1.7-8.8-4.2c-2.3-3.1-3.1-4-3.2-7.8c-0.1-5.1,0.4-6.4,1-8.5
		c0.5-1.6,1.2-2.7,2.4-2.1c1.2,0.6,1.8,2.4,2.4,5.4c0.6,3,0.7,5.9,3.5,8c3.6,2.7,4.1,1.8,7.2,2.1c3.1,0.3,2.6-0.3,4.8,0.4
		c2,0.6,2.7,1.5,1.8,2.7C148,29,147.1,29.5,147.1,29.5"/>
	<g>
		<path class="st22" d="M231.9,1001c0,0-10.7,25.3-11.3,37.7c-1.8,3.3,0.2,6.2,1.1,7.2c5.1,5.8,75.5,21.8,87.7,3.4
			c5.5-8.3,2.1-31.6-12.3-30.7c-7.2,0.4-25.1,0-26.6-4.5c-1.6-4.5,0-10.2,0-10.2"/>
		<path class="st12" d="M244.9,1047l-24.3-8.2c0,0,0.2,6.2,1.1,7.2c5.1,5.8,75.5,21.8,87.7,3.4c5.5-8.3,2.1-31.6-12.3-30.7
			c-4.5,0.3-26.8-0.7-26.7,22.1c0,3.5-0.4-1.3-1.6,1.5c-1.1,2.5-0.9,5-0.7,7.3"/>
		<path class="st23" d="M281.1,1058.7c-23.9,0-56.2-8-60-12.2c-1.6-1.8-2.8-4.9-1.2-7.9c0.6-11.9,10-34.6,11.2-37.6
			c0-0.1,0-0.2,0-0.2c0.2-0.7,0.9-0.7,1.7-0.7c5.8,0,36.5,3,37.8,3.1c0.2,0,0.4,0.1,0.6,0.3c0.1,0.2,0.2,0.4,0.1,0.7
			c0,0.1-1.5,5.5,0,9.7c0.8,2.4,9.4,4.1,20.9,4.1c1.8,0,3.5,0,5-0.1c5.3-0.3,9.6,2.4,12.5,7.7c3.9,7.3,4.2,18.6,0.5,24.2
			C306.1,1055.7,296.3,1058.7,281.1,1058.7z M232.5,1001.7c-1.3,3-10.6,25.8-11.1,37.1c0,0.1,0,0.2-0.1,0.3c-1.7,3.2,0.7,6,0.9,6.3
			c2.9,3.3,33.4,11.7,58.8,11.7c14.5,0,24.1-2.9,27.7-8.3c3.4-5.1,3.1-15.7-0.6-22.5c-1.7-3.1-4.8-6.9-10.3-6.9c-0.2,0-0.5,0-0.8,0
			c-1.4,0.1-3.2,0.1-5.1,0.1c-6.2,0-20.8-0.5-22.4-5.1c-1.3-3.6-0.6-7.9-0.2-9.7c-5.2-0.5-31.5-3-36.7-3
			C232.6,1001.7,232.5,1001.7,232.5,1001.7z"/>
		<path class="st23" d="M268.1,1050.4c-15.9,0-30.6-3.4-47.8-10.9c-0.4-0.2-0.6-0.7-0.4-1.1c0.2-0.4,0.7-0.6,1.1-0.4
			c16.7,7.3,31,10.7,46.4,10.8c0-0.4,0-0.7,0-1.1c0-3,0-5,1.3-6.1c1.8-1.6,5.3-1.2,15.3,0.2c11.9,1.7,21.2-1.4,25.1-5.2
			c1.1-1.1,1.7-2.2,1.6-3c0-0.4,0.3-0.8,0.7-0.9c0.4,0,0.8,0.3,0.9,0.7c0.1,1.4-0.6,2.9-2.1,4.3c-4.2,4.1-14,7.4-26.4,5.7
			c-8.6-1.2-12.8-1.7-14.1-0.6c-0.8,0.7-0.8,2.4-0.7,4.9c0,0.6,0,1.2,0,1.9C268.9,1050,268.5,1050.4,268.1,1050.4z"/>
		<path class="st23" d="M270.6,1042.4c-0.4,0-0.7-0.3-0.8-0.6c0-0.1-0.7-3.2-0.1-7.2c1.1-6.6,5.7-14.9,21.6-16.5
			c0.4,0,0.8,0.3,0.9,0.7c0,0.4-0.3,0.8-0.7,0.9c-14.8,1.5-19.1,9.1-20.1,15.2c-0.6,3.7,0,6.6,0,6.6c0.1,0.4-0.2,0.9-0.6,1
			C270.7,1042.4,270.6,1042.4,270.6,1042.4z"/>
		<path class="st23" d="M274.5,1026.2C274.4,1026.2,274.4,1026.2,274.5,1026.2c-1.9-0.2-17.9-2.3-18.4-8.4
			c-0.4-5.7,1.2-14.5,1.3-14.9c0.1-0.4,0.5-0.7,0.9-0.6c0.4,0.1,0.7,0.5,0.6,0.9c0,0.1-1.7,9-1.3,14.5c0.3,3.6,10.5,6.2,16.9,7
			c0.4,0.1,0.8,0.5,0.7,0.9C275.2,1025.9,274.9,1026.2,274.5,1026.2z"/>
		<path class="st12" d="M279.2,1022.3"/>
		<line class="st16" x1="263.7" y1="1026.9" x2="262.5" y2="1030.9"/>
		<g>
			<path class="st12" d="M264.9,1028.7c-0.1,0-0.2,0-0.3-0.1c-0.3-0.1-0.6-0.6-0.5-0.9c0.1-1,5.6-10.1,13.6-10.8
				c0.5-0.1,0.8,0.3,0.9,0.7s-0.3,0.8-0.7,0.9c-5.5,0.5-9.7,5.6-11.4,8.1c0.1,0.2,0.1,0.5-0.1,0.7
				C265.8,1028.1,265.4,1028.7,264.9,1028.7z"/>
		</g>
		<g>
			<path class="st12" d="M258.8,1025c-0.2,0-0.3,0-0.5-0.2c-0.4-0.3-0.4-0.8-0.2-1.1c0.2-0.3,5.5-7.5,12.7-9.5
				c0.4-0.1,0.9,0.1,1,0.6c0.1,0.4-0.1,0.9-0.6,1c-6.7,1.8-11.7,8.8-11.8,8.8C259.3,1024.9,259,1025,258.8,1025z"/>
		</g>
		<g>
			<path class="st12" d="M254.9,1019.4c-0.2,0-0.3-0.1-0.5-0.2c-0.4-0.3-0.4-0.8-0.2-1.1c0.2-0.3,5.4-7,15.7-6.9
				c0.4,0,0.8,0.5,0.8,1c0,0.4-0.4,0.9-0.8,0.9c0,0,0,0,0,0c-0.1,0-0.2-0.2-0.3-0.2c-9.2,0-14,6.1-14.1,6.2
				C255.4,1019.4,255.1,1019.4,254.9,1019.4z"/>
		</g>
	</g>
	<g>
		<path class="st22" d="M181.4,1003.2c0,0,9.1,26,8.9,38.4c1.5,3.4-0.6,6.2-1.5,7.1c-5.5,5.5-76.8,17-87.8-2.1
			c-5-8.6-0.1-31.6,14.2-29.8c7.1,0.9,25,1.6,26.9-2.8c1.8-4.4,0.6-10.2,0.6-10.2"/>
		<path class="st12" d="M165.6,1048.3l24.7-6.7c0,0-0.6,6.2-1.5,7.1c-5.5,5.5-76.8,17-87.8-2.1c-5-8.6-0.1-31.6,14.2-29.8
			c4.4,0.6,26.8,0.9,25.2,23.7c-0.2,3.5,0.4-1.3,1.6,1.6c1,2.6,0.6,5,0.2,7.4"/>
		<path class="st23" d="M136.9,1058c-13.8,0-31.3-1.9-36.6-11c-3.2-5.6-2.5-16.4,1.7-23.5c3.2-5.5,7.9-8.2,13.3-7.5
			c2.5,0.3,6.9,0.7,11.5,0.7c8.3,0,13.8-1.1,14.6-3c1.7-4.1,0.6-9.6,0.6-9.7c0-0.2,0-0.5,0.2-0.7c0.1-0.2,0.4-0.3,0.6-0.3
			c0.2,0,23.9-0.8,34.1-0.8c5.1,0,5.3,0.1,5.5,0.9c0,0.1,0,0.2,0,0.3c1,3,9,26.3,8.9,38.2c1.8,4.2-1.4,7.5-1.7,7.8
			C185.6,1053,159,1058,136.9,1058C136.9,1058,136.9,1058,136.9,1058z M113.7,1017.4c-5.2,0-8.5,3.7-10.3,6.8
			c-3.8,6.6-4.6,16.8-1.7,21.9c4.9,8.4,21.8,10.2,35.2,10.2c0,0,0,0,0,0c23.6,0,48.5-5.5,51.3-8.2c0.3-0.3,2.8-2.9,1.3-6.2
			c0-0.1-0.1-0.2-0.1-0.3c0.2-11.4-7.7-34.7-8.8-37.8c-0.5,0-1.6-0.1-4-0.1c-9,0-28.6,0.7-33.1,0.8c0.3,1.9,0.6,6.2-0.9,9.7
			c-1.1,2.6-6.5,3.9-16,3.9c0,0,0,0,0,0c-4.7,0-9.1-0.3-11.7-0.7C114.6,1017.4,114.2,1017.4,113.7,1017.4z"/>
		<path class="st23" d="M149,1050.4c-2.2,0-4.5-0.1-6.8-0.2c-0.4,0-0.8-0.4-0.8-0.8c0-0.7,0.1-1.3,0.1-1.9c0.2-2.5,0.3-4.2-0.4-4.9
			c-1.2-1.2-5.7-0.9-14.1-0.3c-12.5,0.9-22.1-3-26-7.3c-1.4-1.6-2-3.1-1.8-4.4c0.1-0.4,0.5-0.7,0.9-0.7c0.4,0.1,0.7,0.5,0.7,0.9
			c-0.1,0.8,0.4,2,1.4,3.1c3.7,4,12.7,7.7,24.7,6.8c10.1-0.8,13.6-0.9,15.3,0.7c1.2,1.2,1.1,3.2,0.9,6.2c0,0.3,0,0.7-0.1,1.1
			c15.3,0.8,29.9-1.6,47-7.8c0.4-0.2,0.9,0.1,1,0.5c0.2,0.4-0.1,0.9-0.5,1C175.5,1047.9,162.4,1050.4,149,1050.4z"/>
		<path class="st23" d="M140.3,1042c-0.1,0-0.1,0-0.2,0c-0.4-0.1-0.7-0.6-0.5-1c0,0,0.8-2.9,0.4-6.6c-0.6-6.1-4.5-14-19.2-16.4
			c-0.4-0.1-0.7-0.5-0.7-0.9s0.5-0.7,0.9-0.7c15.7,2.6,19.8,11.1,20.5,17.8c0.4,4-0.5,7.1-0.5,7.2
			C140.9,1041.8,140.6,1042,140.3,1042z"/>
		<path class="st23" d="M137.4,1025.7c-0.4,0-0.8-0.3-0.8-0.8c0-0.4,0.3-0.8,0.8-0.8c6.4-0.4,16.7-2.3,17.3-5.9
			c0.8-5.4-0.4-14.4-0.4-14.5c-0.1-0.4,0.3-0.8,0.7-0.9c0.4-0.1,0.8,0.3,0.9,0.7c0,0.4,1.2,9.3,0.4,14.9
			C155.3,1024.5,139.2,1025.6,137.4,1025.7C137.4,1025.7,137.4,1025.7,137.4,1025.7z"/>
		<path class="st12" d="M132.8,1021.5"/>
		<line class="st16" x1="148" y1="1027.1" x2="148.9" y2="1031.1"/>
		<g>
			<path class="st12" d="M146.8,1028.8c-0.6,0-1-0.6-1.4-1.4c-0.1-0.2-0.1-0.5,0-0.7c-1.5-2.6-5.4-8-10.9-8.8
				c-0.4-0.1-0.7-0.5-0.7-0.9c0.1-0.4,0.5-0.7,0.9-0.7c8,1.2,12.9,10.6,12.9,11.7c0,0.4-0.2,0.8-0.6,0.9
				C147,1028.8,146.9,1028.8,146.8,1028.8z"/>
		</g>
		<g>
			<path class="st12" d="M153.1,1025.4c-0.3,0-0.5-0.1-0.7-0.4c0-0.1-4.7-7.3-11.2-9.6c-0.4-0.1-0.6-0.6-0.5-1
				c0.1-0.4,0.6-0.6,1-0.5c7.1,2.4,11.8,9.9,12,10.2c0.2,0.4,0.1,0.9-0.3,1.1C153.4,1025.4,153.3,1025.4,153.1,1025.4z"/>
		</g>
		<g>
			<path class="st12" d="M157.3,1020.1c-0.3,0-0.5-0.1-0.7-0.4c0-0.1-4.6-6.7-13.9-7.2c-0.4,0-0.8-0.4-0.8-0.8
				c0-0.4,0.4-0.8,0.8-0.8c10.2,0.5,15,7.6,15.2,7.9c0.2,0.4,0.1,0.9-0.2,1.1C157.6,1020.1,157.5,1020.1,157.3,1020.1z"/>
		</g>
	</g>
	<g>
		<g>
			<polygon class="st24" points="170.3,557.9 148.6,557.9 148.6,670.8 170.3,674.5 			"/>
			<path class="st8" d="M170.4,674.5l-21.9-3.7v-113h21.9V674.5z M148.4,670.8l21.8,3.7L170.1,558h-21.5L148.4,670.8z"/>
		</g>
		<path class="st8" d="M165.6,568.4c-0.1,0-0.1,0-0.2-0.1l-3.4-4.4c-0.1-0.1-0.1-0.2,0-0.3l3.4-4.4c0.1-0.1,0.2-0.1,0.4,0
			c0.1,0.1,0.1,0.2,0,0.4l-3.3,4.3l3.3,4.3c0.1,0.1,0.1,0.3,0,0.4C165.7,568.4,165.6,568.4,165.6,568.4z"/>
		<g>
			<line class="st16" x1="173.2" y1="568.1" x2="144.9" y2="568.1"/>
			<path class="st8" d="M173.2,568.4h-28.3c-0.1,0-0.3-0.1-0.3-0.3s0.1-0.3,0.3-0.3h28.3c0.1,0,0.3,0.1,0.3,0.3
				C173.4,568.3,173.3,568.4,173.2,568.4z"/>
		</g>
		<path class="st8" d="M166.6,565.1c-0.8,0-1.4-0.6-1.4-1.4c0-0.8,0.6-1.4,1.4-1.4c0.8,0,1.4,0.6,1.4,1.4
			C168,564.5,167.4,565.1,166.6,565.1z M166.6,562.8c-0.5,0-0.9,0.4-0.9,0.9c0,0.5,0.4,0.9,0.9,0.9c0.5,0,0.9-0.4,0.9-0.9
			C167.5,563.2,167.1,562.8,166.6,562.8z"/>
		<g>
			<g>
				<path class="st8" d="M157,559.8c-2.2,0-2.2,0-2.3,0c-5.6-0.2-12.2-2.7-12.2-13.7c0-3.7-0.2-6.1-0.4-8.9
					c-0.3-3.7-0.6-7.8-0.6-15.8c0-2.5,2-4.6,4.6-4.6c2.5,0,4.6,2,4.6,4.6c0,7.6,0.3,11.6,0.6,15.1c0.2,2.9,0.4,5.6,0.4,9.6
					c0,4.4,0.9,4.5,3.4,4.5c0.4,0,5.8,0,7.5,0l0.5,0c2.5,0,4.6,2,4.6,4.6c0,2.5-2,4.6-4.6,4.6h-0.5
					C159.8,559.8,158.1,559.8,157,559.8z"/>
			</g>
			<rect x="147.2" y="538.8" class="st24" width="22.7" height="14.2"/>
			<path class="st24" d="M168.8,546.8c-2.2,0-4.1-1.8-4.1-4.1v-22.3c0-2.2,1.8-4.1,4.1-4.1s4.1,1.8,4.1,4.1v22.3
				C172.8,544.9,171,546.8,168.8,546.8z"/>
			<g>
				<path class="st24" d="M157,559.3c-2.1,0-2.2,0-2.3,0c-7.8-0.3-11.7-4.7-11.7-13.2c0-8.6-0.2-24.5-0.2-24.7c0-2.2,1.8-4.1,4-4.1
					c2.3,0,4.1,1.8,4.1,4c0,0.2,0.2,16.1,0.2,24.8c0,4.7,1.2,5,3.9,5.1c0.4,0,5.8,0,7.5,0l0.5,0c2.2,0,4.1,1.8,4.1,4.1
					c0,2.2-1.8,4.1-4.1,4.1l-0.5,0C159.8,559.3,158.1,559.3,157,559.3z"/>
			</g>
			<g>
				<path class="st8" d="M152.6,547.3c-2.5,0-4.6-2-4.6-4.6v-7.5c0-2.5,2-4.6,4.6-4.6c2.5,0,4.6,2,4.6,4.6v7.5
					C157.1,545.2,155.1,547.3,152.6,547.3z"/>
			</g>
			<g>
				<path class="st24" d="M152.6,546.8c-2.2,0-4.1-1.8-4.1-4.1v-7.5c0-2.2,1.8-4.1,4.1-4.1s4.1,1.8,4.1,4.1v7.5
					C156.6,544.9,154.8,546.8,152.6,546.8z"/>
			</g>
			<g>
				<path class="st8" d="M160.2,547.3c-2.5,0-4.6-2-4.6-4.6v-7.5c0-2.5,2-4.6,4.6-4.6c2.5,0,4.6,2,4.6,4.6v7.5
					C164.7,545.2,162.7,547.3,160.2,547.3z"/>
			</g>
			<g>
				<path class="st24" d="M160.2,546.8c-2.2,0-4.1-1.8-4.1-4.1v-7.5c0-2.2,1.8-4.1,4.1-4.1s4.1,1.8,4.1,4.1v7.5
					C164.2,544.9,162.4,546.8,160.2,546.8z"/>
			</g>
			<g>
				<path class="st8" d="M168.8,559.8h-7.1c-2.5,0-4.6-2-4.6-4.6c0-2.5,2-4.6,4.6-4.6h1.3c-1.3-0.8-2.2-2.3-2.2-3.9
					c0-2.5,2-4.6,4.6-4.6h3.5c5.6,0,9,4.6,9,9c0,2.3-0.8,4.4-2.4,6C173.8,558.8,171.5,559.8,168.8,559.8z"/>
			</g>
			<path class="st24" d="M168.8,559.3h-7.1c-2.2,0-4.1-1.8-4.1-4.1c0-2.2,1.8-4.1,4.1-4.1h7.1c0.2,0,0.3,0,0.4,0
				c0-0.1,0-0.2-0.1-0.3c0,0-0.1-0.1-0.3-0.1h-3.5c-2.2,0-4.1-1.8-4.1-4.1c0-2.2,1.8-4.1,4.1-4.1h3.5c5.3,0,8.5,4.3,8.5,8.5
				c0,2.1-0.8,4.1-2.2,5.6C174,557.9,172,559.3,168.8,559.3z"/>
			<path class="st8" d="M166,546.4c-0.9,0-1.7-0.6-1.7-1.7v-2c0-0.1,0.1-0.3,0.3-0.3s0.3,0.1,0.3,0.3v2c0,0.9,0.6,1.2,1.2,1.2
				c0.6,0,1.2-0.4,1.2-1.2v-2.1c0-0.1,0.1-0.3,0.3-0.3s0.3,0.1,0.3,0.3v2.1C167.7,545.8,166.8,546.4,166,546.4z"/>
			<path class="st8" d="M160.2,545.1L160.2,545.1c-1.1,0-2.2-0.8-2.2-2.3V542c0-0.1,0.1-0.3,0.3-0.3h4c0.1,0,0.3,0.1,0.3,0.3v0.8
				c0,0.7-0.2,1.3-0.7,1.7C161.3,544.8,160.8,545.1,160.2,545.1z M158.4,542.3v0.5c0,1.2,0.9,1.8,1.7,1.8l0,0c0.5,0,0.9-0.2,1.2-0.4
				c0.4-0.3,0.5-0.8,0.5-1.3v-0.5H158.4L158.4,542.3z"/>
			<path class="st8" d="M152.3,545.1C152.3,545.1,152.3,545.1,152.3,545.1c-1.1,0-2.2-0.8-2.2-2.3V542c0-0.1,0.1-0.3,0.3-0.3h4
				c0.1,0,0.3,0.1,0.3,0.3v0.8c0,0.7-0.2,1.3-0.7,1.7C153.4,544.8,152.9,545.1,152.3,545.1z M150.5,542.3v0.5c0,1.2,0.9,1.8,1.7,1.8
				l0,0c0.5,0,0.9-0.2,1.2-0.4c0.4-0.3,0.5-0.8,0.5-1.3v-0.5H150.5L150.5,542.3z"/>
			<path class="st8" d="M168.1,553.2c-0.1,0-0.1,0-0.2-0.1c-1.2-1.2-0.8-2.1-0.7-2.2c0.1-0.1,0.2-0.2,0.3-0.1
				c0.1,0.1,0.2,0.2,0.1,0.3c0,0-0.3,0.6,0.6,1.6c0.1,0.1,0.1,0.3,0,0.4C168.3,553.2,168.2,553.2,168.1,553.2z"/>
			<g>
				<path class="st8" d="M170.3,551.2H161c-0.1,0-0.3-0.1-0.3-0.3c0-0.1,0.1-0.3,0.3-0.3h9.3c0.1,0,0.3,0.1,0.3,0.3
					S170.5,551.2,170.3,551.2z"/>
			</g>
		</g>
		<path class="st24" d="M183.6,618.7l-0.5-1.6l-0.3,0.6v1h-0.6v-5.2h0.6v3.4l0.8-1.9h0.6l-0.7,1.6l0.8,2.1H183.6z"/>
		<path class="st24" d="M184.6,618.7v-5.2h0.6v5.2H184.6z"/>
		<path class="st24" d="M186.6,618.8c-0.6,0-1-0.4-1-1.1v-1.6c0-0.7,0.4-1.1,1-1.1s0.9,0.4,0.9,1.1v0.9h-1.3v0.8
			c0,0.3,0.1,0.5,0.4,0.5c0.3,0,0.4-0.2,0.4-0.5v-0.4h0.5v0.3C187.5,618.4,187.2,618.8,186.6,618.8z M187,616c0-0.3-0.1-0.5-0.4-0.5
			c-0.3,0-0.4,0.2-0.4,0.5v0.6h0.8V616z"/>
		<path class="st24" d="M189,618.8c-0.6,0-1-0.4-1-1.1v-1.6c0-0.7,0.4-1.1,1-1.1c0.6,0,0.9,0.4,0.9,1.1v0.9h-1.3v0.8
			c0,0.3,0.1,0.5,0.4,0.5c0.3,0,0.4-0.2,0.4-0.5v-0.4h0.5v0.3C189.9,618.4,189.5,618.8,189,618.8z M189.4,616c0-0.3-0.1-0.5-0.4-0.5
			c-0.3,0-0.4,0.2-0.4,0.5v0.6h0.8L189.4,616L189.4,616z"/>
		<path class="st24" d="M190.9,616.1v2.6h-0.6v-3.7h0.5l0,0.5c0.2-0.5,0.4-0.6,0.8-0.6v0.6C191.1,615.6,190.9,615.8,190.9,616.1z"/>
		<path class="st24" d="M191.8,618.7v-0.8h0.6v0.8H191.8z"/>
		<path class="st24" d="M192.9,618.7v-5.2h0.6v5.2H192.9z"/>
		<path class="st24" d="M195.8,618.8c-0.2,0-0.4-0.1-0.4-0.4c-0.2,0.2-0.4,0.4-0.7,0.4c-0.5,0-0.8-0.3-0.8-0.9v-0.1
			c0-0.7,0.7-1,1.4-1.2v-0.6c0-0.3-0.1-0.4-0.4-0.4c-0.3,0-0.4,0.1-0.4,0.4v0.3H194v-0.3c0-0.5,0.3-0.9,0.9-0.9c0.6,0,0.9,0.4,0.9,1
			v2.1c0,0.1,0.1,0.2,0.2,0.2v0.4L195.8,618.8L195.8,618.8z M195.3,617c-0.6,0.1-0.8,0.4-0.8,0.7v0.2c0,0.2,0.1,0.4,0.3,0.4
			c0.3,0,0.5-0.2,0.5-0.5L195.3,617L195.3,617z"/>
		<g>
			<path class="st24" d="M188.4,537.8c0.2,0,0.4,0,0.7,0c0.2,0,0.4,0,0.6,0.1c0.2,0,0.5,0.1,0.8,0.1c0.3,0.1,0.6,0.2,0.9,0.3
				c0.3,0.2,0.6,0.4,0.8,0.8c0.2,0.3,0.4,0.8,0.5,1.4c0.1,0.7,0.2,3.4,0.1,5.2c0,0.5,0,1-0.1,1.5c0,0.5-0.1,1-0.1,1.5
				c-0.1,0.3-0.1,0.7-0.2,1.1c-0.1,0.4-0.2,0.7-0.3,1c-0.2,0.3-0.4,0.6-0.6,0.8s-0.5,0.3-0.7,0.4c-0.2,0.1-0.5,0.1-0.7,0.1
				c-0.2,0-0.3,0-0.4,0l0,0.2c0.5,0.1,0.9,0.2,1.2,0.3s0.6,0.4,0.9,0.8c0.3,0.5,0.4,1,0.5,1.6c0,0.6,0.1,1.4,0,2.5l-0.1,2.8
				c0,0.7,0,1.3,0,1.8c0,0.5,0,0.9,0.1,1.2s0.1,0.7,0.2,1c0.1,0.3,0.2,0.7,0.3,1.1l-3.6-0.1c-0.1-0.6-0.2-1.1-0.2-1.5
				c0-0.4-0.1-0.8-0.1-1.2c0-0.4,0-0.8,0-1.2c0-0.4,0-0.9,0-1.5l0-1.8c0-0.4,0-0.9,0-1.3c0-0.5,0-0.9-0.1-1.3c0-0.3-0.1-0.6-0.2-0.9
				c-0.1-0.3-0.2-0.5-0.4-0.7c-0.2-0.1-0.3-0.2-0.5-0.3c-0.2,0-0.4-0.1-0.6-0.1l-1.4,0l-0.3,11.9l-3.4-0.1l0.7-27.4L188.4,537.8z
				 M186,550.3l1.6,0c0.4,0,0.8-0.1,1.1-0.2c0.3-0.1,0.5-0.4,0.6-0.9c0.1-0.3,0.1-0.8,0.2-1.5c0-0.7,0.1-3,0.1-3.9
				c0-0.3,0-0.5,0-0.8c0-0.3,0-0.6,0-0.8c0-0.5-0.1-0.9-0.3-1c-0.1-0.1-0.3-0.2-0.5-0.2c-0.2,0-0.4,0-0.8,0l-1.7,0L186,550.3z"/>
			<path class="st24" d="M193.2,565.5l-4-0.1l0-0.2c-0.1-0.6-0.2-1.1-0.2-1.5c0-0.4-0.1-0.8-0.1-1.2c0-0.4,0-0.8,0-1.2
				c0-0.4,0-0.9,0-1.5l0-1.8c0-0.4,0-0.9,0-1.3c0-0.5,0-0.9-0.1-1.3c0-0.3-0.1-0.6-0.2-0.9c-0.1-0.3-0.2-0.5-0.4-0.6
				c-0.1-0.1-0.3-0.2-0.4-0.2c-0.2,0-0.4-0.1-0.6-0.1l-1.2,0l-0.3,11.9l-3.8-0.1l0-0.2l0.7-27.6l5.8,0.2c0.2,0,0.4,0,0.7,0
				c0.2,0,0.4,0,0.6,0.1c0.2,0,0.5,0.1,0.8,0.1c0.3,0.1,0.7,0.2,1,0.4c0.3,0.2,0.6,0.5,0.9,0.8c0.3,0.4,0.5,0.8,0.6,1.5
				c0.1,0.7,0.2,3.5,0.1,5.2c0,0.5,0,1-0.1,1.5c0,0.5-0.1,1-0.1,1.5c-0.1,0.4-0.1,0.7-0.2,1.1c-0.1,0.4-0.2,0.7-0.3,1
				c-0.2,0.4-0.4,0.7-0.7,0.9c-0.3,0.2-0.5,0.3-0.8,0.4c-0.1,0-0.1,0-0.2,0c0.1,0,0.2,0.1,0.3,0.1c0.4,0.1,0.7,0.4,1,0.9
				c0.3,0.5,0.5,1.1,0.5,1.7c0,0.6,0.1,1.5,0,2.5l-0.1,2.8c0,0.7,0,1.3,0,1.8c0,0.5,0,0.9,0.1,1.2c0,0.3,0.1,0.7,0.2,1
				c0.1,0.3,0.2,0.7,0.3,1.1L193.2,565.5z M189.5,565l3.1,0.1c-0.1-0.3-0.2-0.6-0.2-0.8c-0.1-0.3-0.1-0.7-0.2-1c0-0.3,0-0.8-0.1-1.2
				c0-0.5,0-1.1,0-1.8l0.1-2.8c0-1.1,0-1.9,0-2.5c0-0.6-0.2-1.1-0.5-1.5c-0.2-0.4-0.5-0.6-0.8-0.7c-0.3-0.1-0.7-0.2-1.2-0.3l-0.2,0
				l0-0.6l0.6,0c0.2,0,0.4,0,0.6-0.1c0.2-0.1,0.4-0.2,0.7-0.3c0.2-0.2,0.4-0.4,0.5-0.7c0.1-0.3,0.2-0.6,0.3-0.9
				c0.1-0.4,0.1-0.7,0.2-1.1c0-0.5,0.1-1,0.1-1.5c0-0.5,0-1,0.1-1.5c0-1.9,0-4.5-0.1-5.1c-0.1-0.6-0.3-1-0.5-1.3
				c-0.2-0.3-0.5-0.5-0.8-0.7c-0.3-0.2-0.6-0.3-0.9-0.3c-0.3-0.1-0.6-0.1-0.8-0.1c-0.2,0-0.4,0-0.6-0.1c-0.2,0-0.4,0-0.7,0l-5.3-0.1
				l-0.7,26.9l3,0.1l0.3-11.9l1.6,0c0.2,0,0.4,0.1,0.6,0.1c0.2,0,0.4,0.1,0.6,0.3c0.3,0.2,0.4,0.5,0.5,0.9c0.1,0.3,0.1,0.6,0.2,0.9
				c0,0.4,0.1,0.9,0.1,1.4c0,0.5,0,0.9,0,1.3l0,1.8c0,0.6,0,1.1,0,1.5c0,0.4,0,0.8,0,1.2c0,0.4,0.1,0.8,0.1,1.2
				C189.4,564,189.4,564.5,189.5,565z M187.8,550.5L187.8,550.5l-1.9-0.1l0.2-9.9l1.9,0.1c0.3,0,0.6,0,0.8,0c0.2,0,0.4,0.1,0.6,0.3
				c0.2,0.2,0.4,0.6,0.4,1.2c0,0.3,0,0.5,0,0.8c0,0.3,0,0.6,0,0.8c0,0.3,0,0.9,0,1.5c0,0.9,0,2-0.1,2.4c0,0.7-0.1,1.3-0.2,1.6
				c-0.2,0.5-0.4,0.9-0.7,1C188.5,550.5,188.2,550.5,187.8,550.5z M186.3,550.1l1.5,0l0,0c0.4,0,0.6-0.1,0.9-0.2
				c0.2-0.1,0.4-0.4,0.5-0.8c0.1-0.3,0.1-0.8,0.2-1.5c0-0.4,0-1.5,0.1-2.4c0-0.6,0-1.1,0-1.5c0-0.3,0-0.5,0-0.8c0-0.3,0-0.6,0-0.8
				c0-0.5-0.1-0.8-0.3-0.9c-0.1-0.1-0.2-0.2-0.3-0.2c-0.2,0-0.4,0-0.8,0l-1.5,0L186.3,550.1z"/>
		</g>
		<g>
			<path class="st24" d="M205.9,561c0,0.5,0,1-0.1,1.5c0,0.5-0.1,1-0.3,1.5c-0.2,0.8-0.6,1.4-1.1,1.8c-0.5,0.4-1,0.7-1.6,0.9
				s-1,0.3-1.5,0.4c-0.5,0-0.8,0.1-1,0.1c-0.1,0-0.4,0-0.9,0c-0.4,0-0.9-0.1-1.3-0.3c-0.2-0.1-0.4-0.2-0.6-0.3
				c-0.3-0.1-0.5-0.3-0.8-0.6c-0.3-0.2-0.6-0.5-0.8-0.9c-0.2-0.4-0.4-0.8-0.6-1.3c-0.1-0.4-0.2-0.8-0.2-1.1c0-0.3-0.1-0.9-0.1-1.6
				l-0.4-15.8c0-0.6,0-1.2,0-1.7c0-0.6,0.1-1.1,0.2-1.6c0.1-0.5,0.3-1,0.5-1.5c0.3-0.5,0.6-0.9,1.1-1.3c0.3-0.3,0.7-0.5,1.3-0.8
				c0.6-0.3,1.3-0.4,2.2-0.4c0.1,0,0.3,0,0.6,0c0.2,0,0.5,0,0.8,0.1c0.3,0.1,0.6,0.1,1,0.3c0.3,0.1,0.7,0.3,1,0.6
				c0.4,0.3,0.6,0.5,0.8,0.8c0.2,0.3,0.3,0.4,0.4,0.6c0.4,0.6,0.6,1.3,0.7,2.1c0.1,0.8,0.2,1.9,0.2,3.4L205.9,561z M198.4,561.7
				c0,0.2,0,0.4,0,0.6c0,0.1,0,0.3,0.1,0.5c0.2,1.1,0.8,1.7,2,1.6c0.5,0,1-0.1,1.2-0.4c0.3-0.2,0.5-0.5,0.6-0.9
				c0.1-0.3,0.2-0.7,0.2-1.1c0-0.4,0-0.8,0-1.2l-0.4-16c0-0.8-0.1-1.4-0.1-1.9c0-0.5-0.2-0.9-0.4-1.2c-0.1-0.2-0.3-0.3-0.5-0.5
				c-0.2-0.2-0.6-0.2-1.1-0.2c-0.1,0-0.3,0-0.5,0.1c-0.2,0-0.5,0.2-0.7,0.3c-0.5,0.3-0.7,0.7-0.7,1.3c0,0.6,0,1.3,0,2.3L198.4,561.7
				z"/>
			<path class="st24" d="M200.2,567.4c-0.2,0-0.4,0-0.8,0c-0.5,0-0.9-0.1-1.4-0.3c-0.2-0.1-0.4-0.2-0.7-0.3
				c-0.3-0.2-0.6-0.3-0.9-0.6c-0.3-0.2-0.6-0.6-0.8-0.9c-0.3-0.4-0.5-0.8-0.6-1.4c-0.1-0.4-0.2-0.8-0.3-1.1c0-0.3-0.1-0.9-0.1-1.6
				l-0.4-15.8c0-0.6,0-1.2,0-1.7c0-0.6,0.1-1.1,0.2-1.7c0.1-0.5,0.3-1.1,0.6-1.5c0.3-0.5,0.7-1,1.2-1.4c0.3-0.3,0.8-0.5,1.3-0.8
				c0.6-0.3,1.4-0.4,2.3-0.5c0.1,0,0.3,0,0.6,0c0.3,0,0.6,0,0.9,0.1c0.3,0.1,0.7,0.2,1,0.3c0.4,0.1,0.7,0.3,1.1,0.6
				c0.4,0.3,0.7,0.5,0.9,0.8c0.2,0.3,0.3,0.5,0.4,0.6c0.4,0.6,0.6,1.4,0.7,2.2c0.1,0.8,0.2,1.9,0.2,3.4l0.4,15.3c0,0.5,0,1-0.1,1.5
				c0,0.6-0.1,1.1-0.3,1.6c-0.3,0.8-0.7,1.4-1.2,1.9c-0.5,0.4-1.1,0.8-1.6,1c-0.5,0.2-1.1,0.3-1.6,0.4c-0.5,0-0.8,0.1-1,0.1
				L200.2,567.4z M200.2,538.2c-0.1,0-0.2,0-0.2,0c-0.9,0-1.6,0.2-2.1,0.4c-0.5,0.3-1,0.5-1.3,0.8c-0.5,0.4-0.8,0.8-1.1,1.3
				c-0.2,0.4-0.4,0.9-0.5,1.4c-0.1,0.5-0.2,1-0.2,1.6c0,0.6,0,1.2,0,1.7l0.4,15.8c0,0.8,0,1.3,0.1,1.6c0,0.3,0.1,0.7,0.2,1
				c0.2,0.5,0.4,0.9,0.6,1.3c0.2,0.3,0.5,0.6,0.8,0.9s0.5,0.4,0.8,0.5c0.2,0.1,0.5,0.2,0.6,0.3c0.4,0.1,0.8,0.2,1.2,0.2
				c0.3,0,0.6,0,0.7,0l0.1,0c0.2,0,0.5,0,1-0.1c0.4,0,0.9-0.2,1.4-0.3c0.5-0.2,1-0.5,1.5-0.9c0.5-0.4,0.8-1,1.1-1.7
				c0.2-0.5,0.3-1,0.3-1.5c0-0.5,0-1,0.1-1.5l-0.4-15.2c-0.1-1.5-0.1-2.6-0.2-3.4c-0.1-0.8-0.3-1.5-0.7-2.1
				c-0.1-0.1-0.2-0.3-0.4-0.6c-0.2-0.2-0.4-0.5-0.8-0.7c-0.3-0.2-0.6-0.4-1-0.5c-0.3-0.1-0.6-0.2-0.9-0.3c-0.3,0-0.5-0.1-0.8-0.1
				C200.4,538.2,200.3,538.2,200.2,538.2z M200.3,564.6c-1.2,0-1.9-0.6-2.1-1.8c-0.1-0.2-0.1-0.3-0.1-0.5l0-0.6l-0.4-16.8
				c0-1,0-1.8,0-2.3c0-0.6,0.3-1.1,0.8-1.5c0.3-0.2,0.5-0.3,0.8-0.4c0.3,0,0.4-0.1,0.5-0.1l0.1,0c0.5,0,0.8,0.1,1.1,0.3
				c0.3,0.2,0.5,0.4,0.6,0.5c0.2,0.4,0.4,0.8,0.4,1.3c0.1,0.5,0.1,1.2,0.1,2l0.4,16c0,0.4,0,0.8,0,1.2c0,0.4-0.1,0.8-0.2,1.2
				c-0.1,0.4-0.4,0.7-0.7,1C201.5,564.5,201,564.6,200.3,564.6L200.3,564.6z M200,541.1L200,541.1c-0.2,0-0.3,0-0.6,0.1
				c-0.2,0-0.4,0.1-0.6,0.3c-0.4,0.3-0.6,0.6-0.7,1.1c0,0.5,0,1.3,0,2.3l0.4,17.3c0,0.1,0,0.3,0.1,0.4c0.2,1,0.7,1.5,1.7,1.5l0.1,0
				c0.5,0,0.9-0.1,1.1-0.3c0.3-0.2,0.4-0.5,0.5-0.8c0.1-0.3,0.2-0.7,0.2-1.1c0-0.4,0-0.8,0-1.2l-0.4-16c0-0.8-0.1-1.4-0.1-1.9
				c0-0.5-0.2-0.9-0.3-1.1c-0.1-0.1-0.3-0.3-0.5-0.4C200.7,541.2,200.4,541.1,200,541.1z"/>
		</g>
		<g>
			<path class="st24" d="M219,547l-3.4,0l0-4c0-0.1,0-0.4,0-0.7s-0.1-0.6-0.2-0.9c-0.1-0.3-0.3-0.6-0.6-0.8
				c-0.3-0.2-0.7-0.3-1.3-0.3c-0.4,0-0.7,0-0.9,0.1c-0.2,0.1-0.4,0.2-0.5,0.3c-0.4,0.4-0.7,0.8-0.7,1.3c0,0.5-0.1,1-0.1,1.5
				l0.2,15.8c0,0.1,0,0.3,0,0.4s0,0.3,0,0.4c0,0.2,0,0.4,0.1,0.6s0.1,0.5,0.3,0.7c0.1,0.2,0.3,0.4,0.6,0.5c0.3,0.1,0.7,0.2,1.2,0.2
				c0.1,0,0.3,0,0.6,0s0.5-0.1,0.8-0.3c0.4-0.3,0.7-0.7,0.8-1.2s0.1-1,0.1-1.5l0-5l3.4,0l0,4.8c0,0.7-0.1,1.4-0.2,2
				c-0.1,0.6-0.3,1.3-0.7,1.9c-0.1,0.2-0.3,0.5-0.6,0.7c-0.3,0.3-0.6,0.5-0.9,0.8c-0.4,0.2-0.8,0.4-1.3,0.6
				c-0.5,0.2-1.1,0.2-1.8,0.2c-0.7,0-1.2-0.1-1.7-0.2c-0.5-0.1-0.9-0.3-1.3-0.5c-0.4-0.2-0.7-0.4-0.9-0.7c-0.3-0.3-0.5-0.5-0.6-0.7
				c-0.5-0.7-0.7-1.4-0.8-2.1c-0.1-0.8-0.1-1.5-0.1-2.3l-0.1-14c0-0.3,0-0.6,0-0.9c0-0.3,0-0.6,0.1-0.9c0-0.2,0-0.6,0.1-1.1
				c0.1-0.5,0.2-1,0.4-1.5s0.6-1.1,1-1.6c0.5-0.5,1.1-0.9,1.9-1.2c0.4-0.1,0.7-0.2,1-0.3c0.3-0.1,0.7-0.1,1.1-0.1
				c0.9,0,1.7,0.1,2.2,0.3s1,0.5,1.3,0.8c0.3,0.2,0.5,0.4,0.7,0.7c0.2,0.3,0.4,0.6,0.5,0.9c0.3,0.6,0.4,1.2,0.5,1.8
				c0.1,0.6,0.1,1.2,0.1,1.8L219,547z"/>
			<path class="st24" d="M213.5,565.6c-0.6,0-1.2-0.1-1.7-0.2c-0.5-0.1-1-0.3-1.3-0.5c-0.4-0.2-0.7-0.5-1-0.7
				c-0.3-0.3-0.5-0.5-0.6-0.7c-0.5-0.7-0.8-1.4-0.9-2.2c-0.1-0.8-0.1-1.5-0.1-2.3l-0.1-14.9c0-0.3,0-0.6,0.1-0.9
				c0-0.2,0-0.6,0.1-1.1c0.1-0.5,0.2-1,0.5-1.6c0.2-0.6,0.6-1.1,1.1-1.6c0.5-0.5,1.2-0.9,2-1.2c0.4-0.1,0.7-0.2,1.1-0.3
				c0.3-0.1,0.7-0.1,1.1-0.1h0.1c0.9,0,1.7,0.1,2.2,0.4c0.6,0.2,1,0.5,1.4,0.8c0.3,0.2,0.5,0.5,0.8,0.8c0.2,0.3,0.4,0.6,0.5,0.9
				c0.3,0.6,0.4,1.2,0.5,1.8c0.1,0.6,0.1,1.2,0.1,1.9l0,3.5l-3.8,0l0-4.2c0-0.1,0-0.4,0-0.7c0-0.3-0.1-0.5-0.2-0.8
				c-0.1-0.3-0.3-0.5-0.6-0.7c-0.3-0.2-0.6-0.3-1.1-0.3c-0.4,0-0.6,0-0.8,0.1c-0.2,0.1-0.4,0.2-0.5,0.3c-0.4,0.3-0.6,0.7-0.6,1.2
				c0,0.5-0.1,1-0.1,1.5l0.2,16.2c0,0.1,0,0.3,0,0.4c0,0.2,0,0.4,0.1,0.6c0,0.2,0.1,0.4,0.2,0.6c0.1,0.2,0.3,0.3,0.5,0.5
				c0.2,0.1,0.6,0.2,1,0.2c0.2,0,0.3,0,0.6,0c0.2,0,0.4-0.1,0.7-0.3c0.4-0.3,0.6-0.6,0.7-1.1c0.1-0.5,0.1-1,0.1-1.4l0-5.2l3.8,0
				l0,5.1c0,0.7-0.1,1.4-0.2,2.1c-0.1,0.7-0.4,1.3-0.8,2c-0.2,0.2-0.4,0.5-0.6,0.8c-0.3,0.3-0.6,0.5-1,0.8c-0.4,0.2-0.9,0.4-1.4,0.6
				C214.9,565.5,214.3,565.6,213.5,565.6L213.5,565.6z M213.7,537.6L213.7,537.6c-0.5,0-0.9,0-1.2,0.1c-0.3,0.1-0.7,0.1-1,0.3
				c-0.8,0.3-1.4,0.6-1.8,1.1c-0.4,0.5-0.8,1-1,1.5c-0.2,0.5-0.4,1-0.4,1.5c-0.1,0.5-0.1,0.8-0.1,1.1c0,0.3-0.1,0.6-0.1,0.9
				l0.1,14.9c0,0.8,0,1.5,0.1,2.3c0.1,0.7,0.3,1.4,0.8,2c0.1,0.2,0.3,0.4,0.6,0.7c0.2,0.2,0.5,0.5,0.9,0.7c0.4,0.2,0.8,0.4,1.2,0.5
				c0.5,0.1,1,0.2,1.6,0.2h0.1c0.7,0,1.2-0.1,1.7-0.2c0.5-0.1,0.9-0.3,1.3-0.6c0.4-0.2,0.7-0.5,0.9-0.7c0.2-0.3,0.4-0.5,0.6-0.7
				c0.4-0.6,0.6-1.2,0.7-1.8c0.1-0.6,0.1-1.3,0.2-2l0-4.6l-3,0l0,4.8c0,0.5,0,1-0.1,1.5c-0.1,0.5-0.3,1-0.8,1.4
				c-0.3,0.2-0.6,0.3-0.9,0.4c-0.3,0-0.5,0-0.6,0c0,0,0,0,0,0c-0.6,0-1-0.1-1.3-0.2c-0.3-0.2-0.5-0.4-0.7-0.6
				c-0.2-0.2-0.3-0.5-0.3-0.8c0-0.2-0.1-0.5-0.1-0.7c0-0.1,0-0.3,0-0.4l-0.2-16.2c0-0.5,0-1,0.1-1.5c0-0.6,0.3-1.1,0.8-1.5
				c0.2-0.1,0.4-0.3,0.6-0.4c0.2-0.1,0.6-0.1,1-0.2h0c0.6,0,1.1,0.1,1.4,0.4c0.3,0.3,0.6,0.5,0.7,0.9c0.1,0.3,0.2,0.6,0.2,1
				c0,0.3,0,0.5,0,0.7l0,3.8l3,0l0-3.1c0-0.6,0-1.2-0.1-1.8c-0.1-0.6-0.2-1.1-0.5-1.7c-0.1-0.3-0.3-0.6-0.5-0.9
				c-0.2-0.3-0.4-0.5-0.7-0.7c-0.3-0.3-0.8-0.5-1.3-0.7C215.3,537.7,214.6,537.6,213.7,537.6z"/>
		</g>
		<g>
			<path class="st24" d="M231.8,538.8l-3.9,13l5.4,12.9l-3.4,0.1l-4.1-10.1c-0.1-0.3-0.2-0.6-0.4-0.9c-0.1-0.3-0.2-0.6-0.4-1
				l0.4,13.6l-3.3,0.1l-0.6-29.9l3.4-0.1l0.2,12.8c0,0.3,0,0.7,0,1c0,0.3,0,0.6,0,0.9c0.1-0.4,0.2-0.7,0.3-1.1
				c0.1-0.4,0.2-0.8,0.3-1.2l2.8-10L231.8,538.8z"/>
			<path class="st24" d="M221.8,566.7l-0.6-30.3l3.8-0.1l0.2,13.1c0.1-0.2,0.1-0.4,0.2-0.6l2.9-10.1l3.9-0.1l-4,13.2l5.5,13.1
				l-3.9,0.1l-4.2-10.2c-0.1-0.2-0.2-0.5-0.3-0.7l0.3,12.5L221.8,566.7z M221.6,536.8l0.6,29.4l2.9-0.1l-0.4-14.6l0.4,1.1
				c0.1,0.3,0.2,0.7,0.4,1c0.1,0.3,0.2,0.6,0.4,0.9l4.1,9.9l3-0.1l-5.3-12.7l3.9-12.8l-3,0.1l-2.8,9.8c-0.1,0.4-0.2,0.8-0.3,1.2
				c-0.1,0.4-0.2,0.8-0.3,1.1l-0.4-0.1c0-0.3,0-0.6,0-0.9l0-1l-0.2-12.6L221.6,536.8z"/>
		</g>
		<g>
			<path class="st24" d="M243.1,546.5l-3.1,0.1l-0.1-4.6c0-0.1,0-0.2,0-0.4c0-0.2-0.1-0.4-0.1-0.6c-0.1-0.2-0.2-0.4-0.4-0.5
				c-0.2-0.2-0.5-0.2-0.8-0.2c-0.4,0-0.7,0.1-0.9,0.3c-0.2,0.2-0.4,0.4-0.5,0.6c-0.1,0.3-0.2,0.5-0.2,0.9c0,0.3,0,0.6,0,0.9
				c0,0.5,0.1,1,0.1,1.5c0.1,0.4,0.2,0.9,0.4,1.3c0.2,0.4,0.3,0.8,0.6,1.2c0.2,0.4,0.5,0.8,0.8,1.2c0.3,0.4,0.5,0.8,0.8,1.1
				c0.3,0.4,0.5,0.7,0.8,1.1c0.4,0.5,0.8,1.1,1.2,1.7c0.5,0.7,0.8,1.3,1.1,1.9c0.3,0.6,0.5,1.1,0.7,1.7c0.2,0.5,0.3,1,0.3,1.4
				c0,0.4,0.1,0.8,0.1,1.2c0,0.1,0,0.5,0,1c0,0.5-0.1,1-0.3,1.6c-0.2,0.6-0.4,1.2-0.8,1.8c-0.4,0.6-0.9,1.1-1.6,1.4
				c-0.2,0.1-0.5,0.2-0.9,0.3c-0.4,0.1-0.8,0.2-1.4,0.2c-1.1,0-1.9-0.1-2.5-0.4c-0.6-0.3-1.1-0.7-1.3-1c-0.6-0.6-0.9-1.2-1-1.9
				c-0.1-0.7-0.2-1.4-0.2-2.2l-0.1-4.3l3.2-0.1l0.1,4.7c0,0.6,0.1,1.1,0.2,1.4c0.1,0.3,0.3,0.5,0.6,0.7c0.1,0,0.2,0.1,0.4,0.2
				c0.2,0.1,0.4,0.1,0.7,0.1c0.4,0,0.7-0.1,1-0.3c0.2-0.2,0.4-0.5,0.5-0.8c0.1-0.3,0.1-0.6,0.1-1c0-0.4,0-0.7,0-1
				c0-0.9-0.1-1.7-0.3-2.3c-0.2-0.6-0.5-1.3-1-2.1c-0.5-0.8-1.1-1.6-1.6-2.4s-1.1-1.5-1.6-2.4c-0.2-0.2-0.3-0.5-0.6-0.9
				c-0.2-0.4-0.5-0.8-0.7-1.3c-0.2-0.5-0.4-1.1-0.6-1.7c-0.2-0.6-0.3-1.3-0.3-2.1c0-1.4,0.2-2.5,0.7-3.3c0.5-0.8,1-1.4,1.5-1.7
				c0.3-0.2,0.6-0.3,1.1-0.5c0.5-0.2,1.1-0.2,1.8-0.3c0.2,0,0.4,0,0.8,0c0.4,0,0.8,0.1,1.2,0.2c0.4,0.1,0.8,0.4,1.2,0.7
				c0.4,0.3,0.7,0.8,0.9,1.4c0.1,0.2,0.1,0.5,0.2,0.8c0,0.3,0.1,0.7,0.1,1.2L243.1,546.5z"/>
			<path class="st24" d="M238.4,564.7c-1,0-1.7-0.2-2.3-0.5c-0.6-0.3-1.1-0.7-1.4-1c-0.6-0.6-0.9-1.3-1-2c-0.1-0.7-0.2-1.4-0.2-2.2
				l-0.1-4.5l3.6-0.1l0.1,4.9c0,0.6,0.1,1.1,0.2,1.3c0.1,0.3,0.3,0.5,0.5,0.6c0.1,0,0.2,0.1,0.3,0.2c0.1,0.1,0.3,0.1,0.5,0.1l0.1,0
				c0.4,0,0.6-0.1,0.8-0.3c0.2-0.2,0.3-0.4,0.4-0.7c0.1-0.3,0.1-0.6,0.1-0.9c0-0.4,0-0.7,0-1c0-0.9-0.1-1.7-0.3-2.3
				c-0.2-0.6-0.5-1.3-1-2.1c-0.5-0.8-1-1.6-1.6-2.4c-0.6-0.8-1.1-1.6-1.6-2.4c-0.1-0.2-0.3-0.5-0.6-0.9c-0.2-0.4-0.5-0.8-0.7-1.3
				c-0.2-0.5-0.4-1.1-0.6-1.8c-0.2-0.6-0.3-1.4-0.3-2.2c0-1.5,0.2-2.6,0.7-3.5c0.5-0.8,1-1.4,1.6-1.8c0.3-0.2,0.7-0.4,1.2-0.5
				c0.5-0.2,1.1-0.3,1.9-0.3l0.1,0c0.2,0,0.4,0,0.7,0c0.4,0,0.8,0.1,1.3,0.2c0.4,0.1,0.9,0.4,1.3,0.7c0.4,0.4,0.8,0.9,1,1.5
				c0.1,0.3,0.1,0.5,0.2,0.8c0,0.3,0.1,0.7,0.1,1.2l0.1,4.8l-3.5,0.1l-0.1-4.8c0-0.1,0-0.2,0-0.4c0-0.2-0.1-0.4-0.1-0.6
				c-0.1-0.2-0.2-0.3-0.3-0.4c-0.1-0.1-0.3-0.2-0.6-0.2l-0.1,0c-0.4,0-0.6,0.1-0.8,0.2c-0.2,0.1-0.3,0.3-0.4,0.5
				c-0.1,0.2-0.1,0.5-0.2,0.8c0,0.3,0,0.6,0,0.9c0,0.5,0.1,1,0.1,1.4c0.1,0.4,0.2,0.8,0.4,1.2c0.2,0.4,0.3,0.8,0.6,1.2
				c0.2,0.4,0.5,0.8,0.8,1.2c0.3,0.4,0.5,0.8,0.8,1.1c0.3,0.4,0.5,0.7,0.8,1.1c0.4,0.5,0.8,1.1,1.2,1.7c0.5,0.7,0.8,1.4,1.1,2
				c0.3,0.6,0.5,1.2,0.7,1.7c0.2,0.5,0.3,1,0.3,1.5c0,0.4,0.1,0.9,0.1,1.2c0,0.1,0,0.5,0,1c0,0.5-0.1,1.1-0.3,1.7
				c-0.2,0.6-0.4,1.2-0.8,1.9c-0.4,0.6-1,1.1-1.7,1.5c-0.2,0.1-0.5,0.2-0.9,0.3c-0.4,0.1-0.9,0.2-1.4,0.2
				C238.6,564.7,238.5,564.7,238.4,564.7z M233.7,554.8l0.1,4.1c0,0.7,0.1,1.4,0.2,2.1c0.1,0.6,0.4,1.2,1,1.8c0.3,0.3,0.7,0.6,1.3,1
				c0.6,0.3,1.4,0.4,2.4,0.4c0.5,0,1-0.1,1.3-0.2c0.4-0.1,0.6-0.2,0.8-0.3c0.7-0.3,1.2-0.8,1.5-1.3c0.4-0.6,0.6-1.2,0.8-1.8
				c0.2-0.6,0.2-1.1,0.3-1.6c0-0.5,0-0.8,0-0.9c0-0.4,0-0.8-0.1-1.2c0-0.4-0.2-0.9-0.3-1.4c-0.2-0.5-0.4-1-0.7-1.6
				c-0.3-0.6-0.6-1.2-1.1-1.9c-0.4-0.6-0.8-1.2-1.2-1.6c-0.3-0.4-0.5-0.8-0.8-1.1c-0.3-0.4-0.5-0.7-0.8-1.1
				c-0.3-0.4-0.6-0.9-0.8-1.2c-0.2-0.4-0.4-0.8-0.6-1.2c-0.2-0.4-0.3-0.8-0.4-1.3c-0.1-0.4-0.1-1-0.2-1.5c0-0.3,0-0.6,0-0.9
				c0-0.3,0.1-0.7,0.2-0.9c0.1-0.3,0.3-0.5,0.5-0.7c0.2-0.2,0.6-0.3,1.1-0.3l0.1,0c0.4,0,0.7,0.1,0.9,0.3c0.2,0.2,0.4,0.4,0.5,0.6
				c0.1,0.2,0.1,0.4,0.2,0.6c0,0.2,0,0.3,0,0.4l0.1,4.4l2.7-0.1l-0.1-4.4c0-0.5-0.1-0.9-0.1-1.1c0-0.3-0.1-0.5-0.2-0.7
				c-0.2-0.6-0.5-1-0.9-1.3c-0.4-0.3-0.8-0.5-1.2-0.7c-0.4-0.1-0.8-0.2-1.1-0.2c-0.3,0-0.5,0-0.7,0l-0.1,0c-0.7,0-1.3,0.1-1.8,0.3
				c-0.5,0.2-0.8,0.3-1.1,0.5c-0.5,0.3-1,0.9-1.5,1.6c-0.5,0.8-0.7,1.9-0.6,3.2c0,0.7,0.1,1.4,0.3,2.1c0.2,0.6,0.4,1.2,0.6,1.7
				c0.2,0.5,0.4,0.9,0.7,1.3c0.2,0.4,0.4,0.7,0.6,0.9c0.5,0.8,1.1,1.6,1.6,2.4c0.6,0.8,1.1,1.6,1.6,2.4c0.5,0.8,0.8,1.5,1.1,2.2
				c0.2,0.7,0.3,1.5,0.3,2.4c0,0.3,0,0.6,0,1c0,0.4-0.1,0.7-0.1,1.1c-0.1,0.3-0.3,0.6-0.5,0.9c-0.3,0.2-0.6,0.4-1.1,0.4l-0.1,0
				c-0.3,0-0.5,0-0.7-0.1c-0.2-0.1-0.3-0.2-0.4-0.2c-0.3-0.2-0.5-0.5-0.7-0.8c-0.1-0.3-0.2-0.8-0.2-1.5l-0.1-4.5L233.7,554.8z"/>
		</g>
		<g>
			<path class="st24" d="M249.5,535.2v12.9l-0.7,7.6l-1.6,0l-0.7-8.5l0-12L249.5,535.2z M249.5,558.9l0,4.8l-3,0l0-4.8L249.5,558.9z
				"/>
			<path class="st24" d="M249.6,564l-3.4,0l0-5.2l3.4,0L249.6,564z M246.7,563.5l2.6,0l0-4.4l-2.6,0L246.7,563.5z M249,555.8l-2,0
				l-0.7-8.7l0-12.2l3.4,0v13.1L249,555.8z M247.4,555.4l1.2,0l0.7-7.4l0-12.7l-2.5,0l0,11.8L247.4,555.4z"/>
		</g>
		<g>
			<path class="st24" d="M184.5,588.8l-0.3-1.6H183l-0.3,1.6h-0.8l1.3-6.8h0.9l1.3,6.8H184.5z M183.6,583.6l-0.5,2.9h0.9
				L183.6,583.6z"/>
			<path class="st24" d="M188.5,588.8l-0.2-0.5c-0.2,0.4-0.6,0.6-1.1,0.6c-0.9,0-1.5-0.7-1.5-1.6v-3.8c0-0.9,0.6-1.6,1.6-1.6
				c1,0,1.5,0.7,1.5,1.6v0.7h-0.8v-0.8c0-0.4-0.2-0.7-0.7-0.7c-0.5,0-0.8,0.4-0.8,0.7v4c0,0.4,0.2,0.8,0.8,0.8
				c0.5,0,0.8-0.4,0.8-0.8v-1.3h-0.7v-0.7h1.5v3.4L188.5,588.8L188.5,588.8z"/>
			<path class="st24" d="M189.6,588.8V582h0.9v6.8H189.6z"/>
			<path class="st24" d="M191.2,588.8V582h0.9v6h1.8v0.8H191.2L191.2,588.8z"/>
			<path class="st24" d="M194.5,588.8V582h2.7v0.8h-1.8v2.1h1.3v0.7h-1.3v2.4h1.8v0.8H194.5z"/>
			<path class="st24" d="M200.8,588.9c-1,0-1.6-0.7-1.6-1.6v-3.8c0-0.9,0.6-1.6,1.6-1.6s1.6,0.7,1.6,1.6v0.9h-0.8v-1
				c0-0.5-0.3-0.8-0.8-0.8c-0.5,0-0.8,0.3-0.8,0.7v4c0,0.4,0.3,0.7,0.8,0.7c0.5,0,0.8-0.3,0.8-0.8v-1h0.8v0.9
				C202.4,588.2,201.8,588.9,200.8,588.9z"/>
			<path class="st24" d="M204.6,588.9c-1,0-1.6-0.7-1.6-1.7v-3.7c0-1,0.6-1.7,1.6-1.7s1.6,0.7,1.6,1.7v3.7
				C206.2,588.2,205.6,588.9,204.6,588.9z M205.3,583.4c0-0.5-0.3-0.8-0.8-0.8c-0.5,0-0.8,0.3-0.8,0.8v3.9c0,0.5,0.2,0.8,0.8,0.8
				c0.5,0,0.8-0.3,0.8-0.8V583.4z"/>
			<path class="st24" d="M209.2,588.8l-0.3-1.6h-1.2l-0.3,1.6h-0.8l1.3-6.8h0.9l1.3,6.8H209.2z M208.3,583.6l-0.5,2.9h0.9
				L208.3,583.6z"/>
			<path class="st24" d="M212.1,588.9c-1,0-1.6-0.7-1.6-1.6v-3.8c0-0.9,0.6-1.6,1.6-1.6c1,0,1.6,0.7,1.6,1.6v0.9h-0.8v-1
				c0-0.5-0.3-0.8-0.8-0.8c-0.5,0-0.8,0.3-0.8,0.7v4c0,0.4,0.3,0.7,0.8,0.7c0.5,0,0.8-0.3,0.8-0.8v-1h0.8v0.9
				C213.6,588.2,213.1,588.9,212.1,588.9z"/>
			<path class="st24" d="M216.7,588.8v-3h-1.5v3h-0.9V582h0.9v3h1.5v-3h0.9v6.8H216.7z"/>
			<path class="st24" d="M218.3,588.8V582h0.9v6.8H218.3z"/>
			<path class="st24" d="M222.6,588.8l-1.4-3.4l-0.5-1.1v4.5h-0.8V582h0.7l1.3,3.4l0.4,1.2V582h0.8v6.8L222.6,588.8L222.6,588.8z"/>
			<path class="st24" d="M226.7,588.8l-0.2-0.5c-0.2,0.4-0.6,0.6-1.1,0.6c-0.9,0-1.5-0.7-1.5-1.6v-3.8c0-0.9,0.6-1.6,1.6-1.6
				c1,0,1.5,0.7,1.5,1.6v0.7h-0.8v-0.8c0-0.4-0.2-0.7-0.7-0.7c-0.5,0-0.8,0.4-0.8,0.7v4c0,0.4,0.2,0.8,0.8,0.8
				c0.5,0,0.8-0.4,0.8-0.8v-1.3h-0.7v-0.7h1.5v3.4L226.7,588.8L226.7,588.8z"/>
			<path class="st24" d="M185.7,597.3c-0.3,0-0.7-0.2-1-0.5c-0.3,0.3-0.8,0.5-1.2,0.5c-0.9,0-1.5-0.7-1.5-1.7c0-0.9,0.4-1.6,1.2-2.2
				c-0.2-0.5-0.3-1.1-0.3-1.6c0-0.9,0.5-1.6,1.3-1.6c0.8,0,1.1,0.6,1.1,1.4c0,0.8-0.5,1.5-1.3,2.1c0.2,0.6,0.4,1.5,0.7,1.9
				c0.3-0.6,0.6-1.4,0.6-1.9h0.7c0,0.8-0.3,1.9-0.8,2.6c0.1,0.2,0.3,0.3,0.5,0.3c0.2,0,0.3-0.1,0.3-0.3v-0.6h0.6v0.7
				C186.6,597,186.2,597.3,185.7,597.3z M183.5,594.3c-0.3,0.3-0.6,0.8-0.6,1.3c0,0.7,0.3,1,0.8,1c0.2,0,0.4-0.1,0.6-0.3
				C184,595.8,183.7,595,183.5,594.3z M184.2,591c-0.3,0-0.5,0.3-0.5,0.9c0,0.3,0.1,0.7,0.2,1.2c0.6-0.5,0.8-1,0.8-1.4
				C184.6,591.3,184.5,591,184.2,591z"/>
			<path class="st24" d="M189.8,591.2v6h-0.9v-6h-1.2v-0.8h3.1v0.8H189.8z"/>
			<path class="st24" d="M194.6,597.3c-0.6,0-0.9-0.2-0.9-0.8v-1.6c0-0.4-0.2-0.7-0.6-0.7h-0.8v3h-0.9v-6.8h1.7
				c0.9,0,1.4,0.4,1.4,1.4v1c0,0.6-0.2,1-0.7,1.1c0.5,0.1,0.8,0.6,0.8,1.1v1.5c0,0.2,0.1,0.3,0.2,0.3v0.6L194.6,597.3L194.6,597.3z
				 M193.7,591.7c0-0.4-0.2-0.6-0.5-0.6h-0.8v2.4h0.7c0.4,0,0.6-0.2,0.6-0.7V591.7z"/>
			<path class="st24" d="M197.8,597.2l-0.3-1.6h-1.2l-0.3,1.6h-0.8l1.3-6.8h0.9l1.3,6.8H197.8z M196.9,592l-0.5,2.9h0.9L196.9,592z"
				/>
			<path class="st24" d="M199.2,597.2v-6.8h0.9v6.8H199.2z"/>
			<path class="st24" d="M203.5,597.2l-1.4-3.4l-0.5-1.1v4.5h-0.8v-6.8h0.7l1.3,3.4l0.4,1.2v-4.6h0.8v6.8L203.5,597.2L203.5,597.2z"
				/>
			<path class="st24" d="M204.8,597.2v-6.8h0.9v6.8H204.8z"/>
			<path class="st24" d="M209.1,597.2l-1.4-3.4l-0.5-1.1v4.5h-0.8v-6.8h0.7l1.3,3.4l0.4,1.2v-4.6h0.8v6.8L209.1,597.2L209.1,597.2z"
				/>
			<path class="st24" d="M213.2,597.2l-0.2-0.5c-0.2,0.4-0.6,0.6-1.1,0.6c-0.9,0-1.5-0.7-1.5-1.6v-3.8c0-0.9,0.6-1.6,1.6-1.6
				c1,0,1.5,0.7,1.5,1.6v0.7h-0.8v-0.8c0-0.4-0.2-0.7-0.7-0.7c-0.5,0-0.8,0.4-0.8,0.7v4c0,0.4,0.2,0.8,0.8,0.8
				c0.5,0,0.8-0.4,0.8-0.8v-1.3h-0.7v-0.7h1.5v3.4L213.2,597.2L213.2,597.2z"/>
			<rect x="215.2" y="593.8" class="st24" width="8.7" height="0.6"/>
		</g>
		<rect x="181.8" y="619.3" class="st24" width="14.4" height="0.4"/>
		<g>
			<path class="st24" d="M184.6,533.8c-1.2,0-2-0.8-2-2V527c0-1.2,0.8-2,2-2c1.2,0,2,0.8,2,2v4.8C186.6,533,185.8,533.8,184.6,533.8
				z M185.3,526.9c0-0.4-0.2-0.7-0.7-0.7c-0.4,0-0.7,0.3-0.7,0.7v5c0,0.4,0.2,0.7,0.7,0.7c0.4,0,0.7-0.3,0.7-0.7V526.9z"/>
			<path class="st24" d="M189.5,533.8c-1.1,0-2-0.8-2-1.9v-6.7h1.4v6.8c0,0.4,0.2,0.7,0.6,0.7c0.4,0,0.7-0.2,0.7-0.7v-6.8h1.3v6.7
				C191.5,533,190.6,533.8,189.5,533.8z"/>
			<path class="st24" d="M195.7,533.7c-0.5,0-0.7-0.5-0.7-1.2v-1.8c0-0.3-0.2-0.6-0.5-0.6h-0.7v3.6h-1.4v-8.5h2.2
				c0.9,0,1.7,0.5,1.7,1.7v1.5c0,0.6-0.3,1-0.8,1.2c0.5,0.2,0.8,0.7,0.8,1.2v1.7c0,0.4,0.1,0.7,0.3,0.9v0.4H195.7z M194.9,526.9
				c0-0.4-0.1-0.5-0.5-0.5h-0.7v2.7h0.6c0.3,0,0.5-0.2,0.5-0.6V526.9z"/>
			<path class="st24" d="M201.1,526.4v7.3h-1.4v-7.3h-1.3v-1.2h4v1.2H201.1z"/>
			<path class="st24" d="M203,533.7v-8.5h3.4v1.2h-2v2.3h1.4v1.1h-1.4v2.6h2v1.2H203z"/>
			<path class="st24" d="M209.6,533.7l-0.2-1.7h-1.2l-0.3,1.7h-1.2l1.4-8.5h1.5l1.4,8.5H209.6z M208.9,527.4l-0.5,3.5h0.9
				L208.9,527.4z"/>
			<path class="st24" d="M215.8,533.7v-6.3l-0.3,1.8l-0.8,4.5h-1l-0.8-4.5l-0.3-1.8v6.3h-1.2v-8.5h1.8l0.7,4.3l0.2,1.6l0.2-1.6
				l0.7-4.3h1.8v8.5H215.8z"/>
		</g>
		<g>
			<g>
				<polygon class="st24" points="188.2,571.1 186,571.1 184.1,573.2 184.1,569.1 182.3,569.1 182.3,577.3 184.1,577.3 184.1,575.5 
					184.8,574.8 186.3,577.3 188.4,577.3 186.1,573.5 				"/>
				<path class="st24" d="M195.8,575.8c-0.2,0.2-0.5,0.3-0.8,0.3c-0.3,0-0.6-0.1-0.9-0.3c-0.3-0.3-0.5-0.7-0.5-1.2h4.2
					c0-1.1-0.2-1.9-0.7-2.5c-0.5-0.7-1.3-1.1-2.3-1.1c-0.9,0-1.7,0.3-2.2,0.9c-0.5,0.6-0.8,1.4-0.8,2.5c0,0.9,0.3,1.6,0.8,2.2
					c0.5,0.6,1.3,0.9,2.2,0.9c1.4,0,2.4-0.6,3-1.7l-1.4-0.7C196.2,575.4,196,575.7,195.8,575.8z M194.1,572.6
					c0.2-0.2,0.5-0.3,0.8-0.3c0.3,0,0.6,0.1,0.8,0.3c0.3,0.2,0.4,0.5,0.4,0.9h-2.5C193.7,573.1,193.8,572.8,194.1,572.6z"/>
				<path class="st24" d="M202.6,575.8c-0.2,0.2-0.5,0.3-0.8,0.3c-0.3,0-0.6-0.1-0.9-0.3c-0.3-0.3-0.5-0.7-0.5-1.2h4.2
					c0-1.1-0.2-1.9-0.7-2.5c-0.5-0.7-1.3-1.1-2.3-1.1c-0.9,0-1.7,0.3-2.2,0.9c-0.5,0.6-0.8,1.4-0.8,2.5c0,0.9,0.3,1.6,0.8,2.2
					c0.5,0.6,1.3,0.9,2.2,0.9c1.4,0,2.4-0.6,3-1.7l-1.4-0.7C203,575.4,202.8,575.7,202.6,575.8z M200.9,572.6
					c0.2-0.2,0.5-0.3,0.8-0.3c0.3,0,0.6,0.1,0.8,0.3c0.3,0.2,0.4,0.5,0.4,0.9h-2.5C200.4,573.1,200.6,572.8,200.9,572.6z"/>
				<path class="st24" d="M209.1,571.1c-0.7,0.1-1.3,0.3-1.7,0.6v-0.6h-1.8v6.1h1.8v-3.6c0-0.3,0.1-0.6,0.3-0.7
					c0.2-0.1,0.6-0.2,1.2-0.3l0.2,0L209.1,571.1z"/>
				<rect x="189.2" y="569.1" class="st24" width="1.8" height="8.2"/>
			</g>
		</g>
		<path class="st24" d="M185.1,604.3l-0.2,1.2h1v0.5h-1.1l-0.2,1.1H184l0.2-1.1h-1l-0.2,1.1h-0.5l0.2-1.1h-0.9v-0.5h1l0.2-1.2h-1
			v-0.5h1.1l0.2-1.1h0.5l-0.2,1.1h1l0.2-1.1h0.5l-0.2,1.1h0.9v0.5H185.1z M183.6,604.3l-0.2,1.2h1l0.2-1.2H183.6z"/>
		<path class="st24" d="M189,604.3V604c0-0.4-0.2-0.6-0.6-0.6c-0.5,0-0.7,0.3-0.7,0.7v1.6c0,0.4,0.3,0.7,0.7,0.7
			c0.4,0,0.6-0.2,0.6-0.6v-0.3h1v0.4c0,0.8-0.6,1.4-1.6,1.4c-1.1,0-1.8-0.7-1.8-1.6v-1.4c0-0.9,0.7-1.6,1.8-1.6c1,0,1.6,0.6,1.6,1.4
			v0.3L189,604.3L189,604.3z"/>
		<path class="st24" d="M191.8,607.2c-0.8,0-1.3-0.5-1.3-1.2v-0.8c0-0.7,0.5-1.2,1.3-1.2c0.8,0,1.3,0.5,1.3,1.2v0.5h-1.8v0.4
			c0,0.3,0.2,0.5,0.5,0.5c0.3,0,0.5-0.2,0.5-0.4V606h0.8v0C193.1,606.8,192.5,607.2,191.8,607.2z M192.2,605c0-0.3-0.2-0.4-0.5-0.4
			c-0.3,0-0.5,0.2-0.5,0.4v0.3h1L192.2,605L192.2,605z"/>
		<path class="st24" d="M193.6,607.1v-4.4h0.9v4.4H193.6z"/>
		<path class="st24" d="M196.5,607.2c-0.8,0-1.3-0.5-1.3-1.2v-0.8c0-0.7,0.5-1.2,1.3-1.2c0.8,0,1.3,0.5,1.3,1.2v0.5H196v0.4
			c0,0.3,0.2,0.5,0.5,0.5c0.3,0,0.5-0.2,0.5-0.4V606h0.8v0C197.8,606.8,197.2,607.2,196.5,607.2z M197,605c0-0.3-0.2-0.4-0.5-0.4
			s-0.5,0.2-0.5,0.4v0.3h1L197,605L197,605z"/>
		<path class="st24" d="M200,607.2c-0.4,0-0.7-0.2-0.9-0.5l-0.1,0.4h-0.6v-4.4h0.9v1.6c0.2-0.3,0.5-0.5,0.9-0.5
			c0.6,0,0.9,0.5,0.9,1.1v1C201.1,606.7,200.7,607.2,200,607.2z M200.2,605.1c0-0.4-0.2-0.5-0.5-0.5s-0.5,0.2-0.5,0.5v1
			c0,0.3,0.2,0.5,0.5,0.5c0.3,0,0.5-0.2,0.5-0.5V605.1z"/>
		<path class="st24" d="M203.5,604.8c-0.7-0.1-1,0.1-1,0.4v1.9h-0.9v-3.2h0.8l0,0.7c0.2-0.6,0.5-0.8,1.1-0.7L203.5,604.8z"/>
		<path class="st24" d="M206.5,607.2c-0.4,0-0.6-0.1-0.7-0.5c-0.2,0.3-0.6,0.5-1,0.5c-0.5,0-0.9-0.3-0.9-0.9v0c0-0.7,0.7-1,1.8-1
			v-0.4c0-0.3-0.1-0.4-0.4-0.4c-0.3,0-0.4,0.1-0.4,0.4v0.1H204v-0.1c0-0.6,0.4-1,1.2-1c0.8,0,1.2,0.5,1.2,1.2v1.4
			c0,0.1,0.1,0.2,0.2,0.2v0.6L206.5,607.2L206.5,607.2z M205.6,605.7c-0.6,0-0.9,0.1-0.9,0.5v0.1c0,0.2,0.2,0.3,0.4,0.3
			c0.3,0,0.5-0.2,0.5-0.4V605.7z"/>
		<path class="st24" d="M208.3,604.6v1.5c0,0.4,0.1,0.7,0.3,1h-1c-0.2-0.3-0.2-0.5-0.2-1v-1.5h-0.5V604h0.5v-0.6l0.9-0.2v0.8h0.6
			v0.7H208.3L208.3,604.6z"/>
		<path class="st24" d="M210.6,607.2c-0.8,0-1.3-0.5-1.3-1.2v-0.8c0-0.7,0.5-1.2,1.3-1.2c0.8,0,1.3,0.5,1.3,1.2v0.5h-1.8v0.4
			c0,0.3,0.2,0.5,0.5,0.5c0.3,0,0.5-0.2,0.5-0.4V606h0.8v0C211.8,606.8,211.3,607.2,210.6,607.2z M211,605c0-0.3-0.2-0.4-0.5-0.4
			s-0.5,0.2-0.5,0.4v0.3h1L211,605L211,605z"/>
		<path class="st24" d="M214,607.2c-1.1,0-1.7-0.5-1.7-1.4v-0.2h1v0.1c0,0.4,0.3,0.6,0.7,0.6s0.6-0.2,0.6-0.5c0-0.8-2.2-0.6-2.2-2
			c0-0.7,0.6-1.3,1.6-1.3c1,0,1.6,0.6,1.6,1.3v0.2h-1V604c0-0.3-0.2-0.6-0.7-0.6c-0.4,0-0.6,0.2-0.6,0.5c0,0.7,2.2,0.5,2.2,1.9
			C215.6,606.6,215,607.2,214,607.2z"/>
		<path class="st24" d="M218.1,607.1l0-0.6c-0.2,0.5-0.6,0.7-1,0.7c-0.6,0-0.9-0.4-0.9-1v-2.3h0.9v2.2c0,0.3,0.2,0.4,0.4,0.4
			c0.3,0,0.5-0.3,0.5-0.6v-2h0.9v3.2H218.1z"/>
		<path class="st24" d="M220.8,607.2c-0.8,0-1.3-0.5-1.3-1.3v-0.8c0-0.8,0.5-1.3,1.3-1.3c0.8,0,1.2,0.4,1.2,1.2v0.1h-0.8V605
			c0-0.3-0.2-0.4-0.5-0.4c-0.3,0-0.5,0.2-0.5,0.5v1c0,0.4,0.2,0.5,0.5,0.5c0.3,0,0.5-0.2,0.5-0.4v-0.2h0.8v0.1
			C222,606.8,221.6,607.2,220.8,607.2z"/>
		<path class="st24" d="M223.9,607.2c-0.8,0-1.3-0.5-1.3-1.3v-0.8c0-0.8,0.5-1.3,1.3-1.3c0.8,0,1.2,0.4,1.2,1.2v0.1h-0.8V605
			c0-0.3-0.2-0.4-0.5-0.4c-0.3,0-0.5,0.2-0.5,0.5v1c0,0.4,0.2,0.5,0.5,0.5c0.3,0,0.5-0.2,0.5-0.4v-0.2h0.8v0.1
			C225.1,606.8,224.6,607.2,223.9,607.2z"/>
		<path class="st24" d="M226.9,607.2c-0.8,0-1.3-0.5-1.3-1.2v-0.8c0-0.7,0.5-1.2,1.3-1.2c0.8,0,1.3,0.5,1.3,1.2v0.5h-1.8v0.4
			c0,0.3,0.2,0.5,0.5,0.5c0.3,0,0.5-0.2,0.5-0.4V606h0.8v0C228.2,606.8,227.7,607.2,226.9,607.2z M227.4,605c0-0.3-0.2-0.4-0.5-0.4
			s-0.5,0.2-0.5,0.4v0.3h1L227.4,605L227.4,605z"/>
		<path class="st24" d="M229.9,607.2c-0.8,0-1.3-0.4-1.3-1V606h0.8v0.1c0,0.3,0.2,0.4,0.5,0.4c0.3,0,0.5-0.1,0.5-0.3
			c0-0.6-1.7-0.3-1.7-1.4c0-0.6,0.5-1,1.2-1c0.8,0,1.2,0.4,1.2,1v0h-0.8v-0.1c0-0.2-0.2-0.4-0.5-0.4c-0.3,0-0.4,0.1-0.4,0.3
			c0,0.5,1.7,0.3,1.7,1.4C231.2,606.7,230.8,607.2,229.9,607.2z"/>
		<path class="st24" d="M232.8,607.2c-0.8,0-1.3-0.4-1.3-1V606h0.8v0.1c0,0.3,0.2,0.4,0.5,0.4c0.3,0,0.5-0.1,0.5-0.3
			c0-0.6-1.7-0.3-1.7-1.4c0-0.6,0.5-1,1.2-1c0.8,0,1.2,0.4,1.2,1v0h-0.8v-0.1c0-0.2-0.2-0.4-0.5-0.4c-0.3,0-0.4,0.1-0.4,0.3
			c0,0.5,1.7,0.3,1.7,1.4C234.1,606.7,233.7,607.2,232.8,607.2z"/>
	</g>
	<path class="st9" d="M199,670.1c-27.4,0-62.9-8.3-64.6-8.8l0.6-2.6c0.5,0.1,50.6,11.9,77.3,7.8l0.1,0l0.1,0
		c0.3,0,29.9,2.1,45.2-5.6l1.2,2.4c-15.5,7.8-43.9,6-46.4,5.9C208.5,669.8,203.9,670.1,199,670.1z"/>
</g>
</svg>
