<svg width="48" height="48" viewBox="0 0 48 48" fill="none" xmlns="http://www.w3.org/2000/svg">
<rect width="48" height="48" rx="24" fill="#68CEF2"/>
<path fill-rule="evenodd" clip-rule="evenodd" d="M24 12C24.5523 12 25 12.4477 25 13V35C25 35.5523 24.5523 36 24 36C23.4477 36 23 35.5523 23 35V13C23 12.4477 23.4477 12 24 12Z" fill="#333333"/>
<path fill-rule="evenodd" clip-rule="evenodd" d="M14.2929 25.2929C14.6834 24.9024 15.3166 24.9024 15.7071 25.2929L24 33.5858L32.2929 25.2929C32.6834 24.9024 33.3166 24.9024 33.7071 25.2929C34.0976 25.6834 34.0976 26.3166 33.7071 26.7071L24.7071 35.7071C24.3166 36.0976 23.6834 36.0976 23.2929 35.7071L14.2929 26.7071C13.9024 26.3166 13.9024 25.6834 14.2929 25.2929Z" fill="#333333"/>
</svg>
