<svg width="153" height="123" viewBox="0 0 153 123" fill="none" xmlns="http://www.w3.org/2000/svg">
<g clip-path="url(#clip0_529_6513)">
<path d="M144.218 48.6556C144.347 49.1085 144.445 49.5695 144.494 50.0357C144.635 51.4083 144.65 52.8274 144.657 54.2041C144.659 54.4795 144.658 54.7501 144.636 55.0246C144.508 56.6131 144.041 58.2191 143.655 59.7418C143.527 60.2432 143.376 60.7321 143.18 61.2075C142.57 62.689 141.768 64.1095 141.008 65.5106C140.762 65.9631 140.494 66.4078 140.207 66.8331C139.003 68.6162 137.45 70.1969 135.985 71.732C135.314 72.4366 134.583 73.0829 133.804 73.6761C131.331 75.5529 128.589 77.2888 125.701 78.4708C124.218 79.0767 122.672 79.5564 121.128 80.006C120.213 80.6733 119.25 81.2477 118.288 81.6892C116.895 82.3288 115.371 82.8327 113.834 82.9863C112.747 83.094 111.123 83.1322 110.029 83.088C109.837 83.0783 109.647 83.0734 109.458 83.0452C109.265 83.0191 109.071 82.9697 108.876 82.9272C107.594 82.6472 106.259 82.3745 105.004 81.9905C104.857 81.9429 104.712 81.8884 104.568 81.8339C101.522 81.7197 98.5007 81.3124 95.4866 80.8098C94.5674 80.973 93.654 81.1737 92.7491 81.405C89.304 82.6241 86.0094 84.2455 82.8698 86.1179C75.7883 90.8747 69.4818 96.7134 62.4668 101.578C60.0504 103.256 57.5747 104.904 55.013 106.402C54.2688 107.577 53.3612 108.632 52.2745 109.557C51.2228 110.223 50.1665 110.892 49.1149 111.559C46.8256 112.598 44.4248 112.999 41.9154 112.742C41.3697 112.716 40.8272 112.66 40.2907 112.556C39.9223 112.483 39.547 112.408 39.1765 112.331C38.3838 112.362 37.5805 112.356 36.7977 112.285L36.6064 112.252C35.4451 111.974 34.286 111.701 33.1247 111.423C33.0328 111.396 32.9435 111.362 32.8516 111.336C30.3685 110.48 27.9128 108.583 26.2355 106.587C25.7451 106.001 25.1326 104.988 24.6271 104.122C24.4018 103.903 24.174 103.692 23.9555 103.476C23.1093 102.622 22.3301 101.692 21.6169 100.72C20.1883 98.7705 18.9115 96.6942 17.7095 94.5951C16.3329 92.2024 15.6 89.727 14.8312 87.0495C14.1447 84.6505 14.1156 82.013 14.2388 79.5587C14.2798 78.7693 14.3808 77.987 14.5097 77.2033C14.4132 75.7928 14.3522 74.3603 14.4386 72.9521C14.4704 72.4027 14.546 71.862 14.6448 71.3221C14.9647 69.6802 15.2948 68.0107 15.7872 66.4104C16.438 64.2889 17.6116 62.2667 18.6341 60.3483C20.2676 57.2985 22.6443 54.816 24.978 52.3016C26.7218 50.4202 28.6481 48.7138 30.7082 47.1874C32.6738 45.7275 34.771 44.4428 36.8429 43.1526C37.0551 43.0207 37.2716 42.8984 37.4812 42.7734C37.5003 42.7531 37.5147 42.735 37.536 42.7195C38.8984 41.3811 40.3533 40.1326 41.8727 38.9752C44.3694 37.0759 47.0543 35.4008 49.7328 33.7862C51.3935 32.7881 53.1028 31.8713 54.8536 31.0447C59.5006 28.8428 64.4276 27.3001 69.377 25.9426C73.2926 24.8699 77.3012 24.111 81.3424 23.6707C83.3978 23.446 85.4647 23.3081 87.5339 23.2496C90.7062 23.1564 93.8717 23.0605 97.0464 23.2076C101.116 23.3983 105.17 23.901 109.165 24.7235C114.289 25.7757 119.393 27.0675 124.299 28.921C127.321 30.0585 130.245 31.5049 132.998 33.2084C133.879 33.753 134.718 34.3684 135.49 35.0605C137.048 36.45 138.791 37.8582 140.003 39.6077C140.803 40.7698 141.564 42.0191 142.284 43.2296C142.404 43.4278 142.514 43.6303 142.617 43.8419C143.361 45.3518 143.745 47.0557 144.202 48.6573L144.218 48.6556Z" fill="#68CEF2"/>
</g>
<defs>
<clipPath id="clip0_529_6513">
<rect width="134.795" height="72.6722" fill="white" transform="matrix(0.908838 -0.41715 -0.41715 -0.908838 30.3245 122.277)"/>
</clipPath>
</defs>
</svg>
