<svg width="92" height="84" viewBox="0 0 92 84" fill="none" xmlns="http://www.w3.org/2000/svg">
<g clip-path="url(#clip0_435_6966)">
<path d="M-6.38601 70.0727C-6.2207 70.3737 -6.03528 70.6632 -5.82166 70.9305C-5.19086 71.7155 -4.46996 72.4599 -3.76656 73.1781C-3.62588 73.3218 -3.48649 73.4618 -3.33414 73.5931C-2.45084 74.3517 -1.38117 74.9455 -0.396743 75.5378C-0.0722797 75.7325 0.257693 75.909 0.604853 76.0549C1.68522 76.5112 2.83527 76.8368 3.95323 77.174C4.31497 77.2823 4.68351 77.3759 5.05271 77.449C6.5995 77.7568 8.22505 77.7807 9.78156 77.8255C10.495 77.847 11.2104 77.8071 11.9231 77.7154C14.1833 77.4205 16.5122 76.9143 18.6334 76.0456C19.7218 75.5991 20.7788 75.0545 21.8186 74.4959C22.641 74.3727 23.4409 74.1765 24.1718 73.912C25.2308 73.5289 26.2884 73.0085 27.173 72.2993C27.7979 71.7976 28.6688 70.984 29.2195 70.3997C29.3151 70.2962 29.412 70.1963 29.4966 70.0847C29.5848 69.9717 29.6606 69.847 29.7414 69.7246C30.2693 68.9215 30.8291 68.0948 31.29 67.2512C31.3425 67.1511 31.3902 67.0488 31.4378 66.9464C32.9758 65.324 34.3504 63.5622 35.6722 61.7545C36.2378 61.3675 36.8196 61.003 37.4127 60.6587C39.8447 59.5235 42.4044 58.6744 45.0117 58.035C51.1667 56.8701 57.4712 56.6643 63.6466 55.5892C65.7752 55.2204 67.9194 54.8053 70.0314 54.2682C71.0253 54.4963 72.0427 54.5781 73.0871 54.5002C73.9807 54.3065 74.8779 54.1116 75.7716 53.918C77.5054 53.2826 78.9695 52.2584 80.1528 50.8373C80.4258 50.544 80.6815 50.2367 80.909 49.9071C81.0649 49.6805 81.2231 49.449 81.3777 49.2187C81.8088 48.8277 82.2272 48.4129 82.6006 47.9738L82.6839 47.8585C83.15 47.1184 83.6174 46.3819 84.0835 45.6418C84.1178 45.5807 84.1473 45.5173 84.1817 45.4563C85.0438 43.7379 85.3566 41.4929 85.2106 39.5961C85.1669 39.0405 84.9678 38.2006 84.7879 37.4915C84.7937 37.2624 84.8044 37.0357 84.808 36.8114C84.8131 35.9341 84.7437 35.0513 84.6183 34.1807C84.366 32.4359 83.9689 30.703 83.5209 28.9967C83.0136 27.0483 82.1263 25.3873 81.1542 23.6031C80.2819 22.0056 78.9425 20.6217 77.6174 19.411C77.1905 19.0224 76.7357 18.6681 76.2657 18.3275C75.5918 17.5459 74.8881 16.771 74.1195 16.0844C73.8207 15.8156 73.5033 15.5737 73.1743 15.3442C72.1633 14.6562 71.1329 13.959 70.0528 13.3811C68.622 12.6139 66.9683 12.1665 65.4471 11.6955C63.0245 10.9508 60.5036 10.882 57.989 10.7744C56.1087 10.6928 54.2225 10.7956 52.3587 11.0605C50.5786 11.3114 48.8195 11.7209 47.0708 12.1144C46.8919 12.1548 46.7155 12.2024 46.5415 12.2451C46.5211 12.2444 46.5042 12.2424 46.4851 12.2453C45.0835 12.2498 43.6797 12.3483 42.2888 12.5273C40.0046 12.8228 37.737 13.3311 35.5037 13.8675C34.1206 14.2018 32.7537 14.6031 31.4115 15.0725C27.8447 16.3143 24.4699 18.0419 21.1783 19.8773C18.5749 21.3299 16.0839 22.9931 13.7395 24.8383C12.5467 25.7765 11.3925 26.7656 10.2778 27.7971C8.56707 29.3766 6.85859 30.9513 5.27005 32.6568C3.23487 34.8441 1.36823 37.1853 -0.303912 39.6628C-2.44927 42.8384 -4.46076 46.1277 -6.08069 49.6077C-7.08025 51.7487 -7.87043 54.0003 -8.43857 56.2972C-8.62039 57.0318 -8.74419 57.7818 -8.79343 58.5373C-8.89646 60.058 -9.08668 61.6832 -8.82343 63.2132C-8.64609 64.2272 -8.40328 65.2661 -8.15917 66.264C-8.11995 66.4281 -8.07358 66.5897 -8.0188 66.7523C-7.63336 67.9179 -6.95977 68.9996 -6.37661 70.0653L-6.38601 70.0727Z" fill="#68CEF2"/>
</g>
<defs>
<clipPath id="clip0_435_6966">
<rect width="99" height="53" fill="white" transform="translate(91.1259 49.8384) rotate(160.11)"/>
</clipPath>
</defs>
</svg>
