<svg width="221" height="198" viewBox="0 0 221 198" fill="none" xmlns="http://www.w3.org/2000/svg">
<path d="M219.923 166.527C216.975 130.846 222.58 95.0734 219.065 59.4385C217.952 48.1228 216.325 36.6307 209.915 26.8876C205.77 20.5892 200.535 14.9889 193.942 11.1684C185.974 6.55005 178.689 5.15381 169.701 4.24088C161.664 3.42768 153.374 4.24088 137.322 4.48637C128.126 4.76255 118.938 5.03873 109.743 5.30724C90.2458 5.89029 70.7566 6.47333 51.2598 7.05638C45.8099 2.72956 38.2261 -0.285403 31.4713 0.0214633C14.4231 0.780958 0 13.8381 0 31.4753C0.0153518 74.4213 0.0230278 117.367 0.0383796 160.306C0.0383796 177.805 14.4691 191.084 31.5097 191.759C83.8211 193.831 136.14 195.91 188.452 197.981C204.456 198.618 221.281 183.021 219.923 166.527Z" fill="#68CEF2"/>
</svg>
