<svg width="338" height="362" viewBox="0 0 338 362" fill="none" xmlns="http://www.w3.org/2000/svg">
<path d="M18.1007 287.053C22.6892 295.436 28.0207 303.548 33.8946 311.082C37.5285 315.75 41.5751 320.078 45.9713 324.044C53.0432 330.404 60.0235 336.755 68.2194 341.641C76.2405 346.42 84.7813 350.754 93.6199 353.786C103.027 357.018 113.004 359.08 122.844 360.348C129.476 361.2 136.18 361.403 142.861 361.125C153.017 360.697 163.062 360.182 173.086 358.466C188.037 355.915 202.799 351.562 217.146 346.566C220.034 346.646 222.938 346.437 225.868 345.917C227.508 345.512 229.119 345.05 230.725 344.538C235.703 342.941 240.786 341.488 245.643 339.494C248.666 338.263 251.594 336.762 254.397 335.075C262.971 329.884 271.443 324.302 278.463 317.088C285.476 309.895 292.179 302.133 297.707 293.709C303.379 285.04 307.953 275.62 312.33 266.261C318.154 253.782 322.408 240.656 325.925 227.343C330.365 210.549 334.042 193.403 336.219 176.157C338.426 158.791 338.256 141.643 337.182 124.176C336.335 110.548 333.915 97.0652 329.701 84.0628C326.619 74.5663 323.702 64.9383 319.091 56.0396C316.841 51.7041 314.157 47.7008 311.474 43.6269C308.798 39.5673 306.213 35.5161 303.06 31.8092C298.915 26.95 293.942 22.9111 289.154 18.7128C286.972 16.8005 284.669 15.0347 282.159 13.5269C278.047 11.055 273.648 9.0377 269.349 6.9725C267.976 6.3015 266.574 5.71482 265.144 5.21241C259.238 3.15054 252.942 1.87351 246.737 1.18403C245.02 0.994975 243.295 0.932915 241.583 0.9699C236.207 1.09125 230.767 1.22573 225.419 1.91246C221.863 2.36569 218.338 3.13722 214.855 3.99412C207.153 5.88718 199.512 8.01424 191.933 10.3047C173.472 15.8653 155.081 22.006 137.472 29.8749C119.735 37.8053 103.27 47.754 87.299 58.7978C76.0309 66.5886 65.5314 75.4646 56.1802 85.4884C45.2157 97.2384 34.8003 109.583 26.6274 123.46C21.6705 131.871 17.2791 140.693 13.3863 149.644C10.8999 155.353 8.785 161.217 7.08406 167.214C5.75132 171.911 4.78403 176.677 3.77421 181.463C2.78675 186.151 1.78552 190.81 1.14245 195.56C0.298662 201.74 -0.0881867 207.998 0.0957069 214.243C0.366785 223.71 0.791613 233.278 2.55763 242.62C4.35024 252.089 7.47033 261.304 10.6768 270.371C12.7052 276.13 15.1936 281.719 18.1286 287.075L18.1007 287.053Z" fill="#68CEF2"/>
<path d="M287.522 344.01C289.566 342.421 292.337 339.949 293.139 337.34C293.685 335.568 293.233 334.603 292.437 333.011C291.152 330.439 289.782 327.956 288.459 325.404C287.274 323.119 286.682 321.295 286.833 318.721C287.025 315.47 289.306 312.582 290.682 309.723C291.372 308.29 292.437 306.654 292.437 305.03C292.437 302.579 291.581 300.777 290.331 298.723C289.13 296.75 288.257 294.678 287.418 292.521C285.17 286.74 290.535 281.307 293.374 276.892C294.86 274.581 293.388 271.576 291.683 269.871C290.358 268.546 288.28 267.156 287.574 265.32C286.957 263.715 286.741 262.88 287.002 261.108C287.414 258.319 288.739 255.617 289.811 253.02C290.764 250.71 291.267 247.544 291.267 245.063C291.267 243.973 291.267 243.607 290.097 243.607" stroke="black" stroke-width="2" stroke-linecap="round"/>
</svg>
