<svg width="297" height="361" viewBox="0 0 297 361" fill="none" xmlns="http://www.w3.org/2000/svg">
<path d="M18.2907 286.447C22.8792 294.83 28.2106 302.942 34.0846 310.476C37.7184 315.144 41.7651 319.472 46.1613 323.438C53.2331 329.798 60.2135 336.148 68.4094 341.035C76.4305 345.813 84.9713 350.148 93.8099 353.18C103.217 356.412 113.194 358.474 123.034 359.742C129.666 360.594 136.37 360.796 143.051 360.519C153.207 360.09 163.252 359.575 173.276 357.86C188.227 355.309 202.989 350.955 217.336 345.959C220.224 346.039 223.128 345.83 226.058 345.311C227.697 344.906 229.309 344.443 230.915 343.932C235.893 342.335 240.976 340.882 245.833 338.888C248.856 337.657 251.784 336.156 254.587 334.469C263.16 329.278 271.633 323.696 278.653 316.482C285.666 309.289 292.369 301.526 297.897 293.103C303.568 284.434 308.143 275.014 312.52 265.655C318.344 253.175 322.598 240.05 326.115 226.737C330.555 209.942 334.232 192.797 336.409 175.551C338.616 158.185 338.446 141.036 337.372 123.57C336.525 109.942 334.105 96.459 329.891 83.4566C326.809 73.9601 323.892 64.3321 319.281 55.4334C317.031 51.0979 314.347 47.0946 311.664 43.0207C308.988 38.9611 306.403 34.9099 303.25 31.203C299.105 26.3438 294.132 22.3049 289.344 18.1066C287.162 16.1943 284.859 14.4285 282.349 12.9207C278.237 10.4488 273.838 8.4315 269.538 6.3663C268.166 5.6953 266.764 5.10862 265.333 4.60621C259.428 2.54434 253.132 1.26731 246.927 0.577828C245.21 0.388774 243.485 0.326714 241.773 0.363698C236.397 0.485047 230.957 0.619527 225.609 1.30626C222.053 1.75949 218.528 2.53102 215.045 3.38792C207.343 5.28098 199.702 7.40803 192.123 9.69847C173.662 15.2591 155.271 21.3998 137.662 29.2687C119.925 37.1991 103.46 47.1478 87.4889 58.1916C76.2208 65.9824 65.7214 74.8584 56.3701 84.8822C45.4056 96.6322 34.9903 108.977 26.8174 122.853C21.8605 131.265 17.469 140.087 13.5763 149.038C11.0899 154.747 8.97494 160.611 7.27401 166.608C5.94126 171.305 4.97397 176.071 3.96415 180.857C2.97669 185.545 1.97546 190.204 1.33239 194.954C0.488603 201.134 0.101755 207.391 0.285648 213.637C0.556727 223.104 0.981555 232.672 2.74757 242.014C4.54018 251.483 7.66027 260.698 10.8667 269.765C12.8951 275.524 15.3835 281.113 18.3186 286.469L18.2907 286.447Z" fill="#68CEF2"/>
<path d="M212 182.87C212 209.476 212 236.083 212 262.69C212 267.02 212 271.351 212 275.681C212 276.723 212.012 274.839 212.028 274.66C213.219 261.559 213.677 248.407 214.666 235.289C215.537 223.735 217.841 212.21 218.127 200.626C218.287 194.124 221.79 175.196 219.148 181.139C218.311 183.021 218.119 185.232 217.843 187.238C216.414 197.631 214.899 208.027 214.156 218.497C213.443 228.521 213.021 238.678 213.021 248.734" stroke="black" stroke-width="2" stroke-linecap="round"/>
</svg>
