<svg width="288" height="259" viewBox="0 0 288 259" fill="none" xmlns="http://www.w3.org/2000/svg">
<path d="M0.795307 41.4784C4.6353 87.9884 7.75532 134.618 12.3353 181.068C13.7853 195.818 15.9053 210.798 24.2553 223.498C29.6553 231.708 36.4753 239.008 45.0653 243.988C55.4453 250.008 64.9353 251.828 76.6453 253.018C87.1153 254.078 97.9153 253.018 108.405 252.698C120.385 252.338 132.355 251.978 144.335 251.628C169.735 250.868 195.125 250.108 220.525 249.348C227.625 254.988 237.505 258.918 246.305 258.518C268.515 257.528 287.305 240.508 287.305 217.518C287.285 161.538 287.275 105.558 287.255 49.5884C287.255 26.7784 268.455 9.46841 246.255 8.58841C178.105 5.8884 109.945 3.17837 41.7953 0.478372C20.9453 -0.351616 -0.97468 19.9784 0.795307 41.4784Z" fill="#68CEF2"/>
</svg>
