<svg width="153" height="260" viewBox="0 0 153 260" fill="none" xmlns="http://www.w3.org/2000/svg">
<path d="M128.147 2.81962C121.995 1.50554 115.658 0.681118 109.376 0.378082C105.485 0.18772 101.587 0.350947 97.7173 0.845667C91.5037 1.65047 85.3337 2.41304 79.3695 4.41708C73.5347 6.38031 67.6971 8.79578 62.3798 11.9222C56.7184 15.2477 51.3941 19.3645 46.5244 23.7541C43.2436 26.7144 40.2553 29.9903 37.5158 33.4624C33.355 38.743 29.2853 44.0048 25.8226 49.7744C20.6534 58.3761 16.4641 67.661 12.7733 77.0148C11.4898 78.4288 10.3429 79.9765 9.33978 81.6706C8.83564 82.6679 8.3717 83.676 7.93519 84.7023C6.58597 87.889 5.12085 91.0662 4.02206 94.3631C3.33333 96.4111 2.82006 98.5276 2.45283 100.662C1.34625 107.203 0.477356 113.861 1.04717 120.496C1.60963 127.118 2.58941 133.829 4.4046 140.237C6.27981 146.822 9.0017 153.181 11.7787 159.415C15.4866 167.72 20.1923 175.517 25.3093 183.024C31.7626 192.497 38.7196 201.738 46.3725 210.27C54.0723 218.869 62.6873 226.182 71.8504 233.178C79.0036 238.632 86.762 243.234 95.0541 246.729C101.112 249.279 107.164 251.969 113.583 253.494C116.711 254.236 119.861 254.616 123.046 255.027C126.221 255.436 129.353 255.887 132.557 255.904C136.763 255.92 140.917 255.167 145.07 254.576C146.962 254.307 148.834 253.913 150.666 253.304C153.668 252.307 156.568 250.97 159.448 249.704C160.374 249.305 161.27 248.855 162.136 248.353C165.707 246.28 169.055 243.672 172.071 240.856C172.904 240.076 173.678 239.237 174.397 238.362C176.652 235.613 178.928 232.825 180.89 229.846C182.195 227.866 183.329 225.765 184.403 223.647C186.777 218.967 189.008 214.215 191.132 209.424C196.313 197.763 201.175 185.886 204.84 173.657C208.529 161.337 210.665 148.784 212.042 136.006C213.015 126.992 213.116 117.895 212.15 108.879C211.02 98.3086 209.357 87.7575 205.964 77.6706C203.91 71.555 201.406 65.5457 198.625 59.7315C196.851 56.0209 194.841 52.4302 192.587 48.9896C190.821 46.2949 188.864 43.7536 186.915 41.1822C185.005 38.6645 183.115 36.1521 181.026 33.7806C178.311 30.6912 175.361 27.7976 172.171 25.1956C167.338 21.2477 162.389 17.3332 156.975 14.1893C151.486 11.0037 145.552 8.59412 139.655 6.29123C135.912 4.82478 132.057 3.66219 128.125 2.8243L128.147 2.81962Z" fill="#43B045"/>
<path d="M79.6842 228.525C80.1001 235.209 81.2771 242.936 79.8564 249.573C79.1999 252.64 80.0167 251.418 80.0539 248.65C80.0939 245.682 80.3043 242.844 80.0012 239.878C79.6796 236.731 79.0056 233.434 79.1623 230.27C79.2595 228.308 79.9487 221.533 79.7549 227.501C79.4733 236.178 80.7926 244.604 81.2617 253.066C81.453 256.515 80.3466 246.215 79.7053 242.821C78.7618 237.829 79.2062 233.219 79.4889 228.224C79.5344 227.42 79.9867 227.011 79.9296 226.165C79.885 225.505 79.4233 224.626 79.4807 225.66C79.6143 228.071 79.6787 230.533 79.8094 232.969C79.9042 234.734 79.7323 236.796 80.2189 238.514C80.4782 239.429 81.779 238.177 82.2064 237.9C84.8555 236.185 94.44 235.025 91.5268 236.238C89.8592 236.933 87.7674 237.151 86.0193 237.602C79.1686 239.372 71.7829 240.784 64.7063 241.096C63.5676 241.146 62.4808 241.354 61.3548 241.492C61.013 241.534 60.256 241.943 60.3281 241.606C60.5224 240.699 63.8245 239.976 64.4538 239.761C71.7236 237.275 78.7568 235.849 86.4168 235.052C88.2565 234.861 90.1808 233.793 91.9154 233.816" stroke="#333333" stroke-width="2" stroke-linecap="round"/>
</svg>
