<svg width="178" height="58" viewBox="0 0 178 58" fill="none" xmlns="http://www.w3.org/2000/svg">
<path d="M170.949 14.6786C168.086 13.2204 164.644 12.4666 161.474 13.4519C160.424 13.8842 159.373 14.318 158.323 14.7503C156.342 15.9041 154.776 17.4696 153.631 19.4502C152.667 20.8291 151.698 22.2006 150.704 23.5572C148.83 25.9132 146.818 28.1455 144.54 30.1158C143.617 30.7374 142.664 31.3037 141.669 31.8064C140.886 32.0616 140.09 32.2757 139.286 32.4483C138.818 32.4662 138.351 32.4675 137.885 32.4548C137.687 32.4086 137.493 32.3572 137.295 32.3009C137.163 32.2264 137.031 32.152 136.902 32.0761C136.564 31.7601 136.24 31.433 135.928 31.0924C133.68 27.6842 132.177 23.8527 130.458 20.1555C128.447 15.8379 125.609 11.5746 122.103 8.33949C120.064 6.45801 117.746 4.65892 115.181 3.54595C111.699 2.03872 108.083 0.868298 104.201 1.11812C96.7438 1.59862 90.0185 5.04917 85.2103 10.7923C82.9078 13.5429 80.827 16.4832 78.9652 19.546C77.9788 21.1668 77.0486 22.8107 75.9889 24.3788C75.7281 24.6866 75.4591 24.986 75.1849 25.2819C73.7156 20.8183 72.4522 16.203 69.6277 12.4301C67.0909 9.04132 64.5096 6.34632 60.7856 4.17348C58.1466 2.63504 55.0595 1.43394 52.0296 0.874451C45.7929 -0.27671 39.1059 -0.19196 33.0803 2.04903C29.7724 3.28093 26.644 4.6352 23.7921 6.71402C20.6534 9.00427 17.6698 11.4146 15.0943 14.3262C10.1183 19.95 6.19399 26.3388 2.47559 32.8216C0.888076 35.5885 0.393698 39.1979 1.18938 42.2722C1.97511 45.3063 4.31377 48.6032 7.16227 50.0534C13.2609 53.1641 20.9488 51.4437 24.4799 45.2818C26.7258 41.3653 29.007 37.4643 31.6397 33.7894C33.3135 31.7259 35.1304 29.796 37.1476 28.0648C38.1433 27.3851 39.173 26.7644 40.2467 26.2199C41.2235 25.9016 42.2162 25.6395 43.224 25.4376C44.1177 25.3866 45.013 25.3839 45.9033 25.4299C46.4491 25.5471 46.9899 25.69 47.524 25.85C47.7717 25.982 48.017 26.1155 48.2576 26.2582C48.3723 26.3656 48.486 26.4768 48.5972 26.5894C48.9123 27.1182 49.2013 27.6587 49.4681 28.2121C50.9033 32.1484 52.0003 36.1786 53.844 39.9773C56.6121 45.6855 61.9262 50.1956 68.0904 51.8438C79.3383 54.8503 89.613 47.9423 96.1437 39.3577C98.7841 35.8847 100.796 32.0248 103.272 28.4501C103.735 27.9044 104.214 27.3755 104.718 26.8717C105.02 27.1722 105.312 27.4784 105.597 27.7952C107.798 31.0994 109.263 34.7731 110.957 38.3802C113.901 44.6449 118.077 50.2736 124.052 53.9571C130.264 57.7847 137.538 58.2193 144.578 57.102C151.174 56.0545 156.951 52.4407 162.018 48.2811C167.511 43.7701 171.6 37.6662 175.638 31.9027C177.368 29.4336 177.649 25.2496 176.924 22.4521C176.138 19.418 173.8 16.1211 170.951 14.6709L170.949 14.6786Z" fill="#43B045"/>
</svg>
