<svg width="160" height="133" viewBox="0 0 160 133" fill="none" xmlns="http://www.w3.org/2000/svg">
<path d="M156.857 83.8968C157.899 80.118 158.645 76.2068 159.066 72.3109C159.328 69.8987 159.372 67.4688 159.21 65.0455C158.943 61.1537 158.7 57.2904 157.681 53.5113C156.683 49.8141 155.405 46.0992 153.668 42.6828C151.82 39.0454 149.47 35.5897 146.934 32.407C145.224 30.2628 143.308 28.2891 141.261 26.4634C138.147 23.6901 135.042 20.9741 131.6 18.6177C126.468 15.1003 120.878 12.1681 115.226 9.54348C114.398 8.69561 113.483 7.92789 112.472 7.24445C111.873 6.89583 111.267 6.57181 110.648 6.26422C108.726 5.31295 106.814 4.28995 104.814 3.49051C103.572 2.99007 102.282 2.59631 100.975 2.29274C96.9674 1.37408 92.8787 0.599065 88.7515 0.71947C84.6326 0.835754 80.4422 1.20834 76.4094 2.1111C72.2642 3.04492 68.2275 4.51315 64.2664 6.02009C58.9884 8.03275 53.9883 10.6838 49.1517 13.6008C43.0494 17.2794 37.0717 21.2793 31.5068 25.737C25.899 30.2214 21.0532 35.3203 16.3831 40.7711C12.7418 45.0266 9.60508 49.6883 7.13426 54.721C5.33063 58.3975 3.44122 62.0661 2.25851 66.0032C1.68348 67.9224 1.33104 69.8677 0.958201 71.8336C0.587397 73.7933 0.192075 75.7243 0.0622604 77.7161C-0.104038 80.3308 0.207522 82.94 0.419018 85.5434C0.515523 86.7294 0.68963 87.9069 0.99851 89.0677C1.50376 90.9695 2.22342 92.8195 2.90018 94.6553C3.11283 95.2448 3.35814 95.8177 3.63612 96.3742C4.78687 98.6676 6.27656 100.841 7.90707 102.816C8.35863 103.361 8.84897 103.872 9.36381 104.35C10.9819 105.849 12.6224 107.363 14.3935 108.687C15.5702 109.569 16.8285 110.348 18.099 111.09C20.9077 112.731 23.7654 114.286 26.6516 115.776C33.6762 119.408 40.8457 122.85 48.2783 125.56C55.766 128.288 63.4555 130.059 71.3122 131.366C76.855 132.288 82.4813 132.672 88.0971 132.389C94.6809 132.059 101.273 131.397 107.641 129.643C111.503 128.581 115.315 127.237 119.016 125.712C121.379 124.74 123.676 123.617 125.889 122.336C127.622 121.334 129.268 120.206 130.932 119.085C132.561 117.986 134.186 116.9 135.731 115.684C137.744 114.105 139.644 112.373 141.373 110.481C143.996 107.615 146.603 104.676 148.75 101.421C150.925 98.1199 152.637 94.5154 154.281 90.9294C155.328 88.6543 156.191 86.2978 156.855 83.8825L156.857 83.8968Z" fill="#43B045"/>
</svg>
