<svg width="99" height="53" viewBox="0 0 99 53" fill="none" xmlns="http://www.w3.org/2000/svg">
<g clip-path="url(#clip0_188_2860)">
<path d="M98.579 38.8522C98.526 39.1915 98.4501 39.5268 98.3402 39.8508C98.0141 40.8036 97.5894 41.7488 97.1723 42.6636C97.0889 42.8465 97.0055 43.0256 96.9069 43.2009C96.3344 44.2148 95.5305 45.1371 94.8063 46.0289C94.5675 46.3224 94.3172 46.6006 94.0404 46.856C93.1797 47.6525 92.2091 48.35 91.2725 49.0475C90.9692 49.2724 90.6545 49.4858 90.3322 49.6802C88.9824 50.4958 87.4619 51.0713 86.0135 51.643C85.35 51.906 84.6637 52.1118 83.9622 52.268C81.7365 52.7597 79.3743 53.076 77.0842 52.9808C75.9088 52.9312 74.7295 52.7788 73.5617 52.6072C72.7465 52.7711 71.9275 52.8588 71.1502 52.8588C70.0241 52.8588 68.8525 52.7292 67.7795 52.3633C67.0211 52.1042 65.9253 51.6354 65.2087 51.2733C65.0836 51.2085 64.9585 51.1475 64.8409 51.0713C64.7196 50.9951 64.6058 50.9036 64.4883 50.8159C63.7186 50.2404 62.911 49.6535 62.1906 49.017C62.1071 48.9408 62.0275 48.8607 61.9479 48.7807C59.9497 47.7783 58.0577 46.5892 56.1998 45.3391C55.5362 45.1676 54.8651 45.0227 54.1902 44.9008C51.5171 44.6607 48.8212 44.7331 46.1519 45.0189C39.9677 46.0175 33.9693 47.9689 27.7965 49.0589C25.6694 49.4362 23.5119 49.7754 21.3431 49.9889C20.4862 50.5415 19.5572 50.9646 18.5487 51.2466C17.6425 51.3686 16.7325 51.4905 15.8263 51.6125C13.9797 51.6049 12.2545 51.1399 10.6582 50.2061C10.3018 50.0232 9.95679 49.8212 9.6307 49.5887C9.407 49.4286 9.1795 49.2647 8.95579 49.1008C8.41738 48.8798 7.88275 48.6321 7.38226 48.3462L7.26471 48.2662C6.57463 47.7288 5.88455 47.1952 5.19447 46.6578C5.14139 46.6121 5.0921 46.5625 5.03902 46.5168C3.64369 45.1943 2.58582 43.1895 2.07774 41.3563C1.92986 40.8189 1.83128 39.9613 1.75924 39.2334C1.67582 39.0199 1.58861 38.8103 1.50899 38.6007C1.20566 37.7775 0.970574 36.9237 0.792367 36.0624C0.435952 34.3359 0.219828 32.5712 0.0605782 30.8142C-0.125213 28.8095 0.143995 26.9457 0.451118 24.9372C0.727909 23.1382 1.51657 21.3812 2.35074 19.7919C2.61994 19.2812 2.92707 18.7934 3.25315 18.3131C3.62094 17.3489 4.01906 16.3808 4.50818 15.4737C4.69777 15.1193 4.91389 14.7839 5.14518 14.4561C5.8618 13.4652 6.59359 12.459 7.41259 11.5481C8.497 10.3399 9.89991 9.35656 11.1701 8.39611C13.1949 6.87159 15.5419 5.94926 17.87 4.99262C19.6103 4.2761 21.4189 3.73108 23.2617 3.34614C25.021 2.97644 26.8145 2.76301 28.5927 2.53814C28.7747 2.51527 28.9567 2.50003 29.135 2.48097C29.1539 2.47335 29.1691 2.46572 29.188 2.46191C30.5075 1.98931 31.8612 1.60437 33.2299 1.29947C35.4784 0.80019 37.7837 0.506718 40.0663 0.251362C41.4806 0.0950966 42.9024 0.00743484 44.3243 -0.0078125C48.1008 -0.0535469 51.8621 0.422867 55.5817 1.02886C58.524 1.50909 61.4322 2.22562 64.2646 3.1632C65.7054 3.63961 67.1273 4.177 68.5264 4.76775C70.6725 5.67103 72.8148 6.5705 74.8888 7.63385C77.5467 8.9983 80.0985 10.5647 82.5138 12.3256C85.6116 14.5819 88.6222 16.9906 91.3294 19.7119C92.9977 21.385 94.5068 23.2335 95.8225 25.2002C96.2434 25.829 96.615 26.4922 96.9183 27.1858C97.5325 28.5808 98.2643 30.0443 98.5373 31.5727C98.7155 32.5865 98.8407 33.646 98.9506 34.6674C98.9696 34.8351 98.9809 35.0028 98.9847 35.1743C99.0189 36.4016 98.7534 37.6479 98.5677 38.8484L98.579 38.8522Z" fill="#43B045"/>
</g>
<defs>
<clipPath id="clip0_188_2860">
<rect width="99" height="53" fill="white" transform="matrix(1 0 0 -1 0 53)"/>
</clipPath>
</defs>
</svg>
