<svg width="139" height="150" viewBox="0 0 139 150" fill="none" xmlns="http://www.w3.org/2000/svg">
<path d="M28.8408 148.809C62.7743 141.965 95.6447 130.717 126.999 116.079C131.731 113.868 136.354 107.584 137.49 102.58C138.738 97.0764 138.674 90.4561 135.366 85.6169C118.584 61.0719 101.807 36.5281 85.0247 11.983C81.6227 7.00587 77.5298 3.14101 71.5309 1.49314C66.6791 0.160404 60.4157 0.57582 55.7646 2.95071C52.9313 2.93316 50.2483 3.46895 47.4727 4.60835C43.399 6.28359 38.5542 9.48793 36.6824 13.6747C21.1988 48.2775 9.11072 84.135 1.54292 121.307C-0.058052 129.177 1.31935 136.909 7.1043 142.833C12.9493 148.823 20.881 150.412 28.8466 148.806L28.8408 148.809Z" fill="#43B045"/>
<path d="M99.4148 41.996C105.252 45.2792 112.377 48.4901 117.177 53.2896C119.395 55.5077 118.812 54.1576 116.509 52.6223C114.04 50.9759 111.772 49.257 109.117 47.8995C106.301 46.4594 103.166 45.233 100.595 43.382C99.0015 42.2343 93.689 37.9741 98.5934 41.38C105.724 46.332 113.515 49.8036 120.873 54.0083C123.872 55.722 114.625 51.0536 111.427 49.7475C106.724 47.8263 103.095 44.9479 99.0554 41.996C98.4058 41.5213 98.3079 40.919 97.5667 40.5073C96.9888 40.1862 95.9997 40.0959 96.8994 40.6099C98.9952 41.8076 101.097 43.0916 103.214 44.306C104.746 45.1854 106.384 46.4504 108.09 46.9755C109 47.2553 108.655 45.4825 108.655 44.9734C108.655 41.8176 112.89 33.1416 112.325 36.2465C112.002 38.0238 111.048 39.8982 110.477 41.611C108.24 48.3235 105.412 55.2909 101.828 61.4005C101.251 62.3837 100.835 63.4093 100.339 64.4293C100.188 64.739 100.12 65.5968 99.8768 65.3533C99.2202 64.6968 100.409 61.5324 100.57 60.8872C102.433 53.4333 105.058 46.7544 108.552 39.8912C109.392 38.2429 109.541 36.0472 110.503 34.6038" stroke="#333333" stroke-width="2" stroke-linecap="round"/>
</svg>
