<svg width="86" height="98" viewBox="0 0 86 98" fill="none" xmlns="http://www.w3.org/2000/svg">
<path d="M138.502 0.407923C135.443 0.312243 132.17 1.05859 129.837 3.19354C129.108 3.9918 128.377 4.79231 127.648 5.59057C126.408 7.38868 125.693 9.37301 125.509 11.5444C125.237 13.1241 124.958 14.6992 124.651 16.2715C123.991 19.0624 123.162 21.8023 121.997 24.4245C121.453 25.335 120.862 26.2093 120.208 27.0464C119.637 27.5837 119.037 28.0912 118.415 28.5659C118.019 28.7711 117.616 28.9618 117.21 29.1396C117.02 29.1802 116.832 29.2148 116.639 29.2463C116.495 29.2357 116.351 29.225 116.209 29.2122C115.79 29.0766 115.378 28.9261 114.971 28.7591C111.651 26.7333 108.802 24.0404 105.821 21.551C102.337 18.6453 98.163 16.1214 93.8291 14.7552C91.3086 13.9605 88.5813 13.35 85.9194 13.4309C82.3075 13.5438 78.7156 14.0019 75.4713 15.7915C69.2382 19.2302 64.8404 24.932 63.0245 31.8322C62.1551 35.1369 61.5537 38.5152 61.1907 41.9102C60.9975 43.7073 60.8623 45.5015 60.5847 47.2829C60.4846 47.6539 60.3742 48.0211 60.2578 48.3874C57.1816 45.1359 54.2215 41.6703 50.2573 39.564C46.6968 37.672 43.3792 36.396 39.2884 36.0336C36.3901 35.7779 33.2422 35.9947 30.4038 36.7413C24.5614 38.2786 18.832 41.0638 14.5469 45.4392C12.1951 47.8427 10.0477 50.2788 8.43237 53.2272C6.65558 56.4742 5.06113 59.7618 4.02164 63.316C2.01274 70.1814 1.22047 77.2798 0.643786 84.3756C0.397239 87.4043 1.43452 90.7159 3.36675 93.0429C5.27414 95.3395 8.62659 97.2326 11.6698 97.3273C18.1876 97.535 24.1165 92.934 24.662 86.1908C25.0098 81.9041 25.3945 77.6166 26.1738 73.3813C26.7799 70.9239 27.5635 68.5236 28.6003 66.2132C29.183 65.2236 29.8189 64.271 30.5235 63.3661C31.2364 62.6956 31.9859 62.0671 32.7726 61.4843C33.5223 61.0779 34.2928 60.7125 35.0789 60.391C35.5968 60.2706 36.1209 60.1745 36.6462 60.0957C36.9132 60.1091 37.1787 60.1247 37.444 60.1501C37.5864 60.1961 37.7295 60.2458 37.871 60.2978C38.357 60.6257 38.8252 60.9744 39.2795 61.3432C42.1125 64.154 44.692 67.1827 47.8213 69.7092C52.5215 73.5065 58.9305 75.2386 64.9119 74.1591C75.8258 72.1886 81.8813 62.0671 84.0298 52.0191C84.8976 47.9547 85.0665 43.8119 85.7515 39.7265C85.9293 39.0684 86.1281 38.4181 86.3581 37.7796C86.7402 37.916 87.1162 38.0614 87.4904 38.2189C90.7273 40.1741 93.4793 42.7464 96.4015 45.1686C101.479 49.3741 107.361 52.5319 114.004 53.2837C120.911 54.0631 127.356 51.4876 132.971 47.6691C138.232 44.0911 141.747 38.6332 144.427 32.9931C147.333 26.877 148.382 19.9576 149.526 13.3521C150.016 10.5223 148.562 6.80191 146.803 4.68473C144.896 2.3882 141.543 0.495072 138.5 0.400384L138.502 0.407923Z" fill="#43B045"/>
</svg>
