<svg width="164" height="22" viewBox="0 0 164 22" fill="none" xmlns="http://www.w3.org/2000/svg">
<g clip-path="url(#clip0_656_6596)">
<path d="M2.06293 22C55.2602 20.1982 108.706 19.8458 161.937 20.9561C164.693 21.016 164.693 17.6915 161.937 17.6317C108.706 16.5213 55.2602 16.8737 2.06293 18.6755C-0.684665 18.7686 -0.693225 22.0931 2.06293 22Z" fill="#333333"/>
</g>
<g clip-path="url(#clip1_656_6596)">
<path d="M0.842695 5.00001C22.5757 3.19815 44.4102 2.84576 66.1572 3.95613C67.2832 4.01597 67.2832 0.691504 66.1572 0.631663C44.4102 -0.478709 22.5757 -0.126315 0.842695 1.67555C-0.2798 1.76863 -0.283297 5.0931 0.842695 5.00001Z" fill="#333333"/>
</g>
<defs>
<clipPath id="clip0_656_6596">
<rect width="164" height="5" fill="white" transform="translate(0 17)"/>
</clipPath>
<clipPath id="clip1_656_6596">
<rect width="67" height="5" fill="white"/>
</clipPath>
</defs>
</svg>
