<svg width="235" height="257" viewBox="0 0 235 257" fill="none" xmlns="http://www.w3.org/2000/svg">
<path d="M32.6028 219.729C36.6672 224.828 41.2019 229.656 46.0362 234.031C49.0277 236.742 52.2586 239.175 55.6837 241.324C61.1911 244.766 66.6358 248.212 72.7321 250.529C78.6979 252.794 84.9633 254.698 91.2795 255.691C98.0023 256.75 104.975 256.953 111.764 256.639C116.339 256.425 120.888 255.766 125.366 254.786C132.172 253.292 138.894 251.753 145.462 249.408C155.261 245.916 164.724 241.233 173.832 236.166C175.791 235.878 177.727 235.392 179.645 234.695C180.705 234.227 181.74 233.725 182.764 233.19C185.941 231.524 189.204 229.942 192.253 228.023C194.152 226.835 195.955 225.477 197.653 224.009C202.841 219.497 207.917 214.733 211.823 209.043C215.728 203.368 219.357 197.347 222.117 191.02C224.945 184.511 226.947 177.626 228.822 170.805C231.314 161.713 232.671 152.372 233.51 142.991C234.569 131.158 235.074 119.179 234.554 107.31C234.04 95.3572 231.948 83.8327 229.208 72.2017C227.064 63.1275 223.875 54.3377 219.53 46.0845C216.355 40.0571 213.274 33.9217 209.136 28.4782C207.117 25.8266 204.843 23.4501 202.562 21.026C200.287 18.6106 198.075 16.1901 195.519 14.0688C192.16 11.2896 188.337 9.16087 184.621 6.90279C182.928 5.87435 181.169 4.95892 179.301 4.24183C176.24 3.06579 173.038 2.22986 169.897 1.34994C168.893 1.06114 167.879 0.832556 166.855 0.664178C162.631 -0.0228595 158.233 -0.135225 153.965 0.137115C152.785 0.213593 151.613 0.376562 150.462 0.604717C146.846 1.3246 143.19 2.06085 139.659 3.158C137.311 3.88523 135.021 4.82303 132.768 5.81339C127.787 8.00204 122.875 10.341 118.022 12.7827C106.202 18.7176 94.4956 25.0346 83.5165 32.4223C72.4585 39.8666 62.4914 48.5186 52.984 57.8494C46.2763 64.4318 40.2126 71.6536 35.0563 79.5118C29.0103 88.7237 23.4035 98.2706 19.4872 108.583C17.1113 114.834 15.1647 121.294 13.5693 127.782C12.5496 131.921 11.7983 136.12 11.3419 140.359C10.984 143.679 10.8808 147.002 10.7513 150.344C10.6255 153.617 10.4871 156.873 10.6009 160.147C10.7442 164.408 11.2049 168.666 12.0495 172.849C13.3245 179.19 14.715 185.581 16.9848 191.661C19.2873 197.823 22.4564 203.656 25.6669 209.38C27.7005 213.016 30.0249 216.483 32.6241 219.74L32.6028 219.729Z" fill="#EF5662"/>
<path d="M47.9784 82.586C53.8651 90.7442 44.6435 98.8203 38.0036 102.456C31.3593 106.097 20.8955 107.874 16.366 99.9822C12.5944 93.4073 16.8292 84.5089 20.9571 79.1722C25.4862 73.3082 32.5722 69.1899 40.0529 71.74C46.3612 73.8838 50.9486 79.7782 50.7572 86.5275C50.4988 95.2922 43.797 101.985 36.2238 105.436C28.7002 108.864 18.8447 109.627 15.7393 100.095C13.3606 92.7944 16.468 83.075 19.9824 76.611C24.4384 68.4205 33.2243 64.7491 41.9769 68.535C50.5446 72.2352 54.3848 81.7002 53.9868 90.5594C53.8928 92.6108 57.0804 92.6074 57.1789 90.5606C57.6082 81.0025 53.4476 70.7755 44.582 66.2366C36.6093 62.1579 26.6818 63.2995 20.6157 70.1233C17.0509 74.1392 15.0103 79.2647 13.5424 84.3679C12.1915 89.0564 11.206 94.0831 12.1591 98.9482C14.1285 109.021 23.1606 112.816 32.4473 110.205C41.9415 107.548 51.114 100.667 53.4052 90.6539C55.2868 82.4128 51.6409 74.2149 44.2137 70.1229C36.1552 65.679 27.0938 68.0833 20.8427 74.4426C14.9612 80.4324 9.70333 90.5884 12.5378 99.1377C16.1893 110.136 29.4266 110.294 38.1897 105.951C46.7455 101.725 58.1079 91.2011 50.7506 81.0135C49.5598 79.3629 46.7785 80.9264 47.9784 82.586Z" fill="#333333"/>
</svg>
