<svg width="327" height="351" viewBox="0 0 327 351" fill="none" xmlns="http://www.w3.org/2000/svg">
<path d="M57.6026 265.263C61.667 270.361 66.2018 275.19 71.0361 279.565C74.0275 282.276 77.2584 284.709 80.6836 286.857C86.191 290.299 91.6356 293.746 97.7319 296.063C103.698 298.328 109.963 300.232 116.279 301.224C123.002 302.283 129.975 302.487 136.764 302.173C141.339 301.959 145.888 301.3 150.366 300.32C157.172 298.826 163.893 297.287 170.462 294.942C180.261 291.45 189.723 286.766 198.832 281.7C200.79 281.411 202.727 280.926 204.645 280.228C205.705 279.761 206.739 279.258 207.764 278.723C210.941 277.057 214.204 275.476 217.253 273.557C219.152 272.369 220.955 271.011 222.653 269.543C227.841 265.03 232.917 260.267 236.823 254.577C240.728 248.902 244.357 242.88 247.117 236.553C249.945 230.044 251.947 223.16 253.822 216.339C256.314 207.246 257.671 197.905 258.509 188.525C259.569 176.692 260.073 164.713 259.554 152.844C259.04 140.891 256.948 129.366 254.207 117.735C252.064 108.661 248.875 99.8713 244.53 91.6181C241.354 85.5907 238.274 79.4553 234.136 74.0118C232.116 71.3601 229.843 68.9836 227.562 66.5595C225.287 64.1442 223.075 61.7237 220.519 59.6023C217.16 56.8231 213.337 54.6944 209.621 52.4363C207.927 51.4079 206.169 50.4925 204.301 49.7754C201.24 48.5993 198.038 47.7634 194.897 46.8835C193.893 46.5947 192.879 46.3661 191.855 46.1977C187.631 45.5107 183.233 45.3983 178.965 45.6707C177.785 45.7471 176.613 45.9101 175.462 46.1383C171.846 46.8582 168.19 47.5944 164.659 48.6916C162.311 49.4188 160.02 50.3566 157.768 51.3469C152.787 53.5356 147.875 55.8746 143.022 58.3162C131.202 64.2511 119.495 70.5682 108.516 77.9559C97.4583 85.4002 87.4913 94.0522 77.9838 103.383C71.2761 109.965 65.2124 117.187 60.0562 125.045C54.0101 134.257 48.4034 143.804 44.487 154.116C42.1112 160.367 40.1645 166.828 38.5692 173.316C37.5494 177.455 36.7982 181.653 36.3418 185.893C35.9839 189.213 35.8807 192.536 35.7511 195.878C35.6253 199.151 35.4869 202.407 35.6007 205.68C35.744 209.941 36.2048 214.2 37.0493 218.383C38.3244 224.724 39.7149 231.115 41.9847 237.194C44.2871 243.356 47.4563 249.189 50.6667 254.913C52.7003 258.549 55.0248 262.016 57.6239 265.274L57.6026 265.263Z" fill="#EF5662"/>
<path d="M72.9784 128.12C78.8651 136.278 69.6435 144.354 63.0036 147.99C56.3593 151.631 45.8955 153.408 41.366 145.516C37.5944 138.941 41.8292 130.043 45.9571 124.706C50.4862 118.842 57.5722 114.724 65.0529 117.274C71.3612 119.418 75.9486 125.312 75.7572 132.061C75.4988 140.826 68.797 147.519 61.2238 150.97C53.7002 154.398 43.8447 155.161 40.7393 145.629C38.3606 138.328 41.468 128.609 44.9824 122.145C49.4384 113.954 58.2243 110.283 66.9769 114.069C75.5446 117.769 79.3848 127.234 78.9868 136.093C78.8928 138.145 82.0804 138.141 82.1789 136.094C82.6082 126.536 78.4476 116.309 69.582 111.77C61.6093 107.692 51.6818 108.833 45.6157 115.657C42.0509 119.673 40.0103 124.799 38.5424 129.902C37.1915 134.59 36.206 139.617 37.1591 144.482C39.1285 154.555 48.1606 158.35 57.4473 155.738C66.9415 153.082 76.114 146.201 78.4052 136.188C80.2868 127.947 76.6409 119.749 69.2137 115.657C61.1552 111.213 52.0938 113.617 45.8427 119.977C39.9612 125.966 34.7033 136.122 37.5378 144.672C41.1893 155.669 54.4266 155.828 63.1897 151.484C71.7455 147.258 83.1079 136.735 75.7506 126.547C74.5598 124.897 71.7785 126.46 72.9784 128.12Z" fill="#333333"/>
</svg>
