<svg width="262" height="242" viewBox="0 0 262 242" fill="none" xmlns="http://www.w3.org/2000/svg">
<path d="M261.229 120.513C261.96 114.033 262.168 107.413 261.843 100.901C261.645 96.8686 261.081 92.8633 260.178 88.9223C258.717 82.5942 257.305 76.3069 254.632 70.3578C252.015 64.538 248.931 58.7613 245.167 53.5934C241.162 48.0907 236.375 43.0161 231.353 38.438C227.966 35.3541 224.284 32.6038 220.424 30.1302C214.555 26.3737 208.714 22.7095 202.411 19.7228C193.014 15.2632 183.011 11.8837 172.987 9.02532C171.398 7.84485 169.686 6.81873 167.836 5.95583C166.756 5.53697 165.669 5.16065 164.566 4.81449C161.142 3.74599 157.716 2.55697 154.204 1.758C152.021 1.2553 149.786 0.940557 147.547 0.77825C140.688 0.300356 133.731 0.0795884 126.945 1.34046C120.171 2.59245 113.347 4.28408 106.921 6.80658C100.319 9.40904 94.0352 12.862 87.8866 16.359C79.695 21.0265 72.1299 26.6717 64.9044 32.7118C55.7875 40.3298 46.9607 48.4438 38.9356 57.2038C30.8466 66.0189 24.1773 75.6477 17.8905 85.8097C12.9899 93.7419 9.0293 102.212 6.2658 111.12C4.24925 117.628 2.08894 124.144 1.16629 130.92C0.719031 134.223 0.64629 137.511 0.545215 140.838C0.445899 144.154 0.298588 147.43 0.605753 150.737C1.01579 155.078 2.21375 159.286 3.24488 163.511C3.71487 165.435 4.31084 167.326 5.12505 169.154C6.45772 172.15 8.13098 175.005 9.72966 177.848C10.2353 178.762 10.7905 179.641 11.3955 180.484C13.8969 183.957 16.9269 187.146 20.1374 189.971C21.0262 190.752 21.9699 191.465 22.9455 192.118C26.0109 194.165 29.1172 196.231 32.3897 197.951C34.5643 199.098 36.8469 200.054 39.14 200.946C44.2094 202.921 49.3371 204.74 54.4948 206.445C67.0498 210.607 79.7941 214.418 92.7814 216.957C105.865 219.512 119.03 220.442 132.351 220.567C141.748 220.656 151.143 219.837 160.345 217.926C171.134 215.688 181.849 212.902 191.91 208.379C198.011 205.639 203.956 202.447 209.671 198.988C213.319 196.782 216.819 194.344 220.139 191.669C222.74 189.575 225.163 187.298 227.618 185.026C230.021 182.801 232.421 180.597 234.655 178.201C237.567 175.087 240.252 171.75 242.613 168.195C246.195 162.81 249.731 157.307 252.425 151.404C255.154 145.418 257.038 139.053 258.815 132.735C259.948 128.726 260.756 124.631 261.222 120.49L261.229 120.513Z" fill="#EF5662"/>
<g clip-path="url(#clip0_188_2755)">
<path d="M80.4378 202.535C82.6624 188.779 99.6035 189.901 109.667 192.843C119.74 195.785 131.729 204.293 128.436 216.458C125.69 226.591 112.828 231.158 103.558 232.342C93.3797 233.65 82.4064 230.743 77.5775 220.919C73.4989 212.641 74.779 202.376 81.5766 195.953C90.4135 187.622 103.532 187.631 114.329 191.668C125.055 195.679 135.454 204.584 129.16 216.961C124.34 226.441 111.777 232.916 102.005 235.805C89.6189 239.463 77.4186 234.454 72.5543 222.174C67.7872 210.159 73.2959 197.128 82.3623 188.841C84.4634 186.924 81.3382 183.806 79.2372 185.714C69.4557 194.654 63.5144 208.745 67.7519 221.873C71.5656 233.676 82.4064 242.281 95.0305 241.539C102.455 241.097 109.473 238.076 115.909 234.515C121.824 231.247 127.712 227.289 131.543 221.591C139.48 209.797 134.351 197.234 122.698 190.696C110.797 184 95.0747 181.756 83.0244 189.318C73.1105 195.547 68.6523 207.146 71.9187 218.428C75.4587 230.672 86.688 237.192 99.0385 237.086C110.665 236.98 125.761 232.183 131.358 221.034C138.553 206.687 125.743 193.568 112.907 189.239C100.389 184.998 78.9547 184.177 76.1826 201.36C75.7324 204.142 79.9875 205.335 80.4378 202.535Z" fill="#333333"/>
</g>
<defs>
<clipPath id="clip0_188_2755">
<rect width="69" height="57" fill="white" transform="translate(66.366 184.574)"/>
</clipPath>
</defs>
</svg>
