<svg width="117" height="75" viewBox="0 0 117 75" fill="none" xmlns="http://www.w3.org/2000/svg">
<path d="M114.416 62.0635C114.266 62.4502 114.091 62.8265 113.879 63.1807C113.251 64.2215 112.51 65.2282 111.785 66.2008C111.64 66.3953 111.496 66.5853 111.335 66.767C110.402 67.8168 109.221 68.6995 108.141 69.5666C107.785 69.8518 107.42 70.1161 107.029 70.3466C105.814 71.0663 104.494 71.6411 103.215 72.2245C102.801 72.4123 102.377 72.5836 101.948 72.7306C100.153 73.3477 98.2198 73.638 96.3718 73.9421C95.5249 74.0827 94.666 74.1501 93.802 74.1551C91.0616 74.166 88.2059 73.9352 85.5406 73.2372C84.1728 72.8781 82.827 72.3967 81.4994 71.8957C80.4999 71.8806 79.5154 71.7746 78.6025 71.5758C77.2799 71.2879 75.9371 70.8353 74.7708 70.1292C73.9467 69.6295 72.7801 68.7962 72.0315 68.1857C71.9012 68.0773 71.7699 67.9733 71.6514 67.8533C71.5285 67.7324 71.4184 67.5953 71.3028 67.4619C70.5467 66.586 69.7489 65.6869 69.0663 64.7517C68.9879 64.6404 68.9149 64.5256 68.842 64.4108C66.7526 62.7172 64.8359 60.8303 62.9749 58.8802C62.2396 58.5081 61.4886 58.1656 60.7272 57.8491C57.6493 56.8822 54.4644 56.2783 51.2559 55.933C43.736 55.5298 36.1895 56.2983 28.6595 56.0059C26.0643 55.9072 23.4432 55.7557 20.8411 55.4529C19.6927 55.8859 18.4929 56.1475 17.2359 56.2223C16.1402 56.1345 15.0401 56.0457 13.9444 55.9579C11.7776 55.4767 9.87082 54.4869 8.23586 52.9769C7.86425 52.6699 7.51089 52.3434 7.18763 51.9857C6.96601 51.7396 6.74091 51.488 6.52027 51.2374C5.94469 50.8389 5.38041 50.4099 4.86601 49.9447L4.74852 49.8202C4.07607 49.0096 3.40264 48.2036 2.73019 47.393C2.67959 47.3255 2.63443 47.2544 2.58383 47.1869C1.28477 45.2696 0.557304 42.6337 0.431511 40.3407C0.395886 39.6689 0.5004 38.6318 0.602796 37.7545C0.559653 37.4813 0.511078 37.2117 0.47141 36.944C0.326632 35.8951 0.269847 34.8276 0.28182 33.7657C0.306745 31.6375 0.506233 29.5001 0.770563 27.3863C1.06736 24.9734 1.86233 22.8432 2.73904 20.5518C3.52627 18.5 4.90393 16.6286 6.29194 14.9667C6.73933 14.4329 7.22537 13.9358 7.73172 13.4526C8.41141 12.4089 9.1277 11.3685 9.9352 10.4233C10.2489 10.0536 10.5889 9.71309 10.9448 9.38549C12.041 8.39953 13.159 7.39947 14.3549 6.53412C15.9389 5.38589 17.8393 4.58442 19.5779 3.776C22.3476 2.49498 25.3411 2.00689 28.3212 1.47348C30.5494 1.0731 32.8136 0.892532 35.0768 0.909562C37.2381 0.92325 39.3993 1.13004 41.5457 1.31946C41.7654 1.33903 41.983 1.36757 42.1972 1.39066C42.2215 1.38651 42.2412 1.3814 42.2645 1.38175C43.9356 1.16154 45.6243 1.0535 47.3103 1.04377C50.0794 1.02964 52.8624 1.27289 55.6089 1.55529C57.3101 1.73257 59.0026 1.99274 60.6765 2.33836C65.1238 3.25011 69.4191 4.77408 73.6321 6.44027C76.9645 7.75931 80.1961 9.34842 83.2819 11.179C84.8517 12.1095 86.3837 13.1072 87.8752 14.162C90.1637 15.7766 92.4488 17.3857 94.6115 19.1707C97.3828 21.4603 99.9775 23.9611 102.362 26.6564C105.421 30.1108 108.338 33.7227 110.818 37.6258C112.348 40.0266 113.645 42.5936 114.686 45.2505C115.018 46.1001 115.284 46.9776 115.462 47.8736C115.826 49.6766 116.309 51.5905 116.237 53.4636C116.186 54.7054 116.061 55.9876 115.927 57.2209C115.907 57.4236 115.877 57.6244 115.837 57.8277C115.562 59.2845 114.93 60.6871 114.404 62.0561L114.416 62.0635Z" fill="#EA2A46"/>
</svg>
