<svg width="152" height="128" viewBox="0 0 152 128" fill="none" xmlns="http://www.w3.org/2000/svg">
<path d="M151.002 70.0711C151.425 66.3284 151.545 62.5041 151.357 58.7427C151.242 56.4135 150.917 54.0999 150.395 51.8234C149.552 48.1682 148.736 44.5364 147.192 41.1C145.68 37.7383 143.899 34.4015 141.724 31.4163C139.411 28.2378 136.646 25.3065 133.745 22.6621C131.789 20.8808 129.662 19.2921 127.432 17.8632C124.042 15.6934 120.668 13.5768 117.027 11.8516C111.599 9.27559 105.821 7.32348 100.031 5.6724C99.1135 4.99052 98.124 4.3978 97.0558 3.89937C96.432 3.65742 95.8042 3.44005 95.1671 3.24009C93.1892 2.62289 91.2102 1.93608 89.1812 1.47456C87.9206 1.18419 86.6294 1.00238 85.3363 0.90863C81.3738 0.632583 77.3552 0.505061 73.4355 1.23338C69.5229 1.95657 65.5809 2.93371 61.8695 4.39079C58.0555 5.89405 54.4259 7.88857 50.8743 9.90859C46.1426 12.6047 41.7727 15.8655 37.5991 19.3545C32.3328 23.7549 27.2342 28.4418 22.5986 33.5019C17.9262 38.5937 14.0738 44.1557 10.4423 50.0255C7.61159 54.6074 5.3238 59.5 3.72751 64.6458C2.56269 68.4047 1.31483 72.1688 0.781875 76.0826C0.523524 77.9904 0.481507 79.8897 0.423122 81.8116C0.365752 83.7273 0.280661 85.6195 0.458091 87.5298C0.694939 90.037 1.38692 92.4679 1.98253 94.9081C2.25402 96.0197 2.59827 97.1118 3.06858 98.1679C3.83837 99.8984 4.8049 101.548 5.72835 103.19C6.02042 103.718 6.34116 104.225 6.69057 104.712C8.1355 106.719 9.88571 108.561 11.7402 110.193C12.2536 110.644 12.7987 111.056 13.3623 111.433C15.1329 112.615 16.9272 113.808 18.8175 114.802C20.0737 115.464 21.3921 116.017 22.7167 116.532C25.6449 117.673 28.6069 118.724 31.5861 119.708C38.8383 122.112 46.1998 124.314 53.7017 125.78C61.2589 127.257 68.8639 127.794 76.5583 127.866C81.9866 127.917 87.413 127.444 92.7287 126.34C98.9608 125.047 105.15 123.438 110.962 120.826C114.485 119.243 117.919 117.399 121.221 115.401C123.328 114.127 125.35 112.719 127.268 111.174C128.77 109.964 130.169 108.648 131.587 107.336C132.976 106.051 134.362 104.778 135.653 103.394C137.334 101.595 138.886 99.6675 140.249 97.6141C142.318 94.5033 144.361 91.3249 145.917 87.9147C147.493 84.4574 148.581 80.7805 149.608 77.1313C150.263 74.8155 150.729 72.4499 150.998 70.0578L151.002 70.0711Z" fill="#EF5662"/>
</svg>
