<svg width="103" height="10" viewBox="0 0 103 10" fill="none" xmlns="http://www.w3.org/2000/svg">
<path d="M1 1.71242C2.58946 3.75601 5.06131 6.52669 7.67019 7.32943C9.44213 7.87464 10.4078 7.42337 12 6.6273C14.5712 5.34167 17.0544 3.97183 19.6063 2.64859C21.8917 1.46357 23.7157 0.871896 26.2895 1.0233C29.5405 1.21453 32.4286 3.49565 35.2871 4.87199C36.7209 5.56233 38.3566 6.6273 39.981 6.6273C42.4317 6.6273 44.2331 5.77116 46.2871 4.52092C48.26 3.32002 50.3321 2.4473 52.4892 1.6084C58.2709 -0.640019 63.7033 4.72543 68.118 7.56347C70.4297 9.04952 73.4349 7.57759 75.1393 5.87317C76.4645 4.54792 77.8548 2.47033 79.6901 1.76443C81.2951 1.14713 82.1304 0.930821 83.9029 1.19233C86.6911 1.60371 89.3935 2.92912 91.9903 4.00083C94.3008 4.95437 97.4669 5.45709 99.9477 5.45709C101.037 5.45709 101.404 5.45721 101.404 4.28688" stroke="#333333" stroke-width="2" stroke-linecap="round"/>
</svg>
