<svg width="146" height="187" viewBox="0 0 146 187" fill="none" xmlns="http://www.w3.org/2000/svg">
<path d="M83.5164 167.053C101.454 156.697 122.228 147.307 135.031 130.409C144.683 117.669 143.785 100.992 140.59 86.135C134.492 57.7802 121.461 18.4723 90.4293 9.3926C74.9162 4.85352 59.9518 5.03149 44.5968 9.70626C28.0368 14.7479 6.80832 24.766 -3.78611 38.9271C-25.1579 67.4937 -28.6784 103.133 -12.9295 135.109C-8.79649 143.5 -3.85666 154.478 3.74974 160.284C13.5782 167.787 24.9286 173.851 36.3612 178.426C42.3863 180.836 49.7502 183.348 56.2934 183.238C60.2627 183.172 64.8961 184.583 68.6886 182.926C78.6668 178.566 87.9762 172.902 97.4213 167.449C117.731 155.722 134.974 142.947 142.108 119.479C148.037 99.971 142.16 77.8185 135.937 59.1052C133.221 50.9364 127.985 43.526 123.7 36.1033C118.033 26.2886 112.113 18.2696 102.345 12.1648C84.7058 1.14021 67.2029 0.421431 47.1272 2.74668C32.5326 4.43709 14.1894 11.5103 4.62144 23.0757C-5.72699 35.5845 -11.4573 52.6536 -15.2555 68.2454C-17.113 75.8704 -19.3522 84.6133 -18.9808 92.5077C-18.5097 102.522 -15.0883 111.018 -11.3083 120.251C-1.46951 144.282 17.1445 163.246 39.0234 176.713C53.2068 185.444 66.8436 186.336 82.6614 185.446" stroke="#333333" stroke-width="2" stroke-linecap="round"/>
</svg>
