<svg width="76" height="18" viewBox="0 0 76 18" fill="none" xmlns="http://www.w3.org/2000/svg">
<path d="M1.74927 7.72927C5.93953 5.17424 9.66806 2.72309 14.6926 4.15869C16.7113 4.73545 18.2092 6.26873 19.0567 8.1756C19.6875 9.59484 19.5575 11.5764 20.2717 12.862C22.1774 16.2923 17.8453 17.4397 15.5853 16.1102C12.1677 14.0999 14.4838 10.6161 16.4779 8.62192C18.8583 6.24152 21.0756 3.26604 24.7349 3.26604C28.4559 3.26604 31.1599 3.54284 34.554 5.05133C38.1658 6.65658 37.789 9.40145 39.4636 12.4157C41.3617 15.8322 37.1267 18.2676 34.554 16.2094C31.8018 14.0077 32.9521 10.4471 35.2235 8.1756C36.8543 6.5448 37.5937 4.29545 39.9099 3.26604C41.9723 2.34944 43.5087 1.03442 45.9353 1.03442C49.9402 1.03442 53.332 2.76505 56.3991 5.2745C59.256 7.61195 59.325 11.2057 59.325 14.6473C59.325 17.4442 53.8258 17.4466 53.5228 14.8704C53.1065 11.3323 52.4902 9.03901 56.2007 7.18377C59.4876 5.54033 61.5337 4.15869 65.5735 4.15869C68.4168 4.15869 72.9786 3.34759 74.5 6.3903" stroke="black" stroke-width="2" stroke-linecap="round"/>
</svg>
