<svg width="38" height="36" viewBox="0 0 38 36" fill="none" xmlns="http://www.w3.org/2000/svg">
<path d="M21.0537 32.2146C21.5172 22.1928 22.3448 12.1983 23.5262 2.24041C23.7168 0.642227 21.2187 0.529225 21.0283 2.12242C19.8467 12.0853 19.0241 22.0801 18.5559 32.0966C18.4799 33.7053 20.9778 33.8232 21.0537 32.2146Z" fill="#333333"/>
<path d="M35.3501 18.6105C24.0656 17.9572 12.7664 18.3547 1.54972 19.7625C-0.0418975 19.9627 0.513768 22.4022 2.10039 22.2018C13.0956 20.8186 24.1674 20.4654 35.2324 21.1033C36.8403 21.1943 36.9583 18.6964 35.3504 18.6055" fill="#333333"/>
<path d="M31.395 30.4751C26.0688 23.1388 20.0967 16.3328 13.5221 10.0941C12.3624 8.99292 10.5009 10.6674 11.6701 11.7791C18.2497 18.018 24.2218 24.824 29.5479 32.1602C30.4928 33.4616 32.3353 31.7662 31.4 30.4753" fill="#333333"/>
<path d="M29.0437 7.64301C22.0093 16.0126 14.5425 23.9962 6.68325 31.5958C5.52898 32.7129 7.20867 34.5696 8.36818 33.4478C16.3798 25.6952 23.965 17.5369 31.1372 9.00863C32.1717 7.77576 30.0624 6.42941 29.0385 7.64777" fill="#333333"/>
</svg>
