<svg width="64" height="17" viewBox="0 0 64 17" fill="none" xmlns="http://www.w3.org/2000/svg">
<path d="M62.2257 3.80497C60.3728 6.80317 58.39 9.87495 56.0368 12.4464C55.548 12.9805 55.6385 11.3335 55.521 10.9227C54.8588 8.60697 54.179 6.49475 52.8659 4.4729C52.5464 3.98091 50.6675 0.851234 50.5164 1.75941C50.0636 4.48122 47.0504 7.14672 45.4545 9.06497C44.6922 9.98126 41.7015 14.2832 40.4117 14.2832C40.1122 14.2832 40.2249 13.5772 40.2207 13.4066C40.1819 11.8405 39.6936 10.3983 39.1128 8.98147C38.1962 6.74542 37.0922 3.82411 35.4071 2.11425C34.6159 1.31144 34.142 0.405516 33.4778 1.80116C31.5956 5.75639 28.6122 9.61029 25.7799 12.8221C25.6062 13.0191 23.9656 15.5733 23.545 15.3895C23.2619 15.2658 22.7196 13.6842 22.5326 13.4066C21.1229 11.3139 19.5196 9.37267 18.0246 7.35338C17.1214 6.1333 15.562 2.77891 14.5481 4.99473C12.9861 8.40853 9.77208 10.5054 7.63336 13.4066C6.5352 14.8962 6.51299 14.4168 5.97152 12.5508C5.03948 9.33865 3.18523 6.5421 1.02421 4.18068" stroke="#333333" stroke-width="2" stroke-linecap="round"/>
</svg>
