<svg width="20" height="20" viewBox="0 0 20 20" fill="none" xmlns="http://www.w3.org/2000/svg">
<path fill-rule="evenodd" clip-rule="evenodd" d="M10 2.5C10.3452 2.5 10.625 2.77982 10.625 3.125V16.875C10.625 17.2202 10.3452 17.5 10 17.5C9.65482 17.5 9.375 17.2202 9.375 16.875V3.125C9.375 2.77982 9.65482 2.5 10 2.5Z" fill="#333333"/>
<path fill-rule="evenodd" clip-rule="evenodd" d="M3.93306 10.8081C4.17714 10.564 4.57286 10.564 4.81694 10.8081L10 15.9911L15.1831 10.8081C15.4271 10.564 15.8229 10.564 16.0669 10.8081C16.311 11.0521 16.311 11.4479 16.0669 11.6919L10.4419 17.3169C10.1979 17.561 9.80214 17.561 9.55806 17.3169L3.93306 11.6919C3.68898 11.4479 3.68898 11.0521 3.93306 10.8081Z" fill="#333333"/>
</svg>
