<svg width="50" height="26" viewBox="0 0 50 26" fill="none" xmlns="http://www.w3.org/2000/svg">
<path d="M10.0469 7.866C7.49448 10.789 5.08194 13.9121 2.35634 16.6761C-0.234492 19.3034 1.46941 16.9086 2.67272 15.4836C6.79379 10.6034 11.4418 6.57769 16.0826 2.26841C20.75 -2.06558 6.58293 11.0674 3.47585 16.6274C2.27642 18.7738 3.89243 18.0823 6.15296 18.6474C10.5062 19.7358 14.0963 22.9118 18.273 24.4154C21.0051 25.399 12.9711 22.0395 10.266 20.9838C8.27301 20.2061 6.40267 19.1667 4.40067 18.4041C4.14133 18.3053 1.64018 17.5036 2.16164 17.5036" stroke="#333333" stroke-width="2" stroke-linecap="round"/>
<path d="M48.75 16.6277L1.00013 16.6277" stroke="#333333" stroke-width="2" stroke-linecap="round"/>
</svg>
