<svg width="250" height="263" viewBox="0 0 250 263" fill="none" xmlns="http://www.w3.org/2000/svg">
<path d="M238.815 178.442C238.983 178.881 239.122 179.33 239.212 179.79C239.475 181.143 239.617 182.553 239.746 183.922C239.772 184.196 239.795 184.465 239.798 184.741C239.811 186.333 239.489 187.973 239.24 189.523C239.157 190.034 239.05 190.534 238.897 191.025C238.421 192.554 237.748 194.04 237.116 195.504C236.91 195.976 236.683 196.443 236.435 196.892C235.394 198.776 233.988 200.49 232.664 202.15C232.059 202.912 231.387 203.622 230.664 204.283C228.367 206.375 225.789 208.352 223.016 209.79C221.593 210.528 220.095 211.146 218.597 211.734C217.745 212.481 216.836 213.14 215.917 213.666C214.585 214.43 213.112 215.07 211.594 215.362C210.521 215.568 208.906 215.754 207.812 215.809C207.62 215.817 207.431 215.829 207.24 215.819C207.044 215.81 206.848 215.779 206.649 215.754C205.347 215.592 203.992 215.442 202.707 215.174C202.557 215.14 202.408 215.099 202.259 215.058C199.214 215.221 196.168 215.091 193.12 214.865C192.218 215.111 191.326 215.393 190.445 215.706C187.121 217.232 183.982 219.145 181.021 221.293C174.388 226.67 168.624 233.053 162.067 238.531C159.808 240.42 157.488 242.285 155.069 244.008C154.432 245.245 153.622 246.377 152.621 247.396C151.632 248.155 150.639 248.916 149.651 249.675C147.462 250.917 145.106 251.534 142.583 251.507C142.037 251.531 141.491 251.525 140.947 251.47C140.574 251.431 140.193 251.39 139.817 251.347C139.03 251.45 138.229 251.518 137.443 251.517L137.249 251.502C136.068 251.331 134.888 251.165 133.707 250.994C133.613 250.976 133.521 250.95 133.427 250.932C130.877 250.306 128.261 248.642 126.412 246.809C125.871 246.27 125.171 245.319 124.59 244.503C124.346 244.306 124.101 244.116 123.864 243.921C122.945 243.148 122.086 242.293 121.288 241.391C119.692 239.582 118.235 237.632 116.851 235.653C115.266 233.397 114.316 231.001 113.312 228.407C112.414 226.082 112.151 223.461 112.055 221.008C112.026 220.219 112.057 219.431 112.115 218.64C111.894 217.245 111.706 215.825 111.667 214.416C111.649 213.867 111.677 213.322 111.727 212.776C111.9 211.113 112.08 209.422 112.428 207.785C112.888 205.615 113.878 203.496 114.726 201.494C116.082 198.312 118.23 195.625 120.331 192.912C121.901 190.881 123.669 189.008 125.586 187.302C127.414 185.671 129.39 184.202 131.339 182.73C131.539 182.579 131.744 182.438 131.942 182.294C131.959 182.273 131.972 182.253 131.991 182.236C133.23 180.78 134.568 179.406 135.979 178.116C138.298 175.999 140.824 174.089 143.349 172.239C144.915 171.095 146.537 170.027 148.208 169.045C152.642 166.432 157.414 164.449 162.225 162.648C166.031 161.225 169.958 160.105 173.945 159.3C175.973 158.889 178.02 158.564 180.077 158.318C183.229 157.937 186.374 157.554 189.551 157.411C193.623 157.231 197.706 157.363 201.761 157.817C206.96 158.399 212.159 159.22 217.213 160.618C220.325 161.475 223.367 162.648 226.262 164.093C227.188 164.554 228.079 165.09 228.909 165.709C230.585 166.95 232.447 168.192 233.81 169.823C234.711 170.906 235.58 172.08 236.406 173.219C236.542 173.405 236.67 173.597 236.791 173.798C237.667 175.233 238.201 176.893 238.799 178.445L238.815 178.442Z" fill="#FFE600"/>
<path d="M58.6039 163.549C72.7026 178.723 86.4924 196.877 105.822 205.586C120.395 212.151 136.45 207.553 150.219 201.122C176.498 188.85 211.906 167.374 213.83 135.099C214.792 118.964 211.279 104.417 203.295 90.4926C194.684 75.4756 180.181 57.0186 164.012 49.8521C131.396 35.3954 95.8704 39.9181 68.2161 62.4066C60.9587 68.3083 51.3609 75.5736 47.3985 84.2841C42.2785 95.5392 38.9007 107.957 36.9935 120.122C35.9883 126.533 35.1835 134.272 36.7511 140.625C37.702 144.48 37.3604 149.311 39.822 152.638C46.2987 161.392 53.8983 169.202 61.322 177.192C77.2853 194.372 93.5869 208.328 118.055 210.044C138.394 211.47 158.676 200.797 175.529 190.554C182.885 186.083 188.94 179.326 195.219 173.492C203.522 165.778 210.017 158.217 213.788 147.333C220.597 127.678 217.391 110.456 210.644 91.4059C205.739 77.5567 194.75 61.2549 181.34 54.5096C166.838 47.2141 148.92 45.4381 132.874 45.2157C125.027 45.107 116.004 44.8755 108.392 46.9996C98.736 49.6939 91.2171 54.9254 83.0612 60.6706C61.8325 75.6248 47.5015 98.0019 39.257 122.335C33.9123 138.109 36.0858 151.601 40.4837 166.821" stroke="#333333" stroke-width="2" stroke-linecap="round"/>
</svg>
