<svg width="69" height="57" viewBox="0 0 69 57" fill="none" xmlns="http://www.w3.org/2000/svg">
<path d="M14.0718 17.9606C16.2965 4.20535 33.2375 5.32733 43.3015 8.26921C53.3743 11.2111 65.3627 19.7187 62.0699 31.8837C59.3244 42.0169 46.4619 46.5843 37.1925 47.7681C27.0137 49.0756 16.0405 46.1691 11.2115 36.3452C7.13296 28.0673 8.41302 17.8016 15.2106 11.3789C24.0475 3.04804 37.166 3.05687 47.9627 7.09422C58.6887 11.1051 69.0882 20.0102 62.7938 32.3873C57.9737 41.8667 45.4114 48.3424 35.6387 51.2312C23.253 54.8887 11.0526 49.8796 6.18836 37.5997C1.42121 25.5848 6.92991 12.5539 15.9963 4.26719C18.0974 2.35011 14.9723 -0.768455 12.8712 1.13979C3.08971 10.0803 -2.85156 24.1713 1.3859 37.2993C5.19962 49.1021 16.0405 57.7069 28.6646 56.9648C36.0889 56.5231 43.1072 53.5017 49.5429 49.9414C55.4577 46.6726 61.346 42.7148 65.1773 37.0166C73.1138 25.2226 67.9847 12.6599 56.3316 6.12243C44.4314 -0.574097 28.7087 -2.81805 16.6584 4.74425C6.74452 10.9726 2.28636 22.5722 5.55274 33.8538C9.09278 46.0984 20.3221 52.6182 32.6725 52.5122C44.299 52.4062 59.395 47.6091 64.992 36.46C72.1868 22.1128 59.3773 8.99364 46.5413 4.66474C34.0232 0.424198 12.5887 -0.397409 9.81668 16.7856C9.36645 19.5685 13.6216 20.7611 14.0718 17.9606Z" fill="#333333"/>
</svg>
