<svg width="121" height="131" viewBox="0 0 121 131" fill="none" xmlns="http://www.w3.org/2000/svg">
<path d="M24.6007 130.297C54.5022 124.274 83.4669 114.376 111.095 101.494C115.266 99.5488 119.339 94.019 120.34 89.616C121.44 84.7726 121.384 78.9468 118.469 74.6884C103.681 53.0891 88.8968 31.4909 74.1088 9.89155C71.111 5.51174 67.5045 2.11071 62.2183 0.660616C57.9431 -0.512176 52.4239 -0.146616 48.3254 1.94326C45.8288 1.92781 43.4646 2.3993 41.0188 3.40196C37.4291 4.87615 33.16 7.69592 31.5106 11.3802C17.8667 41.8302 7.21498 73.3843 0.546389 106.095C-0.864352 113.021 0.349383 119.825 5.44696 125.038C10.5975 130.309 17.5867 131.707 24.6058 130.294L24.6007 130.297Z" fill="#E8F8FD"/>
<path d="M81.2409 106.829C82.8007 107.695 84.4618 108.56 86.1247 109.467C86.832 109.853 87.5396 110.247 88.2399 110.653C88.5837 110.419 88.3937 109.381 88.3937 109.039C88.3937 106.459 91.8561 99.3654 91.3945 101.904C91.1303 103.357 90.3504 104.889 89.8836 106.29C89.3968 107.75 88.8758 109.225 88.318 110.698C89.4444 111.352 90.551 112.036 91.6058 112.764C93.8829 113.964 96.1569 115.154 98.3825 116.425C100.158 117.44 96.6817 115.717 93.6364 114.285C94.0162 114.595 94.3848 114.914 94.7403 115.242C94.7652 115.259 94.7901 115.276 94.815 115.292C96.6979 116.547 97.1741 117.651 95.3606 115.838C95.1588 115.636 94.9519 115.437 94.7403 115.242C94.0468 114.779 93.3722 114.308 92.6967 113.846C91.9001 113.477 91.1816 113.155 90.66 112.942C89.7105 112.554 88.8145 112.118 87.9538 111.646C86.4949 115.387 84.7949 119.089 82.8117 122.469C82.3402 123.273 82.0003 124.111 81.5946 124.945C81.4714 125.198 81.4159 125.9 81.2169 125.701C80.6801 125.164 81.6516 122.577 81.7835 122.049C82.813 117.931 84.1268 114.103 85.752 110.321C85.0815 109.885 84.4241 109.43 83.7695 108.963C83.0866 108.587 82.4254 108.185 81.8044 107.738C81.222 107.318 80.0323 106.391 79.2524 105.741C79.0958 105.651 78.9392 105.561 78.7826 105.471C78.413 105.26 78.4333 105.174 78.605 105.173C78.437 105.006 78.4674 104.982 78.8248 105.201C78.985 105.236 79.1744 105.302 79.3282 105.387C79.615 105.547 79.784 105.741 79.9388 105.942C80.0119 105.993 80.0881 106.046 80.1676 106.101C80.5234 106.348 80.8812 106.59 81.2409 106.829Z" fill="#00BBEE"/>
<path d="M80.8391 106.604C85.6111 109.289 91.4367 111.914 95.3606 115.838C97.1741 117.651 96.6979 116.547 94.815 115.292C92.7959 113.946 90.9418 112.541 88.7714 111.431C86.4691 110.254 83.9063 109.251 81.8044 107.738C80.5012 106.799 76.1579 103.316 80.1676 106.101C85.9976 110.149 92.3666 112.988 98.3825 116.425C100.834 117.826 93.2743 114.01 90.66 112.942C86.8145 111.371 83.8479 109.018 80.5453 106.604C80.0142 106.216 79.9342 105.724 79.3282 105.387C78.8557 105.125 78.0471 105.051 78.7826 105.471C80.4961 106.45 82.2145 107.5 83.9449 108.493C85.1979 109.212 86.5368 110.246 87.932 110.675C88.6755 110.904 88.3937 109.455 88.3937 109.039C88.3937 106.459 91.8561 99.3654 91.3945 101.904C91.1303 103.357 90.3504 104.889 89.8836 106.29C88.0543 111.778 85.7421 117.474 82.8117 122.469C82.3402 123.273 82.0003 124.111 81.5946 124.945C81.4714 125.198 81.4159 125.9 81.2169 125.701C80.6801 125.164 81.6516 122.577 81.7835 122.049C83.307 115.955 85.4532 110.495 88.3097 104.884C88.9958 103.536 89.1178 101.741 89.9046 100.561" stroke="#333333" stroke-width="2" stroke-linecap="round"/>
</svg>
