<svg width="99" height="53" viewBox="0 0 99 53" fill="none" xmlns="http://www.w3.org/2000/svg">
<g clip-path="url(#clip0_188_2858)">
<path d="M98.579 14.1478C98.526 13.8085 98.4501 13.4732 98.3402 13.1492C98.0141 12.1964 97.5894 11.2512 97.1723 10.3364C97.0889 10.1535 97.0055 9.97437 96.9069 9.79905C96.3344 8.78525 95.5305 7.86291 94.8063 6.97107C94.5675 6.6776 94.3172 6.39937 94.0404 6.14401C93.1797 5.34745 92.2091 4.64998 91.2725 3.95251C90.9692 3.72765 90.6545 3.51421 90.3322 3.31984C88.9824 2.50422 87.4619 1.92871 86.0135 1.35702C85.35 1.09404 84.6637 0.888225 83.9622 0.731961C81.7365 0.240303 79.3743 -0.0760352 77.0842 0.0192474C75.9088 0.0687944 74.7295 0.221247 73.5617 0.392755C72.7465 0.228869 71.9275 0.141209 71.1502 0.141209C70.0241 0.141209 68.8525 0.270793 67.7795 0.636679C67.0211 0.895847 65.9253 1.36464 65.2087 1.72671C65.0836 1.7915 64.9585 1.85248 64.8409 1.92871C64.7196 2.00494 64.6058 2.09641 64.4883 2.18407C63.7186 2.75958 62.911 3.34652 62.1906 3.983C62.1071 4.05923 62.0275 4.13927 61.9479 4.2193C59.9497 5.22168 58.0577 6.4108 56.1998 7.66091C55.5362 7.83242 54.8651 7.97725 54.1902 8.09921C51.5171 8.33932 48.8212 8.26691 46.1519 7.98106C39.9677 6.9825 33.9693 5.03111 27.7965 3.94108C25.6694 3.56376 23.5119 3.22455 21.3431 3.01112C20.4862 2.45848 19.5572 2.03543 18.5487 1.75339C17.6425 1.63143 16.7325 1.50947 15.8263 1.38751C13.9797 1.39513 12.2545 1.86011 10.6582 2.79388C10.3018 2.97682 9.95679 3.17882 9.6307 3.41131C9.407 3.57138 9.1795 3.73527 8.95579 3.89915C8.41738 4.12021 7.88275 4.36795 7.38226 4.65379L7.26471 4.73383C6.57463 5.27122 5.88455 5.80481 5.19447 6.3422C5.14139 6.38794 5.0921 6.43748 5.03902 6.48322C3.64369 7.80574 2.58582 9.81049 2.07774 11.6437C1.92986 12.1811 1.83128 13.0387 1.75924 13.7666C1.67582 13.9801 1.58861 14.1897 1.50899 14.3993C1.20566 15.2225 0.970574 16.0763 0.792367 16.9376C0.435952 18.6641 0.219828 20.4288 0.0605782 22.1858C-0.125213 24.1905 0.143995 26.0543 0.451118 28.0628C0.727909 29.8618 1.51657 31.6188 2.35074 33.2081C2.61994 33.7188 2.92707 34.2066 3.25315 34.6869C3.62094 35.6511 4.01906 36.6192 4.50818 37.5263C4.69777 37.8807 4.91389 38.2161 5.14518 38.5439C5.8618 39.5348 6.59359 40.541 7.41259 41.4519C8.497 42.6601 9.89991 43.6434 11.1701 44.6039C13.1949 46.1284 15.5419 47.0507 17.87 48.0074C19.6103 48.7239 21.4189 49.2689 23.2617 49.6539C25.021 50.0236 26.8145 50.237 28.5927 50.4619C28.7747 50.4847 28.9567 50.5 29.135 50.519C29.1539 50.5267 29.1691 50.5343 29.188 50.5381C30.5075 51.0107 31.8612 51.3956 33.2299 51.7005C35.4784 52.1998 37.7837 52.4933 40.0663 52.7486C41.4806 52.9049 42.9024 52.9926 44.3243 53.0078C48.1008 53.0535 51.8621 52.5771 55.5817 51.9711C58.524 51.4909 61.4322 50.7744 64.2646 49.8368C65.7054 49.3604 67.1273 48.823 68.5264 48.2322C70.6725 47.329 72.8148 46.4295 74.8888 45.3661C77.5467 44.0017 80.0985 42.4353 82.5138 40.6744C85.6116 38.4181 88.6222 36.0094 91.3294 33.2881C92.9977 31.615 94.5068 29.7665 95.8225 27.7998C96.2434 27.171 96.615 26.5078 96.9183 25.8142C97.5325 24.4192 98.2643 22.9557 98.5373 21.4273C98.7155 20.4135 98.8407 19.354 98.9506 18.3326C98.9696 18.1649 98.9809 17.9972 98.9847 17.8257C99.0189 16.5984 98.7534 15.3521 98.5677 14.1516L98.579 14.1478Z" fill="#FFE600"/>
</g>
<defs>
<clipPath id="clip0_188_2858">
<rect width="99" height="53" fill="white"/>
</clipPath>
</defs>
</svg>
