<svg width="59" height="120" viewBox="0 0 59 120" fill="none" xmlns="http://www.w3.org/2000/svg">
<path d="M32.0091 3.11303C28.9924 4.23166 26.0307 5.61556 23.2361 7.21276C21.5051 8.2005 19.8677 9.34536 18.3345 10.6272C15.8751 12.6902 13.4229 14.7227 11.4016 17.2419C9.42484 19.7076 7.57157 22.372 6.13871 25.2043C4.61221 28.2185 3.44927 31.4862 2.55766 34.7482C1.95783 36.9471 1.57112 39.2037 1.34589 41.4776C1.00568 44.9343 0.699648 48.3578 0.795453 51.8363C0.93538 57.0243 1.68642 62.2415 2.6715 67.3516C2.50738 68.3238 2.43898 69.317 2.47298 70.3346C2.53029 70.9099 2.6079 71.4789 2.70236 72.0482C2.99836 73.8144 3.24172 75.6084 3.67616 77.3539C3.94334 78.4399 4.30513 79.5075 4.73477 80.5427C6.05987 83.7102 7.51994 86.8638 9.59411 89.6106C11.6616 92.3539 13.934 95.0218 16.483 97.3263C19.1069 99.6922 22.0338 101.726 24.9499 103.69C28.8387 106.304 33.0178 108.421 37.2948 110.298C42.6899 112.667 48.2384 114.796 53.892 116.424C59.5841 118.067 65.3167 118.896 71.1985 119.435C75.7881 119.852 80.4042 119.731 84.9453 118.977C88.262 118.426 91.6149 117.937 94.8049 116.837C96.3592 116.3 97.8233 115.599 99.311 114.902C100.794 114.207 102.269 113.542 103.656 112.668C105.476 111.517 107.061 110.044 108.69 108.641C109.432 108.002 110.131 107.315 110.754 106.544C111.775 105.281 112.657 103.898 113.551 102.55C113.841 102.121 114.103 101.677 114.339 101.219C115.308 99.3284 116.034 97.2651 116.56 95.2025C116.704 94.6318 116.807 94.0516 116.876 93.4706C117.092 91.6462 117.306 89.7996 117.331 87.9555C117.349 86.7296 117.259 85.4978 117.139 84.2755C116.873 81.5732 116.527 78.8792 116.123 76.1976C115.145 69.6671 113.97 63.1305 112.181 56.769C110.378 50.3611 107.84 44.279 104.913 38.3072C102.849 34.0941 100.385 30.0848 97.4841 26.4045C94.0834 22.0895 90.458 17.9294 86.2146 14.4486C83.6426 12.3377 80.9064 10.3968 78.1038 8.61791C76.3161 7.48208 74.4593 6.46392 72.5382 5.57885C71.0338 4.88549 69.4889 4.31215 67.9392 3.72337C66.4213 3.14723 64.9135 2.56792 63.3586 2.10506C61.3357 1.50042 59.2652 1.04629 57.1715 0.785808C53.9984 0.388376 50.7841 0.0377064 47.5815 0.152297C44.3352 0.269295 41.1107 0.848379 37.9312 1.46426C35.9123 1.85272 33.9281 2.40548 32.0005 3.12134L32.0091 3.11303Z" fill="#FFE600"/>
</svg>
