<svg width="138" height="149" viewBox="0 0 138 149" fill="none" xmlns="http://www.w3.org/2000/svg">
<path d="M27.918 148.067C61.8514 141.222 94.7218 129.975 126.076 115.336C130.809 113.125 135.431 106.841 136.567 101.838C137.815 96.334 137.752 89.7137 134.443 84.8745C117.661 60.3294 100.884 35.7856 84.1019 11.2406C80.6998 6.26344 76.607 2.39857 70.608 0.750711C65.7562 -0.582027 59.4929 -0.166612 54.8417 2.20828C52.0084 2.19073 49.3255 2.72652 46.5499 3.86592C42.4762 5.54116 37.6314 8.7455 35.7596 12.9323C20.2759 47.5351 8.18787 83.3925 0.620065 120.565C-0.980904 128.435 0.396494 136.167 6.18145 142.091C12.0265 148.081 19.9582 149.669 27.9238 148.063L27.918 148.067Z" fill="#FFE600"/>
<path d="M98.4919 41.2535C104.329 44.5367 111.454 47.7477 116.254 52.5472C118.472 54.7653 117.889 53.4152 115.586 51.8799C113.117 50.2334 110.849 48.5146 108.194 47.157C105.378 45.717 102.244 44.4906 99.6726 42.6396C98.0786 41.4919 92.7662 37.2317 97.6706 40.6375C104.801 45.5896 112.592 49.0612 119.95 53.2659C122.949 54.9796 113.702 50.3112 110.504 49.0051C105.801 47.0839 102.172 44.2055 98.1326 41.2535C97.483 40.7788 97.385 40.1766 96.6439 39.7648C96.0659 39.4438 95.0769 39.3534 95.9765 39.8675C98.0724 41.0651 100.174 42.3492 102.291 43.5636C103.823 44.443 105.461 45.7079 107.168 46.233C108.077 46.5128 107.732 44.7401 107.732 44.231C107.732 41.0752 111.967 32.3992 111.403 35.504C111.079 37.2814 110.126 39.1558 109.555 40.8685C107.317 47.5811 104.489 54.5484 100.905 60.6581C100.328 61.6412 99.9122 62.6668 99.416 63.6869C99.2653 63.9965 99.1974 64.8544 98.9539 64.6109C98.2974 63.9543 99.4857 60.7899 99.647 60.1448C101.51 52.6908 104.136 46.0119 107.63 39.1488C108.469 37.5005 108.618 35.3048 109.58 33.8613" stroke="#333333" stroke-width="2" stroke-linecap="round"/>
</svg>
