<svg width="225" height="220" viewBox="0 0 225 220" fill="none" xmlns="http://www.w3.org/2000/svg">
<path d="M25.9891 34.7547C21.6535 39.5593 17.6585 44.7801 14.1553 50.2203C11.9837 53.5874 10.1224 57.1436 8.57128 60.8435C6.08952 66.7907 3.59261 72.6773 2.30632 79.0179C1.05031 85.2224 0.195324 91.6613 0.240721 98.002C0.286118 104.751 1.20921 111.606 2.609 118.197C3.55479 122.638 4.93186 126.981 6.61159 131.203C9.16903 137.619 11.7567 143.945 15.1086 149.99C20.1024 159.01 26.2085 167.507 32.6323 175.595C33.2301 177.464 34.017 179.28 35.0082 181.043C35.6362 182.004 36.2945 182.934 36.983 183.85C39.1243 186.687 41.1975 189.623 43.5657 192.294C45.0336 193.959 46.6528 195.502 48.3628 196.925C53.6139 201.268 59.0919 205.46 65.2888 208.357C71.4705 211.255 77.9473 213.828 84.583 215.5C91.4079 217.21 98.4673 218.05 105.443 218.776C114.743 219.737 124.102 219.548 133.416 218.844C145.167 217.959 156.97 216.506 168.502 214.07C180.116 211.626 191.057 207.707 201.998 203.137C210.533 199.565 218.621 195.018 225.998 189.426C231.386 185.341 236.894 181.33 241.555 176.397C243.825 173.991 245.784 171.381 247.79 168.755C249.787 166.137 251.8 163.58 253.464 160.735C255.643 156.997 257.111 152.911 258.723 148.908C259.457 147.085 260.07 145.216 260.471 143.272C261.129 140.086 261.432 136.817 261.787 133.602C261.908 132.573 261.969 131.544 261.969 130.515C261.961 126.27 261.364 121.95 260.41 117.818C260.145 116.676 259.797 115.556 259.389 114.466C258.103 111.046 256.794 107.589 255.152 104.312C254.062 102.133 252.776 100.045 251.444 98.002C248.501 93.4849 245.421 89.0585 242.251 84.7079C234.541 74.1074 226.475 63.6809 217.479 54.1397C208.414 44.5304 198.343 36.1847 187.682 28.399C180.161 22.9058 172.118 18.1465 163.599 14.3785C153.611 9.95972 143.366 6.0252 132.645 3.86878C126.145 2.5598 119.509 1.7048 112.904 1.19785C108.689 0.872497 104.46 0.819531 100.238 1.06166C96.9313 1.25082 93.6627 1.68967 90.3713 2.10582C87.148 2.5144 83.9399 2.90785 80.7544 3.55099C76.6081 4.3833 72.5147 5.52581 68.5574 7.03152C62.5573 9.309 56.5269 11.7075 50.9429 14.9157C45.2833 18.1692 40.0852 22.2172 35.0006 26.2879C31.7698 28.8681 28.7508 31.7054 25.9815 34.7774L25.9891 34.7547Z" fill="#FFE600"/>
</svg>
