<svg width="222" height="244" viewBox="0 0 222 244" fill="none" xmlns="http://www.w3.org/2000/svg">
<path d="M56.5502 234.203C61.9342 236.702 67.5899 238.793 73.3038 240.395C76.8412 241.389 80.4597 242.061 84.1197 242.424C89.9995 242.996 95.8304 243.599 101.729 243.021C107.501 242.453 113.369 241.472 118.906 239.73C124.8 237.879 130.548 235.232 135.935 232.239C139.565 230.22 142.991 227.85 146.23 225.249C151.149 221.291 155.982 217.331 160.361 212.778C166.896 205.992 172.672 198.374 178.003 190.588C179.476 189.563 180.852 188.388 182.125 187.048C182.795 186.242 183.431 185.416 184.044 184.569C185.945 181.935 187.951 179.335 189.644 176.548C190.702 174.818 191.612 172.989 192.392 171.112C194.765 165.356 196.944 159.443 197.794 153.248C198.649 147.067 199.139 140.715 198.798 134.466C198.438 128.041 197.253 121.645 195.992 115.353C194.303 106.966 191.592 98.8362 188.443 90.8837C184.473 80.8504 179.991 70.9231 174.722 61.4979C169.425 52.002 163.019 43.4909 156.044 35.1544C150.597 28.6529 144.417 22.8036 137.517 17.8564C132.476 14.2443 127.468 10.5061 121.883 7.75638C119.16 6.4182 116.343 5.40601 113.499 4.35821C110.665 3.31499 107.879 2.2423 104.937 1.55102C101.073 0.649689 97.0978 0.46347 93.1565 0.129256C91.361 -0.0227578 89.5587 -0.0567616 87.7478 0.114727C84.781 0.394467 81.838 1.00738 78.927 1.55979C77.9935 1.73021 77.0764 1.95353 76.1759 2.22977C72.463 3.37587 68.8445 5.05815 65.4883 7.00049C64.5604 7.53867 63.675 8.14351 62.8326 8.79314C60.1893 10.8355 57.5191 12.9079 55.0984 15.2226C53.4876 16.7599 52.0098 18.4449 50.5841 20.1573C47.4313 23.9426 44.3951 27.8226 41.4498 31.7616C34.2694 41.3466 27.3382 51.1957 21.4348 61.6206C15.4903 72.1234 10.9254 83.1665 7.01101 94.5752C4.24904 102.624 2.27139 110.932 1.29086 119.39C0.140066 129.306 -0.516969 139.317 0.5118 149.268C1.13394 155.3 2.19041 161.33 3.54327 167.24C4.40476 171.011 5.50876 174.722 6.86896 178.348C7.93379 181.187 9.20688 183.926 10.4662 186.692C11.7005 189.399 12.9174 192.098 14.3466 194.71C16.2027 198.11 18.3159 201.382 20.71 204.436C24.335 209.07 28.0743 213.697 32.4007 217.716C36.7874 221.79 41.7439 225.247 46.6894 228.599C49.8261 230.73 53.1304 232.607 56.5721 234.203L56.5502 234.203Z" fill="#FFE600"/>
<path d="M189.108 159.246C195.519 157.309 202.77 154.392 209.556 154.254C212.692 154.19 211.315 153.675 208.613 154.273C205.715 154.915 202.904 155.36 200.086 156.335C197.097 157.369 194.042 158.781 190.926 159.354C188.994 159.709 182.242 160.591 188.095 159.412C196.606 157.697 204.505 154.482 212.634 152.085C215.948 151.109 206.176 154.546 203.019 155.949C198.376 158.011 193.787 158.635 188.86 159.505C188.067 159.645 187.565 159.298 186.755 159.548C186.123 159.742 185.373 160.393 186.367 160.1C188.682 159.418 191.064 158.791 193.406 158.105C195.101 157.609 197.148 157.303 198.709 156.436C199.54 155.974 198.023 154.995 197.656 154.642C195.379 152.456 192.053 143.393 193.902 145.95C194.96 147.414 195.652 149.401 196.492 150.999C199.785 157.262 202.852 164.127 204.777 170.944C205.087 172.041 205.539 173.051 205.931 174.115C206.05 174.438 206.622 175.081 206.278 175.088C205.35 175.107 203.89 172.059 203.536 171.495C199.449 164.989 196.45 158.47 193.918 151.196C193.31 149.45 191.83 147.821 191.455 146.127" stroke="#333333" stroke-width="2" stroke-linecap="round"/>
</svg>
