<svg width="21" height="20" viewBox="0 0 21 20" fill="none" xmlns="http://www.w3.org/2000/svg">
<path fill-rule="evenodd" clip-rule="evenodd" d="M10.668 3.125C8.25172 3.125 6.29297 5.08375 6.29297 7.5C6.29297 9.91625 8.25172 11.875 10.668 11.875C13.0842 11.875 15.043 9.91625 15.043 7.5C15.043 5.08375 13.0842 3.125 10.668 3.125ZM5.04297 7.5C5.04297 4.3934 7.56137 1.875 10.668 1.875C13.7746 1.875 16.293 4.3934 16.293 7.5C16.293 10.6066 13.7746 13.125 10.668 13.125C7.56137 13.125 5.04297 10.6066 5.04297 7.5Z" fill="#00BBEE"/>
<path fill-rule="evenodd" clip-rule="evenodd" d="M10.6681 13.1245C9.24171 13.1245 7.84048 13.5 6.60525 14.2132C5.37002 14.9265 4.34431 15.9523 3.63124 17.1877C3.45868 17.4866 3.07645 17.5891 2.7775 17.4165C2.47855 17.2439 2.37609 16.8617 2.54865 16.5628C3.37142 15.1374 4.55493 13.9537 5.9802 13.1307C7.40547 12.3078 9.02227 11.8745 10.6681 11.8745C12.3139 11.8745 13.9307 12.3078 15.3559 13.1307C16.7812 13.9537 17.9647 15.1374 18.7875 16.5628C18.9601 16.8617 18.8576 17.2439 18.5587 17.4165C18.2597 17.5891 17.8775 17.4866 17.7049 17.1877C16.9918 15.9523 15.9661 14.9265 14.7309 14.2132C13.4957 13.5 12.0944 13.1245 10.6681 13.1245Z" fill="#00BBEE"/>
</svg>
