<svg width="32" height="32" viewBox="0 0 32 32" fill="none" xmlns="http://www.w3.org/2000/svg">
<path fill-rule="evenodd" clip-rule="evenodd" d="M11 8C7.96243 8 5.5 10.4624 5.5 13.5C5.5 16.5376 7.96243 19 11 19C14.0376 19 16.5 16.5376 16.5 13.5C16.5 10.4624 14.0376 8 11 8ZM3.5 13.5C3.5 9.35786 6.85786 6 11 6C15.1421 6 18.5 9.35786 18.5 13.5C18.5 17.6421 15.1421 21 11 21C6.85786 21 3.5 17.6421 3.5 13.5Z" fill="#00BBEE"/>
<path fill-rule="evenodd" clip-rule="evenodd" d="M21.1845 6.00001L21.1876 6C23.1767 6 25.0843 6.79018 26.4909 8.1967C27.8974 9.60323 28.6876 11.5109 28.6876 13.5C28.6876 15.4891 27.8974 17.3968 26.4909 18.8033C25.0843 20.2098 23.1767 21 21.1876 21C20.6353 21 20.1876 20.5523 20.1876 20C20.1876 19.4477 20.6353 19 21.1876 19C22.6462 19 24.0452 18.4205 25.0766 17.3891C26.1081 16.3576 26.6876 14.9587 26.6876 13.5C26.6876 12.0413 26.1081 10.6424 25.0766 9.61092C24.0455 8.57982 22.6472 8.00041 21.1891 8C20.6816 8.00168 20.1766 8.06981 19.6868 8.20264C19.1538 8.3472 18.6045 8.03229 18.4599 7.49926C18.3154 6.96624 18.6303 6.41694 19.1633 6.27237C19.8222 6.09366 20.5018 6.00209 21.1845 6.00001Z" fill="#00BBEE"/>
<path fill-rule="evenodd" clip-rule="evenodd" d="M11 20.9995C9.39527 20.9995 7.81409 21.3857 6.39003 22.1255C4.96597 22.8653 3.74087 23.9369 2.8182 25.2499C2.50066 25.7018 1.87693 25.8107 1.42506 25.4931C0.973194 25.1756 0.8643 24.5519 1.18184 24.1C2.28904 22.5244 3.75917 21.2385 5.46803 20.3507C7.1769 19.463 9.07432 18.9995 11 18.9995C12.9257 18.9995 14.8231 19.463 16.532 20.3507C18.2409 21.2385 19.711 22.5244 20.8182 24.1C21.1357 24.5519 21.0269 25.1756 20.575 25.4931C20.1231 25.8107 19.4994 25.7018 19.1818 25.2499C18.2592 23.9369 17.0341 22.8653 15.61 22.1255C14.186 21.3857 12.6048 20.9995 11 20.9995Z" fill="#00BBEE"/>
<path fill-rule="evenodd" clip-rule="evenodd" d="M26.6107 22.1244C25.1866 21.3847 23.6053 20.999 22.0006 21C21.4483 21.0003 21.0003 20.5529 21 20.0006C20.9997 19.4483 21.4471 19.0003 21.9994 19C23.9254 18.9988 25.8234 19.4617 27.5326 20.3496C29.2418 21.2374 30.7119 22.524 31.8185 24.1005C32.1358 24.5525 32.0266 25.1762 31.5745 25.4935C31.1225 25.8108 30.4988 25.7016 30.1815 25.2495C29.2596 23.9361 28.0347 22.8641 26.6107 22.1244Z" fill="#00BBEE"/>
</svg>
