<?xml version="1.0" encoding="utf-8"?>
<!-- Generator: Adobe Illustrator 19.2.0, SVG Export Plug-In . SVG Version: 6.00 Build 0)  -->
<svg version="1.1" xmlns="http://www.w3.org/2000/svg" xmlns:xlink="http://www.w3.org/1999/xlink" x="0px" y="0px"
	 viewBox="0 0 496 497" style="enable-background:new 0 0 496 497;" xml:space="preserve">
<style type="text/css">
	.st0{fill:#FFFFFF;}
	.st1{fill:url(#shape_3_1_);}
	.st2{fill:url(#SVGID_1_);}
	.st3{fill-rule:evenodd;clip-rule:evenodd;fill:#FFFFFF;}
</style>
<g id="background_1_">
</g>
<g id="WhatsApp_Logo">
	<g id="shape_4">
		<image style="overflow:visible;opacity:6.000000e-02;" width="496" height="497" xlink:href="F7553AD57EEBBBF4.png" >
		</image>
		<g>
			
				<image style="overflow:visible;opacity:0.15;" width="438" height="440" xlink:href="F7553AD57EEBBBF3.png"  transform="matrix(1 0 0 1 28 27)">
			</image>
			<g>
				<path class="st0" d="M37.9,453.4l29.6-108c-18.2-31.6-27.9-67.5-27.8-104.2c0-115,93.6-208.5,208.6-208.5
					c55.8,0,108.2,21.7,147.5,61.1c39.4,39.4,61.1,91.8,61,147.5c0,115-93.6,208.5-208.6,208.5c0,0,0,0,0,0h-0.1
					c-34.9,0-69.2-8.8-99.7-25.4L37.9,453.4z M153.6,386.6l6.3,3.8c26.6,15.8,57.1,24.1,88.2,24.2h0.1
					c95.5,0,173.3-77.7,173.3-173.3c0-46.3-18-89.8-50.7-122.6c-32.7-32.8-76.3-50.8-122.6-50.8c-95.6,0-173.4,77.7-173.4,173.3
					c0,32.7,9.1,64.6,26.5,92.2l4.1,6.6L88,403.8L153.6,386.6z"/>
			</g>
		</g>
	</g>
	<linearGradient id="shape_3_1_" gradientUnits="userSpaceOnUse" x1="247.3167" y1="446.0923" x2="247.3167" y2="39.8984">
		<stop  offset="0" style="stop-color:#20B038"/>
		<stop  offset="1" style="stop-color:#60D66A"/>
	</linearGradient>
	<path id="shape_3" class="st1" d="M45.1,446.1l28.6-104.3c-17.6-30.5-26.9-65.2-26.9-100.6c0-111,90.4-201.3,201.3-201.3
		c53.9,0,104.4,21,142.4,59c38,38,58.9,88.6,58.9,142.4c0,111-90.4,201.3-201.3,201.3c0,0,0,0,0,0h-0.1c-33.7,0-66.8-8.5-96.2-24.5
		L45.1,446.1z"/>
	<g id="shape_2">
		
			<image style="overflow:visible;opacity:4.000000e-02;" width="444" height="446" xlink:href="F7553AD57EEBBBFC.png"  transform="matrix(1 0 0 1 25 21)">
		</image>
		<g>
			<g>
				<linearGradient id="SVGID_1_" gradientUnits="userSpaceOnUse" x1="247.3181" y1="453.3727" x2="247.3181" y2="32.6125">
					<stop  offset="0" style="stop-color:#F9F9F9"/>
					<stop  offset="1" style="stop-color:#FFFFFF"/>
				</linearGradient>
				<path class="st2" d="M37.9,453.4l29.6-108c-18.2-31.6-27.9-67.5-27.8-104.2c0-115,93.6-208.5,208.6-208.5
					c55.8,0,108.2,21.7,147.5,61.1c39.4,39.4,61.1,91.8,61,147.5c0,115-93.6,208.5-208.6,208.5c0,0,0,0,0,0h-0.1
					c-34.9,0-69.2-8.8-99.7-25.4L37.9,453.4z M153.6,386.6l6.3,3.8c26.6,15.8,57.1,24.1,88.2,24.2h0.1
					c95.5,0,173.3-77.7,173.3-173.3c0-46.3-18-89.8-50.7-122.6c-32.7-32.8-76.3-50.8-122.6-50.8c-95.6,0-173.4,77.7-173.4,173.3
					c0,32.7,9.1,64.6,26.5,92.2l4.1,6.6L88,403.8L153.6,386.6z"/>
			</g>
		</g>
	</g>
	<g id="shape_1">
		
			<image style="overflow:visible;opacity:6.000000e-02;" width="237" height="222" xlink:href="F7553AD57EEBBBFF.png"  transform="matrix(1 0 0 1 130 134)">
		</image>
		<g>
			<path class="st3" d="M196.1,153.9c-3.9-8.7-8-8.9-11.7-9c-3-0.1-6.5-0.1-10-0.1c-3.5,0-9.1,1.3-13.9,6.5
				c-4.8,5.2-18.2,17.8-18.2,43.5c0,25.6,18.7,50.4,21.3,53.9c2.6,3.5,36.1,57.8,89,78.7c44,17.4,53,13.9,62.5,13
				c9.6-0.9,30.8-12.6,35.2-24.8c4.3-12.2,4.3-22.6,3-24.8c-1.3-2.2-4.8-3.5-10-6.1c-5.2-2.6-30.8-15.2-35.6-17
				c-4.8-1.7-8.3-2.6-11.7,2.6c-3.5,5.2-13.5,16.9-16.5,20.4c-3,3.5-6.1,3.9-11.3,1.3c-5.2-2.6-22-8.1-41.9-25.9
				c-15.5-13.8-26-30.9-29-36.1c-3-5.2-0.3-8,2.3-10.6c2.3-2.3,5.2-6.1,7.8-9.1c2.6-3,3.5-5.2,5.2-8.7c1.7-3.5,0.9-6.5-0.4-9.1
				C210.8,190,200.7,164.2,196.1,153.9z"/>
		</g>
	</g>
</g>
</svg>
