<?xml version="1.0" encoding="UTF-8" standalone="no"?>
<!-- Created with Inkscape (http://www.inkscape.org/) -->

<svg
   xmlns:dc="http://purl.org/dc/elements/1.1/"
   xmlns:cc="http://creativecommons.org/ns#"
   xmlns:rdf="http://www.w3.org/1999/02/22-rdf-syntax-ns#"
   xmlns:svg="http://www.w3.org/2000/svg"
   xmlns="http://www.w3.org/2000/svg"
   xmlns:sodipodi="http://sodipodi.sourceforge.net/DTD/sodipodi-0.dtd"
   xmlns:inkscape="http://www.inkscape.org/namespaces/inkscape"
   width="150"
   height="127.03905"
   viewBox="0 0 39.6875 33.612417"
   version="1.1"
   id="svg8112"
   inkscape:version="0.92.1 r15371"
   sodipodi:docname="blog.svg">
  <defs
     id="defs8106" />
  <sodipodi:namedview
     id="base"
     pagecolor="#ffffff"
     bordercolor="#666666"
     borderopacity="1.0"
     inkscape:pageopacity="0.0"
     inkscape:pageshadow="2"
     inkscape:zoom="1.979899"
     inkscape:cx="-53.90759"
     inkscape:cy="-11.935155"
     inkscape:document-units="px"
     inkscape:current-layer="layer1"
     showgrid="false"
     fit-margin-top="10"
     units="px"
     fit-margin-left="10"
     fit-margin-right="10"
     fit-margin-bottom="10"
     inkscape:window-width="1366"
     inkscape:window-height="709"
     inkscape:window-x="0"
     inkscape:window-y="0"
     inkscape:window-maximized="1" />
  <metadata
     id="metadata8109">
    <rdf:RDF>
      <cc:Work
         rdf:about="">
        <dc:format>image/svg+xml</dc:format>
        <dc:type
           rdf:resource="http://purl.org/dc/dcmitype/StillImage" />
        <dc:title></dc:title>
      </cc:Work>
    </rdf:RDF>
  </metadata>
  <g
     inkscape:label="Capa 1"
     inkscape:groupmode="layer"
     id="layer1"
     transform="translate(-180.37938,-36.464384)">
    <g
       id="g5978"
       transform="matrix(1.7197819,0,0,1.7197819,-131.73825,-48.535594)"
       style="stroke-width:0.58146906">
      <circle
         id="circle1156"
         r="5.446167"
         cy="61.984802"
         cx="188.47139"
         style="fill:#e7e7e8;stroke-width:0.15384704" />
      <path
         id="path1158"
         d="m 199.53462,58.917135 c 0,3.400802 -3.12672,6.157358 -6.98353,6.157358 -1.06561,0 -2.07175,-0.215011 -2.97472,-0.591872 -0.10121,-0.04214 -0.21659,-0.02757 -0.30558,0.03662 -1.26054,0.911632 -2.37773,1.156966 -3.11452,1.197133 -0.29022,0.01536 -0.43278,-0.328818 -0.23588,-0.542254 0.55722,-0.603686 0.8943,-1.575569 1.0849,-2.326533 0.0248,-0.09805 -0.002,-0.198866 -0.0673,-0.276444 -0.85847,-1.022682 -1.3704,-2.284397 -1.3704,-3.653618 0,-3.400802 3.12672,-6.157358 6.98393,-6.157358 1.05734,0 2.05954,0.206742 2.95779,0.578089"
         inkscape:connector-curvature="0"
         style="fill:#ffffff;stroke-width:0.15384704" />
      <path
         style="stroke-width:0.15384704"
         id="path1160"
         d="m 186.13619,66.012116 c -0.23628,0 -0.44263,-0.129558 -0.54344,-0.34457 -0.10868,-0.231157 -0.0658,-0.503268 0.11026,-0.693864 0.52139,-0.565094 0.83997,-1.507443 1.01599,-2.198944 -0.94943,-1.135701 -1.44719,-2.464755 -1.44719,-3.857603 0,-3.557926 3.26534,-6.452704 7.27888,-6.452704 1.0727,0 2.10601,0.202016 3.07081,0.600142 0.15082,0.06222 0.22249,0.235095 0.16027,0.385524 -0.0626,0.150823 -0.23509,0.222099 -0.38552,0.15988 -0.89313,-0.368591 -1.85044,-0.555249 -2.84556,-0.555249 -3.68787,0 -6.68819,2.629754 -6.68819,5.862013 0,1.252264 0.45011,2.450184 1.3011,3.463809 0.12916,0.153974 0.17563,0.350083 0.12758,0.539104 -0.19256,0.757659 -0.54894,1.798062 -1.1542,2.454122 l -0.007,0.04647 c 0.68953,-0.03662 1.75475,-0.264236 2.96684,-1.140821 0.17406,-0.12562 0.39576,-0.152004 0.59227,-0.07009 0.90533,0.377648 1.86816,0.569032 2.86091,0.569032 3.68827,0 6.68859,-2.629754 6.68859,-5.862013 0,-0.163031 0.13192,-0.295345 0.29534,-0.295345 0.16303,0 0.29535,0.132314 0.29535,0.295345 0,3.557926 -3.26534,6.452704 -7.27928,6.452704 -1.07151,0 -2.11034,-0.206742 -3.08813,-0.614712 -1.34756,0.964007 -2.5317,1.214853 -3.29093,1.255414 -0.0114,0 -0.0232,0.0039 -0.0351,0.0039 z"
         inkscape:connector-curvature="0" />
      <path
         style="fill:#ffffff;stroke-width:0.15384704"
         inkscape:connector-curvature="0"
         d="m 195.34584,58.346134 c 0.14767,-0.09845 -0.63991,-1.772072 0.1969,-2.756556 l 0.44302,0.04922 c 0,0 -1.13216,-3.248798 6.74371,-4.380955 0,0 -2.06741,3.15035 -2.31354,4.479404 l -1.37827,0.689138 0.83681,0.393794 c 0,0 -1.87052,1.772072 -4.08561,1.722848 z"
         id="path1164" />
      <path
         inkscape:connector-curvature="0"
         d="m 195.88061,58.839557 c -0.0327,0 -0.0658,-3.94e-4 -0.0984,0 -0.0394,0 -0.078,-0.0091 -0.11341,-0.0252 l -0.36977,-0.1713 c -0.0985,-0.04332 -0.0339,0.02126 -0.0429,-0.08663 -0.004,-0.04135 0.008,-0.26463 0.0217,-0.302828 -0.008,-0.05946 -0.24336,-0.170906 -0.26344,-0.261873 -0.13586,-0.621406 -0.38828,-1.778372 0.30361,-2.592343 0.0634,-0.07443 0.15988,-0.113413 0.25754,-0.102387 l 0.0614,0.0071 c -0.0146,-0.33433 0.0441,-0.830117 0.37765,-1.378278 0.88407,-1.453886 3.12948,-2.44979 6.67323,-2.959359 0.11459,-0.01693 0.22879,0.03583 0.29141,0.13389 0.0622,0.09805 0.0614,0.223281 -0.002,0.320548 -0.0201,0.03072 -2.03749,3.115696 -2.26983,4.37111 -0.0169,0.09097 -0.0752,0.169331 -0.15831,0.210286 l -0.83405,0.417421 0.28589,0.134677 c 0.0886,0.04135 0.15043,0.123652 0.16579,0.220525 0.0157,0.09609 -0.0173,0.19414 -0.0886,0.261085 -0.0792,0.07482 -1.93156,1.804757 -4.19706,1.804757 z m -0.0272,-0.59069 c 1.53186,0.0083 2.86761,-0.884855 3.47681,-1.357801 l -0.41861,-0.197291 c -0.10238,-0.04804 -0.16815,-0.150429 -0.16933,-0.263448 -0.001,-0.113018 0.0622,-0.217374 0.16343,-0.267779 l 1.25226,-0.626526 c 0.26778,-1.071119 1.38773,-2.951484 1.97133,-3.885169 -3.67961,0.622194 -5.07757,1.723635 -5.59738,2.560053 -0.45444,0.730881 -0.27369,1.309364 -0.26581,1.333779 0.0311,0.0953 0.0122,0.201623 -0.0512,0.2792 -0.0634,0.07797 -0.16224,0.120501 -0.26148,0.108687 l -0.27565,-0.03072 c -0.38592,0.591478 -0.20005,1.441285 -0.0862,1.962668 0.024,0.108687 0.0453,0.205954 0.0571,0.292983 z"
         id="path1166"
         style="stroke-width:0.15384704" />
      <path
         style="stroke-width:0.15384704"
         id="path1170"
         d="m 194.75476,60.512393 c -0.0351,0 -0.0709,-0.0067 -0.10554,-0.01969 -0.1524,-0.05828 -0.2284,-0.229188 -0.17012,-0.381586 0.074,-0.192565 1.84807,-4.744426 5.43317,-7.034731 0.13744,-0.08782 0.32016,-0.04725 0.40797,0.09018 0.0878,0.137434 0.0476,0.319761 -0.0898,0.407971 -3.41853,2.183586 -5.18193,6.702762 -5.19965,6.748048 -0.0453,0.117745 -0.15713,0.189809 -0.27605,0.189809 z"
         inkscape:connector-curvature="0" />
      <path
         inkscape:connector-curvature="0"
         d="m 192.93346,58.854915 h -3.54414 c -0.16343,0 -0.29535,-0.132314 -0.29535,-0.295345 0,-0.163031 0.13192,-0.295345 0.29535,-0.295345 h 3.54414 c 0.16303,0 0.29535,0.132314 0.29535,0.295345 0,0.163031 -0.13232,0.295345 -0.29535,0.295345 z"
         id="path1174"
         style="stroke-width:0.15384704" />
      <path
         inkscape:connector-curvature="0"
         d="m 194.64016,60.495854 h -5.25045 c -0.16342,0 -0.29534,-0.132315 -0.29534,-0.295346 0,-0.16303 0.13192,-0.295345 0.29534,-0.295345 h 5.25045 c 0.16343,0 0.29535,0.132315 0.29535,0.295345 0,0.163031 -0.13232,0.295346 -0.29535,0.295346 z"
         id="path1176"
         style="stroke-width:0.15384704" />
      <path
         id="path1182"
         d="m 199.94023,58.588711 c 0.48555,0.70174 -0.26857,1.47712 -0.98369,1.010868 -0.0347,-0.02284 -0.0662,-0.05316 -0.0898,-0.08742 -0.48594,-0.70174 0.26857,-1.47712 0.9837,-1.010869 0.0346,0.02284 0.0661,0.05316 0.0898,0.08742 z"
         inkscape:connector-curvature="0"
         style="fill:#ffffff;stroke-width:0.15384704" />
      <path
         style="stroke-width:0.15384704"
         id="path1184"
         d="m 199.41688,60.02527 c -0.53674,0.0075 -0.98015,-0.423722 -0.98763,-0.960857 -0.007,-0.537134 0.42372,-0.980546 0.96046,-0.988028 0.53753,-0.0079 0.98094,0.423722 0.98842,0.960463 0.007,0.537528 -0.42333,0.980546 -0.96125,0.988422 z m -0.0193,-1.381822 c -0.22446,0.0039 -0.40442,0.188627 -0.40127,0.412696 0.003,0.224462 0.18823,0.40482 0.4123,0.402063 0.22446,-0.0039 0.40521,-0.188627 0.40206,-0.413089 -0.003,-0.224857 -0.18823,-0.40482 -0.41309,-0.40167 z"
         inkscape:connector-curvature="0" />
      <path
         style="fill:#82b945;stroke-width:0.15384704"
         inkscape:connector-curvature="0"
         d="m 195.8625,58.408353 c -0.44263,-0.235095 0.65921,-1.648026 0.74309,-1.944553 -0.23746,0.180751 -0.47452,0.361109 -0.71198,0.54186 1.09199,0.01615 1.09553,-0.697015 1.29282,-1.506655 0.21186,-0.869496 1.26172,-1.360951 1.96031,-1.789398 0.73167,-0.449319 2.51713,-2.244624 3.41025,-2.12688 -0.12404,-0.458376 -0.6029,0.122864 -0.72734,-0.335906 -1.94534,1.282586 -5.11144,2.421831 -6.08017,4.688902 -0.36938,0.864377 0.90257,1.617704 1.2751,0.745845 0.85257,-1.995747 3.47523,-4.024572 5.20399,-5.164211 0.65527,-0.432385 0.41269,-0.07088 -0.29535,-0.164212 -1.46845,-0.193352 -3.13381,0.800583 -4.29314,1.566905 -0.54028,0.357171 -1.16563,0.718674 -1.55863,1.247933 -0.16855,0.226825 -0.72576,1.353469 -0.18784,1.360951 -0.32528,-0.0047 -0.62456,0.233126 -0.71198,0.542254 -0.14649,0.517051 -0.004,1.125462 0.0402,1.653146 0.0795,0.939985 0.75372,1.074663 0.67299,0.126014 z"
         id="path1188" />
      <path
         style="fill:#e7829b;stroke-width:0.15384704"
         inkscape:connector-curvature="0"
         d="m 200.1009,58.924223 c 0,-0.01142 0,-0.02323 0,-0.03505 0,-0.385918 -0.33945,-0.756084 -0.73836,-0.738363 -0.4001,0.01811 -0.73837,0.324486 -0.73837,0.738363 0,0.01181 0,0.02363 0,0.03505 0,0.385918 0.33985,0.756478 0.73837,0.738363 0.40009,-0.01811 0.73836,-0.324092 0.73836,-0.738363 z"
         id="path1190" />
    </g>
  </g>
</svg>
