<?xml version="1.0" encoding="utf-8"?>
<!-- Generator: Adobe Illustrator 23.0.4, SVG Export Plug-In . SVG Version: 6.00 Build 0)  -->
<svg version="1.1" id="Capa_1" xmlns="http://www.w3.org/2000/svg" xmlns:xlink="http://www.w3.org/1999/xlink" x="0px" y="0px"
	 viewBox="0 0 235.5 244.8" style="enable-background:new 0 0 235.5 244.8;" xml:space="preserve">
<style type="text/css">
	.st0{fill:#FEFEFE;}
	.st1{fill:#21201E;}
	.st2{fill:#46ADDD;}
	.st3{fill:#93D1ED;}
	.st4{fill:#D26268;}
	.st5{fill:#EBD42C;}
	.st6{fill:#2D2C2B;}
	.st7{fill:#91CFEE;}
	.st8{fill:#21201F;}
	.st9{fill:#92D0EC;}
	.st10{fill:#3FABDF;}
	.st11{fill:#FDFDFD;}
	.st12{fill:#94D1ED;}
	.st13{fill:#201F1D;}
	.st14{fill:#44ACDC;}
</style>
<g>
	<path class="st0" d="M56.8,80.8c0,0,39.3-54.4,105.7-10.6c0,0,27.4-35.8,65.5-31.2c0,0-14.3,33.7-16.2,45.3c0,0-33.1,0-12.2,9.9
		l-12.8,15.2l8.1,21c0,0,3,48.4-74.6,60.6c0,0-40.5,55.8-100.2-4.4c0,0-37-60.4,29.3-87L56.8,80.8z"/>
	<g>
		<g>
			<path class="st0" d="M105.7,207.6c1.7-0.3,3.1-1.3,4.6-2.2c6.1-3.7,11.2-8.3,14.6-14.6c1.6-0.2,3.3-0.3,4.9-0.5
				c14.1-1.8,27-6.9,38.9-14.4c9-5.7,16.9-12.5,22.6-21.6c5.3-8.6,7.3-17.9,5.3-28c-0.2-1.1-0.7-2-1.9-2.3c-1.1-0.2-2.1,0.1-2.9,0.9
				c-0.9,0.9-0.7,2-0.5,3.1c1,5,0.7,9.8-0.7,14.7c-2.6,8.5-7.9,15.2-14.5,20.8c-13.2,11.3-28.4,18.4-45.6,21.1
				c-11.9,1.8-23.6,0.7-34.7-4.4c-1.4-0.7-2.9-1.3-4.1-2.3c-0.6-0.5-1.2-1-0.5-1.9c1-1.3,1-2.6-0.1-3.7c-1-1.1-2.6-1-4,0.1
				c-2.1,1.6-4.4,3.2-6.6,4.6c-6.9,4.3-14.3,7.5-22.2,9.4c-1-1.2-1.7-2.6-2.3-4c1.8-2.3,3.5-4.6,4.7-7.3c2.8-6.6,2.2-13.2,0.4-19.9
				c-1.7-6.3-4.5-12.1-6.6-18.3c-3.4-9.9-4.9-19.9-3.3-30.3c2-12.9,7.9-23.9,17.4-32.9c10.9-10.3,23.8-16.2,38.9-16.9
				c7-0.3,13.8,0.3,20.7,1.4c8.1,1.3,16.1,3,23.6,6.3c2.9,1.2,5.4,2.9,7.5,5.3c0.6,0.7,0.7,1.2,0.3,2c-0.9,1.9-1.5,3.9-1.9,5.9
				c-0.1,0.6-0.2,1.1-0.9,1.2c-1.1,0.2-1.7,0.9-2.3,1.8c-6.9,10-8.9,20.9-5.9,32.6c0.3,1.2,0.2,2.2-0.3,3.3
				c-2.5,5.1-4.7,10.3-6.5,15.7c-0.8,2.2,0.9,4,3.2,3.5c1.2-0.3,1.8-1.1,2.2-2.3c2.2-6.6,5-12.9,8.3-19c0.2-0.4,0.2-1.2,1.2-1
				c5.6,1.5,11.2,1.5,16.8,0.4c12.4-2.3,22-8.7,29-19.1c1.3-2,0.5-3.9-1.8-4.6c-0.9-0.2-1.8-0.3-2.8-0.9c4.7-1.3,9.2-1,13.6,0.3
				c2.4,0.7,3.9-0.3,4-2.8c0.1-1.6,0.2-3.2,0.4-4.8c1.8-14.9,7.3-28.3,16.5-40.2c1-1.2,1.4-2.5,0.7-4c-0.8-1.4-2.2-1.3-3.5-1.2
				c-3.8,0.3-7.7,0.5-11.5,0.9c-11.2,1.3-22,3.9-32.2,9c-8.8,4.4-16.5,10.1-22.3,18.1c-0.4,0.5-0.6,0.8-1.2,0.2
				c-4.7-4.6-10.5-7.1-16.7-8.8c-8.5-2.4-17.2-3.7-25.9-4.6c-7.5-0.7-15-1-22.3,0.8C71.7,58.8,54,73.7,46.7,99.7
				c-6.7-0.5-12.5,1.8-17.8,5.7c-5.4,4-9.6,9.2-12.9,15c-2.2,3.7-4.1,7.6-5.1,11.9c-0.6,2.2-1.8,4.2-2.3,6.4
				c-0.4,0.2-0.5,0.6-0.6,0.9c-2.3,5.9-3.7,12-4.6,18.3c-1.2,7.8-0.4,15.5,2.2,22.8c3.8,10.9,10.6,19.5,20.8,25.2
				c3.3,1.9,6.8,3.5,10.6,4.4c1.5,0.6,3.1,1.1,4.6,1.7c11.2,4.9,22.9,6.5,35,5.3C87.1,216.4,96.6,212.6,105.7,207.6z M111.4,120.3
				c4.3,0,8.7,0,13,0c3,0,4.7-3,3.1-5.6c-0.8-1.4-2.1-1.7-3.5-1.7c-7,0.1-14.1-0.1-21.1-0.5c-6.4-0.3-12.8-0.7-19.2-1.4
				c-1.5-0.2-2.9,0.1-3.6,1.6c-0.7,1.4-0.4,3.3,0.7,4.5c0.8,0.8,1.7,1.1,2.8,1.2C92.9,119.3,102.1,119.9,111.4,120.3z M112.7,139
				c6.7,0.2,13.5,0.5,20.2,0.7c2.4,0.1,3.7-1.2,3.8-3.4c0.1-2.3-1.3-3.8-3.7-3.9c-13.6-0.4-27.1-0.9-40.7-1.3
				c-2.5-0.1-3.8,1-3.9,3.2c-0.1,2.4,1.2,4,3.7,4.1C99,138.6,105.9,138.8,112.7,139z"/>
			<path class="st1" d="M46.7,99.7C54,73.7,71.7,58.8,97.2,52.5c7.3-1.8,14.9-1.6,22.3-0.8c8.8,0.9,17.5,2.2,25.9,4.6
				c6.2,1.8,12,4.2,16.7,8.8c0.6,0.6,0.9,0.3,1.2-0.2c5.9-8,13.6-13.7,22.3-18.1c10.1-5.1,21-7.8,32.2-9c3.8-0.4,7.7-0.7,11.5-0.9
				c1.3-0.1,2.7-0.2,3.5,1.2c0.8,1.4,0.3,2.7-0.7,4c-9.2,11.9-14.6,25.3-16.5,40.2c-0.2,1.6-0.3,3.2-0.4,4.8c-0.2,2.5-1.6,3.5-4,2.8
				c-4.4-1.3-8.9-1.6-13.6-0.3c1,0.6,2,0.6,2.8,0.9c2.3,0.7,3.1,2.6,1.8,4.6c-7,10.5-16.7,16.9-29,19.1c-5.6,1-11.3,1-16.8-0.4
				c-1-0.3-0.9,0.5-1.2,1c-3.2,6.1-6,12.4-8.3,19c-0.4,1.1-0.9,2-2.2,2.3c-2.3,0.5-3.9-1.3-3.2-3.5c1.8-5.4,3.9-10.6,6.5-15.7
				c0.5-1.1,0.6-2.1,0.3-3.3c-3-11.8-1.1-22.6,5.9-32.6c0.6-0.8,1.2-1.6,2.3-1.8c0.7-0.1,0.8-0.6,0.9-1.2c0.4-2.1,1-4.1,1.9-5.9
				c0.4-0.8,0.3-1.4-0.3-2c-2.1-2.4-4.6-4.1-7.5-5.3c-7.6-3.2-15.6-5-23.6-6.3c-6.8-1.1-13.7-1.7-20.7-1.4
				c-15.1,0.7-28,6.6-38.9,16.9c-9.5,9-15.4,19.9-17.4,32.9c-1.6,10.4-0.1,20.5,3.3,30.3c2.1,6.1,4.9,12,6.6,18.3
				c1.8,6.7,2.4,13.3-0.4,19.9c-1.2,2.7-2.9,5-4.7,7.3c-1.7,1.5-3.3,2.9-5,4.4c-0.5,0.3-1.1,0.6-1.5,1.3c0.9-0.1,1.6,0,2.2-0.4
				c2.3-0.2,4.4-0.7,6.6-1.4c7.9-1.9,15.3-5.1,22.2-9.4c2.3-1.4,4.5-2.9,6.6-4.6c1.5-1.1,3-1.2,4-0.1c1.1,1.2,1.1,2.4,0.1,3.7
				c-0.7,0.9,0,1.4,0.5,1.9c1.2,1.1,2.7,1.7,4.1,2.3c11.1,5.1,22.7,6.2,34.7,4.4c17.2-2.7,32.4-9.8,45.6-21.1
				c6.6-5.7,11.9-12.3,14.5-20.8c1.5-4.8,1.7-9.7,0.7-14.7c-0.2-1.1-0.4-2.2,0.5-3.1c0.8-0.8,1.8-1.2,2.9-0.9
				c1.2,0.3,1.6,1.2,1.9,2.3c2,10,0,19.3-5.3,28c-5.7,9.1-13.6,15.9-22.6,21.6c-12,7.5-24.9,12.6-38.9,14.4
				c-1.6,0.2-3.3,0.3-4.9,0.5c-1.5,0-3.1-0.1-4.6,0.2c-0.8-0.1-1.6-0.2-2.4-0.2c-9.9-0.2-19.3-2.5-27.9-7.3c-1.1-1-2.5-1.8-3.3-3.1
				c-0.4-0.6-0.8-0.4-1.2-0.1c-2.6,1.8-5.3,3.2-8,4.8c-0.3,0.1-0.6,0.1-0.7,0.4c0,0,0,0,0,0c-3.4,1.4-6.8,2.9-10.2,4.3
				c-0.7,0-1.3,0.3-1.8,0.6c-0.7,0.2-1.4,0.3-2.1,0.5c-8.6,2.5-17.3,3.7-26.2,3.5c-1.9-0.1-3.1-1.1-2.9-2.8c0.1-1.3,0.9-2.2,2.1-2.7
				c3.2-1.3,6.5-2.7,9.4-4.7c1.8-0.9,3.4-2.2,4.9-3.6c4.2-3.9,6.9-8.5,7-14.3c0.4-3-0.1-6-0.8-8.9c-1-3.9-2.1-7.7-4.1-11.3l0,0
				c0-0.8-0.3-1.4-0.7-2l0,0c-0.1-0.3,0-0.6-0.3-0.8c-1.3-3.9-3-7.6-4-11.6c-1.6-6.4-2.1-13-2-19.6c0.5-3.6,1-7.2,1.4-10.9
				C46.5,100.7,46.6,100.2,46.7,99.7z M179.3,74.1c0.3,0,0.4-0.1,0.3-0.3l0,0c0.4,0.2,0.5-0.1,0.7-0.3l0,0c0.7-0.3,1.1-0.8,1.6-1.3
				c0,0,0,0,0,0c0.1-0.1,0.2-0.2,0.3-0.3c1.1-0.3,1.5-1.5,2.3-2.1c1.7-1.2,3.3-2.4,5-3.6c3.2-2.4,6.4-4.9,10-6.8
				c0.7,0,1.3,0.1,2,0.4c1.8,2.2,1.6,3.7-0.6,5.2c-12.1,7.8-22.6,17.3-31.6,28.5c-3.7,4.5-7,9.3-10.1,14.3c-0.5,0.8-0.5,1.1,0.6,1.3
				c2,0.3,4.1,0.6,6.1,0.5c10.7-0.3,19.9-4.1,27.4-11.9c0.8-0.8,1.7-1.6,2.2-2.8c-2.3-0.6-4.4-1.2-6.6-1.7c-1.3-0.3-2.2-0.9-2.4-2.3
				c-0.2-1.3,0.4-2.3,1.6-3c6.3-3.8,13.1-5.3,20.4-4.2c1.4,0.2,1.9,0,2-1.5c1.1-10.6,4.2-20.6,9.1-30.1c1.6-3.2,3.5-6.2,5.5-9.3
				c-2.2,0-4.2,0.2-6.1,0.6c-8.3,0.8-16.3,2.6-24,5.6c-1.3,0.6-2.7,0.9-3.9,1.8c-0.2,0-0.5,0-0.6,0.1c-5.7,2.6-11,5.8-15.5,10.2
				c-0.4,0-0.8,0.1-0.7,0.6l0,0c-0.3-0.1-0.5,0-0.4,0.4l0,0c-0.4-0.2-0.5,0.2-0.7,0.4c0,0,0,0,0,0c-0.1,0.1-0.2,0.2-0.4,0.3l0,0
				c-0.2,0-0.3,0.1-0.3,0.3l0,0c-0.2,0-0.3,0.1-0.3,0.3l0,0c-0.2,0-0.3,0.1-0.3,0.3l0,0c-0.2,0-0.3,0.1-0.3,0.4l0,0
				c-0.2,0-0.3,0.1-0.3,0.3c-1.8,2.2-3.9,4.2-5.3,6.7c-2.1,3.9-3.5,7.9-3.3,12.4c-0.2,1.2,0.1,2.3,0.3,3.4c0.4,1.7,0,2.9-1.5,3.7
				c-1.5,0.7-2.6,0.1-3.5-1.1c-0.2-0.7-0.4-1.4-1.1-1.9c-1.4,2.3-2.3,4.7-3,7.2c-1.2,4.1-1.4,8.2-0.8,12.5c0.2-1,1.1-1.2,1.5-1.9
				c5.7-9.5,12.3-18.2,20.2-25.9c0.3-0.3,0.5-0.7,0.8-1c0.1-0.1,0.2-0.3,0.3-0.4c0,0,0,0,0,0c0.1-0.1,0.2-0.2,0.3-0.3c0,0,0,0,0,0
				c0.1-0.1,0.2-0.2,0.3-0.4c0,0,0,0,0,0c0.1-0.1,0.2-0.2,0.4-0.4c0,0,0,0,0,0c0.1-0.1,0.2-0.2,0.4-0.4l0,0c0.2,0,0.3-0.1,0.4-0.4
				l0,0c0.2,0,0.4-0.1,0.4-0.4l0,0c0.2,0,0.4-0.1,0.4-0.4l0,0c0.2,0,0.4-0.1,0.3-0.4l0,0c0.2,0,0.4-0.1,0.3-0.3l0,0
				c0.2,0,0.4-0.1,0.3-0.3l0,0C179.3,74.5,179.4,74.3,179.3,74.1L179.3,74.1z"/>
			<path class="st2" d="M89.9,183.4c8.7,4.9,18,7.1,27.9,7.3c0.8,0,1.6,0.2,2.4,0.2c-0.1,1.8-0.8,3.4-1.7,4.9c-1.8,3-4.6,5-7.2,7.3
				c-1.8,1.6-4,2.7-5.6,4.4c-9.1,5-18.6,8.8-29,9.8c-12.1,1.2-23.8-0.4-35-5.3c-1.5-0.7-3.1-1.2-4.6-1.7c-0.2-0.6-0.8-0.8-1.2-1.1
				c-6.3-3.6-11.9-8.1-16.5-13.7c-3-3.6-5.8-7.5-7.8-11.8c-2.8-6.1-4.5-12.4-5-19.1c-0.5-5.7-0.3-11.4,0.6-17c0.5-3,1.1-6,1.6-9
				c0.4-2.3,1.7-4.2,2.3-6.4c0.5-0.1,0.6-0.6,0.8-0.9c4.6-8.5,10.5-15.9,18.2-21.8c4.9-3.7,10.2-6.8,16.3-8.4
				c-0.5,3.6-1,7.2-1.4,10.9c-3,2.4-5.2,5.6-6.6,9.1c-5.2,12.7-8.8,25.7-7.6,39.6c0.4,4.2,1.6,8.3,3.7,12c2.6,4.7,6.3,8.3,10.5,11.3
				c-2.9,2.1-6.1,3.4-9.4,4.7c-1.3,0.5-2,1.4-2.1,2.7c-0.2,1.6,1,2.7,2.9,2.8c8.9,0.3,17.7-0.9,26.2-3.5c0.7-0.2,1.4-0.4,2.1-0.5
				c5.9,0.3,11.7-0.5,17.2-2.6C84.6,186.6,87.5,185.4,89.9,183.4z"/>
			<path class="st1" d="M111.4,120.3c-9.3-0.5-18.5-1-27.8-1.9c-1.1-0.1-2-0.4-2.8-1.2c-1.1-1.1-1.4-3.1-0.7-4.5
				c0.8-1.5,2.1-1.8,3.6-1.6c6.4,0.7,12.8,1.1,19.2,1.4c7,0.4,14.1,0.6,21.1,0.5c1.5,0,2.7,0.3,3.5,1.7c1.5,2.6-0.1,5.6-3.1,5.6
				C120.1,120.3,115.8,120.3,111.4,120.3z"/>
			<path class="st1" d="M112.7,139c-6.9-0.2-13.7-0.4-20.6-0.6c-2.5-0.1-3.8-1.6-3.7-4.1c0.1-2.1,1.4-3.3,3.9-3.2
				c13.6,0.4,27.1,0.9,40.7,1.3c2.4,0.1,3.8,1.6,3.7,3.9c-0.1,2.2-1.4,3.4-3.8,3.4C126.2,139.5,119.5,139.3,112.7,139z"/>
			<path class="st3" d="M8.7,138.7c-0.5,3-1.2,6-1.6,9c-0.9,5.7-1.1,11.3-0.6,17c0.6,6.7,2.2,13.1,5,19.1c2,4.3,4.7,8.1,7.8,11.8
				c4.7,5.6,10.2,10.1,16.5,13.7c0.4,0.3,1,0.4,1.2,1.1c-3.8-0.9-7.2-2.5-10.6-4.4c-10.1-5.7-17-14.3-20.8-25.2
				c-2.6-7.4-3.3-15-2.2-22.8c0.9-6.3,2.3-12.4,4.6-18.3C8.3,139.3,8.3,138.9,8.7,138.7z"/>
			<path class="st3" d="M46.3,101.2c-6,1.6-11.3,4.6-16.3,8.4c-7.7,5.9-13.6,13.3-18.2,21.8c-0.2,0.4-0.3,0.8-0.8,0.9
				c1-4.3,2.9-8.1,5.1-11.9c3.3-5.8,7.5-11,12.9-15c5.3-3.9,11.1-6.2,17.8-5.7C46.6,100.2,46.5,100.7,46.3,101.2z"/>
			<path class="st3" d="M105.7,207.6c1.7-1.7,3.9-2.8,5.6-4.4c2.5-2.3,5.3-4.4,7.2-7.3c0.9-1.5,1.6-3.1,1.7-4.9
				c1.5-0.3,3.1-0.3,4.6-0.2c-3.4,6.3-8.5,11-14.6,14.6C108.8,206.2,107.5,207.3,105.7,207.6z"/>
			<path class="st3" d="M58.1,186.3c-2.2,0.6-4.3,1.2-6.6,1.4c-0.2-0.3-0.7-0.4-0.7-0.9c1.7-1.5,3.3-2.9,5-4.4
				C56.4,183.8,57.2,185.1,58.1,186.3z"/>
			<path class="st3" d="M44.9,184.1c-4.3-3.1-8-6.7-10.5-11.3c-2.1-3.8-3.3-7.8-3.7-12c-1.2-13.9,2.4-26.9,7.6-39.6
				c1.4-3.5,3.6-6.7,6.6-9.1c-0.1,6.6,0.4,13.2,2,19.6c1,4,2.6,7.8,4,11.6c0.2,0.3,0,0.7,0.3,0.8c0,0,0,0,0,0c0.1,0.7,0,1.5,0.7,2
				c0,0,0,0,0,0c-0.1,1.7,0.7,3.3,1.2,4.9c1.5,5,3.3,10,3.8,15.2c-0.1,5.9-2.8,10.5-7,14.3C48.4,181.9,46.8,183.2,44.9,184.1z"/>
			<path class="st0" d="M218.8,43.2c1.9-0.4,3.9-0.6,6.1-0.6c-2,3.1-3.9,6.1-5.5,9.3c-4.9,9.5-8,19.5-9.1,30.1
				c-0.2,1.5-0.6,1.7-2,1.5c-7.3-1.1-14.1,0.3-20.4,4.2c-1.1,0.7-1.7,1.7-1.6,3c0.2,1.4,1.1,2,2.4,2.3c2.2,0.5,4.4,1.1,6.6,1.7
				c-0.4,1.2-1.4,2-2.2,2.8c-7.5,7.7-16.7,11.6-27.4,11.9c-2,0.1-4.1-0.2-6.1-0.5c-1.1-0.2-1.1-0.5-0.6-1.3c3.1-5,6.4-9.7,10.1-14.3
				c9-11.2,19.5-20.7,31.6-28.5c2.3-1.5,2.4-2.9,0.6-5.2c0.6-0.2,1.1-0.5,1.7-0.7c3.6-1.3,7.2-2.6,10.8-3.9c2.1-0.8,2.8-1.9,2.7-4
				c0-1.8,0.9-3.3,1.5-4.8C218.7,45.2,219.2,44.3,218.8,43.2z"/>
			<path class="st3" d="M89.9,183.4c-2.4,2-5.2,3.2-8.1,4.3c-5.5,2.1-11.3,3-17.2,2.6c0.6-0.4,1.2-0.6,1.8-0.6
				c3.4-0.2,6.6-1.2,9.4-3.2c0.4-0.3,0.9-0.5,0.8-1.1c0,0,0,0,0,0c0.3,0,0.6-0.1,0.7-0.4c2.7-1.6,5.5-3,8-4.8
				c0.4-0.3,0.8-0.5,1.2,0.1C87.3,181.6,88.7,182.4,89.9,183.4z"/>
			<path class="st0" d="M56.8,166.2c-0.5-5.3-2.3-10.2-3.8-15.2c-0.5-1.6-1.2-3.2-1.2-4.9c2,3.5,3.1,7.4,4.1,11.3
				C56.7,160.2,57.3,163.2,56.8,166.2z"/>
			<path class="st0" d="M76.6,185.3c0.1,0.6-0.4,0.8-0.8,1.1c-2.8,2-6,3-9.4,3.2C69.8,188.2,73.2,186.8,76.6,185.3z"/>
			<path class="st4" d="M157.8,89.2c-1.2,1.3-2.1,2.9-3.1,4.3c-0.3,0.4-0.4,0.9-1,1c0.7-2.5,1.6-4.9,3-7.2
				C157.4,87.8,157.7,88.5,157.8,89.2z"/>
			<path class="st0" d="M194.8,48.8c-0.1,0.9-0.5,1.8-0.2,2.8c0.2,0.6-0.3,0.7-0.6,1c-0.5,0.3-0.7-0.1-0.9-0.4
				c-0.5-0.8-1.1-1.5-2.2-1.5C192.1,49.7,193.5,49.3,194.8,48.8z"/>
			<path class="st2" d="M50.8,186.8c0,0.5,0.5,0.6,0.7,0.9c-0.6,0.4-1.4,0.3-2.2,0.4C49.7,187.3,50.3,187.1,50.8,186.8z"/>
			<path class="st0" d="M51.9,146.1c-0.7-0.5-0.6-1.3-0.7-2C51.6,144.7,51.9,145.3,51.9,146.1z"/>
			<path class="st0" d="M51.2,144.1c-0.4-0.2-0.2-0.6-0.3-0.8C51.2,143.5,51.2,143.8,51.2,144.1z"/>
			<path class="st0" d="M77.3,185c-0.1,0.4-0.4,0.4-0.7,0.4C76.7,185.1,77,185.1,77.3,185z"/>
			<path class="st4" d="M218.8,43.2c-8.3,0.8-16.3,2.6-24,5.6c-0.1,0.9-0.5,1.8-0.2,2.8c0.2,0.6-0.3,0.7-0.6,1
				c-0.5,0.3-0.7-0.1-0.9-0.4c-0.5-0.8-1.1-1.5-2.2-1.5c-0.2,0-0.5,0-0.6,0.1c-5.7,2.6-11,5.8-15.5,10.2c-0.4,0-0.7,0.1-0.7,0.6
				c-0.3-0.1-0.4,0-0.3,0.3c-0.4-0.2-0.5,0.2-0.6,0.4c0,0,0,0,0,0c-0.1,0.1-0.2,0.2-0.3,0.3c0,0,0,0,0,0c-0.2,0-0.3,0.1-0.3,0.3
				c-0.2,0-0.3,0.1-0.3,0.3c-0.2,0-0.3,0.1-0.3,0.3c-0.2,0-0.3,0.1-0.3,0.3c-0.2,0-0.3,0.1-0.3,0.3c-1.8,2.2-3.9,4.2-5.3,6.7
				c-2.1,3.9-3.5,7.9-3.3,12.4c2.7-2.4,5.1-5.1,7.9-7.5c6.6-5.7,13.9-10.5,21.4-14.9c1.3-0.8,2.7-1.5,4-2.2c1.3-0.7,2.6-0.8,3.7,0.5
				c0.7,0,1.3,0.1,2,0.4c0.6-0.2,1.1-0.5,1.7-0.7c3.6-1.3,7.2-2.6,10.8-3.9c2.1-0.8,2.8-1.9,2.7-4c0-1.8,0.9-3.3,1.5-4.8
				C218.7,45.2,219.2,44.3,218.8,43.2z"/>
			<path class="st5" d="M195.9,58.6c-1.4,0.7-2.7,1.5-4,2.2c-7.5,4.4-14.8,9.2-21.4,14.9c-2.8,2.4-5.1,5.1-7.9,7.5
				c-0.2,1.2,0.1,2.3,0.3,3.4c0.4,1.7,0,2.9-1.5,3.7c-1.5,0.7-2.6,0.1-3.5-1.1c-1.2,1.3-2.1,2.9-3.1,4.3c-0.3,0.4-0.4,0.9-1,1
				c-1.2,4.1-1.4,8.2-0.8,12.5c0.2-1,1.1-1.2,1.5-1.9c5.7-9.5,12.3-18.2,20.2-25.9c0.3-0.3,0.5-0.7,0.8-1c0.1-0.1,0.2-0.3,0.3-0.4
				c0,0,0,0,0,0c0.1-0.1,0.2-0.2,0.3-0.3c0,0,0,0,0,0c0.1-0.1,0.2-0.2,0.3-0.4c0,0,0,0,0,0c0.1-0.1,0.2-0.2,0.3-0.3c0,0,0,0,0,0
				c0,0,0,0,0,0l0,0l0,0c0.1-0.1,0.2-0.2,0.3-0.3c0,0,0,0,0,0c0.2,0,0.3-0.1,0.3-0.3c0.2,0,0.3-0.1,0.3-0.3c0.2,0,0.3-0.1,0.3-0.3
				c0.2,0,0.3-0.1,0.3-0.3c0.2,0,0.3-0.1,0.3-0.3c0.2,0,0.4-0.1,0.3-0.3c0.3,0,0.4-0.1,0.3-0.3c0.2,0,0.4-0.1,0.3-0.3
				c0.3,0.1,0.5-0.1,0.7-0.3c0.7-0.3,1.1-0.8,1.6-1.3c0,0,0,0,0,0c0.1-0.1,0.2-0.2,0.3-0.3c1.1-0.3,1.5-1.5,2.3-2.1
				c1.7-1.2,3.3-2.4,5-3.6c3.2-2.4,6.4-4.9,10-6.8C198.5,57.8,197.2,57.9,195.9,58.6z"/>
		</g>
		<g>
			<path class="st6" d="M68.3,214c-15.1-0.4-29.2-3.8-41.2-13.6c-11.6-9.5-17.9-22-20-36.8c-1.2-8.9-2.1-17.9-0.1-26.8
				c0.3-1.3,0.7-2.6,1.1-3.9c0.3-1.1,0.6-2.3,2.2-2c1.8,0.4,1,1.8,0.7,2.7c-3.7,13.2-2.6,26.2,1.3,39c6.3,21,21.3,32.6,42.5,37
				c7.2,1.5,14.5,1.6,21.9,1.4c1.2-0.1,3.1-0.9,3.1,1.4c0.1,2.1-1.9,1.6-3.1,1.6C73.9,214.1,71,214,68.3,214z"/>
		</g>
	</g>
</g>
</svg>
