<?xml version="1.0" encoding="UTF-8" standalone="no"?>
<!-- Created with Inkscape (http://www.inkscape.org/) -->

<svg
   xmlns:dc="http://purl.org/dc/elements/1.1/"
   xmlns:cc="http://creativecommons.org/ns#"
   xmlns:rdf="http://www.w3.org/1999/02/22-rdf-syntax-ns#"
   xmlns:svg="http://www.w3.org/2000/svg"
   xmlns="http://www.w3.org/2000/svg"
   xmlns:sodipodi="http://sodipodi.sourceforge.net/DTD/sodipodi-0.dtd"
   xmlns:inkscape="http://www.inkscape.org/namespaces/inkscape"
   width="150"
   height="127.03979"
   viewBox="0 0 39.6875 33.612613"
   version="1.1"
   id="svg8112"
   inkscape:version="0.92.1 r15371"
   sodipodi:docname="blog.svg">
  <defs
     id="defs8106" />
  <sodipodi:namedview
     id="base"
     pagecolor="#ffffff"
     bordercolor="#666666"
     borderopacity="1.0"
     inkscape:pageopacity="0.0"
     inkscape:pageshadow="2"
     inkscape:zoom="1.979899"
     inkscape:cx="-45.06877"
     inkscape:cy="-11.935133"
     inkscape:document-units="px"
     inkscape:current-layer="layer1"
     showgrid="false"
     fit-margin-top="10"
     units="px"
     fit-margin-left="10"
     fit-margin-right="10"
     fit-margin-bottom="10"
     inkscape:window-width="1366"
     inkscape:window-height="709"
     inkscape:window-x="0"
     inkscape:window-y="0"
     inkscape:window-maximized="1" />
  <metadata
     id="metadata8109">
    <rdf:RDF>
      <cc:Work
         rdf:about="">
        <dc:format>image/svg+xml</dc:format>
        <dc:type
           rdf:resource="http://purl.org/dc/dcmitype/StillImage" />
        <dc:title></dc:title>
      </cc:Work>
    </rdf:RDF>
  </metadata>
  <g
     inkscape:label="Capa 1"
     inkscape:groupmode="layer"
     id="layer1"
     transform="translate(-180.37939,-36.464193)">
    <g
       transform="matrix(0.67724313,0,0,0.67724313,-13.239843,-678.65124)"
       id="g1192"
       style="stroke-width:0.39067703">
      <g
         id="g1180"
         style="stroke-width:0.39067703">
        <circle
           style="fill:#8ed3f1;stroke-width:0.39067703"
           cx="303.63"
           cy="1087.816"
           r="13.83"
           id="circle1156" />
        <g
           id="g1178"
           style="stroke-width:0.39067703">
          <g
             id="g1162"
             style="stroke-width:0.39067703">
            <path
               style="fill:#ffffff;stroke-width:0.39067703"
               inkscape:connector-curvature="0"
               d="m 331.724,1080.026 c 0,8.636 -7.94,15.636 -17.734,15.636 -2.706,0 -5.261,-0.546 -7.554,-1.503 -0.257,-0.107 -0.55,-0.07 -0.776,0.093 -3.201,2.315 -6.038,2.938 -7.909,3.04 -0.737,0.039 -1.099,-0.835 -0.599,-1.377 1.415,-1.533 2.271,-4.001 2.755,-5.908 0.063,-0.249 -0.006,-0.505 -0.171,-0.702 -2.18,-2.597 -3.48,-5.801 -3.48,-9.278 0,-8.636 7.94,-15.636 17.735,-15.636 2.685,0 5.23,0.525 7.511,1.468"
               id="path1158" />
            <path
               inkscape:connector-curvature="0"
               d="m 297.7,1098.043 c -0.6,0 -1.124,-0.329 -1.38,-0.875 -0.276,-0.587 -0.167,-1.278 0.28,-1.762 1.324,-1.435 2.133,-3.828 2.58,-5.584 -2.411,-2.884 -3.675,-6.259 -3.675,-9.796 0,-9.035 8.292,-16.386 18.484,-16.386 2.724,0 5.348,0.513 7.798,1.524 0.383,0.158 0.565,0.597 0.407,0.979 -0.159,0.383 -0.597,0.564 -0.979,0.406 -2.268,-0.936 -4.699,-1.41 -7.226,-1.41 -9.365,0 -16.984,6.678 -16.984,14.886 0,3.18 1.143,6.222 3.304,8.796 0.328,0.391 0.446,0.889 0.324,1.369 -0.489,1.924 -1.394,4.566 -2.931,6.232 l -0.017,0.118 c 1.751,-0.093 4.456,-0.671 7.534,-2.897 0.442,-0.319 1.005,-0.386 1.504,-0.178 2.299,0.959 4.744,1.445 7.265,1.445 9.366,0 16.985,-6.678 16.985,-14.886 0,-0.414 0.335,-0.75 0.75,-0.75 0.414,0 0.75,0.336 0.75,0.75 0,9.035 -8.292,16.386 -18.485,16.386 -2.721,0 -5.359,-0.525 -7.842,-1.561 -3.422,2.448 -6.429,3.085 -8.357,3.188 -0.029,0 -0.059,0.01 -0.089,0.01 z"
               id="path1160"
               style="stroke-width:0.39067703" />
          </g>
          <g
             id="g1172"
             style="stroke-width:0.39067703">
            <g
               id="g1168"
               style="stroke-width:0.39067703">
              <path
                 style="fill:#ffffff;stroke-width:0.39067703"
                 inkscape:connector-curvature="0"
                 d="m 321.087,1078.576 c 0.375,-0.25 -1.625,-4.5 0.5,-7 l 1.125,0.125 c 0,0 -2.875,-8.25 17.125,-11.125 0,0 -5.25,8 -5.875,11.375 l -3.5,1.75 2.125,1 c 0,0 -4.75,4.5 -10.375,4.375 z"
                 id="path1164" />
              <path
                 inkscape:connector-curvature="0"
                 d="m 322.445,1079.829 c -0.083,0 -0.167,-10e-4 -0.25,0 -0.1,0 -0.198,-0.023 -0.288,-0.064 l -0.939,-0.435 c -0.25,-0.11 -0.086,0.054 -0.109,-0.22 -0.009,-0.105 0.021,-0.672 0.055,-0.769 -0.021,-0.151 -0.618,-0.434 -0.669,-0.665 -0.345,-1.578 -0.986,-4.516 0.771,-6.583 0.161,-0.189 0.406,-0.288 0.654,-0.26 l 0.156,0.018 c -0.037,-0.849 0.112,-2.108 0.959,-3.5 2.245,-3.692 7.947,-6.221 16.946,-7.515 0.291,-0.043 0.581,0.091 0.74,0.34 0.158,0.249 0.156,0.567 -0.006,0.814 -0.051,0.078 -5.174,7.912 -5.764,11.1 -0.043,0.231 -0.191,0.43 -0.402,0.534 l -2.118,1.06 0.726,0.342 c 0.225,0.105 0.382,0.314 0.421,0.56 0.04,0.244 -0.044,0.493 -0.225,0.663 -0.201,0.19 -4.905,4.583 -10.658,4.583 z m -0.069,-1.5 c 3.89,0.021 7.282,-2.247 8.829,-3.448 l -1.063,-0.501 c -0.26,-0.122 -0.427,-0.382 -0.43,-0.669 -0.003,-0.287 0.158,-0.552 0.415,-0.68 l 3.18,-1.591 c 0.68,-2.72 3.524,-7.495 5.006,-9.866 -9.344,1.58 -12.894,4.377 -14.214,6.501 -1.154,1.856 -0.695,3.325 -0.675,3.387 0.079,0.242 0.031,0.512 -0.13,0.709 -0.161,0.198 -0.412,0.306 -0.664,0.276 l -0.7,-0.078 c -0.98,1.502 -0.508,3.66 -0.219,4.984 0.061,0.276 0.115,0.523 0.145,0.744 z"
                 id="path1166"
                 style="stroke-width:0.39067703" />
            </g>
            <path
               inkscape:connector-curvature="0"
               d="m 319.586,1084.077 c -0.089,0 -0.18,-0.017 -0.268,-0.05 -0.387,-0.148 -0.58,-0.582 -0.432,-0.969 0.188,-0.489 4.693,-12.048 13.797,-17.864 0.349,-0.223 0.813,-0.12 1.036,0.229 0.223,0.349 0.121,0.812 -0.228,1.036 -8.681,5.545 -13.159,17.021 -13.204,17.136 -0.115,0.299 -0.399,0.482 -0.701,0.482 z"
               id="path1170"
               style="stroke-width:0.39067703" />
          </g>
          <path
             inkscape:connector-curvature="0"
             d="m 314.961,1079.868 h -9 c -0.415,0 -0.75,-0.336 -0.75,-0.75 0,-0.414 0.335,-0.75 0.75,-0.75 h 9 c 0.414,0 0.75,0.336 0.75,0.75 0,0.414 -0.336,0.75 -0.75,0.75 z"
             id="path1174"
             style="stroke-width:0.39067703" />
          <path
             inkscape:connector-curvature="0"
             d="m 319.295,1084.035 h -13.333 c -0.415,0 -0.75,-0.336 -0.75,-0.75 0,-0.414 0.335,-0.75 0.75,-0.75 h 13.333 c 0.415,0 0.75,0.336 0.75,0.75 0,0.414 -0.336,0.75 -0.75,0.75 z"
             id="path1176"
             style="stroke-width:0.39067703" />
        </g>
      </g>
      <g
         id="g1186"
         style="stroke-width:0.39067703">
        <path
           style="fill:#ffffff;stroke-width:0.39067703"
           inkscape:connector-curvature="0"
           d="m 332.754,1079.192 c 1.233,1.782 -0.682,3.751 -2.498,2.567 -0.088,-0.058 -0.168,-0.135 -0.228,-0.222 -1.234,-1.782 0.682,-3.751 2.498,-2.567 0.088,0.058 0.168,0.135 0.228,0.222 z"
           id="path1182" />
        <path
           inkscape:connector-curvature="0"
           d="m 331.425,1082.84 c -1.363,0.019 -2.489,-1.076 -2.508,-2.44 -0.019,-1.364 1.076,-2.49 2.439,-2.509 1.365,-0.02 2.491,1.076 2.51,2.439 0.019,1.365 -1.075,2.49 -2.441,2.51 z m -0.049,-3.509 c -0.57,0.01 -1.027,0.479 -1.019,1.048 0.008,0.57 0.478,1.028 1.047,1.021 0.57,-0.01 1.029,-0.479 1.021,-1.049 -0.007,-0.571 -0.478,-1.028 -1.049,-1.02 z"
           id="path1184"
           style="stroke-width:0.39067703" />
      </g>
      <path
         style="fill:#82b945;stroke-width:0.39067703"
         inkscape:connector-curvature="0"
         d="m 322.399,1078.734 c -1.124,-0.597 1.674,-4.185 1.887,-4.938 -0.603,0.459 -1.205,0.917 -1.808,1.376 2.773,0.041 2.782,-1.77 3.283,-3.826 0.538,-2.208 3.204,-3.456 4.978,-4.544 1.858,-1.141 6.392,-5.7 8.66,-5.401 -0.315,-1.164 -1.531,0.312 -1.847,-0.853 -4.94,3.257 -12.98,6.15 -15.44,11.907 -0.938,2.195 2.292,4.108 3.238,1.894 2.165,-5.068 8.825,-10.22 13.215,-13.114 1.664,-1.098 1.048,-0.18 -0.75,-0.417 -3.729,-0.491 -7.958,2.033 -10.902,3.979 -1.372,0.907 -2.96,1.825 -3.958,3.169 -0.428,0.576 -1.843,3.437 -0.477,3.456 -0.826,-0.012 -1.586,0.592 -1.808,1.377 -0.372,1.313 -0.011,2.858 0.102,4.198 0.202,2.387 1.914,2.729 1.709,0.32 z"
         id="path1188" />
      <path
         style="fill:#e7829b;stroke-width:0.39067703"
         inkscape:connector-curvature="0"
         d="m 333.162,1080.044 c 0,-0.029 0,-0.059 0,-0.089 0,-0.98 -0.862,-1.92 -1.875,-1.875 -1.016,0.046 -1.875,0.824 -1.875,1.875 0,0.03 0,0.06 0,0.089 0,0.98 0.863,1.921 1.875,1.875 1.016,-0.046 1.875,-0.823 1.875,-1.875 z"
         id="path1190" />
    </g>
  </g>
</svg>
