<?xml version="1.0" encoding="UTF-8" standalone="no"?>
<!-- Created with Inkscape (https://www.inkscape.org/) -->

<svg
   xmlns:dc="https://purl.org/dc/elements/1.1/"
   xmlns:cc="https://creativecommons.org/ns#"
   xmlns:rdf="https://www.w3.org/1999/02/22-rdf-syntax-ns#"
   xmlns:svg="https://www.w3.org/2000/svg"
   xmlns="https://www.w3.org/2000/svg"
   xmlns:sodipodi="https://sodipodi.sourceforge.net/DTD/sodipodi-0.dtd"
   xmlns:inkscape="https://www.inkscape.org/namespaces/inkscape"
   width="150"
   height="127.03905"
   viewBox="0 0 39.6875 33.612417"
   version="1.1"
   id="svg8112"
   inkscape:version="0.92.1 r15371"
   sodipodi:docname="blog.svg">
  <defs
     id="defs8106" />
  <sodipodi:namedview
     id="base"
     pagecolor="#ffffff"
     bordercolor="#666666"
     borderopacity="1.0"
     inkscape:pageopacity="0.0"
     inkscape:pageshadow="2"
     inkscape:zoom="3.959798"
     inkscape:cx="108.48818"
     inkscape:cy="54.399644"
     inkscape:document-units="px"
     inkscape:current-layer="layer1"
     showgrid="false"
     fit-margin-top="10"
     units="px"
     fit-margin-left="10"
     fit-margin-right="10"
     fit-margin-bottom="10"
     inkscape:window-width="1920"
     inkscape:window-height="1021"
     inkscape:window-x="0"
     inkscape:window-y="0"
     inkscape:window-maximized="1" />
  <metadata
     id="metadata8109">
    <rdf:RDF>
      <cc:Work
         rdf:about="">
        <dc:format>image/svg+xml</dc:format>
        <dc:type
           rdf:resource="https://purl.org/dc/dcmitype/StillImage" />
        <dc:title />
      </cc:Work>
    </rdf:RDF>
  </metadata>
  <g
     inkscape:label="Capa 1"
     inkscape:groupmode="layer"
     id="layer1"
     transform="translate(-180.37938,-36.464384)">
    <g
       id="g4519">
      <circle
         id="circle1156"
         r="9.3662195"
         cy="58.064747"
         cx="192.39143"
         style="fill:#e7e7e8;stroke-width:0.26458335" />
      <path
         id="path1158"
         d="m 211.41778,52.789028 c 0,5.848638 -5.37728,10.589313 -12.01015,10.589313 -1.83262,0 -3.56296,-0.369772 -5.11587,-1.017891 -0.17406,-0.07247 -0.37249,-0.04741 -0.52553,0.06298 -2.16786,1.567808 -4.08918,1.989729 -5.3563,2.058808 -0.49911,0.02642 -0.74428,-0.565496 -0.40566,-0.932559 0.9583,-1.038208 1.538,-2.709635 1.86579,-4.001129 0.0427,-0.168625 -0.003,-0.342007 -0.11574,-0.475424 -1.47638,-1.75879 -2.35679,-3.928664 -2.35679,-6.283426 0,-5.848638 5.37728,-10.589313 12.01084,-10.589313 1.81839,0 3.54196,0.355551 5.08675,0.994187"
         inkscape:connector-curvature="0"
         style="fill:#ffffff;stroke-width:0.26458335" />
      <path
         style="stroke-width:0.26458335"
         id="path1160"
         d="m 188.3754,64.990848 c -0.40635,0 -0.76123,-0.222811 -0.9346,-0.592585 -0.1869,-0.39754 -0.11316,-0.865511 0.18963,-1.193295 0.89667,-0.971838 1.44456,-2.592473 1.74728,-3.781704 -1.63282,-1.953158 -2.48885,-4.238841 -2.48885,-6.634236 0,-6.118856 5.61567,-11.097243 12.51808,-11.097243 1.84481,0 3.62188,0.347423 5.28112,1.032113 0.25938,0.107005 0.38264,0.404312 0.27563,0.663017 -0.10765,0.259383 -0.4043,0.381962 -0.66301,0.274959 -1.53598,-0.633896 -3.18235,-0.954907 -4.89374,-0.954907 -6.34233,0 -11.50223,4.522603 -11.50223,10.081384 0,2.153621 0.77409,4.213782 2.23761,5.956996 0.22213,0.264802 0.30205,0.602066 0.21941,0.927141 -0.33116,1.303008 -0.94406,3.092275 -1.98497,4.220555 l -0.012,0.07992 c 1.18584,-0.06298 3.01779,-0.454428 5.10232,-1.961963 0.29934,-0.216039 0.68062,-0.261414 1.01857,-0.12054 1.55697,0.649472 3.21283,0.978611 4.92014,0.978611 6.34302,0 11.50292,-4.522603 11.50292,-10.081384 0,-0.280378 0.22687,-0.507929 0.50792,-0.507929 0.28038,0 0.50794,0.227551 0.50794,0.507929 0,6.118857 -5.61567,11.097244 -12.51878,11.097244 -1.84276,0 -3.62932,-0.355551 -5.31091,-1.057171 -2.3175,1.657882 -4.35397,2.089282 -5.65968,2.159038 -0.0196,0 -0.0399,0.0067 -0.0604,0.0067 z"
         inkscape:connector-curvature="0" />
      <path
         style="fill:#ffffff;stroke-width:0.26458335"
         inkscape:connector-curvature="0"
         d="m 204.21399,51.807031 c 0.25396,-0.169312 -1.10051,-3.047577 0.33862,-4.740675 l 0.7619,0.08465 c 0,0 -1.94707,-5.587224 11.59771,-7.534287 0,0 -3.55549,5.417915 -3.97878,7.703598 l -2.37032,1.185167 1.43913,0.677239 c 0,0 -3.21689,3.047578 -7.02636,2.962923 z"
         id="path1164" />
      <path
         style="fill:#82b945;stroke-width:0.26458335"
         inkscape:connector-curvature="0"
         d="m 205.10253,51.914034 c -0.76122,-0.404312 1.1337,-2.834245 1.27796,-3.344207 -0.40838,0.310853 -0.81608,0.621029 -1.22446,0.931881 1.87799,0.02777 1.88408,-1.198714 2.22337,-2.591118 0.36436,-1.495343 2.16989,-2.340539 3.37131,-3.077374 1.25831,-0.772731 4.32891,-3.860264 5.86489,-3.65777 -0.21333,-0.788307 -1.03686,0.2113 -1.25087,-0.577685 -3.34556,2.205768 -8.79056,4.165021 -10.45657,8.063889 -0.63525,1.48654 1.55223,2.782098 2.1929,1.282691 1.46623,-3.43225 5.97663,-6.921386 8.94972,-8.881317 1.12693,-0.743608 0.70974,-0.121898 -0.50793,-0.282409 -2.52542,-0.332523 -5.38947,1.376828 -7.38327,2.694735 -0.92916,0.614256 -2.00463,1.235963 -2.6805,2.146173 -0.28987,0.390089 -1.24815,2.327671 -0.32305,2.340539 -0.55941,-0.0081 -1.0741,0.400925 -1.22445,0.932558 -0.25193,0.889215 -0.007,1.935549 0.0691,2.843051 0.13672,1.616569 1.29623,1.848186 1.1574,0.216716 z"
         id="path1188" />
      <path
         inkscape:connector-curvature="0"
         d="m 205.13368,52.655611 c -0.0562,0 -0.11316,-6.77e-4 -0.16923,0 -0.0678,0 -0.13414,-0.01565 -0.19504,-0.04334 l -0.63592,-0.294599 c -0.1694,-0.0745 -0.0583,0.03656 -0.0738,-0.148985 -0.007,-0.07111 0.0138,-0.455106 0.0373,-0.520798 -0.0138,-0.102258 -0.41853,-0.293921 -0.45306,-0.450364 -0.23365,-1.068683 -0.66776,-3.058412 0.52214,-4.458265 0.10904,-0.128003 0.27496,-0.195045 0.44291,-0.176083 l 0.1056,0.01221 c -0.0251,-0.574974 0.0758,-1.42762 0.64947,-2.370337 1.52041,-2.500367 5.38203,-4.213105 11.4765,-5.089452 0.19707,-0.02912 0.39347,0.06162 0.50117,0.230261 0.10697,0.168625 0.10559,0.383995 -0.003,0.551273 -0.0346,0.05283 -3.50404,5.358318 -3.90362,7.517356 -0.0291,0.156448 -0.12932,0.291212 -0.27225,0.361646 l -1.43439,0.717873 0.49167,0.231615 c 0.15237,0.07111 0.25871,0.212654 0.28512,0.379255 0.027,0.165254 -0.0298,0.333878 -0.15237,0.449009 -0.13621,0.128674 -3.32186,3.103789 -7.21803,3.103789 z m -0.0468,-1.015858 c 2.63446,0.01427 4.93166,-1.521757 5.97935,-2.335121 l -0.71991,-0.339298 c -0.17607,-0.08262 -0.28918,-0.258705 -0.29121,-0.453073 -0.002,-0.194366 0.10697,-0.373836 0.28106,-0.460521 l 2.15361,-1.077489 c 0.46053,-1.842091 2.3866,-5.075908 3.39026,-6.681643 -6.32813,1.070038 -8.73231,2.964276 -9.62627,4.402733 -0.78154,1.256956 -0.47069,2.25182 -0.45714,2.293809 0.0535,0.163895 0.021,0.346747 -0.0881,0.480163 -0.10903,0.134091 -0.27902,0.207235 -0.44969,0.186918 l -0.47406,-0.05283 c -0.66369,1.017213 -0.34404,2.478696 -0.14824,3.375361 0.0413,0.186918 0.0779,0.354196 0.0982,0.503867 z"
         id="path1166"
         style="stroke-width:0.26458335" />
      <path
         style="stroke-width:0.26458335"
         id="path1170"
         d="m 203.19746,55.532524 c -0.0604,0 -0.12193,-0.01152 -0.1815,-0.03386 -0.2621,-0.100229 -0.3928,-0.394154 -0.29257,-0.656245 0.12726,-0.33117 3.17827,-8.159378 9.34386,-12.098203 0.23637,-0.151031 0.55061,-0.08126 0.70162,0.15509 0.151,0.236356 0.0819,0.549919 -0.15443,0.701621 -5.87913,3.755292 -8.91179,11.527289 -8.94227,11.605171 -0.0779,0.202496 -0.27023,0.32643 -0.47474,0.32643 z"
         inkscape:connector-curvature="0" />
      <path
         inkscape:connector-curvature="0"
         d="m 200.06522,52.682024 h -6.09515 c -0.28106,0 -0.50793,-0.227552 -0.50793,-0.507929 0,-0.280378 0.22687,-0.507929 0.50793,-0.507929 h 6.09515 c 0.28038,0 0.50794,0.227551 0.50794,0.507929 0,0.280377 -0.22756,0.507929 -0.50794,0.507929 z"
         id="path1174"
         style="stroke-width:0.26458335" />
      <path
         inkscape:connector-curvature="0"
         d="m 203.00037,55.504081 h -9.02962 c -0.28105,0 -0.50793,-0.227553 -0.50793,-0.507931 0,-0.280376 0.22688,-0.507929 0.50793,-0.507929 h 9.02962 c 0.28107,0 0.50794,0.227553 0.50794,0.507929 0,0.280378 -0.22756,0.507931 -0.50794,0.507931 z"
         id="path1176"
         style="stroke-width:0.26458335" />
      <path
         id="path1182"
         d="m 212.11534,52.224211 c 0.83504,1.206839 -0.46188,2.540324 -1.69173,1.738472 -0.0597,-0.03928 -0.11385,-0.09142 -0.15444,-0.150343 -0.83571,-1.20684 0.46188,-2.540324 1.69175,-1.738474 0.0595,0.03928 0.11368,0.09142 0.15444,0.150343 z"
         inkscape:connector-curvature="0"
         style="fill:#ffffff;stroke-width:0.26458335" />
      <path
         style="fill:#e7829b;stroke-width:0.26458335"
         inkscape:connector-curvature="0"
         d="m 212.47518,53.085192 c 0,-0.01964 0,-0.03995 0,-0.06028 0,-0.663695 -0.58378,-1.3003 -1.26982,-1.269823 -0.68809,0.03115 -1.26984,0.558045 -1.26984,1.269823 0,0.02031 0,0.04064 0,0.06028 0,0.663695 0.58447,1.300977 1.26984,1.269824 0.68807,-0.03115 1.26982,-0.557368 1.26982,-1.269824 z"
         id="path1190" />
      <path
         style="stroke-width:0.26458335"
         id="path1184"
         d="m 211.21529,54.694779 c -0.92307,0.0129 -1.68564,-0.72871 -1.69851,-1.652465 -0.012,-0.923753 0.72871,-1.686325 1.65178,-1.699192 0.92444,-0.01359 1.68701,0.728709 1.69987,1.651787 0.012,0.924431 -0.72803,1.686325 -1.65314,1.69987 z m -0.0332,-2.376433 c -0.38602,0.0067 -0.69552,0.324398 -0.6901,0.709748 0.005,0.386025 0.32372,0.696202 0.70907,0.69146 0.38602,-0.0067 0.69687,-0.324397 0.69145,-0.710423 -0.005,-0.386705 -0.32371,-0.696202 -0.71042,-0.690785 z"
         inkscape:connector-curvature="0" />
    </g>
  </g>
</svg>
