<?xml version="1.0" encoding="utf-8"?>
<!-- Generator: Adobe Illustrator 23.0.4, SVG Export Plug-In . SVG Version: 6.00 Build 0)  -->
<svg version="1.1" id="Capa_1" xmlns="http://www.w3.org/2000/svg" xmlns:xlink="http://www.w3.org/1999/xlink" x="0px" y="0px"
	 viewBox="0 0 1260.3 467.6" style="enable-background:new 0 0 1260.3 467.6;" xml:space="preserve">
<style type="text/css">
	.st0{fill:#EA626D;}
	.st1{fill:#E24852;}
</style>
<path class="st0" d="M1178.4,195.5c-1.1-16.1-2.4-32.2-4-48.3c-2.5-25.2-5.3-50.3-7.7-75.5c-0.4-3.3-1.5-4.2-4.6-3.8
	c-9.4,1.2-18.9,2.1-28.3,3.1c-23.2,2.5-46.3,4.9-69.5,7.4c-26.5,2.8-52.9,5.7-79.4,8.6c-20.8,2.2-41.7,4.6-62.5,6.9
	c-5.5-0.6-10.9,0.7-16.3,1.2c-23.3,2.4-46.6,5-69.9,7.5c-23.1,2.5-46.2,5.2-69.4,7.3c-13.9,1.3-27.6,4.5-41.7,2.8
	c-20.8-2.5-41.7-4.6-62.5-6.7c-14.7-1.5-29.4-3.7-44.2-4.1c0,0,0,0-0.1,0c-0.9-0.8-2.1-0.7-3.1-0.9c-22.2-2.5-44.4-4.7-66.5-7.4
	c-36.1-4.4-72-9-108-13.6c-44.5-5.7-89-12.3-133.3-19.4c-60-9.6-119.7-20.5-179.1-33.1c-4.2-0.9-4.5,0.5-4.8,4
	c-1.5,20.1-3.2,40.1-4.7,60.2c-1.5,19.5-2.6,38.8-3.9,58.2c0,0,0,0,0,0c-1,1.7-0.4,3.6-0.7,5.4c-0.8,5,1.3,7,6.3,7.6
	c12.8,1.4,25.6,3.4,38.4,5.2c9,1.3,18,2.6,28.4,4.1c-16.1,1.7-30.7,3.2-45.3,4.8c-10.2,1.2-20.4,2.5-30.6,3.7c0,1.9,0.2,3.7,0.3,5.6
	h-0.3c-0.2-1.8-0.3-3.6-0.3-5.4c-3.6,0.3-7.3,0.7-10.9,1.1c-23.9,2.5-47.7,5-71.5,7.7c-6.7,0.8-6.4,1-6,7.6
	c1.5,24.4,4.2,48.8,6.5,73.1c1.7,16.9,3.5,33.8,5.2,50.7c0.4,3.2,1.6,4.3,4.8,3.7c4.4-0.8,8.9-1.1,13.4-1.7c2.4-0.3,3.4,0,3.1,3.1
	c-1.2,10.7-1.9,21.5-3,32.3c-0.3,2.6,0.1,3.6,2.9,3.6c5.5,0.1,11,0.5,16.5,0.6c28,0.7,55.9,1.3,83.9,2c22.8,0.6,45.6,1.4,68.4,1.9
	c2.9,0,4,1.1,4.6,3.8c1.4,6.2,3.1,12.3,4.6,18.4c0.8,2.9,2.1,4.7,5.7,3.5c2.7-0.8,5.6-0.9,8.4-1.3c33.1-4.9,66.1-9.9,99.2-14.6
	c10.8-1.6,21.6-4.1,32.7-3.6c29,1.4,57.9,2.8,86.8,4.2c20.6,1,41.2,2,61.8,3.2c35.9,2.2,71.7,4.5,107.6,6.8
	c21.1,1.3,42.2,2.7,63.3,4.2c29.7,2.2,59.4,4.5,89.1,6.8c21.7,1.6,43.5,3.3,65.2,5.2c29.3,2.5,58.7,5.1,88,7.8
	c19.7,1.8,39.4,3.7,59.1,5.6c22.1,2.2,44.1,4.2,66.1,6.5c4.1,0.4,5.4-0.8,5.9-4.9c3.8-29.5,6.5-59.2,9.7-88.8
	c0.8-7.4,0.8-7.4,8.4-7.4c21.7,0,43.3-0.1,65,0c3,0,4.1-0.3,3.3-3.8c-1.6-6.8-2.3-13.8-3.8-20.6c-6.2-28.8-12.6-57.5-19.1-86.2
	c-0.9-3.7,0-4.6,3.5-4.9c10.7-1,21.4-2.4,32.2-3.5C1178.5,202.4,1178.9,202.5,1178.4,195.5z"/>
<path class="st1" d="M940.1,205.6c-2.6-17.5-5.1-35-7.9-52.5c-3.1-19.8-6.5-39.5-9.8-59.2c-5.5-0.6-10.9,0.7-16.3,1.2
	c-23.3,2.4-46.6,5-69.9,7.5c-23.1,2.5-46.2,5.2-69.4,7.3c-13.9,1.3-27.6,4.5-41.7,2.8c-20.8-2.5-41.7-4.6-62.5-6.7
	c-14.7-1.5-29.4-3.7-44.2-4.1c-5.2,3.3-11.3,2.3-16.9,2.6c-12.6,0.8-25.1,2.4-37.6,3.5c-16,1.4-32,2.5-47.9,4.7
	c-8.8,1.2-17.8,1.4-26.7,2.2c-12.7,1.2-25.3,2.8-38,3.7c-8.7,0.6-17.5,1.1-26.2,2.2c-17.1,2.1-34.3,2.7-51.4,4.8
	c-12.8,1.6-25.7,2-38.6,3.2c-11.7,1.1-23.3,2.9-35,3.7c-8.9,0.7-17.8,1.2-26.7,2.3c-16.8,2.1-33.7,2.6-50.4,4.8
	c-8.8,1.1-17.8,1.3-26.7,2.2c-12,1.2-24,2.6-36,3.8c-8.9,0.8-17.8,1.7-26.7,2.1c-6.3,0.3-12.5,1.4-18.7,2.2c-1,1.7-0.4,3.6-0.7,5.4
	c-0.8,5,1.3,7,6.3,7.6c12.8,1.4,25.6,3.4,38.4,5.2c9,1.3,18,2.6,28.4,4.1c-16.1,1.7-30.7,3.2-45.3,4.8c-10.2,1.2-20.4,2.5-30.6,3.7
	c0.3,11.6,3.2,22.9,4.7,34.4c1.2,9.3,2.8,18.6,4.4,27.9c2.2,12.6,3.9,25.2,6.9,37.6c0.6,2.4,1.4,3.2,4.1,2.9
	c16.6-1.6,33.3-3,49.9-4.6c9-0.9,18.1-1.6,27.2-2.3c11.8-0.9,23.7-2.6,35.5-3.7c9.5-0.8,19.2-0.9,28.7-2.2
	c20.1-2.8,40.3-3.3,60.3-5.8c8.7-1,17.4-1.6,26.2-2.2c12.7-0.9,25.3-2.5,38-3.7c8.9-0.8,17.9-0.9,26.7-2.2
	c19.7-2.9,39.6-3.3,59.3-5.8c9-1.1,18.1-1.6,27.2-2.3c11.8-0.9,23.6-2.6,35.5-3.7c9.5-0.9,19.2-0.9,28.7-2.2
	c20.1-2.8,40.3-3.3,60.3-5.8c8.9-1.1,17.8-1.6,26.7-2.3c12-0.9,24-2.5,36-3.6c9.4-0.9,18.9-0.9,28.2-2.3c12.3-1.9,24.7-2.3,37-3.7
	c12-1.4,24.1-2.1,36.1-3.2c13.5-1.3,27-2.7,40.5-3.9c9.1-0.8,18.1-1.4,27.2-2.3c12-1.2,24-2.6,36-3.7c11.7-1.1,23.4-2,35.1-3
	C940.2,208.8,940.4,207.5,940.1,205.6z"/>
</svg>
