<?xml version="1.0" encoding="UTF-8" standalone="no"?>
<!-- Created with Inkscape (http://www.inkscape.org/) -->

<svg
   xmlns:dc="http://purl.org/dc/elements/1.1/"
   xmlns:cc="http://creativecommons.org/ns#"
   xmlns:rdf="http://www.w3.org/1999/02/22-rdf-syntax-ns#"
   xmlns:svg="http://www.w3.org/2000/svg"
   xmlns="http://www.w3.org/2000/svg"
   xmlns:sodipodi="http://sodipodi.sourceforge.net/DTD/sodipodi-0.dtd"
   xmlns:inkscape="http://www.inkscape.org/namespaces/inkscape"
   width="145.02226"
   height="150"
   viewBox="0 0 38.370473 39.687501"
   version="1.1"
   id="svg7430"
   inkscape:version="0.92.1 r15371"
   sodipodi:docname="coaching.svg">
  <defs
     id="defs7424" />
  <sodipodi:namedview
     id="base"
     pagecolor="#ffffff"
     bordercolor="#666666"
     borderopacity="1.0"
     inkscape:pageopacity="0.0"
     inkscape:pageshadow="2"
     inkscape:zoom="3.959798"
     inkscape:cx="-28.668074"
     inkscape:cy="82.867155"
     inkscape:document-units="px"
     inkscape:current-layer="layer1"
     showgrid="false"
     units="px"
     fit-margin-top="10"
     fit-margin-left="10"
     fit-margin-right="10"
     fit-margin-bottom="10"
     inkscape:window-width="1920"
     inkscape:window-height="1021"
     inkscape:window-x="0"
     inkscape:window-y="0"
     inkscape:window-maximized="1" />
  <metadata
     id="metadata7427">
    <rdf:RDF>
      <cc:Work
         rdf:about="">
        <dc:format>image/svg+xml</dc:format>
        <dc:type
           rdf:resource="https://purl.org/dc/dcmitype/StillImage" />
        <dc:title />
      </cc:Work>
    </rdf:RDF>
  </metadata>
  <g
     inkscape:label="Capa 1"
     inkscape:groupmode="layer"
     id="layer1"
     transform="translate(-222.46456,-148.458)">
    <g
       id="g10136">
      <circle
         id="circle1548"
         r="13.257114"
         cy="172.24255"
         cx="244.47223"
         style="fill:#8ed3f1;stroke-width:0.26458335" />
      <circle
         style="fill:#ffffff;stroke-width:0.26458335"
         cx="239.14885"
         cy="165.14224"
         r="13.436808"
         id="circle1550" />
      <path
         inkscape:connector-curvature="0"
         d="m 239.14885,179.18074 c -7.7404,0 -14.03845,-6.29805 -14.03845,-14.03845 0,-7.74041 6.29805,-14.03846 14.03845,-14.03846 7.7404,0 14.03846,6.29805 14.03846,14.03846 0,7.7404 -6.29806,14.03845 -14.03846,14.03845 z m 0,-26.87361 c -7.07779,0 -12.83516,5.75817 -12.83516,12.83516 0,7.07698 5.75737,12.83516 12.83516,12.83516 7.07699,0 12.83516,-5.75818 12.83516,-12.83516 0,-7.07699 -5.75817,-12.83516 -12.83516,-12.83516 z"
         id="path1552"
         style="stroke-width:0.26458335" />
      <polygon
         transform="matrix(0.80219745,0,0,0.80219745,-326.41479,-696.71218)"
         style="fill:#ffffff;stroke-width:0.32982323"
         points="696.933,1074.053 721.496,1060.248 705.309,1082.276 705.333,1074.022 "
         id="polygon1556" />
      <polygon
         transform="matrix(0.80219745,0,0,0.80219745,-326.41479,-696.71218)"
         style="fill:#e7829b;stroke-width:0.32982323"
         points="705.018,1074.367 705.066,1081.817 720.732,1060.984 "
         id="polygon1592" />
      <path
         inkscape:connector-curvature="0"
         d="m 239.38229,172.08852 c -0.0626,0 -0.12594,-0.01 -0.18771,-0.0305 -0.24788,-0.0818 -0.41474,-0.31286 -0.41394,-0.57277 l 0.0177,-6.01568 -6.1336,0.0217 c -8e-4,0 -0.002,0 -0.002,0 -0.27355,0 -0.5126,-0.1837 -0.58159,-0.44842 -0.0706,-0.26473 0.0481,-0.54389 0.28638,-0.67786 l 19.70358,-11.07514 c 0.24708,-0.13878 0.55672,-0.0866 0.74524,0.12595 0.18771,0.21178 0.20215,0.52624 0.0345,0.75406 l -12.98517,17.67161 c -0.11311,0.15964 -0.2952,0.24708 -0.48292,0.24708 z m 0.0192,-7.82464 c 0.15964,0 0.31286,0.0634 0.42517,0.17568 0.11391,0.11391 0.17648,0.26713 0.17648,0.42757 l -0.0144,4.77789 10.24246,-13.93898 -15.25539,8.57389 4.42332,-0.0169 c 0.002,8e-4 0.002,8e-4 0.002,8e-4 z"
         id="path1558"
         style="stroke-width:0.26458335" />
      <line
         style="fill:#ffffff;stroke-width:0.26458335"
         x1="239.14885"
         y1="151.70543"
         x2="239.14885"
         y2="154.6134"
         id="line1562" />
      <path
         inkscape:connector-curvature="0"
         d="m 239.14885,155.21509 c -0.33291,0 -0.60165,-0.26953 -0.60165,-0.60164 v -2.90797 c 0,-0.33211 0.26874,-0.60165 0.60165,-0.60165 0.33211,0 0.60165,0.26954 0.60165,0.60165 v 2.90797 c 0,0.33211 -0.26954,0.60164 -0.60165,0.60164 z"
         id="path1564"
         style="stroke-width:0.26458335" />
      <line
         style="fill:#ffffff;stroke-width:0.26458335"
         x1="239.14885"
         y1="175.37025"
         x2="239.14885"
         y2="178.27823"
         id="line1568" />
      <path
         inkscape:connector-curvature="0"
         d="m 239.14885,178.87992 c -0.33291,0 -0.60165,-0.26954 -0.60165,-0.60165 v -2.90796 c 0,-0.33211 0.26874,-0.60165 0.60165,-0.60165 0.33211,0 0.60165,0.26954 0.60165,0.60165 v 2.90796 c 0,0.33211 -0.26954,0.60165 -0.60165,0.60165 z"
         id="path1570"
         style="stroke-width:0.26458335" />
      <line
         id="line1576"
         y2="161.2332"
         x2="243.83449"
         y1="164.86551"
         x1="239.40155"
         style="fill:#ffffff;stroke-width:0.26458335" />
      <path
         style="stroke-width:0.26458335"
         id="path1578"
         d="m 239.40154,165.46718 c -0.17407,0 -0.34655,-0.0754 -0.46527,-0.2198 -0.21098,-0.25671 -0.17328,-0.63615 0.0834,-0.84712 l 4.43214,-3.63235 c 0.2567,-0.21098 0.63614,-0.17328 0.84712,0.0834 0.21098,0.25671 0.17327,0.63615 -0.0834,0.84712 l -4.43214,3.63235 c -0.11231,0.0923 -0.24708,0.13638 -0.38185,0.13638 z"
         inkscape:connector-curvature="0" />
      <path
         style="fill:#82b945;stroke-width:0.26458335"
         inkscape:connector-curvature="0"
         d="m 257.29696,173.11372 c 0.98911,1.43032 -0.54709,3.00985 -2.00388,2.06005 -0.0706,-0.0465 -0.13477,-0.1083 -0.18291,-0.17809 -0.9891,-1.42952 0.5471,-3.00985 2.00389,-2.05924 0.0706,0.0457 0.13477,0.10829 0.1829,0.17728 z"
         id="path1584" />
      <path
         inkscape:connector-curvature="0"
         d="m 256.23084,176.03934 c -1.09339,0.016 -1.99586,-0.86236 -2.01191,-1.95656 -0.0152,-1.0942 0.86317,-1.99747 1.95656,-2.01272 1.095,-0.016 1.99747,0.86237 2.01352,1.95656 0.0152,1.095 -0.86317,1.99828 -1.95817,2.01272 z m -0.0385,-2.81491 c -0.45725,0.008 -0.82386,0.38425 -0.81824,0.8415 0.006,0.45725 0.38345,0.82466 0.8407,0.81824 0.45725,-0.008 0.82466,-0.38425 0.81904,-0.8407 -0.006,-0.45725 -0.38505,-0.82466 -0.8415,-0.81904 z"
         id="path1586"
         style="stroke-width:0.26458335" />
    </g>
  </g>
</svg>
