<?xml version="1.0" encoding="utf-8"?>
<!-- Generator: Adobe Illustrator 19.0.0, SVG Export Plug-In . SVG Version: 6.00 Build 0)  -->
<svg version="1.1" id="Capa_1" xmlns="http://www.w3.org/2000/svg" xmlns:xlink="http://www.w3.org/1999/xlink" x="0px" y="0px"
	 width="1260.3px" height="467.6px" viewBox="355 -178.6 1260.3 467.6" style="enable-background:new 355 -178.6 1260.3 467.6;"
	 xml:space="preserve">
<style type="text/css">
	.st0{fill:#EA626D;}
	.st1{fill:#E24852;}
	.st2{fill:#FEFEFE;}
</style>
<g id="Capa_2">
</g>
<g id="Capa_1_1_">
	<g>
		<path class="st0" d="M1277.4-84.7c20.8-2.3,41.7-4.7,62.5-6.9c26.5-2.9,52.9-5.8,79.4-8.6c23.2-2.5,46.3-4.9,69.5-7.4
			c9.4-1,18.9-1.9,28.3-3.1c3.1-0.4,4.2,0.5,4.6,3.8c2.4,25.2,5.2,50.3,7.7,75.5c1.6,16.1,2.9,32.2,4,48.3c0.5,7,0.1,6.9-6.7,7.5
			c-10.8,1.1-21.5,2.5-32.2,3.5c-3.5,0.3-4.4,1.2-3.5,4.9c6.5,28.7,12.9,57.4,19.1,86.2c1.5,6.8,2.2,13.8,3.8,20.6
			c0.8,3.5-0.3,3.8-3.3,3.8c-21.7-0.1-43.3,0-65,0c-7.6,0-7.6,0-8.4,7.4c-3.2,29.6-5.9,59.3-9.7,88.8c-0.5,4.1-1.8,5.3-5.9,4.9
			c-22-2.3-44-4.3-66.1-6.5c-19.7-1.9-39.4-3.8-59.1-5.6c-29.3-2.7-58.7-5.3-88-7.8c-21.7-1.9-43.5-3.6-65.2-5.2
			c-29.7-2.3-59.4-4.6-89.1-6.8c-21.1-1.5-42.2-2.9-63.3-4.2c-35.9-2.3-71.7-4.6-107.6-6.8c-20.6-1.2-41.2-2.2-61.8-3.2
			c-28.9-1.4-57.8-2.8-86.8-4.2c-11.1-0.5-21.9,2-32.7,3.6c-33.1,4.7-66.1,9.7-99.2,14.6c-2.8,0.4-5.7,0.5-8.4,1.3
			c-3.6,1.2-4.9-0.6-5.7-3.5c-1.5-6.1-3.2-12.2-4.6-18.4c-0.6-2.7-1.7-3.8-4.6-3.8c-22.8-0.5-45.6-1.3-68.4-1.9
			c-28-0.7-55.9-1.3-83.9-2c-5.5-0.1-11-0.5-16.5-0.6c-2.8,0-3.2-1-2.9-3.6c1.1-10.8,1.8-21.6,3-32.3c0.3-3.1-0.7-3.4-3.1-3.1
			c-4.5,0.6-9,0.9-13.4,1.7c-3.2,0.6-4.4-0.5-4.8-3.7c-1.7-16.9-3.5-33.8-5.2-50.7c-2.3-24.3-5-48.7-6.5-73.1
			c-0.4-6.6-0.7-6.8,6-7.6c23.8-2.7,47.6-5.2,71.5-7.7c3.6-0.4,7.3-0.8,10.9-1.1c0.3,11.6,3.2,22.9,4.7,34.4
			c1.2,9.3,2.8,18.6,4.4,27.9c2.2,12.5,3.9,25.2,6.9,37.6c0.6,2.4,1.4,3.2,4.1,2.9c16.6-1.7,33.3-3,49.9-4.6
			c9.1-0.9,18.1-1.6,27.2-2.3c11.9-0.9,23.7-2.6,35.5-3.7c9.6-0.9,19.2-0.9,28.7-2.2c20-2.8,40.2-3.3,60.3-5.8
			c8.7-1.1,17.5-1.6,26.2-2.2c12.7-0.9,25.3-2.5,38-3.7c8.9-0.8,17.9-1,26.7-2.2c19.7-2.8,39.6-3.3,59.3-5.8
			c9-1.1,18.1-1.7,27.2-2.3c11.9-0.9,23.7-2.6,35.5-3.7c9.6-0.9,19.2-0.9,28.7-2.2c20-2.8,40.2-3.3,60.3-5.8
			c8.9-1.1,17.8-1.6,26.7-2.3c12-1,24-2.5,36-3.6c9.4-0.9,18.9-0.9,28.2-2.3c12.3-1.9,24.7-2.3,37-3.7c12-1.4,24.1-2.1,36.1-3.2
			c13.5-1.2,27-2.6,40.5-3.9c9.1-0.8,18.2-1.5,27.2-2.3c12-1.2,24-2.5,36-3.7c11.7-1.1,23.4-2.1,35.1-3c2.4-0.2,2.6-1.5,2.3-3.4
			c-2.7-17.5-5.2-35-7.9-52.5C1284.1-45.2,1280.7-65,1277.4-84.7z M636.1,127.2c-1.4-1,0.2-3.7-2.3-3.4c-1.9,0.2-1.3,2-1.3,3.2
			c-0.1,5.8,0,11.6,0,17.5c0,1.2-0.5,3,1.5,3.1c2.1,0.1,1.6-1.7,1.6-2.9c0.1-3.7-0.2-7.3,0.2-11c0.4-4.4,4.2-7.7,8-7.3
			c4.7,0.4,4.7,4.1,4.8,7.4c0.2,3.3-0.1,6.7,0.1,10c0.1,1.4-0.9,3.9,1.7,3.8c2.2-0.1,1.4-2.2,1.5-3.6c0.1-3.5-0.1-7,0.2-10.5
			c0.4-4.1,4-7.3,7.6-7.1c4.8,0.2,4.9,3.8,5.1,7.1c0.2,3.8,0,7.7,0.1,11.5c0,1.1-0.3,2.6,1.4,2.7c1.6,0.1,1.8-1.1,1.8-2.3
			c0-4.8,0.2-9.7-0.2-14.5c-0.5-5.7-4.4-8.4-9.6-7.2c-2.8,0.6-4.5,3-6.6,4.8C647.2,121.8,643.4,121.5,636.1,127.2z M1162.3,145
			c1,7.5-3.2,11.7-10.2,10.1c-1.8-0.4-3.5-1.1-4.9-2.3c-0.7-0.6-1.4-1.8-2.4-0.8c-1.2,1.2,0.1,2.2,0.9,2.8c4.2,3.7,9.1,4,14,2.1
			c4.6-1.7,6.6-5.2,6.6-10.1c0-6.3,0.1-12.7-0.1-19c0-1.4,1.1-3.7-1.4-4.1s-0.4,3-2.4,3.4c-6-4.7-11.4-5-15.7-1
			c-4.4,4.2-5.1,11.9-1.6,17C1149.1,148.6,1154.2,149.2,1162.3,145z M783.8,127.1c-1-1.3,0.1-3.9-2.3-3.4c-1.8,0.3-1,2.2-1,3.4
			c-0.1,5.7-0.1,11.3,0,17c0,1.3-0.9,3.5,1.6,3.3c2.3-0.2,1.3-2.3,1.3-3.6c0.2-3.3-0.1-6.7,0.1-10c0.4-4.3,4.1-7.8,7.8-7.6
			c5,0.2,5,4,5.2,7.6c0.1,3.5,0,7,0.1,10.5c0,1.2-0.5,3,1.5,3.1c2.5,0.1,1.7-2,1.7-3.3c0.1-3.7-0.1-7.4,0.3-11
			c0.5-4.1,4.3-7.2,7.9-6.9c4.6,0.4,4.7,4,4.9,7.4c0.1,3.8,0,7.7,0.1,11.5c0,1.2,0.1,2.5,1.8,2.4c1.3-0.1,1.5-1.1,1.5-2.2
			c-0.1-5.2,0.2-10.4-0.4-15.4c-0.9-6.6-6.7-8.8-12.3-4.9c-1.3,0.9-2.4,2.1-3.6,3.1C794.9,121.8,791.3,121.5,783.8,127.1z
			 M678.1,144.3c1.2,0.5,1.5,0.6,1.8,0.8c5.8,4.1,10.6,4,14.7-0.3c4.3-4.5,4.7-12,0.9-17c-3.7-4.9-8.8-5.8-14.5-2.8
			c-1.2,0.6-2.5,2.4-3.2-0.4c-0.3-1-1-1.3-1.9-0.9c-0.9,0.4-0.9,1.3-0.9,2.1c0,9.6,0,19.3,0,28.9c0,1.2,0,2.5,1.7,2.4
			s1.6-1.4,1.6-2.5C678.1,151.4,678.1,148.1,678.1,144.3z M887.8,127.1c-1.3-1-0.1-3.7-2.4-3.3c-1.8,0.3-1.1,2.2-1.1,3.4
			c-0.1,5.7-0.1,11.3,0,17c0,1.2-0.6,3.1,1.4,3.2s1.6-1.8,1.6-3c0.1-3.7-0.2-7.3,0.2-11c0.4-4.1,4-7.2,7.7-7
			c4.7,0.2,4.9,3.9,5.2,7.2c0.3,3-0.2,6,0.2,9c0.2,1.7-1.6,4.8,1.5,4.8c2.5,0,1.2-2.9,1.3-4.5c0.2-2.8-0.1-5.7,0.1-8.5
			c0.3-4.6,4.1-8.2,8.1-7.9c4.9,0.4,4.8,4.3,5,7.8c0.1,3-0.1,6,0.1,9c0.1,1.5-1,4,1.3,4.1c2.6,0.2,1.5-2.4,1.5-3.8
			c0.2-3.5,0-7,0.1-10.5c0-3.6-0.3-7.3-4-9c-3.7-1.6-7.2-0.5-10.1,2.3c-0.9,0.8-1.3,2.1-3.1,0.6C896.7,121.9,894.4,122,887.8,127.1z
			 M1238.1,137c2.2,0,4.3-0.2,6.5,0c3.7,0.4,4.2-1.5,3.7-4.5c-0.9-5.1-5.6-9-10.9-9.3c-5.8-0.2-10.3,2.9-12.1,8.4
			c-1.8,5.6,0.5,11.8,5.3,14.7c4.5,2.7,10.9,2,14.3-1.5c0.7-0.8,2.1-1.6,1-2.9c-1.2-1.3-1.9,0.1-2.8,0.8c-5.2,4-10.8,3.3-13.6-1.6
			c-1.4-2.5-1.9-4.5,2.1-4.3C1233.8,137.1,1236,137,1238.1,137z M1129.7,137c1.8,0,3.7,0,5.5,0c4.7,0,5.5-1.2,4-5.6
			c-1.7-5.1-6.3-8.3-11.8-8.1c-5.3,0.2-9.6,3.8-11,9.2c-1.4,5.6,0.9,11.3,5.8,14.1c4.5,2.5,10.4,2,13.9-1.5c0.8-0.8,2.6-1.7,1.1-3.2
			c-1.1-1.1-1.9,0.3-2.8,1c-4.8,3.9-10.3,3.3-13.3-1.3c-0.7-1.1-1.7-2.3-1.2-3.6c0.6-1.7,2.3-0.9,3.5-1
			C1125.4,136.9,1127.5,137,1129.7,137z M938.2,137c1.8,0,3.7,0,5.5,0c5.2,0,6-1.4,4-6.3c-2-5-6.3-7.6-11.8-7.3
			c-5.3,0.3-9.4,3.8-10.8,9.4c-1.3,5,1,10.7,5.3,13.5c4.2,2.8,10.1,2.5,14-0.7c1-0.8,3.1-1.8,1.6-3.5c-1.4-1.6-2.2,0.5-3.1,1.2
			c-4.8,3.6-10.5,2.7-13.3-2.1c-1.5-2.6-1.6-4.4,2.2-4.2C933.8,137.1,936,137,938.2,137z M576.2,145.9c-0.1-0.4-0.3-0.7-0.4-1
			c-3.9-9.3-7.7-18.7-11.6-28c-0.4-1.1-0.9-2.2-2.4-2c-1.4,0.1-1.8,1.5-2.2,2.5c-3.8,9-7.6,18-11.3,27.1c-0.4,0.9-1.7,2.2,0,2.9
			c1.5,0.7,2.4-0.3,3-1.8c0.7-1.9,1.4-3.7,2.2-5.5c0.5-1.1,0.8-2.6,2.6-2.6c4.1,0.1,8.5-0.6,12.4,0.4c2.6,0.6,2.4,4.7,3.9,7.1
			c0.5,0.8,0.9,1.9,1.7,2.3C575.1,147.7,576.4,147.8,576.2,145.9z M712,133.3c-0.8,0-2,0-3.1,0.2c-5,0.8-8.1,4.2-7.4,8.3
			c0.7,4.4,5.4,7.2,10.4,6.1c0.8-0.2,1.6-0.4,2.4-0.8c2-0.8,3.7-2.5,6.1,0c1.2,1.3,3.3,0.3,2.4-1.8c-1.7-3.9-0.7-7.9-0.9-11.8
			c-0.3-3.8-0.8-7.4-4.7-9.2c-4.1-1.9-8.1-1.4-11.9,0.7c-0.9,0.5-2.1,0.9-1.5,2.1c0.7,1.3,1.7,0.3,2.5-0.1c2.8-1.3,5.7-2.1,8.6-0.8
			c2.8,1.2,4.1,3.7,3.5,6.5c-0.6,2.9-3,0.1-4.5,0.6C713.5,133.6,712.9,133.4,712,133.3z M754.5,128.2c3.5-1,5.8-1.9,8.1-2.3
			c4-0.6,6.9,0.9,7.8,5.1c0.4,1.9,0.6,3.7-2.6,2.8c-3.2-0.9-6.6-0.9-9.8,0.6c-2.7,1.3-4.7,3.3-4.5,6.5c0.2,3.4,2.1,5.5,5.2,6.7
			c2.5,1,4.9,0.6,7.3-0.3c2.2-0.9,4.2-2.8,6.5,0c0.7,0.9,2.9,0.3,2.4-1c-2.1-5.6,0-11.6-1.7-17.2c-1-3.3-3.5-5.2-7-5.6
			C762.1,123,758.1,123.3,754.5,128.2z M985.5,135.8c0.1-7.1-4.7-12.4-11.3-12.5c-6.7-0.2-12.4,5.5-12.4,12.2
			c0,6.8,5.6,12.7,12.1,12.7C980.5,148.2,985.5,142.9,985.5,135.8z M844.5,135.7c0-7.1-4.8-12.3-11.5-12.4
			c-6.6-0.1-12.4,5.7-12.3,12.4c0.1,6.9,5.8,12.7,12.3,12.5C839.7,148.1,844.5,142.8,844.5,135.7z M615.5,123.3
			c-6.4,0-11.9,5.6-12,12.2c-0.1,6.8,5.5,12.7,12.1,12.7c6.6,0,11.9-5.7,11.8-12.8C627.3,128.4,622.2,123.3,615.5,123.3z
			 M1014.9,133.3c-3.9,0.1-7.7,1-9.6,5.3c-1.2,2.8-0.1,5.3,2,7.2c3.4,3.2,7.2,2.8,11.1,0.9c0.3-0.1,0.6-0.3,0.9-0.5
			c1.4-1,2.8-2.5,3.9,0.5c0.3,0.8,1.4,0.8,2.2,0.5c1-0.4,1-1.3,0.7-2c-1.7-3.9-0.6-7.9-0.8-11.8c-0.2-3.9-1.1-7.4-4.9-9.1
			c-4-1.9-8.1-1.3-12,0.9c-0.7,0.4-1.6,0.9-1.2,1.9c0.6,1.7,1.6,0.4,2.4,0.1c2.8-1.2,5.5-2.2,8.6-0.9c3.2,1.3,4.2,4.3,3.6,6.9
			c-0.5,2.4-3-0.1-4.7,0.3C1016.6,133.6,1015.9,133.4,1014.9,133.3z M1197.1,133.3c-3.9,0.1-7.8,0.9-9.7,5.2c-1.4,3-0.2,5.6,2.1,7.6
			c3.5,3,7.4,2.5,11.2,0.6c0.3-0.1,0.6-0.2,0.9-0.5c1.3-1.1,2.5-2.1,3.5,0.5c0.4,1,1.7,1.1,2.6,0.5c0.4-0.2,0.6-1.3,0.4-1.7
			c-1.8-4-0.6-8.2-0.9-12.3c-0.2-3.9-1.3-7.3-5.1-9c-3.9-1.6-7.8-1.2-11.5,0.9c-0.9,0.5-2,1.1-1.3,2.2c0.8,1.2,1.7,0,2.5-0.3
			c3-1.3,6-2.2,9.1-0.4c2.5,1.4,3.4,4.1,2.9,6.4c-0.6,2.7-3,0.1-4.5,0.4C1198.8,133.6,1198.1,133.4,1197.1,133.3z M1047.9,127.3
			c-3.5-5.3-13.1-5.4-16.1-0.4c-2.1,3.5-1,6.9,2.9,8.4c2.6,1,5.4,1.6,8.1,2.5c1.9,0.6,3.4,1.8,3,4c-0.3,2-1.7,3.3-3.7,3.5
			c-3.2,0.5-6.3,0.2-9.1-1.7c-0.8-0.5-1.7-1.4-2.5-0.2c-0.7,1.1,0.2,1.7,1,2.4c3.4,2.7,10.5,3.1,14.3,0.9c2.2-1.3,3.4-3.2,3.4-5.7
			c0-2.7-1.6-4.4-3.9-5.3c-2.2-0.8-4.5-1.3-6.7-2c-2.5-0.7-5.2-1.3-4.4-4.8c0.7-3.2,3.5-3.1,6-3.3
			C1042.9,125.5,1045,127.8,1047.9,127.3z M865.8,127c-3.5-4.4-11.6-5-15.2-1.1c-3,3.3-2.3,7.7,1.8,9.4c2.4,1,5.1,1.5,7.6,2.3
			c2.1,0.7,4.3,1.6,3.7,4.4c-0.5,2.4-2.4,3.4-4.8,3.6c-2.9,0.2-5.6-0.2-8.1-1.9c-0.8-0.6-1.8-1.2-2.5,0s0.4,1.8,1.2,2.3
			c3.9,2.2,8,3.1,12.5,1.5c3.2-1.1,5.1-3.2,5.1-6.6c0-3.1-2.2-4.7-5-5.5c-2.4-0.7-4.8-1.3-7.2-2c-1.7-0.5-3-1.4-2.9-3.5
			c0.1-2.2,1.3-3.3,3.3-3.8c2.4-0.6,4.6-0.2,6.9,0.5C863.4,127,864.5,128.2,865.8,127z M1079.7,127c-1.2-0.9,0-3.6-2.3-3.3
			c-1.8,0.3-1.1,2.2-1.1,3.4c-0.1,5.5-0.1,11,0,16.5c0,1.3-0.9,3.5,1.3,3.6c2.3,0.1,1.5-2.1,1.6-3.4c0.1-3.2-0.1-6.3,0.1-9.5
			c0.2-4.4,4.4-8.2,8.5-8.1c5.1,0.1,5,4.2,5.3,7.5c0.4,3.8,0.1,7.6,0.1,11.5c0,1,0.1,2.1,1.5,2.1c1.3,0,1.5-1.1,1.5-2.1
			c0-5,0.3-10-0.2-14.9c-0.6-6-5.1-8.5-10.9-6.3C1083.4,124.6,1081.7,125.9,1079.7,127z M591,123.3c-5.9,0.1-10,3-11.7,8.2
			c-1.7,5.3,0,11.1,4.3,14.3c4,3,9.5,3.3,13.5,0.4c1.3-0.9,3.9-2.1,2.5-4c-1.5-2.1-2.7,0.4-4,1.3c-3.4,2.4-6.8,2.5-10.1,0
			c-3.4-2.6-4.7-8.1-2.7-12.3c1.7-3.8,4.8-5.3,8.9-4.9c1.8,0.2,3.2,0.9,4.4,2.1c1.1,1.1,2.6,1.7,3.5,0.5c0.9-1.3-0.8-2.3-1.7-3.1
			C595.9,123.8,593.4,123.2,591,123.3z M731.8,127.1c-1-1,0.2-3.7-2.1-3.4c-2.2,0.3-1.2,2.4-1.2,3.7c-0.1,5.3-0.1,10.7,0,16
			c0,1.4-1.1,3.9,1.6,3.8c2.2,0,1.3-2.3,1.3-3.6c0.1-3-0.1-6,0.1-9c0.2-4.7,4.5-8.8,8.8-8.4c5.1,0.5,5,4.5,5.1,8.2
			c0.1,3.3,0,6.7,0.1,10c0,1.2-0.6,3,1.6,2.9c1.7-0.1,1.3-1.7,1.3-2.7c0-4.5,0.2-9,0-13.5c-0.3-6.6-4.9-9.5-11-7.1
			C735.5,124.7,733.9,125.9,731.8,127.1z M1261.7,123.3c-0.8,0-1.7,0-2.5,0.1c-3.6,0.6-6.2,2.3-6.7,6.2c-0.6,4.2,2.3,5.5,5.5,6.4
			c2.1,0.6,4.2,1,6.2,1.6c1.8,0.6,3.5,1.4,3.3,3.8s-1.8,3.5-3.9,3.9c-3,0.5-5.9,0.2-8.6-1.4c-1-0.6-2.3-1.5-3,0
			c-0.6,1.4,0.9,2,1.9,2.4c4.2,2,8.5,2.8,12.9,0.6c2.4-1.2,3.8-3.1,3.8-5.9c0-3-1.7-4.6-4.2-5.4c-2.5-0.9-5.1-1.5-7.6-2.2
			c-1.7-0.5-3.1-1.2-3.2-3.3c-0.1-2.2,1.2-3.3,3.1-4c3.1-1.2,5.8-0.2,8.5,1.2c0.8,0.4,1.6,0.8,2.1-0.2c0.5-0.9-0.2-1.5-0.9-2
			C1266.3,123.8,1264.1,123.2,1261.7,123.3z M1103.6,135.4c0,2.9-0.1,5.2,0,7.5c0.3,4.4,5.2,6.7,8.9,4.2c0.5-0.3,1-1,1-1.5
			c0.1-0.7-0.6-1.2-1.3-1c-6.2,1.3-5.3-3.1-5.3-6.7c0-2.2,0-4.3,0-6.5c-0.1-2.7-0.5-5.6,3.8-5.2c0.6,0.1,1.3-0.2,1.5-1
			c0.2-0.8-0.3-1.5-0.9-1.5c-5.2,0.6-4.3-3.1-4.4-6.2c-0.1-1.4-1.5-2.7-2.1-1.7c-1.7,3-2.7,6.5-3.9,9.8
			C1106.3,127.8,1102.1,132.6,1103.6,135.4z M1213.8,129.4L1213.8,129.4c0.1,4.5-0.2,9,0.1,13.4c0.3,4.3,3.7,6.3,7.3,4.8
			c0.8-0.3,1.6-0.6,1.4-1.6c-0.1-0.6-0.5-1.2-1.4-1.1c-4.2,0.6-4-2.3-4-5.1c0-7.5,0-15,0-22.4c0-1.2,0.4-3-1.5-3.1
			c-2.4-0.2-1.9,1.8-1.9,3.2C1213.7,121.4,1213.8,125.4,1213.8,129.4z M957,137.2C957,137.2,957.1,137.2,957,137.2
			c0-3.5,0.1-7,0-10.5c0-1.2,0.4-3-1.6-3.1c-2.4-0.1-1.9,1.8-1.9,3.2c0,6.8-0.1,13.6,0,20.5c0,3.9-1.5,6.1-5.7,5.5
			c-1-0.1-2.2-0.5-2.5,0.7c-0.4,1.6,1.1,1.8,2.2,2.1c4.6,1.5,9-1.9,9.4-7.5C957.3,144.5,957,140.9,957,137.2z M1176.7,127.1
			c-1-1.1,0-4.1-2.7-3.4c-1.9,0.5-1.1,2.5-1.2,3.9c-0.1,4.5-0.3,9,0.1,13.4c0.2,2.2-1.7,6.2,1.6,6.2c3.2,0,1.5-4.1,1.5-6.2
			c0-6.5-0.6-13,8-14.7c1-0.2,1.2-1.1,0.8-2s-1.3-0.9-2.1-0.7C1180.3,124.1,1178.6,125.8,1176.7,127.1z M994.8,127.2
			c-1-1.4,0.1-3.9-2.4-3.5c-1.8,0.3-1.2,2.1-1.2,3.3c-0.1,4.3-0.3,8.6,0.1,12.9c0.2,2.5-2,6.8,1.5,7c2.6,0.1,1.3-4.5,1.2-6.8
			c-0.3-6.4,0.1-12.1,7.9-13.7c1-0.2,1.3-1,1-1.9c-0.3-1-1.3-1-2.1-0.9C998.6,124,996.9,125.7,994.8,127.2z M1069.3,135.5
			c0-3.3,0-6.6,0-10c0-1.1-0.4-2-1.7-1.9c-1.1,0.1-1.2,1-1.2,1.8c0,6.6,0,13.3,0,19.9c0,0.8,0,1.7,1.2,1.9c1.3,0.2,1.8-0.7,1.8-1.8
			C1069.3,142.2,1069.2,138.9,1069.3,135.5z M731.8,118.7c2.6-3.9,5-1.7,7.6-0.8c3,1.1,4.9-0.1,5.6-3.2c-2.3,1.8-4.4,1.8-6.9,0.4
			C735.1,113.5,732.8,114.4,731.8,118.7z M957,116.2c0.1-1.5-0.7-2.2-2.1-2.1c-1.7,0.2-1.3,1.6-1.3,2.7c0,1.2,0.5,1.9,1.7,1.8
			C956.9,118.5,957.1,117.4,957,116.2z"/>
		<path class="st1" d="M1277.4-84.7c3.3,19.7,6.7,39.4,9.8,59.2c2.8,17.5,5.3,35,7.9,52.5c0.3,1.9,0.1,3.2-2.3,3.4
			c-11.7,1-23.4,1.9-35.1,3c-12,1.1-24,2.5-36,3.7c-9.1,0.9-18.1,1.5-27.2,2.3c-13.5,1.2-27,2.6-40.5,3.9c-12,1.1-24.1,1.8-36.1,3.2
			c-12.3,1.4-24.7,1.8-37,3.7c-9.3,1.4-18.8,1.4-28.2,2.3c-12,1.1-24,2.7-36,3.6c-8.9,0.7-17.8,1.2-26.7,2.3
			c-20,2.5-40.2,3-60.3,5.8c-9.5,1.3-19.2,1.3-28.7,2.2c-11.9,1.1-23.7,2.8-35.5,3.7c-9.1,0.7-18.2,1.2-27.2,2.3
			c-19.7,2.5-39.6,2.9-59.3,5.8c-8.8,1.3-17.8,1.4-26.7,2.2c-12.7,1.2-25.3,2.8-38,3.7c-8.8,0.6-17.5,1.2-26.2,2.2
			c-20,2.5-40.2,3-60.3,5.8c-9.5,1.3-19.2,1.4-28.7,2.2c-11.8,1.1-23.7,2.8-35.5,3.7c-9.1,0.7-18.2,1.4-27.2,2.3
			c-16.6,1.6-33.3,3-49.9,4.6c-2.7,0.3-3.5-0.5-4.1-2.9c-3-12.4-4.7-25-6.9-37.6c-1.6-9.3-3.2-18.6-4.4-27.9
			c-1.5-11.5-4.4-22.8-4.7-34.4c10.2-1.2,20.4-2.5,30.6-3.7c14.6-1.6,29.2-3.1,45.3-4.8c-10.4-1.5-19.4-2.8-28.4-4.1
			c-12.8-1.8-25.6-3.8-38.4-5.2c-5-0.6-7.1-2.6-6.3-7.6c0.3-1.8-0.3-3.7,0.7-5.4c6.2-0.8,12.4-1.9,18.7-2.2
			c8.9-0.4,17.8-1.3,26.7-2.1c12-1.2,24-2.6,36-3.8c8.9-0.9,17.9-1.1,26.7-2.2c16.7-2.2,33.6-2.7,50.4-4.8
			c8.9-1.1,17.8-1.6,26.7-2.3c11.7-0.8,23.3-2.6,35-3.7c12.9-1.2,25.8-1.6,38.6-3.2c17.1-2.1,34.3-2.7,51.4-4.8
			c8.7-1.1,17.5-1.6,26.2-2.2c12.7-0.9,25.3-2.5,38-3.7c8.9-0.8,17.9-1,26.7-2.2c15.9-2.2,31.9-3.3,47.9-4.7
			c12.5-1.1,25-2.7,37.6-3.5c5.6-0.3,11.7,0.7,16.9-2.6c14.8,0.4,29.5,2.6,44.2,4.1c20.8,2.1,41.7,4.2,62.5,6.7
			c14.1,1.7,27.8-1.5,41.7-2.8c23.2-2.1,46.3-4.8,69.4-7.3c23.3-2.5,46.6-5.1,69.9-7.5C1266.5-84,1271.9-85.3,1277.4-84.7z
			 M1022.3-12.2c0.4-0.1,0.9-0.3,1.3-0.4c4.4,6.9,8.7,13.8,13.2,20.6c5.7,8.8,10.7,18.1,17.8,25.9c2,2.2,4.5,4.4,7.8,3.4
			c3.2-1,3.3-4.3,4-7c0.2-0.6,0.1-1.3,0.2-2c1.7-16.1,0.6-32.3,0.9-48.4c0.1-2.7,0.2-5.7-3.8-5.5c-3.8,0.1-3.3,3-3.3,5.5
			c0,12.2,0,24.3,0,36.5c0,3.9-0.2,7.7-1.3,12.1c-1.6-2.2-2.8-3.8-4-5.4c-8.5-11.9-15.8-24.6-23.8-36.9c-2.3-3.6-4.5-7.5-8.2-9.9
			c-4.3-2.8-7.6-1.2-7.6,3.8c-0.1,17.8,0.1,35.6,0.1,53.4c0,2.3,0.5,4,3.2,4.1c2.8,0.1,3.9-1.3,3.8-4c-0.1-8.8-0.1-17.6-0.1-26.5
			C1022.3,0.6,1022.3-5.8,1022.3-12.2z M715.6,7.3c0,18.8,11.4,30.5,29.9,30.6c19.1,0.2,32-12,32-30c0-18.9-13.6-33.3-31.8-33.5
			C728.2-25.7,715.6-12,715.6,7.3z M1127-16.3c-7.5-7.2-15.9-8.7-24.8-6.8c-19.6,4.2-29.5,27.1-19.8,45.6
			c6.1,11.7,18.8,17.9,32.3,15.7c8.3-1.4,16.8-7.2,17.8-22.7c0.1-1.7,0.4-2.8,2.6-2.8c2.1,0.1,3.5-1.1,3.3-3.4c-0.2-2.4-2-2.8-4-2.8
			c-6.8-0.1-13.7-0.2-20.5-0.3c-2.1,0-3.8,0.7-3.9,2.9c-0.2,2.6,1.6,3.4,3.9,3.4c3,0,6,0.1,9,0c1.8,0,2.7,0.6,2.9,2.6
			c0.6,7.3-4.7,14.9-11.8,16.5c-10.8,2.4-21.2-2.9-25.8-13.1c-4.9-10.7-1.7-24.5,7.2-31.2c9-6.7,19.9-6.2,28.9,1.3
			c2.1,1.8,4.1,4.5,7.3,2.8c3-1.6,2.3-4.9,2.7-7.6c0.3-2.1,0-4.1-2.6-4.6C1128.7-21.4,1127.2-20,1127-16.3z M950.4-10.7
			c0.3,5.3,0.5,9.4,0.8,13.6c0.2,2.6-0.2,4-3.4,3.9c-7.3-0.3-14.7-0.4-22-0.3c-2.8,0-3.8-0.7-3.5-3.7c0.8-7.6,1.4-15.2,1.9-22.9
			c0.2-2.6,1.3-6.2-3.2-6.4c-4-0.2-3.6,3.1-3.8,5.7c-0.6,7.6-1.3,15.3-1.8,22.9c-0.2,2.3-0.2,4.3-3.4,4.3c-1.4,0-2.5,0.9-2.7,2.4
			c-0.2,1.3,0.1,2.8,1.3,2.9c5.2,0.7,3.7,4.3,3.4,7.5c-0.4,4.8-0.8,9.6-1.2,14.4c-0.3,2.6-0.6,5.2,3.1,5.5c3.3,0.3,3.7-2.1,3.9-4.5
			c0.5-6.3,1.1-12.6,1.5-18.9c0.1-2.2,0.5-3.3,3.1-3.2c8,0.4,16,0.6,24,0.7c2.4,0,3.1,0.9,3.1,3.2c0,5.3,0.2,10.7,0.4,16
			c0.1,2.7-0.6,6.2,3.8,6.1c4.6-0.1,3.3-3.9,3.3-6.4c0-5-0.3-10-0.5-15c-0.1-2.1-0.2-4,2.8-4c1.6,0,2.7-1.4,2.6-3.1
			c-0.1-1.4-0.8-2.7-2.4-2.8c-3.4-0.2-3.3-2.6-3.3-4.9c-0.3-8.3-0.5-16.6-0.8-25c-0.1-2.3-1-3.9-3.6-3.9s-3.3,1.7-3.3,4
			C950.4-18.3,950.4-13.9,950.4-10.7z M890.3-19c-4.6-4-9-6.4-14.4-6.7c-18.1-1.1-32.4,14.1-32.1,34.2c0.3,19.2,14,32.1,32.4,30.4
			c13.7-1.2,22.7-8.4,24.4-19.5c0.4-2.5,1.1-5.3-2.4-6c-3.8-0.9-4.5,1.9-4.6,4.8c-0.2,4.3-2.2,7.6-5.5,10.2
			c-11,8.6-29.8,3.7-35.2-9.2c-4.3-10.1-1.5-24.4,6.1-32.1c8.3-8.4,20.1-8.5,28.5-0.3c1.4,1.4,2.6,3.1,4.1,4.4
			c2.6,2.2,5.4,1.2,5.7-2.1c0.3-3.8,0.2-7.7,0.1-11.5c0-1.7-1.2-2.7-2.9-2.8c-1.6-0.1-3,0.5-3.4,2.3C890.7-22,890.6-20.9,890.3-19z
			 M697.4-19.1c-12.2-8.4-23.7-8.8-33.6-1.1c-8.4,6.5-12.4,15.6-13,25.9c-0.7,11.5,2.3,21.8,12.5,28.2c10.3,6.5,21.4,6.9,32.4,1.5
			c7.2-3.5,11.5-9.5,12-17.7c0.1-2.3,0-4.4-3.2-4.5c-2.9-0.1-3.7,1.6-3.8,4.1c-0.3,7.3-4.6,11.5-11.1,13.8
			c-4.5,1.6-9.1,1.7-13.8,0.7c-19.8-4.4-22-26.4-13.2-40.7c6.2-10.1,17.8-13.4,27.2-8.1c3.3,1.8,5.6,4.6,8.1,7.4
			c2.6,2.8,5.9,2.3,6.3-1.1c0.5-3.9,0.3-8,0.1-12c-0.1-1.6-1.3-2.7-3-2.7c-1.8,0-3.3,0.8-3.6,2.8C697.5-21.5,697.4-20.4,697.4-19.1z
			 M837.4,20.3c-0.1-2.1-1.1-3.7-2.9-3.7c-3.2,0-3.6-2.1-4.2-4.4c-2.9-9.7-5.8-19.4-9.1-29c-1.3-3.8-2-8.9-7.4-8.7
			c-5.2,0.1-6.1,5-7.4,8.9c-5.6,16.5-11.1,33-16.6,49.6c-0.8,2.4-2,5.1,1.5,6.2c3.5,1.1,4.5-1.4,5.4-4.2
			c3.8-11.6,3.9-11.6,16.4-11.5c4.3,0,9.6-1.6,12.6,0.9c2.6,2.1,2.8,7.2,3.9,11c0.9,2.9,2.3,5,5.7,3.8c3.3-1.1,1.7-3.6,1.3-5.8
			c-0.7-3.9-4.8-8.1,0.6-11.7C837.4,21.4,837.3,20.7,837.4,20.3z M986.4-2.6c-0.3,0-0.6,0-0.9,0c0,8.3,0.1,16.6,0,24.9
			c-0.2,8.9-0.3,8.9-9.3,9.2c-0.3,0-0.7,0-1,0c-2.3,0-3.5,1.4-3.5,3.4c0,1.9,1.3,3,3.3,3.1c9,0.1,18,0.3,27,0.3
			c1.9,0,3.1-1.2,3.2-3.2c0-1.9-1.1-3.1-3.1-3.2c-1.8-0.1-3.7-0.2-5.5,0c-3.5,0.4-4.6-0.9-4.3-4.4c1.1-13.1,1.3-26.3,1.3-39.4
			c0-6.7,0-6.8,6.9-6.7c2.4,0,4.5-0.2,4.7-3.1c0.1-2.7-2.2-3.2-4.2-3.3c-8.8-0.7-17.6-0.6-26.4,0.5c-2.2,0.3-3.3,1.4-3.1,3.7
			c0.2,2.2,1.7,2.4,3.5,2.6c3.8,0.3,9-2.4,11.1,1c1.8,2.9,0.4,7.8,0.5,11.8C986.5-4.6,986.4-3.6,986.4-2.6z"/>
		<path class="st0" d="M973.4-76.6c-5.2,3.3-11.4,2.3-16.9,2.6c-12.6,0.7-25,2.4-37.6,3.5c-16,1.4-32,2.4-47.9,4.7
			c-8.8,1.2-17.8,1.4-26.7,2.2c-12.7,1.2-25.3,2.8-38,3.7c-8.8,0.6-17.5,1.2-26.2,2.2c-17.1,2.1-34.3,2.7-51.4,4.8
			c-12.8,1.6-25.7,2-38.6,3.2c-11.7,1.1-23.3,2.9-35,3.7c-8.9,0.6-17.8,1.2-26.7,2.3c-16.7,2.1-33.6,2.5-50.4,4.8
			c-8.8,1.2-17.8,1.4-26.7,2.2c-12,1.2-24,2.6-36,3.8c-8.9,0.9-17.8,1.7-26.7,2.1c-6.3,0.3-12.5,1.3-18.7,2.2
			c1.3-19.4,2.4-38.8,3.9-58.3c1.5-20.1,3.2-40.1,4.7-60.2c0.3-3.5,0.6-4.9,4.8-4c59.4,12.6,119.1,23.5,179.1,33.1
			c44.3,7.1,88.8,13.7,133.3,19.4c36,4.6,71.9,9.2,108,13.6c22.1,2.7,44.3,4.9,66.5,7.4C971.3-77.4,972.5-77.5,973.4-76.6z"/>
		<path class="st2" d="M636.1,127.2c7.2-5.6,11.1-5.4,15.8,1.1c2-1.8,3.7-4.1,6.6-4.8c5.3-1.2,9.2,1.5,9.6,7.2
			c0.4,4.8,0.1,9.6,0.2,14.5c0,1.3-0.1,2.5-1.8,2.3c-1.8-0.1-1.4-1.6-1.4-2.7c-0.1-3.8,0.1-7.7-0.1-11.5c-0.2-3.3-0.4-7-5.1-7.1
			c-3.7-0.1-7.3,3-7.6,7.1c-0.3,3.5-0.1,7-0.2,10.5c0,1.3,0.7,3.5-1.5,3.6c-2.7,0.1-1.7-2.4-1.7-3.8c-0.1-3.3,0.1-6.7-0.1-10
			s-0.2-7-4.8-7.4c-3.8-0.4-7.6,2.9-8,7.3c-0.3,3.6-0.1,7.3-0.2,11c0,1.2,0.5,3-1.6,2.9c-2-0.1-1.5-1.8-1.5-3.1
			c0-5.8-0.1-11.6,0-17.5c0-1.2-0.6-3.1,1.3-3.2C636.3,123.5,634.7,126.1,636.1,127.2z"/>
		<path class="st2" d="M1162.3,145c-8.2,4.2-13.2,3.6-17.1-1.9c-3.6-5.1-2.8-12.8,1.6-17c4.3-4.1,9.7-3.7,15.7,1
			c1.9-0.4-0.1-3.8,2.4-3.4c2.4,0.4,1.3,2.7,1.4,4.1c0.1,6.3,0,12.7,0.1,19c0,4.9-2,8.4-6.6,10.1c-5,1.8-9.8,1.5-14-2.1
			c-0.8-0.7-2.1-1.6-0.9-2.8c1-1,1.8,0.2,2.4,0.8c1.4,1.3,3.1,1.9,4.9,2.3C1159.1,156.7,1163.3,152.5,1162.3,145z M1162.8,136.2
			c0-6.7-2.6-10-8.1-10c-4.9,0-8.3,3.7-8.4,9.2c-0.1,5.3,3.7,9.8,8.4,9.9C1159.5,145.5,1162.7,141.9,1162.8,136.2z"/>
		<path class="st2" d="M783.8,127.1c7.5-5.6,11.1-5.4,15.9,0.9c1.2-1,2.3-2.2,3.6-3.1c5.6-3.9,11.4-1.7,12.3,4.9
			c0.7,5.1,0.3,10.3,0.4,15.4c0,1-0.2,2.1-1.5,2.2c-1.7,0.1-1.8-1.1-1.8-2.4c0-3.8,0.1-7.7-0.1-11.5c-0.1-3.4-0.2-7-4.9-7.4
			c-3.6-0.3-7.4,2.8-7.9,6.9c-0.4,3.6-0.1,7.3-0.3,11c-0.1,1.3,0.8,3.4-1.7,3.3c-2-0.1-1.4-1.9-1.5-3.1c-0.1-3.5,0.1-7-0.1-10.5
			c-0.1-3.5-0.2-7.3-5.2-7.6c-3.7-0.2-7.5,3.3-7.8,7.6c-0.3,3.3,0,6.7-0.1,10c-0.1,1.3,1,3.5-1.3,3.6c-2.5,0.2-1.6-2.1-1.6-3.3
			c-0.1-5.7-0.1-11.3,0-17c0-1.2-0.8-3.1,1-3.4C783.9,123.3,782.8,125.9,783.8,127.1z"/>
		<path class="st2" d="M678.1,144.3c0,3.8,0,7.1,0,10.4c0,1.1,0.1,2.5-1.6,2.5c-1.7,0.1-1.7-1.3-1.7-2.4c0-9.6,0-19.3,0-28.9
			c0-0.8,0-1.8,0.9-2.1c0.9-0.4,1.6,0,1.9,0.9c0.8,2.8,2.1,1,3.2,0.4c5.7-3,10.8-2,14.5,2.8c3.8,5,3.4,12.5-0.9,17
			c-4.1,4.3-8.9,4.4-14.7,0.3C679.6,144.9,679.3,144.8,678.1,144.3z M678.1,135.6c0,5.7,3.4,9.7,8.2,9.7c4.7,0,8.4-4.4,8.3-9.9
			c-0.1-5.3-3.6-9.1-8.3-9.2C680.7,126.2,678,129.2,678.1,135.6z"/>
		<path class="st2" d="M887.8,127.1c6.6-5.1,8.9-5.2,14.5-0.3c1.8,1.6,2.2,0.2,3.1-0.6c2.9-2.8,6.4-3.8,10.1-2.3
			c3.8,1.6,4.1,5.3,4,9c0,3.5,0.1,7-0.1,10.5c-0.1,1.4,1,4-1.5,3.8c-2.3-0.1-1.3-2.7-1.3-4.1c-0.2-3,0-6-0.1-9
			c-0.1-3.5-0.1-7.4-5-7.8c-3.9-0.4-7.7,3.3-8.1,7.9c-0.2,2.8,0.1,5.7-0.1,8.5c-0.1,1.6,1.2,4.5-1.3,4.5c-3.1,0-1.4-3.1-1.5-4.8
			c-0.3-3,0.1-6-0.2-9c-0.3-3.3-0.5-6.9-5.2-7.2c-3.7-0.2-7.4,2.9-7.7,7c-0.3,3.6-0.1,7.3-0.2,11c0,1.2,0.5,3.1-1.6,3
			c-2-0.1-1.3-2-1.4-3.2c-0.1-5.7-0.1-11.3,0-17c0-1.2-0.7-3.1,1.1-3.4C887.7,123.4,886.5,126.1,887.8,127.1z"/>
		<path class="st2" d="M1238.1,137c-2.2,0-4.3,0.1-6.5,0c-4-0.2-3.6,1.8-2.1,4.3c2.8,4.9,8.4,5.7,13.6,1.6c0.9-0.7,1.6-2.1,2.8-0.8
			c1.2,1.2-0.2,2.1-1,2.9c-3.4,3.6-9.8,4.2-14.3,1.5c-4.9-2.9-7.1-9.2-5.3-14.7c1.8-5.5,6.3-8.6,12.1-8.4c5.3,0.2,10,4.2,10.9,9.3
			c0.5,3,0,4.9-3.7,4.5C1242.5,136.8,1240.3,137,1238.1,137z M1236.8,134.4c1.8,0,3.7-0.1,5.5,0c3.7,0.3,3.3-1.5,2.2-3.9
			c-2.8-5.7-10.6-6.5-14.5-1.4c-1,1.3-2.2,2.8-1.3,4.5c0.7,1.4,2.4,0.6,3.7,0.7C1233.8,134.5,1235.3,134.4,1236.8,134.4z"/>
		<path class="st2" d="M1129.7,137c-2.2,0-4.3-0.1-6.5,0c-1.2,0.1-2.9-0.7-3.5,1c-0.5,1.3,0.5,2.6,1.2,3.6c3.1,4.6,8.6,5.2,13.3,1.3
			c0.9-0.7,1.7-2.1,2.8-1c1.5,1.4-0.3,2.4-1.1,3.2c-3.5,3.4-9.3,4-13.9,1.5c-4.9-2.7-7.2-8.5-5.8-14.1c1.4-5.4,5.6-9,11-9.2
			c5.5-0.2,10.1,2.9,11.8,8.1c1.5,4.5,0.7,5.6-4,5.6C1133.3,137,1131.5,137,1129.7,137z M1127.6,134.4c1.8,0,3.7-0.1,5.5,0
			c3.7,0.3,3.9-1.3,2.4-4.1c-2.8-5.2-10-6.1-13.9-1.7c-1.2,1.4-2.6,3.1-1.9,4.8c0.8,1.9,2.9,0.7,4.5,0.9
			C1125.3,134.5,1126.5,134.4,1127.6,134.4z"/>
		<path class="st2" d="M938.2,137c-2.2,0-4.3,0.1-6.5,0c-3.9-0.2-3.7,1.6-2.2,4.2c2.7,4.8,8.5,5.7,13.3,2.1c0.9-0.7,1.7-2.8,3.1-1.2
			c1.5,1.6-0.6,2.6-1.6,3.5c-3.8,3.2-9.7,3.5-14,0.7s-6.5-8.5-5.3-13.5c1.4-5.6,5.5-9.1,10.8-9.4c5.5-0.3,9.8,2.4,11.8,7.3
			c2,5,1.2,6.3-4,6.3C941.8,137,940,137,938.2,137z M936.8,134.4c1.8,0,3.7-0.1,5.5,0c3.7,0.3,3.3-1.5,2.1-3.9
			c-2.8-5.7-10.6-6.5-14.5-1.4c-1,1.3-2.2,2.8-1.3,4.5c0.7,1.4,2.4,0.6,3.7,0.7C933.8,134.5,935.3,134.4,936.8,134.4z"/>
		<path class="st2" d="M576.2,145.9c0.2,1.9-1.1,1.9-2.2,1.3c-0.8-0.4-1.2-1.5-1.7-2.3c-1.4-2.4-1.2-6.5-3.9-7.1
			c-3.9-1-8.2-0.3-12.4-0.4c-1.8,0-2,1.5-2.6,2.6c-0.8,1.8-1.5,3.7-2.2,5.5c-0.5,1.4-1.5,2.4-3,1.8c-1.7-0.7-0.4-2,0-2.9
			c3.7-9,7.5-18.1,11.3-27.1c0.4-1,0.7-2.3,2.2-2.5s2,1,2.4,2c3.9,9.3,7.7,18.7,11.6,28C576,145.2,576.1,145.5,576.2,145.9z
			 M561.7,119.5c-1.8,4.5-3.6,8.7-5.4,13c-0.7,1.6-0.6,2.6,1.5,2.5c3.3-0.1,7.6,1,9.6-0.6c1.8-1.5-1.3-5.2-2.3-7.9
			C564.2,124.2,563.7,121.7,561.7,119.5z"/>
		<path class="st2" d="M712,133.3c0.9,0.1,1.4,0.3,1.9,0.1c1.5-0.5,3.8,2.3,4.5-0.6c0.6-2.7-0.7-5.3-3.5-6.5c-3-1.3-5.8-0.5-8.6,0.8
			c-0.8,0.4-1.9,1.4-2.5,0.1c-0.6-1.2,0.6-1.7,1.5-2.1c3.9-2.1,7.9-2.6,11.9-0.7c3.9,1.8,4.4,5.4,4.7,9.2c0.3,3.9-0.8,7.9,0.9,11.8
			c0.9,2.1-1.2,3.1-2.4,1.8c-2.3-2.6-4.1-0.9-6.1,0c-0.8,0.3-1.6,0.6-2.4,0.8c-4.9,1.1-9.7-1.7-10.4-6.1c-0.6-4.1,2.4-7.5,7.4-8.3
			C710.1,133.4,711.2,133.4,712,133.3z M710.5,145.5c4.7,0,8-2.5,8-6.3c0-4.6-3.7-3.6-6.1-3.7c-3.5-0.2-7.5,0.3-7.8,4.9
			C704.3,144,707.1,145.5,710.5,145.5z"/>
		<path class="st2" d="M754.5,128.2c3.6-4.8,7.6-5.2,11.7-4.7c3.4,0.4,5.9,2.3,7,5.6c1.7,5.6-0.5,11.6,1.7,17.2
			c0.5,1.3-1.7,1.9-2.4,1c-2.3-2.8-4.3-0.8-6.5,0c-2.4,0.9-4.8,1.3-7.3,0.3c-3.1-1.2-5-3.3-5.2-6.7c-0.2-3.3,1.8-5.2,4.5-6.5
			c3.1-1.5,6.5-1.5,9.8-0.6c3.2,0.9,3-0.9,2.6-2.8c-0.9-4.2-3.8-5.7-7.8-5.1C760.2,126.2,758,127.2,754.5,128.2z M764.6,135.3
			c-3.7,0.5-7.7,0.4-8.1,5.1c-0.2,3.6,2.4,5.1,5.9,5.2c4.7,0,8-2.5,8-6.2C770.6,134.6,766.7,136.3,764.6,135.3z"/>
		<path class="st2" d="M985.5,135.8c-0.1,7-5,12.3-11.6,12.4c-6.5,0-12.1-5.8-12.1-12.7c0-6.7,5.8-12.4,12.4-12.2
			C980.9,123.5,985.6,128.7,985.5,135.8z M965.3,135.6c0,5.3,3.9,9.7,8.6,9.7c4.7,0,8.6-4.6,8.6-9.8c0-5.1-3.7-9.2-8.4-9.3
			C969.1,126.1,965.3,130.2,965.3,135.6z"/>
		<path class="st2" d="M844.5,135.7c0,7.1-4.9,12.4-11.5,12.5c-6.5,0.1-12.2-5.6-12.3-12.5c-0.1-6.7,5.6-12.5,12.3-12.4
			C839.8,123.4,844.6,128.6,844.5,135.7z M833,126.2c-5,0-8.7,4-8.7,9.5c0,5.3,4,9.7,8.7,9.6s8.6-4.7,8.5-9.9
			C841.4,130.3,837.7,126.3,833,126.2z"/>
		<path class="st2" d="M615.5,123.3c6.7,0,11.7,5.1,11.9,12.1c0.1,7.1-5.1,12.9-11.8,12.8c-6.6,0-12.2-5.9-12.1-12.7
			C603.7,128.9,609.1,123.4,615.5,123.3z M607.1,135.7c0,5.3,4,9.8,8.7,9.6c4.4-0.1,8.5-4.6,8.6-9.4c0.2-5.2-3.8-9.6-8.7-9.7
			C610.6,126.2,607.1,130,607.1,135.7z"/>
		<path class="st2" d="M1014.9,133.3c1,0,1.7,0.2,2.3,0.1c1.6-0.4,4.1,2.2,4.7-0.3c0.6-2.6-0.4-5.6-3.6-6.9
			c-3.1-1.3-5.8-0.3-8.6,0.9c-0.7,0.3-1.7,1.6-2.4-0.1c-0.4-1,0.5-1.5,1.2-1.9c3.8-2.2,7.9-2.7,12-0.9c3.8,1.7,4.7,5.3,4.9,9.1
			c0.2,3.9-0.9,8,0.8,11.8c0.3,0.8,0.4,1.7-0.7,2c-0.8,0.3-2,0.2-2.2-0.5c-1.1-3-2.4-1.5-3.9-0.5c-0.3,0.2-0.6,0.3-0.9,0.5
			c-3.9,1.8-7.7,2.2-11.1-0.9c-2.1-1.9-3.2-4.3-2-7.2C1007.2,134.4,1011,133.5,1014.9,133.3z M1015.6,135.3
			c-3.4,0.5-7.2,0.6-7.4,5.1c-0.2,3.7,2.3,5.2,5.9,5.1c4.7,0,8.7-3.1,8.1-6.8C1021.6,134.6,1018,136,1015.6,135.3z"/>
		<path class="st2" d="M1197.1,133.3c0.9,0.1,1.6,0.2,2.3,0.1c1.6-0.4,4,2.2,4.5-0.4c0.5-2.3-0.4-5-2.9-6.4
			c-3.1-1.7-6.1-0.8-9.1,0.4c-0.8,0.3-1.7,1.5-2.5,0.3c-0.7-1.1,0.4-1.7,1.3-2.2c3.7-2.1,7.6-2.6,11.5-0.9c3.9,1.6,4.9,5,5.1,9
			c0.2,4.1-0.9,8.3,0.9,12.3c0.2,0.4,0,1.5-0.4,1.7c-0.9,0.6-2.3,0.5-2.6-0.5c-1-2.6-2.1-1.6-3.5-0.5c-0.3,0.2-0.6,0.3-0.9,0.5
			c-3.8,1.9-7.7,2.5-11.2-0.6c-2.3-2-3.5-4.6-2.1-7.6C1189.4,134.3,1193.2,133.4,1197.1,133.3z M1198,135.3
			c-3.6,0.5-7.6,0.4-7.8,5.3c-0.1,3.4,2.2,4.9,5.5,5c4.7,0.1,8.6-2.8,8.5-6.5C1204,134.6,1200.2,136.2,1198,135.3z"/>
		<path class="st2" d="M1047.9,127.3c-2.9,0.5-5-1.8-7.7-1.6c-2.5,0.2-5.3,0.1-6,3.3c-0.8,3.5,1.9,4.1,4.4,4.8
			c2.2,0.6,4.5,1.1,6.7,2c2.3,0.9,4,2.6,3.9,5.3c0,2.5-1.2,4.4-3.4,5.7c-3.8,2.2-10.9,1.8-14.3-0.9c-0.8-0.6-1.8-1.3-1-2.4
			c0.8-1.2,1.8-0.3,2.5,0.2c2.8,1.9,5.9,2.2,9.1,1.7c2-0.3,3.4-1.6,3.7-3.5c0.4-2.2-1.2-3.4-3-4c-2.7-0.9-5.5-1.4-8.1-2.5
			c-4-1.5-5-4.9-2.9-8.4C1034.8,121.9,1044.4,122.1,1047.9,127.3z"/>
		<path class="st2" d="M865.8,127c-1.4,1.2-2.4,0-3.6-0.4c-2.2-0.8-4.5-1.1-6.9-0.5c-2,0.5-3.2,1.6-3.3,3.8c-0.1,2.1,1.2,3,2.9,3.5
			c2.4,0.7,4.8,1.3,7.2,2c2.8,0.8,4.9,2.4,5,5.5c0,3.4-1.9,5.5-5.1,6.6c-4.4,1.5-8.5,0.7-12.5-1.5c-0.8-0.5-1.9-1.1-1.2-2.3
			c0.7-1.3,1.7-0.6,2.5,0c2.5,1.7,5.2,2.1,8.1,1.9c2.4-0.1,4.3-1.1,4.8-3.6c0.6-2.8-1.6-3.7-3.7-4.4c-2.5-0.8-5.2-1.3-7.6-2.3
			c-4.1-1.7-4.9-6.1-1.8-9.4C854.2,122,862.3,122.6,865.8,127z"/>
		<path class="st2" d="M1079.7,127c2-1.2,3.6-2.4,5.5-3.1c5.8-2.2,10.3,0.3,10.9,6.3c0.5,4.9,0.2,10,0.2,14.9c0,1-0.2,2.1-1.5,2.1
			c-1.4,0-1.5-1.1-1.5-2.1c0-3.8,0.2-7.7-0.1-11.5c-0.3-3.3-0.2-7.4-5.3-7.5c-4.2-0.1-8.3,3.7-8.5,8.1c-0.2,3.2,0,6.3-0.1,9.5
			c0,1.3,0.7,3.6-1.6,3.4c-2.2-0.1-1.3-2.3-1.3-3.6c-0.1-5.5-0.1-11,0-16.5c0-1.2-0.7-3.1,1.1-3.4
			C1079.7,123.4,1078.5,126.1,1079.7,127z"/>
		<path class="st2" d="M591,123.3c2.3-0.1,4.9,0.5,6.9,2.5c0.9,0.8,2.6,1.8,1.7,3.1c-0.9,1.2-2.4,0.6-3.5-0.5
			c-1.2-1.2-2.6-2-4.4-2.1c-4.1-0.4-7.2,1.2-8.9,4.9c-1.9,4.1-0.6,9.7,2.7,12.3c3.3,2.5,6.7,2.4,10.1,0c1.2-0.9,2.5-3.4,4-1.3
			c1.4,2-1.2,3.1-2.5,4c-4,2.9-9.5,2.6-13.5-0.4c-4.3-3.2-6-9-4.3-14.3C581,126.3,585.1,123.4,591,123.3z"/>
		<path class="st2" d="M731.8,127.1c2.1-1.2,3.7-2.4,5.6-3.1c6.1-2.4,10.7,0.5,11,7.1c0.2,4.5,0.1,9,0,13.5c0,1.1,0.4,2.6-1.3,2.7
			c-2.2,0.1-1.6-1.7-1.6-2.9c-0.1-3.3,0.1-6.7-0.1-10c-0.1-3.7,0-7.7-5.1-8.2c-4.3-0.4-8.6,3.7-8.8,8.4c-0.2,3,0.1,6-0.1,9
			c-0.1,1.3,0.9,3.6-1.3,3.6c-2.7,0-1.5-2.5-1.6-3.8c-0.1-5.3-0.1-10.7,0-16c0-1.3-1-3.4,1.2-3.7C732,123.5,730.8,126.1,731.8,127.1
			z"/>
		<path class="st2" d="M1261.7,123.3c2.4-0.1,4.6,0.5,6.6,1.8c0.7,0.5,1.4,1.1,0.9,2c-0.5,1-1.4,0.6-2.1,0.2
			c-2.7-1.4-5.5-2.4-8.5-1.2c-1.8,0.7-3.2,1.9-3.1,4c0.1,2,1.5,2.8,3.2,3.3c2.5,0.7,5.1,1.3,7.6,2.2c2.5,0.9,4.3,2.4,4.2,5.4
			c0,2.8-1.4,4.7-3.8,5.9c-4.4,2.2-8.7,1.4-12.9-0.6c-1-0.5-2.5-1.1-1.9-2.4c0.7-1.5,2-0.6,3,0c2.7,1.7,5.6,1.9,8.6,1.4
			c2.1-0.4,3.7-1.5,3.9-3.9c0.2-2.3-1.5-3.2-3.3-3.8c-2-0.7-4.2-1-6.2-1.6c-3.2-1-6-2.3-5.5-6.4c0.5-3.9,3.2-5.6,6.7-6.2
			C1260,123.3,1260.9,123.3,1261.7,123.3z"/>
		<path class="st2" d="M1103.6,135.4c-1.4-2.8,2.8-7.6-2.8-9.8c1.2-3.3,2.2-6.7,3.9-9.8c0.6-1,2,0.3,2.1,1.7c0.1,3-0.8,6.7,4.4,6.2
			c0.6-0.1,1.1,0.7,0.9,1.5c-0.2,0.8-0.9,1.1-1.5,1c-4.3-0.4-3.8,2.5-3.8,5.2c0,2.2,0,4.3,0,6.5c0.1,3.6-0.9,8,5.3,6.7
			c0.7-0.2,1.4,0.3,1.3,1c0,0.5-0.5,1.2-1,1.5c-3.6,2.5-8.5,0.2-8.9-4.2C1103.4,140.6,1103.6,138.2,1103.6,135.4z"/>
		<path class="st2" d="M1213.8,129.4c0-4,0-8,0-12c0-1.4-0.4-3.3,1.9-3.2c2,0.1,1.5,1.8,1.5,3.1c0,7.5,0,15,0,22.4
			c0,2.8-0.3,5.6,4,5.1c0.8-0.1,1.2,0.5,1.4,1.1c0.2,1.1-0.6,1.3-1.4,1.6c-3.6,1.5-7-0.5-7.3-4.8
			C1213.6,138.3,1213.8,133.8,1213.8,129.4L1213.8,129.4z"/>
		<path class="st2" d="M957,137.2c0,3.7,0.2,7.3-0.1,11c-0.4,5.6-4.9,8.9-9.4,7.5c-1.1-0.3-2.5-0.6-2.2-2.1c0.3-1.3,1.5-0.9,2.5-0.7
			c4.2,0.6,5.7-1.6,5.7-5.5c-0.1-6.8,0-13.6,0-20.5c0-1.4-0.5-3.4,1.9-3.2c2,0.1,1.5,1.8,1.6,3.1C957.1,130.2,957.1,133.7,957,137.2
			C957.1,137.2,957,137.2,957,137.2z"/>
		<path class="st2" d="M1176.7,127.1c1.9-1.3,3.6-2.9,6-3.4c0.8-0.2,1.7-0.2,2.1,0.7c0.4,0.9,0.2,1.8-0.8,2c-8.6,1.8-8,8.2-8,14.7
			c0,2.1,1.7,6.2-1.5,6.2s-1.4-4-1.6-6.2c-0.3-4.5-0.1-8.9-0.1-13.4c0-1.4-0.7-3.4,1.2-3.9C1176.6,123,1175.6,126,1176.7,127.1z"/>
		<path class="st2" d="M994.8,127.2c2.1-1.6,3.8-3.2,6.2-3.6c0.8-0.1,1.7-0.1,2.1,0.9c0.3,0.9,0,1.7-1,1.9
			c-7.8,1.6-8.2,7.3-7.9,13.7c0.1,2.4,1.4,6.9-1.2,6.8c-3.6-0.2-1.3-4.5-1.5-7c-0.4-4.3-0.2-8.6-0.1-12.9c0-1.2-0.6-3,1.2-3.3
			C994.9,123.3,993.9,125.8,994.8,127.2z"/>
		<path class="st2" d="M1069.2,135.5c0,3.3,0,6.6,0,10c0,1.1-0.5,1.9-1.8,1.8c-1.1-0.1-1.2-1.1-1.2-1.9c0-6.6,0-13.3,0-19.9
			c0-0.8,0.1-1.7,1.2-1.8c1.3-0.1,1.7,0.8,1.7,1.9C1069.3,128.9,1069.3,132.2,1069.2,135.5z"/>
		<path class="st2" d="M731.8,118.7c1-4.3,3.3-5.2,6.3-3.5c2.5,1.4,4.6,1.4,6.9-0.4c-0.7,3.1-2.6,4.3-5.6,3.2
			C736.8,117,734.4,114.7,731.8,118.7z"/>
		<path class="st2" d="M957,116.2c0,1.2-0.1,2.4-1.7,2.5c-1.3,0.1-1.8-0.6-1.7-1.8c0-1.1-0.4-2.5,1.3-2.7
			C956.3,114,957.1,114.7,957,116.2z"/>
		<path class="st2" d="M1022.3-12.2c0,6.4,0,12.8,0,19.3c0,8.8,0,17.6,0.1,26.5c0,2.7-1.1,4.1-3.8,4s-3.2-1.8-3.2-4.1
			c0-17.8-0.1-35.6-0.1-53.4c0-5,3.3-6.6,7.6-3.8c3.7,2.4,5.9,6.3,8.2,9.9c8,12.3,15.3,25,23.8,36.9c1.2,1.6,2.3,3.2,4,5.4
			c1.1-4.4,1.3-8.3,1.3-12.1c0-12.2,0-24.3,0-36.5c0-2.5-0.5-5.4,3.3-5.5c4-0.2,3.9,2.8,3.8,5.5c-0.3,16.1,0.8,32.3-0.9,48.4
			c-0.1,0.7-0.1,1.3-0.2,2c-0.7,2.7-0.8,6-4,7c-3.3,1.1-5.8-1.1-7.8-3.4c-7.1-7.8-12-17.1-17.8-25.9c-4.5-6.8-8.8-13.7-13.2-20.6
			C1023.2-12.5,1022.7-12.4,1022.3-12.2z"/>
		<path class="st2" d="M715.6,7.3c0-19.3,12.6-33,30.1-32.8C763.8-25.3,777.4-11,777.5,8c0,18-12.9,30.1-32,30
			C726.9,37.8,715.5,26.1,715.6,7.3z M746.1,31.4c14.7,0,24.3-9.3,24.3-23.7c0-15.3-10.3-26.4-24.5-26.5
			c-14-0.1-23.5,10.3-23.5,25.9C722.4,21.9,731.5,31.3,746.1,31.4z"/>
		<path class="st2" d="M1127-16.3c0.3-3.7,1.7-5.1,4.6-4.5c2.6,0.5,2.9,2.6,2.6,4.6c-0.3,2.7,0.3,6-2.7,7.6c-3.3,1.7-5.2-1-7.3-2.8
			c-9-7.5-19.9-8-28.9-1.3c-8.9,6.7-12.1,20.5-7.2,31.2c4.7,10.2,15,15.5,25.8,13.1c7-1.5,12.4-9.1,11.8-16.5
			c-0.2-2-1.1-2.6-2.9-2.6c-3,0-6,0-9,0c-2.3,0-4.1-0.8-3.9-3.4c0.2-2.2,1.8-2.9,3.9-2.9c6.8,0.1,13.7,0.2,20.5,0.3
			c2,0,3.7,0.4,4,2.8c0.2,2.3-1.2,3.5-3.3,3.4s-2.4,1.1-2.6,2.8c-1.1,15.5-9.5,21.3-17.8,22.7c-13.6,2.2-26.2-4-32.3-15.7
			c-9.6-18.5,0.2-41.4,19.8-45.6C1111.1-25,1119.4-23.5,1127-16.3z"/>
		<path class="st2" d="M950.4-10.7c0-3.2,0-7.5,0-11.9c0-2.3,0.7-4,3.3-4c2.5,0,3.5,1.6,3.6,3.9c0.3,8.3,0.5,16.6,0.8,25
			c0.1,2.3,0,4.7,3.3,4.9c1.6,0.1,2.3,1.4,2.4,2.8c0.1,1.7-0.9,3.1-2.6,3.1c-3.1,0-2.9,1.9-2.8,4c0.2,5,0.5,10,0.5,15
			c0,2.5,1.3,6.3-3.3,6.4c-4.4,0.1-3.7-3.4-3.8-6.1c-0.2-5.3-0.4-10.7-0.4-16c0-2.3-0.7-3.2-3.1-3.2c-8-0.1-16-0.3-24-0.7
			c-2.6-0.1-3,1.1-3.1,3.2c-0.4,6.3-1,12.6-1.5,18.9c-0.2,2.5-0.6,4.8-3.9,4.5c-3.7-0.3-3.3-2.9-3.1-5.5c0.5-4.8,0.8-9.6,1.2-14.4
			c0.3-3.1,1.8-6.7-3.4-7.5c-1.2-0.2-1.5-1.7-1.3-2.9c0.2-1.6,1.3-2.4,2.7-2.4c3.2,0,3.2-2,3.4-4.3c0.5-7.6,1.2-15.3,1.8-22.9
			c0.2-2.6-0.2-5.9,3.8-5.7c4.5,0.2,3.3,3.8,3.2,6.4c-0.5,7.6-1.1,15.3-1.9,22.9c-0.3,2.9,0.7,3.7,3.5,3.7c7.3-0.1,14.7,0,22,0.3
			c3.2,0.1,3.6-1.3,3.4-3.9C950.9-1.3,950.7-5.4,950.4-10.7z"/>
		<path class="st2" d="M890.3-19c0.3-1.9,0.4-3,0.7-4.1c0.5-1.7,1.8-2.3,3.4-2.3c1.7,0.1,2.9,1.1,2.9,2.8c0.1,3.8,0.3,7.7-0.1,11.5
			c-0.3,3.3-3.2,4.3-5.7,2.1c-1.5-1.3-2.7-3-4.1-4.4c-8.4-8.3-20.2-8.2-28.5,0.3c-7.7,7.8-10.4,22-6.1,32.1
			c5.4,12.9,24.2,17.8,35.2,9.2c3.3-2.6,5.3-5.9,5.5-10.2c0.2-2.9,0.8-5.6,4.6-4.8c3.4,0.8,2.7,3.6,2.4,6
			c-1.7,11.1-10.7,18.3-24.4,19.5c-18.5,1.7-32.1-11.2-32.4-30.4c-0.3-20.2,14-35.4,32.1-34.2C881.3-25.4,885.7-23,890.3-19z"/>
		<path class="st2" d="M697.4-19.1c0.1-1.3,0.1-2.4,0.3-3.5c0.3-2,1.7-2.8,3.6-2.8c1.7,0,3,1.1,3,2.7c0.1,4,0.4,8-0.1,12
			c-0.4,3.4-3.8,3.9-6.3,1.1c-2.5-2.7-4.8-5.5-8.1-7.4c-9.4-5.3-21-2-27.2,8.1c-8.8,14.3-6.6,36.3,13.2,40.7c4.6,1,9.3,0.9,13.8-0.7
			c6.5-2.3,10.8-6.5,11.1-13.8c0.1-2.5,0.9-4.2,3.8-4.1c3.2,0.1,3.3,2.2,3.2,4.5c-0.5,8.3-4.8,14.2-12,17.7
			c-11,5.4-22.1,4.9-32.4-1.5c-10.2-6.4-13.2-16.8-12.5-28.2c0.6-10.4,4.6-19.4,13-25.9C673.7-27.9,685.1-27.6,697.4-19.1z"/>
		<path class="st2" d="M837.4,20.3c-0.1,0.3,0,1.1-0.3,1.3c-5.4,3.7-1.3,7.8-0.6,11.7c0.4,2.3,2,4.7-1.3,5.8
			c-3.4,1.2-4.8-0.9-5.7-3.8c-1.1-3.8-1.3-8.9-3.9-11c-3.1-2.5-8.3-0.9-12.6-0.9c-12.5-0.1-12.6,0-16.4,11.5
			c-0.9,2.8-1.9,5.3-5.4,4.2s-2.3-3.8-1.5-6.2c5.5-16.5,11-33.1,16.6-49.6c1.3-3.8,2.2-8.7,7.4-8.9c5.4-0.1,6.1,5,7.4,8.7
			c3.2,9.6,6.1,19.3,9.1,29c0.7,2.3,1,4.4,4.2,4.4C836.3,16.6,837.3,18.2,837.4,20.3z M813.1-16.4c-3.2,10.1-6.4,20.1-9.6,30.2
			c-0.5,1.7,0.2,2.5,2,2.5c5.3,0,10.6,0.1,16,0.2c1.7,0,2.6-0.5,2-2.3C820.4,3.9,818-6.4,813.1-16.4z"/>
		<path class="st2" d="M986.4-2.6c0-1,0.1-2,0.1-3c0-4,1.3-8.8-0.5-11.8c-2.1-3.5-7.3-0.7-11.1-1c-1.8-0.1-3.3-0.3-3.5-2.6
			s0.9-3.4,3.1-3.7c8.8-1.1,17.6-1.1,26.4-0.5c2,0.2,4.3,0.6,4.2,3.3c-0.1,2.9-2.2,3.1-4.7,3.1c-6.9-0.1-6.9,0-6.9,6.7
			c0,13.2-0.2,26.3-1.3,39.4c-0.3,3.6,0.8,4.8,4.3,4.4c1.8-0.2,3.7-0.1,5.5,0c2,0.1,3.1,1.3,3.1,3.2s-1.3,3.2-3.2,3.2
			c-9,0-18-0.2-27-0.3c-2,0-3.3-1.2-3.3-3.1c0-2.1,1.2-3.4,3.5-3.4c0.3,0,0.7,0,1,0c9-0.2,9.1-0.2,9.3-9.2c0.2-8.3,0-16.6,0-24.9
			C985.8-2.6,986.1-2.6,986.4-2.6z"/>
		<path class="st0" d="M1162.8,136.2c0,5.6-3.2,9.2-8.1,9.1c-4.8-0.2-8.5-4.6-8.4-9.9c0.1-5.4,3.5-9.2,8.4-9.2
			C1160.1,126.3,1162.8,129.5,1162.8,136.2z"/>
		<path class="st0" d="M678.1,135.6c0-6.4,2.6-9.4,8.1-9.4c4.8,0.1,8.2,3.9,8.3,9.2c0.1,5.5-3.6,9.9-8.3,9.9
			C681.5,145.3,678.1,141.3,678.1,135.6z"/>
		<path class="st0" d="M1236.8,134.4c-1.5,0-3,0.1-4.5,0c-1.3-0.1-2.9,0.7-3.7-0.7c-0.9-1.7,0.3-3.2,1.3-4.5
			c3.9-5.1,11.7-4.3,14.5,1.4c1.2,2.4,1.5,4.2-2.2,3.9C1240.4,134.2,1238.6,134.4,1236.8,134.4z"/>
		<path class="st0" d="M1127.6,134.4c-1.2,0-2.3,0.1-3.5,0c-1.5-0.2-3.7,1-4.5-0.9c-0.7-1.8,0.7-3.5,1.9-4.8
			c3.9-4.4,11.1-3.5,13.9,1.7c1.5,2.8,1.3,4.4-2.4,4.1C1131.3,134.3,1129.5,134.4,1127.6,134.4z"/>
		<path class="st0" d="M936.8,134.4c-1.5,0-3,0.1-4.5,0c-1.3-0.1-2.9,0.7-3.7-0.7c-0.9-1.7,0.3-3.2,1.3-4.5
			c3.9-5.1,11.7-4.3,14.5,1.4c1.2,2.3,1.6,4.2-2.1,3.9C940.4,134.2,938.6,134.4,936.8,134.4z"/>
		<path class="st0" d="M561.7,119.5c2,2.2,2.6,4.6,3.4,6.9c1,2.7,4.2,6.4,2.3,7.9c-2,1.7-6.3,0.5-9.6,0.6c-2,0.1-2.1-0.9-1.5-2.5
			C558.1,128.3,559.8,124,561.7,119.5z"/>
		<path class="st0" d="M710.5,145.5c-3.4,0-6.2-1.5-6-5.1c0.3-4.6,4.3-5.1,7.8-4.9c2.5,0.1,6.1-0.8,6.1,3.7
			C718.5,143,715.3,145.6,710.5,145.5z"/>
		<path class="st0" d="M764.6,135.3c2.1,1,6-0.7,5.9,4c-0.1,3.7-3.3,6.3-8,6.2c-3.5,0-6.2-1.6-5.9-5.2
			C756.9,135.7,761,135.7,764.6,135.3z"/>
		<path class="st0" d="M965.3,135.6c0-5.5,3.8-9.5,8.8-9.4c4.7,0.1,8.4,4.2,8.4,9.3c0,5.3-3.9,9.8-8.6,9.8
			C969.2,145.4,965.2,141,965.3,135.6z"/>
		<path class="st0" d="M833,126.2c4.7,0,8.5,4.1,8.5,9.2c0.1,5.3-3.8,9.8-8.5,9.9s-8.7-4.3-8.7-9.6C824.3,130.2,828,126.2,833,126.2
			z"/>
		<path class="st0" d="M607.1,135.7c0-5.7,3.5-9.5,8.6-9.5c4.9,0.1,8.8,4.5,8.7,9.7c-0.1,4.9-4.2,9.3-8.6,9.4
			C611,145.5,607.1,141.1,607.1,135.7z"/>
		<path class="st0" d="M1015.6,135.3c2.4,0.8,6-0.6,6.6,3.4c0.5,3.7-3.4,6.8-8.1,6.8c-3.5,0-6-1.4-5.9-5.1
			C1008.4,135.9,1012.2,135.8,1015.6,135.3z"/>
		<path class="st0" d="M1198,135.3c2.2,0.9,6.1-0.6,6.2,3.7c0.1,3.8-3.8,6.6-8.5,6.5c-3.3-0.1-5.7-1.5-5.5-5
			C1190.4,135.7,1194.4,135.8,1198,135.3z"/>
		<path class="st1" d="M746.1,31.4c-14.5,0-23.7-9.5-23.7-24.3c0.1-15.5,9.5-25.9,23.5-25.9c14.2,0.1,24.5,11.2,24.5,26.5
			C770.4,22.1,760.8,31.4,746.1,31.4z"/>
		<path class="st1" d="M813.1-16.4c4.9,10,7.3,20.3,10.4,30.5c0.5,1.8-0.3,2.4-2,2.3c-5.3-0.1-10.6-0.1-16-0.2c-1.8,0-2.5-0.8-2-2.5
			C806.7,3.7,809.9-6.4,813.1-16.4z"/>
	</g>
</g>
<rect x="543" y="105" class="st0" width="746" height="61.4"/>
<rect x="638" y="-35.6" class="st1" width="501.9" height="80.1"/>
</svg>
