<?xml version="1.0" encoding="UTF-8" standalone="no"?>
<!-- Created with Inkscape (http://www.inkscape.org/) -->

<svg
   xmlns:dc="http://purl.org/dc/elements/1.1/"
   xmlns:cc="http://creativecommons.org/ns#"
   xmlns:rdf="http://www.w3.org/1999/02/22-rdf-syntax-ns#"
   xmlns:svg="http://www.w3.org/2000/svg"
   xmlns="http://www.w3.org/2000/svg"
   xmlns:sodipodi="http://sodipodi.sourceforge.net/DTD/sodipodi-0.dtd"
   xmlns:inkscape="http://www.inkscape.org/namespaces/inkscape"
   width="145.02226"
   height="150"
   viewBox="0 0 38.370473 39.687501"
   version="1.1"
   id="svg7430"
   inkscape:version="0.92.1 r15371"
   sodipodi:docname="coaching.svg">
  <defs
     id="defs7424" />
  <sodipodi:namedview
     id="base"
     pagecolor="#ffffff"
     bordercolor="#666666"
     borderopacity="1.0"
     inkscape:pageopacity="0.0"
     inkscape:pageshadow="2"
     inkscape:zoom="1.4"
     inkscape:cx="-16.168074"
     inkscape:cy="82.867155"
     inkscape:document-units="px"
     inkscape:current-layer="layer1"
     showgrid="false"
     units="px"
     fit-margin-top="10"
     fit-margin-left="10"
     fit-margin-right="10"
     fit-margin-bottom="10"
     inkscape:window-width="1366"
     inkscape:window-height="709"
     inkscape:window-x="0"
     inkscape:window-y="0"
     inkscape:window-maximized="1" />
  <metadata
     id="metadata7427">
    <rdf:RDF>
      <cc:Work
         rdf:about="">
        <dc:format>image/svg+xml</dc:format>
        <dc:type
           rdf:resource="http://purl.org/dc/dcmitype/StillImage" />
        <dc:title></dc:title>
      </cc:Work>
    </rdf:RDF>
  </metadata>
  <g
     inkscape:label="Capa 1"
     inkscape:groupmode="layer"
     id="layer1"
     transform="translate(-222.46456,-148.458)">
    <g
       transform="matrix(0.80219745,0,0,0.80219745,-326.41479,-696.71218)"
       id="g1594"
       style="stroke-width:0.32982323">
      <g
         id="g1590"
         style="stroke-width:0.32982323">
        <circle
           style="fill:#8ed3f1;stroke-width:0.32982323"
           cx="711.65399"
           cy="1083.218"
           r="16.525999"
           id="circle1548" />
        <g
           id="g1582"
           style="stroke-width:0.32982323">
          <g
             id="g1574"
             style="stroke-width:0.32982323">
            <g
               id="g1554"
               style="stroke-width:0.32982323">
              <circle
                 style="fill:#ffffff;stroke-width:0.32982323"
                 cx="705.01801"
                 cy="1074.3669"
                 r="16.75"
                 id="circle1550" />
              <path
                 inkscape:connector-curvature="0"
                 d="m 705.018,1091.867 c -9.649,0 -17.5,-7.851 -17.5,-17.5 0,-9.649 7.851,-17.5 17.5,-17.5 9.649,0 17.5,7.851 17.5,17.5 0,9.649 -7.851,17.5 -17.5,17.5 z m 0,-33.5 c -8.823,0 -16,7.178 -16,16 0,8.822 7.177,16 16,16 8.822,0 16,-7.178 16,-16 0,-8.822 -7.178,-16 -16,-16 z"
                 id="path1552"
                 style="stroke-width:0.32982323" />
            </g>
            <g
               id="g1560"
               style="stroke-width:0.32982323">
              <polygon
                 style="fill:#ffffff;stroke-width:0.32982323"
                 points="705.309,1082.276 705.333,1074.022 696.933,1074.053 721.496,1060.248 "
                 id="polygon1556" />
              <path
                 inkscape:connector-curvature="0"
                 d="m 705.309,1083.026 c -0.078,0 -0.157,-0.012 -0.234,-0.038 -0.309,-0.102 -0.517,-0.39 -0.516,-0.714 l 0.022,-7.499 -7.646,0.027 c -10e-4,0 -0.002,0 -0.003,0 -0.341,0 -0.639,-0.229 -0.725,-0.559 -0.088,-0.33 0.06,-0.678 0.357,-0.845 l 24.562,-13.806 c 0.308,-0.173 0.694,-0.108 0.929,0.157 0.234,0.264 0.252,0.656 0.043,0.94 l -16.187,22.029 c -0.141,0.199 -0.368,0.308 -0.602,0.308 z m 0.024,-9.754 c 0.199,0 0.39,0.079 0.53,0.219 0.142,0.142 0.22,0.333 0.22,0.533 l -0.018,5.956 12.768,-17.376 -19.017,10.688 5.514,-0.021 c 0.002,10e-4 0.003,10e-4 0.003,10e-4 z"
                 id="path1558"
                 style="stroke-width:0.32982323" />
            </g>
            <g
               id="g1566"
               style="stroke-width:0.32982323">
              <line
                 style="fill:#ffffff;stroke-width:0.32982323"
                 x1="705.01801"
                 y1="1057.6169"
                 x2="705.01801"
                 y2="1061.2419"
                 id="line1562" />
              <path
                 inkscape:connector-curvature="0"
                 d="m 705.018,1061.992 c -0.415,0 -0.75,-0.336 -0.75,-0.75 v -3.625 c 0,-0.414 0.335,-0.75 0.75,-0.75 0.414,0 0.75,0.336 0.75,0.75 v 3.625 c 0,0.414 -0.336,0.75 -0.75,0.75 z"
                 id="path1564"
                 style="stroke-width:0.32982323" />
            </g>
            <g
               id="g1572"
               style="stroke-width:0.32982323">
              <line
                 style="fill:#ffffff;stroke-width:0.32982323"
                 x1="705.01801"
                 y1="1087.1169"
                 x2="705.01801"
                 y2="1090.7419"
                 id="line1568" />
              <path
                 inkscape:connector-curvature="0"
                 d="m 705.018,1091.492 c -0.415,0 -0.75,-0.336 -0.75,-0.75 v -3.625 c 0,-0.414 0.335,-0.75 0.75,-0.75 0.414,0 0.75,0.336 0.75,0.75 v 3.625 c 0,0.414 -0.336,0.75 -0.75,0.75 z"
                 id="path1570"
                 style="stroke-width:0.32982323" />
            </g>
          </g>
          <g
             id="g1580"
             style="stroke-width:0.32982323">
            <line
               style="fill:#ffffff;stroke-width:0.32982323"
               x1="705.33301"
               y1="1074.022"
               x2="710.85901"
               y2="1069.494"
               id="line1576" />
            <path
               inkscape:connector-curvature="0"
               d="m 705.333,1074.772 c -0.217,0 -0.432,-0.094 -0.58,-0.274 -0.263,-0.32 -0.216,-0.793 0.104,-1.056 l 5.525,-4.528 c 0.32,-0.263 0.793,-0.216 1.056,0.104 0.263,0.32 0.216,0.793 -0.104,1.056 l -5.525,4.528 c -0.14,0.115 -0.308,0.17 -0.476,0.17 z"
               id="path1578"
               style="stroke-width:0.32982323" />
          </g>
        </g>
        <g
           id="g1588"
           style="stroke-width:0.32982323">
          <path
             style="fill:#82b945;stroke-width:0.32982323"
             inkscape:connector-curvature="0"
             d="m 727.641,1084.304 c 1.233,1.783 -0.682,3.752 -2.498,2.568 -0.088,-0.058 -0.168,-0.135 -0.228,-0.222 -1.233,-1.782 0.682,-3.752 2.498,-2.567 0.088,0.057 0.168,0.135 0.228,0.221 z"
             id="path1584" />
          <path
             inkscape:connector-curvature="0"
             d="m 726.312,1087.951 c -1.363,0.02 -2.488,-1.075 -2.508,-2.439 -0.019,-1.364 1.076,-2.49 2.439,-2.509 1.365,-0.02 2.49,1.075 2.51,2.439 0.019,1.365 -1.076,2.491 -2.441,2.509 z m -0.048,-3.509 c -0.57,0.01 -1.027,0.479 -1.02,1.049 0.007,0.57 0.478,1.028 1.048,1.02 0.57,-0.01 1.028,-0.479 1.021,-1.048 -0.008,-0.57 -0.48,-1.028 -1.049,-1.021 z"
             id="path1586"
             style="stroke-width:0.32982323" />
        </g>
      </g>
      <polygon
         style="fill:#e7829b;stroke-width:0.32982323"
         points="705.066,1081.817 720.732,1060.984 705.018,1074.367 "
         id="polygon1592" />
    </g>
  </g>
</svg>
