<?xml version="1.0" encoding="utf-8"?>
<!-- Generator: Adobe Illustrator 19.0.0, SVG Export Plug-In . SVG Version: 6.00 Build 0)  -->
<svg version="1.1" id="Capa_1" xmlns="http://www.w3.org/2000/svg" xmlns:xlink="http://www.w3.org/1999/xlink" x="0px" y="0px"
	 width="702.2px" height="134px" viewBox="76 -12 702.2 134" style="enable-background:new 76 -12 702.2 134;" xml:space="preserve"
	>
<style type="text/css">
	.st0{fill:#FCFBFC;}
	.st1{fill:#0A0A0A;}
</style>
<g id="Capa_2">
</g>
<g id="Capa_1_1_">
	<g>
		<path class="st0" d="M373,114c-57.9,0-108.1,0.1-158.2-0.1c-14.1-0.1-28-2.8-41-8c-10.1-4-19.8-9-28.2-16.3
			c-3.6-3.1-3.3-7.6-3.6-11.5c-1-14.1-0.8-28.4,2-42.3c2.4-11.6,5.3-23.2,11.8-33.5c2.4-3.8,5.4-5.7,10.1-5.3
			c9.5,0.9,18.6,3.8,27.9,5.7c8.2,1.7,16.4,3.8,24.7,5.2c13.7,2.3,27.2,5.8,40.8,8.6c3.1,0.6,6.3,0.7,9.4,1.2
			c11.1,1.5,22.2,2.9,33.5,2.8c23-0.3,46-0.4,69,0c94.1,1.3,188.3,0.4,282.4,0.8c17.2,0.1,34.3,0.1,51.5,0.1c5.8,0,9,2.6,9.4,8.4
			c0.7,12.7,1.3,25.5-1.2,37.9c-2.4,12.1-4.5,24.5-9.4,36c-1.7,4.1-4.4,7.6-7.1,11.1c-1.3,1.7-3,1.2-4.5,1.2
			c-55.2,0-110.4,1.4-165.5-0.5C472.9,113.5,419,115.6,373,114z M589.5,113.4c4.1-1.1,8.8-2.2,12.7-6c3.4-3.4,4.7-7.6,5.3-11.8
			c0.7-4.6-0.7-9.3-1.4-14c-1.3-9.1-3.6-18.3-1.5-27.7c0.3-1.5,0.3-3.3-1.7-3.6c-1.5-0.2-3.8-0.6-4.2,1.5c-0.8,3.6-2.5,2.6-4.7,1.6
			c-6.4-3.1-12.7-1.7-17.8,2.4c-8.1,6.4-10.9,17-5.7,26.5c4.8,8.8,13.7,12.6,22.9,9.3c2.4-0.8,5.6-3.5,7-2c2.1,2.2,0.4,6,0.3,9.1
			c-0.1,1.8-1.8,2.6-2.6,3.9c-2.7,4.7-7.6,5.1-12.4,4.5c-3.9-0.5-7-2.8-7.7-6.8c-0.5-2.9-1.8-3.7-4.3-2.9c-3.1,1-2.3,3.6-1.5,5.4
			C575.2,109.8,581.2,112.6,589.5,113.4z M294,41.4c-6.4-6.1-21.3-7.7-27.7-3.1c-7.1,5-11.9,12.1-13.2,20.5
			c-3.1,19,5.3,34.1,27.2,34.5c3.6,0.1,6.6-1.7,9.9-2.3c7.1-1.2,14-10.7,12.8-18.1c-0.3-2.1-0.8-3-3-2.9c-1.9,0.1-3.6,0.1-3.5,2.9
			c0.1,2.6-0.1,5.5-1.8,7.6c-5.8,6.8-13.5,7.9-21.6,5.6c-7-2-12.4-8.2-13.6-15.8c-1.4-8.6,1.2-16.2,6.5-22.9
			c4-5.1,12.9-7.1,18.9-4.6c3.3,1.4,6,3.3,8.1,6.2c1.1,1.6,3.4,2.9,5.7,1.9c2.1-0.8,1.1-2.9,1.2-4.4c0.1-2.3,0.1-4.7,0-7
			c0-1.7,0.2-3.4-2.3-3.6c-2.6-0.1-3,1.4-2.9,3.5C294.6,40,294.3,40.5,294,41.4z M465.6,56c0-7.7,0-15.2,0-22.7c0-1.5,0.2-3-1.9-3.4
			c-2.2-0.4-3.5,0.7-4.3,2.4c-0.4,0.8-0.2,2-0.3,3c-0.4,17.6-0.9,35.2-1.3,52.9c0,2.1,0,4.8,3,4.7c2.7-0.1,3.8-2.2,3.8-5
			c0-5.5,0-11,0.1-16.5c0-3.5,1-6.6,3.2-9.4c4.8-6.5,12.7-6.8,16.1,0c1.4,2.8,1.4,6.5,1.5,9.8c0.3,5.7,0.2,11.3,0.2,17
			c0,2.5,1.4,3.8,3.6,4.3c2.4,0.5,2.8-1.5,2.8-3.1c0.1-9.5,0.8-19.1-1.4-28.3c-1.5-5.9-5.4-10.8-13.3-10.8
			C472.3,51,469.1,54,465.6,56z M329.6,93.1c13.1,0,21.6-8,21.6-20.2c-0.1-12.5-9.3-21.8-21.8-22c-11.4-0.2-21,9.1-21,22.1
			C308.4,85.6,317.1,92.9,329.6,93.1z M358.2,73.8c0,0.7,0,1.3,0,2c-0.2,14.9,12.1,20,23.6,17.1c4.1-1,7.5-4.8,11.7-0.1
			c0.8,0.8,4,1.2,4.8-1.6c0.6-2,0.5-3.5-2.3-4.3c-2.7-0.8-2.9-3.7-3.2-6.4c-0.8-8,1.5-15.7,1.9-23.6c0.1-1.2,0.5-2.7-1.6-3
			c-1.5-0.2-3.7-0.8-4.1,0.6c-1.2,4.4-2.6,2.3-4.4,0.6c-0.9-0.8-2.3-1.1-3.6-1.4C369.5,50.8,357.2,59.2,358.2,73.8z M414.5,73.2
			c-0.3-9.4,3.7-13.1,10.2-15.8c4.6-1.9,11.7,1.1,15.4,6.4c1.3,1.9,2.4,4.1,4.7,2.4c2.3-1.7,1-4.4-0.3-6.2
			c-6.7-9-15.6-10.8-24.2-7.1c-7.8,3.3-12.5,10-12.5,19.7c-0.1,10.6,2.7,14.6,12.1,18.8c9.6,4.4,23.6-0.2,27.6-11.7
			c0.9-2.7-0.9-4.3-2.8-5.3c-2-1.1-2.7,0.6-3.2,2.4c-2.1,8.1-8,11.5-17.4,10.2C418.3,86.2,414.5,80.7,414.5,73.2z M558.9,77.2
			c-0.1,0-0.3,0-0.4,0c0-4.8,0.3-9.7-0.1-14.4c-0.5-6.1-4.9-9.5-10.1-11.2c-4.6-1.5-9.1,0.7-12.4,3.7c-2.5,2.2-3.4,4.3-4.8-0.5
			c-0.6-2-2.6-2.8-4.7-1.9c-2.4,1-2,2.9-1,4.5c2.4,3.8,2.2,8,2.2,12.3c0,6.7,0,13.3,0.2,20c0,1.5,0.1,3.2,2.4,3.7
			c2.3,0.4,2.6-1.5,3.5-2.6c1-1.2,0.6-2.5,0.6-3.8c0-3.3-0.2-6.7,0.1-10c0.4-5.1-0.1-10.5,3.6-14.8c2.3-2.6,5.3-4.4,8.6-4.4
			c1.9,0,4.8,1.4,5.1,4.2c0.6,4.6,2.6,8.8,2.1,13.6c-0.4,4.3-0.2,8.6-0.1,13c0.1,2-0.6,4.8,2.7,4.7c3.3-0.1,2.5-3,2.5-4.9
			C559,84.5,558.9,80.9,558.9,77.2z M511.6,72c0.1,0,0.2,0,0.3,0c0-5.1-0.1-10.3,0-15.4c0-2.4-0.6-3.7-3.3-3.6
			c-2.6,0.1-3.4,1.1-3.4,3.6c-0.1,10.3-0.2,20.6-0.5,30.8c-0.1,2.5,0.3,5.1,3,5.3c3.1,0.2,3.8-2.5,3.9-5.2
			C511.6,82.3,511.6,77.1,511.6,72z M508.6,47.3c3.8,0.3,5.7-2,5.7-4.8s-1.6-5.3-5.3-5.4c-4.1-0.2-5.4,3.1-5.4,5.4
			C503.6,44.5,504.9,48.3,508.6,47.3z"/>
		<path class="st1" d="M589.5,113.4c-8.3-0.8-14.3-3.6-17.3-10.7c-0.7-1.7-1.6-4.4,1.5-5.4c2.5-0.8,3.8,0,4.3,2.9
			c0.7,4,3.8,6.3,7.7,6.8c4.8,0.6,9.7,0.2,12.4-4.5c0.8-1.4,2.5-2.1,2.6-3.9c0.2-3.1,1.8-6.9-0.3-9.1c-1.5-1.6-4.7,1.1-7,2
			c-9.2,3.3-18.1-0.5-22.9-9.3c-5.2-9.6-2.4-20.1,5.7-26.5c5.1-4.1,11.4-5.5,17.8-2.4c2.2,1.1,3.9,2.1,4.7-1.6
			c0.4-2,2.7-1.7,4.2-1.5c2,0.3,2,2.1,1.7,3.6c-2.1,9.4,0.2,18.6,1.5,27.7c0.7,4.7,2.1,9.4,1.4,14c-0.6,4.2-1.9,8.4-5.3,11.8
			C598.3,111.2,593.6,112.3,589.5,113.4z M599,77.3c-0.6-4.6-1-7.9-1.3-11.2c-0.4-3.8-2.5-6.1-6.3-6.9c-7-1.4-12.7,0.5-15.5,5.4
			c-2.6,4.6-1.3,14.7,2.4,18.5c3.1,3.2,10.9,5.1,14.6,2.8C596.2,83.7,600.7,81.6,599,77.3z"/>
		<path class="st1" d="M294,41.4c0.3-0.9,0.6-1.3,0.6-1.7c-0.1-2.1,0.3-3.6,2.9-3.5c2.5,0.1,2.3,1.9,2.3,3.6c0,2.3,0.1,4.7,0,7
			c-0.1,1.5,0.9,3.6-1.2,4.4c-2.3,0.9-4.6-0.4-5.7-1.9c-2.2-3-4.8-4.8-8.1-6.2c-6-2.5-14.9-0.6-18.9,4.6c-5.3,6.7-7.9,14.2-6.5,22.9
			c1.2,7.6,6.7,13.8,13.6,15.8c8.1,2.3,15.7,1.2,21.6-5.6c1.8-2.1,1.9-4.9,1.8-7.6c-0.1-2.8,1.6-2.8,3.5-2.9c2.2-0.1,2.7,0.8,3,2.9
			c1.2,7.4-5.7,16.9-12.8,18.1c-3.3,0.6-6.3,2.3-9.9,2.3C258.3,93.1,250,78.1,253,59.1c1.3-8.4,6.1-15.5,13.2-20.5
			C272.8,33.7,287.7,35.3,294,41.4z"/>
		<path class="st1" d="M465.6,56c3.5-2.1,6.7-5.1,11.7-5.1c7.9,0,11.9,4.8,13.3,10.8c2.3,9.2,1.6,18.8,1.4,28.3
			c0,1.6-0.4,3.6-2.8,3.1c-2.2-0.5-3.6-1.8-3.6-4.3c0-5.7,0.1-11.3-0.2-17c-0.2-3.3-0.1-6.9-1.5-9.8c-3.4-6.8-11.3-6.5-16.1,0
			c-2.1,2.9-3.1,6-3.2,9.4c-0.1,5.5-0.2,11-0.1,16.5c0,2.7-1.1,4.9-3.8,5c-2.9,0.1-3-2.6-3-4.7c0.4-17.6,0.8-35.2,1.3-52.9
			c0-1-0.1-2.1,0.3-3c0.8-1.8,2.2-2.8,4.3-2.4c2.2,0.4,1.9,1.9,1.9,3.4C465.6,40.8,465.6,48.3,465.6,56z"/>
		<path class="st1" d="M329.6,93.1c-12.5-0.3-21.2-7.5-21.2-20.1c0-13,9.6-22.3,21-22.1c12.4,0.2,21.7,9.5,21.8,22
			C351.3,85.2,342.8,93.1,329.6,93.1z M329.7,87.3c9.9,1.1,15.3-7.7,14.8-14.5c-0.6-9.2-5.2-15.8-15.2-16c-7.9-0.1-14.1,6-14.2,16
			C315,83.3,322,87.7,329.7,87.3z"/>
		<path class="st1" d="M358.2,73.8c-1-14.6,11.3-23.1,22.8-20.2c1.2,0.3,2.7,0.6,3.6,1.4c1.9,1.7,3.2,3.8,4.4-0.6
			c0.4-1.3,2.6-0.8,4.1-0.6c2.1,0.3,1.7,1.7,1.6,3c-0.4,7.9-2.7,15.6-1.9,23.6c0.3,2.7,0.5,5.7,3.2,6.4c2.8,0.8,2.9,2.3,2.3,4.3
			c-0.8,2.8-4.1,2.4-4.8,1.6c-4.2-4.7-7.6-0.9-11.7,0.1c-11.6,2.9-23.8-2.2-23.6-17.1C358.2,75.2,358.2,74.5,358.2,73.8z
			 M387.5,73.2c0.4-2.8-0.2-6-1.8-9.2c-2.4-5-13.3-6.9-16.7-2.6c-4.6,5.8-5.6,12.5-3.2,19.6c1.6,4.7,8.6,9.1,11.9,7.7
			C385.4,85.5,387.9,82.7,387.5,73.2z"/>
		<path class="st1" d="M414.5,73.2c0,7.5,3.8,13,9.5,13.8c9.5,1.3,15.4-2.1,17.4-10.2c0.5-1.9,1.2-3.5,3.2-2.4
			c1.8,1,3.7,2.7,2.8,5.3c-4,11.5-18,16.1-27.6,11.7c-9.4-4.3-12.2-8.2-12.1-18.8c0.1-9.7,4.7-16.4,12.5-19.7
			c8.6-3.7,17.5-1.9,24.2,7.1c1.3,1.8,2.6,4.5,0.3,6.2c-2.3,1.7-3.4-0.5-4.7-2.4c-3.7-5.3-10.8-8.3-15.4-6.4
			C418.2,60.1,414.3,63.8,414.5,73.2z"/>
		<path class="st1" d="M558.9,77.2c0,3.7,0.1,7.3,0,11c-0.1,1.9,0.8,4.8-2.5,4.9c-3.4,0.1-2.7-2.7-2.7-4.7c-0.1-4.3-0.4-8.7,0.1-13
			c0.5-4.8-1.5-9.1-2.1-13.6c-0.3-2.8-3.2-4.2-5.1-4.2c-3.3,0-6.3,1.8-8.6,4.4c-3.7,4.3-3.2,9.7-3.6,14.8c-0.2,3.3,0,6.7-0.1,10
			c0,1.3,0.4,2.7-0.6,3.8c-1,1.1-1.2,3-3.5,2.6s-2.3-2.1-2.4-3.7c-0.1-6.7-0.2-13.3-0.2-20c0-4.2,0.2-8.4-2.2-12.3
			c-1-1.6-1.4-3.5,1-4.5c2.1-0.9,4.1-0.1,4.7,1.9c1.4,4.8,2.4,2.7,4.8,0.5c3.3-3,7.8-5.2,12.4-3.7c5.3,1.7,9.6,5.1,10.1,11.2
			c0.4,4.8,0.1,9.6,0.1,14.4C558.6,77.2,558.7,77.2,558.9,77.2z"/>
		<path class="st1" d="M511.6,72c0,5.1,0,10.3,0,15.4c0,2.7-0.8,5.4-3.9,5.2c-2.8-0.2-3.1-2.8-3-5.3c0.2-10.3,0.4-20.6,0.5-30.8
			c0-2.5,0.8-3.5,3.4-3.6c2.8-0.1,3.4,1.2,3.3,3.6c-0.1,5.1,0,10.3,0,15.4C511.7,72,511.6,72,511.6,72z"/>
		<path class="st1" d="M508.6,47.3c-3.8,1-5-2.8-5-4.8c0-2.3,1.3-5.6,5.4-5.4c3.7,0.2,5.3,2.6,5.3,5.4
			C514.4,45.3,512.4,47.6,508.6,47.3z"/>
		<path class="st0" d="M599,77.3c1.7,4.3-2.8,6.4-6.1,8.5c-3.7,2.3-11.5,0.4-14.6-2.8c-3.7-3.8-5-13.9-2.4-18.5
			c2.8-4.9,8.5-6.8,15.5-5.4c3.8,0.8,5.9,3,6.3,6.9C598,69.4,598.4,72.6,599,77.3z"/>
		<path class="st0" d="M329.7,87.3c-7.7,0.4-14.6-4-14.5-14.5c0.1-10,6.3-16.1,14.2-16c9.9,0.1,14.6,6.8,15.2,16
			C345,79.5,339.5,88.4,329.7,87.3z"/>
		<path class="st0" d="M387.5,73.2c0.4,9.5-2.1,12.4-9.7,15.5c-3.3,1.4-10.3-3-11.9-7.7c-2.4-7-1.3-13.7,3.2-19.6
			c3.4-4.4,14.3-2.4,16.7,2.6C387.3,67.1,387.8,70.3,387.5,73.2z"/>
	</g>
</g>
<polygon class="st0" points="252.4,23 618.3,29.8 624.3,102.3 594.3,113.4 552.3,113.4 235.7,92.6 "/>
</svg>
