<?xml version="1.0" encoding="utf-8"?>
<!-- Generator: Adobe Illustrator 19.0.0, SVG Export Plug-In . SVG Version: 6.00 Build 0)  -->
<svg version="1.1" id="Capa_1" xmlns="http://www.w3.org/2000/svg" xmlns:xlink="http://www.w3.org/1999/xlink" x="0px" y="0px"
	 width="2015.3px" height="662.7px" viewBox="733 -276.7 2015.3 662.7" style="enable-background:new 733 -276.7 2015.3 662.7;"
	 xml:space="preserve">
<style type="text/css">
	.st0{fill:#FEFEFE;}
	.st1{fill:#1F1F1F;}
	.st2{fill:#2A1F1A;}
	.st3{fill:#6FC2E2;}
	.st4{fill:#0E1312;}
	.st5{fill:#F4CDB5;}
	.st6{fill:#E37272;}
	.st7{fill:#251915;}
	.st8{fill:#6FC0E0;}
	.st9{fill:#241712;}
	.st10{fill:#3194CA;}
	.st11{fill:#FDFDFD;}
	.st12{fill:#CD3434;}
	.st13{fill:#241611;}
	.st14{fill:#220B09;}
</style>
<title>down_per-01-01</title>
<g>
	<g id="Capa_1_1_">
		<path class="st0" d="M771.4,28.3C786-30.6,830-77.2,884.8-101.9c40.5-18.3,98.4-9.1,114.5-40.3c6.5-12.5,7.1-103,0-107.7
			c36.3,24.2,171.8,1.8,214.2,2.5c162.9,2.6,325.9,5.4,488.9,8.4c235.4,4.2,470.8,8.5,706.2,13l-1.4,14l95.1-4.2
			c1.8,51.4,2.8,101.1-0.4,152.1c-5.7,90.3,33.8,53.7,104.8,93.7c41.6,23.4,58.3,55.1,76.4,104.7c12.9,35.2,20.5,70.3,16.4,108.2
			c-2,18.2-42,124.8-60.2,50c-6.9,69.2-76.6,94.5-133.3,60.2c-31.8-19.2-50.3-61.1-67.3-83.2c-5.3-6.8-33-38.6-40-41.5
			c-32.5-13.4-94.6-3.1-129.2-4.2l-247.5-8.1l-518.7-16.9c-23.3-0.8-66.8-10.7-88.7-2.5c-28.3,10.5-45,45.2-90.9,51.9
			c-47.7,6.9-292.8-55.8-323-3c-15.5,27.1,25.8,45.3-0.4,77.4c-43.5,53.3-113.7-14.5-163,28.6C904.7,247.9,754,140.1,771.4,28.3z"/>
		<path class="st0" d="M2487.4,189.8c-3.3-0.2-5.2,0.7-4.6,3.3c0.7,2.8,0.2,7.2,4.5,7.2c3.8,0,2.6-3.9,3.1-6.3
			C2491.1,191,2489.3,189.8,2487.4,189.8z"/>
		<path class="st1" d="M2420.9,214c-0.7,2.2-1.1,4.7-3.5,6c-14.7,1.6-29.6,1.8-44.3,2.5c-49.5,2.1-98.9,1.9-148.4,1.3
			c-48.8-0.6-97.6-1.8-146.3-2.9c-40.8-1-81.5-2.2-122.3-3.3c-39.9-1-79.9-2.1-119.8-3c-30.1-0.7-60.3-1-90.4-1.7
			c-36.1-0.9-72.3-0.7-108.4-1c-37.8-0.3-75.6,0.2-113.4,0.5c-22.8,0.2-95.6,1.1-118.4,1.7c-0.5,0-1,0-1.5,0.1
			c-2.4,0.2-4.6-0.2-4.6-3.1c0-2.6,1.8-3.1,4.1-3.1c10.8-0.3,21.6-0.7,32.4-0.9c51.6-1.3,153.3-1.6,204.9-1.3
			c44.1,0.3,88.2,0.9,132.4,1.7c32.6,0.5,65.2,1.5,97.8,2.3c49.6,1.2,99.2,2.4,148.8,3.7c31,0.8,61.9,1.5,92.9,2.3
			c55.1,1.5,110.2,2.8,165.3,2.7c45.1-0.1,90.2-1,135.3-4C2415.9,214,2418.4,213.9,2420.9,214z"/>
		<path class="st1" d="M2440.2,22.7c-2-0.2-4.1-0.3-6.1-0.5c1.2-50.2,2.5-100.4,3.8-150.7c0.6-22.6,0.9-45.2,2.6-67.8
			c0.1-1.8-0.2-3.8,1.8-4.9c2.6-1.4,4.5,0.3,4.4,4.1c-0.5,17.1-1,34.2-1.5,51.4c-0.6,20.6-1.4,41.2-2,61.8l-2.7,100.8
			c0,1.8,0.1,3.7,0.2,5.5C2440.5,22.5,2440.3,22.6,2440.2,22.7z"/>
		<path class="st2" d="M2487.4,189.8c1.9,0,3.7,1.1,3,4.2c-0.5,2.3,0.7,6.3-3.1,6.3c-4.3,0-3.8-4.4-4.5-7.2
			C2482.2,190.5,2484.1,189.6,2487.4,189.8z"/>
		<path class="st3" d="M2367.1,39.2c-0.1,0.8-0.6,0.8-1.2,0.8C2366.1,39.3,2366.4,38.9,2367.1,39.2z"/>
		<path class="st4" d="M2362.9,50c-0.3,0.4-0.6,0.7-0.9,1.1C2362.3,50.7,2362.6,50.3,2362.9,50z"/>
		<path class="st5" d="M2681.4,185.1l2.9,0.8l-15.6,4l2.1-2.7l-1.6,13.3c-0.7-1.8-10.7-10-13.7-12.9c-8.5-8.1-16.6-16.5-25-24.7
			c-8.7-8.6-0.9-23.6,10.2-24.9c11.1-1.4,20.2,1.5,26.4,11c8.5,13-2.8,29.9-18.9,24.1c-32.8-11.9-66.7-18-101.2-22.1
			c-15.7-1.9-31.4-3.8-47.2-4.6c-13.8-0.7-38-4-50.8,1.9l12.5-12.2c-6.8,11.5-1.5,31.1,0.4,43.7l-38.6-15.1
			c21.8-15.3,58.8-24.8,71.6,7c6.7,16.7,1.2,38,3.1,55.5c2.6,24,9.9,45.7,20.4,67.6c12.7,26.3-27.3,40.9-41.6,17.2
			c-21.4-35.6-36.5-73.1-35-114.5c0.7-20.6,36.2-26.1,42.5-5.7c10.6,34.2,23.5,124.8,72.6,129c24.7,2.2,34-32.6,41.1-50.3
			c11.2-27.8,18.1-56.2,22.4-85.7c4.3-29.3,53.5-32.2,56.1-0.4c1.6,19.2-2.1,32.5-12.4,48.8c-12.3,19.3-38.8,9.7-48.2-5.9
			c-11.7-19.3-33-27.1-55-27.5l25-42.8c5.9,7.1,14.1,14.6,24.3,12.6l-21.4,16.1l1.7-4.5l0.3,20.7c-1.6-2.6-37.2-10.4-42.9-11.6
			c-7.5-1.6-15.1-2.8-22.7-3.7c-2.7-0.3-22.7-0.5-17.4-3.7l10.5-18.1c-1.8,10.1,2.9,17.6,9,25.3l-41.2-5.1c-3.5,6.4-4.4,6.5-2.6,0.3
			c1-3.9,2-7.8,3.2-11.7c3.7-8.4,10.2-15.1,18.4-19c17.6-8.6,36.8-1.9,49.5,11.5c29.7,31.4,46.6,74.4,54.5,115.5
			c3.9,20.5-15.5,37.2-35.7,35.3c-38.3-3.6-66.7-53.2-49-86.9c21.4-40.6,81.5-18.1,99.3,14.1c16.9,30.8,2.3,81.3-42,72.4
			c-45.1-9.1-45.9-70.6-23.2-99.7c32.9-42.2,82.2-0.3,78.8,41.4c-2.8,34.9-29.9,66.6-66.5,71.9c-39.5,5.7-78.7-18.2-91.2-54.5
			c-7-20.4-2.6-40.2-4.6-61c-2.2-22.3-19.1-34.4-36.2-47.5l51.5-29.2l0.7,12.1c2.2,39.8-61.4,49-63.9,8.9l-0.8-12
			c-1.6-26,27.6-47.2,51.5-29.2c37,28,61.8,57.4,62.2,104.2c0.1,13.7-5.2,38.9,12.5,44.8c5.8,1.9,10.2,1.2,14.7-2.6
			c2-2.1,3.6-4.6,4.5-7.4c0-8.9,4.7-7,14,5.8l24-6.3c3.6-3.5-1.2,11.6-0.7,10.9c-0.7,0.8-54.1,10.2-41.8,3.8l17-16.7
			c-0.5-7-0.1-6.5,1,1.7c3,5.4,1.6,5.2-4.3-0.7l-35.6,35.4c-3-16.7-8.2-32.9-15.5-48.2c-3.7-7.8-8-15.3-12.9-22.4
			c-2.6-3.8-15.8-14.4-7.6-11l24.4-0.1c5.8-1.6,7.4-14,6.8-4c-0.3,4-2.9,8.4-4.9,11.8c-4.8,8-11.1,12.8-19.7,16.9
			c-10.5,5.1-28.2,1.4-34.8-8.7c-15.3-23.6-35.6-68.6-3.7-87.8c29.8-17.9,84.5-0.3,115,10.4c17.1,6,36.1,12.7,45.6,28.6
			c7.9,13.2,6.5,31.2-6.9,41c-28.1,20.6-70.9-5.9-89-27.2c-16.8-19.8,2.6-43,25-42.8c39.1,0.3,76.1,20.7,96.3,53.2l-44.5,0.1
			l1.3-7.9l56.1-0.4c-6.1,41.5-18.2,82.5-37,120.2c-15.3,30.7-36.1,58.3-74.7,58.7c-86,0.7-102.2-101.6-121.3-162l42.5-5.7
			c-1,33.6,17.6,62.7,32.4,92l-41.6,17.2c-9-22.6-15.4-46.1-19.2-70.1c-1.7-11.2-2.7-22.5-2.9-33.9c-0.1-3.7-1.9-13,0.1-16.2
			c-1.2-5.1,0.2-5.9,4.2-2.6c6.2,1.4,5.6,4.1-1.6,7.9c-12.9,14.6-40,9.8-42.9-10.9c-3-21.2-10-55.3,6.2-73.1
			c15.4-16.8,44.9-12.8,65.8-12.4c62,1,118.2,18,174.2,43.2l-18.9,24.1l4,0.6l10.2-25c11.9,12.2,57.6,45.5,31.6,64
			c-5.1,3.7-11,3.1-16.2,0l-2.5-1.5C2655.4,198.3,2668.5,181.4,2681.4,185.1L2681.4,185.1z"/>
		<path class="st5" d="M2556.2,355.8c-38.5,32.7-77.3-18.7-89-49.9c-21-55.8-41.8-111.6-66.5-166.1c-10.7-23.6,26.8-39,37.8-15.6
			c19.6,41.8,37.6,84.1,52.5,127.7c6.5,18.8,11.1,39,19.9,57c10.2,21,28.9,24.8,45.3,39c2.2,1.7,2.6,4.8,0.9,7
			C2556.8,355.2,2556.5,355.5,2556.2,355.8L2556.2,355.8z"/>
		<path class="st5" d="M2679.1,164.1c-19.7-2.2-37-10.4-56.5-13.7c-20.3-3.5-42.4-4.7-63-4.5c-32.3,0.3-30.2-46.2-0.7-41.1
			c41.5,7.3,95,20.6,124.8,51.3C2686.9,159.4,2683.3,164.5,2679.1,164.1L2679.1,164.1z"/>
		<path class="st6" d="M2405,155.4c0.1-6.9,9.5-9.6,14.6-5.9c9.2,6.7,13.5,16.9,6.6,27.3c-9.3,14-30.9,10.6-45,12.4
			c-8.7,1.1-14.7-10.5-7-15.7l7-14.3l-9.3-15.1c8.7-2.7,17.9-3.7,27-3.1c11.2,0.6,9.4,15.1,0.3,17.5l-19.5,5.2l-0.3-17.5l17.9-15.4
			l8,7.5l-12-1.1c-11.7-1.1-9.6-18.6,2.1-17.5l12,1.1c3.5,0.3,7.9,3.8,8,7.5c0.4,22.5-14.5,37.2-38.1,35.4
			c-11.2-0.9-9.4-15.1-0.3-17.5l19.5-5.2l0.3,17.5l-17.7,1.8c-9.7,2.8-17.5-8.2-9.3-15.1c8.7-7.6,22-6.7,29.5,2.1
			c0.5,0.6,0.9,1.1,1.4,1.7c10.8,15.1-3.1,30.2-15.3,38.4l-7-15.7c1.8-0.2,36.7-3.5,30.2-8.2l14.6-5.9"/>
		<path class="st6" d="M2683.8,144.3c21.9-9.3,47.3-3.5,63,14.3c5,5.5-0.5,15.8-8.2,14.1l-44.9-9.4l8.2-14.2
			c7.2,10.3,15.8,19.7,25.4,27.8l-12.7,12.3l-13.2-12.9c-7.6-7.4,4.5-18,12.7-12.4c14.8,10.1,27.1,23.5,36.1,39
			c5.8,9.9-11,16.7-16.8,6.9c-7.6-12.8-18-23.7-30.4-32l12.7-12.4l13.2,13c7.3,7.1-4.8,18.9-12.7,12.4c-10.9-9-20.6-19.4-28.8-30.9
			c-4-5.7-0.1-15.9,8.2-14.1l44.9,9.4l-8.2,14.1c-10.5-11.7-26.9-15-41.3-8.9C2680.4,165.1,2673.1,148.8,2683.8,144.3L2683.8,144.3z
			"/>
		<path class="st6" d="M2428.2,218.6c-6.7,7.5-12.3,15.9-18.5,23.8c-6.4,8-13.3,15.6-20.9,22.5c-6.2,5.8,2.9,14.7,9.3,9.3
			c16.1-13.9,31.5-28.5,47.2-42.9l-11.8-6.9c-3.9,13.9-7.9,27.7-12,41.5c-1.9,6.5-4.1,13-5.8,19.7c-1.4,5.6-1,11.7,4.6,14.7
			c3.5,1.9,9.3,1.2,11.1-2.9c6.6-15.1,12.6-30.4,17.8-46c3.4-10.1-12.7-14.6-16-4.4c-4.6,14.3-9.8,28.4-15.7,42.2l11.1-2.9
			c1.5,5.4,2.5,6.2,3,2.5c0.4-1.4,0.7-2.8,1.1-4.2c0.7-2.8,1.4-5.6,2.1-8.4l4-15.7c2.7-10.8,5.5-21.6,8.4-32.4
			c1.9-7-6.7-11.6-11.8-6.9c-15.5,14.5-31.3,28.7-46.5,43.6l9.3,9.3c14-14.8,29.2-33.1,34.1-53.3
			C2432.6,218.7,2429.8,216.8,2428.2,218.6L2428.2,218.6z"/>
		<path class="st6" d="M2650.5,318.1c4.1-12.1,9.7-23.4,12.8-35.9c3.1-12.2,5.2-24.6,7.1-37.1l-15.6-2.1c-0.8,26,2.6,52.5,7.2,78
			c1.7,9.5,16.3,6.9,16.4-2.2c0.1-6.5-1.6-12.9-5-18.5c-2.9-4.8-9.1-5.3-13.1-1.7c-4.8,4.4-8.4,10-10.3,16.2
			c-1.6,5.1,2.8,10.8,8.1,10.6c16-0.5,19.1-18.3,20.3-31c1.6-17.1-1-34.3-3.4-51.2l-12.3,9.5c6.9,5.4,12.1,12.7,15,21
			c3,8.4,17.1,7.8,16.5-2.2c-0.4-7.8-3-14.6-6.3-21.6c-2.9-6.1-6.6-12.3-7.1-19.1l-16.5,2.2c3.5,10.8,7.2,21.6,11.4,32.2
			c3.4,8.8,7.9,20.8,19.8,17.7c10.3-2.7,6-18.7-4.4-16l-1.2,0.3h4.4c0.6,0.1,0-0.3-0.5-1.6c-0.6-1.6-1.2-3.2-1.9-4.8
			c-1.4-3.5-2.7-7.1-4-10.7c-2.6-7.1-5.1-14.3-7.4-21.6c-2.8-8.6-17.3-7.7-16.5,2.2c0.6,7.8,3.2,14.6,6.5,21.6
			c2.9,6.1,6.5,12.2,6.9,19.2l16.5-2.2c-4.3-12.4-12.2-23.2-22.7-31c-6.6-5.1-13.2,3.3-12.3,9.5c1.7,12,3.4,24,3.3,36.1
			c0.1,5.6-0.4,11.3-1.3,16.8c-0.3,2.2-0.9,4.4-1.8,6.4c-0.3,0.5-0.8,1.1-1,1.6s-1,0,0.1,0l8.1,10.6c1.1-3.5,3.2-6.5,5.9-8.8
			l-13.1-1.7c1.9,3,2.8,6.5,2.7,10l16.4-2.2c-4.4-24.5-5.8-48.8-7.4-73.6c-0.6-10.1-16-10.3-15.9,0c0,12.3-0.8,24.5-2.4,36.6
			c-1.6,12.4-2.3,25.3-5.8,37.3C2645.9,319.6,2649.7,320.6,2650.5,318.1L2650.5,318.1z"/>
		<path class="st7" d="M2423.9,216.7c1-0.1,1.9-0.3,2.8-0.6c1.7-0.4,4.7,1,4.6-2c-0.1-3,1.7-5.8-2.2-8.7c-6.7-4.8-9-12.7-10.2-20.6
			c-1.4-7.9-0.5-16,2.7-23.4c-2.8-0.8-4.8,0.7-7,1.5c-12.8,4.5-25.1,10.5-36.5,18c-1.1,0.7-2.2,1.4-3.3,2.1
			c-1.4,0.8-3.3,0.4-4.1-1.1c0-0.1-0.1-0.1-0.1-0.2c-0.9-1.6-0.2-2.9,1.2-3.8c1-0.6,1.9-1.3,2.9-1.9c13.9-9,28.9-16.1,44.7-21.1
			c4.7-1.5,9.6-0.9,14.3-2.5c4.1-1.3,8.8,2.5,9.8,6.4c0.8,3.1-0.8,4.8-3.8,4.2c-5.9-1.3-12.3,2.3-13.5,8c-1.4,6.6-1.8,13.3,0.2,20
			c0.5,1.7,0.8,3.8,3,4c1.8,0.2,2.8-1.5,3.7-2.9c0.4-0.5,0.7-1.1,1-1.7c0.7-1.4,2.2-2.1,3.8-1.9c2.1,0.2,2.1,1.9,2.4,3.2
			c1.5,9.5,2.9,19.1,4.5,28.7c3.4,19.5,7.9,38.8,14.8,57.4c0.8,2.3,1.2,4.6,4.4,5c1.3,0.2,2.2,1.5,2,2.8c-0.1,0.4-0.2,0.7-0.4,1
			c-2.3,2.4-0.6,4.2,0.3,6.1c3.3,7,6.9,13.7,11,20.3c1.7,2.8,3.2,3.3,5.7,1.3c1.3-1.1,2.8-1.8,4-2.8c1.8-1.3,3.3-1.2,4.7,0.6
			s0.3,3.1-1.1,4.1c-0.4,0.3-0.8,0.6-1.2,0.9c-6.3,4.6-6.3,4.6-1.1,10.4c4.3,4.6,8.8,8.8,13.7,12.7c2.2,1.8,3.4,1.9,4.9-0.6
			c1.1-1.9,2.5-3.5,3.5-5.3s2.4-3,4.3-1.9c2.2,1.3,1.9,3.2,0.7,5.1c-1.3,2.1-2.7,4.1-4.2,6c-1.3,1.6-1,2.5,0.8,3.2
			c3.7,1.7,7.4,3.5,11,5.2c1.7,0.9,3,1.3,4.6-0.6s4.4-1.6,4.7,1.3s1.9,3.1,3.7,3.5c2.3,0.5,4.4,1.1,6.7,1.4c2.8,0.4,6,1.7,8.2,0.7
			c2.9-1.2,0.7-4.9,1.2-7.5c0.3-1.5,0.7-2.6,2.3-2.8c1.5-0.3,3,0.6,3.6,2.1c0.2,0.6,0.3,1.3,0.2,2c0.6,7.4,0.7,7.5,8.1,6.2
			c3.8-0.7,7.7-2,11.5-2.6c5-0.8,5.8-3.7,4.9-8c-0.4-2.2-0.6-4.5-0.7-6.8c-0.2-2.1,0.6-3.6,2.8-3.8c2.5-0.3,3,1.5,3.1,3.5
			c0.3,3.2,0.6,6.5,1,10.2c8.1-3.7,14.4-9.3,20.6-15c1.4-1.3,0.6-2.4,0-3.5c-1.7-3-3.3-6-5-9c-1-1.3-0.8-3.3,0.6-4.3
			c0.2-0.1,0.3-0.2,0.5-0.3c1.8-1.1,3.1,0,4,1.6c1.8,3,3.4,5.9,5.5,9.2c5.4-6,9.6-12.5,13.8-19.1c1-1.7,0.2-2.3-0.9-3.2
			c-1.1-0.9-1.3-2.4-0.5-3.5c0.4-1.1,1.7-1.7,2.9-1.3c3,1.4,3.5-1,4.4-2.8c12.5-24.6,20.2-50.7,25.1-77.8c1.3-7.1,2.2-14.3,3-21.4
			c0.3-2.2,0.8-4.2,3.2-4c3,0.1,3,2.5,2.7,4.7c-0.5,4-1,8.2-1.4,12.4c3,0.6,5.7,1.4,8.7,1.7c7.6,0.8,14.8-3.5,17.7-10.5
			c2.7-6.7,0.2-15.1-6-19.8c-1.4-1.1-3-2-4.6-2.8c-2-1-3.6-2.1-2.5-4.4c1.2-2.4,3.2-1.9,5.1-1c8,3.6,13.2,9.8,14.6,18.5
			c2.9,16.9-13.2,30.1-30.3,24.9c-3.2-1-3.9-0.5-4.5,2.8c-5.1,28.2-12.9,55.4-26.3,80.9c-1.2,2.3-1.3,3.6,1.3,5
			c2.6,1.4,5,3.1,7.3,4.9c1.7,1.3,2.6,3,1.8,5.2c-0.3,1.3-1.5,2.3-2.8,2.4c-2.1,0-3.1-1.1-3.9-3c-1.4-2.8-4.5-3.5-6.9-5.3
			c-1.6-1.3-2,0.5-2.5,1.3c-4.3,7-8.9,13.8-14.5,19.8c-2.2,2.4-0.4,4.1,0,6.2c0.5,2.8,3.7,6.6-0.4,8.1c-4.4,1.6-3.9-3.5-5.2-6.1
			c-0.2-0.4-0.4-0.8-0.7-1.2c-6.7,6-13.8,11.6-21.9,15.7c-1.6,0.8-1.3,2.2-1.2,3.3c0.3,3.2,0.6,6.5,0.9,9.8c0.2,2.1-0.5,3.6-2.8,3.8
			c-2.3,0.2-3-1.2-3.3-3.3c-0.4-3.3,0.7-8-1.7-9.5c-1.9-1.2-6,1.2-9.3,1.9c-3.5,0.8-7.1,1.3-10.6,1.7c-2.9,0.2-5.6-0.3-5.4,4
			c0.1,1.3-1.2,1.9-2.5,1.9c-1.7-0.1-3-1-3-2.7c0.1-3.2-1.8-3-4-3.3c-5-0.5-10-1.5-15.2-2.3c-0.5,3.7-0.8,7.3-1.4,10.8
			c-0.3,2.1-1.3,3.8-3.8,3.5c-2.6-0.4-2.2-2.3-2-4.1c0.4-3.9,2.7-8.5,0.6-11.4c-1.8-2.6-6.9-2.7-9.9-4.8c-7.4-5.3-13.8-5.7-19.7,2
			c-0.9,1-2,1.8-3.2,2.4c-1.8,1-3.6,0.9-4.6-1c-1.1-1.9,0.1-3,1.5-4c2.8-2.1,5.4-4.3,8.1-6.4c1.6-1.3,1.9-2.3-0.1-3.7
			c-7.2-5.5-13.6-11.9-18.9-19.2c-1.4-1.9-2.6-1.8-4.5-0.9c-3.4,1.5-7,2.8-10.5,3.9c-1.9,0.6-3.7,0.7-4.3-1.7
			c-0.5-2.1,0.6-3.3,2.7-4c3.7-1.3,9.6-1.5,10.4-4.9c0.7-2.7-3.4-6.6-5.3-10c-2.8-5.3-5.6-10.7-8-16.2c-1.2-2.8-2.7-3.8-5.5-3.3
			c-2.3,0.3-4.6,0.2-6.9,0.4s-3.5-0.8-3.6-3c-0.1-2.2,1.5-2.6,3.2-3c2.8-0.6,6.8,1.5,7.9-1.4c0.8-2.2-1.5-5.4-2.5-8.3
			c-7.8-22.8-12.4-46.5-16.2-70.2c-0.1-0.5-0.2-0.9-0.6-2.3c-0.9,6.4-1.6,11.9-2.4,17.4c-0.2,1.1,0.1,2.8-1.3,2.9
			c-4.8,0.3-5.6,4.5-7.4,7.6c-8.4,14.1-17.2,27.8-26.8,41.1c2.7,1,4.2-0.8,5.9-2c7.2-5.4,12.6-12.4,17.9-19.5c2.1-2.8,4-5.5,6.1-8.3
			c0.8-1.3,2.5-1.8,3.9-1.2c1.7,0.7,1.9,2.2,1.5,3.8c-3.7,17.3-8.8,34.2-15.2,50.7c-0.7,1.7-1.9,2.9-3.7,2.2
			c-2.5-0.9-2.4-2.8-1.6-4.8c3.5-9.1,6.6-18.1,9.3-27.4c0.5-1.7,0.9-3.3,1.5-5.9c-4.6,4.5-8.5,8.5-12.5,12.1
			c-5.4,4.8-11.4,8.9-18.9,9.8c-1.8,0.2-3.8,1-4.9-0.9c-1.3-2.1,0-3.7,1.2-5.3c10.9-14.7,21.1-30,30.4-45.8c1-1.7,2.5-3.1,2.4-5.2
			C2422.8,221.3,2423.2,218.9,2423.9,216.7z"/>
		<path class="st8" d="M2478.1,103.8c-3,3.9-7.1,5.7-11.7,6.4c-6.3,1.3-12.6,1.9-19,2c-5.6-0.1-11,0.9-16.5,1.7
			c-9.3,1.5-18.7,0.5-27.5-2.9c-2-0.8-3.9-2.7-6.4-1.4l0.2-0.1c0.3-1-0.4-1.1-1.1-1l0.1,0.1c-0.2-1.3-1-1.3-2-1.2h0.1
			c-0.1-0.9-0.9-0.9-1.6-1.1c-1.5-0.5-2.7-1.5-3.4-2.9c5.3-0.4,10.5,1.2,16.1,0.2c12.4-2.4,27.8-14.2,26.5-28
			c-0.2-1.8,0.7-2.6,2.5-3c2.1-0.5,4.2-0.8,6.3-0.8c15.8,0.2,31.2,3.1,46.5,6.5c22.9,5.1,44.8,13.4,67.1,20.7
			c1.1,0.4,2.3,0.5,2.8,1.8c-8.5-0.9-16.9-1.9-25.4-2.7c-34.3-2.9-68.9-1-102.7,5.7c-2.4,0.5-5.5,0.6-4.6,4.1c0.8,3.2,3.5,2,5.7,1.6
			C2445.9,106.8,2461.9,104.4,2478.1,103.8z"/>
		<path class="st4" d="M2368.8,46.3c0.3-0.4,0.7-0.7,1-1.1c0.6,0,1.1,0,1.2-0.8l0,0c5.3-0.9,10.3-2.7,15.8-3.4
			c14.4-1.7,28.7-0.8,43,0.8c3.2,0.3,4.3,0,4.1-3.5c-0.3-5.7-0.1-11.4-0.1-17.1l0.4,0.1c2,0.2,4,0.3,6,0.5c0.5,3.5-0.9,7,0.5,10.6
			c3.6-3,6.1-6.6,9.8-8.9c2.5-0.4,4.7,0.5,7.1,1.1c-2.8,3.4-6.8,5.2-9.2,9c-1.2,1.1-3,2.1-3.4,3.4c-1,2.6-6,2.5-4.7,5s5.3,1,8.2,1.5
			c2.3,1.2,4.8,0.7,7.3,1c40.1,5.6,78.8,16.5,116.6,30.8l46.4,17.4l0,0c0.7,0.4,1.3,0.7,2,1.1c2.4,1.2,4.7,2.5,7.1,3.6
			c0.4,0.7,1.3,1.1,2.1,0.9l0,0c0,2.2,2.3,2.6,3.3,3.8c1.4,1.6,3,3,2.5,5.4c-1.8-0.8-3.6-1.5-5.4-2.3c-45.8-19.6-91.9-38.4-141-48.9
			c-30.7-6.5-61.9-10-93.2-10.5c-10.6-0.2-21.1,1.1-29.2,9.2C2366.1,51.8,2368,49.3,2368.8,46.3z"/>
		<path class="st7" d="M2368.8,46.3c-0.8,2.9-2.7,5.5-2,8.8v0.1c-0.3,0.4-0.6,0.7-0.9,1.1c0,0.4-0.1,0.9-0.1,1.3
			c-4.2,6.5-2.6,12.7,1,18.8v0.3c0.1,0.6,0.2,1.2,1,1.3l-0.1-0.1c-0.2,0.9,0.3,1.8,1.1,2.1l-0.1-0.1c0.4,0.7,0.7,1.3,1.1,2l0,0
			c0.3,0.5,0.6,0.9,1,1.3c4.8,7.3,10.4,13.9,17.7,18.9c-0.2,0.6,0.2,1.3,0.8,1.4c0.1,0,0.1,0,0.2,0h-0.1c0.7,1.4,2,2.4,3.5,2.9
			c0.5,0.4,1,0.7,1.6,1.1h-0.1c0.4,0.8,0.7,1.9,2,1.2l-0.1-0.1c-0.4,1.1,0.1,1.3,1.1,1l-0.2,0.1c9.3,8.7,19.6,16.2,30.8,22.3
			c3,1.7,5.9,3.7,8.7,5.9c1.6,1.2,3.1,2.2,1.6,4.2c-1.2,1.7-2.9,2-4.7,0.9c-2.8-1.5-5.3-4.2-8.8-1.7c-4.4,1.7-8.9,3.3-13.4,5
			c4.8-0.1,9.5-1.6,13.5-4.2c2-0.2,4.1-0.5,4.7,2.2c0.6,2.7-1.5,3.2-3.4,4c-12.3,5.4-25.5,8.6-38.9,9.5c-3.8,0.3-7.7,1-11.6,0.2
			c-2.1-0.4-4.1-0.5-3.8-3.4c0.3-2.7,2.3-2.8,4.3-2.8c4.9,0,9.8-0.2,14.8-0.4c1.1,0,3.2-0.4,3.2-0.8c0.8-7.3,7.7-5.8,11.7-8.2
			c3.2-2,7.4-2.6,10.9-4.9c-16.2-7-33.1-12.1-50.5-15.1c-0.2,0-0.3-0.1-0.5-0.1c-2.5-0.2-4.9-0.8-4.4-3.8c0.6-3.5,3.6-2.3,5.6-2
			c10.4,1.7,20.6,4.1,30.5,7.4c2.8,0.9,5.5,1.7,9,2.8c-0.7-2.8-2.7-3.5-4-4.5c-12-9.7-23.2-20.3-33.5-31.7
			c-4.7-5.2-8.9-10.9-11.1-17.7C2353.9,61.2,2358.1,51.3,2368.8,46.3z"/>
		<path class="st9" d="M2478.1,103.8c-16.2,0.7-32.3,3-48.3,6c-2.2,0.4-4.9,1.7-5.7-1.6c-0.9-3.6,2.3-3.7,4.6-4.1
			c33.8-6.7,68.4-8.6,102.7-5.7c8.5,0.7,16.9,1.8,25.4,2.7c3.8,0.7,7.7,1.4,11.5,2c15,2.6,29.6,6.6,44.2,10.4c11,3.9,22,7.9,33,11.8
			l22.5,10.3c2.1,1.8,5.9,1.6,6.2,5.3c-0.3,0.7-0.2,1.7-1.3,2h-3c-8.6-3.8-17-7.7-25.6-11.4c-1.5-0.5-3-1-4.5-1.4
			c-0.8-0.6-1.6-1.1-2.5-1.5c-20.2-8-41.1-14.1-62.4-18.3c-9-1.8-17.8-4.1-27.1-3.8c-17.7-3.5-35.8-3.5-53.7-3.5
			C2488.9,103,2483.5,103.4,2478.1,103.8z"/>
		<path class="st3" d="M2674.4,140.8c-0.4-3.7-4.1-3.5-6.2-5.3c0.2-3.4-2.4-6-2-9.4c6.3,3.8,11.6,9,16.8,14.3
			c1.6,1.6,3.2,2.6,5.1,0.9s0.8-3.5-0.7-5c-4-3.8-8.1-7.6-12.1-11.4c5.8-0.6,6.2-1.3,4.3-7c-1-3-1.9-5.9-2.6-8.9
			c-2.1-10-4-20-6.1-30l0.3-1.2c18.4,8,31.8,20.5,35.2,41.2c2.6,15.6-11.9,27.8-27.3,23.5C2677.5,141.9,2676,141.3,2674.4,140.8z"/>
		<path class="st7" d="M2457.6,24.6c-2.4-0.6-4.6-1.5-7.1-1.1c0.1-0.2,0.1-0.5,0-0.7c31.1-25.1,67-29.2,104.9-23.4
			c7.3,1.1,14.5,2.9,21.7,4.4c1.9,0.4,3.8,0.9,5.8-0.5c-2-2.9-5.3-4.6-8.8-4.5c-2.5,0-4.4-0.8-4.2-3.5s2.7-2.4,4.5-2.4
			c7.1,0,13.5,4.5,15.8,11.2c1,3.2,2.7,4.4,5.6,5.2c13.1,4.1,25.8,9.5,37.7,16.3c0,0.3,0,0.6,0.2,0.8c-2.6,0-5.2-0.4-7,2.2l-1.7-0.3
			c-9.7-5.7-20.1-10-31-12.8c-12.2-4.9-24.9-8.2-37.9-9.8c-0.4-0.3-0.8-0.5-1.3-0.7c-16.7-2.4-33.5-3.1-50.2-0.3
			c-16.7,2.9-32.1,9-45.6,19.5C2458.5,24.5,2458.1,24.6,2457.6,24.6z"/>
		<path class="st3" d="M2433.8,21.3c0,5.7-0.2,11.4,0.1,17.1c0.2,3.5-1.1,3.8-4.1,3.5c-14.3-1.6-28.6-2.6-43-0.8
			c-5.4,0.7-10.4,2.5-15.8,3.4c1.5-6.6,6.7-10.2,11.5-13.9c8.9-6.7,19.5-9.1,30.3-9.9C2419.8,20.4,2426.8,19.9,2433.8,21.3z"/>
		<path class="st7" d="M2635.6,166.1c7.6,1.8,15.1,3.4,22.7,5.2c1.3,0.3,2.6,0.7,3.8,0.9c2.4,0.4,4.4,1.3,3.9,3.9
			c-0.5,3.1-3.2,2.3-5.1,1.9c-11.8-2.7-23.6-5.5-35.5-8c-7.6-1.6-14.7-5.3-22.7-5.4c-2,0-3.2-0.7-3.1-2.9s1.6-3.1,3.6-3.1
			c4.1,0,8.2,0.1,12.3,0.1c4.9,0,9.9,0,15-0.4c-7.7-3.3-15.8-4.9-23.8-6.7l-2.9-0.6c-2-0.6-2.5-2-2.1-3.9s1.9-2.1,3.4-1.8
			c6.7,1.4,13.5,2.6,20.2,4.1c10.3,2.5,20.5,5.7,30.3,9.8c2,0.8,3.8,1.7,3,4.1c-0.7,2.3-2.5,1.9-4.4,1.8c-6.2-0.2-12.3-0.1-18.5-0.1
			C2635.7,165.5,2635.7,165.8,2635.6,166.1z"/>
		<path class="st7" d="M2674,272c2.1,8.9,3.9,17.1,4.5,25.6c0.9,10-0.3,20-3.3,29.5c-0.6,2-1.5,3.3-3.8,2.9s-2.8-2.3-2.1-4.1
			c6.3-17.9,3.1-35.6-1.4-53.1c-0.3-1-0.6-1.9-0.8-2.9c-0.4-1.9-1.8-3.8,0.2-5.5c1.9-1.5,3.7-0.4,5.5,0.4l24.3,10.6
			c-0.4-3.2-1.9-5.1-3-7.1c-5.1-9-11.3-17.3-18.4-24.8c-1.4-1.5-3.1-3-0.9-4.9c1.9-1.7,3.6-0.9,5.1,0.7c11.1,11.6,20,25.2,26.3,40
			c0.7,1.6,1.1,3.2-0.4,4.5c-1.5,1.3-3.1,0.6-4.6-0.1C2692.5,280.1,2683.6,276.2,2674,272z"/>
		<path class="st7" d="M2703.4,170.9c0.6,2.4,2.5,2.7,3.7,3.5c9.1,5.8,18.2,11.6,27.3,17.4c1.9,1.2,3.9,2.6,2.3,5
			c-1.7,2.4-3.6,1.4-5.5,0.1c-19.1-12.9-38.9-24.7-59.4-35.4c-1.8-1-3.6-2-2.9-4.4c0.9-2.8,3-1.6,4.8-1.5
			c13.5,0.7,26.3,4.7,39.6,6.4c5.1,0.6,5.6,4.9,7.5,7.8c1.3,2-1.2,3.6-3.8,3.2C2712.5,172.3,2708.1,171.6,2703.4,170.9z"/>
		<path class="st9" d="M2482.3,154.7c0.6,2.2,2.1,1.8,3.2,1.9c5.4,0.6,10.7,1.3,16.2,1.9c2.1,0.2,3.7,0.8,3.7,3.1
			c0,1.9-1.3,2.8-3.3,3c-2.6,0.3-5.2,0.4-6.1,3.6c-0.3,1-1.5,1.2-2.6,1.2c-9.1-0.4-17.9,1.8-26.9,2c-2.3,0-4.9,0.7-5.3-2.7
			c-0.3-3.2,2.3-3,4.3-3.4c4.7-0.8,9.2-1.9,13.7-3.5c-7.4-0.8-14.8-1.6-22.2-2.5c-1.9-0.2-4.3-0.1-4.5-2.9s2-3.4,4.1-3.8
			c15.1-3.9,30.8-4.9,46.3-3c2.4,0.3,4.4,0.8,4.1,3.6c-0.3,2.7-2.6,2.6-4.6,2.3C2495.8,154.7,2489.1,154.4,2482.3,154.7z"/>
		<path class="st7" d="M2553.9,247.4c-11.7,0.8-11.8,1-8.9-10.2c5-19.5,9.6-39.1,14.6-58.6c0.5-2.2,0.2-5.7,3.9-4.7
			c3.1,0.9,2.4,3.7,1.7,6.2c-4.6,18.7-9.2,37.5-13.9,56.2c-1.5,5.8-1.4,5.8,4.7,5.4c1.6-0.2,3.3-0.2,4.9-0.2
			c1.7-0.1,3.2,1.2,3.4,2.9c0,0.2,0,0.4,0,0.6c0,2.3-1.7,2.5-3.5,2.5L2553.9,247.4z"/>
		<path class="st4" d="M2626.7,28.8c1.8-2.6,4.4-2.2,7-2.2c2,1.2,3.9,2.3,5.8,3.5c10.2,6.8,18.1,15.8,24.6,26.1l0,0
			c-0.3,0.9,0.1,1.8,0.9,2.3c2.1,6.4,4,12.8,6.1,19.2l-0.3,1.2c-1.6,2.6-0.4,5.4-0.8,8.1c-0.4,2.7,1.2,5.5-1.3,7.8
			c-1-0.7-0.6-1.8-0.7-2.8c-1.9-16.5-6.1-32.1-17.8-44.8C2643.4,39.6,2635.1,34.1,2626.7,28.8z"/>
		<path class="st8" d="M2548,106.4c9.2-0.3,18.1,2.1,27.1,3.8c21.3,4.2,42.2,10.3,62.4,18.3c0.9,0.4,1.7,0.9,2.5,1.5
			c-4.5,3.6-9.3,2.2-13.8,0.4c-19.7-7.7-39.5-14.7-60.1-19.6C2560.1,109.4,2554,107.9,2548,106.4z"/>
		<path class="st2" d="M2537.8,279.4c1.8,3,3.2,5.4,4.6,7.9c0.9,1.6,1.2,3.2-0.5,4.3c-1.7,1.1-3.5,0.6-4.5-1.2
			c-2.1-3.3-4.2-6.6-6.1-10c-1.6-2.8-0.2-5.5,1.1-7.7c1.3-2.4,3.8-0.8,5.6,0c6,2.2,12.1,3.9,18.4,4.8c2.3,0.4,4.6,0.8,4.1,3.6
			c-0.5,3.2-3,2.8-5.4,2.2C2549.5,281.9,2544,280.8,2537.8,279.4z"/>
		<path class="st2" d="M2670.2,142.8h3c-0.4,2.6,1.7,1.9,3,2.1c9.2,1.7,18.3,3.2,27.5,4.8c2.4,0.4,4.7,0.9,4.2,4.1
			c-0.5,3.2-3.1,2.2-5,1.8c-10.4-1.8-20.9-3.6-31.3-5.5c-2.3-0.4-5.2,0-5.6-3.5C2665.5,143.1,2669.1,144.5,2670.2,142.8z"/>
		<path class="st2" d="M2618.8,198.1c-0.3,3-2.5,5.3-4.8,4.1c-6.1-2.9-12-0.7-18.1-0.5c-1.1,0.1-2.3,0-3.4-0.3
			c-1.4-0.5-1.8-1.8-1.7-3.2c0.1-1.3,1.2-2.3,2.5-2.3c0,0,0.1,0,0.1,0c6.7-0.5,13.3-1.1,20-1.6
			C2616.2,194.1,2618,195.4,2618.8,198.1z"/>
		<path class="st8" d="M2664.3,56.2c-6.5-10.3-14.5-19.3-24.6-26.1c-1.9-1.3-3.9-2.4-5.8-3.5c-0.1-0.2-0.2-0.5-0.2-0.8
			c9.8-0.7,17,3.8,22.7,11.2C2660.4,42.7,2663.7,48.9,2664.3,56.2z"/>
		<path class="st2" d="M2572.1,276.7c-1.4,0-2-0.9-2.7-1.9c-2.8-4-6.1-7.7-9.7-11c-1.7-1.5-2.6-3.1-0.8-5s3.5-0.7,5,0.7
			c3.8,3.6,7.3,7.5,10.3,11.7c0.9,1.3,1.3,2.7,0.3,4.1C2574.1,276.3,2573.1,276.8,2572.1,276.7z"/>
		<path class="st2" d="M2518.6,257c-0.1,2-14.3,12.7-16.4,12.3c-1.6-0.3-2.7-1.8-2.5-3.5c0.1-0.7,0.5-1.3,1-1.8
			c4.3-3.2,8.5-6.6,12.9-9.7C2516.1,252.9,2518.7,254.5,2518.6,257z"/>
		<path class="st2" d="M2588.3,266.1c4.7,2.4,10,4.3,14.4,7.6c1,0.8,0.8,2.5,0,3.6c-0.6,1.2-2.1,1.6-3.3,0.9c0,0,0,0-0.1,0
			c-4-2.1-8.2-4-12.2-6.1c-1.4-0.7-2.1-2.3-1.5-3.7C2585.9,267.1,2587,266.1,2588.3,266.1z"/>
		<path class="st2" d="M2530,266.9c-1-0.2-1.7-1-1.8-2c-0.3-1.3-0.3-2.8,1-3.5c3.4-2,6.9-3.7,10.3-5.5c1.1-0.5,2.4-0.1,3.1,0.9
			c0.6,1,0.7,2.2,0.2,3.3C2542.3,261.1,2531.9,267,2530,266.9z"/>
		<path class="st2" d="M2706.2,187.3c1.5-0.1,9.7,6.7,10,8.3c0.3,1.2-0.2,2.4-1.2,3c-0.9,0.8-2.2,0.9-3.2,0.2
			c-2.6-2-5.1-4.1-7.5-6.3c-1.1-1-1-2.4-0.4-3.6C2704.3,188,2705.2,187.3,2706.2,187.3z"/>
		<path class="st2" d="M2489.4,192.9c1.9,0,3.6,1.1,3,4.1c-0.5,2.3,0.7,6.2-3.1,6.2c-4.2,0-3.7-4.3-4.4-7.1
			C2484.3,193.6,2486.2,192.7,2489.4,192.9z"/>
		<path class="st8" d="M2450.5,23c0.1,0.2,0.1,0.5,0,0.7c-3.7,2.3-6.3,5.9-9.9,8.9c-1.4-3.7,0-7.3-0.5-10.6c0.1-0.1,0.3-0.2,0.5-0.2
			C2443.9,22.1,2447.3,22.6,2450.5,23z"/>
		<path class="st8" d="M2424.6,141.9c-4,2.7-8.7,4.2-13.5,4.2c4.4-1.7,8.9-3.4,13.4-5C2424.8,141.3,2424.8,141.6,2424.6,141.9
			C2424.6,141.8,2424.6,141.8,2424.6,141.9z"/>
		<path class="st8" d="M2665.1,58.4c-0.8-0.5-1.1-1.4-0.9-2.3C2665.4,56.5,2665.4,57.4,2665.1,58.4z"/>
		<path class="st3" d="M2370.9,44.5c-0.1,0.8-0.6,0.8-1.2,0.8C2370,44.6,2370.2,44.3,2370.9,44.5z"/>
		<path class="st10" d="M2612.8,113.3c-14.7-3.8-29.3-7.9-44.2-10.4c-3.8-0.7-7.7-1.4-11.5-2c-0.5-1.3-1.8-1.4-2.8-1.8
			c-22.3-7.3-44.2-15.6-67.1-20.7c-15.3-3.5-30.7-6.3-46.5-6.5c-2.1,0.1-4.2,0.3-6.3,0.8c-1.8,0.4-2.7,1.2-2.5,3
			c1.3,13.8-14,25.6-26.5,28c-5.5,1.1-10.7-0.6-16.1-0.2h0.1c-0.3-0.5-0.7-1-1-1.5c-7.3-5-12.9-11.6-17.7-18.9
			c-0.3-0.5-0.6-0.9-1-1.3l0,0c-0.2-0.8-0.2-1.7-1.1-2l0.1,0.1c0-0.9-0.1-1.7-1.1-2.1l0.1,0.1c-0.4-0.4-0.7-0.8-1-1.3v-0.3
			c-0.5-6.3-1.5-12.5-1-18.8c0-0.4,0.1-0.9,0.1-1.3c0.3-0.4,0.6-0.7,0.9-1.1v-0.1c8.2-8.1,18.6-9.4,29.2-9.2
			c31.3,0.5,62.5,4.1,93.2,10.5c49.1,10.4,95.2,29.2,140.9,48.9c1.8,0.8,3.6,1.5,5.4,2.3c0.1,0.3,0.1,0.5,0.2,0.8
			c-0.1,3.9-2.9,4.8-6,4.8C2624.1,113.4,2618.4,113.3,2612.8,113.3z"/>
		<path class="st0" d="M2396.2,108.6c-1.3,0.7-1.6-0.4-2-1.2C2395.3,107.2,2396.1,107.3,2396.2,108.6z"/>
		<path class="st0" d="M2394.4,107.4c-0.5-0.4-1-0.7-1.6-1.1C2393.5,106.5,2394.2,106.5,2394.4,107.4z"/>
		<path class="st0" d="M2397.1,109.5c-0.9,0.2-1.4,0-1.1-1C2396.8,108.4,2397.4,108.5,2397.1,109.5z"/>
		<path class="st3" d="M2458.9,24.4c13.5-10.5,28.9-16.6,45.6-19.5s33.5-2.1,50.2,0.3c0.5,0.1,0.9,0.4,1.3,0.7
			c7.5,2.7,15.1,5.1,22.4,8.2c5.1,2.2,10,4.3,15.6,1.6c10.9,2.8,21.3,7.1,31,12.8c-4.7,5.3-6.6,11.1-5.3,18.4
			c1.3,7.3,4.6,13.6,8.9,19.4c9.2,12.5,16.2,26.5,20.8,41.4c-6.7-2.9-12.7-7-19.6-9.2l0,0c-0.4-0.7-1.3-1.1-2.1-0.9
			c-2.4-1.2-4.7-2.5-7.1-3.6c-0.2-1.2-1-1.3-2-1.1l0,0c-4.1-5.3-10.1-8-15.6-11.4c-35.4-22.2-74-39-114.4-49.9
			C2479,28.9,2468.8,26.8,2458.9,24.4z"/>
		<path class="st10" d="M2458.9,24.4c9.9,2.4,20.1,4.4,29.9,7.1c40.5,11,78.8,27.4,114.4,49.8c5.4,3.4,11.4,6.1,15.6,11.4
			l-46.4-17.4c-37.8-14.3-76.4-25.3-116.6-30.8c-2.5-0.3-4.9,0.1-7.3-1v-9.9c2.4-3.7,6.4-5.6,9.2-9
			C2458,24.6,2458.5,24.5,2458.9,24.4z"/>
		<path class="st9" d="M2629.8,98.4c7,2.2,13,6.3,19.6,9.2l17.4,10.9c2.8,2.1,5.5,4,8.3,6.1l0.1,0.1c4,3.8,8.1,7.6,12.1,11.4
			c1.6,1.5,2.8,3.1,0.7,5c-1.9,1.7-3.5,0.7-5.1-0.9c-5.1-5.2-10.4-10.4-16.7-14.3c-5.3-4.6-11.7-7.7-17.6-11.3
			c-4-2.5-8.3-4.6-12.8-6.3c-0.1-0.3-0.1-0.5-0.2-0.8c0.6-2.5-1-3.8-2.5-5.4C2632,101,2629.8,100.6,2629.8,98.4z"/>
		<path class="st8" d="M2448.4,33.6v9.9c-2.8-0.4-6.9,1.2-8.2-1.5c-1.3-2.7,3.7-2.5,4.7-5C2445.6,35.7,2447.3,34.7,2448.4,33.6z"/>
		<path class="st10" d="M2618.8,92.8c1-0.2,1.8-0.1,2,1.1C2620,93.5,2619.4,93.1,2618.8,92.8z"/>
		<path class="st9" d="M2627.8,97.5c0.8-0.1,1.6,0.3,2.1,0.9C2629,98.4,2628.2,98.3,2627.8,97.5z"/>
		<path class="st3" d="M2365.8,57.5c-0.5,6.3,0.5,12.6,1,18.8C2363.1,70.3,2361.5,64,2365.8,57.5z"/>
		<path class="st3" d="M2368.7,79.7c1,0.3,0.9,1.2,1.1,2C2369.4,81.1,2369.1,80.4,2368.7,79.7z"/>
		<path class="st3" d="M2367.7,77.7c1,0.4,1,1.2,1.1,2.1C2367.9,79.5,2367.5,78.6,2367.7,77.7z"/>
		<path class="st3" d="M2369.8,81.7c0.3,0.5,0.6,0.9,1,1.3C2370.4,82.6,2370,82.1,2369.8,81.7z"/>
		<path class="st4" d="M2366.8,55.2c-0.3,0.4-0.6,0.7-0.9,1.1C2366.2,55.9,2366.5,55.5,2366.8,55.2z"/>
		<path class="st3" d="M2366.8,76.6c0.4,0.4,0.7,0.8,1,1.3C2367,77.7,2366.9,77.3,2366.8,76.6z"/>
		<path class="st8" d="M2388.4,101.9c0.3,0.5,0.7,1,1,1.5C2388.6,103.3,2388.3,102.7,2388.4,101.9z"/>
		<path class="st8" d="M2635.8,108.4c4.5,1.6,8.8,3.7,12.8,6.3c-0.5,3.5-0.9,7.2-2.9,10.3c-11-3.9-22-7.9-33-11.8
			c5.7,0,11.4,0.1,17,0C2632.9,113.2,2635.7,112.3,2635.8,108.4z"/>
		<path class="st11" d="M2645.8,125c2-3.1,2.4-6.8,2.9-10.3c5.9,3.6,12.3,6.7,17.6,11.3c-0.4,3.4,2.2,6.1,2,9.4
			C2660.7,132,2653.2,128.5,2645.8,125z"/>
		<path class="st7" d="M2675.2,124.7L2675.2,124.7c-1.8-6.5-3.4-12.9-5.1-19.3V100c0-1.2,0.4-2.5-0.8-3.4c-0.1-0.6-0.3-1.3-0.4-1.9
			c2.5-2.3,0.9-5.2,1.3-7.8s-0.8-5.5,0.8-8.1c2.1,10,4,20.1,6.1,30c0.6,3,1.5,6,2.6,8.9C2681.4,123.4,2681,124.1,2675.2,124.7z"/>
		<path class="st10" d="M2670.1,99.9v5.4c-1.1,4.3-2.2,8.8-3.2,13.1l-17.4-10.9c-4.6-14.9-11.6-28.8-20.8-41.4
			c-4.2-5.8-7.6-12-8.9-19.4s0.6-13.1,5.3-18.4l1.8,0.3c8.4,5.4,16.8,10.9,23.5,18.3c11.7,12.7,16,28.3,17.8,44.8
			c0.1,1-0.2,2,0.7,2.8c0.1,0.6,0.3,1.3,0.4,1.9C2669.2,97.7,2669.1,98.9,2670.1,99.9z"/>
		<path class="st11" d="M2593.9,15.6c-5.5,2.8-10.4,0.7-15.6-1.6c-7.3-3-14.9-5.5-22.4-8.2C2569,7.4,2581.8,10.7,2593.9,15.6z"/>
		<path class="st8" d="M2666.8,118.5c1.1-4.3,2.2-8.8,3.2-13.1c1.7,6.4,3.3,12.8,5,19.2C2672.3,122.6,2669.6,120.6,2666.8,118.5z"/>
		<path class="st4" d="M2670.1,99.9c-1-1-0.9-2.3-0.8-3.4C2670.5,97.4,2670.1,98.7,2670.1,99.9z"/>
		<path class="st6" d="M1138.7,177.9h21.1c-5,4.2-9.3,7.2-14.2,9.4C1144.5,183.3,1140.9,181.1,1138.7,177.9z"/>
		<path class="st12" d="M1061,224.9c15.3-3.7,30.7-6.9,45.7-11.7c14.1-4.7,27.8-10.5,41-17.3c-0.4,15.6-10.9,27.1-27.5,28
			C1100.5,224.8,1080.7,224.5,1061,224.9z"/>
		<path class="st5" d="M924.1,247c0.7,11.7,0.3,23.8-2.7,35.2s-7.9,22.5-12.3,33.6c-5.2,13.1,16.9,22.5,23,9.7
			C942.3,304,949,281,952,257.4l-26.2,3.5c7.3,21.7,17,42.4,28.8,62l8.2-20.3c-8.9,3.5-18.3,5.6-27.9,6.3v28.3
			c12.9-1,25.7-3.5,38.1-7.4c7.6-2.3,12.1-10.2,10.1-17.9l-9.6-38.9l-27.3,11.5c5.9,8.5,11.7,17,17.6,25.5l23.8-18.3
			c-12.9-13.6-22.6-30-28.1-48c-2.9-9.4-3.6-19.5-7-28.8c-4.3-11.6-12-18.7-20.9-26.7c-14.5-13.1-24.4-26.1-33.2-43.9
			c-1.8-3.5-3.4-7.1-4.8-10.8c-1.8-4.7-3.3-9.5-4.6-14.3c-2.9-10.8-3.5-23.2-11.9-31.5c-9-8.9-23-11.5-35-7.5
			c-13.3,4.5-21.8,15-30,25.8c-4.8,6.4-1.6,18.9,5.8,22.1c15.1,6.6,31.2,10.6,47.6,11.7c10.2,0.7,18.7-10.9,15.6-20.5
			c-4-12.1-5.5-21.6-5.3-34.2c0-5.2,0.5-10.5,1.4-15.6c0.6-3.1,1.3-6.2,2.1-9.3c0.4-1.5,0.9-3,1.4-4.5c0.1-0.3,1.2-3.5,0.6-2.2
			c0.5-1.1,1.1-2.2,1.6-3.3c2.3-4.4-0.6,0.2,0.8-1.5c0.7-0.9,1.6-1.6,2.4-2.5c2-2.1-1,0.5,0.5-0.4c1-0.5,2-1.1,2.9-1.7
			c2.4-1.4-1,0,0.6-0.2c2-0.3,4.1-1.2,6.1-1.7c0,0,4.2-0.6,2.1-0.4s1.8-0.1,2.2-0.1c2.5-0.2,4.9-0.2,7.4-0.2c4.9,0.1,9.8,0.5,14.7,1
			l-8.1-30c-11.4,5.2-24.3,7.4-37.5,7.1l16.1,16.1c-0.1-1,0.4-4.5-0.3-1.6c0.2-0.7,0.9-4.8,0.5-1.7l0.8-1.3c-0.9,1-1,1.1-0.2,0.2
			c0.8-1,1.7-1.9,2.7-2.7c-2.1,1.8,1.6-0.9,1.8-1c2.9-1.7-1.4,0.1,2.5-0.9c2.2-0.7,4.5-1.1,6.8-1.1c6.5-0.2,13,0.1,19.5,0.9
			c2.9,0.3,5.9,0.6,8.8,1c-2.4-0.3-0.3,0,0.9,0.2c1.5,0.2,3,0.5,4.4,0.7c5.4,0.9,10.7,2.2,15.9,3.7c2.6,0.8,5.1,1.7,7.6,2.6
			c3.2,1.2-1.8-1,1.5,0.6c1.1,0.5,2.1,1,3.2,1.6c2.3,1.2,4.5,2.5,6.7,3.9c0.6,0.4,3.9,2.9,1.2,0.8c0.9,0.7,1.8,1.5,2.6,2.2
			c1.9,1.7,3.6,3.5,5.3,5.5c-2.2-2.6,0.6,0.8,0.8,1.2c0.8,1.2,1.5,2.4,2.2,3.7l22.1-22.1C981.3,17.5,950.1,7,917.7,2l7.3,27.5
			c-2.2,1.8,2.6-1.6,3.1-1.9c1.8-0.8,1.9-0.9,0.3-0.3c1-0.4,2-0.7,3-1c0.6-0.2,6.7-1.4,3.4-1c1.6-0.2,3.2-0.3,4.8-0.3
			c2.1,0,4.3,0.1,6.4,0.3c-3.2-0.4,2.9,0.8,3.5,0.9c2.1,0.6,4.2,1.3,6.3,2.1c-2.4-1,1.8,1,2.3,1.2c13.1,6.9,27,19.5,33.9,31.8
			c0.3,0.6,2.3,5.2,1.5,2.9c0.3,0.8,1.6,7.3,1.1,3.3c0.2,1.9,0.3,3.8,0.2,5.7c0,0.5-0.5,5.5-0.2,3.6s-0.6,3.1-0.8,3.6
			c-0.4,2-0.9,3.9-1.4,5.8c-1,3.6-2,7.3-3,10.9c-4.4,16.1-7.1,34.3,3.3,48.8c5.5,7.6,13.9,10.2,22.5,5.9
			c13.1-6.6,23.5-16.2,32.3-27.7c5.9-7.6,0.4-17.8-5.9-22.6c-15.5-11.7-34.8,0.1-46.2,11.5c-10.4,10.4-19.8,21.9-27.8,34.2
			c-15.8,24-26.6,50.9-31.7,79.2l31.9,8.8c2.8-16.9,6.9-33.5,12.2-49.8c5.1-15.5,11.4-30.5,18.9-45h-28.5c-1.2-2.8-0.2,0.5,0.1,1
			c0.7,1.5,0.2-2.3,0.1,0.6c0,0.5-0.2,4.4,0,2.1s-0.5,2-0.5,2c-0.3,0.9-0.6,1.9-0.9,2.8c1-2.9-0.2,0.2-0.5,0.8
			c-0.6,1.1-1.3,2.2-2,3.3c-0.2,0.3-2.6,3.5-1.5,2.2c1.1-1.3-1.9,2.1-1.8,2c-0.7,0.8-1.5,1.6-2.3,2.3c-1.2,1.1-2.4,2.2-3.6,3.3
			c-0.7,0.6-1.9,1.4-0.5,0.4c-2.1,1.5-4.4,2.9-6.6,4.2c-1.8,1.1-1.5,0.1-0.4,0.6c3.8,1.6,3.8,0.8,7.3,4c-0.9-0.8-0.8-1.7-0.2,0
			c-0.5-1.2-0.8-2.5-1.1-3.8c-0.9-3.2-1.7-6.5-2.5-9.8c-1.5-6.2-2.7-12.5-3.7-18.8c-1.8-12.5-2.6-25.1-2.5-37.8
			c0.1-8.6-7.6-16.9-16.5-16.5c-9.4,0.4-15.9,7.3-16.5,16.5c-1.5,24.4-3.1,48.7-4.8,73.1l31.4-8.5c-9.6-15.1-14.8-27.5-18.8-44.7
			c-1-4.1-1.8-8.2-2.4-12.4c-0.2-1.2-0.2-1.2,0,0.1c-0.2-1.2-0.3-2.4-0.4-3.6c-0.2-2.1-0.4-4.2-0.5-6.3c-0.5-8.7-0.4-17.4,0.4-26.1
			h-34.7c-1.8,20.8-5,41.5-9.6,61.9h33.2c-1.7-6.3-3.3-12.7-4.5-19.1c-1.2-5.9-2.1-11.8-2.6-17.8c-1.3-13.4-1.5-26.8-0.6-40.2
			l-29.1,12c1.3,1.5,1.4,1.6,0.4,0.2c0.6,0.9,1.2,1.7,1.8,2.6c1.1,1.8,2.2,3.6,3.1,5.5c2.1,4.2-0.7-2.7,0.7,1.8
			c0.6,2,1.1,4.1,1.7,6.1c0.4,2,0.4,2.1,0.2,0.2c0.1,1,0.2,2.1,0.3,3.2c0.1,1.6,0.1,3.2,0.1,4.8c0,1.1-0.1,2.1-0.2,3.2
			c0.3-1.9,0.3-1.9,0,0.2c-0.5,2.1-0.9,4.1-1.6,6.2l33.1,9.1c1.1-5.3,2.5-10.4,4.3-15.5c0.5-1.3,1-2.6,1.5-4
			c-0.7,1.7-0.1,0.3,0.3-0.6c1.2-2.6,2.5-5.1,3.9-7.6c2.5-4.5,5.2-8.7,8.3-12.8c-1.6,2,0.7-0.8,1-1.2c0.9-1.1,1.8-2.1,2.8-3.2
			c1.9-2.1,3.9-4.1,6-6l-26.9-3.5c1.2,1.9,2.2,3.8,3.2,5.8c-1.3-2.7,1,3,1.2,3.6c0.5,1.6,0.8,3.2,1.2,4.8c0.4,2.1,0.4,2.2,0.1,0.4
			c0.1,1.1,0.2,2.2,0.3,3.3c0.1,2.2,0,4.4-0.1,6.6c-0.1,3.6,0.6-1.8-0.2,2c-0.5,2.2-1,4.3-1.7,6.4c-0.3,1-0.7,2.1-1.1,3.1
			c0.6-1.6,0.5-1.4-0.3,0.4l31.3,4.1c-0.3-2.1-0.4-2.4-0.2-0.8c-0.2-1.2-0.3-2.4-0.4-3.6c-0.1-1.8-0.2-3.6-0.3-5.5
			c0-4.1,0.1-8.2,0.6-12.2c-0.1,1.1-0.1,0.6,0.2-1.3c0.2-1.2,0.4-2.4,0.7-3.6c0.5-2.1,1-4.1,1.6-6.2c0.6-2,1.2-4,2-6
			c0.4-1.1,0.8-2.3,1.3-3.4c-0.5,1.3-0.4,1,0.5-0.9l-31.2-4.1c2.3,12.9,3.2,26.1,2.6,39.2c-0.3,6-1,13.9-1.6,17.8
			c-1.1,7.1-2.6,14.1-4.4,21l33.8,4.6c-0.7-5.5-0.8-11-0.6-16.5c0.1-1.5,0.2-2.9,0.3-4.3c0.1-1.1,0.3-2.5,0.1-0.6
			c0.4-2.9,1-5.7,1.7-8.5c0.6-2.5,1.4-5,2.2-7.5c0.5-1.4,1-2.7,1.5-4.1c0.3-0.9,1-2.3,0.3-0.6c2.4-5.3,5.3-10.3,8.6-15.1l-31.9-4.2
			c2,5.9,3.7,12,4.9,18.1c0.3,1.5,0.6,3.1,0.8,4.6c0.5,3.4-0.4-4.1,0.3,1.9c0.3,3.1,0.6,6.2,0.7,9.4c0.2,6,0.1,11.9-0.5,17.9
			c-0.1,0.8-0.5,4.2-0.2,1.9c-0.2,1.5-0.5,3.1-0.8,4.6c-0.6,3.4-1.4,6.8-2.3,10.1h34c-0.5-3.2-0.1,0.6-0.2-1.4
			c-0.1-1.5-0.3-2.9-0.4-4.4c-0.2-2.6-0.2-5.2-0.2-7.9c0-2.6,0.2-5.2,0.4-7.8c0.2-3.2-0.2,0.5,0.1-1.4c0.2-1.1,0.4-2.3,0.6-3.4
			c1.1-5.4,2.6-10.8,4.5-16c1-2.9-0.2,0.2,0.5-1.4c0.5-1.1,1-2.1,1.5-3.2c1.3-2.6,2.7-5.2,4.2-7.7c0.2-0.3,2.1-3.3,0.9-1.6
			c-1.5,2.1,1.6-1.5,1.7-1.6c-0.5,2.1-8.4,2.2-9.7,2c-6.4-8.9-9-11.2-7.9-7c0.2,1,0.2,0.9,0-0.3c-0.1-2.7-0.2,1.8-0.2,2.2
			c0,1.2-0.1,2.4-0.2,3.5c0-0.1-0.6,4.8-0.3,2.9c0.3-2-0.5,2.5-0.6,2.9c-0.6,2.6-1.2,5.2-2.1,7.7c-0.5,1.4-0.9,2.8-1.5,4.2
			c-0.3,0.9-1.1,2.4-0.2,0.6c-1.2,2.7-2.6,5.3-4.1,7.9c-0.6,1-1.2,2-1.9,3c0,0-3.2,4.5-1.4,2.1l30.6,12.7c0.1-3.9,0.4-7.8,0.7-11.7
			c0.3-3.9-0.2,0.5,0.3-3c0.3-2.2,0.7-4.5,1.2-6.7c1.6-8,3.9-15.8,6.8-23.4L958,79.7c-0.2,23.1-3.3,46.1-9.5,68.4l33.1-4.3
			c1,2.5-1-2.8-1-2.7c-0.5-1.2-0.9-2.4-1.3-3.6c-1.2-3.3-2.2-6.6-3.1-10c-1.8-6.4-3.2-12.9-4.2-19.5c0.4,2.5-0.1-0.9-0.2-1.8
			c-0.2-1.6-0.3-3.1-0.5-4.7c-0.3-3.2-0.4-6.3-0.5-9.5c-0.1-7,0.2-13.9,0.9-20.9h-36.4c2.1,17.6,2.2,35.3,1.5,53
			c-0.3,8.1-0.5,16.3-1.1,24.4c-0.1,0.9-0.2,1.8-0.2,2.7c-0.2,2.1-0.2,1.8,0.1-0.8c0.1,1.2-0.5,2.9-0.7,4c-0.6,2.9-1.4,5.7-2.3,8.4
			c-1.4,4.4,1.4-1.9-0.4,1c-0.7,1-1.3,2.1-1.9,3.2c-1.9,3.1,2.6-2.3-0.1,0c-0.5,0.6-1.1,1.1-1.7,1.6c2.1-1.5,2.5-1.9,1.4-1.2
			c-3.4,2.7,2.7-0.8-0.5,0.2c-3.2,1,3.7,0.3-0.2,0c-4.3-0.3,4,1.1,0,0c-3.4-1,3.4,2.1-0.5-0.2c-4-2.3,1.6,2.2-0.7-0.5
			c-0.8-1-1.8-1.9-2.7-2.8c3.1,3.2,0.4,0.5-0.3-0.6c-0.9-1.4-1.7-2.8-2.5-4.2s-1.5-3-2.2-4.5c1.3,2.8,0.3,0.9-0.3-0.9
			c-1.1-3-2.1-6.1-2.9-9.2c-4.6-17.3-31.1-17.8-35.4,0c-5.4,21.8-1.7,46.2,11.3,64.8c6.1,8.7,13.5,15,21.4,21.9
			c1.9,1.7,3.8,3.4,5.6,5.2c0.7,0.7,1.3,1.5,2,2.2c2.3,2.4-0.6-1.6,0.2,0.2c0.4,0.8,0.8,1.6,1.4,2.3c1.5,1.7-1.4-3.4-0.2-0.3
			c0.9,2.3-0.2-0.2-0.2-1.3c0.5-2.7,0.6-3.3,0.3-1.8c-0.3,1.4-0.1,0.9,0.7-1.3c-3.9,8.8-2.9,20.3,6.6,25.3c8,4.2,21.1,2.8,25.3-6.6
			c5.5-12.5,5-25.4-3.3-36.6c-6.5-8.7-14.7-14.9-22.7-22.1c-1.7-1.6-3.2-3.4-4.9-5c-1.9-1.8,2.2,3.3-0.5-0.6
			c-0.6-0.9-1.2-1.7-1.7-2.6c-1.4-2.2-2.6-4.5-3.7-6.8c-0.8-1.7-0.5-1.5,0,0.1c-0.4-1.2-0.9-2.5-1.3-3.7c-0.8-2.5-1.2-5.1-1.9-7.6
			s0.3,4.3-0.1-0.5c-0.1-1-0.2-2.1-0.2-3.1c-0.1-2.6,0-5.2,0.2-7.8c0.1-2.1,0.3-1.3,0,0.2c0.4-1.5,0.6-3.1,1-4.6h-35.4
			c4.5,16.8,12.6,34.6,27.9,44.2c18.1,11.2,40.6,4.2,52-12.8c9.7-14.5,10.7-32.7,11.4-49.6c1-21.8,1.4-43.6-1.2-65.3
			c-1.1-9.4-7.6-18.7-18.2-18.2c-10.6,0.5-17.2,8-18.2,18.2c-3.1,31.3,2.7,62.2,15,91c2.8,6.5,11.7,9.5,18,8.6c7.1-1,13-6.1,15-13
			c6.6-25.5,10.2-51.7,10.5-78c0.1-9-6.9-16.5-15.6-17.7c-9.3-1.2-16.6,4.4-19.7,12.9c-6.3,17.4-9.7,35.8-10,54.4
			c-0.2,7.1,4.6,13.7,11,16.4c5.9,2.5,15.2,1.9,19.5-3.7c11.9-15.3,19.4-32.1,21.8-51.4c1.1-8.8,1.6-18.4-2.9-26.5
			c-6.5-11.8-21.1-15.5-32.8-9.3c-15,7.9-22.9,28.9-27.1,44.3c-4.7,17.3-5,35-2.1,52.7c1.2,7.3,9.9,13.3,17,13c7.7-0.3,15-5.2,17-13
			c7.4-28.6,6.5-59.3-3.4-87.2c-5.1-14.5-23.3-16.9-31.9-4.2c-14.6,21.6-21.5,48.9-18.3,74.8c1.1,8.6,5.7,15.7,14.9,16.9
			c8.2,1.1,16.7-4,18.9-12.3c8-31.7,8.8-64.2,3.2-96.3c-2.4-14.2-25.1-16.9-31.2-4.1c-10.6,22.2-13.7,45.7-9.5,69.9
			c2.5,14.4,25,16.8,31.3,4.1c11.2-22.5,10.9-49.5-2.6-71.1c-5-8.2-15.7-10.8-23.9-5.8c-1.1,0.7-2.1,1.5-3,2.3
			c-18.7,17.7-31.7,40.6-37,65.9c-1.8,8.8,2.5,18.9,12,21.1c9.1,2.3,18.4-3,21.1-12c7.3-23.6,0.8-48.8-15.4-67.1
			c-4.5-5.1-12.7-6-18.6-3.5c-6.5,2.8-10,8.6-10.5,15.6c-2,29,0.9,58.2,8.6,86.3c4.3,15.9,29.4,16.9,33.2,0
			c5.2-23.4,8.9-47.1,11.1-71c0.8-9.1-8.6-17.7-17.3-17.3c-10.1,0.5-16.4,7.6-17.3,17.3c-3.5,38.3,6.9,77.6,27.4,109.9
			c9.1,14.3,30.5,8.2,31.4-8.5c1.2-24.4,2.7-48.8,4.2-73.1h-33c-0.1,18.9,1.7,37.9,5.4,56.4c3.4,17.1,8,43.2,30.8,42.6
			c17.2-0.5,33.4-15.7,42.9-28.7c10.7-14.6,12.8-32,5.5-48.5c-5-11.3-23.2-10.3-28.5,0c-16.7,32.2-28.4,66.9-34.5,102.7
			c-1.4,8.5,2.2,18.2,11.5,20.3c8.1,1.8,18.7-2.4,20.3-11.5c4.4-24.4,11.6-43.7,23.9-64.1c2.9-4.9,6.1-9.6,9.4-14.2
			c1-1.4,2-2.8,3-4.1c-1.3,1.7,0.7-0.8,1.1-1.3c1.8-2.2,3.6-4.4,5.5-6.5c3.9-4.4,8-8.7,12.4-12.7c3.1-2.8-1.8,0.8,1.9-1.3
			c0.9-0.6,1.9-1.1,2.9-1.6c-1.3,0.5-1.4,0.7-0.3,0.3c1.2-0.3,1-0.3-0.8,0.1c-1.2-0.2-4.4-1.9-1.8,0.1l-5.9-22.6
			c1-1.3-0.3,0.3-0.7,0.7c-1,1.1-1.9,2.1-2.9,3.2c-1.8,1.9-3.7,3.6-5.7,5.3c1.3-1.1-0.3,0.3-0.8,0.6c-0.9,0.7-1.9,1.3-2.9,2
			c-2.4,1.6-4.9,3-7.5,4.3l22.5,5.9c-0.8-1.1-1.5-2.3-2.2-3.5s-0.4-2.3,0.1,0.3c-0.1-0.6-0.4-1.2-0.5-1.9s-0.2-1.3-0.4-1.9
			c0.1,0.4,0,2.9,0.2,1.1c0.2-1.5-0.1-3.1,0-4.6c0-0.7,0.2-1.4,0.2-2c0-2.4-0.6,2.6,0,0.2c0.3-1.4,0.5-2.8,0.8-4.2
			c0.8-3.4,1.7-6.7,2.6-10c4-14.2,7.6-28.7,4.4-43.5c-3.6-16.2-15.9-29.5-27.6-40.5s-25.9-21-41.8-24.9c-19.6-4.8-39.5-1-55.1,12
			c-9,7.5-4.6,25.7,7.3,27.5c29.8,4.6,59.2,13.4,85.4,26.1c6.5,3.2,14.3,2.8,19.6-2.5c5.1-5.3,6.1-13.2,2.5-19.6
			C1001.5,12,972.4,0.8,944.2-3.4c-16.4-2.4-34.4-5.2-50.7-0.9c-17.6,4.6-33.8,20.8-32.1,40.1c0.8,8.8,6.8,15.8,16.1,16.1
			c18.8,0.5,36.7-3.7,53.7-11.4c6.4-2.9,9.1-11.8,7.4-18.2c-2-7.3-8.4-11.1-15.5-11.8c-25.1-2.6-55.5-0.3-68.5,25.1
			c-14,27.6-13.7,63.5-4.4,92.3l15.6-20.6c-9.5-0.6-22.2-3.4-31.3-7.2l5.8,22.1c0.7-0.9,1.3-1.8,2-2.7c-1.3,1.6,0.5-0.5,0.6-0.7
			c1.5-1.7,2.9-3.4,4.5-4.9c0.8-0.8,1.6-1.5,2.5-2.2c-0.3,0.2-1.4,1,0.1,0.1c0.4-0.2,3.5-1.8,1.5-1s1.7-0.4,2.1-0.5
			c-3.4,1.2-0.6-0.6,0,0.1c-0.1-0.2,4.2,0.6-0.1-0.3c0.9,0.2,1.8,0.4,2.6,0.7c-0.8-0.3-2.4-1.4-0.2,0.2c-0.3-0.2-1.5-0.7-1.5-1.1
			c-0.2-1.7,0.6,2.2,0.3,0.8c0.2,0.8,0.9,4.5,1.3,6.4c3.9,18.3,10.7,35.9,20.1,52c9.4,16.1,21.4,30.6,35.5,42.9
			c3.2,2.8,6.6,5.4,9.4,8.6c0.7,0.9,1.3,1.9,1.8,2.9c0.8,2.1,1.4,4.2,1.9,6.4c2.2,9,3.7,18.1,6.9,26.9c7.4,21,19.3,40.2,34.8,56.3
			c5.4,5.3,13.9,5.8,19.9,1.2c5.5-4.3,8.3-13.3,3.9-19.5c-6-8.5-12-16.9-18-25.3c-4.3-6-11.4-9.3-18.7-6.1
			c-6.9,2.9-10.6,10.4-8.7,17.6l10.4,38.7l10.1-17.9c-9.8,3.5-20,5.9-30.4,7.1c-7.6,0.8-14.2,5.9-14.2,14.2
			c0,7.2,6.5,14.8,14.2,14.2c12.1-0.9,23.9-3.6,35.2-8c7.8-3.2,13.5-12,8.2-20.3c-11.1-17.3-20.1-35.8-27-55.1
			c-2.2-6.2-7.8-10.6-14.6-9.5c-7,1.1-10.8,6.3-11.6,13.1c-2.2,19.1-7.2,37.8-14.9,55.5l23,9.7c4.6-12.5,5.6-25.7,5.2-38.9
			c-0.4-12.8-1.5-25.5-4.6-38C932.6,240.2,923.8,241.3,924.1,247L924.1,247z"/>
		<path class="st12" d="M1019.4,231.3c-15.1,2.4-25.8-4.9-34.8-16c0-0.4,0.1-0.8,0.1-1.2c10.6-15.8,18.1-33,25.4-50.5
			c2.8-0.7,5.6-1.4,8.4-2.2c20.5-5.5,41.6-5.2,62.6-6.1c2.8-0.1,5.6,0,8.3,0c-0.4,0.2-0.9,0.3-1.3,0.5c-3.3-4-6.2-8.2-9.8-11.8
			c-16.1-16.4-26.4-35.4-29.4-58.5c-1-7.9,2.3-11.5,11.1-11.5c2.1,1.8,4,4,5.6,6.3c-0.2,2.8,1.8,4.7,3.2,6.8
			c4.4,6.3,8.2,13.2,15.5,16.9c3.4,5.1,8,8.8,13.2,11.8c9.6,5.9,19.6,11.3,29.8,16.2c9.9,4.6,19.5,10.2,30.3,12.4
			c4.1,0.6,7.4,3.2,11.2,4.8c38.4,16.8,79.2,22.3,120.4,24.6c19.5,1,39,1.4,58.5,2.1c2.1,3,5.6,5,6.6,8.9
			c-11.9,7.6-25,12.7-38.4,17.1c-26.5,8.8-53.8,13.4-81.2,17.3s-54.7,6.9-82.4,7.4c-10.3,0.2-20.6,0.2-30.9,0.3
			c-2.8-0.1-5.6-0.1-8.3-0.2c-1.8,0-3.4-0.1-5.2-0.1c-6.6-1.5-13.3-0.8-19.9-1.4c-13.2-1.4-26.5-2.4-39.7-3.6
			c-2.9-0.2-5.7-3.4-8.1-1.6C1033.6,224.2,1026.1,227,1019.4,231.3z"/>
		<path class="st6" d="M1303.5,160.8c13.5-0.8,27-1.4,40.5-2.4c5-0.3,9.9-0.8,14.8-1.6c24.5-3.9,47.1,22.6,39.1,46.1
			c-2.6,7.8-8.5,14-16.2,17c-24.7,10.4-50.4,16.2-77,18.8c-39.8,4.1-79.4,0.4-118.9-3.7c-6.4-0.6-13,0.2-19.5,0.7
			c-19,1.7-38,0.2-56.9-1.6c-0.5,0-0.9-0.4-1.4-0.5c17.5,0.1,35,1,52.5-0.2c16.4,0,32.8-1.1,49.1-3.5c21.6-3.2,43.2-6.7,65-10
			c18.6-0.3,37.2,0,55.8-1c15.5-0.8,25.5-11.6,25.8-26.4c7.5-4.8,15.2-9.4,21.8-15.3c1.9-1.6,4.5-3,3.2-6.3
			c-1.2-2.9-3.9-2.3-6.2-2.4c-16.3-0.3-32.5-0.7-48.8-1c-3.2-1.4-6.7-2.1-10.1-3.1C1311.8,163.2,1307.1,163.9,1303.5,160.8z"/>
		<path class="st9" d="M984.7,214.1c0,0.4-0.1,0.8-0.1,1.2c-6.3,9.2-12.6,18.4-18.9,27.6c-0.9,1-1.3,2.4-1.1,3.8
			c2.8,13.8,7.5,26.5,19.7,34.8c3.3,2.3,6.2,4.7,11.1,1.2c3.7-2.6,9.5-2.6,13.9-4.7c2.5-1.2,5-2.5,7.3-3.8c2-1.1,4-1.8,5.4,0.5
			s0.8,4.3-1.4,5.8c-5.1,3.2-10.5,5.7-16.3,7.4c-1.2,0.4-3.2,0-3.3,1.8c-0.4,5.3-3.9,4.2-7.1,3.6c-15.5-3.3-25.2-13.6-30.8-27.5
			c-3.1-7.6-5-13.4-15.3-13.4c-8.1-0.1-15.2-6.1-23.1-10.5c0,15.5-1.1,31.1-3.3,46.4c4.9-1.4,9.3-2.8,13.7-4c2.2-0.6,4.6-1,5.5,2
			s-0.7,4.4-3.4,5.2c-4.6,1.3-9.2,2.8-13.8,4c-2.6,0.7-3.9,2-4.4,4.8c-0.8,4.8-2.3,9.7-3.3,14.5c-0.5,2.4-1.3,4.5-4.2,3.9
			c-3.2-0.7-3.6-3.2-2.9-6.1c1.1-4.1,2.6-8.1,2.7-12.5c-6.7,1.3-12,5.3-18.4,6.5c0.3-2.5,0.6-4.9,0.9-7.5c0.1-0.2,0.1-0.5,0.2-0.7
			c3.6-1.4,7.2-2.9,10.7-4.3c0.6-0.1,1.4,0,1.7-0.8l-0.1,0.1c5.7-0.4,8.5-3.2,8.3-9.1c-0.1-2.7,1.2-5.4,0.7-8
			c1.7-7.7,1.5-15.5,1.9-23.4c0.1-2,0.2-4,0.2-6.1c0-6.1,0.3-12.2-7-14.8c-10.1-8.5-19-18.3-26.6-29.1
			c-8.3-11.9-14.3-25.1-20.7-38.2c-1-3.9-2-7.9-3.3-11.7c-1.4-4-4.1-5.8-9.1-5.2c-8.4,0.9-16.6-0.3-23-7.1c-3-3.1-5.2-6.6-7.8-10
			c-0.5-2-1.1-3.9-1.5-6c-2.3-9.8,2.9-17,12.9-17.7c3.5-0.3,7.1,0.1,10.7,0.2c0.9,0.4,1.8,0.8,2.8,1.1c2.9,1,6.1,2.2,4.5,6
			c-1.5,3.8-4.4,1.9-7,0.8c-6.2-2.4-9.5-0.6-10.6,6.1c-0.7,4.6-2.5,10,1.5,13.6c4.9,4.4,11.5,6.6,18.1,5.9
			c11.4-1.1,13-0.4,16.5,10.5c0.6,1.8,1.1,3.6,1.4,5.5c2.1,10.7,6.8,20.4,11.8,29.9c14.4,26.9,37.7,43.8,64.4,56.6
			c2.2,1,4.5,1.7,6.8,2.1c3,0.6,4.4-0.6,4.2-3.9c-0.3-3.9-0.4-7.8-0.5-11.8c-0.2-1.6,0.9-3.2,2.6-3.4c0.2,0,0.3,0,0.5,0
			c1.8-0.2,3.4,0.9,4,2.6c0.4,1.1-0.5,2.8,1.4,3.7c5.2-7.8,10.3-15.6,15.5-23.5C982.9,209.4,981.8,213.5,984.7,214.1z"/>
		<path class="st13" d="M786.8-9.4c8-13.3,15.7-27,25.6-39c3-3.5,5.9-7.2,9.1-10.5c2-2.1,3.6-5.9,7.9-3.3c1,0.6,1.7-0.8,2.3-1.6
			c19.6-26.7,45.6-44.4,76-56.5c1.5-0.6,3-1.6,4.5-2.3c0.8,0,1.7-0.1,2.5-0.2c15.7-5.6,31.8-9,48.2-11.6c20.8-2.3,41.6-3.1,62,3.4
			c4.2,1.3,8.4,2.7,12.1,5.2c-1.4,2.5-5.4,1.3-6.3,4.5c-0.6-0.1-1.3-0.2-2-0.3c-17.5-7.8-35.8-8.6-54.6-6.3
			c-16.8,0.9-33.2,4.5-49.2,9.5c-34.1,10.6-63.6,28-85.7,56.8c-2.1,2.7-3.4,7.4-8.8,4.3c-0.6-0.4-2.2,1.3-2.6,2.7
			c-0.3,0.3-0.6,0.6-1,0.8h0.1c-0.7,0.5-1.5,0.9-1.2,2.1l0.1-0.1c-8.8,7.7-15.4,17.1-21.6,26.9l0,0c-0.3,0.4-0.7,0.7-1,1.1l0.1-0.1
			c-0.3,0.6-0.6,1.2-0.9,2c-0.5,0.4-1,0.9-1.3,1.4c-12.1,18.2-21.8,38-28.9,58.7c-8.4,25.6-11.3,51.4-5,78.2
			c7.4,31.6,30.2,52.9,48.8,77.1c1.4,1.6,2.9,3.3,4.2,4.8c-3.4,0.3-7.6-2.9-9.7,2.5c-3.9-5.6-7.6-11.3-13.1-15.5
			c-0.1-0.7-0.4-1.1-1.2-1.1l0,0c0-2-1.8-2.8-2.7-4.2c-7.2-11.3-17.8-20.1-22.8-33.5c-4.4-12.1-9.7-24-12.8-36.5
			c-0.8-7.5-2.2-15-2.2-22.5c0.2-4.1,0.3-8.2,0.7-12.2c2.1-19.6,8.8-37.8,16.8-55.6c4.2-9.3,8.5-18.5,12.8-27.8l0,0
			C786.6-8.2,786.8-8.7,786.8-9.4z"/>
		<path class="st14" d="M1326.1,167.6c16.3,0.3,32.5,0.7,48.8,1c2.4,0,5-0.5,6.2,2.4c1.3,3.2-1.3,4.5-3.2,6.3
			c-6.7,6-14.4,10.5-21.8,15.3c-12.4,6.4-25.3,11.8-38.6,16.3c-14.1,4.5-28.6,7.5-43,11c-21.6,3.3-43.2,6.8-65,10
			c-16.3,2.4-32.7,3.5-49.1,3.5c-0.1-1.1-1-1.9-2.1-1.9l-32.8-3.1c-1.5-0.1-3.6,0.7-4.2-1.8c10.3-0.1,20.6-0.1,30.9-0.3
			c27.6-0.5,55.1-3.5,82.4-7.4c27.5-4,54.8-8.5,81.2-17.3c13.4-4.4,26.5-9.5,38.4-17.1c4.8-2.3,9.3-5.3,13.4-8.9h-19.9
			c-19.5-0.7-39-1-58.5-2.1c-41.4-2.3-82-7.8-120.5-24.6c-3.7-1.6-7-4.2-11.1-4.8c-3.6-1.8-7.4-3.1-10.4-5.9c3.7-0.9,7,1,10.5,1.8
			c4,0.7,7.7,3.3,12.2,2c3.8,1.4,7.5,2.9,11.3,4.3c1.3,0.6,2.7,1.5,4.1,2c30.2,11.4,61.7,15.8,93.5,18.2
			C1294.4,167.8,1310.3,167.5,1326.1,167.6z"/>
		<path class="st9" d="M1169.7,142c-4.3,1.3-8.1-1.2-12.2-2c-3.5-0.6-6.7-2.7-10.5-1.8c-6.3-2.3-11.6-6.2-17.2-9.8
			c-15.4-9.8-30.8-19.6-45-31.2c-1.8-1.4-3.1-3.6-5.7-4.1v0.1c-0.1-0.4-0.2-0.8-0.4-1.1c-4.4-4-8.9-8-13.2-12.1
			c-1.5-2.3-3.3-4.5-5.5-6.3c-0.6-0.8-1-1.8-1.8-2.6c-18.3-21.8-28.3-46.5-25.5-75.6c0.2-3.4,1.2-6.6,3-9.5l-0.1,0.1
			c0.6,0,1.2,0,1.8,0.1c4.7,0.7,3.3,4.3,3.4,7.2c-2.4,11.5-1.1,22.9,2.2,34c3.8,12.9,9.2,24.9,18.4,34.9l0,0c-0.2,0.8,0.3,1.7,1,2.1
			c14.8,19.7,33.9,34.6,54.2,48.1C1133.7,124,1151.7,132.9,1169.7,142z"/>
		<path class="st6" d="M824.9,331.4c-2.8-32.7-5.7-65.5-8.4-98.1c-0.7-7.8-2-15.6-1.8-23.5c3.3,4.5,4.8,9.9,7.7,14.6
			c5.8,15.2,10.8,30.7,12.2,47.1C836.5,292.2,834.3,312.4,824.9,331.4z"/>
		<path class="st13" d="M824.9,331.4c9.4-19,11.4-39.2,9.7-60c-1.4-16.4-6.5-31.8-12.2-47c2.5-0.2,3.2,2,4,3.4
			c2.2,3.7,3.7,7.7,5.9,11.3c2,3.3,2.2,7.5,5.7,9.9c1.1,4.7,2.2,9.6,3.3,14.3c0.3,4.5,0.8,9.2,1,13.7c1.1,18.6-2.2,36.7-8.4,54
			c-0.1,0.4-0.3,0.7-0.4,1.1c0.4-0.1,0.7-0.2,1.1-0.2c5.2-3.3,10.5-6.7,15.8-10c2.1,1.2,4.1,2.6,4.4,5.3
			c-7.4,5.7-15.6,10.1-22.5,16.4c-2.8,2.1-5.5,4-8.2,6.2c-1.8,1.3-3.7,2-5.6,0.3s-1.2-3.6-0.2-5.6
			C820.6,340.4,823.6,336.3,824.9,331.4z"/>
		<path class="st12" d="M1326.1,167.6c-15.8-0.1-31.7,0.2-47.6-1.1c-31.9-2.5-63.4-6.9-93.5-18.2c-1.4-0.5-2.7-1.3-4.1-2
			c17.6,3.3,35,7.6,52.9,9.2c23.2,2,46.3,3.6,69.5,5.4c3.6,3.1,8.4,2.5,12.7,3.7C1319.4,165.5,1322.9,166.2,1326.1,167.6z"/>
		<path class="st14" d="M838,249c-3.5-2.4-3.7-6.6-5.7-9.9c-2.2-3.6-3.8-7.6-5.9-11.3c-0.8-1.4-1.5-3.6-4-3.4
			c-2.8-4.7-4.4-10.1-7.7-14.6c-1-3.2-3.8-5.6-4.4-9c2.1-5.4,6.4-2.1,9.7-2.5c0.5,0.1,1,0.2,1.4,0.4c0.5,1.8,2.1,2.7,3.3,3.8
			c13.4,11.4,26.9,22.8,40.4,34.2c2,1.6,4.3,2.9,4.4,6c-1.6,4-4,4.1-7.2,1.5c-4.7-3.9-9.6-7.7-14.4-11.6
			c-6.9-5.7-13.7-11.4-20.5-17.2C831.5,226.5,834.9,237.7,838,249z"/>
		<path class="st13" d="M1121.3,226.7c0.6,2.5,2.7,1.5,4.2,1.8l32.8,3.1c1.1,0,2,0.8,2.1,1.9c-17.5,1.3-35,0.3-52.5,0.2l-55.3-4.3
			c-6.3-2.1-6.7-2.8-4.4-7.9c13.3,1.1,26.5,2.2,39.7,3.6c6.6,0.7,13.4-0.1,19.9,1.4c1.7,1.5,3.4,1.4,5.2,0.1
			C1115.8,226.5,1118.6,226.6,1121.3,226.7z"/>
		<path class="st14" d="M1030.7-121.3c0.9-3.2,4.8-2.1,6.3-4.5c0.6,0.1,1.2,0.2,2,0.4c13.2,7.9,23,18.7,28.5,33.3
			c2.9,7.5,3.6,15.2,4.3,23.1c-0.4,2.8-0.8,5.5-1.2,8.2c-2.1,0.5-2.2,2.5-3,3.8c-2.5,4.2-4.8,8.4-7.3,12.8c-0.9,1.6-1.8,3.3-4.2,2.9
			c0.7-1.3,1.4-2.7,2.2-4.1c7-15.1,7.9-30.5,0.5-45.7l0.1-0.2c0.1-0.9-0.4-1.8-1.1-2.4l0.1,0.1c-0.1-0.6-0.2-1.2-1-1.1h0.1
			c0.3-2.5-1.4-4.1-2.6-5.9C1048.2-109.4,1040.1-116.5,1030.7-121.3z"/>
		<path class="st6" d="M1061.6,62.6c-9.3-10-14.7-22-18.4-34.9c-3.3-11.1-4.5-22.5-2.2-34c8.5,12.8,12.4,27.2,15.2,41.9
			C1058.1,44.7,1059.9,53.6,1061.6,62.6z"/>
		<path class="st6" d="M1071.6-69.2c-0.7-7.8-1.4-15.6-4.3-23.1c-5.6-14.5-15.3-25.3-28.5-33.3c17.5-2.4,27,3.7,32.1,20.4
			C1074.6-93.2,1075.1-81.2,1071.6-69.2z"/>
		<path class="st14" d="M854.7,327.3c-0.3-2.7-2.3-4.1-4.4-5.3l0.3-0.9c10-5.5,19.9-11.1,29.9-16.6c3-0.8,5.8-2.2,8.3-3.9l4.8-1.5
			c-0.3,2.5-0.6,4.9-0.9,7.5c-0.7,0.6-1.3,1.2-2.1,1.8c-7.2,2.8-14.1,6.4-20.7,10.5c-0.4,0.3-0.8,0.6-1.1,0.9v-0.1
			c-4.6,1.5-8.6,4.3-12.5,7.2C855.8,327.1,855.3,327.2,854.7,327.3z"/>
		<path class="st9" d="M1056-41.5c2.4,0.4,3.3-1.2,4.2-2.9c2.5-4.2,4.8-8.6,7.3-12.8c0.8-1.4,0.9-3.4,3-3.8
			c-2.8,17.7-12.2,31.1-26.5,41.4c-2,1.4-3.9,2.8-5.9,4.1c-1.1,0.2-2.2,0.5-2.4,1.9l0.1-0.1c-3.8-0.3-6.6,3.1-10.4,3
			c1.1-3.9,5.3-4.3,7.7-6.8c3.2-3.3,8.4-4.4,9.7-9.7l10.2-10.2c2.3,0,2.2-1.5,2.2-3.2C1055.6-40.8,1055.8-41.1,1056-41.5z"/>
		<path class="st6" d="M870,318.8c6.6-4.1,13.5-7.6,20.7-10.5c-2.7,14-15.3,24.3-27.9,20.6c1.1-3.7,4.8-5.7,6.1-9.3v0.1
			C869.2,319.6,869.6,319.2,870,318.8z"/>
		<path class="st6" d="M1048.3,221.3c-2.3,5.1-1.8,6,4.4,7.9c-11,1.9-22,4.1-33.2,2.1c6.7-4.3,14.2-7,20.7-11.6
			C1042.7,217.8,1045.5,221,1048.3,221.3z"/>
		<path class="st6" d="M962.9-134.5c-16.4,2.6-32.5,6-48.2,11.6c-0.8,0.2-1.6,0.3-2.5,0.2c14.8-9.8,30.3-17.2,48.9-12.6
			C961.8-135,962.3-134.8,962.9-134.5z"/>
		<path class="st6" d="M854.7,327.3l1.8-0.3c1.5,0.8,3,1.6,4.5,2.5c-3.6,4.4-7.9,8-12.1,11.7c-5,4.3-10.6,5.2-16.7,2.6
			C839,337.4,847.3,333,854.7,327.3z"/>
		<path class="st12" d="M861,329.3c-1.5-0.8-3-1.6-4.5-2.5c3.9-2.9,7.8-5.7,12.5-7.2c-1.2,3.6-4.9,5.6-6.1,9.3
			C862.2,329.1,861.6,329.3,861,329.3z"/>
		<path class="st6" d="M1035.8-13.5c0.1-1.5,1.2-1.6,2.4-1.9c-0.2,0.7-0.4,1.3-0.5,2C1037-13.4,1036.4-13.5,1035.8-13.5z"/>
		<path class="st6" d="M1062.7,64.7c-0.8-0.4-1.2-1.2-1-2.1C1062.9,62.8,1062.9,63.7,1062.7,64.7z"/>
		<path class="st6" d="M1025.6-10.6c3.7,0.1,6.5-3.3,10.4-3c-2,2.8-2.7,6-3,9.5c-2.8,29,7.2,53.6,25.5,75.6c0.6,0.8,1.1,1.6,1.8,2.6
			c-8.9,0-12.1,3.6-11.1,11.5c2.9,23,13.4,42.1,29.4,58.6c3.6,3.7,6.5,7.9,9.8,11.8c0.4-0.2,0.9-0.3,1.3-0.5c-2.8,0-5.6-0.1-8.3,0
			c-21,0.8-42.1,0.6-62.6,6.1c-2.8,0.7-5.6,1.4-8.5,2.2c0.7-3.5,2-6.8,3.9-9.9c1.5-0.9,3.1-1.9,4.6-2.8c10.7-1.5,19.8-6.1,26.7-14.3
			c10.5-12.6,3.6-33.9-14.2-33c-1.6,0.3-3.2-0.8-3.5-2.5c0-0.1,0-0.3,0-0.4c-0.7-9.8-3-19.5-3.2-29.4c-0.1-6-0.3-11.9-0.8-17.9
			c-0.4-4.8-2-10.4,2.8-14.6c1.2-1.1,1-3.4-0.5-3.9c-4.2-1.5-3.3-4.9-3.5-8c-0.1-2.1-0.5-4-0.8-6.1c-0.6-3.3-2.9-2.4-4.6-2.4
			c-2.3,0-2.5,2-2.8,3.6c-0.3,1.4,1.5,2.8,0.1,4.8c-5.6-3.6-11.2-7.2-16.8-10.8c-0.5,0-0.9-0.1-0.8-0.8v0.2
			c-0.7-0.4-1.4-0.7-2.2-1.1l0.1,0.1c-0.4-2.6-2.9-3-4.5-4.1c-2.9-2-6.8-1.9-9.4-4.3c2.1-0.6,4.2-1.3,6.3-2
			c10.1-2.9,20.4-5.5,29.3-11.2C1019.4-8.4,1022.5-9.5,1025.6-10.6z"/>
		<path class="st14" d="M1014.2,153.8c-1.9,3-3.2,6.4-3.9,9.9c-7.3,17.4-14.8,34.7-25.4,50.5c-3-0.6-1.9-4.7-4.7-5.4
			c0.2-0.6,0.4-1.3,0.6-2c6.7-11.2,13.1-22.5,17.4-34.8H998c0.7,0,0.8-0.5,0.8-1.1c3.2-6,5.4-12.5,7.7-18.8c0.9-2.4,1.5-5.2,5-4.4
			S1014.3,151.2,1014.2,153.8z"/>
		<path class="st11" d="M1079.2,93.4c2.6,0.4,3.8,2.6,5.7,4.1c14.2,11.5,29.5,21.4,45,31.2c5.7,3.6,10.9,7.4,17.2,9.8
			c3,2.8,6.8,4.1,10.4,5.9c-10.9-2.3-20.4-7.8-30.3-12.4c-10.2-4.8-20.1-10.2-29.8-16.2c-5.1-3.1-9.9-6.8-13.2-11.8
			C1083.6,99.9,1079.9,97.4,1079.2,93.4z"/>
		<path class="st6" d="M1079.2,93.4c0.6,4,4.4,6.5,5.1,10.5c-7.2-3.7-11-10.6-15.5-16.9c-1.4-2-3.3-3.9-3.2-6.8
			c4.4,4,8.9,8,13.2,12.1c-0.6,0.6-0.6,1,0.4,1.1V93.4z"/>
		<path class="st14" d="M1113,226.5c-1.8,1.3-3.4,1.4-5.2-0.1C1109.6,226.4,1111.4,226.4,1113,226.5z"/>
		<path class="st6" d="M869.4,242.6c-0.1-3-2.5-4.3-4.4-6c-13.5-11.4-26.9-22.8-40.4-34.2c-1.2-1.1-2.8-2.1-3.3-3.8
			c1.1-4.9-3.2-4.1-5.7-5.2c-18.5-24.2-41.4-45.5-48.8-77.1c-6.3-26.8-3.3-52.6,5-78.2c7-20.8,16.7-40.5,28.8-58.8
			c0.4-0.5,0.9-1,1.3-1.4c0.3-0.6,0.6-1.2,0.9-2l-0.1,0.1c0.7,0,1.3-0.2,1-1.1l0,0c2.7,0.6,3.9-1.2,5-3.1c1.5-2.6,3-5.5,5.5-7.2
			c5.8-4.2,7.9-10.7,11.1-16.5l-0.1,0.1c1.1-0.2,0.9-1.3,1.2-2.1h-0.1c0.3-0.3,0.6-0.6,1-0.8c0.4-1.3,2-3.1,2.6-2.7
			c5.2,3.2,6.7-1.5,8.8-4.3c22.2-28.8,51.7-46.3,85.8-56.9c16-4.9,32.3-8.6,49.2-9.5c0.8,1.6,2.2,2,3.9,1.6
			c13.8-2.6,27.2,1.3,40.7,2.9c2.4,0.3,5.2,0.6,7,2.7c-0.1,0.5,0.1,1.2-0.2,1.4c-7.1,7.2-7.9,16.3-8,25.6
			c-0.3,21.6-9.6,37.5-29.2,47.4c-20.5,10.4-42.7,14-64.9,18.1c-28.2,5.2-54.9,14.1-78.5,31c-15.6,11.2-28.3,25.1-38.8,41.2
			c-2.8,4.3-2.5,8.4,0.7,11.1c3.7,3.2,6.9,2.1,10.5-0.7c8.3-6.5,16.7-13.2,26.3-17.7c0.7,7.1-2.4,13.4-4.4,20
			c-0.7,1.5-1.6,3-2.6,4.3c-3,3.4-2.2,5.8,1.5,7.7c0.4,1.8-0.5,4.3,1.2,5.2c3.6,1.9,2.9,4.9,3,7.9c0.1,2.4,0.2,4.7,0.3,7.1
			c0.1,3.2,1.6,4.7,4.8,4.4c0.3,5.1-1.7,10.1-5.5,13.6c-3.6-0.1-7.2-0.4-10.7-0.2c-10.1,0.7-15.1,7.9-12.9,17.7c0.4,2,1,3.9,1.5,6
			c-3.3,1.2-5,3.5-5.3,7.1c-0.2,3.2-2,5.8-4,8.1c-1.5,1.9-1,2.8,0.8,3.9c2.9,1.8,5.2,2.8,8.8,0.5c6.9-4.3,16.5-3.6,21.8,2.3
			c5.9,6.5,13.6,8.8,21,12c6.4,13,12.4,26.1,20.7,38.2c7.6,10.8,16.5,20.6,26.6,29.1c2.5,6.9,5.2,13.7,6.8,20.9
			c-0.4,7.8-0.2,15.7-1.8,23.4c-1.8,6.4-6.3,11.2-9.1,17.1l0.1-0.1c-0.5,0.3-1.1,0.5-1.6,0.8c-3.6,1.4-7.2,2.9-10.7,4.3
			C895.4,275.5,884.5,258.2,869.4,242.6z"/>
		<path class="st12" d="M869.4,242.6c14.9,15.7,25.9,33,24.4,55.7c-0.1,0.2-0.1,0.5-0.2,0.7l-4.8,1.5c-5.4-2.8-5.4-2.8-8.3,3.9
			c-10,5.6-19.9,11.1-29.9,16.6c-4.2-9.7-4.8-20-5.3-30.4c-0.4-9.3-0.3-18.6-4-27.4c-1.1-4.7-2.2-9.6-3.3-14.3
			c-3.1-11.3-6.4-22.5-10.6-33.8c6.8,5.8,13.7,11.5,20.5,17.2c4.7,3.9,9.6,7.7,14.4,11.6C865.4,246.7,867.8,246.6,869.4,242.6z
			 M849.2,298.7c2.8-2.4,4.9-5.5,6-9.1c1.7-4.6-2.9-3.9-5-5.1c-1.2-0.7-2.9-0.3-2.4,1.2C849,289.7,847.9,293.8,849.2,298.7z"/>
		<path class="st11" d="M862.9,164.6c-7.4-3.3-15.1-5.6-21-12c-5.2-5.8-14.9-6.6-21.8-2.3c-3.6,2.3-5.9,1.2-8.8-0.5
			c-1.8-1.1-2.4-2.1-0.8-3.9c2-2.4,3.8-4.9,4-8.1c0.3-3.6,2-5.9,5.3-7.1c2.6,3.4,4.8,6.9,7.8,10c6.4,6.7,14.5,8,23,7.1
			c4.9-0.6,7.5,1.2,9.1,5.2C861,156.8,862.1,160.7,862.9,164.6z"/>
		<path class="st11" d="M917,252.9c-1.5-7.2-4.2-14-6.8-20.9c7.3,2.6,7,8.8,7,14.8C917.2,248.8,917.2,250.8,917,252.9z"/>
		<path class="st11" d="M906.2,293.3c2.7-5.9,7.3-10.7,9.1-17.1c0.5,2.8-0.8,5.3-0.7,8C914.6,290.1,911.8,292.9,906.2,293.3z"/>
		<path class="st11" d="M904.5,294c0.5-0.3,1.1-0.5,1.6-0.8C906,294,905.2,293.9,904.5,294z"/>
		<path class="st11" d="M1025.6-120.7c-1.8-2.1-4.5-2.5-7-2.7c-13.5-1.5-26.9-5.4-40.7-2.9c-1.8,0.3-3,0-3.9-1.6
			c18.7-2.3,37.1-1.5,54.6,6.3c-0.1,0.3-0.1,0.6,0,0.8C1027.7-120.8,1026.6-120.8,1025.6-120.7z"/>
		<path class="st6" d="M1028.6-120.8c-0.1-0.3-0.1-0.6,0-0.8c0.6,0.1,1.3,0.2,2,0.3c9.4,5.1,17.5,11.5,23.4,20.6
			c1.1,1.8,2.9,3.4,2.6,5.9c-4.6-3.4-8.6-7.5-12-12.1C1040.5-112.9,1034.2-116.4,1028.6-120.8z"/>
		<path class="st11" d="M825.8-51.8c-3.2,5.9-5.4,12.4-11.1,16.5c-2.5,1.9-3.9,4.6-5.5,7.2c-1.1,1.9-2.4,3.7-5,3.1
			C810.3-34.7,817-44.1,825.8-51.8z"/>
		<path class="st11" d="M815.8,193.6c2.5,1.1,6.8,0.3,5.7,5.2c-0.5-0.1-0.9-0.3-1.4-0.4L815.8,193.6z"/>
		<path class="st11" d="M826.9-53.7c-0.3,0.7,0,1.9-1.2,2.1C825.3-52.8,826.3-53.2,826.9-53.7z"/>
		<path class="st11" d="M827.9-54.6c-0.3,0.3-0.6,0.6-1,0.8C827.2-54,827.5-54.3,827.9-54.6z"/>
		<path class="st11" d="M1079.2,93.5c-1-0.1-0.9-0.5-0.4-1.1C1079,92.7,1079.2,93.1,1079.2,93.5z"/>
		<path class="st6" d="M841.2,263.3c3.7,8.8,3.6,18.1,4,27.4c0.5,10.4,1.1,20.7,5.3,30.4l-0.3,0.9c-5.2,3.3-10.5,6.7-15.8,10
			c-0.2-0.3-0.5-0.5-0.7-0.8c6.4-17.5,9.7-35.4,8.4-54C842,272.4,841.6,267.9,841.2,263.3z"/>
		<path class="st6" d="M834.6,332c-0.4,0.1-0.7,0.2-1.1,0.2c0.1-0.4,0.3-0.7,0.4-1.1C834.1,331.4,834.3,331.7,834.6,332z"/>
		<path class="st12" d="M1028.6-120.8c5.5,4.4,11.9,7.8,16.1,13.7c3.2,4.7,7.3,8.8,11.9,12.1h-0.1c0.3,0.4,0.7,0.7,1,1.1l-0.1-0.1
			c-0.1,0.9,0.3,1.9,1.1,2.4l-0.1,0.2c1.5,11.3,1.5,22.7,0,34c-0.8,5.9-4,11.2-4.1,17.3c-0.4,0.9-0.8,1.9-1.2,2.8l-10.2,10.2
			c-14.5,10.3-31.3,13.4-48.5,14.5c-26.7,1.8-53.1,4.5-79.2,10.4c-23.1,5.1-44.7,13.1-61.4,30.8c-0.2,0.3-0.8,0.2-1.4,0.4v-2.3
			c0.1-2.4,0.7-5-2.9-5.5c-3.6-0.5-4,2.1-4.5,4.8c-0.5,2.8-0.8,5.7-0.7,8.6c-0.3,0.6-0.6,1.3-0.9,2c-9.7,4.5-18,11.2-26.4,17.7
			c-3.6,2.8-6.8,4-10.5,0.7c-3.2-2.7-3.5-6.9-0.7-11.1c10.5-16.1,23.2-30,38.8-41.2c23.6-17,50.2-25.7,78.4-31
			c22.1-4.1,44.4-7.7,64.9-18.1c19.7-9.9,28.9-25.7,29.2-47.4c0.1-9.4,0.9-18.5,8-25.6c0.3-0.3,0.2-0.9,0.2-1.4
			C1026.6-120.8,1027.7-120.8,1028.6-120.8z"/>
		<path class="st6" d="M1054.4-40.2c0.1-6.1,3.3-11.3,4.1-17.3c1.5-11.3,1.5-22.7,0-34c7.4,15.4,6.4,30.6-0.6,45.8
			c-0.6,1.4-1.4,2.7-2.2,4.1c-0.2,0.3-0.4,0.6-0.5,1C1055.1-40.4,1054.8-40.2,1054.4-40.2z"/>
		<path class="st6" d="M1058.7-91.5c-0.9-0.5-1-1.4-1.1-2.4C1058.3-93.3,1058.7-92.4,1058.7-91.5z"/>
		<path class="st6" d="M1057.5-93.9c-0.3-0.4-0.7-0.7-1-1.1C1057.4-95.1,1057.4-94.4,1057.5-93.9z"/>
		<path class="st6" d="M880.4,304.4c3-6.7,3-6.7,8.3-3.9C886.2,302.3,883.4,303.6,880.4,304.4z"/>
		<path class="st12" d="M870,318.8c-0.4,0.3-0.7,0.6-1.1,0.9C869.2,319.6,869.6,319.2,870,318.8z"/>
		<path class="st14" d="M844.3,34.8c-0.1-2.9,0.2-5.8,0.7-8.6c0.5-2.7,0.9-5.1,4.5-4.8c3.6,0.3,3.1,3,2.9,5.5V29
			c0.6-0.1,1.1-0.1,1.4-0.4C870.5,10.9,892.3,3,915.2-2.2c26.1-5.9,52.6-8.6,79.2-10.4c17.2-1.1,34-4.1,48.5-14.5
			c-1.2,5.2-6.5,6.5-9.7,9.7c-2.5,2.5-6.6,2.9-7.7,6.8c-3.1,1.1-6.2,2.2-9.2,3.3c-5.8,0.7-11.4,1.4-17.2,2.1c-8.8,1-17.5,2-26.2,2.9
			c-5.6-0.1-11.2,0.5-16.7,1.7c6,1.6,11.9,3.5,17.7,5.9c-0.3,2.2-2,2-3.5,1.9c-2.3,0-4.3,0.2-5.9,2.2c-1.3-0.3-2.7-0.6-4-0.8
			c-10.1-4.2-21.2-3.9-31.6-5.5s-21.8,2.9-32.2,7.1c-10.1,2.8-19.7,6.7-27.8,13.5l0,0c-0.4,0.3-0.9,0.6-1.3,0.9
			c-1.7,1-3.2,2.2-4.8,3.2c-2-0.2-3.5,1-5.2,1.5C853,30.6,849.5,34.6,844.3,34.8z"/>
		<path class="st14" d="M1054.4-40.2l0.9-0.3c0,1.6,0.1,3.2-2.2,3.2C1053.6-38.2,1054-39.2,1054.4-40.2z"/>
		<path class="st13" d="M964.8,9.3c1.4-2,3.6-2.3,5.9-2.2c1.4,0,3.2,0.3,3.5-1.9c1.1,0.2,2.3,0.5,3.5,0.7c5.7,2.8,11.4,5.7,17.1,8.5
			l-0.1-0.1c0.4,1,1.3,1,2.2,1.1v-0.2l0.8,0.8c5.7,3.6,11.2,7.2,16.8,10.8c1.5-2.1-0.3-3.4-0.1-4.8c0.3-1.6,0.5-3.6,2.8-3.6
			c1.9,0,4-0.9,4.6,2.4c0.4,2,0.7,4,0.8,6.1c0.2,3.1-0.7,6.5,3.5,8c1.2,0.5,1.7,1.9,1.2,3.1c-0.1,0.3-0.4,0.6-0.6,0.8
			c-4.7,4.2-3.3,9.8-2.8,14.6c0.5,6,0.8,11.9,0.8,17.9c0.1,9.9,2.5,19.6,3.2,29.3c0,1.7,1.4,3,3.1,2.9c0.1,0,0.3,0,0.4,0
			c17.8-0.9,24.7,20.5,14.2,33c-6.9,8.3-16.1,12.9-26.7,14.3c-2.8-4.9-2.2-6.4,3.2-7.9c3.2-0.7,6.2-1.9,8.8-3.7
			c6-2.3,10.5-7.4,11.8-13.7c1.6-6.8-1.5-12.2-7.8-14.4c-4-1.1-6.1-0.1-5.8,4.6c0,3.6-0.3,7.2-0.9,10.7c-0.4,2.6-2.3,3.8-4.8,3.3
			s-3-2.5-2.4-4.7c0.8-2.9,0.6-4.7-2.5-6.6s-1.4-5.7,0.3-7.6c2.8-3.2,2.5-6.3,2-9.9c-1.3-8.6-2.3-17.3-3.4-25.8
			c-0.4-11.8-0.7-23.8-1-35.6c0-1.6-0.4-3-2-3.8c-2.8-1.5-5.1-3.9-8.2-5c-11.3-8.1-23.5-14.6-36.5-19.5
			C967.8,10.5,966.3,9.9,964.8,9.3z"/>
		<path class="st12" d="M973-2.4c8.8-0.9,17.5-1.9,26.2-2.9c5.8-0.6,11.4-1.3,17.2-2.1c-9.1,5.8-19.2,8.3-29.3,11.2
			c-2.2,0.6-4.2,1.3-6.3,2c-0.9-0.2-1.8-0.3-2.7-0.5C977.1,2.4,973.7,0.8,973-2.4z"/>
		<path class="st11" d="M978,5.4c0.9,0.2,1.8,0.3,2.7,0.5c2.7,2.6,6.5,2.4,9.4,4.3c1.6,1.1,4.1,1.5,4.5,4.1
			c-5.7-2.8-11.4-5.7-17.1-8.4C977.7,5.8,977.9,5.6,978,5.4z"/>
		<path class="st11" d="M996.8,15.3c-0.8-0.1-1.8-0.1-2.2-1.1C995.3,14.6,996,15,996.8,15.3z"/>
		<path class="st11" d="M997.6,16l-0.8-0.8C996.7,15.9,997,16.1,997.6,16z"/>
		<path class="st6" d="M980.6,206.7c-2.2-13.2,5.4-28.4,17.4-34.8C993.7,184.3,987.3,195.6,980.6,206.7z"/>
		<path class="st6" d="M998,171.9c0.3-0.4,0.5-0.7,0.8-1.1C998.8,171.5,998.7,171.9,998,171.9z"/>
		<path class="st13" d="M844.3,34.8c5.2-0.2,8.7-4.2,13.4-5.7c1.8-0.5,3.3-1.8,5.2-1.5c-3.2,4.1-7.8,7.1-9.3,12.5l0,0
			c-0.8,0-1,0.5-1,1.2c-1.5,1.7-2.3,3.8-2.4,6c-1.3,13.3-1,26.5-0.4,39.7c0.1,2.7,0.2,5-2.5,6.6c-3.2,0.3-4.7-1.2-4.8-4.4
			c-0.1-2.4-0.2-4.7-0.3-7.1c-0.1-3,0.6-6.1-3-7.9c-1.9-0.9-0.9-3.5-1.2-5.2c0.3-4,0.7-8,1-12c2-6.5,5.2-12.8,4.4-20
			C843.8,36.2,844.1,35.5,844.3,34.8z"/>
		<path class="st11" d="M839,56.8c-0.3,4-0.7,8-1,12c-3.8-1.9-4.6-4.3-1.5-7.7C837.4,59.8,838.3,58.3,839,56.8z"/>
		<path class="st7" d="M934,103.9c0-9.1-0.1-18.1,0-27.2c0.1-4.4,0.5-9,3.9-12.5c1.2-1.2,2.7-2.4,4.5-1s2.6,3.3,1.2,4.9
			c-3.1,3.7-2.7,8-2.6,12.2c0.4,19.1-0.7,38.3,1,57.5c0.1,0.7,0.1,1.4,0.1,2.1c0,2.4-1,3.9-3.5,4.1s-3.5-1.3-3.7-3.8
			C933.6,128.2,933.7,116,934,103.9z"/>
		<path class="st2" d="M935.1,168.2c-8.6,0-17.1-1.5-25.1-4.4c-2.7-1-5.7-2-4.4-5.6c1.2-3.6,4.1-2.6,6.8-1.5
			c14.8,5.5,29.9,5.1,44.9,1.1c1.6-0.4,3.3-1.1,4.9-1.4c2.5-0.4,4.5,0.2,5.1,3s-1.1,3.6-3.3,4.2
			C954.7,166.6,944.9,168.1,935.1,168.2z"/>
		<path class="st6" d="M896.9,10.1c10.4-4.2,21.8-8.6,32.2-7.1s21.6,1.1,31.6,5.5c-14.2,1.5-28.4,3.2-42.6,4.7
			c-10,1-19.8,3.2-29.6,4.9C890.1,14.1,894.8,13.5,896.9,10.1z"/>
		<path class="st9" d="M867.5,58.7c-3.5,0-6.1,0.2-6.7-3s1.2-4.3,4.1-4.5c0.5,0,1.2-0.1,1.4-0.4c4.1-6,11.1-4.2,16.7-6
			s10.5,1.2,15.3,3.5c1.8,0.8,2.2,2.6,1.9,4.3c-0.4,2.1-2.1,2.6-3.9,2.7c-5.2,0.3-10.6,0.2-15.9,0.8C875.7,56.6,871.2,58,867.5,58.7
			z"/>
		<path class="st7" d="M979.4,53.1c5.4,3.2,12.4,0.9,16.5,6.6c0.5,0.7,1.9,0.7,2.8,1.1c2.6,0.9,5.8,1.6,4.6,5.4
			c-0.8,2.9-3.9,4.6-6.8,3.8c0,0-0.1,0-0.1,0c-8.8-2.5-17.4-4.9-26.2-6.6c-2.8-0.5-3.7-5.4-1.4-6C972.3,56.2,975.9,54.8,979.4,53.1z
			"/>
		<path class="st6" d="M1006,30.6c3.1,1,5.5,3.4,8.2,5c1.5,0.8,2,2.2,2,3.8c0.3,11.8,0.7,23.8,1,35.6c-4.5-9.5-5.8-19.9-8-30.1
			C1008.2,40.3,1007.1,35.4,1006,30.6z"/>
		<path class="st6" d="M1034.9,111.2c6.3,2.2,9.3,7.7,7.8,14.4c-1.4,6.7-5.6,11.1-11.8,13.7c-0.4-5.2,1.4-10.3,5.2-14
			c3.9-4,3.4-7.1,0.5-11C1035.8,113.3,1035.3,112.3,1034.9,111.2z"/>
		<path class="st2" d="M976.5,90.8c3.2,0.8,6.4,1.5,9.1,3.4c1.7,1,2.4,3.2,1.4,4.9c-0.9,2-3,2.8-4.7,1.6c-2.4-1.5-3.5-0.4-5,1.1
			c-1.1,1.2-2.8,1.1-4.2,0.2c-1.5-0.7-2.2-2.4-1.5-3.9C972.5,95.4,972.1,91.5,976.5,90.8z"/>
		<path class="st2" d="M943.8,175c3.1,0.1,4.7,1.1,5,3.6c0.3,2.3-0.7,3.4-3.1,3.8c-3.2,0.5-6.4,1.3-9.5,2.1
			c-2.1,0.4-3.9,0.1-4.6-2.2c-0.7-2.3,0-4.1,2.5-4.8C937.5,176.5,941,175.8,943.8,175z"/>
		<path class="st7" d="M879.8,95.5c-2,0.2-3.4-0.4-3.9-2c-0.7-2.3-0.2-4.8,1.2-6.7c1-1.5,3-1.9,4.5-0.9c1.5,1.1,3.4,1.6,5.2,1.1
			c2.1-0.4,3.6,0.7,3.9,3c0.4,2-1,4-3,4.4c-0.1,0-0.2,0-0.3,0C885,94.9,882.1,94.4,879.8,95.5z"/>
		<path class="st6" d="M853.7,40c1.4-5.4,6.1-8.3,9.3-12.5c1.6-1,3.2-2.2,4.8-3.2c0.4-0.3,0.9-0.6,1.3-0.9l0,0
			c4,0.5,7.2-2.6,11.2-2.2c-0.4,0.5-0.8,1.1-1.3,1.3c-8.1,3.5-15.4,8.8-21.3,15.3C856.7,39.2,855.5,40.5,853.7,40z"/>
		<path class="st12" d="M880.3,21.4c-4-0.5-7.2,2.7-11.2,2.2c8.1-6.8,17.7-10.7,27.8-13.5c-2.1,3.5-6.8,4-8.3,7.9
			C885.8,19.1,883,20.3,880.3,21.4z"/>
		<path class="st6" d="M852.6,41.2c0-0.7,0.2-1.2,1-1.2C853.9,40.9,853.4,41.1,852.6,41.2z"/>
		<path class="st6" d="M849.2,298.7c-1.4-4.8-0.3-9-1.4-13c-0.5-1.5,1.1-2,2.4-1.2c2.2,1.2,6.7,0.5,5,5.1
			C854.1,293.1,852,296.2,849.2,298.7z"/>
		<path class="st6" d="M978,5.4c-0.1,0.2-0.3,0.4-0.5,0.5c-1.1-0.2-2.3-0.5-3.5-0.7c-5.8-2.3-11.7-4.3-17.7-5.9
			c5.5-1.2,11.1-1.8,16.7-1.7C973.7,0.8,977.1,2.4,978,5.4z"/>
		<path class="st12" d="M869.1,23.6c-0.4,0.3-0.9,0.6-1.3,0.9C868.2,24.1,868.6,23.8,869.1,23.6z"/>
		<path class="st5" d="M951.8,7.1c-13.8-1.9-27-5.1-41.1-4.7c-14.1,0.4-28.5,3.2-41.1,9.6c-26.2,13.2-39.4,40.9-37.8,69.6
			c1.1,16.9,5.8,33.4,13.9,48.3l5.4-13.2c-5.1,1.7-10.6,1-15.1-2l-2.2,16.5c12.9-2,25.3,3,28.8,16.2c1.9,7.3,2.7,14.8,5.3,22
			c2.3,6.5,5.4,12.7,9.2,18.5c16,24.3,41,40.7,65.4,55.6c9.1,5.6,20.5-8.2,11.8-15.2c-18.9-15-35.1-33.1-47.9-53.5l-15.3,11.8
			c14.2,13.5,28.7,27.2,37.5,45c7.5,15.2,8.9,34.1-0.6,48.7l17.8,2.3c-3.6-11.5-4.9-23.6-4-35.6c0.8-11.1-16.3-13-19.1-2.6
			c-3.5,12.7-4.9,25.9-4.4,39c0.3,7.8,10.7,13.6,16.5,6.9c4.3-4.9,8.3-10,12.1-15.3c6-8.6-6.9-17.5-14.1-10.8
			c-4.1,3.9-8,8.1-11.7,12.4l16.5,6.8c-0.5-11.4,0.7-22.8,3.8-33.9l-19.1-2.6c-1,13.8,0.6,27.6,4.7,40.8c1.6,5.2,7.1,8.1,12.4,6.5
			c2.3-0.7,4.2-2.2,5.5-4.2c12.2-18.7,11.5-42.8,3.1-62.9c-9.1-21.7-26.2-38.5-43-54.5c-7.8-7.5-21.4,2.2-15.3,11.8
			c13.6,22,30.8,41.4,51.1,57.4l11.8-15.2c-24.6-14.6-51.9-31-64.8-57.8c-6.8-14.2-5.1-31.1-16-43.4c-10.5-11.9-27.6-14.2-42.5-11.8
			c-8.2,1.3-8.2,12.8-2.2,16.5c8.6,5.4,19.2,6.8,29,3.8c4.8-1.4,7.6-6.5,6.2-11.3c-0.2-0.7-0.5-1.3-0.8-1.9
			c-13.7-25.6-19.1-62.3,3.9-84.4c10.5-10.1,24.8-14.8,38.8-17.5c7.5-1.4,15-2,22.6-3.2c8.1-1.5,16.3-2.4,24.5-2.8
			C954.1,12.8,955.2,7.6,951.8,7.1L951.8,7.1z"/>
		<path class="st5" d="M857.3,53.4c10.2-9.7,20.7-18.6,33.8-24.1c14.1-5.9,29.9-7,45-7.8c14.7-0.7,30.3-0.3,43.9,5.9
			c5.9,2.6,11.2,6.2,15.7,10.7c4.7,4.7,6.9,10,9.9,15.7c5.1,9.8,19.5,2.8,17.2-7.2c-3.5-15.2-18.6-27.8-32.2-34
			C974,5,955.3,4,937.2,5.5c-17.8,1.5-35.6,4.1-51.5,12.7C872,25.5,859.7,37,853.7,51.3C852.8,53.4,855.9,54.7,857.3,53.4
			L857.3,53.4z"/>
	</g>
</g>
</svg>
