<svg xmlns="http://www.w3.org/2000/svg" viewBox="0 0 1531.47 662.7"><defs><style>.cls-1{isolation:isolate;}.cls-2{fill:#fefefe;}.cls-3{fill:#1f1f1f;}.cls-15,.cls-4{fill:#f4cdb5;}.cls-4{mix-blend-mode:multiply;}.cls-5{fill:#e37272;}.cls-6{fill:#251915;}.cls-7{fill:#6fc0e0;}.cls-8{fill:#0e1312;}.cls-9{fill:#241712;}.cls-10{fill:#6fc2e2;}.cls-11{fill:#2a1f1a;}.cls-12{fill:#3194ca;}.cls-13{fill:#fdfdfd;}.cls-14{fill:#cd3434;}.cls-16{fill:#241611;}.cls-17{fill:#220b09;}</style></defs><title>down_per-02</title><g class="cls-1"><g id="Capa_1" data-name="Capa 1"><path class="cls-2" d="M32.17,343.17c12.9-52.9,52.64-95.27,101.65-117.44,25.65-11.61,54.19-9.62,79.27-19.16,45.82-17.42,12.09,8.42,25.48-21,4.24-9.3,7.83-128.92-.12-134.22,29.26,19.51,140.65.05,174.75.27,129.33.83,239.08,1.94,368.41,3.06,188.54,1.64,390.08,3.39,578.61,5.23L1359,72.6,1445,68.8c2.61,73.66-10.68,194.26,10.43,262.92,9.8,31.87,10,63.68,16,96.35,6.41,35.33,18.32,63.75,12.73,101.37-2.51,16.93-37.91,103.4-53.64,38.71-5.76,53.09-54,83.45-105.08,63.39-36.3-14.26-39.53-46.35-61-71-6.13-7-16.58-8.63-22.55-15.75-2.57-3.07-21.89-29.17-23.22-29.86-18.57-9.64-51.83-6.3-76.22-6.91-62.92-1.56-138.84-3.11-201.76-4.67-69.11-1.71-118.62-3.43-187.72-5.14-32.68-.81-98.07-15.19-129.38-3.2-14,5.35-10.42,14.78-26,25-54.44,35.57-131,25.43-191.58,17.16-34.49-4.71-67.42-10.79-102.43-10.06-12.68.26-41.64-3-52.31,5.4-22.19,17.53-6.41,4.9-8.5,28.17-3.09,34.38,26.5,33.89-16.77,58.41C181.21,644.41,133.3,599,91.82,635.25,121,591.71,103.6,537.34,79.17,496.06,46.59,441,21.36,412.47,32.17,343.17Z"/><path class="cls-3" d="M1213.08,518.18l4.55-4.56c-31.59-.49-63.19-1.27-94.78-2.13-30.38-.79-60.66-1.47-91-2.26-48.6-1.27-110.21-2.45-158.81-3.62-31.94-.79-63.89-1.77-95.83-2.26C734,502.57,710.25,502,667,501.69c-50.56-.3-101.22,0-151.78,1.27-10.58.2-21.17.59-31.75.88-2.25,0-4,.49-4,3,0,2.84,2.16,3.24,4.51,3a7.27,7.27,0,0,1,1.47-.1c22.34-.59,44.68-1.47,67-1.66,37-.3,74.08-.79,111.12-.49,35.38.29,70.85.09,106.22,1,29.49.68,39.49,1,69,1.66,39.1.88,78.3,2,117.39,2.94,40,1.08,92.86,2.26,132.84,3.23,41.07.93,82.21,1.91,123.36,2.55A4.53,4.53,0,0,1,1213.08,518.18Z"/><path class="cls-3" d="M1443.76,315.9c-2-.19-4-.29-6-.49q1.77-73.78,3.72-147.66c.59-22.15.89-84.29,2.55-106.44.1-1.76-.2-3.72,1.76-4.8,2.55-1.37,4.41.29,4.32,4-.49,16.75-1,73.51-1.47,90.36-.59,20.19-1.38,40.37-2,60.56q-1.34,49.38-2.65,98.77c0,1.76.1,3.63.2,5.39A1.32,1.32,0,0,0,1443.76,315.9Z"/><path class="cls-4" d="M1475.25,460.54l2.64.75-14.09,3.63,1.94-2.42-1.48,12c-.65-1.61-9.65-9.08-12.35-11.64-7.66-7.28-15-14.87-22.53-22.29-7.85-7.76-.78-21.3,9.24-22.52s18.21,1.41,23.84,10c7.69,11.68-2.51,27-17,21.74-29.6-10.73-60.17-16.27-91.37-20-14.2-1.68-28.33-3.41-42.62-4.11-12.43-.6-34.3-3.66-45.87,1.73l11.28-11.06c-6.09,10.34-1.38,28.06.37,39.44l-34.86-13.59c19.63-13.77,53-22.43,64.6,6.32,6.06,15,1.12,34.28,2.81,50.1,2.31,21.64,8.9,41.28,18.41,61,11.48,23.75-24.62,36.93-37.54,15.48-19.35-32.11-33-66-31.63-103.38.67-18.58,32.68-23.54,38.36-5.14,9.54,30.84,21.26,112.63,65.49,116.47,22.33,1.94,30.68-29.43,37.11-45.36,10.11-25.07,16.31-50.75,20.24-77.39,3.91-26.45,48.26-29.09,50.6-.38,1.42,17.31-1.86,29.34-11.19,44-11.08,17.42-35,8.74-43.53-5.35-10.59-17.41-29.76-24.44-49.6-24.77L1389,435.13c5.29,6.38,12.69,13.19,22,11.34L1391.68,461l1.53-4,.24,18.67c-1.44-2.34-33.6-9.41-38.73-10.5-6.77-1.45-13.62-2.53-20.49-3.33-2.43-.28-20.52-.43-15.69-3.39l9.51-16.31c-1.61,9.15,2.6,15.85,8.16,22.87l-37.16-4.57q-4.79,8.66-2.31.26,1.3-5.31,2.93-10.54a34.37,34.37,0,0,1,16.66-17.19c15.91-7.79,33.18-1.73,44.64,10.39,26.81,28.31,42.07,67.14,49.2,104.22,3.56,18.51-14,33.57-32.2,31.85-34.58-3.25-60.23-48-44.24-78.42,19.3-36.67,73.57-16.37,89.62,12.76,15.29,27.75,2.09,73.42-37.92,65.37-40.67-8.18-41.39-63.71-20.93-90,29.67-38.13,74.14-.25,71.11,37.4-2.53,31.46-27,60.09-60,64.87-35.61,5.16-71-16.45-82.3-49.22-6.34-18.4-2.37-36.31-4.2-55-2-20.14-17.2-31.08-32.66-42.91l46.49-26.35.6,10.88c2,35.88-55.42,44.27-57.69,8l-.68-10.88c-1.46-23.42,24.92-42.63,46.49-26.35,33.43,25.23,55.81,51.76,56.19,94.06.11,12.33-4.73,35.15,11.31,40.44,5.26,1.73,9.19,1.12,13.24-2.38a17.23,17.23,0,0,0,4.06-6.67q0-12.08,12.64,5.26l21.69-5.71c3.28-3.15-1.08,10.43-.61,9.85-.61.75-48.84,9.23-37.72,3.43l15.38-15.07q-.63-9.5.91,1.53,4.11,7.37-3.91-.59l-32.2,31.86a173.48,173.48,0,0,0-14-43.49A154.3,154.3,0,0,0,1327,491.8c-2.37-3.47-14.24-13-6.89-9.88l22-.07c5.22-1.48,6.66-12.65,6.1-3.66-.23,3.65-2.65,7.61-4.46,10.64-4.31,7.26-10,11.56-17.75,15.29-9.48,4.57-25.44,1.24-31.36-7.88-13.82-21.34-32.1-61.93-3.35-79.22,26.89-16.18,76.28-.29,103.83,9.39,15.4,5.41,32.61,11.42,41.19,25.79,7.11,11.9,5.85,28.19-6.21,37-25.36,18.56-64-5.3-80.29-24.59-15.12-17.85,2.33-38.79,22.54-38.65,35.27.24,68.7,18.67,86.93,48l-40.2.06,1.22-7.11,50.6-.38c-5.53,37.45-16.46,74.46-33.43,108.52-13.83,27.73-32.58,52.66-67.45,53-77.62.65-92.23-91.72-109.5-146.25l38.36-5.14c-.87,30.35,15.89,56.6,29.28,83l-37.54,15.48a296.8,296.8,0,0,1-17.32-63.25,227.47,227.47,0,0,1-2.59-30.6c-.08-3.35-1.68-11.77.07-14.58q-1.66-6.89,3.76-2.29,8.39,2-1.48,7.17c-11.64,13.22-36.08,8.84-38.74-9.8-2.74-19.16-9.07-49.91,5.59-65.95,13.86-15.17,40.51-11.5,59.38-11.19,56,.93,106.66,16.21,157.19,39l-17.06,21.75,3.58.51,9.24-22.52c10.7,11,52,41,28.55,57.76-4.62,3.3-10,2.84-14.65,0l-2.28-1.37c-12.07-7.27-.24-22.58,11.39-19.24Z"/><path class="cls-4" d="M1362.26,614.62c-34.78,29.54-69.75-16.9-80.34-45-19-50.41-37.73-100.74-60.06-149.93-9.67-21.28,24.2-35.16,34.08-14.05,17.66,37.73,33.89,75.93,47.38,115.22,5.84,17,10,35.21,17.94,51.48,9.25,19,26.11,22.42,40.92,35.18a4.47,4.47,0,0,1,.08,7.11Z"/><path class="cls-4" d="M1473.21,441.58c-17.76-2-33.41-9.35-51-12.38-18.33-3.17-38.31-4.26-56.86-4.09-29.18.26-27.3-41.75-.63-37.05,37.46,6.58,85.78,18.57,112.64,46.32,2.88,3-.45,7.61-4.19,7.2Z"/><path class="cls-5" d="M1225.76,433.78c.11-6.27,8.54-8.65,13.16-5.31,8.34,6,12.23,15.23,6,24.66-8.37,12.61-27.89,9.52-40.64,11.15-7.86,1-13.25-9.5-6.35-14.18l6.34-13-8.4-13.63a68.21,68.21,0,0,1,24.4-2.83c10.12.58,8.44,13.62.27,15.79L1203,441.13l-.27-15.78,16.14-13.92,7.19,6.78-10.86-1c-10.58-1-8.63-16.79,1.94-15.79l10.86,1c3.2.3,7.12,3.4,7.18,6.77.39,20.28-13.11,33.6-34.39,32-10.08-.77-8.52-13.6-.27-15.79l17.56-4.65.27,15.78-15.86,1.69c-8.75,2.52-15.78-7.41-8.41-13.63a18.91,18.91,0,0,1,27.89,3.45c9.74,13.61-2.8,27.22-13.81,34.69l-6.34-14.18c1.63-.21,33.14-3.14,27.21-7.41l13.16-5.31"/><path class="cls-5" d="M1477.44,423.69a49.9,49.9,0,0,1,56.84,12.91c4.48,5-.44,14.24-7.45,12.77l-40.52-8.46,7.44-12.77a128.87,128.87,0,0,0,23,25l-11.45,11.19-11.93-11.66c-6.83-6.66,4.1-16.23,11.45-11.18a108.51,108.51,0,0,1,32.58,35.24c5.27,9-9.91,15.09-15.12,6.24a90.61,90.61,0,0,0-27.4-28.86L1506.29,443l11.93,11.65c6.58,6.43-4.36,17.09-11.45,11.18a144,144,0,0,1-26-27.91c-3.65-5.19-.1-14.35,7.45-12.78l40.52,8.46-7.45,12.78c-9.44-10.57-24.26-13.51-37.29-8-9.72,4.1-16.29-10.57-6.59-14.66Z"/><path class="cls-5" d="M1246.7,490.79c-6.06,6.74-11.12,14.39-16.73,21.51a179.29,179.29,0,0,1-18.84,20.31c-5.62,5.23,2.65,13.28,8.35,8.36,14.5-12.54,28.45-25.76,42.61-38.68l-10.67-6.21c-3.49,12.51-7.12,25-10.79,37.42-1.74,5.89-3.75,11.78-5.21,17.75-1.23,5-.93,10.52,4.18,13.26,3.17,1.69,8.37,1.11,10-2.62,6-13.61,11.33-27.42,16-41.5,3.07-9.16-11.48-13.16-14.46-4C1247,529.3,1242.3,542,1237,554.52l10-2.62q2.07,7.29,2.72,2.28c.34-1.26.66-2.51,1-3.77q1-3.78,1.9-7.56l3.57-14.16q3.67-14.64,7.59-29.21c1.68-6.29-6.06-10.51-10.67-6.21-14,13.07-28.29,25.9-41.93,39.34l8.35,8.36c12.6-13.35,26.38-29.89,30.75-48.13.46-1.94-2.06-3.69-3.53-2Z"/><path class="cls-5" d="M1447.39,580.63c3.69-10.9,8.73-21.16,11.58-32.38,2.8-11,4.7-22.2,6.41-33.45l-14.1-1.91c-.75,23.43,2.39,47.43,6.47,70.44,1.52,8.59,14.7,6.26,14.83-2a31,31,0,0,0-4.47-16.66c-2.6-4.35-8.24-4.77-11.87-1.53A32.29,32.29,0,0,0,1447,577.8c-1.46,4.59,2.5,9.72,7.29,9.57,14.44-.47,17.23-16.54,18.32-28,1.47-15.44-.91-31-3.09-46.21l-11.13,8.55a41.12,41.12,0,0,1,13.51,18.93c2.67,7.61,15.39,7,14.89-2-.4-7-2.67-13.18-5.65-19.46-2.61-5.51-6-11.08-6.45-17.29l-14.9,2c3.15,9.79,6.53,19.52,10.31,29.09,3.11,7.89,7.14,18.81,17.86,16,9.32-2.47,5.38-16.84-4-14.46l-1.11.28h4c.59.1,0-.28-.44-1.46-.5-1.47-1.14-2.9-1.69-4.35-1.23-3.21-2.45-6.41-3.62-9.63q-3.54-9.66-6.68-19.46c-2.5-7.74-15.59-6.92-14.91,2,.54,7,2.85,13.16,5.86,19.46,2.64,5.51,5.91,11,6.26,17.29l14.89-2a59.45,59.45,0,0,0-20.48-28c-6-4.57-11.93,3-11.13,8.55,1.55,10.81,3,21.67,3,32.61A84.68,84.68,0,0,1,1456.7,565a20,20,0,0,1-1.59,5.76c-.27.5-.7,1-.95,1.48s-.9,0,.12,0l7.28,9.57a17.19,17.19,0,0,1,5.37-8l-11.87-1.53a16,16,0,0,1,2.42,9l14.83-2c-3.93-22.09-5.25-44.09-6.67-66.43-.58-9.13-14.45-9.32-14.36,0a240.87,240.87,0,0,1-2.16,33.08c-1.43,11.21-2.07,22.83-5.26,33.69-.67,2.27,2.78,3.18,3.53,1Z"/><path class="cls-6" d="M1242.88,489.08a24.3,24.3,0,0,0,2.57-.53c1.51-.36,4.27.89,4.18-1.78s1.51-5.25-2-7.82c-6-4.36-8.09-11.47-9.25-18.58a36.69,36.69,0,0,1,2.4-21.07c-2.49-.72-4.36.62-6.31,1.33a151.1,151.1,0,0,0-32.9,16.27,34.88,34.88,0,0,1-3,1.87,2.67,2.67,0,0,1-3.82-1.16c-.8-1.42-.18-2.58,1.07-3.38.88-.53,1.68-1.15,2.57-1.69a169.19,169.19,0,0,1,40.37-19c4.26-1.34,8.62-.8,12.89-2.23,3.73-1.15,7.91,2.23,8.8,5.78.71,2.76-.71,4.36-3.47,3.83-5.33-1.16-11.11,2-12.18,7.2-1.24,5.95-1.6,12,.18,18,.44,1.52.71,3.47,2.67,3.65,1.6.18,2.49-1.33,3.37-2.58a11.9,11.9,0,0,0,.89-1.51,3.3,3.3,0,0,1,3.38-1.69c1.87.18,1.87,1.69,2.14,2.93,1.33,8.63,2.57,17.25,4.08,25.88,3,17.6,7.12,35,13.34,51.83.71,2,1.07,4.17,4,4.53a2.21,2.21,0,0,1,1.42,3.47c-2,2.13-.53,3.82.27,5.51a180.16,180.16,0,0,0,10,18.31c1.51,2.49,2.93,3,5.15,1.16,1.16-1,2.49-1.6,3.65-2.49,1.6-1.16,3-1.07,4.27.53s.26,2.76-1,3.74l-1.07.8c-5.69,4.18-5.69,4.18-1,9.42a116.45,116.45,0,0,0,12.36,11.47c2,1.6,3.11,1.69,4.45-.53,1-1.69,2.22-3.12,3.2-4.8s2.13-2.76,3.91-1.69c2,1.15,1.69,2.93.62,4.62a58.48,58.48,0,0,1-3.82,5.42c-1.16,1.42-.89,2.22.71,2.94,3.38,1.51,6.67,3.11,10,4.71,1.51.8,2.66,1.15,4.17-.54s4-1.42,4.27,1.16,1.69,2.76,3.38,3.11c2,.45,4,1,6,1.25,2.49.35,5.42,1.51,7.37.62,2.58-1.07.63-4.45,1.07-6.76.27-1.33.62-2.31,2-2.49a2.86,2.86,0,0,1,3.2,1.87,4,4,0,0,1,.17,1.78c.54,6.67.63,6.75,7.29,5.6,3.47-.62,6.94-1.78,10.41-2.31,4.53-.71,5.24-3.29,4.44-7.2a49.12,49.12,0,0,1-.62-6.14c-.18-1.87.53-3.29,2.49-3.47,2.22-.26,2.67,1.34,2.84,3.12.27,2.93.54,5.86.89,9.24,7.29-3.38,13-8.35,18.58-13.51,1.25-1.16.54-2.13,0-3.11-1.51-2.76-3-5.43-4.53-8.09a2.77,2.77,0,0,1,1-4.18c1.6-1,2.75,0,3.64,1.42,1.6,2.67,3.11,5.34,5,8.36a121.62,121.62,0,0,0,12.45-17.25c.89-1.51.18-2-.8-2.84a2.36,2.36,0,0,1-.45-3.2,2,2,0,0,1,2.58-1.16c2.76,1.24,3.2-.89,4-2.49,11.29-22.23,18.23-45.78,22.67-70.23,1.16-6.4,2-12.89,2.76-19.3.26-1.95.71-3.82,2.93-3.64,2.67.09,2.67,2.22,2.4,4.27-.44,3.64-.89,7.38-1.24,11.2,2.66.53,5.15,1.24,7.82,1.51a15.62,15.62,0,0,0,16-9.51c2.4-6.05.18-13.6-5.42-17.87a24.41,24.41,0,0,0-4.18-2.49c-1.78-.89-3.29-1.87-2.22-4s2.93-1.69,4.62-.89c7.2,3.29,11.92,8.8,13.16,16.71,2.58,15.29-11.91,27.21-27.38,22.5-2.94-.89-3.56-.45-4.09,2.48-4.62,25.43-11.65,50.06-23.74,73-1.07,2.05-1.15,3.29,1.16,4.54a47.4,47.4,0,0,1,6.58,4.44,4,4,0,0,1,1.6,4.72,2.87,2.87,0,0,1-2.58,2.13c-1.87,0-2.76-1-3.56-2.67-1.24-2.49-4.09-3.2-6.22-4.8-1.42-1.15-1.78.45-2.22,1.16a113.76,113.76,0,0,1-13.07,17.87c-2,2.13-.36,3.73,0,5.6.44,2.49,3.38,6-.36,7.29-4,1.42-3.55-3.2-4.71-5.51A9.6,9.6,0,0,0,1413,602c-6,5.42-12.45,10.49-19.74,14.13-1.42.72-1.15,2-1.07,3q.4,4.4.8,8.8c.18,1.87-.44,3.29-2.49,3.47s-2.66-1.07-2.93-3c-.35-3,.62-7.2-1.51-8.62-1.69-1.07-5.42,1.07-8.36,1.69a91.11,91.11,0,0,1-9.6,1.51c-2.58.18-5.07-.27-4.89,3.64.09,1.16-1.07,1.69-2.22,1.69-1.51-.08-2.76-.89-2.67-2.4.09-2.84-1.6-2.75-3.64-3-4.54-.44-9.07-1.33-13.69-2-.45,3.37-.72,6.57-1.25,9.78-.27,1.86-1.15,3.46-3.47,3.11s-2-2.05-1.77-3.74c.35-3.55,2.4-7.64.53-10.31-1.6-2.31-6.22-2.4-8.89-4.36-6.67-4.8-12.45-5.15-17.78,1.78a11.51,11.51,0,0,1-2.85,2.14c-1.6.88-3.2.8-4.18-.89s.09-2.67,1.34-3.65c2.49-1.87,4.89-3.91,7.29-5.78,1.42-1.15,1.69-2-.09-3.38a85,85,0,0,1-17.07-17.33c-1.24-1.69-2.31-1.6-4.09-.8a93.22,93.22,0,0,1-9.51,3.55c-1.69.54-3.38.63-3.91-1.51-.45-1.86.53-3,2.4-3.64,3.37-1.16,8.62-1.34,9.42-4.45.62-2.4-3.11-6-4.8-9.07-2.49-4.8-5.07-9.69-7.2-14.66-1.07-2.49-2.4-3.38-5-3-2,.27-4.18.18-6.22.36s-3.2-.71-3.29-2.67,1.33-2.31,2.93-2.67c2.49-.53,6.14,1.34,7.11-1.24.71-2-1.33-4.89-2.22-7.47-7-20.62-11.2-42-14.58-63.39-.09-.44-.18-.8-.53-2-.8,5.78-1.43,10.76-2.14,15.74-.17,1,.09,2.48-1.15,2.57-4.36.27-5.07,4.09-6.67,6.85-7.56,12.71-15.56,25.07-24.18,37.07,2.4.89,3.82-.71,5.33-1.78,6.49-4.89,11.38-11.2,16.18-17.6,1.87-2.49,3.65-5,5.51-7.47a2.82,2.82,0,0,1,3.56-1.06c1.51.62,1.69,1.95,1.33,3.37A303.52,303.52,0,0,1,1237.36,559c-.62,1.51-1.69,2.58-3.38,2-2.22-.8-2.13-2.49-1.42-4.36,3.11-8.18,6-16.36,8.36-24.72.44-1.51.8-3,1.33-5.33-4.18,4.09-7.64,7.65-11.29,10.93-4.89,4.36-10.31,8-17.07,8.81-1.6.17-3.38.89-4.44-.8-1.16-1.87,0-3.38,1.06-4.8A492.24,492.24,0,0,0,1238,499.31c.88-1.52,2.22-2.85,2.13-4.72C1241.9,493.26,1242.25,491,1242.88,489.08Z"/><path class="cls-7" d="M1291.77,387.11c-2.67,3.56-6.4,5.16-10.58,5.78a93.48,93.48,0,0,1-17.16,1.78c-5.06-.09-10,.8-14.93,1.51a47.42,47.42,0,0,1-24.81-2.58c-1.77-.71-3.55-2.4-5.77-1.25l.17-.08c.27-.89-.35-1-1-.89l.08.09c-.17-1.16-.88-1.16-1.77-1.07h.08c-.08-.8-.8-.8-1.42-1a5.26,5.26,0,0,1-3.11-2.58c4.8-.35,9.51,1.07,14.49.18,11.2-2.13,25.07-12.8,23.92-25.25-.18-1.6.62-2.31,2.22-2.67a24.56,24.56,0,0,1,5.69-.71c14.22.18,28.18,2.85,42,5.87,20.63,4.62,40.45,12.09,60.55,18.67,1,.36,2,.45,2.48,1.6-7.64-.8-15.29-1.69-22.93-2.4a334.33,334.33,0,0,0-92.73,5.16c-2.13.44-5,.53-4.18,3.73.71,2.93,3.2,1.78,5.16,1.42C1262.7,389.87,1277.1,387.73,1291.77,387.11Z"/><path class="cls-8" d="M1193.09,335.28c.27-.36.62-.62.89-1,.53,0,1,0,1.07-.71h0c4.8-.8,9.33-2.4,14.22-3,13-1.51,25.87-.71,38.85.71,2.85.26,3.91,0,3.73-3.2-.26-5.16-.08-10.32-.08-15.47l.35.09c1.78.18,3.65.26,5.42.44.45,3.11-.8,6.31.45,9.6,3.2-2.66,5.51-5.95,8.89-8,2.22-.35,4.27.45,6.4,1-2.49,3-6.13,4.71-8.27,8.09-1.06,1-2.67,1.87-3.11,3-.89,2.31-5.42,2.23-4.27,4.54s4.8.89,7.38,1.33c2,1.07,4.36.62,6.58.89,36.18,5.07,71.12,14.94,105.26,27.83l41.88,15.73h0c.62.36,1.15.62,1.77,1,2.14,1.07,4.27,2.22,6.4,3.29a1.74,1.74,0,0,0,1.87.8h0c0,2,2,2.31,3,3.47,1.25,1.42,2.67,2.66,2.23,4.89-1.6-.71-3.29-1.34-4.89-2.05-41.34-17.69-83-34.67-127.22-44.09a446.85,446.85,0,0,0-84.11-9.52c-9.6-.17-19,1-26.31,8.27C1190.69,340.26,1192.38,338,1193.09,335.28Z"/><path class="cls-6" d="M1193.09,335.28c-.71,2.58-2.4,5-1.78,7.91v.09c-.27.36-.53.62-.8,1,0,.35-.09.8-.09,1.15-3.82,5.87-2.31,11.47.89,17v.27c.09.53.18,1.07.89,1.16l-.09-.09a1.57,1.57,0,0,0,1,1.86l-.09-.08c.36.62.62,1.15,1,1.77h0a10,10,0,0,0,.89,1.16c4.35,6.58,9.42,12.53,16,17.07a1.07,1.07,0,0,0,.89,1.33h-.09a5.2,5.2,0,0,0,3.11,2.58c.45.36.89.62,1.42,1h-.08c.35.71.62,1.69,1.77,1.07l-.09-.09c-.35,1,.09,1.15,1,.89l-.18.08a131.41,131.41,0,0,0,27.83,20.1,62,62,0,0,1,7.82,5.33c1.43,1.07,2.76,2,1.43,3.82-1.07,1.52-2.58,1.78-4.27.8-2.49-1.33-4.8-3.82-7.91-1.51-4,1.51-8,3-12.09,4.54a23,23,0,0,0,12.18-3.83c1.77-.17,3.73-.44,4.26,2s-1.33,2.93-3,3.64a104.33,104.33,0,0,1-35.12,8.54c-3.46.27-6.93.89-10.49.18-1.86-.36-3.73-.45-3.46-3,.26-2.4,2-2.48,3.91-2.48,4.44,0,8.89-.18,13.33-.36,1,0,2.85-.36,2.85-.71.71-6.58,6.93-5.25,10.58-7.38,2.93-1.78,6.67-2.31,9.87-4.45a199.75,199.75,0,0,0-45.61-13.6c-.18,0-.27-.09-.45-.09-2.22-.17-4.44-.71-4-3.46.54-3.12,3.2-2.05,5.07-1.78a182,182,0,0,1,27.56,6.67c2.49.8,5,1.51,8.09,2.48-.62-2.48-2.4-3.11-3.64-4.08A271.14,271.14,0,0,1,1193.09,375c-4.27-4.71-8-9.87-10-16C1179.66,348.7,1183.49,339.81,1193.09,335.28Z"/><path class="cls-9" d="M1291.77,387.11a312.52,312.52,0,0,0-43.56,5.42c-2,.36-4.45,1.51-5.16-1.42-.8-3.29,2-3.38,4.18-3.73a334.33,334.33,0,0,1,92.73-5.16c7.64.62,15.29,1.6,22.93,2.4,3.47.62,6.94,1.24,10.41,1.78,13.51,2.31,26.67,6,39.91,9.42L1443,406.49l20.27,9.34c1.86,1.6,5.33,1.42,5.6,4.8-.27.62-.18,1.51-1.16,1.77H1465c-7.73-3.46-15.38-6.93-23.11-10.31a35.38,35.38,0,0,0-4.09-1.24,18.16,18.16,0,0,0-2.22-1.34A327.78,327.78,0,0,0,1379.25,393c-8.09-1.6-16.09-3.74-24.45-3.47-16-3.2-32.27-3.2-48.45-3.11C1301.55,386.4,1296.66,386.84,1291.77,387.11Z"/><path class="cls-10" d="M1469,420.54c-.36-3.38-3.74-3.2-5.6-4.8.17-3-2.14-5.43-1.78-8.45,5.69,3.47,10.49,8.09,15.11,12.89,1.42,1.42,2.93,2.31,4.62.8s.71-3.2-.62-4.53c-3.64-3.47-7.29-6.85-10.93-10.32,5.24-.53,5.6-1.15,3.91-6.31-.89-2.66-1.69-5.33-2.31-8-1.87-9.07-3.65-18.05-5.52-27.11l.27-1.07c16.63,7.2,28.72,18.49,31.74,37.16,2.31,14.05-10.76,25.07-24.63,21.16C1471.71,421.51,1470.38,421,1469,420.54Z"/><path class="cls-6" d="M1273.28,315.72c-2.13-.53-4.18-1.33-6.4-1a.75.75,0,0,0,0-.62c28.09-22.67,60.45-26.32,94.68-21.16,6.58,1,13.07,2.58,19.56,4,1.69.36,3.38.8,5.25-.44a9.44,9.44,0,0,0-7.92-4.09c-2.22,0-4-.71-3.82-3.2s2.4-2.14,4.09-2.14a15,15,0,0,1,14.22,10.14c.89,2.84,2.4,4,5.07,4.71a175.14,175.14,0,0,1,34,14.67,1.06,1.06,0,0,0,.18.71c-2.31,0-4.71-.36-6.31,2l-1.6-.27a111.46,111.46,0,0,0-28-11.56,133.76,133.76,0,0,0-34.23-8.8,4.69,4.69,0,0,0-1.15-.62c-15.12-2.14-30.23-2.85-45.34-.27s-29,8.09-41.16,17.6A2.55,2.55,0,0,1,1273.28,315.72Z"/><path class="cls-10" d="M1251.77,312.7c0,5.15-.18,10.31.08,15.47.18,3.2-1,3.46-3.73,3.2-12.89-1.43-25.78-2.31-38.85-.71-4.89.62-9.42,2.22-14.22,3,1.33-6,6-9.25,10.4-12.54,8-6,17.6-8.18,27.38-8.89C1239.14,311.9,1245.45,311.45,1251.77,312.7Z"/><path class="cls-6" d="M1433.93,443.39c6.84,1.6,13.6,3.11,20.45,4.71,1.15.26,2.31.62,3.46.8,2.14.35,4,1.15,3.56,3.55-.45,2.85-2.85,2.05-4.62,1.69-10.67-2.4-21.25-5-32-7.2-6.84-1.42-13.25-4.8-20.45-4.89-1.77,0-2.93-.62-2.84-2.58s1.42-2.84,3.29-2.84c3.73,0,7.38.09,11.11.09,4.45,0,9,0,13.51-.36-6.93-3-14.22-4.44-21.51-6-.89-.18-1.78-.36-2.58-.54-1.78-.53-2.22-1.78-1.87-3.46s1.69-1.87,3.12-1.6c6,1.24,12.18,2.31,18.22,3.73a188.85,188.85,0,0,1,27.38,8.8c1.78.71,3.38,1.51,2.67,3.73-.62,2-2.22,1.69-4,1.6-5.6-.17-11.11-.08-16.71-.08C1434,442.85,1434,443.12,1433.93,443.39Z"/><path class="cls-6" d="M1468.6,539c1.87,8,3.56,15.47,4.09,23.11a68,68,0,0,1-3,26.67c-.54,1.78-1.34,3-3.38,2.58s-2.49-2-1.87-3.73c5.69-16.18,2.85-32.1-1.24-47.92a24.77,24.77,0,0,1-.71-2.58c-.36-1.69-1.6-3.47.17-5,1.69-1.33,3.38-.36,5,.36l22,9.6c-.35-2.85-1.69-4.63-2.67-6.4a116.22,116.22,0,0,0-16.62-22.41c-1.25-1.33-2.76-2.66-.8-4.44,1.69-1.51,3.2-.8,4.62.62a119.4,119.4,0,0,1,23.74,36.09c.62,1.43,1,2.94-.36,4.09s-2.75.54-4.17-.08C1485.31,546.25,1477.22,542.78,1468.6,539Z"/><path class="cls-6" d="M1495.09,447.74c.54,2.14,2.23,2.4,3.38,3.11,8.18,5.25,16.45,10.49,24.63,15.74,1.69,1.07,3.55,2.31,2,4.53s-3.29,1.25-5,.09a542.63,542.63,0,0,0-53.6-31.91c-1.6-.89-3.29-1.78-2.58-4,.8-2.48,2.66-1.42,4.35-1.33,12.18.62,23.74,4.27,35.74,5.78,4.63.53,5.07,4.45,6.76,7,1.16,1.78-1.07,3.29-3.47,2.94C1503.36,449,1499.36,448.36,1495.09,447.74Z"/><path class="cls-9" d="M1295.59,433.07c.54,2,1.87,1.6,2.94,1.69,4.89.53,9.69,1.16,14.58,1.69,1.87.18,3.29.71,3.29,2.76,0,1.69-1.16,2.49-2.94,2.75-2.31.27-4.71.36-5.51,3.29-.26.89-1.33,1.07-2.31,1.07-8.18-.36-16.18,1.6-24.27,1.78-2,0-4.45.62-4.8-2.4-.27-2.85,2-2.67,3.91-3a68.32,68.32,0,0,0,12.36-3.2c-6.67-.71-13.34-1.42-20-2.22-1.69-.18-3.92-.09-4.09-2.58s1.77-3,3.73-3.46a114.09,114.09,0,0,1,41.78-2.76c2.14.27,4,.71,3.74,3.29-.27,2.4-2.31,2.31-4.18,2A122.48,122.48,0,0,0,1295.59,433.07Z"/><path class="cls-6" d="M1360.14,516.73c-10.58.71-10.67.89-8-9.25,4.53-17.6,8.71-35.29,13.16-52.89.44-2,.17-5.16,3.55-4.27,2.85.8,2.13,3.38,1.51,5.6-4.18,16.89-8.35,33.87-12.53,50.76-1.34,5.25-1.25,5.25,4.26,4.89a39,39,0,0,1,4.45-.17,2.82,2.82,0,0,1,3,3.11c0,2-1.51,2.22-3.11,2.22Z"/><path class="cls-8" d="M1425.93,319.45c1.6-2.31,4-1.95,6.31-1.95,1.78,1.06,3.56,2,5.24,3.11,9.25,6.13,16.36,14.22,22.23,23.56h0a1.8,1.8,0,0,0,.8,2c1.87,5.78,3.65,11.56,5.51,17.34-.09.36-.18.71-.26,1.07-1.43,2.31-.36,4.89-.72,7.29s1.07,5-1.15,7c-.89-.62-.53-1.6-.62-2.49-1.69-14.93-5.52-29-16.1-40.45C1441,329.23,1433.48,324.25,1425.93,319.45Z"/><path class="cls-7" d="M1354.89,389.51c8.36-.27,16.36,1.87,24.45,3.47a320,320,0,0,1,56.37,16.53,11.21,11.21,0,0,1,2.22,1.34c-4.09,3.29-8.36,1.95-12.45.35-17.78-6.93-35.65-13.24-54.23-17.69C1365.74,392.18,1360.32,390.84,1354.89,389.51Z"/><path class="cls-11" d="M1345.65,545.62c1.6,2.67,2.93,4.89,4.18,7.12.8,1.42,1.06,2.93-.45,3.91s-3.11.53-4.09-1.07c-1.87-3-3.82-6-5.51-9-1.42-2.49-.18-5,1-6.93,1.15-2.14,3.38-.71,5.07,0a83.53,83.53,0,0,0,16.62,4.35c2,.36,4.18.71,3.73,3.29-.44,2.85-2.75,2.49-4.89,2C1356.23,547.94,1351.25,546.87,1345.65,545.62Z"/><path class="cls-11" d="M1465.13,422.32h2.67c-.36,2.31,1.51,1.68,2.67,1.86,8.27,1.51,16.53,2.94,24.8,4.36,2.14.35,4.27.8,3.82,3.73s-2.84,2-4.53,1.6c-9.42-1.6-18.85-3.29-28.27-5-2-.35-4.71,0-5.07-3.11S1464.16,423.92,1465.13,422.32Z"/><path class="cls-11" d="M1418.73,472.28c-.27,2.75-2.23,4.8-4.36,3.73-5.51-2.58-10.85-.62-16.36-.44a8.43,8.43,0,0,1-3-.27c-1.25-.44-1.6-1.6-1.51-2.93a2.13,2.13,0,0,1,2.31-2.05c6-.44,12-1,18-1.42C1416.41,468.63,1418,469.88,1418.73,472.28Z"/><path class="cls-7" d="M1459.8,344.17c-5.87-9.34-13.07-17.43-22.23-23.56-1.69-1.16-3.55-2.13-5.24-3.11a1.69,1.69,0,0,1-.18-.71c8.8-.63,15.38,3.46,20.45,10.13C1456.33,332,1459.27,337.59,1459.8,344.17Z"/><path class="cls-11" d="M1376.59,543.22c-1.25,0-1.78-.8-2.4-1.69a66.22,66.22,0,0,0-8.72-9.95c-1.51-1.34-2.31-2.76-.71-4.54s3.11-.62,4.54.63a71,71,0,0,1,9.33,10.57,3.08,3.08,0,0,1,.27,3.74A2.51,2.51,0,0,1,1376.59,543.22Z"/><path class="cls-11" d="M1328.31,525.44c-.09,1.78-12.89,11.47-14.76,11.12a2.68,2.68,0,0,1-1.33-4.72c3.91-2.93,7.65-6,11.65-8.71C1326.09,521.71,1328.4,523.13,1328.31,525.44Z"/><path class="cls-11" d="M1391.25,533.62c4.27,2.14,9,3.91,13,6.85.89.71.72,2.22,0,3.29a2.18,2.18,0,0,1-3,.8c-3.64-1.87-7.38-3.65-11-5.51a2.63,2.63,0,0,1-1.34-3.38A2.5,2.5,0,0,1,1391.25,533.62Z"/><path class="cls-11" d="M1338.62,534.33a2.1,2.1,0,0,1-1.6-1.77c-.26-1.16-.26-2.49.89-3.21,3-1.77,6.23-3.37,9.34-5a2.16,2.16,0,0,1,2.75.8,3.08,3.08,0,0,1,.18,2.93C1349.74,529.18,1340.31,534.42,1338.62,534.33Z"/><path class="cls-11" d="M1497.67,462.5c1.34-.09,8.71,6,9.07,7.47a2.66,2.66,0,0,1-1.07,2.75,2.4,2.4,0,0,1-2.93.18c-2.31-1.78-4.62-3.73-6.76-5.69a2.66,2.66,0,0,1-.35-3.29A2.36,2.36,0,0,1,1497.67,462.5Z"/><path class="cls-11" d="M1302,467.57c1.68,0,3.29,1,2.66,3.73-.44,2.05.63,5.6-2.75,5.6-3.83,0-3.38-3.91-4-6.4C1297.37,468.19,1299.06,467.39,1302,467.57Z"/><path class="cls-7" d="M1266.88,314.21a.75.75,0,0,1,0,.62c-3.38,2.05-5.69,5.34-8.89,8-1.25-3.38,0-6.58-.45-9.6a.69.69,0,0,1,.45-.18C1260.92,313.41,1264,313.85,1266.88,314.21Z"/><path class="cls-7" d="M1243.5,421.51a21.68,21.68,0,0,1-12.18,3.83c4-1.51,8-3,12.09-4.54A.46.46,0,0,1,1243.5,421.51Z"/><path class="cls-7" d="M1460.6,346.21a1.77,1.77,0,0,1-.8-2C1460.87,344.44,1460.78,345.32,1460.6,346.21Z"/><path class="cls-10" d="M1195.05,333.68c-.09.71-.54.71-1.07.71C1194.16,333.77,1194.42,333.41,1195.05,333.68Z"/><path class="cls-12" d="M1413.3,395.73c-13.24-3.46-26.4-7.11-39.91-9.42-3.47-.62-6.94-1.25-10.41-1.78-.44-1.15-1.6-1.24-2.49-1.6-20.09-6.58-39.91-14.05-60.54-18.67-13.78-3.11-27.74-5.69-42-5.87a30.64,30.64,0,0,0-5.69.71c-1.6.36-2.4,1.07-2.22,2.67,1.15,12.45-12.63,23.12-23.92,25.25-5,1-9.69-.53-14.49-.18h.09c-.27-.44-.62-.89-.89-1.33-6.58-4.54-11.65-10.49-16-17.07a11.23,11.23,0,0,0-.89-1.16h0c-.18-.71-.18-1.51-1-1.77l.09.08c0-.8-.09-1.51-1-1.86l.09.09a13,13,0,0,1-.89-1.16v-.27c-.44-5.69-1.33-11.29-.89-17,0-.35.09-.8.09-1.15.27-.36.53-.62.8-1v-.09c7.38-7.29,16.8-8.44,26.32-8.27a446,446,0,0,1,84.1,9.52c44.27,9.42,85.88,26.4,127.22,44.09,1.6.71,3.29,1.34,4.89,2.05.09.26.09.44.18.71-.09,3.55-2.58,4.35-5.43,4.35C1423.53,395.82,1418.37,395.73,1413.3,395.73Z"/><path class="cls-2" d="M1217.89,391.47c-1.15.62-1.42-.36-1.77-1.07C1217,390.22,1217.72,390.31,1217.89,391.47Z"/><path class="cls-2" d="M1216.2,390.4c-.44-.36-.88-.62-1.42-1C1215.4,389.6,1216,389.6,1216.2,390.4Z"/><path class="cls-2" d="M1218.69,392.27c-.8.17-1.24,0-1-.89C1218.43,391.29,1219,391.38,1218.69,392.27Z"/><path class="cls-10" d="M1274.44,315.54c12.18-9.51,26-15,41.16-17.6s30.23-1.87,45.34.27a3.42,3.42,0,0,1,1.15.62c6.76,2.4,13.61,4.62,20.19,7.38,4.62,2,9.06,3.91,14,1.42a108.78,108.78,0,0,1,28,11.56,18.54,18.54,0,0,0-4.8,16.62,42.52,42.52,0,0,0,8,17.52,125.78,125.78,0,0,1,18.76,37.34c-6-2.58-11.47-6.32-17.7-8.27h0a1.72,1.72,0,0,0-1.86-.8c-2.14-1.07-4.27-2.23-6.4-3.29-.18-1.07-.89-1.16-1.78-1h0c-3.74-4.8-9.16-7.2-14-10.31a377.26,377.26,0,0,0-103.22-45C1292.57,319.54,1283.41,317.68,1274.44,315.54Z"/><path class="cls-12" d="M1274.44,315.54c9,2.14,18.13,4,27,6.4a378.46,378.46,0,0,1,103.22,45c4.89,3.11,10.31,5.51,14,10.31l-41.88-15.73c-34.14-12.9-69-22.85-105.26-27.83-2.22-.27-4.44.09-6.58-.89V323.9c2.14-3.38,5.78-5.07,8.27-8.09A6.79,6.79,0,0,1,1274.44,315.54Z"/><path class="cls-9" d="M1428.68,382.31c6.32,1.95,11.74,5.69,17.69,8.27l15.74,9.86c2.49,1.87,5,3.65,7.47,5.52l.09.09c3.64,3.46,7.29,6.84,10.93,10.31,1.42,1.33,2.49,2.84.62,4.53-1.68,1.51-3.2.62-4.62-.8-4.62-4.71-9.42-9.42-15.11-12.89-4.8-4.18-10.58-6.93-15.92-10.22a63.19,63.19,0,0,0-11.55-5.69c-.09-.27-.09-.45-.18-.71.53-2.23-.89-3.47-2.22-4.89C1430.64,384.62,1428.68,384.26,1428.68,382.31Z"/><path class="cls-7" d="M1265,323.81v8.89c-2.58-.36-6.22,1.07-7.38-1.33s3.38-2.23,4.27-4.54C1262.43,325.68,1264,324.79,1265,323.81Z"/><path class="cls-12" d="M1418.73,377.24c.88-.18,1.6-.09,1.77,1C1419.88,377.86,1419.26,377.51,1418.73,377.24Z"/><path class="cls-9" d="M1426.9,381.51a2.15,2.15,0,0,1,1.87.8C1428,382.31,1427.26,382.22,1426.9,381.51Z"/><path class="cls-10" d="M1190.42,345.41c-.44,5.69.45,11.38.89,17C1188,356.88,1186.51,351.28,1190.42,345.41Z"/><path class="cls-10" d="M1193,365.42c.89.26.8,1.06,1,1.77C1193.62,366.66,1193.36,366,1193,365.42Z"/><path class="cls-10" d="M1192.11,363.64c.89.35.89,1.07,1,1.87A1.59,1.59,0,0,1,1192.11,363.64Z"/><path class="cls-10" d="M1194,367.19a9.2,9.2,0,0,0,.89,1.16A8.35,8.35,0,0,1,1194,367.19Z"/><path class="cls-8" d="M1191.31,343.28c-.27.36-.53.62-.8,1A9.37,9.37,0,0,1,1191.31,343.28Z"/><path class="cls-10" d="M1191.31,362.57a13,13,0,0,1,.89,1.16C1191.49,363.64,1191.4,363.19,1191.31,362.57Z"/><path class="cls-7" d="M1210.78,385.42c.27.44.62.89.89,1.33C1211,386.66,1210.69,386.13,1210.78,385.42Z"/><path class="cls-7" d="M1434.11,391.29a57.36,57.36,0,0,1,11.55,5.69c-.44,3.2-.8,6.49-2.57,9.33-10-3.55-19.83-7.11-29.79-10.67,5.16,0,10.32.09,15.38,0C1431.53,395.64,1434,394.84,1434.11,391.29Z"/><path class="cls-13" d="M1443.09,406.31c1.77-2.84,2.13-6.13,2.57-9.33,5.34,3.29,11.12,6,15.92,10.22-.36,3,2,5.51,1.78,8.45C1456.6,412.62,1449.84,409.42,1443.09,406.31Z"/><path class="cls-6" d="M1469.67,406.05h0c-1.6-5.87-3.11-11.65-4.63-17.43v-4.89c0-1.07.36-2.22-.71-3.11-.09-.53-.26-1.16-.35-1.69,2.22-2,.8-4.71,1.15-7s-.71-5,.71-7.29c1.87,9.06,3.65,18.13,5.52,27.11a58.06,58.06,0,0,0,2.31,8C1475.27,404.89,1474.91,405.51,1469.67,406.05Z"/><path class="cls-12" d="M1465,383.64v4.89c-1,3.91-2,7.91-2.93,11.83l-15.74-9.87a124.81,124.81,0,0,0-18.75-37.34c-3.83-5.25-6.85-10.85-8-17.52s.54-11.82,4.81-16.62l1.6.27c7.55,4.89,15.11,9.86,21.24,16.53,10.58,11.47,14.41,25.52,16.1,40.45.08.89-.18,1.78.62,2.49.09.54.26,1.16.35,1.69C1464.24,381.69,1464.16,382.75,1465,383.64Z"/><path class="cls-13" d="M1396.32,307.54c-5,2.49-9.42.62-14-1.42-6.58-2.76-13.43-5-20.19-7.38A134.72,134.72,0,0,1,1396.32,307.54Z"/><path class="cls-7" d="M1462.11,400.44c1-3.91,2-7.91,2.93-11.82q2.28,8.67,4.54,17.34C1467.09,404.09,1464.6,402.31,1462.11,400.44Z"/><path class="cls-8" d="M1465,383.64a3.63,3.63,0,0,1-.71-3.11C1465.4,381.42,1465,382.58,1465,383.64Z"/><path class="cls-5" d="M369.85,481.11h18.91c-4.51,3.72-8.33,6.47-12.74,8.43C375,485.91,371.81,484,369.85,481.11Z"/><path class="cls-14" d="M300.27,523.15c13.72-3.33,27.54-6.18,41-10.49A257.08,257.08,0,0,0,378,497.18c-.39,14-9.8,24.3-24.6,25.09C335.65,523.05,317.91,522.85,300.27,523.15Z"/><path class="cls-15" d="M177.68,543c.62,10.51.3,21.33-2.38,31.55-2.71,10.37-7.06,20.2-11,30.11-4.7,11.75,15.15,20.18,20.56,8.67a203.21,203.21,0,0,0,17.8-61.05l-23.46,3.18A282.49,282.49,0,0,0,205,611l7.39-18.16a85.52,85.52,0,0,1-25,5.65v25.34a150.9,150.9,0,0,0,34.14-6.64,13.29,13.29,0,0,0,9.08-16l-8.6-34.86L197.59,576.6q7.86,11.45,15.82,22.83L234.71,583a109.34,109.34,0,0,1-25.17-43c-2.55-8.44-3.22-17.47-6.27-25.74-3.82-10.37-10.72-16.76-18.69-23.94A123.76,123.76,0,0,1,154.85,451a88.39,88.39,0,0,1-4.26-9.66q-2.39-6.3-4.16-12.82c-2.63-9.66-3.11-20.76-10.68-28.22-8.09-8-20.6-10.33-31.31-6.75-11.93,4-19.55,13.42-26.87,23.08-4.33,5.73-1.4,17,5.19,19.8a127.22,127.22,0,0,0,42.6,10.44c9.18.6,16.77-9.78,14-18.35a86.75,86.75,0,0,1-4.8-30.61,82.28,82.28,0,0,1,1.27-14q.8-4.2,1.93-8.32c.38-1.36.79-2.71,1.22-4.06.09-.26,1-3.11.57-1.94.41-1,1-2,1.47-2.93,2-3.94-.52.21.72-1.3.67-.8,1.44-1.47,2.16-2.21,1.82-1.85-.88.4.46-.32.88-.47,1.77-1,2.63-1.51,2.19-1.27-.94,0,.51-.21,1.8-.24,3.64-1.12,5.44-1.49,0,0,3.77-.57,1.9-.36s1.63-.11,2-.13c2.21-.15,4.43-.19,6.64-.16,4.4.05,8.78.4,13.16.85L169.34,333a76.44,76.44,0,0,1-33.54,6.37l14.38,14.38c-.08-.89.38-4.07-.29-1.45.16-.63.79-4.24.41-1.49l.68-1.15q-1.2,1.35-.21.21a20.49,20.49,0,0,1,2.42-2.42c-1.9,1.6,1.4-.75,1.61-.88,2.59-1.49-1.24.07,2.21-.81a21.69,21.69,0,0,1,6.13-1,124.81,124.81,0,0,1,17.5.77c2.63.25,5.25.53,7.88.87-2.13-.27-.3,0,.81.14,1.32.21,2.64.42,3.95.66a129,129,0,0,1,14.24,3.34c2.29.69,4.55,1.48,6.79,2.32,2.87,1.07-1.66-.92,1.31.57.95.48,1.91.91,2.86,1.4a63.62,63.62,0,0,1,6,3.5c.55.37,3.48,2.57,1.1.67.8.64,1.59,1.32,2.35,2a56,56,0,0,1,4.72,4.9c-2-2.3.5.75.74,1.1.71,1.07,1.35,2.17,2,3.28l19.83-19.83C228.92,337.38,201,328,172,323.59l6.51,24.68c-1.93,1.62,2.34-1.4,2.81-1.71,1.57-.75,1.68-.84.31-.28.88-.34,1.77-.65,2.67-.92.54-.16,6-1.29,3-.88a34.32,34.32,0,0,1,4.29-.27,41,41,0,0,1,5.76.29c-2.87-.38,2.63.69,3.17.83a43.06,43.06,0,0,1,5.61,1.9c-2.1-.91,1.65.88,2,1.08,11.77,6.16,24.16,17.47,30.39,28.51.31.54,2,4.69,1.31,2.56.24.72,1.43,6.54,1,2.93a34.69,34.69,0,0,1,.17,5.1c0,.48-.49,4.95-.22,3.22s-.57,2.81-.67,3.27c-.38,1.75-.82,3.49-1.27,5.23-.86,3.26-1.83,6.5-2.73,9.75-4,14.42-6.39,30.74,3,43.74,4.89,6.77,12.45,9.15,20.16,5.28,11.72-5.87,21-14.52,28.95-24.82,5.26-6.84.38-15.92-5.3-20.22-13.87-10.5-31.13.12-41.39,10.31a194.56,194.56,0,0,0-24.94,30.63,190,190,0,0,0-28.43,70.93l28.52,7.86a304.74,304.74,0,0,1,11-44.55,263.8,263.8,0,0,1,17-40.34H219.12c-1.1-2.49-.14.42.07.88.61,1.34.21-2.09.09.52,0,.4-.17,3.92,0,1.86s-.46,1.75-.48,1.84c-.23.84-.52,1.67-.82,2.5.93-2.57-.18.21-.47.75-.55,1-1.13,2-1.76,3-.18.28-2.3,3.12-1.33,1.93s-1.7,1.85-1.63,1.78c-.66.7-1.34,1.39-2,2.06-1,1-2.13,2-3.23,2.92-.63.54-1.69,1.26-.42.35-1.93,1.38-3.92,2.59-6,3.81-1.58.94-1.4.1-.37.52,3.36,1.39,3.38.69,6.56,3.62-.82-.76-.76-1.55-.18,0-.41-1.1-.71-2.24-1-3.36-.82-2.9-1.55-5.82-2.24-8.74q-2-8.34-3.29-16.82a220.55,220.55,0,0,1-2.19-33.8c.05-7.74-6.85-15.15-14.79-14.79-8.42.37-14.28,6.5-14.79,14.79-1.35,21.84-2.75,43.68-4.32,65.51l28.08-7.61a119.68,119.68,0,0,1-16.87-40c-.87-3.67-1.58-7.37-2.17-11.09-.17-1.1-.17-1.07,0,.09-.14-1.06-.26-2.13-.38-3.2q-.28-2.81-.47-5.63A152,152,0,0,1,173.1,388h-31a417.72,417.72,0,0,1-8.58,55.4h29.71c-1.55-5.66-2.91-11.36-4-17.13a149.89,149.89,0,0,1-2.34-15.94,225.63,225.63,0,0,1-.52-36l-26.05,10.79q1.71,2,.33.21.84,1.14,1.62,2.34a51.16,51.16,0,0,1,2.78,5c1.9,3.8-.62-2.45.61,1.62.55,1.82,1,3.66,1.51,5.49q.47,2.73.14.14c.12.94.21,1.89.27,2.84.09,1.42.12,2.84.08,4.27,0,.95-.09,1.89-.17,2.84.29-1.73.27-1.68,0,.15s-.84,3.69-1.41,5.51l29.61,8.16a101.34,101.34,0,0,1,3.88-13.88c.43-1.19.87-2.38,1.35-3.55-.62,1.52-.1.26.27-.51,1.09-2.29,2.21-4.56,3.45-6.77A89.87,89.87,0,0,1,182,387.43c-1.42,1.83.67-.73.93-1,.82-1,1.66-1.92,2.51-2.85,1.72-1.86,3.51-3.64,5.36-5.38l-24.11-3.11a58.17,58.17,0,0,1,2.9,5.18c-1.2-2.45.93,2.64,1.11,3.25.43,1.43.73,2.87,1.08,4.32.31,1.84.35,1.95.13.32.11,1,.18,2,.23,3,.1,2,0,4-.06,5.95-.06,3.2.58-1.6-.22,1.8-.46,1.93-.87,3.85-1.49,5.74-.31.94-.64,1.87-1,2.79q.84-2.1-.31.38l28.06,3.67c-.29-1.89-.35-2.14-.17-.75-.13-1.08-.24-2.16-.32-3.24-.13-1.63-.21-3.26-.24-4.88a100.69,100.69,0,0,1,.49-11c-.12,1,0,.57.22-1.18.19-1.07.4-2.14.63-3.2q.6-2.79,1.4-5.53t1.76-5.42c.37-1,.75-2,1.16-3q-.72,1.74.42-.81l-28-3.66a160.27,160.27,0,0,1,2.3,35.15c-.22,5.37-.86,12.48-1.42,16a191.41,191.41,0,0,1-4,18.83l30.24,4.09a87.54,87.54,0,0,1-.5-14.75c.07-1.29.18-2.58.3-3.88.09-1,.3-2.2,0-.51.39-2.56.91-5.11,1.54-7.62q.86-3.4,2-6.72c.42-1.23.87-2.45,1.33-3.66.3-.77.94-2.09.24-.58a91.42,91.42,0,0,1,7.71-13.49l-28.58-3.74a122.21,122.21,0,0,1,4.42,16.27c.27,1.38.5,2.77.72,4.15.49,3-.33-3.66.24,1.67.3,2.8.52,5.6.63,8.41a118.85,118.85,0,0,1-.45,16c-.07.73-.45,3.79-.15,1.67-.19,1.39-.44,2.77-.69,4.15-.56,3-1.26,6.06-2,9h30.48c-.48-2.88-.06.52-.2-1.22-.1-1.3-.26-2.59-.34-3.89-.15-2.35-.2-4.69-.16-7s.22-4.69.39-7c.22-2.91-.19.49.13-1.22.19-1,.34-2.06.54-3.08a112.84,112.84,0,0,1,4-14.3c.87-2.58-.18.21.48-1.27.42-1,.86-1.89,1.32-2.83q1.72-3.51,3.76-6.86c.16-.27,1.88-3,.8-1.46-1.34,1.88,1.47-1.34,1.49-1.44-.43,1.9-7.51,2-8.71,1.84q-8.62-11.93-7-6.26c.21.89.21.81,0-.23-.11-2.43-.14,1.59-.15,2,0,1.06-.09,2.12-.17,3.18,0-.09-.52,4.26-.25,2.62.29-1.79-.46,2.23-.54,2.58a71.18,71.18,0,0,1-1.84,6.92c-.4,1.27-.84,2.52-1.31,3.76-.3.82-.94,2.13-.23.59a73.78,73.78,0,0,1-3.7,7c-.54.91-1.11,1.81-1.69,2.69,0,0-2.89,4-1.25,1.91l27.37,11.33c.09-3.5.36-7,.63-10.47a9.51,9.51,0,0,1,.31-2.67c.32-2,.67-4,1.08-6a136.55,136.55,0,0,1,6.09-21l-31.63-4.28a237.93,237.93,0,0,1-8.47,61.24l29.63-3.87c.94,2.22-.95-2.52-.92-2.44-.4-1.07-.79-2.13-1.16-3.21-1-2.94-2-5.93-2.8-8.93a149.35,149.35,0,0,1-3.74-17.48c.34,2.24-.09-.77-.18-1.59-.16-1.41-.29-2.82-.41-4.24-.23-2.83-.37-5.66-.44-8.5a151.85,151.85,0,0,1,.8-18.71H187.75c1.87,15.78,1.93,31.65,1.39,47.51-.25,7.26-.41,14.57-1,21.81-.06.8-.14,1.59-.23,2.39q-.33,2.78.11-.74a13.24,13.24,0,0,1-.64,3.62c-.54,2.57-1.3,5.05-2.09,7.55-1.24,3.95,1.25-1.74-.4.87-.58.93-1.12,1.92-1.68,2.87-1.68,2.82,2.35-2-.11,0-.49.49-1,1-1.54,1.41q2.76-2.06,1.21-1.08c-3.05,2.4,2.45-.7-.46.2s3.29.26-.14,0c-3.81-.3,3.61,1,0,0-3.08-.86,3.05,1.85-.49-.23s1.46,1.94-.62-.41c-.76-.85-1.59-1.68-2.38-2.5,2.77,2.86.33.41-.28-.52-.79-1.21-1.52-2.46-2.21-3.74s-1.31-2.64-2-4c1.2,2.51.31.76-.26-.79-1-2.72-1.84-5.48-2.6-8.27-4.16-15.46-27.81-15.9-31.74,0-4.84,19.51-1.52,41.42,10.16,58,5.5,7.8,12.1,13.41,19.19,19.62,1.72,1.51,3.41,3.05,5,4.69.62.64,1.2,1.3,1.81,1.95,2.05,2.17-.53-1.42.13.15a9.74,9.74,0,0,0,1.24,2c1.34,1.48-1.22-3-.17-.29.78,2.07-.16-.19-.15-1.16.46-2.38.55-2.93.25-1.65s-.09.77.67-1.15c-3.49,7.91-2.58,18.17,5.94,22.67,7.19,3.8,18.94,2.52,22.67-5.94,4.92-11.17,4.49-22.74-3-32.75-5.81-7.83-13.19-13.32-20.31-19.83-1.55-1.42-2.86-3.07-4.37-4.52-1.71-1.64,2,3-.42-.51-.53-.77-1.06-1.53-1.56-2.32a63.74,63.74,0,0,1-3.35-6.13c-.74-1.5-.42-1.34,0,.08-.34-1.11-.79-2.19-1.14-3.31-.7-2.24-1.06-4.53-1.66-6.79s.23,3.83-.08-.47c-.07-.93-.14-1.85-.18-2.79a60,60,0,0,1,.17-7c.13-1.85.3-1.18,0,.22.33-1.35.55-2.74.88-4.1H139.66c4.07,15,11.27,31,25,39.56,16.18,10.06,36.36,3.75,46.55-11.43,8.7-12.95,9.58-29.32,10.23-44.38.85-19.51,1.28-39.07-1.05-58.5-1-8.44-6.78-16.74-16.32-16.31s-15.39,7.19-16.31,16.31c-2.81,28,2.44,55.7,13.48,81.46,2.5,5.82,10.5,8.5,16.15,7.74A16.16,16.16,0,0,0,230.86,463a291.61,291.61,0,0,0,9.41-69.86,16.09,16.09,0,0,0-14-15.82c-8.34-1.12-14.83,3.92-17.67,11.54a149.75,149.75,0,0,0-9.11,48.68c-.15,6.37,4.15,12.24,9.85,14.65,5.32,2.24,13.64,1.67,17.51-3.32,10.66-13.71,17.38-28.73,19.55-46,1-7.91,1.4-16.5-2.55-23.74-5.78-10.58-18.91-13.86-29.35-8.34-13.43,7.1-20.53,25.86-24.3,39.67-4.24,15.52-4.51,31.39-1.85,47.17,1.1,6.51,8.85,11.89,15.24,11.61,6.89-.31,13.46-4.67,15.24-11.61a134.8,134.8,0,0,0-3-78.09c-4.58-13-20.83-15.15-28.58-3.73a99.72,99.72,0,0,0-16.41,67c.95,7.7,5.14,14,13.35,15.12,7.38,1,15-3.55,16.89-11,7.22-28.36,7.84-57.49,2.9-86.27-2.17-12.69-22.46-15.12-27.95-3.65a102.33,102.33,0,0,0-8.55,62.61c2.2,12.88,22.41,15,28.06,3.67,10.07-20.18,9.77-44.38-2.36-63.69a15.57,15.57,0,0,0-24.11-3.1,113.41,113.41,0,0,0-33.12,59c-1.62,7.84,2.28,17,10.72,18.89a15.69,15.69,0,0,0,18.89-10.73c6.51-21.13.7-43.73-13.76-60.11-4-4.55-11.38-5.39-16.67-3.16-5.84,2.47-8.93,7.74-9.38,13.95a234,234,0,0,0,7.69,77.28c3.85,14.26,26.32,15.09,29.71,0A496.57,496.57,0,0,0,173.1,388c.74-8.11-7.67-15.88-15.53-15.53-9,.41-14.72,6.84-15.52,15.53-3.18,34.3,6.14,69.5,24.58,98.46,8.17,12.84,27.31,7.37,28.08-7.61q1.68-32.76,3.76-65.51H168.89a251.6,251.6,0,0,0,4.82,50.55c3,15.31,7.21,38.72,27.57,38.15,15.37-.42,29.89-14,38.44-25.73,9.58-13.13,11.49-28.68,4.94-43.49-4.47-10.1-20.8-9.22-25.54,0a317.09,317.09,0,0,0-30.94,92c-1.29,7.6,2,16.3,10.33,18.19,7.22,1.65,16.74-2.18,18.19-10.33,3.91-21.86,10.36-39.13,21.38-57.42q3.93-6.53,8.41-12.7c.89-1.23,1.79-2.46,2.73-3.66-1.17,1.5.59-.7,1-1.18,1.6-2,3.25-3.9,4.93-5.8a146.77,146.77,0,0,1,11.1-11.35c2.76-2.5-1.6.67,1.72-1.19a22.73,22.73,0,0,1,2.57-1.39c-1.14.49-1.22.59-.25.29s.87-.25-.68.06c-1.05-.16-4-1.67-1.58.13l-5.3-20.22c.92-1.2-.28.28-.6.63-.86,1-1.72,1.92-2.62,2.85a69.14,69.14,0,0,1-5.11,4.72c1.15-1-.29.25-.69.53-.84.6-1.69,1.19-2.55,1.75a70.85,70.85,0,0,1-6.73,3.81l20.16,5.29c-.73-1-1.33-2.06-2-3.1s-.33-2.05.08.28c-.1-.57-.38-1.1-.48-1.67s-.23-1.15-.38-1.69c.09.32,0,2.58.19,1,.14-1.33-.1-2.79,0-4.15,0-.6.14-1.22.15-1.82,0-2.18-.54,2.38,0,.22.3-1.24.48-2.52.76-3.76.68-3,1.51-6,2.34-9,3.57-12.73,6.82-25.71,3.9-38.93-3.19-14.47-14.25-26.41-24.73-36.25s-23.15-18.78-37.45-22.27c-17.58-4.28-35.38-.86-49.34,10.74-8.08,6.71-4.13,23,6.51,24.68,26.69,4.15,53,12,76.44,23.38,5.85,2.85,12.77,2.53,17.56-2.26a14.82,14.82,0,0,0,2.27-17.57c-13.37-23.17-39.46-33.23-64.73-37-14.71-2.17-30.82-4.65-45.44-.81-15.77,4.14-30.26,18.6-28.77,35.9.68,7.91,6,14.16,14.38,14.38,16.79.45,32.86-3.32,48.08-10.24,5.72-2.6,8.19-10.59,6.62-16.28-1.79-6.52-7.51-9.92-13.89-10.58-22.48-2.29-49.72-.23-61.32,22.54-12.59,24.67-12.29,56.82-3.9,82.69l14-18.35a95.82,95.82,0,0,1-28-6.44l5.19,19.8c.6-.8,1.18-1.62,1.8-2.4-1.16,1.47.42-.48.55-.63,1.32-1.51,2.61-3,4.06-4.41a23,23,0,0,1,2.22-2c-.31.22-1.24.9.1.1.37-.22,3.11-1.62,1.37-.87s1.54-.34,1.87-.46c-3,1.11-.49-.5,0,.05-.11-.13,3.77.57-.08-.22a16.07,16.07,0,0,1,2.36.62c-.72-.26-2.17-1.21-.2.19-.29-.21-1.31-.6-1.35-1-.14-1.51.58,2,.25.69.17.69.84,4,1.2,5.73a155.69,155.69,0,0,0,49.83,85c2.87,2.47,5.95,4.81,8.41,7.71a28.19,28.19,0,0,1,1.64,2.59,53.42,53.42,0,0,1,1.72,5.72c2,8.12,3.35,16.23,6.15,24.14a139,139,0,0,0,31.12,50.41,13.55,13.55,0,0,0,17.8,1.06c4.89-3.9,7.46-11.89,3.5-17.49-5.36-7.57-10.71-15.13-16.12-22.66-3.88-5.41-10.25-8.32-16.72-5.48a13.42,13.42,0,0,0-7.75,15.79l9.34,34.67,9.09-16a122.67,122.67,0,0,1-27.23,6.38c-6.81.71-12.67,5.31-12.67,12.67,0,6.41,5.81,13.24,12.67,12.67A107.33,107.33,0,0,0,219,616.64c7-2.84,12.09-10.76,7.39-18.16a243.9,243.9,0,0,1-24.15-49.37c-2-5.58-7-9.47-13.1-8.55-6.3,1-9.65,5.65-10.36,11.73A174.65,174.65,0,0,1,165.41,602L186,610.65c4.12-11.15,5.05-23,4.67-34.85-.37-11.47-1.38-22.79-4.13-34-1.2-4.85-9.13-3.93-8.83,1.19Z"/><path class="cls-14" d="M263,529c-13.55,2.13-23.14-4.42-31.17-14.29,0-.37.1-.74.1-1.1,9.49-14.11,16.23-29.6,22.77-45.18,2.49-.65,5-1.3,7.56-1.94,18.35-4.89,37.25-4.7,56.06-5.44,2.49-.09,5,0,7.47,0-.37.18-.83.28-1.2.46-2.95-3.6-5.53-7.38-8.76-10.6-14.38-14.76-23.69-31.81-26.37-52.47-.92-7.1,2-10.33,10-10.33a28.8,28.8,0,0,1,5,5.63c-.18,2.49,1.57,4.24,2.86,6.08,4,5.63,7.38,11.81,13.83,15.13,3,4.61,7.19,7.83,11.8,10.6A298.47,298.47,0,0,0,359.57,440c8.85,4.15,17.43,9.12,27.11,11.06,3.69.55,6.64,2.86,10.05,4.33,34.39,15,70.9,20,107.88,22,17.42.92,34.94,1.29,52.37,1.85,1.84,2.67,5,4.51,5.9,7.93-10.69,6.82-22.4,11.34-34.39,15.3-23.7,7.84-48.22,12-72.75,15.49s-49,6.18-73.76,6.64c-9.23.19-18.45.19-27.67.28-2.49-.09-5-.09-7.47-.19-1.56,0-3-.09-4.61-.09-5.9-1.38-11.89-.74-17.79-1.29-11.8-1.29-23.7-2.12-35.59-3.23-2.58-.18-5.07-3-7.29-1.47C275.75,522.59,269,525.08,263,529Z"/><path class="cls-5" d="M517.42,465.79c12.08-.73,24.16-1.29,36.24-2.12a127.47,127.47,0,0,0,13.28-1.47c21.94-3.51,42.23,20.28,35,41.31a24.67,24.67,0,0,1-14.48,15.21c-22.13,9.31-45.18,14.48-69,16.87-35.68,3.69-71.09.37-106.5-3.32-5.71-.55-11.61.19-17.42.65-17.06,1.47-34,.18-51-1.48-.46,0-.83-.36-1.29-.46,15.67.1,31.35.92,47-.18a304.9,304.9,0,0,0,44-3.14c19.37-2.85,38.73-6,58.18-8.94,16.69-.28,33.29,0,50-.92,13.92-.74,22.87-10.42,23.14-23.61,6.73-4.33,13.65-8.39,19.55-13.74,1.66-1.47,4.06-2.67,2.86-5.62-1.11-2.58-3.5-2-5.53-2.12-14.57-.28-29.14-.65-43.71-.92-2.86-1.29-6-1.85-9-2.77C524.89,467.91,520.65,468.56,517.42,465.79Z"/><path class="cls-9" d="M232,513.56c0,.36-.1.73-.1,1.1-5.62,8.21-11.24,16.51-16.87,24.71a4.12,4.12,0,0,0-1,3.42c2.49,12.35,6.73,23.69,17.61,31.16,2.95,2,5.53,4.24,10,1.11,3.32-2.31,8.48-2.31,12.44-4.24,2.22-1.11,4.43-2.22,6.55-3.42,1.75-1,3.6-1.56,4.8.46A3.5,3.5,0,0,1,264,573a61,61,0,0,1-14.56,6.64c-1.11.37-2.86,0-2.95,1.66-.37,4.79-3.51,3.78-6.37,3.22-13.92-2.95-22.59-12.17-27.57-24.61-2.76-6.83-4.51-12-13.73-12-7.29-.09-13.65-5.44-20.66-9.41a284.67,284.67,0,0,1-2.95,41.59c4.43-1.29,8.3-2.49,12.26-3.6,1.94-.55,4.15-.92,4.89,1.75s-.64,4-3,4.61c-4.15,1.2-8.21,2.49-12.36,3.6a4.81,4.81,0,0,0-4,4.33c-.74,4.34-2,8.67-2.95,13-.46,2.13-1.2,4.06-3.78,3.51-2.86-.65-3.23-2.86-2.58-5.44,1-3.69,2.3-7.29,2.39-11.16-6,1.2-10.79,4.8-16.5,5.81.27-2.21.55-4.43.83-6.73.09-.18.09-.46.18-.65,3.23-1.29,6.46-2.58,9.59-3.87.55-.09,1.29,0,1.48-.74l-.1.1c5.08-.37,7.57-2.86,7.47-8.12-.09-2.4,1.11-4.79.65-7.19,1.47-6.92,1.29-13.92,1.66-20.93.09-1.84.18-3.6.18-5.44,0-5.44.28-11-6.27-13.28A136.05,136.05,0,0,1,141.5,503.6C134,492.9,128.69,481.1,123,469.39c-.92-3.5-1.75-7.1-3-10.51-1.29-3.6-3.69-5.17-8.11-4.7-7.56.83-14.85-.28-20.57-6.37a92.72,92.72,0,0,1-7-8.94c-.46-1.75-1-3.5-1.39-5.35-2-8.76,2.59-15.21,11.53-15.86a83.41,83.41,0,0,1,9.59.19c.83.37,1.66.73,2.49,1,2.58.92,5.44,1.94,4.06,5.35s-4,1.66-6.27.74c-5.54-2.12-8.49-.56-9.5,5.44-.65,4.15-2.21,8.94,1.38,12.17a21.06,21.06,0,0,0,16.23,5.25c10.23-1,11.62-.37,14.75,9.41a41.29,41.29,0,0,1,1.29,4.89c1.85,9.58,6.09,18.25,10.61,26.73C152,512.91,172.85,528,196.83,539.56a24.32,24.32,0,0,0,6.08,1.84c2.68.56,4-.55,3.78-3.5-.27-3.51-.37-7-.46-10.61a2.66,2.66,0,0,1,2.77-3,3.34,3.34,0,0,1,3.59,2.31c.37,1-.46,2.49,1.29,3.32,4.62-7,9.23-14,13.93-21C230.3,509.31,229.38,513,232,513.56Z"/><path class="cls-16" d="M54.74,313.38c7.19-11.9,14-24.16,23-34.95C80.37,275.3,83,272,85.81,269c1.85-1.85,3.23-5.26,7.1-2.95.92.55,1.48-.74,2-1.48C112.46,240.72,135.79,224.86,163,214c1.38-.55,2.67-1.38,4-2a17.06,17.06,0,0,0,2.22-.18c14-5,28.49-8,43.15-10.42,18.63-2,37.25-2.77,55.51,3,3.78,1.2,7.56,2.4,10.79,4.7-1.3,2.22-4.8,1.2-5.63,4.06-.55-.09-1.2-.18-1.75-.28-15.68-7-32.09-7.74-48.87-5.62-15,.83-29.69,4.06-44.07,8.48-30.52,9.5-57,25.08-76.72,50.9-1.84,2.4-3,6.64-7.84,3.87-.55-.37-1.93,1.2-2.3,2.4a7.28,7.28,0,0,1-.92.74h.09c-.65.46-1.38.83-1.11,1.84l.09-.09c-7.83,6.92-13.83,15.31-19.36,24.07h0c-.28.36-.64.64-.92,1l.09-.09c-.28.55-.55,1.1-.83,1.75a4.11,4.11,0,0,0-1.2,1.29,225.14,225.14,0,0,0-25.81,52.65c-7.57,23-10.15,46-4.52,70.08,6.64,28.3,27,47.39,43.7,69.06l3.78,4.33c-3,.28-6.82-2.58-8.66,2.21-3.51-5-6.83-10.14-11.71-13.92-.1-.64-.37-1-1.11-1h0c0-1.76-1.57-2.49-2.4-3.78-6.45-10.15-15.95-18-20.38-30-4-10.88-8.66-21.48-11.43-32.73-.74-6.73-1.94-13.47-1.94-20.2.19-3.68.28-7.37.65-11,1.84-17.52,7.84-33.84,15-49.79,3.78-8.3,7.65-16.6,11.43-24.9h0C54.55,314.39,54.74,313.93,54.74,313.38Z"/><path class="cls-17" d="M537.71,471.88c14.57.28,29.14.64,43.71.92,2.12,0,4.51-.46,5.53,2.12,1.2,2.86-1.2,4.06-2.86,5.63-6,5.34-12.91,9.4-19.55,13.74A242.88,242.88,0,0,1,530,508.85c-12.63,4.06-25.63,6.73-38.54,9.87-19.36,2.95-38.72,6.09-58.18,8.94a305,305,0,0,1-44,3.14,1.82,1.82,0,0,0-1.84-1.66L358,526.37c-1.38-.09-3.23.65-3.78-1.56,9.22-.1,18.44-.1,27.66-.28,24.71-.46,49.33-3.14,73.77-6.64,24.62-3.6,49.05-7.65,72.75-15.49,12-4,23.69-8.48,34.39-15.31a52.48,52.48,0,0,0,12-7.93H557c-17.43-.64-35-.92-52.37-1.84-37.07-2-73.49-7-107.88-22-3.32-1.47-6.27-3.78-10-4.33-3.23-1.57-6.64-2.77-9.31-5.26,3.32-.83,6.27.93,9.4,1.57,3.6.65,6.92,2.95,10.88,1.75,3.41,1.29,6.73,2.58,10.14,3.88,1.2.55,2.4,1.29,3.69,1.75,27,10.23,55.23,14.1,83.73,16.32C509.31,472.06,523.51,471.79,537.71,471.88Z"/><path class="cls-9" d="M397.65,448.92c-3.87,1.2-7.28-1.11-10.88-1.75-3.14-.55-6-2.4-9.41-1.57-5.62-2-10.41-5.53-15.39-8.76-13.83-8.76-27.57-17.52-40.3-27.94-1.56-1.29-2.76-3.22-5.07-3.69v.1a3.17,3.17,0,0,0-.37-1c-4-3.59-7.93-7.19-11.8-10.88a25.67,25.67,0,0,0-4.89-5.62c-.55-.74-.92-1.57-1.56-2.31-16.42-19.54-25.36-41.67-22.87-67.68a17.39,17.39,0,0,1,2.67-8.48l-.09.09a7.83,7.83,0,0,1,1.57.1c4.24.64,2.95,3.87,3,6.45-2.12,10.33-1,20.47,1.94,30.43,3.41,11.52,8.2,22.31,16.5,31.26h0a1.74,1.74,0,0,0,.92,1.84c13.28,17.61,30.34,31,48.5,43.06C365.38,432.78,381.51,440.81,397.65,448.92Z"/><path class="cls-5" d="M88.85,618.58c-2.48-29.32-5.07-58.64-7.56-87.87-.64-7-1.75-14-1.66-21,3,4.06,4.34,8.86,6.92,13.1,5.16,13.64,9.68,27.47,11,42.13C99.18,583.45,97.25,601.52,88.85,618.58Z"/><path class="cls-16" d="M88.85,618.58c8.4-17.06,10.24-35.13,8.67-53.76-1.29-14.66-5.81-28.49-11-42.14,2.21-.18,2.86,1.76,3.6,3.05,1.93,3.32,3.31,6.91,5.25,10.14,1.75,3,1.94,6.73,5.07,8.85,1,4.24,1.94,8.58,3,12.82.28,4.06.74,8.2.93,12.26,1,16.69-1.94,32.83-7.57,48.41-.09.37-.27.64-.36,1a3.9,3.9,0,0,1,1-.18c4.7-2.95,9.4-6,14.11-8.95,1.84,1.11,3.69,2.31,4,4.8-6.64,5.07-14,9-20.19,14.66-2.49,1.84-4.89,3.6-7.38,5.53-1.66,1.2-3.32,1.75-5,.28s-1.1-3.23-.18-5C85,626.6,87.66,622.91,88.85,618.58Z"/><path class="cls-14" d="M537.71,471.88c-14.2-.09-28.4.18-42.6-1-28.58-2.22-56.8-6.18-83.72-16.33-1.29-.46-2.4-1.19-3.69-1.75,15.77,2.95,31.35,6.83,47.39,8.21,20.75,1.75,41.5,3.23,62.24,4.79,3.23,2.77,7.56,2.22,11.34,3.32C531.72,470,534.85,470.59,537.71,471.88Z"/><path class="cls-17" d="M100.56,544.72c-3.13-2.12-3.31-5.9-5.07-8.85-1.93-3.23-3.41-6.82-5.25-10.14-.74-1.29-1.39-3.23-3.6-3.05-2.49-4.24-4-9-6.91-13.09-.93-2.86-3.42-5-4-8,1.85-4.8,5.72-1.84,8.67-2.21a6.26,6.26,0,0,1,1.29.37c.46,1.56,1.84,2.39,3,3.41,12,10.23,24.07,20.37,36.14,30.61,1.76,1.47,3.88,2.58,4,5.35-1.48,3.59-3.6,3.69-6.45,1.38-4.25-3.5-8.58-6.92-12.91-10.42-6.18-5.07-12.27-10.23-18.35-15.4C94.76,524.62,97.8,534.67,100.56,544.72Z"/><path class="cls-16" d="M354.31,524.81c.56,2.21,2.4,1.38,3.78,1.56l29.42,2.77a1.81,1.81,0,0,1,1.84,1.66c-15.67,1.2-31.35.28-47,.18l-49.52-3.87c-5.62-1.84-6-2.49-4-7.1,11.89,1,23.69,1.94,35.59,3.23,5.9.64,12-.09,17.79,1.29,1.48,1.38,3,1.29,4.61.09C349.33,524.62,351.82,524.71,354.31,524.81Z"/><path class="cls-17" d="M273.08,213.15c.83-2.86,4.33-1.84,5.63-4.06.55.1,1.1.19,1.75.37,11.8,7.1,20.56,16.78,25.54,29.79,2.58,6.73,3.23,13.64,3.87,20.65-.37,2.49-.74,4.89-1.11,7.38-1.84.46-1.93,2.21-2.67,3.41-2.21,3.78-4.33,7.56-6.55,11.43-.83,1.48-1.66,2.95-3.78,2.58.65-1.2,1.29-2.39,1.94-3.69,6.27-13.55,7.1-27.29.46-40.93l.09-.19a2.38,2.38,0,0,0-1-2.12l.09.09c-.09-.55-.18-1.1-.92-1h.09c.28-2.21-1.29-3.69-2.3-5.26A57.26,57.26,0,0,0,273.08,213.15Z"/><path class="cls-5" d="M300.83,377.83c-8.29-8.94-13.18-19.73-16.5-31.26-2.95-10-4.06-20.1-1.94-30.43,7.66,11.44,11.07,24.35,13.65,37.53C297.7,361.79,299.27,369.81,300.83,377.83Z"/><path class="cls-5" d="M309.78,259.81c-.65-7-1.29-13.93-3.87-20.66-5-13-13.74-22.68-25.55-29.78,15.68-2.12,24.16,3.32,28.77,18.26A54.74,54.74,0,0,1,309.78,259.81Z"/><path class="cls-17" d="M115.5,614.89c-.27-2.4-2-3.69-4-4.8l.27-.82c9-5,17.8-10,26.74-14.85a25.27,25.27,0,0,0,7.47-3.5c1.48-.46,2.86-.93,4.34-1.39-.28,2.22-.56,4.43-.83,6.73-.65.56-1.2,1.11-1.85,1.66a110.14,110.14,0,0,0-18.53,9.41,10.14,10.14,0,0,0-1,.83v-.09c-4.15,1.38-7.74,3.87-11.15,6.45A6.41,6.41,0,0,1,115.5,614.89Z"/><path class="cls-9" d="M295.76,284.61c2.12.37,2.95-1.11,3.78-2.58,2.22-3.78,4.34-7.65,6.55-11.43.74-1.3.83-3.05,2.67-3.42-2.49,15.86-11,27.85-23.69,37.07-1.75,1.29-3.51,2.49-5.26,3.69-1,.18-1.93.46-2.12,1.66l.09-.09c-3.41-.28-5.9,2.76-9.31,2.67,1-3.5,4.8-3.87,6.92-6.09,2.85-2.95,7.56-4,8.66-8.66l9.13-9.13c2,0,1.94-1.38,1.94-2.86A2.79,2.79,0,0,0,295.76,284.61Z"/><path class="cls-5" d="M129.24,607.33a117.3,117.3,0,0,1,18.53-9.41c-2.39,12.54-13.73,21.76-25,18.44,1-3.31,4.33-5.07,5.44-8.29v.09C128.5,608,128.87,607.61,129.24,607.33Z"/><path class="cls-5" d="M288.94,519.92c-2,4.61-1.66,5.35,4,7.1-9.86,1.66-19.73,3.69-29.78,1.84,6-3.87,12.73-6.27,18.54-10.42C283.87,516.88,286.36,519.73,288.94,519.92Z"/><path class="cls-5" d="M212.41,201.35c-14.66,2.3-29.14,5.35-43.15,10.42A6,6,0,0,1,167,212c13.28-8.76,27.11-15.4,43.8-11.25A7.29,7.29,0,0,1,212.41,201.35Z"/><path class="cls-5" d="M115.5,614.89l1.57-.28c1.38.74,2.67,1.48,4.06,2.22-3.23,4-7.1,7.19-10.88,10.51a13.36,13.36,0,0,1-14.94,2.3C101.49,623.93,108.86,620,115.5,614.89Z"/><path class="cls-14" d="M121.13,616.73c-1.39-.73-2.68-1.47-4.06-2.21,3.5-2.58,7-5.07,11.16-6.45-1.11,3.22-4.43,5-5.44,8.29A10.12,10.12,0,0,1,121.13,616.73Z"/><path class="cls-5" d="M277.69,309.69c.09-1.29,1.11-1.48,2.12-1.66a12.55,12.55,0,0,0-.46,1.75A10.27,10.27,0,0,0,277.69,309.69Z"/><path class="cls-5" d="M301.76,379.67a1.73,1.73,0,0,1-.93-1.84C301.94,378,301.94,378.84,301.76,379.67Z"/><path class="cls-5" d="M268.56,312.27c3.32.09,5.81-2.95,9.32-2.67a16.73,16.73,0,0,0-2.68,8.48c-2.49,26,6.46,48,22.87,67.68.55.74,1,1.47,1.57,2.3-7.93,0-10.79,3.23-10,10.33,2.58,20.56,12,37.71,26.37,52.47,3.23,3.32,5.81,7.1,8.76,10.6.37-.18.83-.28,1.2-.46-2.49,0-5-.09-7.47,0-18.81.74-37.71.55-56.06,5.44-2.49.64-5,1.29-7.56,1.94a27.27,27.27,0,0,1,3.5-8.86l4.15-2.49c9.59-1.38,17.7-5.44,23.88-12.81,9.41-11.25,3.23-30.34-12.72-29.6a2.71,2.71,0,0,1-3.14-2.58c-.64-8.76-2.67-17.43-2.86-26.28-.09-5.35-.27-10.7-.73-16-.37-4.34-1.76-9.32,2.48-13.1,1.11-1,.93-3-.46-3.5-3.78-1.38-2.95-4.43-3.13-7.19a53,53,0,0,0-.74-5.44c-.55-2.95-2.58-2.12-4.15-2.12-2,0-2.21,1.75-2.49,3.22-.27,1.29,1.39,2.49.09,4.34-5-3.23-10.05-6.46-15-9.68-.47,0-.83-.1-.74-.74v.18c-.65-.37-1.29-.64-1.94-1l.09.09c-.37-2.3-2.58-2.67-4.05-3.69-2.59-1.75-6.09-1.66-8.39-3.87,1.84-.55,3.78-1.2,5.62-1.75,9-2.58,18.26-4.89,26.28-10C263,314.21,265.8,313.29,268.56,312.27Z"/><path class="cls-17" d="M258.33,459.52a25.42,25.42,0,0,0-3.51,8.86c-6.54,15.58-13.27,31.07-22.77,45.18-2.67-.56-1.66-4.25-4.24-4.8.18-.55.37-1.2.55-1.75,6-10.05,11.71-20.19,15.58-31.17h-.09c.65,0,.74-.46.74-1,2.86-5.35,4.79-11.16,6.91-16.87.83-2.12,1.39-4.71,4.52-4S258.42,457.22,258.33,459.52Z"/><path class="cls-13" d="M316.6,405.4c2.31.37,3.41,2.3,5.07,3.69C334.4,419.41,348.14,428.27,362,437c5.07,3.22,9.77,6.63,15.39,8.76,2.68,2.48,6.09,3.68,9.32,5.25-9.78-2-18.26-7-27.11-11.06a277.18,277.18,0,0,1-26.65-14.48c-4.61-2.77-8.85-6.09-11.8-10.6C320.47,411.21,317.15,409,316.6,405.4Z"/><path class="cls-5" d="M316.6,405.4c.55,3.6,4,5.81,4.52,9.4-6.45-3.32-9.87-9.49-13.83-15.12-1.29-1.75-3-3.5-2.86-6.08,4,3.59,7.93,7.19,11.8,10.88-.55.55-.55.92.37,1Z"/><path class="cls-17" d="M346.84,524.62a3.23,3.23,0,0,1-4.61-.09C343.8,524.53,345.37,524.53,346.84,524.62Z"/><path class="cls-5" d="M128.69,539c-.09-2.67-2.22-3.87-4-5.34L88.58,503c-1.11-1-2.49-1.84-3-3.41,1-4.42-2.86-3.69-5.07-4.7C64,473.26,43.49,454.18,36.85,425.87c-5.62-24-3-47.12,4.52-70.08a225.37,225.37,0,0,1,25.82-52.65,14.13,14.13,0,0,1,1.2-1.29c.27-.55.55-1.1.82-1.75l-.09.09c.65,0,1.2-.18.92-1h0c2.4.55,3.51-1.11,4.52-2.77,1.39-2.3,2.68-4.88,4.89-6.45,5.16-3.78,7.1-9.59,10-14.75l-.09.09c1-.19.83-1.2,1.1-1.85h-.09a7.15,7.15,0,0,1,.92-.73c.37-1.2,1.75-2.77,2.31-2.4,4.7,2.86,6-1.38,7.83-3.87,19.74-25.82,46.2-41.5,76.72-51,14.29-4.43,28.95-7.66,44.07-8.49a3,3,0,0,0,3.51,1.48c12.35-2.31,24.34,1.2,36.42,2.58,2.12.28,4.61.55,6.27,2.4-.09.46.09,1.1-.19,1.29-6.36,6.45-7.1,14.57-7.19,23-.27,19.36-8.57,33.56-26.18,42.41-18.35,9.32-38.27,12.54-58.09,16.23-25.27,4.7-49.15,12.63-70.26,27.75A136.48,136.48,0,0,0,71.7,361c-2.49,3.87-2.21,7.56.65,10,3.32,2.86,6.18,1.85,9.4-.64,7.47-5.81,14.94-11.8,23.61-15.86.64,6.36-2.12,12-4,17.89a26.51,26.51,0,0,1-2.3,3.87c-2.67,3-1.94,5.16,1.38,6.92.37,1.56-.46,3.87,1.11,4.7,3.23,1.66,2.58,4.42,2.67,7.1q.15,3.18.28,6.36c.09,2.86,1.47,4.24,4.33,4A15.18,15.18,0,0,1,104,417.39c-3.23-.1-6.46-.37-9.59-.19-9,.65-13.56,7.1-11.53,15.86.37,1.75.92,3.5,1.38,5.35a6.76,6.76,0,0,0-4.7,6.36c-.18,2.86-1.84,5.16-3.59,7.29-1.39,1.65-.93,2.48.73,3.5,2.59,1.57,4.61,2.49,7.84.46,6.18-3.87,14.75-3.23,19.55,2,5.25,5.81,12.17,7.84,18.81,10.79,5.72,11.61,11.06,23.42,18.53,34.2a142.23,142.23,0,0,0,23.79,26.1c2.21,6.18,4.7,12.26,6.09,18.72-.37,7-.19,14-1.66,20.93-1.57,5.71-5.63,10.05-8.12,15.3l.09-.09c-.46.28-1,.46-1.47.74-3.23,1.29-6.46,2.58-9.59,3.87C151.92,568.51,142.15,553,128.69,539Z"/><path class="cls-14" d="M128.69,539c13.37,14,23.23,29.51,21.85,49.89-.09.18-.09.46-.18.64-1.48.46-2.86.93-4.34,1.39-4.79-2.49-4.79-2.49-7.47,3.5-8.94,5-17.79,10-26.74,14.85-3.78-8.67-4.33-17.89-4.79-27.21-.37-8.29-.28-16.68-3.6-24.52-1-4.24-1.93-8.58-3-12.82-2.76-10.14-5.71-20.1-9.49-30.24,6.08,5.16,12.26,10.33,18.34,15.4,4.25,3.5,8.58,6.91,12.91,10.42C125.09,542.69,127.21,542.6,128.69,539Zm-18.07,50.26a18.14,18.14,0,0,0,5.34-8.12c1.48-4.15-2.58-3.5-4.52-4.61-1.1-.64-2.58-.27-2.12,1.11C110.43,581.23,109.42,584.92,110.62,589.26Z"/><path class="cls-13" d="M122.88,469.21c-6.64-3-13.56-5-18.81-10.79-4.7-5.17-13.37-5.9-19.55-2-3.23,2-5.25,1.11-7.84-.46-1.66-1-2.12-1.85-.73-3.51,1.75-2.12,3.41-4.42,3.59-7.28a6.75,6.75,0,0,1,4.7-6.36,94.42,94.42,0,0,0,7,8.94c5.72,6,13,7.19,20.56,6.36,4.43-.55,6.73,1.11,8.12,4.71A95.94,95.94,0,0,1,122.88,469.21Z"/><path class="cls-13" d="M171.29,548.23c-1.39-6.46-3.78-12.54-6.09-18.72,6.55,2.3,6.27,7.84,6.27,13.28C171.56,544.63,171.38,546.38,171.29,548.23Z"/><path class="cls-13" d="M161.6,584.46c2.4-5.25,6.55-9.59,8.12-15.3.46,2.49-.74,4.79-.65,7.19C169.17,581.6,166.68,584.09,161.6,584.46Z"/><path class="cls-13" d="M160.13,585.11c.46-.28,1-.46,1.47-.74C161.42,585.11,160.77,585,160.13,585.11Z"/><path class="cls-13" d="M268.56,213.7c-1.66-1.84-4.05-2.21-6.27-2.39-12.08-1.39-24.06-4.89-36.42-2.58-1.57.27-2.67,0-3.5-1.48,16.78-2,33.19-1.38,48.87,5.62a1,1,0,0,0,0,.74C270.41,213.61,269.48,213.61,268.56,213.7Z"/><path class="cls-5" d="M271.24,213.61a1,1,0,0,1,0-.74c.55.1,1.2.19,1.75.28,8.39,4.52,15.67,10.33,20.93,18.44,1,1.57,2.58,3,2.3,5.26A48,48,0,0,1,285.53,226C281.93,220.62,276.22,217.49,271.24,213.61Z"/><path class="cls-13" d="M89.59,275.39c-2.86,5.26-4.79,11.06-10,14.75-2.21,1.66-3.5,4.15-4.88,6.46-1,1.66-2.12,3.32-4.52,2.76C75.76,290.7,81.75,282.31,89.59,275.39Z"/><path class="cls-13" d="M80.65,495.11c2.21,1,6.08.28,5.07,4.71-.46-.09-.83-.28-1.29-.37C83.14,498,81.85,496.5,80.65,495.11Z"/><path class="cls-13" d="M90.61,273.64c-.28.64,0,1.66-1.11,1.84C89.22,274.47,90.05,274.1,90.61,273.64Z"/><path class="cls-13" d="M91.53,272.9a7.28,7.28,0,0,1-.92.74C90.88,273.45,91.16,273.18,91.53,272.9Z"/><path class="cls-13" d="M316.6,405.49c-.92-.09-.83-.46-.37-1A3,3,0,0,1,316.6,405.49Z"/><path class="cls-5" d="M103.42,557.54c3.32,7.84,3.23,16.23,3.6,24.52.46,9.32,1,18.54,4.79,27.21l-.27.82c-4.71,3-9.41,6-14.11,8.95-.18-.28-.46-.46-.65-.74,5.72-15.67,8.67-31.72,7.57-48.41C104.16,565.74,103.79,561.69,103.42,557.54Z"/><path class="cls-5" d="M97.52,619.13a4,4,0,0,1-1,.19c.09-.37.27-.65.37-1A5.14,5.14,0,0,0,97.52,619.13Z"/><path class="cls-14" d="M271.24,213.61c4.88,4,10.69,7,14.38,12.27a44.43,44.43,0,0,0,10.7,10.88h-.1c.28.36.65.64.93,1l-.1-.09a2.2,2.2,0,0,0,1,2.12L298,240a112.35,112.35,0,0,1,0,30.43c-.74,5.26-3.6,10-3.69,15.49l-1.11,2.49-9.13,9.13c-13,9.22-28,12-43.43,13-23.88,1.57-47.57,4.06-70.9,9.31-20.66,4.61-40,11.71-55,27.57-.18.28-.73.19-1.29.37v-2c.1-2.12.65-4.52-2.58-4.88s-3.59,1.84-4.06,4.33a36.78,36.78,0,0,0-.64,7.74c-.28.56-.55,1.2-.83,1.76-8.67,4.05-16.14,10.05-23.61,15.86-3.22,2.49-6.08,3.59-9.4.64-2.86-2.4-3.14-6.18-.65-10a136.59,136.59,0,0,1,34.77-36.88c21.11-15.21,45-23.05,70.26-27.75,19.82-3.69,39.74-6.92,58.09-16.23,17.61-8.85,25.91-23.05,26.18-42.42.09-8.39.83-16.59,7.19-22.95.28-.28.19-.83.19-1.3C269.48,213.61,270.41,213.61,271.24,213.61Z"/><path class="cls-5" d="M294.38,285.81c.09-5.44,2.95-10.14,3.69-15.49a112.35,112.35,0,0,0,0-30.43c6.64,13.74,5.81,27.39-.46,40.94-.56,1.29-1.29,2.4-1.94,3.69a4.16,4.16,0,0,0-.46.92A1.7,1.7,0,0,1,294.38,285.81Z"/><path class="cls-5" d="M298.16,239.8c-.83-.46-.92-1.29-1-2.12A2.63,2.63,0,0,1,298.16,239.8Z"/><path class="cls-5" d="M297.15,237.68c-.28-.37-.65-.65-.93-1C297.05,236.57,297.05,237.22,297.15,237.68Z"/><path class="cls-5" d="M138.55,594.42c2.68-6,2.68-6,7.47-3.5A25.27,25.27,0,0,1,138.55,594.42Z"/><path class="cls-14" d="M129.24,607.33c-.37.28-.64.55-1,.83C128.5,608,128.87,607.61,129.24,607.33Z"/><path class="cls-17" d="M106.19,352.93a36.78,36.78,0,0,1,.64-7.74c.47-2.4.83-4.61,4.06-4.33s2.77,2.67,2.58,4.88v2c.56-.09,1-.09,1.29-.37,14.94-15.86,34.4-23,55-27.57,23.33-5.25,47.12-7.74,70.9-9.31,15.4-1,30.43-3.69,43.43-13-1.1,4.7-5.81,5.81-8.66,8.67-2.22,2.21-5.91,2.58-6.92,6.08-2.77,1-5.53,1.94-8.21,3-5.16.65-10.23,1.29-15.39,1.85-7.84.92-15.68,1.75-23.52,2.58a68.73,68.73,0,0,0-14.93,1.47,132.72,132.72,0,0,1,15.86,5.26c-.28,1.94-1.76,1.75-3.14,1.66-2,0-3.87.18-5.26,1.94-1.19-.28-2.39-.56-3.59-.74-9-3.78-19-3.51-28.31-4.89s-19.55,2.58-28.86,6.36c-9,2.49-17.61,6-24.89,12.08h0c-.37.28-.83.56-1.2.83-1.48.92-2.86,1.94-4.34,2.86-1.75-.18-3.13.92-4.7,1.38C114,349.15,110.8,352.75,106.19,352.93Z"/><path class="cls-17" d="M294.38,285.81l.83-.28c0,1.39.09,2.86-1.94,2.86C293.64,287.56,294,286.64,294.38,285.81Z"/><path class="cls-16" d="M214.07,330.07c1.29-1.75,3.23-2,5.26-1.94,1.29,0,2.85.28,3.13-1.66,1,.19,2,.46,3.14.65,5.07,2.49,10.23,5.07,15.3,7.56l-.09-.09c.37.92,1.2.92,1.94,1v-.18l.73.73c5.07,3.23,10.05,6.46,15,9.68,1.39-1.84-.27-3-.09-4.33.28-1.47.46-3.23,2.49-3.23,1.66,0,3.6-.83,4.15,2.12a53.15,53.15,0,0,1,.74,5.44c.18,2.77-.65,5.81,3.13,7.2a2.08,2.08,0,0,1,.46,3.5c-4.24,3.78-2.95,8.76-2.49,13.09.46,5.35.74,10.7.74,16.05.09,8.85,2.21,17.52,2.86,26.28a2.66,2.66,0,0,0,3.13,2.58c16-.83,22.13,18.35,12.73,29.6-6.18,7.46-14.39,11.52-23.88,12.81-2.49-4.42-1.94-5.71,2.86-7.1a23.21,23.21,0,0,0,7.93-3.32,17,17,0,0,0,10.6-12.26c1.38-6.09-1.38-11-7-12.91-3.59-1-5.44-.09-5.16,4.15a49.21,49.21,0,0,1-.83,9.59,3.35,3.35,0,0,1-4.34,3c-2.39-.46-2.67-2.21-2.12-4.24.74-2.58.56-4.24-2.21-5.9s-1.29-5.07.28-6.83c2.49-2.85,2.21-5.62,1.75-8.85-1.2-7.74-2-15.49-3-23.14-.37-10.6-.65-21.3-.93-31.9a3.42,3.42,0,0,0-1.75-3.42c-2.49-1.38-4.61-3.5-7.37-4.51a137.85,137.85,0,0,0-32.74-17.43C216.84,331.17,215.45,330.62,214.07,330.07Z"/><path class="cls-14" d="M221.45,319.65c7.83-.83,15.67-1.66,23.51-2.58,5.16-.56,10.23-1.2,15.4-1.85-8.12,5.17-17.25,7.47-26.28,10-1.94.56-3.78,1.2-5.63,1.75-.83-.18-1.56-.27-2.39-.46C225.13,323.89,222.09,322.51,221.45,319.65Z"/><path class="cls-13" d="M226,326.56c.83.19,1.57.28,2.4.46,2.4,2.31,5.81,2.13,8.39,3.88,1.48,1,3.69,1.38,4.06,3.69-5.07-2.49-10.24-5.08-15.31-7.57A1,1,0,0,0,226,326.56Z"/><path class="cls-13" d="M242.75,335.51c-.74-.09-1.57-.09-1.94-1A19,19,0,0,0,242.75,335.51Z"/><path class="cls-13" d="M243.48,336.06l-.73-.74C242.65,336,242.93,336.15,243.48,336.06Z"/><path class="cls-5" d="M228.27,506.92c-1.94-11.8,4.79-25.45,15.58-31.17C240,486.82,234.26,497,228.27,506.92Z"/><path class="cls-5" d="M243.85,475.75c.28-.37.46-.64.74-1C244.59,475.38,244.5,475.75,243.85,475.75Z"/><path class="cls-16" d="M106.19,352.93c4.61-.18,7.74-3.78,12-5.07,1.56-.46,2.95-1.56,4.7-1.38-2.86,3.69-7,6.36-8.3,11.16h0c-.74,0-.92.46-.92,1.1a8.56,8.56,0,0,0-2.12,5.35c-1.2,11.9-.92,23.7-.37,35.59.09,2.4.18,4.52-2.21,5.9-2.86.28-4.25-1.1-4.34-4l-.27-6.36c-.1-2.68.55-5.44-2.68-7.1-1.66-.83-.83-3.14-1.11-4.71.28-3.59.65-7.19.93-10.78,1.75-5.81,4.61-11.44,4-17.89A15.85,15.85,0,0,0,106.19,352.93Z"/><path class="cls-13" d="M101.49,372.67c-.28,3.59-.65,7.19-.93,10.78-3.41-1.66-4.14-3.87-1.38-6.91A33.78,33.78,0,0,0,101.49,372.67Z"/><path class="cls-6" d="M186.5,414.8c0-8.11-.09-16.22,0-24.34.09-4,.46-8,3.5-11.15,1.11-1.11,2.4-2.13,4.06-.93s2.31,2.95,1.11,4.43c-2.77,3.32-2.4,7.19-2.31,11,.37,17.15-.64,34.3.92,51.45a11.48,11.48,0,0,1,.1,1.85c0,2.12-.93,3.5-3.14,3.68s-3.13-1.19-3.32-3.41C186.13,436.56,186.22,425.68,186.5,414.8Z"/><path class="cls-11" d="M187.51,472.43a64.67,64.67,0,0,1-22.49-4c-2.4-.92-5.08-1.75-4-5s3.69-2.31,6.09-1.38c13.27,4.88,26.74,4.61,40.2,1,1.47-.37,2.95-1,4.42-1.29,2.22-.37,4.06.18,4.61,2.67s-1,3.23-3,3.78A88.18,88.18,0,0,1,187.51,472.43Z"/><path class="cls-5" d="M153.31,330.81c9.31-3.79,19.54-7.75,28.86-6.37s19.36,1,28.3,4.89c-12.72,1.38-25.45,2.86-38.17,4.24-8.94.92-17.7,2.86-26.55,4.43C147.22,334.4,151.46,333.85,153.31,330.81Z"/><path class="cls-9" d="M126.94,374.33c-3.14,0-5.44.18-6-2.68s1.11-3.87,3.69-4c.46,0,1.11-.1,1.29-.37,3.69-5.35,10-3.78,14.94-5.35s9.4,1.1,13.74,3.13c1.56.74,1.93,2.31,1.66,3.88-.37,1.84-1.85,2.3-3.51,2.39-4.7.28-9.49.19-14.2.74C134.31,372.48,130.25,373.68,126.94,374.33Z"/><path class="cls-6" d="M227.16,369.35c4.8,2.86,11.07.83,14.76,5.9.46.64,1.66.64,2.48,1,2.31.83,5.17,1.48,4.15,4.8a4.88,4.88,0,0,1-6.17,3.32c-7.84-2.22-15.59-4.43-23.52-5.9-2.49-.47-3.32-4.8-1.29-5.35A61,61,0,0,0,227.16,369.35Z"/><path class="cls-5" d="M251,349.15c2.77.93,4.89,3.05,7.38,4.52a3.43,3.43,0,0,1,1.75,3.41c.28,10.61.65,21.3.92,31.91-4-8.49-5.16-17.8-7.19-26.93C253,357.82,252,353.49,251,349.15Z"/><path class="cls-5" d="M276.86,421.35c5.63,1.94,8.3,6.92,7,12.91s-5,10-10.6,12.26A15.81,15.81,0,0,1,277.88,434c3.5-3.59,3-6.36.46-9.86A11.41,11.41,0,0,1,276.86,421.35Z"/><path class="cls-11" d="M224.58,403.09c2.86.74,5.72,1.39,8.11,3.05a3.31,3.31,0,0,1,1.3,4.42,2.9,2.9,0,0,1-4.25,1.48c-2.12-1.39-3.13-.37-4.51,1a2.81,2.81,0,0,1-3.78.19,2.74,2.74,0,0,1-1.39-3.51C221,407.24,220.62,403.74,224.58,403.09Z"/><path class="cls-11" d="M195.26,478.52c2.77.09,4.24,1,4.52,3.23.27,2-.65,3-2.77,3.41-2.86.46-5.72,1.2-8.48,1.84-1.85.37-3.51.09-4.15-1.94s0-3.68,2.21-4.33C189.63,479.81,192.77,479.16,195.26,478.52Z"/><path class="cls-6" d="M138,407.34c-1.75.18-3-.37-3.5-1.85a6.63,6.63,0,0,1,1.1-6,3,3,0,0,1,4.06-.83,5.48,5.48,0,0,0,4.61,1c1.84-.37,3.23.65,3.5,2.68a3.36,3.36,0,0,1-3,4C142.61,406.78,140,406.32,138,407.34Z"/><path class="cls-5" d="M114.58,357.64c1.29-4.8,5.44-7.47,8.3-11.16,1.47-.92,2.86-1.94,4.33-2.86.37-.27.83-.55,1.2-.83h0c3.6.46,6.46-2.3,10.05-1.93-.37.46-.74,1-1.2,1.19a55.26,55.26,0,0,0-19.08,13.74C117.25,356.9,116.24,358,114.58,357.64Z"/><path class="cls-14" d="M138.46,341c-3.59-.46-6.45,2.4-10.05,1.93,7.28-6.08,15.86-9.59,24.9-12.07-1.85,3.13-6.09,3.59-7.47,7.1C143.35,338.92,140.86,339.93,138.46,341Z"/><path class="cls-5" d="M113.66,358.65c0-.64.18-1.11.92-1.11C114.76,358.37,114.3,358.56,113.66,358.65Z"/><path class="cls-5" d="M110.62,589.26c-1.3-4.34-.28-8-1.3-11.62-.46-1.38,1-1.75,2.12-1.11,1.94,1.11,6,.46,4.52,4.61A18.14,18.14,0,0,1,110.62,589.26Z"/><path class="cls-5" d="M226,326.56a1,1,0,0,1-.46.46c-1-.18-2-.46-3.13-.64a138.29,138.29,0,0,0-15.86-5.26,62.62,62.62,0,0,1,14.94-1.47C222.09,322.51,225.13,323.89,226,326.56Z"/><path class="cls-14" d="M128.41,342.88c-.37.28-.83.56-1.2.83A5.09,5.09,0,0,1,128.41,342.88Z"/><path class="cls-4" d="M202.49,328.11c-12.4-1.71-24.2-4.56-36.8-4.18s-25.52,2.85-36.83,8.56C105.39,344.34,93.59,369.14,95,394.84a104.11,104.11,0,0,0,12.47,43.25l4.83-11.85a15.31,15.31,0,0,1-13.51-1.81l-1.93,14.81c11.58-1.79,22.66,2.67,25.74,14.53,1.71,6.56,2.42,13.28,4.75,19.7A79.39,79.39,0,0,0,135.54,490c14.29,21.79,36.73,36.41,58.55,49.78,8.2,5,18.35-7.36,10.52-13.64a191.47,191.47,0,0,1-42.92-47.94l-13.75,10.6c12.69,12.08,25.71,24.36,33.57,40.28,6.72,13.62,8,30.57-.54,43.62l15.94,2.09a85.78,85.78,0,0,1-3.62-31.92c.71-9.93-14.59-11.63-17.11-2.31a114,114,0,0,0-3.91,35c.31,7,9.61,12.17,14.82,6.14A165.9,165.9,0,0,0,197.91,568c5.35-7.73-6.17-15.71-12.59-9.72a143.71,143.71,0,0,0-10.51,11.14l14.82,6.13A97.62,97.62,0,0,1,193,545.22l-17.11-2.32a99,99,0,0,0,4.22,36.56A8.84,8.84,0,0,0,196,581.54c11-16.76,10.27-38.32,2.78-56.3-8.11-19.47-23.47-34.49-38.49-48.79-7-6.68-19.15,1.94-13.75,10.61a198.24,198.24,0,0,0,45.77,51.39l10.52-13.64c-22-13.11-46.49-27.79-58-51.75-6.1-12.68-4.59-27.84-14.31-38.85-9.4-10.66-24.74-12.7-38-10.6-7.3,1.16-7.33,11.45-1.94,14.82a31.29,31.29,0,0,0,26,3.37A8.19,8.19,0,0,0,121.38,430c-12.3-22.91-17.08-55.77,3.47-75.61,9.41-9.08,22.21-13.25,34.78-15.66,6.71-1.28,13.47-1.83,20.2-2.9a172.45,172.45,0,0,1,22-2.51c2.81-.09,3.75-4.74.7-5.16Z"/><path class="cls-4" d="M117.85,369.61C127,361,136.4,353,148.17,348c12.6-5.29,26.74-6.3,40.25-6.94,13.16-.62,27.13-.23,39.35,5.26a46.91,46.91,0,0,1,14.09,9.56c4.17,4.19,6.17,8.94,8.83,14.08,4.53,8.75,17.45,2.53,15.39-6.49C263,349.85,249.42,338.57,237.27,333c-15-6.82-31.73-7.68-47.93-6.33-15.92,1.32-31.92,3.69-46.16,11.35C131,344.58,120,354.91,114.64,367.74c-.79,1.88,1.94,3.06,3.21,1.87Z"/></g></g></svg>