<?xml version="1.0" encoding="utf-8"?>
<!-- Generator: Adobe Illustrator 23.0.4, SVG Export Plug-In . SVG Version: 6.00 Build 0)  -->
<svg version="1.1" id="Capa_1" xmlns="http://www.w3.org/2000/svg" xmlns:xlink="http://www.w3.org/1999/xlink" x="0px" y="0px"
	 viewBox="0 0 2015.3 662.7" style="enable-background:new 0 0 2015.3 662.7;" xml:space="preserve">
<style type="text/css">
	.st0{fill:#FEFEFE;}
	.st1{fill:#1F1F1F;}
	.st2{fill:#E37272;}
	.st3{fill:#CD3434;}
	.st4{fill:#F4CDB5;}
	.st5{fill:#241712;}
	.st6{fill:#241611;}
	.st7{fill:#220B09;}
	.st8{fill:#FDFDFD;}
	.st9{fill:#251915;}
	.st10{fill:#2A1F1A;}
	.st11{fill:#6FC0E0;}
	.st12{fill:#0E1312;}
	.st13{fill:#6FC2E2;}
	.st14{fill:#3194CA;}
</style>
<title>down_per-01-01</title>
<g>
	<g>
		<path class="st0" d="M38.4,305C53,246.1,97.1,199.5,151.8,174.8c40.5-18.3,98.4-9.1,114.5-40.3c6.5-12.5,7.1-103,0-107.7
			c36.3,24.2,171.8,1.8,214.2,2.5c162.9,2.6,325.9,5.4,488.9,8.4c235.4,4.2,470.8,8.5,706.2,13l-1.4,14l95.1-4.2
			c1.8,51.4,2.8,101.1-0.4,152.1c-5.7,90.3,33.8,53.7,104.8,93.7c41.6,23.4,58.3,55.1,76.4,104.7c12.9,35.2,20.5,70.3,16.4,108.2
			c-1.9,18.2-42,124.8-60.2,50c-6.9,69.2-76.6,94.5-133.3,60.2c-31.8-19.2-50.3-61.1-67.3-83.2c-5.3-6.8-33-38.6-40-41.5
			c-32.5-13.4-94.6-3.1-129.2-4.2l-247.5-8.1l-518.7-16.9c-23.3-0.8-66.8-10.7-88.7-2.5c-28.3,10.5-45,45.2-90.9,51.9
			c-47.7,6.9-292.8-55.8-323-3c-15.5,27.1,25.8,45.3-0.4,77.4c-43.5,53.3-113.7-14.5-162.9,28.6C171.7,524.6,21,416.8,38.4,305z"/>
		<path class="st1" d="M1687.9,490.7c-0.7,2.2-1.1,4.7-3.5,6c-14.7,1.6-29.6,1.8-44.3,2.5c-49.5,2.1-98.9,1.9-148.4,1.3
			c-48.8-0.6-97.6-1.8-146.3-2.9c-40.8-1-81.5-2.2-122.3-3.3c-39.9-1-79.9-2.1-119.8-3c-30.1-0.7-60.3-1-90.4-1.7
			c-36.1-0.9-72.3-0.7-108.4-1c-37.8-0.3-75.6,0.2-113.4,0.5c-22.8,0.2-95.6,1.1-118.4,1.7c-0.5,0-1,0-1.5,0.1
			c-2.4,0.2-4.6-0.2-4.6-3.1c0-2.6,1.8-3.1,4.1-3.1c10.8-0.3,21.6-0.7,32.4-0.9c51.6-1.3,153.3-1.6,204.9-1.3
			c44.1,0.3,88.2,0.9,132.4,1.7c32.6,0.5,65.2,1.5,97.8,2.3c49.6,1.2,99.2,2.4,148.8,3.7c31,0.8,61.9,1.5,92.9,2.3
			c55.1,1.5,110.2,2.8,165.3,2.7c45.1-0.1,90.2-1,135.3-4C1682.9,490.7,1685.4,490.6,1687.9,490.7z"/>
		<path class="st1" d="M1707.2,299.4c-2-0.2-4.1-0.3-6.1-0.5c1.2-50.2,2.5-100.4,3.8-150.7c0.6-22.6,0.9-45.2,2.6-67.8
			c0.1-1.8-0.2-3.8,1.8-4.9c2.6-1.4,4.5,0.3,4.4,4.1c-0.5,17.1-1,34.2-1.5,51.4c-0.6,20.6-1.4,41.2-2,61.8l-2.7,100.8
			c0,1.8,0.1,3.7,0.2,5.5C1707.5,299.2,1707.3,299.3,1707.2,299.4z"/>
		<path class="st2" d="M405.7,454.6h21.1c-5,4.2-9.3,7.2-14.2,9.4C411.5,460,407.9,457.8,405.7,454.6z"/>
		<path class="st3" d="M328,501.6c15.3-3.7,30.7-6.9,45.7-11.7c14.1-4.7,27.8-10.5,41-17.3c-0.4,15.6-10.9,27.1-27.5,28
			C367.5,501.5,347.7,501.2,328,501.6z"/>
		<path class="st4" d="M191.1,523.7c0.7,11.7,0.3,23.8-2.6,35.2s-7.9,22.5-12.3,33.6c-5.2,13.1,16.9,22.5,23,9.7
			c10.1-21.5,16.8-44.5,19.8-68.2l-26.2,3.5c7.3,21.7,17,42.4,28.8,62l8.2-20.3c-8.9,3.5-18.3,5.6-27.9,6.3V614
			c12.9-1,25.7-3.5,38.1-7.4c7.6-2.3,12.1-10.2,10.1-17.9l-9.6-38.9l-27.3,11.5c5.9,8.5,11.7,17,17.6,25.5l23.8-18.3
			c-12.9-13.6-22.6-30-28.1-48c-2.9-9.4-3.6-19.5-7-28.7c-4.3-11.6-12-18.7-20.9-26.7c-14.6-13.1-24.4-26.1-33.2-43.9
			c-1.8-3.5-3.4-7.1-4.8-10.8c-1.8-4.7-3.3-9.5-4.6-14.3c-2.9-10.8-3.5-23.2-11.9-31.5c-9-8.9-23-11.5-35-7.5
			c-13.3,4.5-21.8,15-30,25.8c-4.8,6.4-1.6,18.9,5.8,22.1c15.1,6.6,31.2,10.6,47.6,11.7c10.2,0.7,18.7-10.9,15.6-20.5
			c-3.9-12.1-5.5-21.6-5.4-34.2c0-5.2,0.5-10.5,1.4-15.6c0.6-3.1,1.3-6.2,2.1-9.3c0.4-1.5,0.9-3,1.4-4.5c0.1-0.3,1.2-3.5,0.6-2.2
			c0.4-1.1,1.1-2.2,1.6-3.3c2.3-4.4-0.6,0.2,0.8-1.5c0.7-0.9,1.6-1.6,2.4-2.5c2-2.1-1,0.5,0.5-0.4c1-0.5,2-1.1,2.9-1.7
			c2.4-1.4-1.1,0,0.6-0.2c2-0.3,4.1-1.2,6.1-1.7c0,0,4.2-0.6,2.1-0.4s1.8-0.1,2.2-0.1c2.5-0.2,4.9-0.2,7.4-0.2
			c4.9,0.1,9.8,0.5,14.7,1l-8.1-30c-11.4,5.2-24.3,7.4-37.4,7.1l16.1,16.1c-0.1-1,0.4-4.5-0.3-1.6c0.2-0.7,0.9-4.8,0.5-1.7l0.8-1.3
			c-0.9,1-1,1.1-0.2,0.2c0.8-1,1.7-1.9,2.7-2.7c-2.1,1.8,1.6-0.9,1.8-1c2.9-1.7-1.4,0.1,2.5-0.9c2.2-0.7,4.5-1.1,6.8-1.1
			c6.5-0.2,13,0.1,19.5,0.9c2.9,0.3,5.9,0.6,8.8,1c-2.4-0.3-0.3,0,0.9,0.2c1.5,0.2,3,0.5,4.4,0.7c5.4,0.9,10.7,2.2,15.9,3.7
			c2.6,0.8,5.1,1.7,7.6,2.6c3.2,1.2-1.9-1,1.5,0.6c1.1,0.5,2.1,1,3.2,1.6c2.3,1.2,4.5,2.5,6.6,3.9c0.6,0.4,3.9,2.9,1.2,0.8
			c0.9,0.7,1.8,1.5,2.6,2.2c1.9,1.7,3.6,3.5,5.3,5.5c-2.2-2.6,0.6,0.8,0.8,1.2c0.8,1.2,1.5,2.4,2.2,3.7l22.1-22.1
			c-29.3-14.6-60.5-25.1-92.9-30l7.3,27.5c-2.2,1.8,2.6-1.6,3.1-1.9c1.8-0.8,1.9-0.9,0.4-0.3c1-0.4,2-0.7,3-1c0.6-0.2,6.7-1.4,3.4-1
			c1.6-0.2,3.2-0.3,4.8-0.3c2.1,0,4.3,0.1,6.4,0.3c-3.2-0.4,2.9,0.8,3.5,0.9c2.1,0.6,4.2,1.3,6.3,2.1c-2.4-1,1.8,1,2.3,1.2
			c13.1,6.9,27,19.5,33.9,31.8c0.3,0.6,2.3,5.2,1.5,2.9c0.3,0.8,1.6,7.3,1.1,3.3c0.2,1.9,0.3,3.8,0.2,5.7c0,0.5-0.5,5.5-0.2,3.6
			s-0.6,3.1-0.8,3.6c-0.4,2-0.9,3.9-1.4,5.8c-1,3.6-2,7.3-3,10.9c-4.4,16.1-7.1,34.3,3.3,48.8c5.5,7.6,13.9,10.2,22.5,5.9
			c13.1-6.6,23.5-16.2,32.3-27.7c5.9-7.6,0.4-17.8-5.9-22.6c-15.5-11.7-34.8,0.1-46.2,11.5c-10.4,10.4-19.8,21.9-27.9,34.2
			c-15.8,24-26.6,50.9-31.7,79.2l31.9,8.8c2.8-16.9,6.9-33.5,12.2-49.8c5.1-15.5,11.4-30.5,18.9-45h-28.5c-1.2-2.8-0.1,0.5,0.1,1
			c0.7,1.5,0.2-2.3,0.1,0.6c0,0.5-0.2,4.4,0.1,2.1s-0.5,2-0.5,2c-0.3,0.9-0.6,1.9-0.9,2.8c1-2.9-0.2,0.2-0.5,0.8
			c-0.6,1.1-1.3,2.2-2,3.3c-0.2,0.3-2.6,3.5-1.5,2.2s-1.9,2.1-1.8,2c-0.7,0.8-1.5,1.6-2.3,2.3c-1.2,1.1-2.4,2.2-3.6,3.3
			c-0.7,0.6-1.9,1.4-0.5,0.4c-2.1,1.5-4.4,2.9-6.6,4.2c-1.8,1.1-1.6,0.1-0.4,0.6c3.8,1.6,3.8,0.8,7.3,4c-0.9-0.8-0.9-1.7-0.2,0
			c-0.5-1.2-0.8-2.5-1.1-3.8c-0.9-3.2-1.7-6.5-2.5-9.8c-1.5-6.2-2.7-12.5-3.7-18.8c-1.8-12.5-2.6-25.1-2.5-37.8
			c0.1-8.6-7.6-16.9-16.5-16.5c-9.4,0.4-15.9,7.3-16.5,16.5c-1.5,24.4-3.1,48.7-4.8,73.1l31.4-8.5c-9.6-15.1-14.8-27.5-18.8-44.7
			c-1-4.1-1.8-8.2-2.4-12.4c-0.2-1.2-0.2-1.2,0,0.1c-0.1-1.2-0.3-2.4-0.4-3.6c-0.2-2.1-0.4-4.2-0.5-6.3c-0.5-8.7-0.4-17.4,0.4-26.1
			h-34.7c-1.8,20.8-5,41.5-9.6,61.9h33.2c-1.7-6.3-3.3-12.7-4.5-19.1c-1.2-5.9-2.1-11.8-2.6-17.8c-1.3-13.4-1.5-26.8-0.6-40.2
			l-29.1,12c1.3,1.5,1.4,1.6,0.4,0.2c0.6,0.9,1.2,1.7,1.8,2.6c1.1,1.8,2.2,3.6,3.1,5.5c2.1,4.2-0.7-2.7,0.7,1.8
			c0.6,2,1.1,4.1,1.7,6.1c0.4,2,0.4,2.1,0.2,0.2c0.1,1,0.2,2.1,0.3,3.2c0.1,1.6,0.1,3.2,0.1,4.8c0,1.1-0.1,2.1-0.2,3.2
			c0.3-1.9,0.3-1.9,0,0.2c-0.5,2.1-0.9,4.1-1.6,6.2l33.1,9.1c1.1-5.3,2.5-10.4,4.3-15.5c0.5-1.3,1-2.6,1.5-4
			c-0.7,1.7-0.1,0.3,0.3-0.6c1.2-2.6,2.5-5.1,3.9-7.6c2.5-4.5,5.2-8.7,8.3-12.8c-1.6,2,0.7-0.8,1-1.2c0.9-1.1,1.8-2.1,2.8-3.2
			c1.9-2.1,3.9-4.1,6-6l-26.9-3.5c1.2,1.9,2.2,3.8,3.2,5.8c-1.3-2.7,1,3,1.2,3.6c0.5,1.6,0.8,3.2,1.2,4.8c0.4,2.1,0.4,2.2,0.1,0.4
			c0.1,1.1,0.2,2.2,0.3,3.3c0.1,2.2,0,4.4-0.1,6.6c-0.1,3.6,0.6-1.8-0.2,2c-0.5,2.2-1,4.3-1.7,6.4c-0.3,1-0.7,2.1-1.1,3.1
			c0.6-1.6,0.5-1.4-0.4,0.4l31.3,4.1c-0.3-2.1-0.4-2.4-0.2-0.8c-0.1-1.2-0.3-2.4-0.4-3.6c-0.1-1.8-0.2-3.6-0.3-5.5
			c0-4.1,0.1-8.2,0.6-12.2c-0.1,1.1-0.1,0.6,0.2-1.3c0.2-1.2,0.4-2.4,0.7-3.6c0.5-2.1,1-4.1,1.6-6.2c0.6-2,1.2-4,2-6
			c0.4-1.1,0.8-2.3,1.3-3.4c-0.5,1.3-0.4,1,0.5-0.9l-31.2-4.1c2.3,12.9,3.2,26.1,2.6,39.2c-0.3,6-1,13.9-1.6,17.8
			c-1.1,7.1-2.6,14.1-4.4,21l33.8,4.6c-0.7-5.5-0.8-11-0.6-16.5c0.1-1.5,0.2-2.9,0.3-4.3c0.1-1.1,0.3-2.5,0.1-0.6
			c0.4-2.9,1-5.7,1.7-8.5c0.6-2.5,1.4-5,2.2-7.5c0.5-1.4,1-2.7,1.5-4.1c0.3-0.9,1-2.3,0.3-0.6c2.4-5.3,5.3-10.3,8.6-15.1l-31.9-4.2
			c2,5.9,3.7,12,4.9,18.1c0.3,1.5,0.6,3.1,0.8,4.6c0.6,3.4-0.4-4.1,0.3,1.9c0.3,3.1,0.6,6.2,0.7,9.4c0.2,6,0.1,11.9-0.5,17.9
			c-0.1,0.8-0.5,4.2-0.2,1.9c-0.2,1.5-0.5,3.1-0.8,4.6c-0.6,3.4-1.4,6.8-2.3,10.1h34c-0.5-3.2-0.1,0.6-0.2-1.4
			c-0.1-1.5-0.3-2.9-0.4-4.4c-0.2-2.6-0.2-5.2-0.2-7.9s0.2-5.2,0.4-7.8c0.2-3.2-0.2,0.5,0.1-1.4c0.2-1.1,0.4-2.3,0.6-3.4
			c1.1-5.4,2.6-10.8,4.5-16c1-2.9-0.2,0.2,0.5-1.4c0.5-1.1,1-2.1,1.5-3.2c1.3-2.6,2.7-5.2,4.2-7.7c0.2-0.3,2.1-3.3,0.9-1.6
			c-1.5,2.1,1.6-1.5,1.7-1.6c-0.5,2.1-8.4,2.2-9.7,2c-6.4-8.9-9-11.2-7.9-7c0.2,1,0.2,0.9,0-0.3c-0.1-2.7-0.2,1.8-0.2,2.2
			c0,1.2-0.1,2.4-0.2,3.5c0-0.1-0.6,4.8-0.3,2.9c0.3-2-0.5,2.5-0.6,2.9c-0.6,2.6-1.2,5.2-2.1,7.7c-0.4,1.4-0.9,2.8-1.5,4.2
			c-0.3,0.9-1.1,2.4-0.2,0.6c-1.2,2.7-2.6,5.3-4.1,7.9c-0.6,1-1.2,2-1.9,3c0,0-3.2,4.5-1.4,2.1l30.6,12.7c0.1-3.9,0.4-7.8,0.7-11.7
			s-0.2,0.5,0.4-3c0.3-2.2,0.7-4.5,1.2-6.7c1.6-8,3.9-15.8,6.8-23.4l-35.3-4.8c-0.2,23.1-3.3,46.1-9.4,68.4l33.1-4.3
			c1,2.5-1.1-2.8-1-2.7c-0.4-1.2-0.9-2.4-1.3-3.6c-1.2-3.3-2.2-6.6-3.1-10c-1.8-6.4-3.2-12.9-4.2-19.5c0.4,2.5-0.1-0.9-0.2-1.8
			c-0.2-1.6-0.3-3.1-0.4-4.7c-0.3-3.2-0.4-6.3-0.5-9.5c-0.1-7,0.2-13.9,0.9-20.9h-36.4c2.1,17.6,2.1,35.3,1.6,53
			c-0.3,8.1-0.5,16.3-1.1,24.4c-0.1,0.9-0.2,1.8-0.2,2.7c-0.2,2.1-0.2,1.8,0.1-0.8c0.1,1.2-0.5,2.9-0.7,4c-0.6,2.9-1.4,5.7-2.3,8.4
			c-1.4,4.4,1.4-1.9-0.4,1c-0.7,1-1.3,2.1-1.9,3.2c-1.9,3.1,2.6-2.3-0.1,0c-0.5,0.6-1.1,1.1-1.7,1.6c2.1-1.5,2.5-1.9,1.4-1.2
			c-3.4,2.7,2.7-0.8-0.5,0.2s3.7,0.3-0.2,0c-4.3-0.3,4,1.1,0,0c-3.4-1,3.4,2.1-0.5-0.2s1.6,2.2-0.7-0.5c-0.8-1-1.8-1.9-2.6-2.8
			c3.1,3.2,0.4,0.5-0.3-0.6c-0.9-1.4-1.7-2.8-2.5-4.2s-1.5-3-2.2-4.5c1.3,2.8,0.4,0.9-0.3-0.9c-1.1-3-2.1-6.1-2.9-9.2
			c-4.6-17.3-31.1-17.8-35.4,0c-5.4,21.8-1.7,46.2,11.4,64.8c6.1,8.7,13.5,15,21.4,21.9c1.9,1.7,3.8,3.4,5.6,5.2
			c0.7,0.7,1.3,1.5,2,2.2c2.3,2.4-0.6-1.6,0.1,0.2c0.4,0.8,0.8,1.6,1.4,2.3c1.5,1.7-1.4-3.4-0.2-0.3c0.9,2.3-0.2-0.2-0.2-1.3
			c0.5-2.7,0.6-3.3,0.3-1.8s-0.1,0.9,0.7-1.3c-3.9,8.8-2.9,20.3,6.6,25.3c8,4.2,21.1,2.8,25.3-6.6c5.5-12.5,5-25.4-3.3-36.6
			c-6.5-8.7-14.7-14.9-22.7-22.1c-1.7-1.6-3.2-3.4-4.9-5c-1.9-1.8,2.2,3.3-0.5-0.6c-0.6-0.9-1.2-1.7-1.7-2.6
			c-1.4-2.2-2.6-4.5-3.7-6.8c-0.8-1.7-0.5-1.5,0,0.1c-0.4-1.2-0.9-2.5-1.3-3.7c-0.8-2.5-1.2-5.1-1.9-7.6s0.3,4.3-0.1-0.5
			c-0.1-1-0.2-2.1-0.2-3.1c-0.1-2.6,0-5.2,0.2-7.8c0.1-2.1,0.3-1.3,0,0.2c0.4-1.5,0.6-3.1,1-4.6h-35.4c4.6,16.8,12.6,34.6,27.9,44.2
			c18.1,11.2,40.6,4.2,52-12.8c9.7-14.5,10.7-32.7,11.4-49.6c0.9-21.8,1.4-43.6-1.2-65.3c-1.1-9.4-7.6-18.7-18.2-18.2
			s-17.2,8-18.2,18.2c-3.1,31.3,2.7,62.2,15,91c2.8,6.5,11.7,9.5,18,8.6c7.1-1,13-6.1,15-13c6.6-25.5,10.2-51.7,10.5-78
			c0.1-9-6.9-16.5-15.6-17.7c-9.3-1.2-16.6,4.4-19.7,12.9c-6.3,17.4-9.7,35.8-10.1,54.4c-0.2,7.1,4.6,13.7,11,16.4
			c5.9,2.5,15.2,1.9,19.6-3.7c11.9-15.3,19.4-32.1,21.8-51.4c1.1-8.8,1.6-18.4-2.9-26.5c-6.5-11.8-21.1-15.5-32.8-9.3
			c-15,7.9-22.9,28.9-27.1,44.3c-4.7,17.3-5,35-2.1,52.7c1.2,7.3,9.9,13.3,17,13c7.7-0.3,15-5.2,17-13c7.4-28.6,6.5-59.3-3.4-87.2
			c-5.1-14.5-23.3-16.9-31.9-4.2c-14.6,21.6-21.5,48.9-18.3,74.8c1.1,8.6,5.7,15.7,14.9,16.9c8.2,1.1,16.7-4,18.9-12.3
			c8.1-31.7,8.8-64.2,3.2-96.3c-2.4-14.2-25.1-16.9-31.2-4.1c-10.6,22.2-13.7,45.7-9.5,69.9c2.4,14.4,25,16.8,31.3,4.1
			c11.2-22.5,10.9-49.5-2.6-71.1c-5-8.2-15.7-10.8-23.9-5.8c-1.1,0.7-2.1,1.5-3,2.3c-18.7,17.7-31.7,40.6-37,65.9
			c-1.8,8.8,2.5,18.9,12,21.1c9.1,2.3,18.4-3,21.1-12c7.3-23.6,0.8-48.8-15.4-67.1c-4.5-5.1-12.7-6-18.6-3.5
			c-6.5,2.8-10,8.6-10.5,15.6c-2,29,0.9,58.2,8.6,86.3c4.3,15.9,29.4,16.9,33.2,0c5.2-23.4,8.9-47.1,11.1-71
			c0.8-9.1-8.6-17.7-17.3-17.3c-10.1,0.5-16.4,7.6-17.3,17.3c-3.6,38.3,6.9,77.6,27.4,109.9c9.1,14.3,30.5,8.2,31.4-8.5
			c1.2-24.4,2.7-48.8,4.2-73.1h-33c-0.1,18.9,1.7,37.9,5.4,56.4c3.4,17.1,8.1,43.2,30.8,42.6c17.2-0.5,33.4-15.7,42.9-28.7
			c10.7-14.6,12.8-32,5.5-48.5c-5-11.3-23.2-10.3-28.5,0c-16.7,32.2-28.4,66.9-34.5,102.7c-1.4,8.5,2.2,18.2,11.5,20.3
			c8.1,1.8,18.7-2.4,20.3-11.5c4.4-24.4,11.6-43.7,23.9-64.1c2.9-4.9,6.1-9.6,9.4-14.2c1-1.4,2-2.8,3-4.1c-1.3,1.7,0.7-0.8,1.1-1.3
			c1.8-2.2,3.6-4.4,5.5-6.5c3.9-4.4,8-8.7,12.4-12.7c3.1-2.8-1.8,0.8,1.9-1.3c0.9-0.6,1.9-1.1,2.9-1.6c-1.3,0.5-1.4,0.7-0.3,0.3
			c1.2-0.3,1-0.3-0.8,0.1c-1.2-0.2-4.4-1.9-1.8,0.1l-5.9-22.6c1-1.3-0.3,0.3-0.7,0.7c-1,1.1-1.9,2.1-2.9,3.2
			c-1.8,1.9-3.7,3.6-5.7,5.3c1.3-1.1-0.3,0.3-0.8,0.6c-0.9,0.7-1.9,1.3-2.9,2c-2.4,1.6-4.9,3-7.5,4.3l22.5,5.9
			c-0.8-1.1-1.5-2.3-2.2-3.5s-0.4-2.3,0.1,0.3c-0.1-0.6-0.4-1.2-0.5-1.9s-0.2-1.3-0.4-1.9c0.1,0.4,0,2.9,0.2,1.1
			c0.2-1.5-0.1-3.1,0-4.6c0-0.7,0.2-1.4,0.2-2c0-2.4-0.6,2.6,0,0.2c0.3-1.4,0.5-2.8,0.8-4.2c0.8-3.4,1.7-6.7,2.6-10
			c4-14.2,7.6-28.7,4.4-43.5c-3.6-16.2-15.9-29.5-27.6-40.5s-25.9-21-41.8-24.9c-19.6-4.8-39.5-1-55.1,12c-9,7.5-4.6,25.7,7.3,27.5
			c29.8,4.6,59.2,13.4,85.3,26.1c6.5,3.2,14.3,2.8,19.6-2.5c5.1-5.3,6.1-13.2,2.5-19.6c-14.9-25.9-44.1-37.1-72.3-41.3
			c-16.4-2.4-34.4-5.2-50.7-0.9c-17.6,4.6-33.8,20.8-32.1,40.1c0.8,8.8,6.8,15.8,16.1,16.1c18.8,0.5,36.7-3.7,53.7-11.4
			c6.4-2.9,9.1-11.8,7.4-18.2c-2-7.3-8.4-11.1-15.5-11.8c-25.1-2.6-55.5-0.3-68.5,25.1c-14,27.6-13.7,63.5-4.4,92.3l15.6-20.6
			c-9.5-0.6-22.2-3.4-31.3-7.2l5.8,22.1c0.7-0.9,1.3-1.8,2-2.7c-1.3,1.6,0.5-0.5,0.6-0.7c1.5-1.7,2.9-3.4,4.5-4.9
			c0.8-0.8,1.6-1.5,2.5-2.2c-0.3,0.2-1.4,1,0.1,0.1c0.4-0.2,3.5-1.8,1.5-1s1.7-0.4,2.1-0.5c-3.4,1.2-0.6-0.6,0,0.1
			c-0.1-0.2,4.2,0.6-0.1-0.3c0.9,0.2,1.8,0.4,2.6,0.7c-0.8-0.3-2.4-1.4-0.2,0.2c-0.3-0.2-1.5-0.7-1.5-1.1c-0.2-1.7,0.7,2.2,0.3,0.8
			c0.2,0.8,0.9,4.5,1.3,6.4c3.9,18.3,10.7,35.9,20.2,52c9.4,16.1,21.4,30.6,35.5,42.9c3.2,2.8,6.6,5.4,9.4,8.6
			c0.7,0.9,1.3,1.9,1.8,2.9c0.8,2.1,1.4,4.2,1.9,6.4c2.2,9,3.7,18.1,6.9,26.9c7.4,21,19.3,40.2,34.8,56.3c5.4,5.3,13.9,5.8,19.9,1.2
			c5.5-4.3,8.3-13.3,3.9-19.5c-6-8.5-12-16.9-18-25.3c-4.3-6-11.4-9.3-18.7-6.1c-6.9,2.9-10.6,10.4-8.7,17.6l10.4,38.7l10.1-17.9
			c-9.8,3.5-20,5.9-30.4,7.1c-7.6,0.8-14.1,5.9-14.1,14.2c0,7.2,6.5,14.8,14.1,14.2c12.1-0.9,23.9-3.6,35.2-8
			c7.8-3.2,13.5-12,8.2-20.3c-11.1-17.3-20.1-35.8-27-55.1c-2.2-6.2-7.8-10.6-14.6-9.5c-7,1.1-10.8,6.3-11.6,13.1
			c-2.2,19.1-7.2,37.8-14.9,55.5l23,9.7c4.6-12.5,5.6-25.7,5.2-38.9c-0.4-12.8-1.5-25.5-4.6-38C199.6,517,190.8,518,191.1,523.7
			L191.1,523.7z"/>
		<path class="st3" d="M286.4,508c-15.1,2.4-25.8-4.9-34.8-16c0-0.4,0.1-0.8,0.1-1.2c10.6-15.8,18.1-33,25.4-50.5
			c2.8-0.7,5.6-1.4,8.4-2.2c20.5-5.5,41.6-5.2,62.6-6.1c2.8-0.1,5.6,0,8.3,0c-0.4,0.2-0.9,0.3-1.3,0.5c-3.3-4-6.2-8.2-9.8-11.8
			c-16.1-16.4-26.4-35.4-29.4-58.5c-1-7.9,2.3-11.5,11.1-11.5c2.1,1.8,4,4,5.6,6.3c-0.2,2.8,1.8,4.7,3.2,6.8
			c4.4,6.3,8.2,13.2,15.5,16.9c3.4,5.1,8,8.8,13.2,11.8c9.6,5.9,19.6,11.3,29.8,16.2c9.9,4.6,19.5,10.2,30.3,12.4
			c4.1,0.6,7.4,3.2,11.2,4.8c38.4,16.8,79.2,22.3,120.4,24.6c19.5,1,39,1.4,58.5,2.1c2.1,3,5.6,5,6.6,8.9
			c-11.9,7.6-25,12.7-38.4,17.1c-26.5,8.8-53.8,13.4-81.2,17.3s-54.7,6.9-82.4,7.4c-10.3,0.2-20.6,0.2-30.9,0.3
			c-2.8-0.1-5.6-0.1-8.3-0.2c-1.8,0-3.4-0.1-5.1-0.1c-6.6-1.5-13.3-0.8-19.9-1.4c-13.2-1.4-26.5-2.4-39.7-3.6
			c-2.9-0.2-5.7-3.4-8.1-1.6C300.6,500.9,293.1,503.7,286.4,508z"/>
		<path class="st2" d="M570.5,437.5c13.5-0.8,27-1.4,40.5-2.4c5-0.3,9.9-0.8,14.8-1.6c24.5-3.9,47.2,22.6,39.1,46.1
			c-2.6,7.8-8.5,14-16.2,17c-24.7,10.4-50.5,16.2-77,18.8c-39.8,4.1-79.4,0.4-118.9-3.7c-6.4-0.6-13,0.2-19.5,0.7
			c-19,1.7-38,0.2-56.9-1.6c-0.5,0-0.9-0.4-1.5-0.5c17.5,0.1,35,1,52.5-0.2c16.4,0,32.8-1.1,49.1-3.5c21.6-3.2,43.2-6.7,65-10
			c18.6-0.3,37.2,0,55.8-1c15.5-0.8,25.5-11.6,25.8-26.4c7.5-4.8,15.2-9.4,21.8-15.3c1.9-1.6,4.5-3,3.2-6.3
			c-1.2-2.9-3.9-2.3-6.2-2.4c-16.3-0.3-32.5-0.7-48.8-1c-3.2-1.4-6.7-2.1-10.1-3.1C578.8,439.9,574.1,440.6,570.5,437.5z"/>
		<path class="st5" d="M251.7,490.9c0,0.4-0.1,0.8-0.1,1.2c-6.3,9.2-12.6,18.4-18.9,27.6c-0.9,1-1.3,2.4-1.1,3.8
			c2.8,13.8,7.5,26.5,19.7,34.8c3.3,2.3,6.2,4.7,11.1,1.2c3.7-2.6,9.5-2.6,13.9-4.7c2.5-1.2,5-2.5,7.3-3.8c2-1.1,4-1.8,5.4,0.5
			s0.8,4.3-1.4,5.8c-5.1,3.2-10.5,5.7-16.3,7.4c-1.2,0.4-3.2,0-3.3,1.8c-0.4,5.3-3.9,4.2-7.1,3.6c-15.5-3.3-25.2-13.6-30.8-27.5
			c-3.1-7.6-5.1-13.4-15.3-13.4c-8.1-0.1-15.2-6.1-23.1-10.5c0,15.5-1.1,31.1-3.3,46.4c4.9-1.4,9.3-2.8,13.7-4c2.2-0.6,4.6-1,5.5,2
			s-0.7,4.4-3.4,5.2c-4.6,1.3-9.2,2.8-13.8,4c-2.6,0.7-3.9,2-4.4,4.8c-0.8,4.8-2.3,9.7-3.3,14.5c-0.5,2.4-1.3,4.5-4.2,3.9
			c-3.2-0.7-3.6-3.2-2.9-6.1c1.1-4.1,2.6-8.1,2.7-12.5c-6.7,1.3-12.1,5.3-18.4,6.5c0.3-2.5,0.6-4.9,0.9-7.5c0.1-0.2,0.1-0.5,0.2-0.7
			c3.6-1.4,7.2-2.9,10.7-4.3c0.6-0.1,1.4,0,1.6-0.8l-0.1,0.1c5.7-0.4,8.4-3.2,8.3-9.1c-0.1-2.7,1.2-5.4,0.7-8
			c1.6-7.7,1.4-15.5,1.9-23.4c0.1-2,0.2-4,0.2-6.1c0-6.1,0.3-12.2-7-14.8c-10.1-8.5-19-18.3-26.6-29.1
			c-8.3-11.9-14.3-25.1-20.7-38.2c-1-3.9-2-7.9-3.3-11.7c-1.4-4-4.1-5.8-9.1-5.2c-8.4,0.9-16.6-0.3-23-7.1c-3-3.1-5.2-6.6-7.8-10
			c-0.5-2-1.1-3.9-1.6-6c-2.3-9.8,2.9-17,12.9-17.7c3.5-0.3,7.1,0.1,10.7,0.2c0.9,0.4,1.8,0.8,2.8,1.1c2.9,1,6.1,2.2,4.5,6
			s-4.4,1.9-7,0.8c-6.2-2.4-9.5-0.6-10.6,6.1c-0.7,4.6-2.5,10,1.5,13.6c4.9,4.4,11.5,6.6,18.1,5.9c11.4-1.1,13-0.4,16.5,10.5
			c0.6,1.8,1.1,3.6,1.4,5.5c2.1,10.7,6.8,20.4,11.8,29.9c14.4,26.9,37.7,43.8,64.4,56.6c2.2,1,4.5,1.7,6.8,2.1
			c3,0.6,4.4-0.6,4.2-3.9c-0.3-3.9-0.4-7.8-0.5-11.8c-0.2-1.6,0.9-3.2,2.6-3.4c0.2,0,0.3,0,0.5,0c1.8-0.2,3.4,0.9,4,2.6
			c0.4,1.1-0.5,2.8,1.4,3.7c5.1-7.8,10.3-15.6,15.6-23.5C249.9,486.1,248.9,490.2,251.7,490.9z"/>
		<path class="st6" d="M53.8,267.3c8-13.3,15.7-27,25.6-39c3-3.5,5.9-7.2,9.1-10.5c2-2.1,3.6-5.9,7.9-3.3c1,0.6,1.7-0.8,2.3-1.6
			c19.6-26.7,45.6-44.4,76-56.5c1.5-0.6,3-1.6,4.5-2.3c0.8,0,1.7-0.1,2.5-0.2c15.6-5.6,31.8-9,48.2-11.6c20.8-2.3,41.6-3.1,62,3.4
			c4.2,1.3,8.4,2.7,12,5.2c-1.5,2.5-5.4,1.3-6.3,4.5c-0.6-0.1-1.3-0.2-2-0.3c-17.5-7.8-35.8-8.6-54.6-6.3
			c-16.8,0.9-33.1,4.5-49.2,9.5c-34.1,10.6-63.6,28-85.7,56.8c-2.1,2.7-3.4,7.4-8.8,4.3c-0.6-0.4-2.2,1.3-2.6,2.7
			c-0.3,0.3-0.6,0.6-1,0.8H94c-0.7,0.5-1.5,0.9-1.2,2.1l0.1-0.1c-8.8,7.7-15.4,17.1-21.6,26.9l0,0c-0.3,0.4-0.7,0.7-1,1.1l0.1-0.1
			c-0.3,0.6-0.6,1.2-0.9,2c-0.5,0.4-1,0.9-1.3,1.4c-12.1,18.2-21.8,38-28.9,58.7c-8.4,25.6-11.3,51.4-5,78.2
			c7.4,31.6,30.2,52.9,48.8,77.1c1.4,1.6,2.9,3.3,4.2,4.8c-3.4,0.3-7.6-2.9-9.7,2.5c-3.9-5.6-7.6-11.3-13.1-15.5
			c-0.1-0.7-0.4-1.1-1.2-1.1l0,0c0-2-1.8-2.8-2.7-4.2c-7.2-11.3-17.8-20.1-22.8-33.5c-4.4-12.1-9.7-24-12.8-36.5
			c-0.8-7.5-2.2-15-2.2-22.5c0.2-4.1,0.3-8.2,0.7-12.2c2.1-19.6,8.7-37.8,16.8-55.6c4.2-9.3,8.5-18.5,12.8-27.8l0,0
			C53.6,268.5,53.8,268,53.8,267.3z"/>
		<path class="st7" d="M593.1,444.3c16.3,0.3,32.5,0.7,48.8,1c2.4,0,5-0.5,6.2,2.4c1.3,3.2-1.3,4.5-3.2,6.3
			c-6.7,6-14.4,10.5-21.8,15.3c-12.4,6.4-25.3,11.8-38.6,16.3c-14.1,4.5-28.6,7.5-43,11c-21.6,3.3-43.2,6.8-65,10
			c-16.3,2.4-32.7,3.5-49.1,3.5c-0.1-1.1-1-1.9-2.1-1.9l-32.8-3.1c-1.5-0.1-3.6,0.7-4.2-1.8c10.3-0.1,20.6-0.1,30.9-0.3
			c27.6-0.5,55.1-3.5,82.4-7.4c27.5-4,54.8-8.5,81.2-17.3c13.4-4.4,26.5-9.5,38.4-17.1c4.8-2.3,9.3-5.3,13.4-8.9h-19.9
			c-19.5-0.7-39-1-58.5-2.1c-41.4-2.3-82-7.8-120.5-24.6c-3.7-1.6-7-4.2-11.1-4.8c-3.6-1.8-7.4-3.1-10.4-5.9c3.7-0.9,7,1,10.5,1.8
			c4,0.7,7.7,3.3,12.1,2c3.8,1.4,7.5,2.9,11.3,4.3c1.3,0.6,2.7,1.5,4.1,2c30.2,11.4,61.7,15.8,93.5,18.2
			C561.4,444.5,577.3,444.2,593.1,444.3z"/>
		<path class="st5" d="M436.7,418.7c-4.3,1.3-8.1-1.2-12.1-2c-3.5-0.6-6.7-2.7-10.5-1.8c-6.3-2.3-11.6-6.2-17.2-9.8
			c-15.4-9.8-30.8-19.6-45-31.2c-1.8-1.4-3.1-3.6-5.7-4.1v0.1c-0.1-0.4-0.2-0.8-0.4-1.1c-4.4-4-8.9-8-13.2-12.1
			c-1.5-2.3-3.3-4.5-5.5-6.3c-0.6-0.8-1-1.8-1.8-2.6c-18.3-21.8-28.3-46.5-25.5-75.6c0.2-3.4,1.2-6.6,3-9.5l-0.1,0.1
			c0.6,0,1.2,0,1.8,0.1c4.7,0.7,3.3,4.3,3.4,7.2c-2.4,11.5-1.1,22.9,2.2,34c3.8,12.9,9.2,24.9,18.4,34.9l0,0c-0.2,0.8,0.3,1.7,1,2.1
			c14.8,19.7,33.9,34.6,54.2,48.1C400.7,400.7,418.7,409.6,436.7,418.7z"/>
		<path class="st2" d="M91.9,608.1c-2.8-32.7-5.7-65.5-8.4-98.1c-0.7-7.8-2-15.6-1.8-23.5c3.3,4.5,4.8,9.9,7.7,14.6
			c5.8,15.2,10.8,30.7,12.2,47C103.5,568.9,101.3,589.1,91.9,608.1z"/>
		<path class="st6" d="M91.9,608.1c9.4-19,11.4-39.2,9.7-60c-1.4-16.4-6.5-31.8-12.2-47c2.5-0.2,3.2,2,4,3.4
			c2.2,3.7,3.7,7.7,5.9,11.3c2,3.3,2.2,7.5,5.7,9.9c1.1,4.7,2.2,9.6,3.3,14.3c0.3,4.5,0.8,9.2,1,13.7c1.1,18.6-2.2,36.7-8.4,54
			c-0.1,0.4-0.3,0.7-0.4,1.1c0.4-0.1,0.7-0.2,1.1-0.2c5.2-3.3,10.5-6.7,15.8-10c2.1,1.2,4.1,2.6,4.4,5.3
			c-7.4,5.7-15.7,10.1-22.5,16.4c-2.8,2.1-5.5,4-8.2,6.2c-1.8,1.3-3.7,2-5.6,0.3s-1.2-3.6-0.2-5.6C87.6,617.1,90.6,613,91.9,608.1z"
			/>
		<path class="st3" d="M593.1,444.3c-15.8-0.1-31.7,0.2-47.6-1.1c-31.9-2.5-63.4-6.9-93.5-18.2c-1.4-0.5-2.7-1.3-4.1-2
			c17.6,3.3,35,7.6,52.9,9.2c23.2,2,46.3,3.6,69.5,5.4c3.6,3.1,8.4,2.5,12.7,3.7C586.4,442.3,589.9,442.9,593.1,444.3z"/>
		<path class="st7" d="M105,525.7c-3.5-2.4-3.7-6.6-5.7-9.9c-2.2-3.6-3.8-7.6-5.9-11.3c-0.8-1.4-1.6-3.6-4-3.4
			c-2.8-4.7-4.4-10.1-7.7-14.6c-1-3.2-3.8-5.6-4.4-9c2.1-5.4,6.4-2.1,9.7-2.5c0.5,0.1,1,0.2,1.4,0.4c0.5,1.8,2.1,2.7,3.3,3.8
			c13.4,11.4,26.9,22.8,40.4,34.2c2,1.6,4.3,2.9,4.4,6c-1.6,4-4,4.1-7.2,1.5c-4.7-3.9-9.6-7.7-14.4-11.6
			c-6.9-5.7-13.7-11.4-20.5-17.2C98.5,503.2,101.9,514.4,105,525.7z"/>
		<path class="st6" d="M388.4,503.4c0.6,2.5,2.7,1.5,4.2,1.8l32.8,3.1c1.1,0,2,0.8,2.1,1.9c-17.5,1.3-35,0.3-52.5,0.2l-55.3-4.3
			c-6.3-2.1-6.7-2.8-4.4-7.9c13.3,1.1,26.5,2.2,39.7,3.6c6.6,0.7,13.4-0.1,19.9,1.4c1.6,1.5,3.4,1.4,5.1,0.1
			C382.8,503.2,385.6,503.3,388.4,503.4z"/>
		<path class="st7" d="M297.6,155.4c0.9-3.2,4.8-2.1,6.3-4.5c0.6,0.1,1.2,0.2,2,0.4c13.2,7.9,23,18.7,28.5,33.3
			c2.9,7.5,3.6,15.2,4.3,23.1c-0.4,2.8-0.8,5.5-1.2,8.2c-2.1,0.5-2.2,2.5-3,3.8c-2.5,4.2-4.8,8.4-7.3,12.8c-0.9,1.6-1.9,3.3-4.2,2.9
			c0.7-1.3,1.4-2.7,2.2-4.1c7-15.1,7.9-30.5,0.5-45.7l0.1-0.2c0.1-0.9-0.4-1.8-1.1-2.4l0.1,0.1c-0.1-0.6-0.2-1.2-1-1.1h0.1
			c0.3-2.5-1.5-4.1-2.6-5.9C315.2,167.3,307.1,160.2,297.6,155.4z"/>
		<path class="st2" d="M328.6,339.3c-9.3-10-14.7-22-18.4-34.9c-3.3-11.1-4.5-22.5-2.2-34c8.5,12.8,12.4,27.2,15.2,41.9
			C325.1,321.4,326.9,330.3,328.6,339.3z"/>
		<path class="st2" d="M338.6,207.5c-0.7-7.8-1.4-15.6-4.3-23.1c-5.6-14.5-15.3-25.3-28.5-33.3c17.5-2.4,27,3.7,32.1,20.4
			C341.6,183.5,342.1,195.5,338.6,207.5z"/>
		<path class="st7" d="M121.7,604c-0.3-2.7-2.3-4.1-4.4-5.3l0.3-0.9c10-5.5,19.9-11.1,29.9-16.6c3-0.8,5.8-2.2,8.3-3.9l4.8-1.5
			c-0.3,2.5-0.6,4.9-0.9,7.5c-0.7,0.6-1.3,1.2-2.1,1.8c-7.2,2.8-14.1,6.4-20.7,10.5c-0.4,0.3-0.8,0.6-1.1,0.9v-0.1
			c-4.6,1.5-8.7,4.3-12.5,7.2C122.8,603.8,122.3,603.9,121.7,604z"/>
		<path class="st5" d="M323,235.2c2.4,0.4,3.3-1.2,4.2-2.9c2.5-4.2,4.8-8.6,7.3-12.8c0.8-1.4,0.9-3.4,3-3.8
			c-2.8,17.7-12.2,31.1-26.5,41.4c-2,1.4-3.9,2.8-5.9,4.1c-1.1,0.2-2.2,0.5-2.4,1.9l0.1-0.1c-3.8-0.3-6.6,3.1-10.4,3
			c1.1-3.9,5.4-4.3,7.7-6.8c3.2-3.3,8.4-4.4,9.7-9.7l10.2-10.2c2.3,0,2.2-1.5,2.2-3.2C322.6,235.9,322.8,235.6,323,235.2z"/>
		<path class="st2" d="M137,595.5c6.6-4.1,13.5-7.6,20.7-10.5c-2.7,14-15.3,24.3-27.9,20.6c1.1-3.7,4.8-5.7,6.1-9.3v0.1
			C136.2,596.3,136.6,595.9,137,595.5z"/>
		<path class="st2" d="M315.4,498c-2.3,5.1-1.9,6,4.4,7.9c-11,1.9-22,4.1-33.2,2.1c6.7-4.3,14.2-7,20.7-11.6
			C309.7,494.6,312.5,497.8,315.4,498z"/>
		<path class="st2" d="M229.9,142.2c-16.4,2.6-32.5,6-48.2,11.6c-0.8,0.2-1.6,0.3-2.5,0.2c14.8-9.8,30.3-17.2,48.9-12.6
			C228.8,141.7,229.3,141.9,229.9,142.2z"/>
		<path class="st2" d="M121.7,604l1.8-0.3c1.5,0.8,3,1.6,4.5,2.5c-3.6,4.4-7.9,8-12.2,11.7c-5,4.3-10.6,5.2-16.7,2.6
			C106.1,614.1,114.3,609.7,121.7,604z"/>
		<path class="st3" d="M128,606c-1.6-0.8-3-1.6-4.5-2.5c3.9-2.9,7.8-5.7,12.4-7.2c-1.2,3.6-4.9,5.6-6.1,9.3
			C129.2,605.8,128.6,606,128,606z"/>
		<path class="st2" d="M302.8,263.2c0.1-1.5,1.2-1.6,2.4-1.9c-0.2,0.7-0.4,1.3-0.5,2C304,263.3,303.4,263.2,302.8,263.2z"/>
		<path class="st2" d="M329.7,341.4c-0.8-0.4-1.2-1.2-1-2.1C329.9,339.5,329.9,340.4,329.7,341.4z"/>
		<path class="st2" d="M292.6,266.1c3.7,0.1,6.5-3.3,10.4-3c-2,2.8-2.7,6-3,9.5c-2.8,29,7.2,53.6,25.5,75.6c0.6,0.8,1.1,1.6,1.8,2.6
			c-8.9,0-12,3.6-11.1,11.5c2.9,23,13.4,42.1,29.4,58.6c3.6,3.7,6.5,7.9,9.8,11.8c0.4-0.2,0.9-0.3,1.3-0.5c-2.8,0-5.6-0.1-8.3,0
			c-21,0.8-42.1,0.6-62.6,6.1c-2.8,0.7-5.6,1.4-8.5,2.2c0.7-3.5,2-6.8,3.9-9.9c1.5-0.9,3.1-1.9,4.6-2.8c10.7-1.5,19.8-6.1,26.7-14.3
			c10.5-12.6,3.6-33.9-14.2-33c-1.6,0.3-3.2-0.8-3.5-2.5c0-0.1,0-0.3,0-0.4c-0.7-9.8-3-19.5-3.2-29.4c-0.1-6-0.3-11.9-0.8-17.9
			c-0.4-4.8-2-10.4,2.8-14.6c1.2-1.1,1-3.4-0.5-3.9c-4.2-1.5-3.3-4.9-3.5-8c-0.1-2.1-0.5-4-0.8-6.1c-0.6-3.3-2.9-2.4-4.6-2.4
			c-2.3,0-2.5,2-2.8,3.6c-0.3,1.4,1.5,2.8,0.1,4.8c-5.6-3.6-11.2-7.2-16.8-10.8c-0.5,0-0.9-0.1-0.8-0.8v0.2
			c-0.7-0.4-1.4-0.7-2.2-1.1l0.1,0.1c-0.4-2.6-2.9-3-4.5-4.1c-2.9-2-6.8-1.9-9.4-4.3c2.1-0.6,4.2-1.3,6.3-2
			c10.1-2.9,20.4-5.5,29.3-11.2C286.4,268.3,289.5,267.2,292.6,266.1z"/>
		<path class="st7" d="M281.2,430.5c-1.9,3-3.2,6.4-3.9,9.9c-7.3,17.4-14.8,34.7-25.4,50.5c-3-0.6-1.9-4.7-4.7-5.4
			c0.2-0.6,0.4-1.3,0.6-2c6.7-11.2,13.1-22.5,17.4-34.8H265c0.7,0,0.8-0.5,0.8-1.1c3.2-6,5.4-12.5,7.7-18.8c0.9-2.4,1.5-5.2,5-4.4
			S281.3,427.9,281.2,430.5z"/>
		<path class="st8" d="M346.2,370.1c2.6,0.4,3.8,2.6,5.7,4.1c14.2,11.5,29.5,21.4,45,31.2c5.7,3.6,10.9,7.4,17.2,9.8
			c3,2.8,6.8,4.1,10.4,5.9c-10.9-2.3-20.4-7.8-30.3-12.4c-10.2-4.8-20.1-10.2-29.8-16.2c-5.1-3.1-9.9-6.8-13.2-11.8
			C350.6,376.6,346.9,374.1,346.2,370.1z"/>
		<path class="st2" d="M346.2,370.1c0.6,4,4.4,6.5,5,10.5c-7.2-3.7-11-10.6-15.5-16.9c-1.4-2-3.3-3.9-3.2-6.8c4.4,4,8.9,8,13.2,12.1
			c-0.6,0.6-0.6,1,0.4,1.1L346.2,370.1z"/>
		<path class="st7" d="M380,503.2c-1.8,1.3-3.4,1.4-5.1-0.1C376.6,503.1,378.4,503.1,380,503.2z"/>
		<path class="st2" d="M136.4,519.3c-0.1-3-2.5-4.3-4.4-6c-13.5-11.4-26.9-22.7-40.4-34.2c-1.2-1.1-2.8-2.1-3.3-3.8
			c1.1-4.9-3.2-4.1-5.7-5.2c-18.5-24.2-41.4-45.5-48.8-77.1c-6.3-26.8-3.3-52.6,5-78.2c7-20.8,16.7-40.5,28.8-58.8
			c0.4-0.5,0.9-1,1.3-1.4c0.3-0.6,0.6-1.2,0.9-2l-0.1,0.1c0.7,0,1.3-0.2,1-1.1l0,0c2.7,0.6,3.9-1.2,5-3.1c1.5-2.6,3-5.5,5.4-7.2
			c5.8-4.2,7.9-10.7,11.1-16.5l-0.1,0.1c1.1-0.2,0.9-1.3,1.2-2.1h-0.1c0.3-0.3,0.6-0.6,1-0.8c0.4-1.3,2-3.1,2.6-2.7
			c5.2,3.2,6.7-1.5,8.8-4.3c22.2-28.8,51.7-46.3,85.8-56.9c16-4.9,32.3-8.6,49.2-9.5c0.8,1.6,2.2,2,3.9,1.6
			c13.8-2.6,27.2,1.3,40.7,2.9c2.4,0.3,5.1,0.6,7,2.7c-0.1,0.5,0.1,1.2-0.2,1.4c-7.1,7.2-7.9,16.3-8,25.6
			c-0.3,21.6-9.6,37.5-29.2,47.4c-20.5,10.4-42.7,14-64.9,18.1c-28.2,5.2-54.9,14.1-78.4,31c-15.6,11.2-28.3,25.1-38.8,41.2
			c-2.8,4.3-2.5,8.4,0.7,11.1c3.7,3.2,6.9,2.1,10.5-0.7c8.3-6.5,16.7-13.2,26.3-17.7c0.7,7.1-2.4,13.4-4.4,20
			c-0.7,1.5-1.6,3-2.6,4.3c-3,3.4-2.2,5.8,1.6,7.7c0.4,1.8-0.5,4.3,1.2,5.2c3.6,1.9,2.9,4.9,3,7.9c0.1,2.4,0.2,4.7,0.3,7.1
			c0.1,3.2,1.6,4.7,4.8,4.4c0.3,5.1-1.7,10.1-5.4,13.6c-3.6-0.1-7.2-0.4-10.7-0.2C88,384,83,391.2,85.2,401c0.4,2,1,3.9,1.6,6
			c-3.3,1.2-5,3.5-5.3,7.1c-0.2,3.2-2.1,5.8-4,8.1c-1.5,1.9-1,2.8,0.8,3.9c2.9,1.8,5.2,2.8,8.8,0.5c6.9-4.3,16.5-3.6,21.8,2.3
			c5.9,6.5,13.6,8.8,21,12c6.4,13,12.4,26.1,20.7,38.2c7.6,10.8,16.5,20.6,26.6,29.1c2.5,6.9,5.2,13.7,6.8,20.9
			c-0.4,7.8-0.2,15.7-1.9,23.4c-1.8,6.4-6.3,11.2-9.1,17.1l0.1-0.1c-0.5,0.3-1.1,0.5-1.6,0.8c-3.6,1.4-7.2,2.9-10.7,4.3
			C162.4,552.2,151.4,534.9,136.4,519.3z"/>
		<path class="st3" d="M136.4,519.3c14.9,15.7,25.9,33,24.4,55.7c-0.1,0.2-0.1,0.5-0.2,0.7l-4.8,1.5c-5.4-2.8-5.4-2.8-8.3,3.9
			c-10,5.6-19.9,11.1-29.9,16.6c-4.2-9.7-4.8-20-5.3-30.4c-0.4-9.3-0.3-18.6-4-27.4c-1.1-4.7-2.2-9.6-3.3-14.3
			c-3.1-11.3-6.4-22.4-10.6-33.8c6.8,5.8,13.7,11.5,20.5,17.2c4.7,3.9,9.6,7.7,14.4,11.6C132.4,523.4,134.8,523.3,136.4,519.3z
			 M116.2,575.4c2.8-2.4,4.9-5.5,6-9.1c1.7-4.6-2.9-3.9-5-5.1c-1.2-0.7-2.9-0.3-2.4,1.2C116,566.4,114.9,570.5,116.2,575.4z"/>
		<path class="st8" d="M129.9,441.3c-7.4-3.3-15.1-5.6-21-12c-5.2-5.8-14.9-6.6-21.8-2.3c-3.6,2.3-5.9,1.2-8.8-0.5
			c-1.8-1.1-2.4-2.1-0.8-3.9c2-2.4,3.8-4.9,4-8.1c0.3-3.6,2-5.9,5.3-7.1c2.6,3.4,4.8,6.9,7.8,10c6.4,6.7,14.5,8,23,7.1
			c4.9-0.6,7.5,1.2,9.1,5.2C128,433.5,129.1,437.4,129.9,441.3z"/>
		<path class="st8" d="M184,529.6c-1.5-7.2-4.2-14-6.8-20.9c7.3,2.6,7,8.8,7,14.8C184.2,525.5,184.2,527.5,184,529.6z"/>
		<path class="st8" d="M173.2,570c2.7-5.9,7.3-10.7,9.1-17.1c0.5,2.8-0.8,5.3-0.7,8C181.6,566.8,178.8,569.6,173.2,570z"/>
		<path class="st8" d="M171.5,570.7c0.5-0.3,1.1-0.5,1.6-0.8C173,570.7,172.2,570.6,171.5,570.7z"/>
		<path class="st8" d="M292.6,156c-1.9-2.1-4.5-2.5-7-2.7c-13.5-1.5-26.9-5.4-40.7-2.9c-1.8,0.3-3,0-3.9-1.6
			c18.7-2.3,37.1-1.5,54.6,6.3c-0.1,0.3-0.1,0.6,0,0.8C294.7,155.9,293.6,155.9,292.6,156z"/>
		<path class="st2" d="M295.6,155.9c-0.1-0.3-0.1-0.6,0-0.8c0.6,0.1,1.3,0.2,2,0.3c9.4,5.1,17.5,11.5,23.4,20.6
			c1.1,1.8,2.9,3.4,2.6,5.9c-4.6-3.4-8.6-7.5-12-12.1C307.5,163.8,301.1,160.3,295.6,155.9z"/>
		<path class="st8" d="M92.8,224.9c-3.2,5.9-5.4,12.4-11.1,16.5c-2.5,1.9-3.9,4.6-5.5,7.2c-1.1,1.9-2.4,3.7-5,3.1
			C77.3,242,84,232.6,92.8,224.9z"/>
		<path class="st8" d="M82.8,470.3c2.5,1.1,6.8,0.3,5.7,5.2c-0.5-0.1-0.9-0.3-1.4-0.4L82.8,470.3z"/>
		<path class="st8" d="M93.9,223c-0.3,0.7,0,1.9-1.2,2.1C92.3,223.9,93.3,223.5,93.9,223z"/>
		<path class="st8" d="M94.9,222.1c-0.3,0.3-0.6,0.6-1,0.8C94.2,222.8,94.5,222.5,94.9,222.1z"/>
		<path class="st8" d="M346.2,370.2c-1-0.1-0.9-0.5-0.4-1.1C346,369.4,346.2,369.8,346.2,370.2z"/>
		<path class="st2" d="M108.2,540c3.7,8.8,3.6,18.1,4,27.4c0.5,10.4,1.1,20.7,5.3,30.4l-0.3,0.9c-5.2,3.3-10.5,6.7-15.8,10
			c-0.2-0.3-0.5-0.5-0.7-0.8c6.4-17.5,9.7-35.4,8.4-54C109,549.1,108.6,544.6,108.2,540z"/>
		<path class="st2" d="M101.6,608.7c-0.4,0.1-0.7,0.2-1.1,0.2c0.1-0.4,0.3-0.7,0.4-1.1C101.1,608.1,101.3,608.4,101.6,608.7z"/>
		<path class="st3" d="M295.6,155.9c5.5,4.4,11.9,7.8,16.1,13.7c3.2,4.7,7.3,8.8,11.9,12.1h-0.1c0.3,0.4,0.7,0.7,1,1.1l-0.1-0.1
			c-0.1,0.9,0.3,1.9,1.1,2.4l-0.1,0.2c1.5,11.3,1.5,22.7,0,34c-0.8,5.9-4,11.2-4.1,17.3c-0.4,0.9-0.8,1.9-1.2,2.8l-10.2,10.2
			c-14.5,10.3-31.3,13.4-48.5,14.5c-26.7,1.8-53.1,4.5-79.2,10.4c-23.1,5.1-44.7,13.1-61.4,30.8c-0.2,0.3-0.8,0.2-1.4,0.4v-2.3
			c0.1-2.4,0.7-5-2.9-5.5s-4,2.1-4.5,4.8c-0.5,2.8-0.8,5.7-0.7,8.6c-0.3,0.6-0.6,1.3-0.9,2c-9.7,4.5-18,11.2-26.3,17.7
			c-3.6,2.8-6.8,4-10.5,0.7c-3.2-2.7-3.5-6.9-0.7-11.1c10.5-16.1,23.2-30,38.8-41.2c23.6-17,50.2-25.7,78.4-31
			c22.1-4.1,44.4-7.7,64.9-18.1c19.7-9.9,28.9-25.7,29.2-47.4c0.1-9.4,0.9-18.5,8-25.6c0.3-0.3,0.2-0.9,0.2-1.4
			C293.6,155.9,294.7,155.9,295.6,155.9z"/>
		<path class="st2" d="M321.4,236.6c0.1-6.1,3.3-11.3,4.1-17.3c1.5-11.3,1.5-22.7,0-34c7.5,15.4,6.5,30.6-0.5,45.8
			c-0.6,1.4-1.4,2.7-2.2,4.1c-0.2,0.3-0.4,0.6-0.5,1C322.1,236.3,321.8,236.5,321.4,236.6z"/>
		<path class="st2" d="M325.6,185.2c-0.9-0.5-1-1.4-1.1-2.4C325.3,183.4,325.7,184.3,325.6,185.2z"/>
		<path class="st2" d="M324.5,182.8c-0.3-0.4-0.7-0.7-1-1.1C324.4,181.6,324.4,182.3,324.5,182.8z"/>
		<path class="st2" d="M147.4,581.1c3-6.7,3-6.7,8.3-3.9C153.2,579,150.4,580.3,147.4,581.1z"/>
		<path class="st3" d="M137,595.5c-0.4,0.3-0.7,0.6-1.1,0.9C136.2,596.3,136.6,595.9,137,595.5z"/>
		<path class="st7" d="M111.3,311.5c-0.1-2.9,0.2-5.8,0.7-8.6c0.5-2.7,0.9-5.1,4.5-4.8s3.1,3,2.9,5.5v2.3c0.6-0.1,1.1-0.1,1.4-0.4
			c16.7-17.7,38.4-25.6,61.4-30.8c26.1-5.9,52.6-8.6,79.2-10.4c17.2-1.1,34-4.1,48.5-14.5c-1.2,5.2-6.5,6.5-9.7,9.7
			c-2.5,2.5-6.6,2.9-7.7,6.8c-3.1,1.1-6.2,2.2-9.2,3.3c-5.8,0.7-11.4,1.4-17.2,2.1c-8.8,1-17.5,2-26.2,2.9
			c-5.6-0.1-11.2,0.5-16.7,1.7c6,1.6,11.9,3.5,17.7,5.9c-0.3,2.2-2,2-3.5,1.9c-2.3,0-4.3,0.2-5.9,2.2c-1.3-0.3-2.7-0.6-4-0.8
			c-10.1-4.2-21.2-3.9-31.6-5.5s-21.8,2.9-32.2,7.1c-10.1,2.8-19.7,6.7-27.8,13.5l0,0c-0.4,0.3-0.9,0.6-1.3,0.9
			c-1.6,1-3.2,2.2-4.8,3.2c-2-0.2-3.5,1-5.2,1.5C120.1,307.3,116.4,311.3,111.3,311.5z"/>
		<path class="st7" d="M321.4,236.6l0.9-0.3c0,1.6,0.1,3.2-2.2,3.2C320.6,238.5,321,237.5,321.4,236.6z"/>
		<path class="st6" d="M231.8,286c1.4-2,3.6-2.3,5.9-2.2c1.4,0,3.2,0.3,3.5-1.9c1.1,0.2,2.3,0.5,3.5,0.7c5.7,2.8,11.4,5.7,17.1,8.5
			l-0.1-0.1c0.4,1,1.3,1,2.2,1.1V292l0.8,0.8c5.7,3.6,11.2,7.2,16.8,10.8c1.5-2.1-0.3-3.4-0.1-4.8c0.3-1.6,0.5-3.6,2.8-3.6
			c1.9,0,4-0.9,4.6,2.4c0.4,2,0.7,4,0.8,6.1c0.2,3.1-0.7,6.5,3.5,8c1.2,0.5,1.7,1.9,1.2,3.1c-0.1,0.3-0.4,0.6-0.6,0.8
			c-4.7,4.2-3.3,9.8-2.8,14.6c0.5,6,0.8,11.9,0.8,17.9c0.1,9.9,2.5,19.6,3.2,29.3c0,1.7,1.4,3,3.1,2.9c0.1,0,0.3,0,0.4,0
			c17.8-0.9,24.7,20.5,14.2,33c-6.9,8.3-16.1,12.9-26.7,14.3c-2.8-4.9-2.2-6.4,3.2-7.9c3.2-0.7,6.2-1.9,8.9-3.7
			c6-2.3,10.5-7.4,11.8-13.7c1.5-6.8-1.5-12.2-7.8-14.4c-4-1.1-6.1-0.1-5.8,4.6c0,3.6-0.3,7.2-0.9,10.7c-0.4,2.6-2.3,3.8-4.8,3.3
			s-3-2.5-2.4-4.7c0.8-2.9,0.6-4.7-2.5-6.6s-1.4-5.7,0.3-7.6c2.8-3.2,2.5-6.3,2-9.9c-1.3-8.6-2.3-17.3-3.4-25.8
			c-0.4-11.8-0.7-23.8-1-35.6c0-1.6-0.4-3-2-3.8c-2.8-1.5-5.1-3.9-8.2-5c-11.3-8.1-23.5-14.6-36.6-19.5
			C234.8,287.2,233.3,286.6,231.8,286z"/>
		<path class="st3" d="M240,274.3c8.8-0.9,17.5-1.9,26.2-2.9c5.8-0.6,11.4-1.3,17.2-2.1c-9.1,5.8-19.2,8.3-29.3,11.2
			c-2.2,0.6-4.2,1.3-6.3,2c-0.9-0.2-1.8-0.3-2.7-0.5C244.1,279.1,240.7,277.5,240,274.3z"/>
		<path class="st8" d="M245,282.1c0.9,0.2,1.8,0.3,2.7,0.5c2.7,2.6,6.5,2.4,9.4,4.3c1.6,1.1,4.1,1.5,4.5,4.1
			c-5.7-2.8-11.4-5.7-17.1-8.4C244.7,282.5,244.9,282.3,245,282.1z"/>
		<path class="st8" d="M263.8,292c-0.8-0.1-1.8-0.1-2.2-1.1C262.3,291.3,263,291.7,263.8,292z"/>
		<path class="st8" d="M264.6,292.7l-0.8-0.8C263.7,292.6,264,292.8,264.6,292.7z"/>
		<path class="st2" d="M247.6,483.4c-2.2-13.2,5.4-28.4,17.4-34.8C260.7,461,254.3,472.3,247.6,483.4z"/>
		<path class="st2" d="M265,448.6c0.3-0.4,0.5-0.7,0.8-1.1C265.8,448.2,265.7,448.6,265,448.6z"/>
		<path class="st6" d="M111.3,311.5c5.2-0.2,8.7-4.2,13.4-5.7c1.8-0.5,3.3-1.8,5.2-1.5c-3.2,4.1-7.8,7.1-9.3,12.5l0,0
			c-0.8,0-1,0.5-1,1.2c-1.5,1.7-2.3,3.8-2.4,6c-1.3,13.3-1,26.5-0.4,39.7c0.1,2.7,0.2,5-2.5,6.6c-3.2,0.3-4.7-1.2-4.8-4.4
			c-0.1-2.4-0.2-4.7-0.3-7.1c-0.1-3,0.6-6.1-3-7.9c-1.8-0.9-0.9-3.5-1.2-5.2c0.3-4,0.7-8,1-12c2-6.5,5.2-12.8,4.4-20
			C110.8,312.9,111.1,312.2,111.3,311.5z"/>
		<path class="st8" d="M106.1,333.5c-0.3,4-0.7,8-1,12c-3.8-1.9-4.6-4.3-1.6-7.7C104.4,336.5,105.3,335,106.1,333.5z"/>
		<path class="st9" d="M201,380.6c0-9.1-0.1-18.1,0-27.2c0.1-4.4,0.5-9,3.9-12.5c1.2-1.2,2.7-2.4,4.5-1s2.6,3.3,1.2,4.9
			c-3.1,3.7-2.7,8-2.6,12.2c0.4,19.1-0.7,38.3,1,57.5c0.1,0.7,0.1,1.4,0.1,2.1c0,2.4-1,3.9-3.5,4.1s-3.5-1.3-3.7-3.8
			C200.6,404.9,200.7,392.7,201,380.6z"/>
		<path class="st10" d="M202.1,444.9c-8.6,0-17.1-1.5-25.1-4.4c-2.7-1-5.7-2-4.4-5.6s4.1-2.6,6.8-1.5c14.8,5.5,29.9,5.1,44.9,1.1
			c1.6-0.4,3.3-1.1,4.9-1.4c2.5-0.4,4.5,0.2,5.1,3s-1.1,3.6-3.3,4.2C221.7,443.3,211.9,444.8,202.1,444.9z"/>
		<path class="st2" d="M163.9,286.8c10.4-4.2,21.8-8.6,32.2-7.1s21.6,1.1,31.6,5.5c-14.2,1.5-28.4,3.2-42.6,4.7
			c-10,1-19.8,3.2-29.6,4.9C157.1,290.8,161.9,290.2,163.9,286.8z"/>
		<path class="st5" d="M134.5,335.4c-3.5,0-6.1,0.2-6.7-3s1.2-4.3,4.1-4.5c0.5,0,1.2-0.1,1.4-0.4c4.1-6,11.1-4.2,16.7-6
			s10.5,1.2,15.3,3.5c1.8,0.8,2.2,2.6,1.9,4.3c-0.4,2.1-2.1,2.6-3.9,2.7c-5.2,0.3-10.6,0.2-15.9,0.8
			C142.7,333.3,138.2,334.7,134.5,335.4z"/>
		<path class="st9" d="M246.4,329.8c5.4,3.2,12.4,0.9,16.5,6.6c0.5,0.7,1.9,0.7,2.8,1.1c2.6,0.9,5.8,1.6,4.6,5.4
			c-0.8,2.9-3.9,4.6-6.8,3.8c0,0-0.1,0-0.1,0c-8.8-2.5-17.4-4.9-26.2-6.6c-2.8-0.5-3.7-5.4-1.4-6
			C239.3,332.9,242.9,331.5,246.4,329.8z"/>
		<path class="st2" d="M273,307.3c3.1,1,5.5,3.4,8.2,5c1.5,0.8,2,2.2,2,3.8c0.3,11.8,0.7,23.8,1,35.6c-4.5-9.5-5.8-19.9-8-30.1
			C275.2,317,274.1,312.1,273,307.3z"/>
		<path class="st2" d="M301.9,387.9c6.3,2.2,9.3,7.7,7.8,14.4s-5.6,11.1-11.8,13.7c-0.4-5.2,1.4-10.3,5.1-14c3.9-4,3.4-7.1,0.5-11
			C302.8,390,302.3,389,301.9,387.9z"/>
		<path class="st10" d="M243.5,367.5c3.2,0.8,6.4,1.5,9.1,3.4c1.7,1,2.4,3.2,1.4,4.9c-0.9,2-3,2.8-4.7,1.6c-2.4-1.5-3.5-0.4-5,1.1
			c-1.1,1.2-2.8,1.1-4.2,0.2c-1.5-0.7-2.2-2.4-1.5-3.9C239.5,372.1,239.1,368.2,243.5,367.5z"/>
		<path class="st10" d="M210.8,451.7c3.1,0.1,4.7,1.1,5.1,3.6c0.3,2.3-0.7,3.4-3.1,3.8c-3.2,0.5-6.4,1.3-9.5,2.1
			c-2.1,0.4-3.9,0.1-4.6-2.2s0-4.1,2.5-4.8C204.5,453.2,208,452.5,210.8,451.7z"/>
		<path class="st9" d="M146.8,372.2c-2,0.2-3.4-0.4-3.9-2c-0.7-2.3-0.2-4.8,1.2-6.7c1-1.5,3-1.9,4.5-0.9c1.5,1.1,3.4,1.6,5.1,1.1
			c2.1-0.4,3.6,0.7,3.9,3c0.4,2-1,4-3,4.4c-0.1,0-0.2,0-0.3,0C152,371.6,149.1,371.1,146.8,372.2z"/>
		<path class="st2" d="M120.7,316.8c1.4-5.4,6.1-8.3,9.3-12.5c1.6-1,3.2-2.2,4.8-3.2c0.4-0.3,0.9-0.6,1.3-0.9l0,0
			c4,0.5,7.2-2.6,11.2-2.2c-0.4,0.5-0.8,1.1-1.3,1.3c-8.1,3.5-15.4,8.8-21.3,15.3C123.7,315.9,122.5,317.2,120.7,316.8z"/>
		<path class="st3" d="M147.3,298.1c-4-0.5-7.2,2.7-11.2,2.2c8.1-6.8,17.7-10.7,27.8-13.5c-2.1,3.5-6.8,4-8.3,7.9
			C152.8,295.9,150,297,147.3,298.1z"/>
		<path class="st2" d="M119.6,317.9c0-0.7,0.2-1.2,1-1.2C120.9,317.6,120.4,317.8,119.6,317.9z"/>
		<path class="st2" d="M116.2,575.4c-1.4-4.8-0.3-9-1.4-13c-0.5-1.5,1.1-2,2.4-1.2c2.2,1.2,6.7,0.5,5,5.1
			C121.1,569.8,119,572.9,116.2,575.4z"/>
		<path class="st2" d="M245,282.1c-0.1,0.2-0.3,0.4-0.5,0.5c-1.1-0.2-2.3-0.5-3.5-0.7c-5.8-2.3-11.7-4.3-17.7-5.9
			c5.5-1.2,11.1-1.8,16.7-1.7C240.7,277.5,244.1,279.1,245,282.1z"/>
		<path class="st3" d="M136.1,300.3c-0.4,0.3-0.9,0.6-1.3,0.9C135.2,300.8,135.6,300.5,136.1,300.3z"/>
	</g>
</g>
<g>
	<g>
		<path class="st4" d="M1945.2,460.1l2.9,0.8l-15.5,4l2.1-2.7l-1.6,13.2c-0.7-1.8-10.6-10-13.6-12.8c-8.4-8-16.5-16.3-24.7-24.5
			c-8.6-8.5-0.9-23.4,10.1-24.7c11-1.3,20,1.5,26.2,11c8.4,12.8-2.8,29.6-18.7,23.9c-32.5-11.8-66.1-17.9-100.3-22
			c-15.6-1.8-31.1-3.7-46.8-4.5c-13.6-0.7-37.7-4-50.4,1.9l12.4-12.1c-6.7,11.4-1.5,30.8,0.4,43.3l-38.3-14.9
			c21.5-15.1,58.2-24.6,70.9,6.9c6.7,16.5,1.2,37.6,3.1,55c2.5,23.8,9.8,45.3,20.2,67c12.6,26.1-27,40.5-41.2,17
			c-21.2-35.2-36.2-72.5-34.7-113.5c0.7-20.4,35.9-25.8,42.1-5.6c10.5,33.9,23.3,123.6,71.9,127.9c24.5,2.1,33.7-32.3,40.7-49.8
			c11.1-27.5,17.9-55.7,22.2-85c4.3-29,53-31.9,55.5-0.4c1.6,19-2,32.2-12.3,48.3c-12.2,19.1-38.4,9.6-47.8-5.9
			c-11.6-19.1-32.7-26.8-54.4-27.2l24.7-42.4c5.8,7,13.9,14.5,24.2,12.4l-21.2,16l1.7-4.4l0.3,20.5c-1.6-2.6-36.9-10.3-42.5-11.5
			c-7.4-1.6-15-2.8-22.5-3.7c-2.7-0.3-22.5-0.5-17.2-3.7l10.4-17.9c-1.8,10,2.9,17.4,9,25.1l-40.8-5c-3.5,6.3-4.4,6.4-2.5,0.3
			c1-3.9,2-7.7,3.2-11.6c3.6-8.3,10.1-15,18.3-18.9c17.5-8.6,36.4-1.9,49,11.4c29.4,31.1,46.2,73.7,54,114.4
			c3.9,20.3-15.4,36.9-35.3,35c-38-3.6-66.1-52.7-48.6-86.1c21.2-40.3,80.8-18,98.4,14c16.8,30.5,2.3,80.6-41.6,71.8
			c-44.6-9-45.4-69.9-23-98.8c32.6-41.9,81.4-0.3,78.1,41.1c-2.8,34.5-29.6,66-65.9,71.2c-39.1,5.7-77.9-18.1-90.3-54
			c-7-20.2-2.6-39.9-4.6-60.4c-2.2-22.1-18.9-34.1-35.9-47.1l51-28.9l0.7,11.9c2.2,39.4-60.8,48.6-63.3,8.8l-0.7-11.9
			c-1.6-25.7,27.4-46.8,51-28.9c36.7,27.7,61.3,56.8,61.7,103.3c0.1,13.5-5.2,38.6,12.4,44.4c5.8,1.9,10.1,1.2,14.5-2.6
			c2-2.1,3.6-4.6,4.5-7.3c0-8.8,4.6-6.9,13.9,5.8l23.8-6.3c3.6-3.5-1.2,11.4-0.7,10.8c-0.7,0.8-53.6,10.1-41.4,3.8l16.9-16.5
			c-0.5-7-0.1-6.4,1,1.7c3,5.4,1.6,5.2-4.3-0.6l-35.3,35c-3-16.5-8.2-32.6-15.4-47.7c-3.7-7.7-8-15.2-12.8-22.3
			c-2.6-3.8-15.6-14.3-7.6-10.8l24.2-0.1c5.7-1.6,7.3-13.9,6.7-4c-0.3,4-2.9,8.4-4.9,11.7c-4.7,8-11,12.7-19.5,16.8
			c-10.4,5-27.9,1.4-34.4-8.7c-15.2-23.4-35.2-68-3.7-87c29.5-17.8,83.7-0.3,114,10.3c16.9,5.9,35.8,12.5,45.2,28.3
			c7.8,13.1,6.4,30.9-6.8,40.6c-27.8,20.4-70.3-5.8-88.1-27c-16.6-19.6,2.6-42.6,24.7-42.4c38.7,0.3,75.4,20.5,95.4,52.7l-44.1,0.1
			l1.3-7.8l55.5-0.4c-6.1,41.1-18.1,81.7-36.7,119.1c-15.2,30.4-35.8,57.8-74,58.2c-85.2,0.7-101.2-100.7-120.2-160.5l42.1-5.6
			c-1,33.3,17.4,62.1,32.1,91.1l-41.2,17c-8.9-22.4-15.3-45.7-19-69.4c-1.7-11.1-2.7-22.3-2.8-33.6c-0.1-3.7-1.8-12.9,0.1-16
			c-1.2-5,0.2-5.9,4.1-2.5c6.1,1.5,5.6,4.1-1.6,7.9c-12.8,14.5-39.6,9.7-42.5-10.8c-3-21-10-54.8,6.1-72.4
			c15.2-16.7,44.5-12.6,65.2-12.3c61.5,1,117.1,17.8,172.6,42.8l-18.7,23.9l3.9,0.6l10.1-24.7c11.7,12.1,57.1,45,31.3,63.4
			c-5.1,3.6-11,3.1-16.1,0l-2.5-1.5C1919.5,473.3,1932.5,456.4,1945.2,460.1L1945.2,460.1z"/>
		<path class="st4" d="M1821.2,629.2c-38.2,32.4-76.6-18.6-88.2-49.4c-20.9-55.3-41.4-110.6-65.9-164.6
			c-10.6-23.4,26.6-38.6,37.4-15.4c19.4,41.4,37.2,83.4,52,126.5c6.4,18.7,11,38.7,19.7,56.5c10.2,20.9,28.7,24.6,44.9,38.6
			c2.2,1.6,2.6,4.7,1,6.9C1821.9,628.7,1821.6,629,1821.2,629.2L1821.2,629.2z"/>
		<path class="st4" d="M1943,439.3c-19.5-2.2-36.7-10.3-56-13.6c-20.1-3.5-42.1-4.7-62.4-4.5c-32,0.3-30-45.8-0.7-40.7
			c41.1,7.2,94.2,20.4,123.6,50.8C1950.7,434.7,1947.1,439.7,1943,439.3L1943,439.3z"/>
		<path class="st2" d="M1671.4,430.7c0.1-6.9,9.4-9.5,14.4-5.8c9.2,6.6,13.4,16.7,6.6,27.1c-9.2,13.8-30.6,10.5-44.6,12.2
			c-8.6,1.1-14.5-10.4-7-15.6l7-14.3l-9.2-15c8.7-2.6,17.7-3.7,26.8-3.1c11.1,0.6,9.3,15,0.3,17.3l-19.3,5.2l-0.3-17.3l17.7-15.3
			l7.9,7.4l-11.9-1.1c-11.6-1.1-9.5-18.4,2.1-17.3l11.9,1.1c3.5,0.3,7.8,3.7,7.9,7.4c0.4,22.3-14.4,36.9-37.8,35.1
			c-11.1-0.8-9.4-14.9-0.3-17.3l19.3-5.1l0.3,17.3l-17.4,1.9c-9.6,2.8-17.3-8.1-9.2-15c8.7-7.5,21.8-6.6,29.3,2.1
			c0.5,0.5,0.9,1.1,1.3,1.7c10.7,14.9-3.1,29.9-15.2,38.1l-7-15.6c1.8-0.2,36.4-3.4,29.9-8.1l14.4-5.8"/>
		<path class="st2" d="M1947.7,419.7c21.7-9.2,46.8-3.5,62.4,14.2c4.9,5.5-0.5,15.6-8.2,14l-44.5-9.3l8.2-14
			c7.2,10.2,15.7,19.4,25.2,27.4l-12.6,12.3l-13.1-12.8c-7.5-7.3,4.5-17.8,12.6-12.3c14.7,10.1,26.9,23.3,35.8,38.7
			c5.8,9.9-10.9,16.6-16.6,6.8c-7.6-12.7-17.8-23.5-30.1-31.7l12.5-12.2l13.1,12.8c7.2,7.1-4.8,18.8-12.6,12.3
			c-10.8-8.9-20.4-19.2-28.5-30.6c-4-5.7-0.1-15.8,8.2-14l44.5,9.3l-8.2,14c-10.4-11.6-26.6-14.8-40.9-8.8
			C1944.2,440.3,1937,424.2,1947.7,419.7L1947.7,419.7z"/>
		<path class="st9" d="M1963.8,470.8c-1.4-8.7-6.5-14.7-14.4-18.3c-1.9-0.9-3.9-1.4-5.1,1c-1.2,2.3,0.5,3.4,2.4,4.4
			c1.6,0.8,3.2,1.7,4.6,2.7c6.1,4.7,8.6,13,5.9,19.6c-2.9,7-10,11.2-17.6,10.4c-2.9-0.3-5.7-1.1-8.6-1.7c0.4-4.2,0.9-8.3,1.4-12.3
			c0.3-2.3,0.3-4.6-2.6-4.7c-2.4-0.2-2.9,1.9-3.2,4c-0.8,7-1.8,14.2-3,21.2c-4.9,26.8-12.5,52.7-24.9,77.1c-0.9,1.8-4.9,9-5.9,10.6
			c-4.8,11.5-17.9,23.8-19.3,25.1c-4.7,7.9-26.4,18.9-31.4,19.7c-3.8,0.6-7.6,1.9-11.4,2.5c-7.3,1.3-20.4-0.3-23.2-0.7
			c-2.2-0.3-4.4-0.9-6.6-1.4c-1.9-0.4-11.3-3.2-13-4.1c-3.7-1.8-6.9-3-11-5.2c-1.8-0.8-7.8-4.8-10-6.5c-4.8-3.9-9.4-8.1-13.6-12.6
			c-5.1-5.8-9.3-11.7-11-14.4c-4-6.5-7.7-13.2-11-20.1c-0.9-1.9-5.5-12.6-6.2-14.8c-6.8-18.5-11.4-37.6-14.6-56.9
			c-1.7-9.5-3-18.9-4.5-28.4c-0.3-1.4-0.3-3-2.3-3.2c-1.5-0.2-3,0.5-3.7,1.9c-0.3,0.6-0.6,1.1-1,1.7c-1,1.4-1.9,3-3.7,2.8
			c-2.2-0.2-2.4-2.3-2.9-4c-2-6.6-1.6-13.2-0.2-19.8c1.2-5.7,7.5-9.2,13.4-7.9c3,0.6,4.6-1.2,3.8-4.2c-1-3.9-5.6-7.6-9.7-6.3
			c-4.7,1.6-9.5,1-14.1,2.4c-15.6,5-30.5,12-44.3,20.9c-1,0.6-1.9,1.3-2.8,1.9c-1.4,0.9-2.1,2.2-1.2,3.7c0,0.1,0.1,0.2,0.2,0.3
			c0.8,1.4,2.7,1.8,4,1c1.1-0.6,2.2-1.3,3.3-2.1c11.3-7.4,23.4-13.4,36.1-17.9c2.1-0.8,4.2-2.3,6.9-1.5c-3.1,7.3-4.1,15.3-2.6,23.1
			c1.3,7.8,3.6,15.6,10.2,20.4c0.1,0.1,0.3,0.2,0.4,0.3c1.8-0.2,5.6-2,5.8-4c0.4,1.3,0.5,1.7,0.6,2.2c3.7,23.5,8.3,47,16,69.6
			c1,2.8,6.2,15.6,7.3,18.3c2.3,5.5,5.2,10.8,7.9,16.1c1.9,3.4,10.2,15.6,11.5,17.5c5.3,7.2,11.6,13.6,18.7,19
			c2,1.5,5.9,4.8,17.9,10.7c2.9,2.2,26.3,7.8,31.3,8.3c2.2,0.3,11.9,0.3,14.7,0.1c3.5-0.4,7.1-0.9,10.5-1.7
			c3.2-0.7,15.5-5.1,17.1-5.9c15.6-7.3,25.6-20.1,27.8-22.5c5.4-6.1,10.2-12.6,14.3-19.6c0.5-0.8,4.6-8.2,5.8-10.5
			c13.3-25.2,21-52.2,26.1-80.1c0.6-3.2,1.3-3.7,4.5-2.7C1950.7,500.7,1966.6,487.6,1963.8,470.8z"/>
		<path class="st11" d="M1743.8,379.5c-2.9,3.9-7,5.7-11.6,6.3c-6.2,1.2-12.5,1.9-18.8,2c-5.6-0.1-11,0.9-16.4,1.7
			c-9.2,1.5-18.6,0.5-27.2-2.8c-1.9-0.8-3.9-2.6-6.3-1.4l0.2-0.1c0.3-1-0.4-1.1-1.1-1l0.1,0.1c-0.2-1.3-1-1.3-1.9-1.2h0.1
			c-0.1-0.9-0.9-0.9-1.6-1.1c-1.5-0.5-2.7-1.5-3.4-2.8c5.3-0.4,10.4,1.2,15.9,0.2c12.3-2.3,27.5-14.1,26.3-27.7
			c-0.2-1.8,0.7-2.5,2.4-2.9c2-0.5,4.1-0.8,6.2-0.8c15.6,0.2,30.9,3.1,46.1,6.4c22.6,5.1,44.4,13.3,66.5,20.5
			c1.1,0.4,2.2,0.5,2.7,1.8c-8.4-0.9-16.8-1.9-25.2-2.6c-34-2.9-68.3-1-101.8,5.7c-2.3,0.5-5.5,0.6-4.6,4.1c0.8,3.2,3.5,2,5.7,1.6
			C1711.9,382.5,1727.7,380.2,1743.8,379.5z"/>
		<path class="st12" d="M1635.5,322.6c0.3-0.4,0.7-0.7,1-1.1c0.6,0,1.1,0,1.2-0.8l0,0c5.3-0.9,10.2-2.6,15.6-3.3
			c14.3-1.7,28.4-0.8,42.6,0.8c3.1,0.3,4.3,0,4.1-3.5c-0.3-5.7-0.1-11.3-0.1-17l0.4,0.1c2,0.2,4,0.3,5.9,0.5
			c0.5,3.4-0.9,6.9,0.5,10.5c3.5-2.9,6-6.5,9.8-8.8c2.4-0.4,4.7,0.5,7,1.1c-2.7,3.3-6.7,5.2-9.1,8.9c-1.2,1.1-2.9,2.1-3.4,3.3
			c-1,2.5-5.9,2.4-4.7,5c1.3,2.5,5.3,1,8.1,1.5c2.2,1.2,4.8,0.7,7.2,1c39.7,5.6,78.1,16.4,115.5,30.6l46,17.3l0,0
			c0.7,0.4,1.3,0.7,1.9,1.1c2.3,1.2,4.7,2.4,7,3.6c0.4,0.7,1.3,1.1,2.1,0.9l0,0c0,2.2,2.2,2.5,3.3,3.8c1.4,1.6,2.9,2.9,2.4,5.4
			c-1.8-0.8-3.6-1.5-5.4-2.3c-45.4-19.4-91.1-38.1-139.7-48.4c-30.4-6.4-61.3-9.9-92.3-10.5c-10.5-0.2-20.9,1.1-28.9,9.1
			C1632.9,328.1,1634.7,325.6,1635.5,322.6z"/>
		<path class="st9" d="M1635.5,322.6c-0.8,2.8-2.6,5.5-2,8.7v0.1c-0.3,0.4-0.6,0.7-0.9,1.1c0,0.4-0.1,0.9-0.1,1.3
			c-4.2,6.4-2.5,12.6,1,18.7v0.3c0.1,0.6,0.2,1.2,1,1.3l-0.1-0.1c-0.2,0.9,0.3,1.7,1.1,2l-0.1-0.1c0.4,0.7,0.7,1.3,1.1,1.9l0,0
			c0.3,0.4,0.6,0.9,1,1.3c4.8,7.2,10.3,13.8,17.6,18.7c-0.2,0.6,0.2,1.3,0.8,1.4c0,0,0.1,0,0.1,0h-0.1c0.7,1.4,1.9,2.4,3.4,2.8
			c0.5,0.4,1,0.7,1.6,1.1h-0.1c0.4,0.8,0.7,1.9,1.9,1.2l-0.1-0.1c-0.4,1.1,0.1,1.3,1.1,1l-0.2,0.1c9.2,8.7,19.4,16.1,30.6,22.1
			c3,1.7,5.9,3.7,8.6,5.9c1.6,1.2,3,2.2,1.6,4.2c-1.2,1.7-2.8,2-4.7,0.9c-2.7-1.5-5.3-4.2-8.7-1.7c-4.4,1.7-8.8,3.3-13.3,5
			c4.8-0.1,9.4-1.6,13.4-4.2c1.9-0.2,4.1-0.5,4.7,2.2c0.6,2.7-1.5,3.2-3.3,4c-12.2,5.3-25.3,8.5-38.6,9.4c-3.8,0.3-7.6,1-11.5,0.2
			c-2-0.4-4.1-0.5-3.8-3.3c0.3-2.6,2.2-2.7,4.3-2.7c4.9,0,9.8-0.2,14.6-0.4c1.1,0,3.1-0.4,3.1-0.8c0.8-7.2,7.6-5.8,11.6-8.1
			c3.2-2,7.3-2.5,10.8-4.9c-16-7-32.8-12-50.1-14.9c-0.2,0-0.3-0.1-0.5-0.1c-2.4-0.2-4.9-0.8-4.4-3.8c0.6-3.4,3.5-2.3,5.6-2
			c10.3,1.7,20.4,4.1,30.3,7.3c2.7,0.9,5.5,1.7,8.9,2.7c-0.7-2.7-2.6-3.4-4-4.5c-11.9-9.7-23-20.2-33.3-31.6
			c-4.7-5.2-8.8-10.8-11-17.6C1620.8,337.3,1625,327.6,1635.5,322.6z"/>
		<path class="st5" d="M1743.8,379.5c-16.1,0.9-32,2.8-47.8,5.9c-2.2,0.4-4.9,1.7-5.7-1.6c-0.9-3.6,2.2-3.7,4.6-4.1
			c33.5-6.6,67.8-8.5,101.8-5.7c8.4,0.7,16.8,1.8,25.2,2.6c3.8,0.7,7.6,1.4,11.4,2c14.8,2.5,29.3,6.6,43.8,10.3l32.7,11.7l22.3,10.3
			c2,1.8,5.9,1.6,6.1,5.3c-0.3,0.7-0.2,1.7-1.3,1.9h-3c-8.5-3.8-16.9-7.6-25.4-11.3c-1.5-0.5-3-1-4.5-1.4c-0.8-0.5-1.6-1-2.4-1.5
			c-20-7.9-40.7-13.9-61.8-18.1c-8.9-1.8-17.7-4.1-26.8-3.8c-17.6-3.5-35.4-3.5-53.2-3.4C1754.6,378.7,1749.2,379.2,1743.8,379.5z"
			/>
		<path class="st13" d="M1938.4,416.2c-0.4-3.7-4.1-3.5-6.1-5.3c0.2-3.3-2.3-6-2-9.3c6.2,3.8,11.5,8.9,16.6,14.1
			c1.6,1.6,3.2,2.5,5.1,0.9c1.9-1.7,0.8-3.5-0.7-5c-4-3.8-8-7.5-12-11.3c5.8-0.6,6.1-1.3,4.3-6.9c-1-2.9-1.9-5.9-2.5-8.8
			c-2.1-10-4-19.8-6.1-29.8l0.3-1.2c18.3,7.9,31.5,20.3,34.8,40.8c2.5,15.4-11.8,27.5-27,23.2
			C1941.4,417.3,1939.9,416.7,1938.4,416.2z"/>
		<path class="st9" d="M1723.5,301.1c-2.3-0.6-4.6-1.5-7-1.1c0.1-0.2,0.1-0.5,0-0.7c30.8-24.9,66.4-28.9,103.9-23.2
			c7.2,1.1,14.3,2.8,21.5,4.4c1.9,0.4,3.7,0.9,5.8-0.5c-2-2.9-5.2-4.5-8.7-4.5c-2.4,0-4.4-0.8-4.2-3.5c0.2-2.7,2.6-2.3,4.5-2.3
			c7,0,13.3,4.5,15.6,11.1c1,3.1,2.6,4.4,5.6,5.2c13,4,25.5,9.4,37.3,16.1c0,0.3,0,0.6,0.2,0.8c-2.5,0-5.2-0.4-6.9,2.2l-1.8-0.3
			c-9.6-5.6-20-9.9-30.7-12.7c-12-4.9-24.7-8.1-37.6-9.7c-0.4-0.3-0.8-0.5-1.3-0.7c-16.6-2.3-33.2-3.1-49.8-0.3s-31.8,8.9-45.2,19.3
			C1724.4,301,1724,301.1,1723.5,301.1z"/>
		<path class="st13" d="M1699.9,297.8c0,5.7-0.2,11.3,0.1,17c0.2,3.5-1.1,3.8-4.1,3.5c-14.1-1.6-28.3-2.5-42.6-0.8
			c-5.4,0.7-10.3,2.4-15.6,3.3c1.5-6.6,6.6-10.2,11.4-13.8c8.8-6.6,19.3-9,30.1-9.8C1686.1,296.9,1693,296.4,1699.9,297.8z"/>
		<path class="st9" d="M1899.9,441.3c7.5,1.8,14.9,3.4,22.4,5.2c1.3,0.3,2.5,0.7,3.8,0.9c2.3,0.4,4.4,1.3,3.9,3.9
			c-0.5,3.1-3.1,2.3-5.1,1.9c-11.7-2.6-23.3-5.5-35.1-7.9c-7.5-1.6-14.5-5.3-22.4-5.4c-1.9,0-3.2-0.7-3.1-2.8
			c0.1-2.2,1.6-3.1,3.6-3.1c4.1,0,8.1,0.1,12.2,0.1c4.9,0,9.9,0,14.8-0.4c-7.6-3.3-15.6-4.9-23.6-6.6c-1-0.2-2-0.4-2.8-0.6
			c-2-0.6-2.4-2-2.1-3.8c0.4-1.8,1.9-2.1,3.4-1.8c6.6,1.4,13.4,2.5,20,4.1c10.2,2.5,20.3,5.7,30.1,9.7c2,0.8,3.7,1.7,2.9,4.1
			c-0.7,2.2-2.4,1.9-4.4,1.8c-6.1-0.2-12.2-0.1-18.3-0.1C1900,440.7,1900,441,1899.9,441.3z"/>
		<path class="st9" d="M1967,446.1c0.6,2.3,2.4,2.6,3.7,3.4c9,5.8,18.1,11.5,27,17.3c1.9,1.2,3.9,2.5,2.2,5s-3.6,1.4-5.5,0.1
			c-18.9-12.8-38.6-24.5-58.8-35c-1.8-1-3.6-2-2.8-4.4c0.9-2.7,2.9-1.6,4.8-1.5c13.4,0.7,26.1,4.7,39.2,6.3c5.1,0.6,5.6,4.9,7.4,7.7
			c1.3,2-1.2,3.6-3.8,3.2C1976.1,447.4,1971.7,446.7,1967,446.1z"/>
		<path class="st5" d="M1748,430c0.6,2.2,2.1,1.8,3.2,1.9c5.4,0.6,10.6,1.3,16,1.9c2.1,0.2,3.6,0.8,3.6,3c0,1.9-1.3,2.7-3.2,3
			c-2.5,0.3-5.2,0.4-6,3.6c-0.3,1-1.5,1.2-2.5,1.2c-9-0.4-17.8,1.8-26.6,2c-2.2,0-4.9,0.7-5.3-2.6c-0.3-3.1,2.2-2.9,4.3-3.3
			c4.6-0.7,9.2-1.9,13.6-3.5c-7.3-0.8-14.6-1.6-22-2.4c-1.9-0.2-4.3-0.1-4.5-2.8s1.9-3.3,4.1-3.8c15-3.8,30.5-4.9,45.9-3
			c2.3,0.3,4.4,0.8,4.1,3.6c-0.3,2.6-2.5,2.5-4.6,2.2C1761.4,430,1754.7,429.7,1748,430z"/>
		<path class="st9" d="M1818.9,521.8c-11.6,0.8-11.7,1-8.8-10.2c5-19.3,9.6-38.7,14.4-58.1c0.5-2.2,0.2-5.7,3.9-4.7
			c3.1,0.9,2.3,3.7,1.7,6.1c-4.6,18.5-9.2,37.2-13.8,55.7c-1.5,5.8-1.4,5.8,4.7,5.4c1.6-0.2,3.3-0.2,4.9-0.2
			c1.7-0.1,3.2,1.2,3.3,2.9c0,0.2,0,0.4,0,0.5c0,2.2-1.7,2.4-3.4,2.4H1818.9z"/>
		<path class="st12" d="M1891.1,305.2c1.8-2.5,4.4-2.1,6.9-2.1c2,1.2,3.9,2.2,5.8,3.4c10.2,6.7,18,15.6,24.4,25.9l0,0
			c-0.2,0.8,0.1,1.7,0.9,2.2c2.1,6.3,4,12.7,6,19c-0.1,0.4-0.2,0.8-0.3,1.2c-1.6,2.5-0.4,5.4-0.8,8c-0.4,2.6,1.2,5.5-1.3,7.7
			c-1-0.7-0.6-1.8-0.7-2.7c-1.9-16.4-6.1-31.8-17.7-44.4C1907.7,316,1899.4,310.5,1891.1,305.2z"/>
		<path class="st11" d="M1813.1,382.1c9.2-0.3,18,2.1,26.8,3.8c21.1,4.1,41.9,10.2,61.9,18.1c0.9,0.4,1.7,0.9,2.4,1.5
			c-4.5,3.6-9.2,2.1-13.7,0.4c-19.5-7.6-39.1-14.5-59.5-19.4C1825,385.1,1819.1,383.6,1813.1,382.1z"/>
		<path class="st10" d="M1803,553.5c1.8,2.9,3.2,5.4,4.6,7.8c0.9,1.6,1.2,3.2-0.5,4.3c-1.7,1.1-3.4,0.6-4.5-1.2
			c-2.1-3.3-4.2-6.6-6-9.9c-1.6-2.7-0.2-5.5,1.1-7.6c1.3-2.3,3.7-0.8,5.6,0c5.9,2.2,12,3.8,18.2,4.8c2.2,0.4,4.6,0.8,4.1,3.6
			c-0.5,3.1-3,2.7-5.4,2.2C1814.6,556.1,1809.1,554.9,1803,553.5z"/>
		<path class="st10" d="M1934.1,418.2h2.9c-0.4,2.5,1.7,1.8,2.9,2c9.1,1.7,18.1,3.2,27.2,4.8c2.3,0.4,4.7,0.9,4.2,4.1
			c-0.5,3.2-3.1,2.2-5,1.8c-10.3-1.8-20.7-3.6-31-5.5c-2.2-0.4-5.2,0-5.6-3.4C1929.5,418.5,1933.1,419.9,1934.1,418.2z"/>
		<path class="st10" d="M1883.2,473c-0.3,3-2.4,5.3-4.8,4.1c-6-2.8-11.9-0.7-18-0.5c-1.1,0.1-2.2,0-3.3-0.3
			c-1.4-0.5-1.8-1.8-1.7-3.2c0-1.3,1.1-2.3,2.4-2.3c0,0,0.1,0,0.1,0c6.6-0.5,13.2-1.1,19.8-1.6C1880.7,469,1882.4,470.4,1883.2,473z
			"/>
		<path class="st11" d="M1928.3,332.4c-6.4-10.3-14.3-19.1-24.4-25.9c-1.9-1.3-3.9-2.3-5.8-3.4c-0.1-0.2-0.2-0.5-0.2-0.8
			c9.7-0.7,16.9,3.8,22.4,11.1C1924.5,319,1927.7,325.1,1928.3,332.4z"/>
		<path class="st10" d="M1969.9,462.3c1.5-0.1,9.6,6.6,10,8.2c0.3,1.2-0.2,2.3-1.2,3c-0.9,0.8-2.2,0.9-3.2,0.2
			c-2.5-2-5.1-4.1-7.4-6.2c-1-1-1.1-2.5-0.4-3.6C1968,462.9,1968.9,462.3,1969.9,462.3z"/>
		<path class="st10" d="M1755.1,467.8c1.8,0,3.6,1.1,2.9,4.1c-0.5,2.3,0.7,6.1-3,6.1c-4.2,0-3.7-4.3-4.4-7
			C1750,468.5,1751.8,467.6,1755.1,467.8z"/>
		<path class="st11" d="M1716.5,299.5c0.1,0.2,0.1,0.5,0,0.7c-3.7,2.3-6.2,5.9-9.8,8.8c-1.4-3.7,0-7.2-0.5-10.5
			c0.1-0.1,0.3-0.2,0.5-0.2C1710,298.6,1713.4,299.1,1716.5,299.5z"/>
		<path class="st11" d="M1690.8,417.3c-3.9,2.7-8.6,4.2-13.4,4.2c4.4-1.7,8.8-3.3,13.3-5C1691,416.6,1691.1,416.9,1690.8,417.3
			C1690.9,417.2,1690.9,417.2,1690.8,417.3z"/>
		<path class="st11" d="M1929.2,334.6c-0.8-0.4-1.1-1.3-0.9-2.2C1929.5,332.7,1929.4,333.6,1929.2,334.6z"/>
		<path class="st13" d="M1637.7,320.9c-0.1,0.8-0.6,0.8-1.2,0.8C1636.7,320.9,1637,320.6,1637.7,320.9z"/>
		<path class="st14" d="M1877.2,389c-14.5-3.8-29-7.8-43.8-10.3c-3.8-0.7-7.6-1.4-11.4-2c-0.5-1.3-1.8-1.4-2.7-1.8
			c-22.1-7.2-43.8-15.4-66.5-20.5c-15.1-3.4-30.5-6.2-46.1-6.4c-2.1,0.1-4.2,0.3-6.2,0.8c-1.8,0.4-2.6,1.2-2.4,2.9
			c1.3,13.7-13.9,25.4-26.3,27.7c-5.5,1.1-10.6-0.6-15.9-0.2h0.1c-0.3-0.5-0.7-1-1-1.5c-7.2-5-12.8-11.5-17.6-18.7
			c-0.3-0.4-0.6-0.9-1-1.3l0,0c-0.2-0.8-0.2-1.7-1.1-1.9l0.1,0.1c0-0.9-0.1-1.7-1.1-2l0.1,0.1c-0.3-0.4-0.7-0.8-1-1.3v-0.3
			c-0.5-6.2-1.5-12.4-1-18.7c0-0.4,0.1-0.9,0.1-1.3c0.3-0.4,0.6-0.7,0.9-1.1v-0.1c8.1-8,18.4-9.3,28.9-9.1c31,0.5,61.9,4,92.3,10.5
			c48.6,10.3,94.3,29,139.7,48.4c1.8,0.8,3.6,1.5,5.4,2.3c0.1,0.3,0.1,0.5,0.2,0.8c-0.1,3.9-2.8,4.8-6,4.8
			C1888.5,389.1,1882.8,389,1877.2,389z"/>
		<path class="st0" d="M1662.7,384.3c-1.3,0.7-1.6-0.4-1.9-1.2C1661.8,382.9,1662.5,383,1662.7,384.3z"/>
		<path class="st0" d="M1660.9,383.1c-0.5-0.4-1-0.7-1.6-1.1C1660,382.2,1660.7,382.2,1660.9,383.1z"/>
		<path class="st0" d="M1663.6,385.2c-0.9,0.2-1.4,0-1.1-1C1663.3,384.1,1664,384.2,1663.6,385.2z"/>
		<path class="st13" d="M1724.8,300.9c13.4-10.4,28.5-16.5,45.2-19.3s33.2-2.1,49.8,0.3c0.5,0.1,0.9,0.4,1.3,0.7
			c7.4,2.6,14.9,5.1,22.2,8.1c5.1,2.2,9.9,4.3,15.4,1.6c10.8,2.8,21.1,7,30.7,12.7c-4.7,4.8-6.6,11.7-5.3,18.2
			c1.4,7,4.4,13.6,8.8,19.2c9.1,12.4,16.1,26.3,20.6,41c-6.6-2.8-12.6-6.9-19.4-9.1l0,0c-0.4-0.7-1.2-1.1-2-0.9
			c-2.3-1.2-4.7-2.4-7-3.6c-0.2-1.2-1-1.3-2-1.1l0,0c-4.1-5.3-10.1-7.9-15.4-11.3c-35.1-22-73.3-38.7-113.3-49.4
			C1744.7,305.3,1734.7,303.3,1724.8,300.9z"/>
		<path class="st14" d="M1724.8,300.9c9.9,2.3,19.9,4.4,29.6,7c40,10.7,78.2,27.4,113.3,49.4c5.4,3.4,11.3,6,15.4,11.3l-46-17.3
			c-37.5-14.2-75.7-25.1-115.5-30.6c-2.4-0.3-4.9,0.1-7.2-1v-9.8c2.3-3.7,6.3-5.6,9.1-8.9C1723.9,301.1,1724.4,301,1724.8,300.9z"/>
		<path class="st5" d="M1894.1,374.2c6.9,2.1,12.9,6.2,19.4,9.1l17.3,10.8c2.7,2.1,5.5,4,8.2,6.1l0.1,0.1c4,3.8,8,7.5,12,11.3
			c1.6,1.5,2.7,3.1,0.7,5c-1.8,1.7-3.5,0.7-5.1-0.9c-5.1-5.2-10.3-10.3-16.6-14.1c-5.3-4.6-11.6-7.6-17.5-11.2
			c-4-2.5-8.3-4.6-12.7-6.2c-0.1-0.3-0.1-0.5-0.2-0.8c0.6-2.4-1-3.8-2.4-5.4C1896.3,376.8,1894.1,376.4,1894.1,374.2z"/>
		<path class="st11" d="M1714.4,310v9.8c-2.8-0.4-6.8,1.2-8.1-1.5c-1.3-2.6,3.7-2.4,4.7-5C1711.6,312.1,1713.4,311.1,1714.4,310z"/>
		<path class="st14" d="M1883.2,368.7c1-0.2,1.8-0.1,1.9,1.1C1884.5,369.3,1883.8,369,1883.2,368.7z"/>
		<path class="st5" d="M1892.2,373.4c0.8-0.1,1.6,0.3,2.1,0.9C1893.4,374.2,1892.6,374.1,1892.2,373.4z"/>
		<path class="st13" d="M1632.6,333.7c-0.5,6.2,0.5,12.5,1,18.7C1629.9,346.3,1628.3,340.2,1632.6,333.7z"/>
		<path class="st13" d="M1635.4,355.7c1,0.3,0.9,1.2,1.1,1.9C1636.1,357.1,1635.8,356.3,1635.4,355.7z"/>
		<path class="st13" d="M1634.4,353.7c1,0.4,1,1.2,1.1,2.1C1634.7,355.5,1634.2,354.6,1634.4,353.7z"/>
		<path class="st13" d="M1636.5,357.6c0.3,0.4,0.6,0.9,1,1.3C1637.1,358.5,1636.8,358.1,1636.5,357.6z"/>
		<path class="st12" d="M1633.6,331.4c-0.3,0.4-0.6,0.7-0.9,1.1C1632.9,332.1,1633.2,331.7,1633.6,331.4z"/>
		<path class="st13" d="M1633.6,352.6c0.3,0.4,0.7,0.8,1,1.3C1633.8,353.7,1633.7,353.2,1633.6,352.6z"/>
		<path class="st11" d="M1654.9,377.6c0.3,0.5,0.7,1,1,1.5C1655.2,379,1654.8,378.4,1654.9,377.6z"/>
		<path class="st11" d="M1900.1,384.1c4.4,1.6,8.7,3.7,12.7,6.2c-0.5,3.5-0.9,7.1-2.8,10.2c-11-3.9-21.8-7.8-32.7-11.7
			c5.7,0,11.3,0.1,16.9,0C1897.3,388.9,1900,388,1900.1,384.1z"/>
		<path class="st8" d="M1909.9,400.6c1.9-3.1,2.3-6.7,2.8-10.2c5.9,3.6,12.2,6.6,17.5,11.2c-0.4,3.3,2.2,6,2,9.3
			C1924.8,407.5,1917.4,404,1909.9,400.6z"/>
		<path class="st9" d="M1939.1,400.3L1939.1,400.3c-1.8-6.4-3.4-12.8-5.1-19.1v-5.4c0-1.2,0.4-2.4-0.8-3.4c-0.1-0.6-0.3-1.3-0.4-1.9
			c2.4-2.2,0.9-5.2,1.3-7.7c0.4-2.5-0.8-5.5,0.8-8c2.1,9.9,4,19.9,6.1,29.8c0.6,3,1.5,5.9,2.5,8.8
			C1945.3,399,1944.9,399.7,1939.1,400.3z"/>
		<path class="st14" d="M1934,375.7v5.4c-1.1,4.3-2.2,8.7-3.2,13l-17.3-10.8c-4.5-14.7-11.5-28.6-20.6-41
			c-4.2-5.8-7.5-11.9-8.8-19.2c-1.3-7.3,0.6-13,5.3-18.2l1.8,0.3c8.3,5.4,16.6,10.8,23.3,18.1c11.6,12.6,15.8,28,17.7,44.4
			c0.1,1-0.2,2,0.7,2.7c0.1,0.6,0.3,1.3,0.4,1.9C1933.2,373.6,1933.1,374.7,1934,375.7z"/>
		<path class="st8" d="M1858.6,292.2c-5.5,2.7-10.3,0.7-15.4-1.6c-7.2-3-14.7-5.5-22.2-8.1C1834,284.1,1846.6,287.3,1858.6,292.2z"
			/>
		<path class="st11" d="M1930.8,394.1c1.1-4.3,2.2-8.7,3.2-13c1.7,6.3,3.3,12.7,5,19C1936.3,398.1,1933.6,396.2,1930.8,394.1z"/>
		<path class="st12" d="M1934,375.7c-0.8-1-1.1-2.2-0.8-3.4C1934.4,373.3,1934,374.5,1934,375.7z"/>
	</g>
</g>
</svg>
