<?xml version="1.0" encoding="utf-8"?>
<!-- Generator: Adobe Illustrator 19.0.0, SVG Export Plug-In . SVG Version: 6.00 Build 0)  -->
<svg version="1.1" id="Capa_1" xmlns="http://www.w3.org/2000/svg" xmlns:xlink="http://www.w3.org/1999/xlink" x="0px" y="0px"
	 width="2015.3px" height="662.7px" viewBox="733 -276.7 2015.3 662.7" style="enable-background:new 733 -276.7 2015.3 662.7;"
	 xml:space="preserve">
<style type="text/css">
	.st0{fill:#FEFEFE;}
	.st1{fill:#CD3434;}
	.st2{fill:#251915;}
	.st3{fill:#1F1F1F;}
	.st4{fill:#E37272;}
	.st5{fill:#241712;}
	.st6{fill:#241611;}
	.st7{fill:#220B09;}
	.st8{fill:#6FC0E0;}
	.st9{fill:#0E1312;}
	.st10{fill:#6FC2E2;}
	.st11{fill:#2A1F1A;}
	.st12{fill:#FDFDFD;}
	.st13{fill:#3194CA;}
</style>
<g id="Capa_2">
</g>
<g id="Capa_1_1_">
	<g>
		<path class="st0" d="M771.4,28.3c0,0,28.6-150.7,227.1-152.1l0.8-18.4c0,0,4.2-104.9,0-107.7s1409.2,23.8,1409.2,23.8l-1.4,14
			l95.1-4.2l4.2,118.8l-4.2,26.6L2498-6.7l138.4,46.1l44.7,90.9c0,0,44.7,83.9-1.4,181.7c0,0-25.7,12.3-37.1-10.1
			c-1.4-2.6-2.5-5.8-3.4-9.5c0,0-7,100.7-113.2,71.3c0,0-67.1-26.6-72.7-90.9c0,0-44.7-4.2-46.1-33.6L2403,228l-988.4-32.2
			c0,0-4.2,89.5-278.2,39.1c0,0-127.2-14-139.8,14l21,55.9c0,0-46.1,65.7-118.8,29.4c0,0-39.1-2.8-61.5,16.8
			c0,0,37.7-47.5,1.4-125.8C802.4,146.9,753.3,144.3,771.4,28.3z"/>
		<g>
			<path class="st0" d="M2664.8,50.9L2664.8,50.9c-0.5-7.3-3.8-13.6-8.1-19.3c-5.7-7.5-13.1-12.2-23-11.4
				c-12.3-6.7-24.9-12.5-38.3-16.5c-2.9-0.9-4.6-2.2-5.7-5.3c-2.3-6.9-9-11.4-16-11.4c-1.9,0-4.4-0.5-4.6,2.4
				c-0.2,2.8,1.8,3.5,4.3,3.6c3.6,0.1,6.6,1.4,8.9,4.6c-2.1,1.4-4,0.9-5.9,0.5c-7.3-1.6-14.6-3.4-22-4.5
				c-38.5-5.8-75-1.6-106.5,23.8c-3.3-0.4-6.7-0.9-10-1.3c-0.1-1.8-0.2-3.7-0.2-5.5c0.9-33.6,1.7-67.2,2.7-100.8
				c0.6-20.6,1.3-41.2,2-61.8c0.5-17.1,1-34.2,1.5-51.4c0.1-3.9-1.8-5.6-4.4-4.1c-2,1.1-1.6,3.1-1.8,4.9c-1.7,22.6-2,45.2-2.6,67.8
				c-1.4,50.2-2.5,100.5-3.8,150.7l-0.4-0.1c-7.1-1.4-14.2-1-21.3-0.5c-11,0.7-21.8,3.2-30.8,10c-4.9,3.7-10.3,7.4-11.7,14.1l0,0
				c-0.7-0.2-1,0.2-1.2,0.8c-0.3,0.4-0.7,0.7-1,1.1c-10.8,5.1-15.1,15.1-11.4,26.4c2.3,6.9,6.5,12.7,11.3,18
				c10.5,11.6,21.8,22.4,34,32.2c1.4,1.1,3.3,1.8,4.1,4.6c-3.5-1.1-6.3-1.9-9.1-2.8c-10.1-3.3-20.5-5.6-31-7.5
				c-2.1-0.4-5.1-1.5-5.7,2c-0.5,3.1,2,3.8,4.5,3.9c0.2,0,0.3,0,0.5,0.1c17.5,3.1,34.6,7.9,51.3,15.3c-3.6,2.5-7.7,3-11.1,5
				c-4.1,2.5-11.1,1-11.9,8.3c0,0.4-2.1,0.8-3.2,0.8c-5,0.2-10,0.4-15,0.4c-2.2,0-4.2,0.1-4.4,2.8c-0.3,2.8,1.8,2.9,3.9,3.4
				c4,0.8,7.9,0.1,11.8-0.2c13.7-1,26.9-4,39.5-9.6c1.9-0.8,3.9-1.5,3.4-4.1c-0.6-2.7-2.7-2.4-4.8-2.2c0.2-0.3,0.1-0.5-0.1-0.8
				c3.6-2.5,6.2,0.2,8.9,1.7c1.9,1.1,3.6,0.8,4.8-0.9c1.5-2.1,0-3.1-1.6-4.3c-2.9-2.1-5.5-4.2-8.8-6c-11.3-6.1-21.9-13.6-31.3-22.6
				c2.5-1.2,4.5,0.6,6.5,1.4c9.1,3.6,18.5,4.3,27.9,2.9c5.6-0.8,11.1-1.7,16.8-1.7c6.5,0.1,12.9-1,19.3-2c4.7-0.8,8.9-2.5,11.9-6.5
				c5.5-0.3,10.9-0.7,16.4-0.8c18.3-0.1,36.5-0.1,54.5,3.5c6.1,1.5,12.2,3,18.3,4.5c20.9,4.9,41.1,12.1,61,19.9
				c4.7,1.8,9.5,3.3,14-0.4c1.6,0.5,3.2,0.8,4.6,1.4c8.7,3.8,17.3,7.7,26,11.6c-1.1,1.8-4.9,0.4-4.5,3.9s3.4,3.1,5.7,3.5
				c10.6,1.9,21.2,3.8,31.8,5.6c1.9,0.3,4.6,1.6,5.1-1.8c0.5-3.2-1.8-3.7-4.3-4.2c-9.3-1.6-18.6-3.3-27.9-4.9
				c-1.2-0.2-3.4,0.5-3-2.1c1.1-0.3,1-1.3,1.3-2c1.6,0.5,3.1,1.1,4.7,1.5c15.7,4.4,30.3-8,27.7-23.8c-3.4-21-17-33.7-35.7-41.8
				c-2.1-6.5-4.1-13-6.2-19.5C2666,52.3,2666.1,51.3,2664.8,50.9z M862,334c0.6-0.1,1.2-0.2,1.8-0.4c12.2,3.6,24.5-6.4,27.1-20
				c0.7-0.6,1.3-1.2,2-1.8c6.2-1.1,11.4-5.1,17.9-6.3c-0.1,4.2-1.5,8.1-2.6,12.1c-0.7,2.8-0.3,5.2,2.8,5.9c2.8,0.6,3.6-1.5,4.1-3.8
				c1-4.7,2.4-9.3,3.2-14.1c0.5-2.7,1.8-4,4.3-4.7c4.5-1.2,8.9-2.7,13.4-3.9c2.6-0.7,4.2-2.2,3.3-5c-0.9-2.9-3.2-2.5-5.3-1.9
				c-4.3,1.2-8.5,2.5-13.3,3.9c2.1-15.1,3.1-29.7,3.2-45.1c7.6,4.3,14.5,10.2,22.4,10.2c10,0.1,12,5.6,14.9,13
				c5.4,13.6,14.9,23.5,29.9,26.7c3.1,0.7,6.5,1.7,6.9-3.5c0.1-1.8,2-1.4,3.2-1.8c5.6-1.8,10.9-4,15.8-7.2c2.2-1.4,2.7-3.5,1.4-5.6
				c-1.3-2.2-3.2-1.7-5.2-0.5c-2.3,1.3-4.7,2.5-7.1,3.7c-4.4,2.1-9.9,2-13.5,4.6c-4.8,3.4-7.6,1-10.8-1.2
				c-11.8-8.1-16.4-20.4-19.1-33.8c-0.3-1.5,0.3-2.5,1.1-3.7c6.1-8.9,12.2-17.8,18.3-26.8c8.7,10.7,19.1,17.8,33.8,15.5
				c10.9,2,21.6-0.1,32.4-2c17.9,1.4,35.8,2.8,53.7,4.2c0.5,0.2,0.9,0.5,1.4,0.5c18.4,1.8,36.8,3.2,55.3,1.6
				c6.3-0.6,12.7-1.4,18.9-0.7c38.4,4,76.8,7.5,115.5,3.6c25.8-2.6,50.9-8.2,74.8-18.3c7.5-3.2,13-8.6,15.7-16.5
				c7.7-22.8-14.2-48.5-38-44.8c-4.8,0.7-9.6,1.2-14.4,1.6c-13.1,0.9-26.2,1.5-39.3,2.3c-22.5-1.7-45-3.2-67.5-5.2
				c-17.4-1.5-34.3-5.7-51.4-8.9c-3.7-1.4-7.3-2.8-11-4.2c-17.5-8.8-35-17.5-51.3-28.4c-19.7-13.1-38.2-27.6-52.6-46.7
				c0.2-0.9,0.2-1.8-1-2l0,0c-1.7-8.7-3.4-17.5-5.2-26.2c-2.9-14.3-6.6-28.3-14.8-40.7c-0.1-2.8,1.2-6.3-3.3-7
				c0.2-0.6,0.4-1.3,0.5-1.9c1.9-1.3,3.8-2.6,5.7-4c13.8-10.1,23-23.1,25.7-40.2c0.4-2.7,0.8-5.3,1.2-8c3.3-11.7,2.9-23.3-0.7-34.9
				c-5-16.2-14.2-22.1-31.2-19.8c-0.6-0.1-1.2-0.2-1.9-0.4c-3.5-2.5-7.7-3.8-11.7-5.1c-19.8-6.3-39.9-5.5-60.2-3.3
				c-0.6-0.2-1.2-0.6-1.8-0.7c-18-4.5-33,2.7-47.5,12.2c-1.5,0.7-2.9,1.6-4.4,2.2c-29.4,11.8-54.8,29-73.8,54.9
				c-0.6,0.8-1.2,2.2-2.2,1.6c-4.2-2.5-5.7,1.2-7.7,3.2c-3.1,3.2-5.9,6.7-8.8,10.2c-9.7,11.7-17.1,24.9-24.9,37.9
				c-0.6,0.1-1,0.5-0.9,1.2l0,0c-6.2,3.7-10.7,9.3-15.3,14.6c-11.2,12.6-19.6,26.8-21.4,44c-1.3,12.2,0.9,23.7,7.4,34.3
				c-0.1,7.4,1.3,14.6,2.1,21.9c-0.3,0.8-0.7,1.5-0.8,2.3c-2.5,20.1,3.1,37.8,16.1,53.1c6,7.1,12.7,13.5,21.8,16.6l0,0
				c0,0.9,0.5,1,1.2,1.1c5.3,4.2,8.9,9.7,12.7,15.1c0.5,3.3,3.3,5.6,4.3,8.7c-0.1,7.7,1.1,15.2,1.8,22.8c2.7,31.8,5.5,63.6,8.2,95.3
				c-1.3,4.7-4.2,8.6-6.6,12.8c-1.1,1.9-1.7,3.7,0.2,5.4c1.8,1.6,3.6,1,5.4-0.3c2.6-2,5.3-4,7.9-6c5.9,2.5,11.3,1.8,16.2-2.5
				C854.3,341.9,858.5,338.3,862,334z M2417.4,220c0.1,2.2-1.4,3.6-2.4,5.3c-9.5,16.1-19.8,31.5-30.9,46.5c-1.2,1.6-2.6,3.3-1.2,5.4
				c1.2,1.9,3.2,1.2,5,0.9c7.6-0.9,13.7-5,19.2-9.9c4.1-3.7,8-7.7,12.7-12.3c-0.6,2.6-1,4.3-1.5,6c-2.6,9.4-5.9,18.7-9.4,27.8
				c-0.8,2.1-0.8,4,1.6,4.9c2,0.7,3.2-0.5,3.8-2.2c6.5-16.8,11.6-33.9,15.4-51.5c0.3-1.6,0.1-3.1-1.5-3.8s-3-0.2-4,1.2
				c-2.1,2.8-4.1,5.6-6.2,8.4c-5.4,7.2-10.9,14.3-18.2,19.8c-1.6,1.2-3.2,3.1-6,2c9.6-13.6,18.7-27.5,27.2-41.7
				c1.8-3.1,2.5-7.4,7.5-7.7c1.4-0.1,1.2-1.8,1.3-2.9c0.8-5.6,1.5-11.2,2.4-17.7c0.3,1.4,0.5,1.8,0.6,2.3
				c3.8,24.2,8.5,48.1,16.4,71.3c1,2.8,3.3,6.2,2.5,8.4c-1.1,2.9-5.3,0.8-8,1.4c-1.7,0.4-3.4,0.8-3.3,3c0.1,2.2,1.5,3.2,3.7,3
				c2.3-0.1,4.7-0.1,7-0.4c2.9-0.4,4.4,0.6,5.6,3.4c2.4,5.6,5.3,11.1,8.1,16.5c1.8,3.5,6.1,7.5,5.4,10.2c-0.9,3.4-6.8,3.6-10.6,5
				c-2,0.7-3.2,2-2.7,4.1c0.6,2.4,2.6,2.3,4.4,1.7c3.6-1.3,7.2-2.5,10.7-4c2-0.9,3.2-1,4.6,0.9c5.5,7.4,11.9,13.9,19.2,19.5
				c1.9,1.5,1.7,2.5,0.1,3.8c-2.7,2.2-5.4,4.4-8.2,6.5c-1.4,1.1-2.7,2.2-1.5,4.1c1.2,1.9,2.9,2.1,4.7,1c1.2-0.7,2.4-1.3,3.2-2.4
				c6-7.8,12.5-7.4,20-2c3,2.2,8.1,2.2,10,4.9c2.1,3-0.2,7.7-0.6,11.6c-0.2,1.9-0.5,3.8,2,4.2c2.6,0.4,3.6-1.3,3.9-3.5
				c0.5-3.6,0.9-7.2,1.4-11c5.2,0.8,10.2,1.8,15.4,2.3c2.4,0.3,4.2,0.2,4.1,3.4c0,1.7,1.4,2.6,3,2.7c1.3,0.1,2.6-0.6,2.5-1.9
				c-0.2-4.3,2.7-3.9,5.5-4.1c3.6-0.3,7.2-1,10.8-1.7c3.2-0.6,7.5-3.1,9.4-1.9c2.4,1.6,1.3,6.3,1.7,9.7c0.3,2.1,0.8,3.6,3.3,3.4
				c2.3-0.3,3-1.9,2.8-3.9c-0.3-3.3-0.7-6.6-0.9-9.9c-0.1-1.3-0.4-2.6,1.2-3.4c8.2-4,15.3-9.7,22.2-15.9c0.4,0.7,0.6,1,0.7,1.2
				c1.3,2.5,0.9,7.7,5.3,6.2c4.2-1.5,0.9-5.4,0.4-8.2c-0.4-2.1-2.2-3.9,0-6.3c5.7-6.1,10.3-13,14.7-20.1c0.5-0.8,0.8-2.5,2.5-1.3
				c2.3,1.8,5.6,2.6,7,5.4c0.9,1.9,1.9,3,4,3c1.6,0,2.4-1.1,2.9-2.4c0.8-2.2-0.1-4-1.8-5.3c-2.4-1.8-4.8-3.6-7.4-5s-2.5-2.8-1.3-5.1
				c13.6-25.9,21.5-53.6,26.7-82.1c0.6-3.3,1.3-3.8,4.6-2.8c17.4,5.3,33.6-8.1,30.8-25.3c-1.5-8.9-6.7-15-14.8-18.8
				c-1.9-0.9-4-1.3-5.2,1c-1.2,2.4,0.5,3.6,2.5,4.5c1.6,0.8,3.3,1.7,4.7,2.8c6.3,4.8,8.8,13.2,6.1,20.1c-2.7,6.9-10.2,11.5-18,10.7
				c-2.9-0.3-5.8-1.1-8.8-1.7c0.5-4.3,0.9-8.4,1.4-12.6c0.3-2.3,0.2-4.7-2.7-4.8c-2.5-0.1-3,2-3.3,4.1c-0.9,7.3-1.8,14.5-3.1,21.7
				c-5.1,27.4-12.8,54-25.5,79c-0.9,1.9-1.4,4.2-4.5,2.8c-1-0.5-2.3,0-2.9,1.3c-0.6,1.3-0.6,2.6,0.5,3.6c1.1,0.9,2,1.6,0.9,3.2
				c-4.2,6.7-8.5,13.3-14,19.4c-2-3.4-3.8-6.4-5.6-9.4c-0.9-1.6-2.3-2.7-4.1-1.6c-1.7,1.1-2.3,2.7-1.1,4.7c1.8,3,3.5,6.1,5.1,9.1
				c0.6,1.1,1.4,2.2,0,3.5c-6.3,5.8-12.7,11.5-20.9,15.2c-0.4-3.8-0.7-7.1-1-10.4c-0.2-2-0.7-3.8-3.2-3.5c-2.3,0.2-3,1.8-2.8,3.9
				c0.2,2.3,0.3,4.7,0.7,6.9c0.9,4.4,0,7.3-5,8.1c-3.9,0.6-7.8,1.9-11.7,2.6c-7.5,1.3-7.5,1.2-8.2-6.3c-0.1-0.7,0-1.4-0.2-2
				c-0.7-1.5-1.9-2.4-3.6-2.1c-1.6,0.2-2,1.3-2.3,2.8c-0.5,2.6,1.7,6.3-1.2,7.6c-2.3,1-5.5-0.3-8.3-0.7c-2.3-0.4-4.6-1-6.8-1.4
				c-2-0.4-3.5-0.7-3.8-3.5c-0.3-2.9-3-3.3-4.8-1.3c-1.7,1.9-2.9,1.5-4.7,0.6c-3.7-1.8-7.5-3.6-11.2-5.3c-1.8-0.8-2.1-1.7-0.8-3.3
				c1.6-1.9,2.9-4,4.3-6.1c1.2-1.9,1.5-3.9-0.7-5.2c-2-1.2-3.4,0.1-4.4,1.9c-1.1,1.9-2.5,3.5-3.6,5.4c-1.5,2.5-2.8,2.4-5,0.6
				c-4.9-4-9.6-8.2-13.9-12.9c-5.4-5.9-5.4-5.9,1.1-10.6c0.4-0.3,0.8-0.6,1.2-0.9c1.4-1.1,2.4-2.5,1.1-4.2c-1.4-1.8-3-1.9-4.8-0.6
				c-1.3,1-2.8,1.8-4.1,2.8c-2.5,2.1-4.1,1.5-5.8-1.3c-4.1-6.7-7.9-13.5-11.2-20.6c-0.9-1.9-2.5-3.8-0.3-6.2
				c1.1-1.2,0.3-3.7-1.6-3.9c-3.3-0.4-3.6-2.9-4.5-5.1c-7-18.9-11.6-38.5-15-58.3c-1.7-9.7-3-19.4-4.6-29.1
				c-0.2-1.4-0.3-3.1-2.4-3.3c-1.7-0.2-2.9,0.4-3.8,1.9c-0.3,0.6-0.7,1.2-1,1.7c-0.9,1.4-1.9,3.1-3.8,2.9c-2.2-0.2-2.5-2.4-3-4.1
				c-2-6.7-1.5-13.6-0.2-20.3c1.2-5.8,7.7-9.4,13.7-8.1c3.1,0.7,4.8-1.1,3.9-4.3c-1.1-4-5.8-7.8-9.9-6.5c-4.8,1.5-9.8,0.9-14.5,2.5
				c-16.1,5.2-31.2,12.2-45.4,21.4c-1,0.6-1.9,1.3-2.9,1.9c-1.4,0.9-2.1,2.2-1.2,3.8c1,1.8,2.6,2.1,4.3,1.3c1.2-0.5,2.3-1.3,3.4-2.1
				c11.6-7.6,23.9-13.7,37-18.3c2.2-0.8,4.3-2.3,7.1-1.5c-3.3,7.8-4,15.7-2.7,23.7c1.3,8,3.6,16,10.4,20.9c3.9,2.8,2.2,5.9,2.2,8.8
				c0.1,3-3,1.6-4.7,2c-1,0.2-2,0.4-2.9,0.6c-2.5,0-5,0-7.5,0.1c-45,3-90.1,3.9-135.3,4c-55.1,0.1-110.2-1.1-165.3-2.7
				c-31-0.8-61.9-1.6-92.9-2.3c-49.6-1.2-99.2-2.5-148.8-3.7c-32.6-0.8-65.2-1.7-97.8-2.3c-44.1-0.7-88.3-1.4-132.4-1.7
				c-51.6-0.3-103.3,0-154.9,1.3c-10.8,0.3-21.6,0.7-32.4,0.9c-2.3,0.1-4.2,0.5-4.1,3.1c0,3,2.3,3.3,4.6,3.1c0.5,0,1-0.1,1.5-0.1
				c22.8-0.6,45.6-1.5,68.4-1.7c37.8-0.3,75.6-0.8,113.4-0.5c36.1,0.3,72.3,0.2,108.4,1c30.1,0.7,60.3,1.1,90.4,1.7
				c39.9,0.9,79.9,1.9,119.8,3c40.8,1.1,81.5,2.3,122.3,3.3c48.8,1.1,97.5,2.3,146.3,2.9c49.5,0.6,98.9,0.8,148.4-1.3
				C2387.9,221.8,2402.7,221.6,2417.4,220z M2635.8,162.6c0.1-0.3,0.1-0.6,0.2-0.9c6.3,0,12.6-0.1,18.8,0.1c2,0.1,3.8,0.5,4.5-1.8
				c0.8-2.6-1-3.4-3-4.2c-10-4-20.3-7.4-30.8-9.9c-6.8-1.6-13.7-2.9-20.5-4.2c-1.6-0.3-3.1-0.1-3.5,1.8s0.1,3.3,2.1,3.9
				c0.9,0.3,1.9,0.4,2.9,0.6c8.2,1.9,16.4,3.5,24.2,6.8c-5.1,0.4-10.1,0.5-15.2,0.4c-4.2,0-8.3-0.1-12.5-0.1c-2.1,0-3.6,0.9-3.7,3.2
				c-0.1,2.2,1.2,2.9,3.2,2.9c8.1,0,15.2,3.9,23,5.5c12,2.4,24,5.4,36,8.1c2,0.4,4.7,1.3,5.2-1.9c0.5-2.7-1.6-3.7-4-4
				c-1.3-0.2-2.6-0.6-3.9-0.9C2651.2,166.1,2643.5,164.4,2635.8,162.6z M2674.8,270.1c9.7,4.2,18.8,8.2,27.8,12.2
				c1.6,0.7,3.2,1.3,4.7,0.1c1.5-1.3,1-3,0.4-4.6c-6.4-15.1-15.2-28.7-26.7-40.6c-1.6-1.6-3.4-2.4-5.2-0.7c-2.2,2-0.5,3.4,0.9,5
				c7.1,7.7,13.5,16,18.7,25.2c1.1,2,2.6,4,3,7.2c-8.7-3.8-16.7-7.3-24.7-10.8c-1.8-0.8-3.7-2-5.6-0.4c-2,1.7-0.5,3.7-0.2,5.6
				c0.2,1,0.6,1.9,0.8,2.9c4.6,17.9,7.8,35.7,1.4,53.9c-0.7,2-0.3,3.7,2.1,4.2c2.3,0.5,3.2-0.9,3.8-2.9c3.1-9.8,4.2-19.8,3.4-30
				C2678.8,287.5,2676.9,279.2,2674.8,270.1z M2704.6,167.5c4.8,0.7,9.3,1.4,13.9,2.1c2.7,0.4,5.2-1.3,3.9-3.3
				c-1.9-2.9-2.4-7.3-7.6-7.9c-13.5-1.7-26.6-5.8-40.2-6.5c-2-0.1-4-1.3-4.9,1.5c-0.8,2.5,1,3.6,2.9,4.5
				c20.8,10.8,40.9,22.8,60.3,35.9c2,1.3,4.1,2.3,5.6-0.1c1.6-2.5-0.4-3.9-2.3-5.1c-9.3-5.9-18.5-11.8-27.7-17.7
				C2707.1,170.2,2705.2,169.9,2704.6,167.5z M2480.2,151c7.1-0.2,13.9,0,20.7,0.9c2,0.3,4.3,0.4,4.7-2.3c0.3-2.9-1.8-3.4-4.2-3.7
				c-15.9-2-31.5-0.8-47,3.1c-2.2,0.5-4.5,1-4.2,3.9c0.2,2.7,2.7,2.6,4.6,2.9c7.5,0.9,15,1.7,22.5,2.5c-4.6,1.7-9.2,2.7-13.9,3.6
				c-2.1,0.4-4.7,0.3-4.4,3.4c0.3,3.4,3.1,2.8,5.4,2.7c9.1-0.2,18.1-2.4,27.3-2c1.1,0,2.3-0.2,2.6-1.2c0.9-3.3,3.6-3.4,6.2-3.7
				c1.9-0.3,3.2-1.2,3.3-3.1c0-2.3-1.6-2.9-3.7-3.1c-5.5-0.5-10.9-1.3-16.4-1.9C2482.3,152.8,2480.8,153.2,2480.2,151z
				 M2552.8,245.1c2.3,0,4.7,0,7,0c1.8,0,3.5-0.2,3.5-2.5c0-2.2-1.2-3.4-3.4-3.5c-1.7-0.1-3.3,0.1-5,0.2c-6.2,0.4-6.3,0.3-4.8-5.5
				c4.7-19,9.4-38.1,14.1-57.1c0.6-2.5,1.5-5.4-1.7-6.3c-3.8-1-3.5,2.6-4,4.8c-4.9,19.8-9.7,39.7-14.8,59.5
				C2540.9,246.1,2541,245.9,2552.8,245.1z M2536.5,277.6c6.3,1.4,11.9,2.6,17.5,3.9c2.4,0.5,5,1,5.5-2.2c0.5-2.9-1.9-3.3-4.2-3.7
				c-6.4-1.1-12.6-2.7-18.7-4.9c-2-0.7-4.4-2.4-5.7,0c-1.2,2.2-2.7,5.1-1.1,7.8c2,3.4,4.1,6.8,6.2,10.1c1.2,1.9,2.8,2.4,4.6,1.2
				c1.7-1.1,1.5-2.8,0.5-4.4C2539.8,283,2538.3,280.6,2536.5,277.6z M2618.7,195.1c-0.8-2.7-2.6-4.1-5.5-3.9
				c-6.8,0.5-13.5,1.1-20.3,1.6c-1.5,0.1-2.5,0.7-2.6,2.3c-0.1,1.5,0.3,2.7,1.7,3.3c1,0.4,2.3,0.3,3.4,0.3
				c6.1-0.2,12.1-2.4,18.4,0.5C2616.2,200.4,2618.4,198.2,2618.7,195.1z M2571.3,274.9c1.1,0.1,1.9-0.6,2.5-1.4
				c1-1.4,0.6-2.9-0.3-4.2c-3.1-4.4-6.6-8.3-10.5-11.9c-1.5-1.4-3.1-2.8-5.1-0.7c-1.8,2-0.8,3.6,0.8,5.1c3.7,3.3,6.9,7.2,9.8,11.2
				C2569.3,274,2570,275,2571.3,274.9z M2517,254.9c0.2-2.6-2.5-4.2-4.9-2.6c-4.5,3.1-8.8,6.5-13.1,9.8c-1.1,0.8-1.3,1.9-1,3.1
				c0.3,1.3,1.3,1.9,2.5,2.2C2502.4,267.8,2516.9,256.9,2517,254.9z M2587.8,264.1c-1.6,0.3-2.4,1-2.8,2.2c-0.5,1.6,0.1,3,1.5,3.8
				c4.1,2.1,8.3,4.1,12.4,6.2c1.5,0.8,2.6,0.3,3.4-0.9s1-2.9,0-3.7C2597.8,268.4,2592.5,266.5,2587.8,264.1z M2528.6,264.9
				c1.9,0.1,12.5-5.8,13-7c0.4-1.1,0.5-2.3-0.2-3.3c-0.8-1.1-1.9-1.5-3.1-0.9c-3.5,1.8-7.1,3.7-10.5,5.6c-1.3,0.8-1.3,2.2-1,3.6
				C2527,264.1,2527.9,264.8,2528.6,264.9z M2707.5,184.1c-1,0.2-2,0.6-2.4,1.6c-0.6,1.3-0.7,2.7,0.4,3.7c2.5,2.2,5,4.4,7.6,6.4
				c1,0.7,2.3,0.6,3.3-0.2c0.9-0.7,1.5-1.8,1.2-3.1C2717.3,190.9,2709,184,2707.5,184.1z M2487.4,189.8c-3.3-0.2-5.2,0.7-4.6,3.3
				c0.7,2.8,0.2,7.2,4.5,7.2c3.8,0,2.6-3.9,3.1-6.3C2491.1,191,2489.3,189.8,2487.4,189.8z"/>
			<path class="st1" d="M1015.9,238.8c-14.7,2.3-25.1-4.8-33.8-15.5c0-0.4,0.1-0.8,0.1-1.2c10.3-15.3,17.6-32.1,24.7-49
				c2.7-0.7,5.4-1.4,8.2-2.1c19.9-5.3,40.4-5.1,60.8-5.9c2.7-0.1,5.4,0,8.1,0c-0.4,0.2-0.9,0.3-1.3,0.5c-3.2-3.9-6-8-9.5-11.5
				c-15.6-16-25.7-34.5-28.6-56.9c-1-7.7,2.2-11.2,10.8-11.2c2.1,1.7,3.8,3.9,5.4,6.1c-0.2,2.7,1.7,4.6,3.1,6.6
				c4.3,6.1,8,12.8,15,16.4c3.3,5,7.8,8.5,12.8,11.5c9.4,5.7,19,11,28.9,15.7c9.6,4.5,18.9,9.9,29.4,12c4,0.6,7.2,3.1,10.9,4.7
				c37.3,16.3,76.9,21.7,117,23.9c18.9,1,37.9,1.4,56.8,2c2,2.9,5.4,4.9,6.4,8.6c-11.6,7.4-24.3,12.3-37.3,16.6
				c-25.7,8.5-52.3,13-78.9,16.8c-26.5,3.8-53.1,6.7-80,7.2c-10,0.2-20,0.2-30,0.3c-2.7-0.1-5.4-0.1-8.1-0.2c-1.7,0-3.3-0.1-5-0.1
				c-6.4-1.5-12.9-0.8-19.3-1.4c-12.8-1.4-25.7-2.3-38.6-3.5c-2.8-0.2-5.5-3.3-7.9-1.6C1029.7,231.9,1022.4,234.6,1015.9,238.8z"/>
			<path class="st2" d="M2420.9,214c1-0.2,2-0.3,2.9-0.6c1.7-0.4,4.8,1,4.7-2c-0.1-2.9,1.7-5.9-2.2-8.8c-6.8-4.9-9.1-12.9-10.4-20.9
				c-1.3-8-0.7-15.9,2.7-23.7c-2.8-0.8-4.9,0.7-7.1,1.5c-13.1,4.6-25.4,10.7-37,18.3c-1.1,0.7-2.2,1.5-3.4,2.1
				c-1.7,0.8-3.3,0.5-4.3-1.3c-0.9-1.6-0.2-2.9,1.2-3.8c1-0.6,1.9-1.3,2.9-1.9c14.2-9.2,29.3-16.2,45.4-21.4
				c4.8-1.5,9.7-0.9,14.5-2.5c4.2-1.3,8.9,2.5,9.9,6.5c0.8,3.1-0.8,4.9-3.9,4.3c-6-1.3-12.5,2.3-13.7,8.1
				c-1.4,6.7-1.8,13.5,0.2,20.3c0.5,1.7,0.8,3.9,3,4.1c1.8,0.2,2.8-1.5,3.8-2.9c0.4-0.6,0.7-1.1,1-1.7c0.9-1.4,2.1-2.1,3.8-1.9
				c2.1,0.2,2.1,1.9,2.4,3.3c1.5,9.7,2.9,19.4,4.6,29.1c3.4,19.8,8,39.4,15,58.3c0.8,2.3,1.2,4.7,4.5,5.1c1.9,0.3,2.7,2.7,1.6,3.9
				c-2.3,2.4-0.6,4.3,0.3,6.2c3.3,7.1,7.1,13.9,11.2,20.6c1.7,2.8,3.3,3.4,5.8,1.3c1.3-1.1,2.8-1.8,4.1-2.8c1.8-1.3,3.4-1.2,4.8,0.6
				c1.3,1.8,0.3,3.1-1.1,4.2c-0.4,0.3-0.8,0.6-1.2,0.9c-6.4,4.7-6.4,4.7-1.1,10.6c4.3,4.7,9,8.9,13.9,12.9c2.2,1.8,3.5,1.9,5-0.6
				c1.1-1.9,2.5-3.5,3.6-5.4c1.1-1.8,2.4-3.1,4.4-1.9c2.2,1.3,1.9,3.3,0.7,5.2c-1.4,2.1-2.7,4.2-4.3,6.1c-1.3,1.6-1,2.5,0.8,3.3
				c3.8,1.7,7.5,3.5,11.2,5.3c1.7,0.9,3,1.3,4.7-0.6c1.8-1.9,4.5-1.6,4.8,1.3c0.3,2.8,1.9,3.1,3.8,3.5c2.3,0.5,4.5,1.1,6.8,1.4
				c2.8,0.4,6.1,1.7,8.3,0.7c2.9-1.2,0.7-5,1.2-7.6c0.3-1.5,0.7-2.6,2.3-2.8c1.7-0.3,2.9,0.6,3.6,2.1c0.3,0.6,0.2,1.3,0.2,2
				c0.6,7.5,0.7,7.6,8.2,6.3c3.9-0.7,7.8-2,11.7-2.6c5.1-0.8,5.9-3.7,5-8.1c-0.5-2.3-0.5-4.6-0.7-6.9c-0.2-2.1,0.6-3.7,2.8-3.9
				c2.5-0.3,3,1.5,3.2,3.5c0.3,3.3,0.6,6.6,1,10.4c8.2-3.8,14.6-9.4,20.9-15.2c1.4-1.3,0.6-2.4,0-3.5c-1.7-3.1-3.4-6.1-5.1-9.1
				c-1.2-2-0.6-3.7,1.1-4.7c1.8-1.1,3.1,0,4.1,1.6c1.8,3,3.5,6,5.6,9.4c5.5-6.1,9.8-12.7,14-19.4c1-1.7,0.2-2.3-0.9-3.2
				c-1.2-1-1.2-2.3-0.5-3.6c0.6-1.3,1.9-1.7,2.9-1.3c3.1,1.4,3.6-1,4.5-2.8c12.7-25,20.5-51.5,25.5-79c1.3-7.2,2.2-14.5,3.1-21.7
				c0.3-2.2,0.8-4.3,3.3-4.1c3,0.1,3,2.5,2.7,4.8c-0.5,4.1-1,8.3-1.4,12.6c3,0.6,5.8,1.4,8.8,1.7c7.8,0.8,15.3-3.8,18-10.7
				c2.7-6.8,0.2-15.3-6.1-20.1c-1.4-1.1-3.1-2-4.7-2.8c-2-1-3.7-2.1-2.5-4.5c1.2-2.4,3.3-1.9,5.2-1c8.1,3.7,13.4,9.9,14.8,18.8
				c2.9,17.2-13.4,30.6-30.8,25.3c-3.3-1-4-0.5-4.6,2.8c-5.2,28.6-13.1,56.3-26.7,82.1c-1.2,2.3-1.3,3.7,1.3,5.1
				c2.6,1.4,5.1,3.2,7.4,5c1.7,1.3,2.6,3.1,1.8,5.3c-0.5,1.3-1.3,2.3-2.9,2.4c-2.1,0-3.1-1.1-4-3c-1.4-2.8-4.6-3.6-7-5.4
				c-1.6-1.3-2,0.5-2.5,1.3c-4.4,7.1-9,14-14.7,20.1c-2.2,2.4-0.4,4.2,0,6.3c0.5,2.8,3.8,6.7-0.4,8.2c-4.5,1.6-4-3.6-5.3-6.2
				c-0.1-0.3-0.3-0.5-0.7-1.2c-6.8,6.1-14,11.8-22.2,15.9c-1.6,0.8-1.3,2.2-1.2,3.4c0.3,3.3,0.6,6.6,0.9,9.9
				c0.2,2.1-0.5,3.7-2.8,3.9c-2.4,0.3-3-1.2-3.3-3.4c-0.4-3.4,0.7-8.1-1.7-9.7c-1.9-1.2-6.1,1.2-9.4,1.9c-3.6,0.7-7.2,1.4-10.8,1.7
				c-2.9,0.2-5.7-0.3-5.5,4.1c0.1,1.3-1.2,1.9-2.5,1.9c-1.7-0.1-3.1-1-3-2.7c0.1-3.2-1.8-3.1-4.1-3.4c-5.1-0.5-10.2-1.5-15.4-2.3
				c-0.5,3.8-0.8,7.4-1.4,11c-0.3,2.1-1.3,3.9-3.9,3.5c-2.6-0.4-2.2-2.3-2-4.2c0.4-4,2.7-8.6,0.6-11.6c-1.8-2.6-7-2.7-10-4.9
				c-7.5-5.4-14-5.8-20,2c-0.8,1-2.1,1.7-3.2,2.4c-1.8,1-3.6,0.9-4.7-1c-1.2-1.9,0.1-3,1.5-4.1c2.8-2.1,5.5-4.4,8.2-6.5
				c1.6-1.3,1.9-2.3-0.1-3.8c-7.3-5.6-13.8-12.1-19.2-19.5c-1.4-1.9-2.6-1.8-4.6-0.9c-3.5,1.6-7.1,2.8-10.7,4
				c-1.9,0.6-3.8,0.7-4.4-1.7c-0.5-2.1,0.6-3.4,2.7-4.1c3.8-1.3,9.7-1.5,10.6-5c0.7-2.7-3.5-6.7-5.4-10.2
				c-2.8-5.4-5.7-10.9-8.1-16.5c-1.2-2.8-2.7-3.8-5.6-3.4c-2.3,0.3-4.7,0.2-7,0.4c-2.2,0.1-3.6-0.8-3.7-3c-0.1-2.2,1.5-2.6,3.3-3
				c2.8-0.6,6.9,1.5,8-1.4c0.8-2.2-1.5-5.5-2.5-8.4c-7.9-23.2-12.6-47.2-16.4-71.3c-0.1-0.5-0.2-0.9-0.6-2.3
				c-0.9,6.5-1.6,12.1-2.4,17.7c-0.2,1.1,0.1,2.8-1.3,2.9c-4.9,0.3-5.7,4.6-7.5,7.7c-8.5,14.3-17.5,28.2-27.2,41.7
				c2.7,1,4.3-0.8,6-2c7.3-5.5,12.8-12.6,18.2-19.8c2.1-2.8,4.1-5.6,6.2-8.4c1-1.3,2.4-1.9,4-1.2c1.7,0.7,1.9,2.2,1.5,3.8
				c-3.8,17.6-8.9,34.7-15.4,51.5c-0.7,1.7-1.9,2.9-3.8,2.2c-2.5-0.9-2.4-2.8-1.6-4.9c3.5-9.2,6.7-18.4,9.4-27.8
				c0.5-1.7,0.9-3.4,1.5-6c-4.7,4.6-8.6,8.6-12.7,12.3c-5.5,4.9-11.6,9-19.2,9.9c-1.8,0.2-3.8,1-5-0.9c-1.3-2.1,0-3.8,1.2-5.4
				c11.1-15,21.4-30.5,30.9-46.5c1-1.7,2.5-3.2,2.4-5.3C2419.8,218.7,2420.2,216.2,2420.9,214z"/>
			<path class="st3" d="M2420.9,214c-0.7,2.2-1.1,4.7-3.5,6c-14.7,1.6-29.6,1.8-44.3,2.5c-49.5,2.1-98.9,1.9-148.4,1.3
				c-48.8-0.6-97.6-1.8-146.3-2.9c-40.8-1-81.5-2.2-122.3-3.3c-39.9-1-79.9-2.1-119.8-3c-30.1-0.7-60.3-1-90.4-1.7
				c-36.1-0.9-72.3-0.7-108.4-1c-37.8-0.3-75.6,0.2-113.4,0.5c-22.8,0.2-45.6,1.1-68.4,1.7c-0.5,0-1,0-1.5,0.1
				c-2.4,0.2-4.6-0.2-4.6-3.1c0-2.6,1.8-3.1,4.1-3.1c10.8-0.3,21.6-0.7,32.4-0.9c51.6-1.3,103.3-1.6,154.9-1.3
				c44.1,0.3,88.3,0.9,132.4,1.7c32.6,0.5,65.2,1.5,97.8,2.3c49.6,1.2,99.2,2.4,148.8,3.7c31,0.8,61.9,1.5,92.9,2.3
				c55.1,1.5,110.2,2.8,165.3,2.7c45.1-0.1,90.2-1,135.3-4C2415.9,213.9,2418.4,214,2420.9,214z"/>
			<path class="st4" d="M1291.8,170.3c13.1-0.8,26.2-1.4,39.3-2.3c4.8-0.3,9.6-0.8,14.4-1.6c23.8-3.8,45.8,22,38,44.8
				c-2.7,7.9-8.2,13.4-15.7,16.5c-24,10.1-49,15.7-74.8,18.3c-38.7,4-77.1,0.4-115.5-3.6c-6.2-0.6-12.6,0.2-18.9,0.7
				c-18.5,1.6-36.9,0.2-55.3-1.6c-0.5,0-0.9-0.4-1.4-0.5c17,0.1,34,1,51-0.2c16,0,31.9-1.1,47.7-3.4c21-3.1,42-6.5,63.1-9.7
				c18.1-0.3,36.1,0,54.2-1c15.1-0.8,24.8-11.3,25.1-25.6c7.3-4.7,14.8-9.1,21.2-14.9c1.8-1.6,4.4-2.9,3.1-6.1
				c-1.2-2.8-3.8-2.2-6-2.3c-15.8-0.3-31.6-0.7-47.4-1c-3.1-1.4-6.5-2-9.8-3C1299.9,172.6,1295.3,173.3,1291.8,170.3z"/>
			<path class="st5" d="M982.2,222.1c0,0.4-0.1,0.8-0.1,1.2c-6.1,8.9-12.2,17.9-18.3,26.8c-0.8,1.1-1.4,2.2-1.1,3.7
				c2.7,13.4,7.3,25.7,19.1,33.8c3.2,2.2,6,4.6,10.8,1.2c3.6-2.5,9.2-2.5,13.5-4.6c2.4-1.2,4.8-2.4,7.1-3.7c1.9-1.1,3.9-1.7,5.2,0.5
				c1.3,2.1,0.8,4.2-1.4,5.6c-4.9,3.2-10.3,5.4-15.8,7.2c-1.2,0.4-3.1,0-3.2,1.8c-0.4,5.2-3.8,4.1-6.9,3.5
				c-15.1-3.2-24.5-13.2-29.9-26.7c-3-7.4-4.9-13-14.9-13c-7.9-0.1-14.8-5.9-22.4-10.2c0,15.3-1,30-3.2,45.1c4.8-1.4,9-2.7,13.3-3.9
				c2.1-0.6,4.5-1,5.3,1.9c0.8,2.9-0.7,4.3-3.3,5c-4.5,1.3-8.9,2.7-13.4,3.9c-2.5,0.7-3.8,1.9-4.3,4.7c-0.8,4.7-2.2,9.4-3.2,14.1
				c-0.5,2.3-1.3,4.4-4.1,3.8c-3.1-0.7-3.5-3.1-2.8-5.9c1.1-4,2.5-7.9,2.6-12.1c-6.5,1.3-11.7,5.2-17.9,6.3c0.3-2.4,0.6-4.8,0.9-7.3
				c0.1-0.2,0.1-0.5,0.2-0.7c3.5-1.4,7-2.8,10.4-4.2c0.6-0.1,1.4,0,1.6-0.8l-0.1,0.1c5.5-0.4,8.2-3.1,8.1-8.8
				c-0.1-2.6,1.2-5.2,0.7-7.8c1.6-7.5,1.4-15.1,1.8-22.7c0.1-2,0.2-3.9,0.2-5.9c0-5.9,0.3-11.9-6.8-14.4
				c-9.8-8.4-18.5-17.7-25.8-28.3c-8.1-11.6-13.9-24.4-20.1-37.1c-1-3.8-1.9-7.7-3.2-11.4c-1.4-3.9-4-5.6-8.8-5.1
				c-8.2,0.9-16.1-0.3-22.3-6.9c-2.9-3-5.1-6.4-7.6-9.7c-0.5-1.9-1.1-3.8-1.5-5.8c-2.2-9.5,2.8-16.5,12.5-17.2
				c3.4-0.3,6.9,0.1,10.4,0.2c0.9,0.4,1.8,0.8,2.7,1.1c2.8,1,5.9,2.1,4.4,5.8c-1.5,3.6-4.3,1.8-6.8,0.8c-6-2.3-9.2-0.6-10.3,5.9
				c-0.7,4.5-2.4,9.7,1.5,13.2c4.8,4.3,11,6.3,17.6,5.7c11.1-1.1,12.6-0.4,16,10.2c0.6,1.7,1,3.5,1.4,5.3c2,10.4,6.6,19.8,11.5,29
				c14,26.1,36.6,42.5,62.6,55c2.1,1,4.4,1.6,6.6,2c2.9,0.6,4.3-0.6,4.1-3.8c-0.3-3.8-0.4-7.6-0.5-11.5c-0.1-2,1.1-3.3,3-3.3
				c1.7-0.1,3.2,0.6,3.9,2.5c0.4,1.1-0.5,2.7,1.4,3.6c5-7.6,10-15.2,15.1-22.8C980.4,217.5,979.4,221.5,982.2,222.1z"/>
			<path class="st6" d="M790,5c7.8-12.9,15.2-26.2,24.9-37.9c2.9-3.4,5.7-7,8.8-10.2c2-2,3.5-5.7,7.7-3.2c1,0.6,1.6-0.8,2.2-1.6
				c19-25.9,44.3-43.1,73.8-54.9c1.5-0.6,2.9-1.5,4.4-2.2c0.8-0.1,1.7,0,2.4-0.2c15.2-5.4,30.9-8.7,46.8-11.3
				c20.2-2.2,40.4-3,60.2,3.3c4.1,1.3,8.2,2.6,11.7,5.1c-1.4,2.4-5.2,1.3-6.1,4.4c-0.6-0.1-1.3-0.2-1.9-0.3c-17-7.6-34.8-8.4-53-6.1
				c-16.3,0.9-32.2,4.4-47.8,9.2c-33.1,10.3-61.8,27.2-83.2,55.2c-2,2.6-3.3,7.2-8.5,4.2c-0.6-0.4-2.1,1.3-2.5,2.6
				c-0.3,0.3-0.7,0.6-1,0.8h0.1c-0.7,0.5-1.5,0.9-1.2,2l0.1-0.1c-8.5,7.5-15,16.6-21,26.1l0,0c-0.3,0.4-0.7,0.7-1,1.1l0.1-0.1
				c-0.3,0.6-0.6,1.2-0.9,1.9c-0.5,0.4-1,0.8-1.3,1.4c-11.7,17.9-21.3,36.8-28,57.1c-8.2,24.9-11,49.9-4.9,76
				c7.2,30.7,29.3,51.4,47.4,74.9c1.4,1.6,2.8,3.2,4.1,4.7c-3.3,0.3-7.4-2.8-9.4,2.4c-3.8-5.4-7.4-11-12.7-15.1
				c-0.1-0.7-0.4-1.1-1.2-1.1l0,0c0-1.9-1.7-2.7-2.6-4.1c-7-11-17.3-19.5-22.1-32.5c-4.3-11.8-9.4-23.3-12.4-35.5
				c-0.8-7.3-2.1-14.6-2.1-21.9c0.2-4,0.3-8,0.7-11.9c2-19,8.5-36.7,16.3-54c4.1-9,8.3-18,12.4-27l0,0C789.8,6.1,790,5.6,790,5z"/>
			<path class="st7" d="M1313.8,176.9c15.8,0.3,31.6,0.7,47.4,1c2.3,0,4.9-0.5,6,2.3c1.3,3.1-1.3,4.4-3.1,6.1
				c-6.5,5.8-14,10.2-21.2,14.9c-12.1,6.1-24.5,11.6-37.5,15.8c-13.7,4.4-27.8,7.3-41.8,10.7c-21,3.2-42,6.6-63.1,9.7
				c-15.8,2.3-31.7,3.4-47.7,3.4c-0.2-1.1-0.8-1.7-2-1.8c-10.6-1-21.3-2-31.9-3c-1.5-0.1-3.5,0.7-4.1-1.7c10-0.1,20-0.1,30-0.3
				c26.8-0.5,53.5-3.4,80-7.2c26.7-3.9,53.2-8.3,78.9-16.8c13-4.3,25.7-9.2,37.3-16.6c4.4-2,8.3-4.7,13-8.6c-7.2,0-13.3,0-19.3,0
				c-18.9-0.7-37.9-1-56.8-2c-40.2-2.2-79.7-7.6-117-23.9c-3.6-1.6-6.8-4.1-10.8-4.7c-3.5-1.7-7.2-3-10.1-5.7
				c3.6-0.9,6.8,1,10.2,1.7c3.9,0.7,7.5,3.2,11.8,1.9c3.7,1.4,7.3,2.8,11,4.2c1.3,0.6,2.6,1.4,4,1.9c29.3,11.1,59.9,15.3,90.8,17.7
				C1283,177.1,1298.4,176.8,1313.8,176.9z"/>
			<path class="st8" d="M2475.9,99.3c-3,4-7.2,5.8-11.9,6.5c-6.4,1.1-12.8,2.1-19.3,2c-5.7-0.1-11.2,0.9-16.8,1.7
				c-9.4,1.4-18.9,0.7-27.9-2.9c-2-0.8-4-2.7-6.5-1.4l0.2-0.1c0.3-1-0.4-1.1-1.1-1l0.1,0.1c-0.2-1.3-1-1.3-2-1.2h0.1
				c-0.1-0.9-0.9-0.9-1.6-1.1c-1.6-0.4-2.7-1.6-3.5-2.9c5.4-0.4,10.7,1.2,16.3,0.2c12.6-2.4,28.2-14.4,26.9-28.4
				c-0.2-1.8,0.7-2.6,2.5-3c2.1-0.4,4.2-0.9,6.4-0.8c16,0.2,31.7,3.2,47.2,6.6c23.2,5.2,45.5,13.6,68.1,21c1.1,0.4,2.3,0.5,2.8,1.8
				c-8.6-0.9-17.2-1.9-25.8-2.7c-35-3-69.8-0.9-104.3,5.8c-2.4,0.5-5.6,0.6-4.7,4.2c0.8,3.3,3.6,2,5.8,1.6
				C2443.2,102.4,2459.4,100,2475.9,99.3z"/>
			<path class="st9" d="M2364.9,41c0.3-0.4,0.7-0.7,1-1.1c0.6,0,1.1,0,1.2-0.8l0,0c5.4-0.9,10.5-2.7,16-3.4
				c14.6-1.7,29.1-0.8,43.7,0.8c3.2,0.3,4.4,0,4.2-3.6c-0.3-5.8-0.1-11.6-0.1-17.4l0.4,0.1c2,0.2,4.1,0.3,6.1,0.5
				c0.5,3.5-0.9,7.1,0.5,10.8c3.6-3,6.2-6.7,10-9c2.5-0.4,4.8,0.5,7.2,1.1c-2.8,3.4-6.9,5.3-9.3,9.1c-1.2,1.1-3,2.1-3.5,3.4
				c-1,2.6-6.1,2.5-4.8,5.1s5.4,1,8.3,1.5c2.3,1.2,4.9,0.7,7.4,1c40.7,5.7,80,16.8,118.4,31.3c15.7,5.9,31.4,11.8,47.1,17.7l0,0
				c0.7,0.4,1.3,0.7,2,1.1c2.4,1.2,4.8,2.5,7.2,3.7c0.5,0.8,1.2,1,2.1,0.9l0,0c0,2.2,2.3,2.6,3.4,3.9c1.4,1.6,3,3,2.5,5.5
				c-1.8-0.8-3.7-1.5-5.5-2.3c-46.5-19.9-93.3-39-143.1-49.6c-31.2-6.6-62.8-10.1-94.6-10.7c-10.8-0.2-21.4,1.1-29.6,9.3
				C2362.2,46.6,2364.1,44,2364.9,41z"/>
			<path class="st2" d="M2364.9,41c-0.8,2.9-2.7,5.6-2,8.9V50c-0.3,0.4-0.6,0.7-0.9,1.1c0,0.4-0.1,0.9-0.1,1.3
				c-4.3,6.6-2.6,12.9,1,19.1v0.3c0.1,0.6,0.2,1.2,1,1.3l-0.1-0.1c-0.1,0.9,0.1,1.7,1.1,2.1l-0.1-0.1c0.4,0.7,0.7,1.3,1.1,2l0,0
				c0.3,0.4,0.6,0.9,1,1.3c4.9,7.4,10.6,14.1,18,19.2c-0.1,0.8,0.2,1.3,1,1.5h-0.1c0.9,1.4,1.9,2.5,3.5,2.9c0.5,0.4,1,0.7,1.6,1.1
				h-0.1c0.4,0.8,0.7,1.9,2,1.2l-0.1-0.1c-0.4,1.1,0.1,1.3,1.1,1l-0.2,0.1c9.4,8.9,20,16.5,31.3,22.6c3.3,1.8,6,3.9,8.8,6
				c1.6,1.2,3.1,2.2,1.6,4.3c-1.2,1.7-2.9,2-4.8,0.9c-2.8-1.5-5.4-4.3-8.9-1.7c-4.5,1.7-9,3.4-13.6,5.1c5-0.1,9.5-1.6,13.7-4.3
				c2-0.2,4.2-0.5,4.8,2.2c0.6,2.6-1.5,3.3-3.4,4.1c-12.6,5.6-25.8,8.6-39.5,9.6c-3.9,0.3-7.8,1-11.8,0.2c-2.1-0.4-4.2-0.5-3.9-3.4
				c0.3-2.7,2.3-2.8,4.4-2.8c5,0,10-0.2,15-0.4c1.1,0,3.2-0.4,3.2-0.8c0.8-7.4,7.8-5.9,11.9-8.3c3.3-2,7.5-2.6,11.1-5
				c-16.7-7.4-33.7-12.1-51.3-15.3c-0.2,0-0.3-0.1-0.5-0.1c-2.5-0.2-5-0.8-4.5-3.9c0.6-3.5,3.6-2.3,5.7-2c10.5,1.8,20.9,4.1,31,7.5
				c2.8,0.9,5.6,1.7,9.1,2.8c-0.7-2.8-2.7-3.5-4.1-4.6c-12.2-9.8-23.5-20.7-34-32.2c-4.8-5.3-9-11.1-11.3-18
				C2349.8,56.1,2354.1,46.1,2364.9,41z"/>
			<path class="st5" d="M2475.9,99.3c-16.5,0.7-32.8,3.1-49,6.1c-2.2,0.4-5,1.7-5.8-1.6c-0.9-3.7,2.3-3.8,4.7-4.2
				c34.5-6.7,69.3-8.8,104.3-5.8c8.6,0.7,17.2,1.8,25.8,2.7c3.9,0.7,7.8,1.4,11.7,2c15.2,2.6,30,6.7,44.9,10.6
				c11.2,4,22.3,8,33.5,12c7.6,3.5,15.2,7,22.8,10.5c2.1,1.8,6,1.6,6.3,5.4c-0.3,0.7-0.2,1.7-1.3,2c-1,0-2,0-3,0
				c-8.7-3.9-17.3-7.8-26-11.6c-1.5-0.6-3.1-1-4.6-1.4c-0.8-0.5-1.6-1.1-2.5-1.5c-20.6-8-41.7-14.4-63.4-18.6
				c-9.1-1.8-18.1-4.2-27.5-3.9c-18-3.6-36.3-3.6-54.5-3.5C2486.9,98.5,2481.4,99,2475.9,99.3z"/>
			<path class="st3" d="M2437.4,16.2c-2-0.2-4.1-0.3-6.1-0.5c1.2-50.2,2.4-100.5,3.8-150.7c0.6-22.6,0.9-45.2,2.6-67.8
				c0.1-1.8-0.2-3.8,1.8-4.9c2.6-1.4,4.5,0.3,4.4,4.1c-0.5,17.1-1,34.2-1.5,51.4c-0.6,20.6-1.4,41.2-2,61.8
				c-0.9,33.6-1.8,67.2-2.7,100.8c0,1.8,0.1,3.7,0.2,5.5C2437.7,16,2437.6,16,2437.4,16.2z"/>
			<path class="st10" d="M2675.2,136.9c-0.4-3.8-4.2-3.6-6.3-5.4c0.2-3.4-2.4-6.1-2-9.5c6.4,3.9,11.8,9.1,17,14.5
				c1.6,1.6,3.3,2.6,5.2,0.9c2-1.8,0.8-3.6-0.7-5.1c-4.1-3.9-8.2-7.7-12.3-11.6c5.9-0.6,6.3-1.3,4.4-7.1c-1-3-1.9-6-2.6-9
				c-2.1-10.2-4.1-20.3-6.2-30.5c0.1-0.4,0.2-0.8,0.3-1.2c18.7,8.1,32.3,20.8,35.7,41.8c2.6,15.8-12.1,28.2-27.7,23.8
				C2678.3,138,2676.8,137.4,2675.2,136.9z"/>
			<path class="st5" d="M1161.9,152c-4.2,1.3-7.9-1.2-11.8-1.9c-3.4-0.6-6.5-2.6-10.2-1.7c-6.1-2.2-11.3-6-16.7-9.5
				c-15-9.5-29.9-19-43.7-30.3c-1.7-1.4-3-3.5-5.5-4v0.1c-0.1-0.4-0.2-0.8-0.4-1.1c-4.3-3.9-8.6-7.8-12.8-11.8
				c-1.5-2.2-3.2-4.4-5.3-6.1c-0.6-0.8-1-1.7-1.7-2.5C1036,62,1026.3,38,1029,9.8c0.3-3.3,1-6.4,2.9-9.2l-0.1,0.1
				c0.6,0,1.2,0,1.7,0.1c4.6,0.7,3.2,4.2,3.3,7c-2.3,11.2-1.1,22.2,2.1,33c3.7,12.5,8.9,24.2,17.9,33.9l0,0c-0.2,0.9,0.3,1.5,1,2
				c14.4,19.1,32.9,33.6,52.6,46.7C1126.9,134.5,1144.4,143.2,1161.9,152z"/>
			<path class="st2" d="M2455.1,19c-2.4-0.6-4.7-1.5-7.2-1.1c0.1-0.2,0.1-0.5,0-0.7c31.6-25.5,68-29.6,106.5-23.8
				c7.4,1.1,14.7,2.9,22,4.5c1.9,0.4,3.8,0.9,5.9-0.5c-2.3-3.2-5.3-4.5-8.9-4.6c-2.5,0-4.5-0.8-4.3-3.6c0.2-2.9,2.7-2.4,4.6-2.4
				c7,0,13.7,4.4,16,11.4c1,3.2,2.7,4.5,5.7,5.3c13.4,4,26.1,9.8,38.3,16.5c0,0.3,0,0.5,0.2,0.8c-2.6,0-5.3-0.4-7.1,2.2
				c-0.6-0.1-1.2-0.2-1.8-0.3c-10-5.7-20.4-10.2-31.5-13c-12.4-5.1-25.2-8.2-38.5-9.9c-0.4-0.2-0.8-0.6-1.3-0.7
				c-17-2.4-34-3.2-51-0.3c-17,2.9-32.6,9.1-46.3,19.8C2456,18.9,2455.6,18.9,2455.1,19z"/>
			<path class="st4" d="M827,336c-2.7-31.8-5.5-63.6-8.2-95.3c-0.7-7.6-1.9-15.2-1.8-22.8c3.2,4.4,4.7,9.6,7.5,14.2
				c5.6,14.8,10.5,29.8,11.9,45.7C838.2,297.9,836.1,317.5,827,336z"/>
			<path class="st10" d="M2430.9,15.6c0,5.8-0.2,11.6,0.1,17.4c0.2,3.6-1.1,3.9-4.2,3.6c-14.5-1.6-29-2.6-43.7-0.8
				c-5.5,0.7-10.6,2.5-16,3.4c1.5-6.7,6.8-10.4,11.7-14.1c9-6.8,19.8-9.2,30.8-10C2416.7,14.7,2423.8,14.2,2430.9,15.6z"/>
			<path class="st6" d="M827,336c9.1-18.5,11.1-38.1,9.4-58.3c-1.4-15.9-6.3-30.9-11.9-45.7c2.4-0.2,3.1,1.9,3.9,3.3
				c2.1,3.6,3.6,7.5,5.7,11c1.9,3.2,2.1,7.3,5.5,9.6c1.1,4.6,2.1,9.3,3.2,13.9c0.3,4.4,0.8,8.9,1,13.3c1.1,18.1-2.1,35.6-8.2,52.5
				c-0.1,0.4-0.3,0.7-0.4,1.1c0.4-0.1,0.7-0.2,1.1-0.2c5.1-3.2,10.2-6.5,15.3-9.7c2,1.2,4,2.5,4.3,5.2c-7.2,5.5-15.2,9.8-21.9,15.9
				c-2.7,2-5.3,3.9-8,6c-1.8,1.3-3.6,1.9-5.4,0.3c-1.8-1.7-1.2-3.5-0.2-5.4C822.8,344.7,825.7,340.7,827,336z"/>
			<path class="st2" d="M2635.8,162.6c7.7,1.8,15.3,3.5,23,5.3c1.3,0.3,2.6,0.7,3.9,0.9c2.4,0.4,4.5,1.3,4,4
				c-0.5,3.2-3.2,2.3-5.2,1.9c-12-2.7-23.9-5.6-36-8.1c-7.7-1.6-14.9-5.4-23-5.5c-2,0-3.3-0.7-3.2-2.9c0.1-2.3,1.6-3.2,3.7-3.2
				c4.2,0,8.3,0.1,12.5,0.1c5,0,10.1,0,15.2-0.4c-7.8-3.4-16-5-24.2-6.8c-1-0.2-2-0.4-2.9-0.6c-2-0.6-2.5-2-2.1-3.9
				c0.4-1.9,1.9-2.1,3.5-1.8c6.8,1.4,13.7,2.6,20.5,4.2c10.5,2.5,20.7,5.8,30.8,9.9c2,0.8,3.8,1.7,3,4.2c-0.7,2.3-2.5,1.9-4.5,1.8
				c-6.3-0.2-12.5-0.1-18.8-0.1C2635.9,162,2635.9,162.3,2635.8,162.6z"/>
			<path class="st2" d="M2674.8,270.1c2.1,9,4,17.4,4.6,26c0.8,10.2-0.2,20.2-3.4,30c-0.6,2-1.5,3.4-3.8,2.9s-2.8-2.3-2.1-4.2
				c6.4-18.2,3.2-36.1-1.4-53.9c-0.3-1-0.6-1.9-0.8-2.9c-0.4-1.9-1.8-3.9,0.2-5.6c1.9-1.5,3.8-0.4,5.6,0.4c8,3.5,16,7,24.7,10.8
				c-0.4-3.2-1.9-5.2-3-7.2c-5.1-9.2-11.5-17.4-18.7-25.2c-1.4-1.5-3.1-3-0.9-5c1.9-1.7,3.6-0.9,5.2,0.7
				c11.4,11.9,20.2,25.4,26.7,40.6c0.7,1.6,1.1,3.3-0.4,4.6c-1.4,1.3-3.1,0.6-4.7-0.1C2693.6,278.3,2684.5,274.4,2674.8,270.1z"/>
			<path class="st2" d="M2704.6,167.5c0.6,2.4,2.5,2.7,3.8,3.5c9.2,5.9,18.5,11.8,27.7,17.7c1.9,1.2,4,2.6,2.3,5.1
				c-1.6,2.4-3.7,1.4-5.6,0.1c-19.4-13.1-39.5-25.1-60.3-35.9c-1.8-1-3.7-2-2.9-4.5c0.9-2.8,3-1.6,4.9-1.5
				c13.7,0.7,26.7,4.8,40.2,6.5c5.2,0.6,5.7,5,7.6,7.9c1.3,2-1.2,3.7-3.9,3.3C2713.9,168.9,2709.4,168.2,2704.6,167.5z"/>
			<path class="st4" d="M789.1,6.1c-4.1,9-8.3,18-12.4,27c-7.8,17.3-14.3,34.9-16.3,54C760,91,759.9,95,759.7,99
				c-6.4-10.6-8.7-22.1-7.4-34.3c1.9-17.2,10.2-31.4,21.4-44C778.4,15.4,782.9,9.9,789.1,6.1z"/>
			<path class="st5" d="M2480.2,151c0.6,2.2,2.1,1.8,3.3,1.9c5.5,0.6,10.9,1.3,16.4,1.9c2.1,0.2,3.7,0.8,3.7,3.1
				c0,1.9-1.3,2.8-3.3,3.1c-2.6,0.3-5.3,0.4-6.2,3.7c-0.3,1-1.5,1.2-2.6,1.2c-9.2-0.4-18.2,1.8-27.3,2c-2.3,0-5,0.7-5.4-2.7
				c-0.3-3.2,2.3-3,4.4-3.4c4.7-0.9,9.3-1.8,13.9-3.6c-7.5-0.8-15-1.6-22.5-2.5c-1.9-0.2-4.4-0.1-4.6-2.9c-0.3-2.9,2-3.4,4.2-3.9
				c15.5-3.8,31.2-5.1,47-3.1c2.4,0.3,4.5,0.8,4.2,3.7c-0.3,2.7-2.6,2.6-4.7,2.3C2494.1,151,2487.3,150.8,2480.2,151z"/>
			<path class="st1" d="M1313.8,176.9c-15.4-0.1-30.8,0.2-46.2-1.1c-31-2.4-61.6-6.7-90.8-17.7c-1.4-0.5-2.6-1.3-4-1.9
				c17.1,3.2,34,7.4,51.4,8.9c22.5,1.9,45,3.5,67.5,5.2c3.5,3,8.2,2.4,12.3,3.6C1307.3,174.9,1310.7,175.5,1313.8,176.9z"/>
			<path class="st7" d="M839.7,255.9c-3.4-2.3-3.6-6.4-5.5-9.6c-2.1-3.5-3.7-7.4-5.7-11c-0.8-1.4-1.5-3.5-3.9-3.3
				c-2.7-4.6-4.3-9.8-7.5-14.2c-1-3.1-3.7-5.4-4.3-8.7c2-5.2,6.2-2,9.4-2.4c0.5,0.1,0.9,0.2,1.4,0.4c0.5,1.7,2,2.6,3.2,3.7
				c13,11.1,26.1,22.1,39.2,33.2c1.9,1.6,4.2,2.8,4.3,5.8c-1.6,3.9-3.9,4-7,1.5c-4.6-3.8-9.3-7.5-14-11.3
				c-6.7-5.5-13.3-11.1-19.9-16.7C833.4,234.1,836.7,245,839.7,255.9z"/>
			<path class="st6" d="M1114.9,234.3c0.6,2.4,2.6,1.5,4.1,1.7c10.6,1,21.3,2,31.9,3c1.2,0.1,1.8,0.7,2,1.8c-17,1.3-34,0.3-51,0.2
				c-17.9-1.4-35.8-2.8-53.7-4.2c-6.1-2-6.5-2.7-4.3-7.7c12.9,1.1,25.7,2.1,38.6,3.5c6.4,0.7,13-0.1,19.3,1.4c1.6,1.5,3.3,1.4,5,0.1
				C1109.5,234.1,1112.2,234.2,1114.9,234.3z"/>
			<path class="st7" d="M1026.8-103.7c0.9-3.1,4.7-2,6.1-4.4c0.6,0.1,1.2,0.2,1.9,0.4c12.8,7.7,22.3,18.2,27.7,32.3
				c2.8,7.3,3.5,14.8,4.2,22.4c-0.4,2.7-0.8,5.3-1.2,8c-2,0.5-2.1,2.4-2.9,3.7c-2.4,4.1-4.7,8.2-7.1,12.4c-0.9,1.6-1.8,3.2-4.1,2.8
				c0.7-1.3,1.4-2.6,2.1-4c6.8-14.7,7.7-29.6,0.5-44.4l0.1-0.2c0-0.9-0.3-1.8-1.1-2.3l0.1,0.1c-0.1-0.6-0.2-1.2-1-1.1h0.1
				c0.3-2.4-1.4-4-2.5-5.7C1043.7-92.5,1035.9-98.9,1026.8-103.7z"/>
			<path class="st2" d="M2552.8,245.1c-11.9,0.8-12,1-9-10.4c5.1-19.8,9.8-39.7,14.8-59.5c0.5-2.2,0.2-5.8,4-4.8
				c3.2,0.9,2.4,3.8,1.7,6.3c-4.7,19-9.4,38.1-14.1,57.1c-1.5,5.9-1.4,5.9,4.8,5.5c1.7-0.1,3.3-0.3,5-0.2c2.2,0.1,3.4,1.3,3.4,3.5
				c0,2.3-1.7,2.5-3.5,2.5C2557.5,245.1,2555.2,245.1,2552.8,245.1z"/>
			<path class="st4" d="M1056.9,74.9c-9-9.7-14.3-21.4-17.9-33.9c-3.2-10.8-4.4-21.8-2.1-33c8.3,12.4,12,26.4,14.8,40.7
				C1053.5,57.5,1055.2,66.2,1056.9,74.9z"/>
			<path class="st4" d="M761.8,120.9c3,12.2,8.1,23.7,12.4,35.5c4.8,13,15.1,21.4,22.1,32.5c0.9,1.4,2.6,2.2,2.6,4.1
				c-9.1-3.1-15.8-9.6-21.8-16.6c-13-15.3-18.6-33-16.1-53.1C761.1,122.4,761.5,121.7,761.8,120.9z"/>
			<path class="st4" d="M1066.6-53.1c-0.7-7.6-1.4-15.1-4.2-22.4c-5.4-14.1-14.9-24.6-27.7-32.3c17-2.3,26.2,3.6,31.2,19.8
				C1069.5-76.4,1070-64.8,1066.6-53.1z"/>
			<path class="st9" d="M2626.8,23.2c1.8-2.6,4.5-2.2,7.1-2.2c2,1.2,4,2.3,5.9,3.5c10.4,6.9,18.4,16,25,26.5l0,0
				c-0.2,1,0.1,1.8,0.9,2.3c2.1,6.5,4.1,13,6.2,19.5c-0.1,0.4-0.2,0.8-0.3,1.2c-1.6,2.6-0.4,5.5-0.8,8.2c-0.4,2.6,1.2,5.6-1.3,7.9
				c-1-0.7-0.6-1.8-0.7-2.8c-1.9-16.8-6.2-32.6-18.1-45.5C2643.7,34.2,2635.3,28.6,2626.8,23.2z"/>
			<path class="st8" d="M2546.9,102c9.4-0.3,18.4,2.1,27.5,3.9c21.7,4.2,42.8,10.5,63.4,18.6c0.9,0.3,1.7,1,2.5,1.5
				c-4.6,3.7-9.4,2.2-14,0.4c-20-7.8-40.1-14.9-61-19.9C2559.1,105,2553,103.5,2546.9,102z"/>
			<path class="st7" d="M855.9,332c-0.3-2.6-2.2-4-4.3-5.2c0.1-0.3,0.2-0.6,0.3-0.9c9.7-5.4,19.3-10.8,29-16.1
				c2.9-0.8,5.6-2.1,8.1-3.8c1.6-0.5,3.1-1,4.7-1.5c-0.3,2.4-0.6,4.8-0.9,7.3c-0.7,0.6-1.3,1.2-2,1.8c-7,2.8-13.7,6.1-20.1,10.2
				c-0.4,0.3-0.8,0.6-1.1,0.9v-0.1c-4.5,1.5-8.4,4.2-12.1,7C857,331.8,856.5,331.9,855.9,332z"/>
			<path class="st5" d="M1051.4-26.2c2.3,0.4,3.2-1.2,4.1-2.8c2.4-4.1,4.7-8.3,7.1-12.4c0.8-1.4,0.9-3.3,2.9-3.7
				c-2.7,17.2-11.9,30.2-25.7,40.2c-1.9,1.4-3.8,2.7-5.7,4c-1.1,0.2-2.1,0.5-2.3,1.8l0.1-0.1c-3.7-0.3-6.4,3-10.1,2.9
				c1.1-3.8,5.2-4.2,7.5-6.6c3.1-3.2,8.2-4.3,9.4-9.4c3.3-3.3,6.6-6.6,9.9-9.9c2.2,0,2.1-1.5,2.1-3.1
				C1051-25.5,1051.2-25.9,1051.4-26.2z"/>
			<path class="st11" d="M2536.5,277.6c1.8,3,3.3,5.5,4.7,8c0.9,1.6,1.2,3.3-0.5,4.4c-1.8,1.2-3.5,0.6-4.6-1.2
				c-2.1-3.4-4.3-6.7-6.2-10.1c-1.6-2.8-0.2-5.6,1.1-7.8c1.3-2.4,3.8-0.8,5.7,0c6.1,2.3,12.3,3.9,18.7,4.9c2.3,0.4,4.7,0.8,4.2,3.7
				c-0.5,3.2-3.1,2.8-5.5,2.2C2548.4,280.2,2542.8,279,2536.5,277.6z"/>
			<path class="st11" d="M2670.9,138.9c1,0,2,0,3,0c-0.4,2.6,1.7,1.9,3,2.1c9.3,1.7,18.6,3.3,27.9,4.9c2.4,0.4,4.8,0.9,4.3,4.2
				c-0.6,3.4-3.2,2.2-5.1,1.8c-10.6-1.8-21.2-3.7-31.8-5.6c-2.3-0.4-5.3,0-5.7-3.5C2666,139.3,2669.8,140.7,2670.9,138.9z"/>
			<path class="st4" d="M870.8,323.8c6.4-4,13.1-7.4,20.1-10.2c-2.6,13.6-14.9,23.6-27.1,20c1.1-3.6,4.7-5.5,5.9-9v0.1
				C870,324.5,870.4,324.1,870.8,323.8z"/>
			<path class="st4" d="M1044,229c-2.2,5-1.8,5.8,4.3,7.7c-10.7,1.8-21.4,4-32.3,2c6.5-4.2,13.8-6.8,20.1-11.3
				C1038.5,225.7,1041.2,228.8,1044,229z"/>
			<path class="st11" d="M2618.7,195.1c-0.3,3.1-2.5,5.4-4.9,4.2c-6.2-2.9-12.2-0.7-18.4-0.5c-1.1,0-2.4,0.1-3.4-0.3
				c-1.4-0.5-1.8-1.8-1.7-3.3c0.2-1.6,1.1-2.2,2.6-2.3c6.8-0.5,13.5-1.1,20.3-1.6C2616.1,191,2617.9,192.4,2618.7,195.1z"/>
			<path class="st4" d="M961-116.5c-15.9,2.5-31.6,5.8-46.8,11.3c-0.7,0.3-1.6,0.2-2.4,0.2c14.4-9.5,29.4-16.7,47.5-12.2
				C959.8-117.1,960.4-116.8,961-116.5z"/>
			<path class="st4" d="M855.9,332c0.6-0.1,1.1-0.2,1.7-0.3c1.5,0.8,2.9,1.6,4.4,2.4c-3.5,4.3-7.7,7.8-11.8,11.4
				c-4.9,4.2-10.3,5-16.2,2.5C840.7,341.8,848.7,337.5,855.9,332z"/>
			<path class="st8" d="M2664.9,51c-6.6-10.5-14.7-19.6-25-26.5c-1.9-1.3-4-2.4-5.9-3.5c-0.1-0.2-0.2-0.5-0.2-0.8
				c9.9-0.7,17.3,3.9,23,11.4C2661,37.3,2664.3,43.6,2664.9,51z"/>
			<path class="st11" d="M2571.3,274.9c-1.4,0-2-0.9-2.7-1.9c-2.9-4-6.1-7.8-9.8-11.2c-1.7-1.5-2.6-3.1-0.8-5.1
				c1.9-2.1,3.5-0.7,5.1,0.7c3.9,3.6,7.4,7.6,10.5,11.9c0.9,1.3,1.3,2.7,0.3,4.2C2573.2,274.4,2572.5,275,2571.3,274.9z"/>
			<path class="st11" d="M2517,254.9c-0.1,2-14.5,12.9-16.6,12.5c-1.2-0.2-2.2-0.9-2.5-2.2c-0.3-1.2,0-2.3,1-3.1
				c4.4-3.3,8.6-6.7,13.1-9.8C2514.5,250.7,2517.1,252.3,2517,254.9z"/>
			<path class="st11" d="M2587.8,264.1c4.8,2.4,10.1,4.4,14.6,7.7c1,0.8,0.8,2.5,0,3.7c-0.8,1.2-2,1.6-3.4,0.9
				c-4.1-2.1-8.3-4.1-12.4-6.2c-1.5-0.8-2-2.1-1.5-3.8C2585.4,265.1,2586.2,264.3,2587.8,264.1z"/>
			<path class="st11" d="M2528.6,264.9c-0.7-0.1-1.6-0.8-1.8-2c-0.3-1.3-0.3-2.8,1-3.6c3.4-2,7-3.8,10.5-5.6
				c1.1-0.6,2.3-0.1,3.1,0.9c0.7,1,0.6,2.2,0.2,3.3C2541.1,259.1,2530.5,265,2528.6,264.9z"/>
			<path class="st11" d="M2707.5,184.1c1.5-0.1,9.8,6.8,10.2,8.4c0.3,1.3-0.3,2.4-1.2,3.1c-0.9,0.8-2.3,0.9-3.3,0.2
				c-2.6-2-5.2-4.2-7.6-6.4c-1.1-1-1-2.4-0.4-3.7C2705.5,184.7,2706.5,184.3,2707.5,184.1z"/>
			<path class="st11" d="M2487.4,189.8c1.9,0,3.7,1.1,3,4.2c-0.5,2.3,0.7,6.3-3.1,6.3c-4.3,0-3.8-4.4-4.5-7.2
				C2482.2,190.5,2484.1,189.6,2487.4,189.8z"/>
			<path class="st8" d="M2447.9,17.3c0.1,0.2,0.1,0.5,0,0.7c-3.8,2.3-6.4,6-10,9c-1.4-3.8,0-7.4-0.5-10.8c0.1-0.1,0.3-0.2,0.5-0.2
				C2441.2,16.4,2444.6,16.9,2447.9,17.3z"/>
			<path class="st1" d="M862,334c-1.5-0.8-2.9-1.6-4.4-2.4c3.8-2.8,7.6-5.5,12.1-7c-1.2,3.5-4.8,5.4-5.9,9
				C863.2,333.8,862.6,333.9,862,334z"/>
			<path class="st8" d="M2421.6,138c-4.1,2.7-8.6,4.3-13.7,4.3c4.5-1.7,9-3.4,13.6-5.1C2421.8,137.4,2421.8,137.7,2421.6,138z"/>
			<path class="st4" d="M1031.8,1c0.1-1.4,1.2-1.6,2.3-1.8c-0.2,0.6-0.4,1.3-0.5,1.9C1033,1,1032.4,1,1031.8,1z"/>
			<path class="st8" d="M2665.8,53.3c-0.9-0.6-1.1-1.4-0.9-2.3C2666.1,51.3,2666,52.3,2665.8,53.3z"/>
			<path class="st4" d="M1057.9,76.9c-0.7-0.5-1.2-1.1-1-2C1058.1,75.1,1058.1,76,1057.9,76.9z"/>
			<path class="st4" d="M798.8,192.9c0.8-0.1,1.1,0.4,1.2,1.1C799.4,193.9,798.8,193.8,798.8,192.9z"/>
			<path class="st10" d="M2367.1,39.2c-0.1,0.8-0.6,0.8-1.2,0.8C2366.1,39.3,2366.4,38.9,2367.1,39.2z"/>
			<path class="st4" d="M790,5c0,0.6-0.1,1.1-0.9,1.2C789,5.4,789.3,5.1,790,5z"/>
			<path class="st4" d="M1021.9,3.8c3.6,0.1,6.3-3.2,10.1-2.9c-1.9,2.7-2.6,5.8-2.9,9.2c-2.7,28.2,7,52.1,24.8,73.4
				c0.6,0.8,1.1,1.6,1.7,2.5c-8.6,0-11.7,3.5-10.8,11.2c2.8,22.3,13,40.9,28.6,56.9c3.5,3.6,6.3,7.7,9.5,11.5
				c0.4-0.2,0.9-0.3,1.3-0.5c-2.7,0-5.4-0.1-8.1,0c-20.4,0.8-40.9,0.6-60.8,5.9c-2.7,0.7-5.4,1.4-8.2,2.1c0.8-3.4,1.9-6.7,3.8-9.6
				c1.5-0.9,3-1.8,4.5-2.7c10.4-1.5,19.2-5.9,25.9-13.9c10.2-12.2,3.5-32.9-13.8-32.1c-1.7,0.1-3.2-0.7-3.4-2.8
				c-0.7-9.5-2.9-18.9-3.1-28.5c-0.1-5.8-0.3-11.6-0.8-17.4c-0.4-4.7-1.9-10.1,2.7-14.2c1.2-1.1,1-3.3-0.5-3.8
				c-4.1-1.5-3.2-4.8-3.4-7.8c-0.1-2-0.5-3.9-0.8-5.9c-0.6-3.2-2.8-2.3-4.5-2.3c-2.2,0-2.4,1.9-2.7,3.5c-0.3,1.4,1.5,2.7,0.1,4.7
				c-5.4-3.5-10.9-7-16.3-10.5c-0.5,0-0.9-0.1-0.8-0.8v0.2c-0.7-0.4-1.4-0.7-2.1-1.1l0.1,0.1c-0.4-2.5-2.8-2.9-4.4-4
				c-2.8-1.9-6.6-1.8-9.1-4.2c2-0.6,4.1-1.3,6.1-1.9c9.8-2.8,19.8-5.3,28.5-10.9C1015.9,5.9,1018.9,4.9,1021.9,3.8z"/>
			<path class="st7" d="M1010.8,163.5c-2,2.9-3,6.2-3.8,9.6c-7.1,16.9-14.4,33.7-24.7,49c-2.9-0.6-1.8-4.6-4.6-5.2
				c0.2-0.6,0.4-1.3,0.6-1.9c6.5-10.9,12.7-21.9,16.9-33.8h-0.1c0.7,0,0.8-0.5,0.8-1.1c3.1-5.8,5.2-12.1,7.5-18.3
				c0.9-2.3,1.5-5.1,4.9-4.3C1011.7,158.2,1010.9,161,1010.8,163.5z"/>
			<path class="st12" d="M1074,104.8c2.5,0.4,3.7,2.5,5.5,4c13.8,11.2,28.7,20.8,43.7,30.3c5.5,3.5,10.6,7.2,16.7,9.5
				c2.9,2.7,6.6,4,10.1,5.7c-10.6-2.2-19.8-7.6-29.4-12c-9.9-4.6-19.5-10-28.9-15.7c-5-3-9.6-6.6-12.8-11.5
				C1078.2,111.1,1074.6,108.7,1074,104.8z"/>
			<path class="st4" d="M1074,104.8c0.6,3.9,4.3,6.3,4.9,10.2c-7-3.6-10.7-10.3-15-16.4c-1.4-1.9-3.2-3.8-3.1-6.6
				c4.3,3.9,8.6,7.8,12.8,11.8c-0.6,0.6-0.6,1,0.4,1.1V104.8z"/>
			<path class="st4" d="M1334.7,184.8c6,0,12.1,0,19.3,0c-4.6,3.8-8.5,6.6-13,8.6C1340,189.7,1336.7,187.7,1334.7,184.8z"/>
			<path class="st7" d="M1106.8,234.1c-1.7,1.3-3.3,1.4-5-0.1C1103.5,234,1105.2,234,1106.8,234.1z"/>
			<path class="st1" d="M1263.7,227.7c14-3.4,28.1-6.3,41.8-10.7c13-4.2,25.4-9.7,37.5-15.8c-0.4,14.3-10,24.8-25.1,25.6
				C1299.8,227.6,1281.7,227.4,1263.7,227.7z"/>
			<path class="st4" d="M870.2,249.7c-0.1-2.9-2.4-4.2-4.3-5.8c-13.1-11.1-26.1-22.1-39.2-33.2c-1.2-1.1-2.7-2-3.2-3.7
				c1.1-4.8-3.1-4-5.5-5.1c-18-23.5-40.2-44.2-47.4-74.9c-6.1-26-3.2-51.1,4.9-76c6.7-20.3,16.3-39.2,28-57.1
				c0.3-0.5,0.9-0.9,1.3-1.4c0.3-0.6,0.6-1.2,0.9-1.9l-0.1,0.1c0.7,0,1.3-0.2,1-1.1l0,0c2.6,0.6,3.8-1.2,4.9-3
				c1.5-2.5,2.9-5.3,5.3-7c5.6-4.1,7.7-10.4,10.8-16l-0.1,0.1c1.1-0.2,0.9-1.3,1.2-2h-0.1c0.3-0.3,0.7-0.6,1-0.8
				c0.4-1.3,1.9-3,2.5-2.6c5.1,3.1,6.5-1.5,8.5-4.2c21.4-28,50.1-45,83.2-55.3c15.5-4.8,31.4-8.3,47.8-9.2c0.8,1.5,2.1,1.9,3.8,1.6
				c13.4-2.5,26.4,1.3,39.5,2.8c2.3,0.3,5,0.6,6.8,2.6c-0.1,0.5,0.1,1.2-0.2,1.4c-6.9,7-7.7,15.8-7.8,24.9c-0.3,21-9.3,36.4-28.4,46
				c-19.9,10.1-41.5,13.6-63,17.6C894.9-8.4,869,0.2,846.1,16.6c-15.2,10.9-27.5,24.4-37.7,40c-2.7,4.2-2.4,8.2,0.7,10.8
				c3.6,3.1,6.7,2,10.2-0.7c8.1-6.3,16.2-12.8,25.6-17.2c0.7,6.9-2.3,13-4.3,19.4c-0.8,1.4-1.5,3-2.5,4.2c-2.9,3.3-2.1,5.6,1.5,7.5
				c0.4,1.7-0.5,4.2,1.2,5.1c3.5,1.8,2.8,4.8,2.9,7.7c0.1,2.3,0.2,4.6,0.3,6.9c0.1,3.1,1.6,4.6,4.7,4.3c0.2,5.2-1.5,9.6-5.3,13.2
				c-3.5-0.1-7-0.4-10.4-0.2c-9.8,0.7-14.7,7.7-12.5,17.2c0.4,1.9,1,3.8,1.5,5.8c-3.2,1.2-4.8,3.4-5.1,6.9c-0.2,3.1-2,5.6-3.9,7.9
				c-1.5,1.8-1,2.7,0.8,3.8c2.8,1.7,5,2.7,8.5,0.5c6.7-4.2,16-3.5,21.2,2.2c5.7,6.3,13.2,8.5,20.4,11.7c6.2,12.6,12,25.4,20.1,37.1
				c7.4,10.6,16.1,19.9,25.8,28.3c2.4,6.7,5.1,13.3,6.6,20.3c-0.4,7.6-0.2,15.2-1.8,22.7c-1.7,6.2-6.1,10.9-8.8,16.6l0.1-0.1
				c-0.5,0.3-1.1,0.5-1.6,0.8c-3.5,1.4-7,2.8-10.4,4.2C895.4,281.7,884.8,264.9,870.2,249.7z"/>
			<path class="st12" d="M843.5,118.2c3.8-3.6,5.6-8,5.3-13.2c2.6-1.5,2.5-3.8,2.4-6.4c-0.6-12.9-0.9-25.8,0.4-38.6
				c0.2-2.3,0.8-4.2,2.3-5.8c0.6-0.2,1.2-0.3,1-1.2l0,0c1.8,0.4,2.8-0.8,3.8-1.9c5.9-6.5,12.8-11.4,20.7-14.9
				c0.5-0.2,0.9-0.9,1.3-1.3c2.7-1.1,5.3-2.2,8-3.3c9.6-1.7,19.1-3.8,28.8-4.8c13.8-1.4,27.6-3,41.4-4.6c1.3,0.3,2.6,0.6,3.9,0.8
				c1.5,0.6,3,1.3,4.5,1.9c12.6,4.8,24.6,10.9,35.5,18.9c1,4.7,2.1,9.4,3.1,14c2.2,9.8,3.4,19.9,7.8,29.2c1.1,8.4,2,16.8,3.3,25.1
				c0.5,3.5,0.8,6.6-1.9,9.6c-1.7,1.9-3.4,5.6-0.3,7.4c3.1,1.8,3.2,3.6,2.4,6.4c-0.6,2.2-0.3,4.1,2.3,4.6c2.5,0.5,4.3-0.6,4.7-3.2
				c0.5-3.4,1.1-6.9,0.9-10.4c-0.3-4.6,1.6-5.6,5.6-4.5c0.5,1,0.9,2.2,1.6,3.1c2.8,3.7,3.3,6.8-0.5,10.7c-3.5,3.5-5.3,8.3-5,13.6
				c-2.6,1.9-5.6,2.8-8.6,3.6c-5.2,1.4-5.8,2.9-3.1,7.7c-1.5,0.9-3,1.8-4.5,2.7c0.1-2.4,0.9-5.2-2.6-6c-3.4-0.7-4,2-4.9,4.3
				c-2.3,6.2-4.4,12.4-7.5,18.3c-0.3,0.4-0.5,0.7-0.8,1.1h0.1c-11.7,6.2-19,21-16.9,33.8c-0.2,0.6-0.4,1.3-0.6,1.9
				c-5,7.6-10,15.2-15.1,22.8c-1.9-0.9-1-2.5-1.4-3.6c-0.7-1.9-2.2-2.6-3.9-2.5c-1.9,0.1-3,1.4-3,3.3c0.1,3.8,0.2,7.7,0.5,11.5
				c0.3,3.2-1.2,4.4-4.1,3.8c-2.3-0.5-4.6-1-6.6-2c-26-12.4-48.6-28.9-62.6-55c-4.9-9.2-9.5-18.6-11.5-29c-0.3-1.8-0.8-3.6-1.4-5.3
				c-3.4-10.6-4.9-11.4-16-10.2c-6.6,0.7-12.8-1.4-17.6-5.7c-3.9-3.5-2.2-8.7-1.5-13.2c1.1-6.5,4.3-8.2,10.3-5.9
				c2.5,1,5.3,2.8,6.8-0.8c1.5-3.7-1.6-4.8-4.4-5.8C845.3,119,844.4,118.5,843.5,118.2z M932.9,115c-0.3,11.8-0.3,23.6,0.9,35.4
				c0.3,2.4,1.1,3.9,3.6,3.7c2.4-0.2,3.5-1.7,3.4-4c0-0.7,0-1.3-0.1-2c-1.7-18.6-0.6-37.2-1-55.8c-0.1-4-0.5-8.3,2.5-11.9
				c1.3-1.5,0.5-3.5-1.2-4.8c-1.8-1.3-3.2-0.3-4.4,1c-3.2,3.4-3.7,7.7-3.8,12.1C932.8,97.4,932.9,106.2,932.9,115z M934,177.5
				c9.6,0,18.8-1.7,27.9-4.5c2.1-0.6,3.8-1.5,3.2-4.1c-0.6-2.7-2.6-3.3-5-2.9c-1.6,0.3-3.2,0.9-4.8,1.4c-14.6,4-29.2,4.2-43.6-1.1
				c-2.6-1-5.4-2.1-6.6,1.5c-1.1,3.5,1.8,4.4,4.3,5.4C917.5,176.2,925.7,177.4,934,177.5z M868.3,71.1c3.5-0.7,8-2,12.6-2.5
				c5.1-0.6,10.3-0.5,15.4-0.8c1.8-0.1,3.4-0.5,3.8-2.6c0.4-1.8-0.1-3.4-1.8-4.2c-4.7-2.2-9.6-5-14.9-3.4c-5.5,1.7-12.2,0-16.2,5.8
				c-0.2,0.3-0.9,0.4-1.4,0.4c-2.8,0.1-4.5,1.3-4,4.4C862.4,71.3,864.9,71.1,868.3,71.1z M977,65.7c-3.3,1.6-6.8,3-10.4,4
				c-2.2,0.6-1.3,5.3,1.4,5.8c8.6,1.6,17.1,4,25.5,6.4c2.7,0.8,5.8-0.6,6.7-3.6c1.1-3.6-2-4.3-4.5-5.2c-0.9-0.3-2.2-0.4-2.7-1.1
				C988.9,66.6,982.2,68.8,977,65.7z M974.2,102.3c-4.2,0.7-3.9,4.5-4.9,7.2c-0.6,1.6,0.1,2.9,1.5,3.8c1.4,0.9,3,1,4.1-0.2
				c1.5-1.5,2.6-2.6,4.9-1.1c1.7,1.1,3.7,0.3,4.6-1.6c0.9-1.9,0.3-3.7-1.4-4.8C980.3,103.8,977.2,103.1,974.2,102.3z M942.4,184.1
				c-2.7,0.7-6.1,1.4-9.4,2.4c-2.3,0.7-3.1,2.5-2.4,4.7c0.7,2.2,2.5,2.5,4.5,2.1c3.1-0.7,6.1-1.5,9.2-2c2.2-0.4,3.3-1.5,3-3.7
				C946.9,185.2,945.4,184.2,942.4,184.1z M880.3,106.9c2.3-1.1,5-0.6,7.5-1.1c2.1-0.4,3.5-1.9,3.2-4.3c-0.3-2.2-1.8-3.3-3.8-2.9
				s-3.4,0-5-1.1c-1.5-1-3.4-0.5-4.4,0.9c-1.4,1.9-2,4.2-1.2,6.5C877,106.5,878.4,107.1,880.3,106.9z"/>
			<path class="st1" d="M870.2,249.7c14.5,15.2,25.2,32,23.7,54.1c-0.1,0.2-0.1,0.5-0.2,0.7c-1.6,0.5-3.1,1-4.7,1.5
				c-5.2-2.7-5.2-2.7-8.1,3.8c-9.7,5.4-19.3,10.8-29,16.1c-4.1-9.4-4.7-19.4-5.2-29.5c-0.4-9-0.3-18.1-3.9-26.6
				c-1.1-4.6-2.1-9.3-3.2-13.9c-3-11-6.2-21.8-10.3-32.8c6.6,5.6,13.3,11.2,19.9,16.7c4.6,3.8,9.3,7.5,14,11.3
				C866.3,253.7,868.6,253.6,870.2,249.7z M850.6,304.2c3.1-2.8,4.8-5.7,5.8-8.8c1.6-4.5-2.8-3.8-4.9-5c-1.2-0.7-2.8-0.3-2.3,1.2
				C850.4,295.5,849.3,299.5,850.6,304.2z"/>
			<path class="st12" d="M863.9,174c-7.2-3.2-14.7-5.4-20.4-11.7c-5.1-5.6-14.5-6.4-21.2-2.2c-3.5,2.2-5.7,1.2-8.5-0.5
				c-1.8-1.1-2.3-2-0.8-3.8c1.9-2.3,3.7-4.8,3.9-7.9c0.3-3.5,1.9-5.7,5.1-6.9c2.5,3.3,4.7,6.7,7.6,9.7c6.2,6.5,14.1,7.8,22.3,6.9
				c4.8-0.6,7.3,1.2,8.8,5.1C862.1,166.3,862.9,170.2,863.9,174z"/>
			<path class="st12" d="M916.4,259.7c-1.5-7-4.1-13.6-6.6-20.3c7.1,2.5,6.8,8.5,6.8,14.4C916.7,255.8,916.5,257.7,916.4,259.7z"/>
			<path class="st12" d="M905.9,299c2.6-5.7,7.1-10.4,8.8-16.6c0.5,2.7-0.8,5.2-0.7,7.8C914.1,295.9,911.4,298.6,905.9,299z"/>
			<path class="st12" d="M904.3,299.7c0.5-0.3,1.1-0.5,1.6-0.8C905.7,299.7,905,299.6,904.3,299.7z"/>
			<path class="st12" d="M1021.9-103.1c-1.8-2-4.4-2.4-6.8-2.6c-13.1-1.5-26.1-5.3-39.5-2.8c-1.7,0.3-2.9,0-3.8-1.6
				c18.2-2.2,36-1.5,53,6.1c-0.1,0.3-0.1,0.5,0,0.8C1023.9-103.2,1022.9-103.2,1021.9-103.1z"/>
			<path class="st4" d="M1024.8-103.2c-0.1-0.3-0.1-0.5,0-0.8c0.6,0.1,1.3,0.2,1.9,0.3c9.1,4.9,17,11.2,22.7,20
				c1.1,1.7,2.8,3.3,2.5,5.7c-4.5-3.3-8.3-7.2-11.6-11.8C1036.4-95.6,1030.2-99,1024.8-103.2z"/>
			<path class="st12" d="M827.8-36.2c-3.1,5.7-5.2,12-10.8,16c-2.4,1.8-3.8,4.5-5.3,7c-1.1,1.8-2.3,3.6-4.9,3
				C812.8-19.6,819.3-28.7,827.8-36.2z"/>
			<path class="st12" d="M818.1,202.1c2.4,1.1,6.6,0.3,5.5,5.1c-0.5-0.1-0.9-0.3-1.4-0.4C820.8,205.2,819.4,203.6,818.1,202.1z"/>
			<path class="st12" d="M805.9-9.1c-0.3,0.6-0.6,1.2-0.9,1.9C805.3-7.9,805.6-8.5,805.9-9.1z"/>
			<path class="st12" d="M828.9-38.1c-0.3,0.7,0,1.8-1.2,2C827.4-37.2,828.3-37.6,828.9-38.1z"/>
			<path class="st12" d="M806.8-10.2c0.2,0.9-0.3,1.1-1,1.1C806.2-9.4,806.5-9.8,806.8-10.2z"/>
			<path class="st12" d="M829.9-38.9c-0.3,0.3-0.7,0.6-1,0.8C829.2-38.3,829.5-38.6,829.9-38.9z"/>
			<path class="st13" d="M2612.6,109c-14.9-3.9-29.7-8-44.9-10.6c-3.9-0.7-7.8-1.4-11.7-2c-0.5-1.3-1.8-1.4-2.8-1.8
				c-22.6-7.4-44.9-15.8-68.1-21c-15.5-3.5-31.2-6.4-47.2-6.6c-2.2,0-4.3,0.4-6.4,0.8c-1.8,0.4-2.7,1.2-2.5,3
				c1.3,14-14.2,26-26.9,28.4c-5.6,1.1-10.9-0.6-16.3-0.2h0.1c-0.3-0.5-0.7-1-1-1.5c-7.4-5.1-13.1-11.8-18-19.2
				c-0.3-0.4-0.6-0.9-1-1.3l0,0c-0.2-0.8-0.2-1.7-1.1-2l0.1,0.1c0-0.9-0.1-1.7-1.1-2.1l0.1,0.1c-0.3-0.4-0.7-0.8-1-1.3v-0.3
				c-0.5-6.4-1.5-12.7-1-19.1c0-0.4,0.1-0.9,0.1-1.3c0.3-0.4,0.6-0.7,0.9-1.1v-0.1c8.3-8.2,18.9-9.5,29.6-9.3
				c31.9,0.6,63.4,4.1,94.6,10.7c49.8,10.6,96.6,29.7,143.1,49.6c1.8,0.8,3.7,1.5,5.5,2.3c0.1,0.3,0.1,0.5,0.2,0.8
				c-0.1,4-2.9,4.9-6.1,4.9C2624.1,109.1,2618.3,109,2612.6,109z"/>
			<path class="st0" d="M2392.8,104.2c-1.3,0.7-1.6-0.4-2-1.2C2391.8,102.8,2392.6,102.9,2392.8,104.2z"/>
			<path class="st0" d="M2390.9,103c-0.5-0.4-1-0.7-1.6-1.1C2390,102.1,2390.7,102.1,2390.9,103z"/>
			<path class="st0" d="M2393.7,105.1c-0.9,0.2-1.4,0-1.1-1C2393.4,104,2394,104.1,2393.7,105.1z"/>
			<path class="st10" d="M2456.4,18.8c13.7-10.7,29.3-16.9,46.3-19.8s34-2.1,51,0.3c0.4,0.1,0.9,0.4,1.3,0.7
				c7.6,2.7,15.3,5.2,22.7,8.3c5.2,2.2,10.2,4.4,15.8,1.6c11.2,2.8,21.6,7.3,31.5,13c-4.8,5.4-6.7,11.3-5.4,18.7
				c1.4,7.5,4.7,13.8,9,19.7c9.3,12.9,16.5,26.8,21.1,42c-6.8-2.9-12.9-7.1-19.9-9.3l0,0c-0.5-0.8-1.2-1-2.1-0.9
				c-2.4-1.2-4.8-2.5-7.2-3.7c-0.2-1.2-1-1.3-2-1.1l0,0c-4.2-5.4-10.3-8.1-15.8-11.6c-36.1-22.8-74.9-39.4-116.1-50.6
				C2476.8,23.3,2466.5,21.2,2456.4,18.8z"/>
			<path class="st13" d="M2456.4,18.8c10.1,2.4,20.4,4.5,30.4,7.2c41.1,11.2,80,27.8,116.1,50.6c5.5,3.5,11.6,6.2,15.8,11.6
				c-15.7-5.9-31.4-11.8-47.1-17.7c-38.4-14.5-77.6-25.7-118.4-31.3c-2.5-0.3-5,0.1-7.4-1c0-3.3,0-6.7,0-10c2.4-3.8,6.5-5.7,9.3-9.1
				C2455.6,18.9,2456,18.9,2456.4,18.8z"/>
			<path class="st5" d="M2629.9,93.9c7.1,2.2,13.2,6.4,19.9,9.3c5.9,3.7,11.8,7.4,17.7,11.1c2.8,2.1,5.6,4.1,8.4,6.2l0.1,0.1
				c4.1,3.9,8.2,7.7,12.3,11.6c1.6,1.5,2.8,3.2,0.7,5.1c-1.9,1.7-3.6,0.7-5.2-0.9c-5.2-5.3-10.6-10.6-17-14.5
				c-5.4-4.7-11.9-7.8-17.9-11.5c-4.2-2.5-8.4-4.8-13-6.4c-0.1-0.3-0.1-0.5-0.2-0.8c0.6-2.5-1-3.9-2.5-5.5
				C2632.1,96.5,2629.9,96.1,2629.9,93.9z"/>
			<path class="st8" d="M2445.8,28.1c0,3.3,0,6.7,0,10c-2.9-0.4-7,1.2-8.3-1.5c-1.3-2.6,3.8-2.5,4.8-5.1
				C2442.9,30.2,2444.6,29.2,2445.8,28.1z"/>
			<path class="st13" d="M2618.7,88.2c1-0.2,1.8-0.1,2,1.1C2620,88.9,2619.3,88.5,2618.7,88.2z"/>
			<path class="st5" d="M2627.9,93c0.8,0,1.6,0.2,2.1,0.9C2629.1,93.9,2628.3,93.8,2627.9,93z"/>
			<path class="st10" d="M2361.9,52.4c-0.5,6.4,0.5,12.8,1,19.1C2359.2,65.3,2357.5,59,2361.9,52.4z"/>
			<path class="st10" d="M2364.8,74.9c1,0.3,0.9,1.2,1.1,2C2365.5,76.3,2365.2,75.6,2364.8,74.9z"/>
			<path class="st10" d="M2363.8,72.9c1,0.4,1,1.2,1.1,2.1C2363.9,74.6,2363.7,73.8,2363.8,72.9z"/>
			<path class="st10" d="M2365.9,76.9c0.3,0.4,0.6,0.9,1,1.3C2366.5,77.8,2366.2,77.3,2365.9,76.9z"/>
			<path class="st9" d="M2362.9,50c-0.3,0.4-0.6,0.7-0.9,1.1C2362.3,50.7,2362.6,50.3,2362.9,50z"/>
			<path class="st10" d="M2362.9,71.7c0.3,0.4,0.7,0.8,1,1.3C2363.1,72.9,2363,72.4,2362.9,71.7z"/>
			<path class="st8" d="M2384.8,97.4c0.3,0.5,0.7,1,1,1.5C2385,98.8,2384.7,98.2,2384.8,97.4z"/>
			<path class="st8" d="M2636,104c4.6,1.5,8.8,3.9,13,6.4c-0.5,3.6-0.9,7.3-2.9,10.5c-11.2-4-22.3-8-33.5-12c5.8,0,11.6,0.1,17.3,0
				C2633.1,108.9,2635.9,108,2636,104z"/>
			<path class="st12" d="M2646.1,120.9c2-3.2,2.4-6.9,2.9-10.5c6,3.7,12.5,6.8,17.9,11.5c-0.4,3.4,2.2,6.2,2,9.5
				C2661.3,128,2653.7,124.4,2646.1,120.9z"/>
			<path class="st2" d="M2676,120.6C2676,120.6,2675.9,120.5,2676,120.6c-1.8-6.6-3.5-13.1-5.2-19.6c0-1.8,0-3.7,0-5.5
				c0-1.2,0.4-2.5-0.8-3.5c-0.1-0.6-0.3-1.3-0.4-1.9c2.5-2.3,0.9-5.3,1.3-7.9c0.4-2.7-0.8-5.6,0.8-8.2c2.1,10.2,4.1,20.4,6.2,30.5
				c0.6,3.1,1.6,6.1,2.6,9C2682.3,119.3,2681.9,120,2676,120.6z"/>
			<path class="st12" d="M1074,104.9c-1-0.1-0.9-0.5-0.4-1.1C1073.8,104.1,1073.9,104.5,1074,104.9z"/>
			<path class="st13" d="M2670.8,95.4c0,1.8,0,3.7,0,5.5c-1.1,4.4-2.2,8.9-3.3,13.3c-5.9-3.7-11.8-7.4-17.7-11.1
				c-4.6-15.2-11.8-29.2-21.1-42c-4.3-5.9-7.7-12.2-9-19.7c-1.4-7.4,0.6-13.3,5.4-18.7c0.6,0.1,1.2,0.2,1.8,0.3
				c8.5,5.5,17,11.1,23.9,18.6c11.9,12.9,16.2,28.7,18.1,45.5c0.1,1-0.2,2,0.7,2.8c0.1,0.6,0.3,1.3,0.4,1.9
				C2669.9,93.2,2669.8,94.4,2670.8,95.4z"/>
			<path class="st12" d="M2593.5,9.8c-5.6,2.8-10.6,0.7-15.8-1.6c-7.4-3.1-15.1-5.6-22.7-8.3C2568.2,1.6,2581.1,4.7,2593.5,9.8z"/>
			<path class="st4" d="M842.8,269.8c3.6,8.5,3.5,17.6,3.9,26.6c0.5,10.1,1.1,20.1,5.2,29.5c-0.1,0.3-0.2,0.6-0.3,0.9
				c-5.1,3.2-10.2,6.5-15.3,9.7c-0.2-0.3-0.5-0.5-0.7-0.8c6.2-17,9.4-34.4,8.2-52.5C843.6,278.7,843.2,274.3,842.8,269.8z"/>
			<path class="st4" d="M836.4,336.6c-0.4,0.1-0.7,0.2-1.1,0.2c0.1-0.4,0.3-0.7,0.4-1.1C835.9,336,836.1,336.3,836.4,336.6z"/>
			<path class="st1" d="M1024.8-103.2c5.3,4.3,11.6,7.6,15.6,13.3c3.3,4.6,7,8.6,11.6,11.8h-0.1c0.3,0.4,0.7,0.7,1,1.1l-0.1-0.1
				c0,0.9,0.2,1.8,1.1,2.3l-0.1,0.2c1.4,11,1.6,22,0,33c-0.8,5.7-3.9,10.9-4,16.8c-0.4,0.9-0.8,1.8-1.2,2.7
				c-3.3,3.3-6.6,6.6-9.9,9.9c-14.1,10-30.4,13-47.1,14.1C965.7,3.6,940,6.3,914.7,12c-22.4,5-43.4,12.7-59.6,29.9
				c-0.2,0.3-0.8,0.2-1.4,0.4c0-0.9,0-1.5,0-2.2c0.1-2.3,0.7-4.9-2.8-5.3s-3.9,2-4.4,4.7c-0.5,2.8-0.8,5.6-0.7,8.4
				c-0.3,0.6-0.6,1.3-0.9,1.9c-9.4,4.4-17.5,10.9-25.6,17.2c-3.5,2.7-6.6,3.9-10.2,0.7c-3.1-2.6-3.4-6.7-0.7-10.8
				c10.2-15.6,22.5-29.1,37.7-40c22.9-16.5,48.8-25,76.2-30.1c21.5-4,43.1-7.5,63-17.6c19.1-9.6,28.1-25,28.4-46
				c0.1-9.1,0.9-18,7.8-24.9c0.3-0.3,0.2-0.9,0.2-1.4C1022.9-103.2,1023.9-103.2,1024.8-103.2z"/>
			<path class="st4" d="M1049.9-24.9c0.1-5.9,3.2-11,4-16.8c1.6-11,1.4-22,0-33c7.2,14.9,6.3,29.7-0.5,44.4c-0.6,1.4-1.4,2.6-2.1,4
				c-0.2,0.3-0.4,0.7-0.5,1C1050.5-25.1,1050.2-24.9,1049.9-24.9z"/>
			<path class="st4" d="M1054-74.8c-0.9-0.5-1-1.4-1.1-2.3C1053.7-76.6,1053.9-75.7,1054-74.8z"/>
			<path class="st4" d="M1052.9-77.1c-0.3-0.4-0.7-0.7-1-1.1C1052.8-78.3,1052.8-77.6,1052.9-77.1z"/>
			<path class="st4" d="M880.9,309.8c2.9-6.5,2.9-6.5,8.1-3.8C886.5,307.7,883.8,309,880.9,309.8z"/>
			<path class="st1" d="M870.8,323.8c-0.4,0.3-0.7,0.6-1.1,0.9C870,324.5,870.4,324.1,870.8,323.8z"/>
			<path class="st7" d="M845.8,47.9c-0.1-2.8,0.2-5.6,0.7-8.4c0.5-2.6,0.9-5,4.4-4.7c3.5,0.4,3,2.9,2.8,5.3c0,0.7,0,1.3,0,2.2
				c0.6-0.1,1.1-0.1,1.4-0.4C871.3,24.7,892.4,17,914.7,12c25.3-5.7,51.1-8.4,76.9-10.1c16.7-1.1,33-4,47.1-14.1
				c-1.2,5.1-6.3,6.3-9.4,9.4c-2.4,2.4-6.4,2.8-7.5,6.6c-3,1.1-6,2.1-8.9,3.2c-5.6,0.7-11.1,1.4-16.7,2c-8.5,1-17,1.9-25.5,2.8
				c-5.4-0.1-10.8,0.5-16.2,1.6c5.9,1.4,11.6,3.6,17.2,5.7c-0.3,2.1-1.9,1.9-3.4,1.8c-2.2,0-4.2,0.2-5.7,2.1
				c-1.3-0.3-2.6-0.6-3.9-0.8c-9.8-4.1-20.6-3.8-30.7-5.3c-10-1.5-21.2,2.8-31.3,6.9c-9.8,2.7-19.1,6.5-27,13.1l0,0
				c-0.4,0.3-0.9,0.6-1.3,0.9c-1.6,1-3.1,2.1-4.7,3.1c-1.9-0.2-3.4,1-5.1,1.5C854.3,43.8,850.8,47.7,845.8,47.9z"/>
			<path class="st7" d="M1049.9-24.9c0.3-0.1,0.6-0.2,0.9-0.3c0,1.5,0.1,3.1-2.1,3.1C1049.1-23,1049.5-24,1049.9-24.9z"/>
			<path class="st6" d="M962.8,23.1c1.4-1.9,3.5-2.2,5.7-2.1c1.4,0,3.1,0.3,3.4-1.8c1.1,0.2,2.2,0.5,3.4,0.7
				c5.5,2.7,11.1,5.5,16.6,8.2l-0.1-0.1c0.4,1,1.3,1,2.1,1.1v-0.2c0.3,0.3,0.5,0.5,0.8,0.8c5.5,3.5,10.9,7,16.3,10.5
				c1.5-2-0.3-3.3-0.1-4.7c0.3-1.6,0.5-3.5,2.7-3.5c1.8,0,3.9-0.9,4.5,2.3c0.3,1.9,0.7,3.9,0.8,5.9c0.2,3-0.7,6.3,3.4,7.8
				c1.5,0.6,1.8,2.8,0.5,3.8c-4.6,4.1-3.2,9.5-2.7,14.2c0.5,5.8,0.8,11.6,0.8,17.4c0.1,9.6,2.4,19,3.1,28.5c0.2,2.1,1.6,2.9,3.4,2.8
				c17.3-0.9,24,19.9,13.8,32.1c-6.7,8.1-15.6,12.5-25.9,13.9c-2.7-4.8-2.1-6.2,3.1-7.7c3-0.8,6-1.7,8.6-3.6c6-2.5,10-6.9,11.5-13.3
				c1.5-6.6-1.5-11.9-7.6-14c-3.9-1.1-5.9-0.1-5.6,4.5c0.2,3.4-0.4,6.9-0.9,10.4c-0.4,2.5-2.2,3.7-4.7,3.2c-2.6-0.5-2.9-2.4-2.3-4.6
				c0.8-2.8,0.6-4.6-2.4-6.4c-3.1-1.8-1.4-5.5,0.3-7.4c2.7-3.1,2.4-6.1,1.9-9.6c-1.3-8.4-2.2-16.8-3.3-25.1
				c-0.4-11.5-0.7-23.1-1-34.6c0-1.6-0.4-2.9-1.9-3.7c-2.7-1.5-5-3.8-8-4.9c-10.9-8-22.9-14.1-35.5-18.9
				C965.8,24.3,964.3,23.7,962.8,23.1z"/>
			<path class="st1" d="M970.8,11.8c8.5-0.9,17-1.8,25.5-2.8c5.6-0.6,11.1-1.3,16.7-2c-8.8,5.6-18.7,8.1-28.5,10.9
				c-2.1,0.6-4.1,1.3-6.1,1.9c-0.9-0.2-1.7-0.3-2.6-0.5C974.8,16.4,971.5,14.9,970.8,11.8z"/>
			<path class="st12" d="M975.7,19.3c0.9,0.2,1.7,0.3,2.6,0.5c2.6,2.5,6.3,2.3,9.1,4.2c1.6,1.1,4,1.5,4.4,4
				c-5.5-2.7-11.1-5.5-16.6-8.2C975.4,19.7,975.6,19.5,975.7,19.3z"/>
			<path class="st12" d="M993.9,29c-0.8-0.1-1.7-0.1-2.1-1.1C992.5,28.3,993.2,28.7,993.9,29z"/>
			<path class="st12" d="M994.7,29.6c-0.3-0.3-0.5-0.5-0.8-0.8C993.8,29.5,994.1,29.7,994.7,29.6z"/>
			<path class="st4" d="M978.2,214.9c-2.1-12.8,5.2-27.6,16.9-33.8C990.9,193.1,984.7,204.1,978.2,214.9z"/>
			<path class="st4" d="M995.1,181.1c0.3-0.4,0.5-0.7,0.8-1.1C995.9,180.7,995.8,181.1,995.1,181.1z"/>
			<path class="st6" d="M845.8,47.9c5-0.2,8.4-4.1,13-5.5c1.7-0.5,3.2-1.7,5.1-1.5c-3.1,4-7.6,6.9-9,12.1l0,0c-0.8,0-1,0.5-1,1.2
				c-1.5,1.6-2.1,3.6-2.3,5.8c-1.3,12.9-1,25.7-0.4,38.6c0.1,2.6,0.2,4.9-2.4,6.4c-3.1,0.3-4.6-1.2-4.7-4.3
				c-0.1-2.3-0.2-4.6-0.3-6.9c-0.1-2.9,0.6-5.9-2.9-7.7c-1.8-0.9-0.9-3.4-1.2-5.1c0.3-3.9,0.7-7.8,1-11.7c1.9-6.3,5-12.4,4.3-19.4
				C845.3,49.2,845.6,48.6,845.8,47.9z"/>
			<path class="st12" d="M840.7,69.3c-0.3,3.9-0.7,7.8-1,11.7c-3.7-1.8-4.5-4.2-1.5-7.5C839.2,72.2,839.9,70.7,840.7,69.3z"/>
			<path class="st2" d="M932.9,115c0-8.8-0.1-17.6,0-26.4c0.1-4.3,0.5-8.7,3.8-12.1c1.2-1.2,2.6-2.3,4.4-1c1.7,1.2,2.5,3.2,1.2,4.8
				c-3,3.6-2.6,7.8-2.5,11.9c0.4,18.6-0.7,37.2,1,55.8c0.1,0.7,0.1,1.3,0.1,2c0,2.3-1,3.8-3.4,4c-2.5,0.2-3.4-1.3-3.6-3.7
				C932.5,138.6,932.6,126.8,932.9,115z"/>
			<path class="st11" d="M934,177.5c-8.4-0.1-16.5-1.3-24.4-4.3c-2.6-1-5.5-1.9-4.3-5.4c1.2-3.6,4-2.5,6.6-1.5
				c14.4,5.3,29,5,43.6,1.1c1.6-0.4,3.2-1.1,4.8-1.4c2.4-0.4,4.4,0.2,5,2.9c0.6,2.6-1.1,3.5-3.2,4.1
				C952.9,175.8,943.6,177.5,934,177.5z"/>
			<path class="st4" d="M896.9,23.9c10.1-4.1,21.2-8.4,31.3-6.9c10.1,1.5,21,1.1,30.7,5.3c-13.8,1.5-27.6,3.1-41.4,4.6
				c-9.7,1-19.2,3.1-28.8,4.8C890.3,27.8,894.9,27.2,896.9,23.9z"/>
			<path class="st5" d="M868.3,71.1c-3.4,0-5.9,0.2-6.5-2.9c-0.5-3,1.2-4.2,4-4.4c0.5,0,1.2-0.1,1.4-0.4c4-5.8,10.8-4.1,16.2-5.8
				c5.3-1.6,10.2,1.2,14.9,3.4c1.7,0.8,2.1,2.5,1.8,4.2c-0.4,2-2,2.5-3.8,2.6c-5.1,0.3-10.3,0.2-15.4,0.8
				C876.3,69.1,871.9,70.4,868.3,71.1z"/>
			<path class="st2" d="M977,65.7c5.2,3.1,12,0.9,16,6.4c0.5,0.7,1.8,0.7,2.7,1.1c2.5,0.9,5.6,1.6,4.5,5.2c-0.9,3.1-4,4.4-6.7,3.6
				c-8.5-2.4-16.9-4.8-25.5-6.4c-2.7-0.5-3.6-5.2-1.4-5.8C970.2,68.8,973.6,67.3,977,65.7z"/>
			<path class="st4" d="M1002.9,43.8c3,1,5.3,3.3,8,4.9c1.5,0.8,1.9,2.1,1.9,3.7c0.3,11.5,0.7,23.1,1,34.6
				c-4.4-9.2-5.6-19.3-7.8-29.2C1005,53.2,1003.9,48.5,1002.9,43.8z"/>
			<path class="st4" d="M1030.9,122.1c6.1,2.1,9,7.5,7.6,14c-1.4,6.4-5.4,10.8-11.5,13.3c-0.4-5.3,1.5-10.1,5-13.6
				c3.8-3.9,3.3-6.9,0.5-10.7C1031.7,124.2,1031.4,123.1,1030.9,122.1z"/>
			<path class="st11" d="M974.2,102.3c3.1,0.8,6.2,1.5,8.8,3.3c1.7,1.1,2.3,3,1.4,4.8c-0.9,1.9-2.9,2.7-4.6,1.6
				c-2.3-1.5-3.4-0.4-4.9,1.1c-1.1,1.2-2.7,1.1-4.1,0.2c-1.5-0.9-2.1-2.3-1.5-3.8C970.3,106.8,969.9,103,974.2,102.3z"/>
			<path class="st11" d="M942.4,184.1c3,0.1,4.6,1.1,4.9,3.5c0.3,2.2-0.7,3.3-3,3.7c-3.1,0.5-6.2,1.3-9.2,2c-2,0.4-3.8,0.1-4.5-2.1
				c-0.7-2.2,0-4,2.4-4.7C936.3,185.5,939.7,184.8,942.4,184.1z"/>
			<path class="st2" d="M880.3,106.9c-1.9,0.2-3.3-0.4-3.8-2c-0.8-2.3-0.1-4.6,1.2-6.5c1-1.4,2.9-1.9,4.4-0.9c1.6,1.1,3,1.5,5,1.1
				s3.5,0.7,3.8,2.9c0.3,2.4-1.1,3.9-3.2,4.3C885.3,106.3,882.5,105.8,880.3,106.9z"/>
			<path class="st4" d="M854.9,53c1.4-5.2,5.9-8.1,9-12.1c1.6-1,3.1-2.1,4.7-3.1c0.4-0.3,0.9-0.6,1.3-0.9l0,0
				c3.9,0.5,7-2.5,10.9-2.1c-0.4,0.5-0.8,1.1-1.3,1.3c-7.9,3.5-14.9,8.4-20.7,14.9C857.8,52.2,856.7,53.4,854.9,53z"/>
			<path class="st1" d="M880.8,34.9c-3.9-0.5-7,2.6-10.9,2.1c7.9-6.6,17.2-10.4,27-13.1c-2,3.4-6.6,3.9-8.1,7.7
				C886.1,32.7,883.4,33.8,880.8,34.9z"/>
			<path class="st4" d="M853.9,54.1c0-0.7,0.2-1.2,1-1.2C855.1,53.8,854.6,54,853.9,54.1z"/>
			<path class="st4" d="M850.6,304.2c-1.4-4.7-0.3-8.7-1.4-12.6c-0.5-1.5,1.1-1.9,2.3-1.2c2.1,1.2,6.5,0.5,4.9,5
				C855.4,298.5,853.7,301.4,850.6,304.2z"/>
			<path class="st8" d="M2667.5,114.3c1.1-4.4,2.2-8.9,3.3-13.3c1.7,6.5,3.4,13,5.1,19.5C2673.1,118.4,2670.3,116.4,2667.5,114.3z"
				/>
			<path class="st9" d="M2670.8,95.4c-1-1-0.9-2.3-0.8-3.5C2671.2,92.9,2670.8,94.2,2670.8,95.4z"/>
			<path class="st4" d="M975.7,19.3c-0.1,0.2-0.3,0.4-0.5,0.5c-1.1-0.2-2.2-0.5-3.4-0.7c-5.7-2.1-11.3-4.3-17.2-5.7
				c5.4-1.1,10.7-1.8,16.2-1.6C971.5,14.9,974.8,16.4,975.7,19.3z"/>
			<path class="st1" d="M869.9,37c-0.4,0.3-0.9,0.6-1.3,0.9C869,37.5,869.5,37.2,869.9,37z"/>
		</g>
	</g>
</g>
</svg>
