<?xml version="1.0" encoding="utf-8"?>
<!-- Generator: Adobe Illustrator 23.0.4, SVG Export Plug-In . SVG Version: 6.00 Build 0)  -->
<svg version="1.1" id="Capa_1" xmlns="http://www.w3.org/2000/svg" xmlns:xlink="http://www.w3.org/1999/xlink" x="0px" y="0px"
	 viewBox="0 0 1260.3 467.6" style="enable-background:new 0 0 1260.3 467.6;" xml:space="preserve">
<style type="text/css">
	.st0{fill:#EA626D;}
	.st1{fill:#E24852;}
</style>
<g>
	<path class="st0" d="M1204.9,127.6c0-4.2-1.3-5.6-5.8-5.6c-21.6-0.3-43.3-1-64.9-1.4c-40-0.7-79.9-1.4-119.9-2
		c-14.7-0.2-29.3-0.4-44-0.5c-3.2,0-5.8-0.3-6.3-4.5c-1.5-11.8-3.3-23.4-5.1-35.1c-3.2-20.3-6.2-40.5-10-60.6
		c-0.9-4.6-2.6-6.4-7.6-5.8c-14.5,1.7-29.1,2.8-43.7,4.1c-24,2.1-48.1,4.2-72.1,6.3c-28.2,2.5-56.3,5.1-84.5,7.6
		c-24.2,2.2-48.4,4.2-72.6,6.4c-31.7,2.8-63.3,5.8-95,8.6c-27.9,2.5-55.8,4.8-83.6,7.3c-31.9,2.9-63.7,5.9-95.5,8.7
		c-24.5,2.2-49.1,4.2-73.6,6.4c-31.4,2.8-62.7,5.7-94,8.5c-28.2,2.5-56.4,4.9-84.6,7.4c-7.6,0.7-7.6,0.8-6.4,8.4
		c0.3,2.1,0.5,4.3,1,6.4c0.9,3.9-0.4,5.1-4.5,5c-24.6-0.8-49.3-1.2-73.9-1.8c-3.4-0.1-4.4,1.1-4.3,4.3c0.2,6.2,0,12.3-0.1,18.5
		c-0.1,15.2,0,30.3-0.4,45.5c-0.6,21.3-0.5,42.6,0.3,63.9c0,2.2,0.6,3.4,3.1,3.4c18.3,0.2,36.5,0.5,54.8,0.8v0
		c5.9,1.2,11.9,0.6,17.8,0.5c4.5-0.1,6.2,1,6.1,6c-0.2,11.9-0.8,23.8,0.3,35.7c0.2,0,0.3,0,0.5-0.1v31.3h0
		c-0.2,24.2-0.3,48.3,0.5,72.5c0.1,4.3,1.8,4.7,5.3,4.7c24.9,0,49.7-0.1,74.5,0.5c27.9,0.7,55.9,0.1,83.9,1
		c18.4,0.6,36.9,0.5,55.4,0.9c41.3,0.8,82.5,1.7,123.8,3.1c29.4,1,58.9,1.9,88.3,3c42.2,1.6,84.5,3.4,126.7,5.2
		c23.3,1,46.5,2,69.8,3.3c33.4,1.8,66.8,3.8,100.2,5.8c22.6,1.3,45.2,2.7,67.8,4.2c31.7,2.2,63.4,4.5,95.1,6.8
		c19.6,1.4,39.1,3,58.7,4.6c21.9,1.8,43.8,3.5,65.7,5.4c3.7,0.3,5-0.6,4.9-4.5c-0.2-11,0.2-22,0.2-33c0-10.7,0-10.9,10.4-8.4
		c3.9,0.9,5.2,0,5.1-3.7v-2.5c1-39.7,0.3-79.3,0.3-119c0-3.7,1.2-4.5,4.5-4.4c7.2,0.3,14.3,0.2,21.5,0.5c3.6,0.1,5.1-0.6,5.1-4.8
		c0-18.6,0.7-37.3,0.8-55.9C1205.1,173.6,1204.8,150.6,1204.9,127.6z"/>
</g>
<path class="st1" d="M926.7,155.8c-0.7-18.3-0.2-36.7-0.2-55c0-9.6-0.4-9.7-10.2-8.8c-15.8,1.5-31.6,2.9-47.5,3.9
	c-14.5,0.9-29.1,2-43.6,2.9c-20.5,1.3-41,2.7-61.5,4.1c-14.5,1-29.1,2-43.6,2.9c-20.7,1.3-41.3,2.7-62,4.1c-15,1.1-30.1,2-45.1,3
	c-20.2,1.3-40.4,2.4-60.5,4.1c-13.8,1.2-27.7,2.3-41.6,3c-20.2,1.1-40.3,2.6-60.5,4c-14.8,1.1-29.7,2-44.6,3
	c-20.5,1.4-41,2.5-61.5,4.1c-12.9,1-25.8,1-38.7,2.2c-5.5,0.5-10.9,0.5-16.4,0.9c-18.3,1.3-36.7,2.7-55,3.9
	c-11.9,0.8-23.9,0.8-35.7,2.2c-15.8,1.8-31.7,2.1-47.5,3.7c-11.7,1.2-23.4,1.5-35.2,2.1c-2,0.1-3.3,0.6-3.1,2.8
	c0.5,4.7-1,9.3-1,13.9c-0.1,25,0,50,0,75c5.9,1.2,11.9,0.6,17.8,0.5c4.5-0.1,6.2,1,6.1,6c-0.2,11.9-0.8,23.8,0.3,35.7
	c2.2-0.3,4.3-0.8,6.4-0.9c12.9-0.7,25.9-1,38.7-2.2c5.7-0.5,11.3-0.5,16.9-1c10.4-0.9,20.7-2.5,31.2-1.5c4.6-2.2,9.4-2.4,14.1-1
	c1.3-0.7,2.6-1.3,4.2-1.3c10.2-0.1,20.2-1.3,30.3-1.9c14.9-1,29.7-2.1,44.6-3c15.4-0.9,30.7-2,46.1-3c15-1,30.1-1.8,45.1-3.1
	c13.8-1.2,27.7-2.3,41.6-3c20.2-1.1,40.3-2.6,60.5-4c14.8-1,29.7-1.9,44.6-3c18.2-1.4,36.4-1.9,54.6-3.3c5.7-0.4,11.3-0.5,16.9-0.9
	c16.8-1.2,33.6-2.9,50.5-3.8c14.9-0.8,29.7-2,44.6-2.9c19.3-1.2,38.7-2.3,58-4c12.8-1.2,25.8-1.2,38.7-2.3
	c5.5-0.4,10.9-0.5,16.4-0.9c17.8-1.3,35.7-2.6,53.5-3.9c9.9-0.7,19.8-1.4,29.7-2c2.7-0.2,3.4-1.7,3.4-4c0-10.2,0.3-20.3,0.8-30.4
	C927.9,180.4,927.2,168.1,926.7,155.8z"/>
</svg>
