<?xml version="1.0" encoding="UTF-8" standalone="no"?>
<!-- Created with Inkscape (http://www.inkscape.org/) -->

<svg
   xmlns:dc="http://purl.org/dc/elements/1.1/"
   xmlns:cc="http://creativecommons.org/ns#"
   xmlns:rdf="http://www.w3.org/1999/02/22-rdf-syntax-ns#"
   xmlns:svg="http://www.w3.org/2000/svg"
   xmlns="http://www.w3.org/2000/svg"
   xmlns:sodipodi="http://sodipodi.sourceforge.net/DTD/sodipodi-0.dtd"
   xmlns:inkscape="http://www.inkscape.org/namespaces/inkscape"
   width="69.133858"
   height="73.347641"
   viewBox="0 0 18.291666 19.406564"
   version="1.1"
   id="svg10210"
   inkscape:version="0.92.1 r15371"
   sodipodi:docname="cursos.svg">
  <defs
     id="defs10204" />
  <sodipodi:namedview
     id="base"
     pagecolor="#ffffff"
     bordercolor="#666666"
     borderopacity="1.0"
     inkscape:pageopacity="0.0"
     inkscape:pageshadow="2"
     inkscape:zoom="5.12"
     inkscape:cx="8.2141406"
     inkscape:cy="46.339417"
     inkscape:document-units="mm"
     inkscape:current-layer="layer1"
     showgrid="false"
     units="px"
     fit-margin-top="10"
     fit-margin-left="10"
     fit-margin-right="10"
     fit-margin-bottom="10"
     inkscape:window-width="1366"
     inkscape:window-height="709"
     inkscape:window-x="0"
     inkscape:window-y="0"
     inkscape:window-maximized="1" />
  <metadata
     id="metadata10207">
    <rdf:RDF>
      <cc:Work
         rdf:about="">
        <dc:format>image/svg+xml</dc:format>
        <dc:type
           rdf:resource="http://purl.org/dc/dcmitype/StillImage" />
        <dc:title></dc:title>
      </cc:Work>
    </rdf:RDF>
  </metadata>
  <g
     inkscape:label="Capa 1"
     inkscape:groupmode="layer"
     id="layer1"
     transform="translate(-164.14183,-178.94115)">
    <g
       transform="matrix(0.30878851,0,0,0.30878851,116.54314,-185.50749)"
       id="g1088"
       style="stroke-width:0.85684317">
      <g
         id="g976"
         style="stroke-width:0.85684317">
        <circle
           style="fill:#8ed3f1;stroke-width:0.85684317"
           cx="182.325"
           cy="1215.641"
           r="16.636999"
           id="circle974" />
      </g>
      <g
         id="g1060"
         style="stroke-width:0.85684317">
        <g
           id="g1056"
           style="stroke-width:0.85684317">
          <path
             style="fill:#ffffff;stroke-width:0.85684317"
             inkscape:connector-curvature="0"
             d="m 162.715,1232.014 15.981,0.045 6.869,-7.186 c 0,0 3.875,-0.625 5.5,-2.75 l 5.75,-5.25 -9.5,-14.375 -6.75,4 -3.125,6.5 -0.125,3.125 z"
             id="path978" />
          <g
             id="g1054"
             style="stroke-width:0.85684317">
            <g
               id="g984"
               style="stroke-width:0.85684317">
              <path
                 style="fill:#ffffff;stroke-width:0.85684317"
                 inkscape:connector-curvature="0"
                 d="m 184.34,1217.724 c 0,0 3.151,-2.638 1.05,-8"
                 id="path980" />
              <path
                 inkscape:connector-curvature="0"
                 d="m 184.34,1218.474 c -0.214,0 -0.427,-0.091 -0.575,-0.269 -0.265,-0.316 -0.224,-0.787 0.09,-1.053 0.112,-0.097 2.699,-2.401 0.837,-7.155 -0.151,-0.386 0.04,-0.82 0.425,-0.972 0.386,-0.15 0.821,0.039 0.972,0.425 2.271,5.798 -1.122,8.727 -1.267,8.849 -0.141,0.117 -0.312,0.175 -0.482,0.175 z"
                 id="path982"
                 style="stroke-width:0.85684317" />
            </g>
            <path
               inkscape:connector-curvature="0"
               d="m 178.689,1232.748 c -0.192,0 -0.385,-0.073 -0.531,-0.221 -0.292,-0.293 -0.292,-0.769 0.002,-1.061 l 7.303,-7.274 c 0.121,-0.12 0.279,-0.196 0.448,-0.214 1.116,-0.122 2.97,-0.565 3.403,-1.129 l 2.792,-3.05 c 0.28,-0.305 0.754,-0.325 1.06,-0.046 0.305,0.28 0.326,0.755 0.046,1.06 l -2.75,3 c -0.834,1.089 -3.21,1.503 -4.123,1.624 l -7.121,7.092 c -0.145,0.146 -0.337,0.219 -0.529,0.219 z"
               id="path986"
               style="stroke-width:0.85684317" />
            <g
               id="g992"
               style="stroke-width:0.85684317">
              <polyline
                 style="fill:#ffffff;stroke-width:0.85684317"
                 points="177.66,1204.974 173.826,1201.057 170.826,1193.224 178.326,1196.224 184.743,1202.641             "
                 id="polyline988" />
              <path
                 inkscape:connector-curvature="0"
                 d="m 177.66,1205.724 c -0.195,0 -0.389,-0.075 -0.536,-0.226 l -3.833,-3.916 c -0.072,-0.074 -0.127,-0.161 -0.165,-0.257 l -3,-7.833 c -0.106,-0.278 -0.038,-0.594 0.174,-0.803 0.212,-0.209 0.528,-0.272 0.805,-0.162 l 7.5,3 c 0.094,0.038 0.18,0.094 0.252,0.166 l 6.417,6.417 c 0.293,0.293 0.293,0.768 0,1.061 -0.293,0.293 -0.768,0.293 -1.061,0 l -6.308,-6.308 -5.765,-2.307 2.331,6.087 3.725,3.806 c 0.29,0.296 0.285,0.771 -0.011,1.061 -0.147,0.142 -0.336,0.214 -0.525,0.214 z"
                 id="path990"
                 style="stroke-width:0.85684317" />
            </g>
            <g
               id="g998"
               style="stroke-width:0.85684317">
              <path
                 style="fill:#ffffff;stroke-width:0.85684317"
                 inkscape:connector-curvature="0"
                 d="m 186.076,1213.141 12.667,12.75 c 0,0 1.25,1.416 3,-0.167 l 1.417,-1.5 c 0,0 1.917,-1.667 0.167,-3.167 l -6.083,-6.083"
                 id="path994" />
              <path
                 inkscape:connector-curvature="0"
                 d="m 200.091,1227.224 c -0.048,0 -0.096,-10e-4 -0.145,0 -1.055,-0.06 -1.696,-0.754 -1.766,-0.833 l -12.636,-12.718 c -0.292,-0.294 -0.29,-0.769 0.003,-1.061 0.294,-0.292 0.769,-0.291 1.061,0 l 12.667,12.75 c 0.206,0.22 0.888,0.78 1.965,-0.193 l 1.375,-1.459 c 0.232,-0.21 0.703,-0.743 0.699,-1.256 -0.002,-0.285 -0.158,-0.555 -0.475,-0.826 l -6.125,-6.123 c -0.293,-0.293 -0.293,-0.768 0,-1.061 0.293,-0.293 0.768,-0.293 1.061,0 l 6.083,6.083 c 0.78,0.666 0.955,1.418 0.957,1.926 0.004,1.286 -1.042,2.233 -1.161,2.338 l -1.364,1.448 c -0.734,0.666 -1.461,0.986 -2.199,0.986 z"
                 id="path996"
                 style="stroke-width:0.85684317" />
            </g>
            <g
               id="g1004"
               style="stroke-width:0.85684317">
              <path
                 style="fill:#ffffff;stroke-width:0.85684317"
                 inkscape:connector-curvature="0"
                 d="m 193.618,1216.266 -0.476,-0.477 c -0.632,-0.632 -0.632,-1.666 0,-2.298 l 2.994,-2.993 c 0.632,-0.633 1.666,-0.633 2.298,0 l 0.476,0.476 c 0.632,0.632 0.632,1.666 0,2.298 l -2.994,2.994 c -0.632,0.631 -1.666,0.631 -2.298,0 z"
                 id="path1000" />
              <path
                 inkscape:connector-curvature="0"
                 d="m 194.767,1217.49 c -0.608,0 -1.216,-0.231 -1.679,-0.694 v 0 l -0.476,-0.477 c -0.926,-0.926 -0.926,-2.433 0,-3.358 l 2.994,-2.993 c 0.926,-0.927 2.433,-0.927 3.359,0 l 0.476,0.476 c 0.926,0.926 0.926,2.433 0,3.358 l -2.994,2.994 c -0.464,0.463 -1.072,0.694 -1.68,0.694 z m -0.619,-1.755 c 0.341,0.341 0.896,0.341 1.238,0 l 2.994,-2.994 c 0.341,-0.341 0.341,-0.896 0,-1.237 l -0.476,-0.476 c -0.341,-0.342 -0.896,-0.342 -1.238,0 l -2.994,2.993 c -0.341,0.341 -0.341,0.896 0,1.237 z"
                 id="path1002"
                 style="stroke-width:0.85684317" />
            </g>
            <g
               id="g1010"
               style="stroke-width:0.85684317">
              <path
                 style="fill:#ffffff;stroke-width:0.85684317"
                 inkscape:connector-curvature="0"
                 d="m 190.251,1212.965 -0.413,-0.412 c -0.632,-0.632 -0.632,-1.666 0,-2.298 l 3.402,-3.402 c 0.632,-0.632 1.666,-0.632 2.298,0 l 0.413,0.413 c 0.632,0.632 0.632,1.666 0,2.298 l -3.402,3.401 c -0.632,0.632 -1.666,0.632 -2.298,0 z"
                 id="path1006" />
              <path
                 inkscape:connector-curvature="0"
                 d="m 191.4,1214.189 c -0.636,0 -1.232,-0.247 -1.679,-0.694 v 0 0 l -0.413,-0.412 c -0.926,-0.926 -0.926,-2.433 0,-3.358 l 3.402,-3.402 c 0.926,-0.926 2.433,-0.926 3.358,0 l 0.413,0.413 c 0.926,0.926 0.926,2.433 0,3.358 l -3.402,3.401 c -0.446,0.447 -1.043,0.694 -1.679,0.694 z m 2.99,-7.062 c -0.224,0 -0.448,0.086 -0.619,0.256 l -3.402,3.402 c -0.341,0.341 -0.341,0.896 0,1.237 l 0.413,0.412 v 0 c 0.328,0.328 0.91,0.328 1.237,0 l 3.402,-3.401 c 0.341,-0.341 0.341,-0.896 0,-1.237 l -0.413,-0.413 c -0.17,-0.17 -0.394,-0.256 -0.618,-0.256 z"
                 id="path1008"
                 style="stroke-width:0.85684317" />
            </g>
            <g
               id="g1016"
               style="stroke-width:0.85684317">
              <path
                 style="fill:#ffffff;stroke-width:0.85684317"
                 inkscape:connector-curvature="0"
                 d="m 185.052,1203.366 2.351,-2.351 c 0.632,-0.632 1.667,-0.632 2.298,0 l 0.413,0.412 c 0.632,0.632 0.632,1.666 0,2.298 l -2.351,2.352"
                 id="path1012" />
              <path
                 inkscape:connector-curvature="0"
                 d="m 187.763,1206.827 c -0.192,0 -0.384,-0.073 -0.53,-0.22 -0.293,-0.293 -0.293,-0.768 0,-1.061 l 2.351,-2.352 c 0.341,-0.341 0.341,-0.896 0,-1.237 l -0.413,-0.412 c -0.341,-0.342 -0.896,-0.342 -1.238,0 l -2.351,2.351 c -0.293,0.293 -0.768,0.293 -1.061,0 -0.292,-0.293 -0.292,-0.768 0,-1.061 l 2.351,-2.351 c 0.926,-0.927 2.433,-0.927 3.359,0 l 0.413,0.412 c 0.926,0.926 0.926,2.433 0,3.358 l -2.351,2.352 c -0.147,0.148 -0.338,0.221 -0.53,0.221 z"
                 id="path1014"
                 style="stroke-width:0.85684317" />
            </g>
            <g
               id="g1022"
               style="stroke-width:0.85684317">
              <path
                 style="fill:#ffffff;stroke-width:0.85684317"
                 inkscape:connector-curvature="0"
                 d="m 187.922,1206.421 3.401,-3.401 c 0.632,-0.632 1.667,-0.632 2.298,0 l 0.413,0.412 c 0.632,0.633 0.632,1.667 0,2.299 l -3.402,3.401"
                 id="path1018" />
              <path
                 inkscape:connector-curvature="0"
                 d="m 190.633,1209.882 c -0.192,0 -0.384,-0.073 -0.53,-0.22 -0.293,-0.293 -0.293,-0.768 0,-1.061 l 3.402,-3.401 c 0.341,-0.342 0.341,-0.896 0,-1.238 l -0.412,-0.412 c -0.341,-0.341 -0.896,-0.341 -1.238,0 l -3.401,3.401 c -0.293,0.293 -0.768,0.293 -1.061,0 -0.293,-0.293 -0.293,-0.768 0,-1.061 l 3.401,-3.401 c 0.926,-0.926 2.433,-0.926 3.359,0 l 0.413,0.412 c 0.926,0.927 0.926,2.433 0,3.359 l -3.402,3.401 c -0.147,0.148 -0.339,0.221 -0.531,0.221 z"
                 id="path1020"
                 style="stroke-width:0.85684317" />
            </g>
            <g
               id="g1028"
               style="stroke-width:0.85684317">
              <path
                 style="fill:#ffffff;stroke-width:0.85684317"
                 inkscape:connector-curvature="0"
                 d="m 183.748,1207.801 2.923,2.924 c 4.177,1.148 4.856,-1.201 4.856,-1.201 l -6.735,-6.734 c -6.265,-1.045 -7.519,4.698 -7.519,4.698 l -0.104,8.25 -8.104,8.886"
                 id="path1024" />
              <path
                 inkscape:connector-curvature="0"
                 d="m 169.064,1225.373 c -0.181,0 -0.361,-0.064 -0.505,-0.195 -0.306,-0.279 -0.328,-0.754 -0.048,-1.06 l 7.912,-8.676 0.101,-7.964 c 0.001,-0.051 0.006,-0.102 0.017,-0.15 0.014,-0.064 1.485,-6.428 8.375,-5.279 0.154,0.025 0.296,0.099 0.407,0.209 l 6.735,6.735 c 0.193,0.193 0.266,0.477 0.19,0.739 -0.036,0.125 -0.94,3.046 -5.775,1.716 -0.125,-0.035 -0.239,-0.102 -0.331,-0.193 l -2.924,-2.924 c -0.293,-0.293 -0.293,-0.768 0,-1.061 0.293,-0.293 0.768,-0.293 1.061,0 l 2.781,2.781 c 2.218,0.565 3.158,0.01 3.53,-0.405 l -6.154,-6.154 c -4.989,-0.698 -6.254,3.475 -6.413,4.09 l -0.104,8.164 c -0.002,0.185 -0.072,0.36 -0.196,0.496 l -8.104,8.887 c -0.148,0.162 -0.351,0.244 -0.555,0.244 z"
                 id="path1026"
                 style="stroke-width:0.85684317" />
            </g>
            <g
               id="g1034"
               style="stroke-width:0.85684317">
              <polyline
                 style="fill:#ffffff;stroke-width:0.85684317"
                 points="173.826,1201.057 176.315,1198.707 178.326,1196.807      "
                 id="polyline1030" />
              <path
                 inkscape:connector-curvature="0"
                 d="m 173.826,1201.807 c -0.199,0 -0.398,-0.078 -0.545,-0.234 -0.284,-0.302 -0.271,-0.776 0.03,-1.061 l 4.5,-4.25 c 0.301,-0.284 0.776,-0.271 1.061,0.03 0.284,0.301 0.271,0.776 -0.03,1.061 l -4.5,4.25 c -0.146,0.136 -0.331,0.204 -0.516,0.204 z"
                 id="path1032"
                 style="stroke-width:0.85684317" />
            </g>
            <g
               id="g1040"
               style="stroke-width:0.85684317">
              <line
                 style="fill:#ffffff;stroke-width:0.85684317"
                 x1="180.493"
                 y1="1203.141"
                 x2="176.315"
                 y2="1198.707"
                 id="line1036" />
              <path
                 inkscape:connector-curvature="0"
                 d="m 180.493,1203.891 c -0.199,0 -0.398,-0.079 -0.546,-0.236 l -4.178,-4.434 c -0.284,-0.301 -0.27,-0.775 0.031,-1.06 0.302,-0.284 0.776,-0.271 1.061,0.031 l 4.178,4.434 c 0.284,0.302 0.27,0.776 -0.031,1.061 -0.146,0.135 -0.331,0.204 -0.515,0.204 z"
                 id="path1038"
                 style="stroke-width:0.85684317" />
            </g>
            <g
               id="g1046"
               style="stroke-width:0.85684317">
              <line
                 style="fill:#ffffff;stroke-width:0.85684317"
                 x1="198.993"
                 y1="1221.391"
                 x2="194.815"
                 y2="1216.957"
                 id="line1042" />
              <path
                 inkscape:connector-curvature="0"
                 d="m 198.993,1222.141 c -0.199,0 -0.398,-0.079 -0.546,-0.236 l -4.178,-4.434 c -0.284,-0.301 -0.27,-0.775 0.031,-1.06 0.302,-0.284 0.776,-0.271 1.061,0.031 l 4.178,4.434 c 0.284,0.302 0.27,0.776 -0.031,1.061 -0.146,0.135 -0.331,0.204 -0.515,0.204 z"
                 id="path1044"
                 style="stroke-width:0.85684317" />
            </g>
            <g
               id="g1052"
               style="stroke-width:0.85684317">
              <line
                 style="fill:#ffffff;stroke-width:0.85684317"
                 x1="196.826"
                 y1="1223.641"
                 x2="201.41"
                 y2="1219.307"
                 id="line1048" />
              <path
                 inkscape:connector-curvature="0"
                 d="m 196.826,1224.391 c -0.199,0 -0.397,-0.079 -0.545,-0.235 -0.285,-0.301 -0.271,-0.775 0.03,-1.06 l 4.583,-4.334 c 0.301,-0.284 0.776,-0.271 1.061,0.03 0.284,0.301 0.271,0.775 -0.03,1.06 l -4.583,4.334 c -0.146,0.136 -0.331,0.205 -0.516,0.205 z"
                 id="path1050"
                 style="stroke-width:0.85684317" />
            </g>
          </g>
        </g>
        <polygon
           points="170.826,1193.224 172.315,1196.373 173.815,1194.873 "
           id="polygon1058"
           style="stroke-width:0.85684317" />
      </g>
      <g
         id="g1066"
         style="stroke-width:0.85684317">
        <path
           style="fill:#ffffff;stroke-width:0.85684317"
           inkscape:connector-curvature="0"
           d="m 180.059,1230.885 c 1.234,1.783 -0.682,3.752 -2.498,2.568 -0.088,-0.058 -0.168,-0.135 -0.228,-0.222 -1.233,-1.782 0.682,-3.752 2.498,-2.568 0.088,0.058 0.168,0.136 0.228,0.222 z"
           id="path1062" />
        <path
           inkscape:connector-curvature="0"
           d="m 178.73,1234.532 c -1.363,0.019 -2.489,-1.075 -2.508,-2.44 -0.019,-1.363 1.076,-2.489 2.439,-2.508 1.365,-0.02 2.491,1.075 2.51,2.439 0.019,1.364 -1.075,2.491 -2.441,2.509 z m -0.048,-3.509 c -0.57,0.01 -1.027,0.479 -1.019,1.049 0.008,0.57 0.478,1.027 1.047,1.02 0.57,-0.01 1.029,-0.479 1.021,-1.048 -0.007,-0.57 -0.479,-1.028 -1.049,-1.021 z"
           id="path1064"
           style="stroke-width:0.85684317" />
      </g>
      <g
         id="g1080"
         style="stroke-width:0.85684317">
        <g
           id="g1072"
           style="stroke-width:0.85684317">
          <line
             style="fill:#ffffff;stroke-width:0.85684317"
             x1="184.35899"
             y1="1189.558"
             x2="187.476"
             y2="1192.59"
             id="line1068" />
          <path
             inkscape:connector-curvature="0"
             d="m 187.485,1193.283 c -0.177,0 -0.357,-0.062 -0.494,-0.196 l -3.117,-3.031 c -0.273,-0.268 -0.279,-0.707 -0.014,-0.981 0.267,-0.275 0.708,-0.281 0.983,-0.014 l 3.117,3.031 c 0.273,0.268 0.279,0.707 0.014,0.981 -0.134,0.138 -0.311,0.208 -0.489,0.21 z"
             id="path1070"
             style="stroke-width:0.85684317" />
        </g>
        <g
           id="g1078"
           style="stroke-width:0.85684317">
          <line
             style="fill:#ffffff;stroke-width:0.85684317"
             x1="187.43401"
             y1="1189.515"
             x2="184.401"
             y2="1192.6331"
             id="line1074" />
          <path
             inkscape:connector-curvature="0"
             d="m 184.411,1193.326 c -0.177,0 -0.357,-0.062 -0.495,-0.196 -0.273,-0.268 -0.279,-0.707 -0.014,-0.981 l 3.032,-3.117 c 0.268,-0.275 0.708,-0.281 0.983,-0.014 0.273,0.268 0.279,0.707 0.014,0.981 l -3.032,3.117 c -0.133,0.138 -0.311,0.208 -0.488,0.21 z"
             id="path1076"
             style="stroke-width:0.85684317" />
        </g>
      </g>
      <path
         style="fill:#82b945;stroke-width:0.85684317"
         inkscape:connector-curvature="0"
         d="m 187.65,1214.956 c 3.105,2.366 4.967,4.675 7.385,7.733 0.844,1.067 1.919,0.703 2.805,-0.163 1.058,-1.034 1.038,-1.351 0.206,-2.404 -0.738,-0.934 -2.007,-2.513 -2.757,-3.201 -0.893,-0.819 -1.902,-0.538 -2.441,-2.534 -0.382,-1.415 -2.457,-1.7 -3.851,-2.763 -1.082,-0.824 -2.65,-1.917 -3.284,-0.859 -0.765,1.276 1.132,2.271 0.671,2.987 z"
         id="path1082" />
      <path
         style="fill:#82b945;stroke-width:0.85684317"
         inkscape:connector-curvature="0"
         d="m 179.287,1201.819 c -0.226,-0.306 -0.437,-0.621 -0.627,-0.95 -0.088,-0.154 -0.173,-0.31 -0.253,-0.468 -0.036,-0.071 -0.303,-0.667 -0.13,-0.254 -0.193,-0.461 -0.481,-0.302 -0.931,-0.564 -0.393,-0.229 -0.883,-0.857 -1.324,-0.715 -0.847,0.273 -2.59,1.566 -2.194,2.514 0.377,0.904 1.711,1.496 2.294,2.287 0.568,0.77 1.615,1.233 2.508,0.658 0.761,-0.491 1.266,-1.682 0.657,-2.508 z"
         id="path1084" />
      <path
         style="fill:#e7829b;stroke-width:0.85684317"
         inkscape:connector-curvature="0"
         d="m 201.067,1226.498 c 0.365,-0.368 0.745,-0.72 1.149,-1.046 0.188,-0.151 0.38,-0.299 0.577,-0.439 0.088,-0.064 0.835,-0.55 0.314,-0.229 0.581,-0.357 0.289,-1.052 0.548,-1.713 0.227,-0.578 0.443,-1.181 0.159,-1.744 -0.548,-1.083 -1.501,-2.19 -2.694,-1.457 -1.14,0.7 -2.271,1.801 -3.214,2.755 -0.917,0.928 -0.54,1.36 0.425,2.442 0.822,0.922 1.753,2.426 2.736,1.431 z"
         id="path1086" />
    </g>
  </g>
</svg>
