<?xml version="1.0" encoding="UTF-8" standalone="no"?>
<!-- Created with Inkscape (https://www.inkscape.org/) -->

<svg
   xmlns:dc="https://purl.org/dc/elements/1.1/"
   xmlns:cc="https://creativecommons.org/ns#"
   xmlns:rdf="https://www.w3.org/1999/02/22-rdf-syntax-ns#"
   xmlns:svg="https://www.w3.org/2000/svg"
   xmlns="https://www.w3.org/2000/svg"
   xmlns:sodipodi="https://sodipodi.sourceforge.net/DTD/sodipodi-0.dtd"
   xmlns:inkscape="https://www.inkscape.org/namespaces/inkscape"
   width="139.73166"
   height="150"
   viewBox="0 0 36.970667 39.687501"
   version="1.1"
   id="svg10210"
   inkscape:version="0.92.1 r15371"
   sodipodi:docname="cursos.svg">
  <defs
     id="defs10204" />
  <sodipodi:namedview
     id="base"
     pagecolor="#ffffff"
     bordercolor="#666666"
     borderopacity="1.0"
     inkscape:pageopacity="0.0"
     inkscape:pageshadow="2"
     inkscape:zoom="5.1200001"
     inkscape:cx="120.51932"
     inkscape:cy="66.261284"
     inkscape:document-units="px"
     inkscape:current-layer="layer1"
     showgrid="false"
     units="px"
     fit-margin-top="10"
     fit-margin-left="10"
     fit-margin-right="10"
     fit-margin-bottom="10"
     inkscape:window-width="1920"
     inkscape:window-height="1021"
     inkscape:window-x="0"
     inkscape:window-y="0"
     inkscape:window-maximized="1" />
  <metadata
     id="metadata10207">
    <rdf:RDF>
      <cc:Work
         rdf:about="">
        <dc:format>image/svg+xml</dc:format>
        <dc:type
           rdf:resource="https://purl.org/dc/dcmitype/StillImage" />
        <dc:title />
      </cc:Work>
    </rdf:RDF>
  </metadata>
  <g
     inkscape:label="Capa 1"
     inkscape:groupmode="layer"
     id="layer1"
     transform="translate(-164.14183,-158.66021)">
    <g
       id="g11024">
      <circle
         id="circle974"
         r="12.518845"
         cy="181.48677"
         cx="181.54359"
         style="fill:#8ed3f1;stroke-width:0.26458335" />
      <path
         style="fill:#ffffff;stroke-width:0.26458335"
         inkscape:connector-curvature="0"
         d="m 166.78766,193.80697 12.02523,0.0339 5.16871,-5.40725 c 0,0 2.91583,-0.4703 4.13859,-2.0693 l 4.3267,-3.95047 -7.14846,-10.81675 -5.07918,3.00988 -2.35147,4.89105 -0.0941,2.35147 z"
         id="path978" />
      <path
         style="fill:#ffffff;stroke-width:0.26458335"
         inkscape:connector-curvature="0"
         d="m 183.05983,183.05418 c 0,0 2.37103,-1.98502 0.79009,-6.01976"
         id="path980" />
      <path
         inkscape:connector-curvature="0"
         d="m 183.05983,183.61853 c -0.16103,0 -0.32131,-0.0685 -0.43267,-0.20242 -0.19941,-0.23778 -0.16855,-0.59219 0.0677,-0.79235 0.0843,-0.073 2.03092,-1.80668 0.62982,-5.38392 -0.11362,-0.29045 0.0301,-0.61703 0.3198,-0.7314 0.29045,-0.11287 0.61778,0.0293 0.7314,0.3198 1.70886,4.36282 -0.84427,6.56681 -0.95338,6.65861 -0.1061,0.088 -0.23477,0.13168 -0.36269,0.13168 z"
         id="path982"
         style="stroke-width:0.26458335" />
      <path
         style="stroke-width:0.26458335"
         id="path986"
         d="m 178.80762,194.35929 c -0.14447,0 -0.2897,-0.0549 -0.39956,-0.1663 -0.21972,-0.22047 -0.21972,-0.57865 0.001,-0.79837 l 5.49529,-5.47347 c 0.091,-0.0903 0.20994,-0.14748 0.33711,-0.16103 0.83976,-0.0918 2.23484,-0.42514 2.56066,-0.84953 l 2.10089,-2.29504 c 0.21069,-0.2295 0.56736,-0.24455 0.79762,-0.0346 0.2295,0.21069 0.24531,0.56811 0.0346,0.79762 l -2.06929,2.25741 c -0.62756,0.81944 -2.41543,1.13096 -3.10243,1.22201 l -5.35834,5.33652 c -0.10911,0.10986 -0.25359,0.16479 -0.39806,0.16479 z"
         inkscape:connector-curvature="0" />
      <polyline
         transform="matrix(0.75247013,0,0,0.75247013,44.349485,-733.24676)"
         style="fill:#ffffff;stroke-width:0.35161972"
         points="177.66,1204.974 173.826,1201.057 170.826,1193.224 178.326,1196.224 184.743,1202.641             "
         id="polyline988" />
      <path
         style="fill:#82b945;stroke-width:0.26458335"
         inkscape:connector-curvature="0"
         d="m 179.2576,171.08614 c -0.17006,-0.23026 -0.32883,-0.46728 -0.4718,-0.71485 -0.0662,-0.11588 -0.13018,-0.23326 -0.19038,-0.35215 -0.0271,-0.0534 -0.22799,-0.5019 -0.0978,-0.19113 -0.14522,-0.34689 -0.36194,-0.22725 -0.70055,-0.42439 -0.29572,-0.17232 -0.66443,-0.64487 -0.99627,-0.53802 -0.63734,0.20542 -1.9489,1.17837 -1.65092,1.89171 0.28368,0.68023 1.28748,1.1257 1.72617,1.7209 0.4274,0.5794 1.21524,0.92779 1.88719,0.49512 0.57263,-0.36946 0.95263,-1.26565 0.49438,-1.88719 z"
         id="path1084" />
      <path
         inkscape:connector-curvature="0"
         d="m 178.03333,174.02454 c -0.14673,0 -0.29271,-0.0564 -0.40333,-0.17006 l -2.88421,-2.94668 c -0.0542,-0.0557 -0.0956,-0.12114 -0.12416,-0.19338 l -2.25741,-5.8941 c -0.0798,-0.20919 -0.0286,-0.44697 0.13093,-0.60423 0.15952,-0.15727 0.3973,-0.20467 0.60574,-0.1219 l 5.64352,2.25741 c 0.0707,0.0286 0.13545,0.0707 0.18963,0.12491 l 4.8286,4.8286 c 0.22047,0.22047 0.22047,0.5779 0,0.79837 -0.22048,0.22047 -0.5779,0.22047 -0.79837,0 l -4.74659,-4.74658 -4.33799,-1.73595 1.75401,4.58028 2.80295,2.86391 c 0.21822,0.22273 0.21446,0.58015 -0.008,0.79837 -0.11062,0.10685 -0.25283,0.16103 -0.39505,0.16103 z"
         id="path990"
         style="stroke-width:0.26458335" />
      <path
         style="fill:#ffffff;stroke-width:0.26458335"
         inkscape:connector-curvature="0"
         d="m 184.36612,179.60561 9.53154,9.59399 c 0,0 0.94058,1.0655 2.25741,-0.12566 l 1.06625,-1.12871 c 0,0 1.44248,-1.25437 0.12566,-2.38307 l -4.57728,-4.57728"
         id="path994" />
      <path
         style="fill:#82b945;stroke-width:0.26458335"
         inkscape:connector-curvature="0"
         d="m 185.5505,180.97134 c 2.33642,1.78034 3.73752,3.5178 5.557,5.81885 0.63508,0.80289 1.44399,0.52899 2.11068,-0.12265 0.79611,-0.77806 0.78106,-1.01659 0.155,-1.80894 -0.55532,-0.70281 -1.5102,-1.89096 -2.07456,-2.40866 -0.67195,-0.61627 -1.43119,-0.40483 -1.83678,-1.90676 -0.28744,-1.06474 -1.84881,-1.2792 -2.89776,-2.07907 -0.81417,-0.62004 -1.99404,-1.44249 -2.47111,-0.64637 -0.57564,0.96015 0.8518,1.70886 0.50491,2.24763 z"
         id="path1082" />
      <path
         style="fill:#e7829b;stroke-width:0.26458335"
         inkscape:connector-curvature="0"
         d="m 195.6464,189.65635 c 0.27465,-0.27691 0.56059,-0.54178 0.86458,-0.78708 0.14147,-0.11363 0.28594,-0.22499 0.43418,-0.33034 0.0662,-0.0482 0.62831,-0.41386 0.23628,-0.17231 0.43718,-0.26864 0.21746,-0.7916 0.41235,-1.28899 0.17081,-0.43492 0.33334,-0.88866 0.11964,-1.3123 -0.41235,-0.81493 -1.12946,-1.64791 -2.02715,-1.09635 -0.85782,0.52673 -1.70886,1.3552 -2.41844,2.07305 -0.69002,0.69829 -0.40634,1.02336 0.3198,1.83753 0.61853,0.69378 1.31908,1.8255 2.05876,1.07679 z"
         id="path1086" />
      <path
         inkscape:connector-curvature="0"
         d="m 194.91199,190.20264 c -0.0361,0 -0.0722,-7.5e-4 -0.10911,0 -0.79386,-0.0452 -1.27619,-0.56736 -1.32886,-0.6268 l -9.50822,-9.56992 c -0.21972,-0.22123 -0.21821,-0.57865 0.002,-0.79837 0.22123,-0.21972 0.57865,-0.21897 0.79837,0 l 9.53154,9.59399 c 0.15501,0.16555 0.66819,0.58693 1.4786,-0.14522 l 1.03465,-1.09786 c 0.17457,-0.15802 0.52899,-0.55908 0.52598,-0.9451 -0.002,-0.21445 -0.11889,-0.41762 -0.35743,-0.62154 l -4.60888,-4.60737 c -0.22047,-0.22048 -0.22047,-0.5779 0,-0.79838 0.22048,-0.22047 0.5779,-0.22047 0.79837,0 l 4.57728,4.57728 c 0.58693,0.50115 0.71861,1.067 0.72011,1.44926 0.003,0.96767 -0.78407,1.68026 -0.87361,1.75927 l -1.02637,1.08958 c -0.55232,0.50114 -1.09936,0.74194 -1.65468,0.74194 z"
         id="path996"
         style="stroke-width:0.26458335" />
      <path
         style="fill:#ffffff;stroke-width:0.26458335"
         inkscape:connector-curvature="0"
         d="m 190.04125,181.95708 -0.35818,-0.35893 c -0.47556,-0.47556 -0.47556,-1.25362 0,-1.72918 l 2.2529,-2.25214 c 0.47556,-0.47632 1.25361,-0.47632 1.72917,0 l 0.35818,0.35817 c 0.47556,0.47556 0.47556,1.25362 0,1.72918 l -2.2529,2.2529 c -0.47556,0.4748 -1.25361,0.4748 -1.72917,0 z"
         id="path1000" />
      <path
         inkscape:connector-curvature="0"
         d="m 190.90583,182.8781 c -0.4575,0 -0.915,-0.17382 -1.26339,-0.52222 v 0 l -0.35818,-0.35892 c -0.69679,-0.69679 -0.69679,-1.83076 0,-2.5268 l 2.2529,-2.25214 c 0.69678,-0.69754 1.83076,-0.69754 2.52754,0 l 0.35818,0.35817 c 0.69679,0.69679 0.69679,1.83076 0,2.5268 l -2.2529,2.25289 c -0.34914,0.3484 -0.80664,0.52222 -1.26415,0.52222 z m -0.46577,-1.32059 c 0.25659,0.2566 0.67421,0.2566 0.93155,0 l 2.2529,-2.25289 c 0.25659,-0.25659 0.25659,-0.67422 0,-0.93081 l -0.35818,-0.35817 c -0.25659,-0.25735 -0.67421,-0.25735 -0.93155,0 l -2.2529,2.25214 c -0.25659,0.25659 -0.25659,0.67421 0,0.93081 z"
         id="path1002"
         style="stroke-width:0.26458335" />
      <path
         style="fill:#ffffff;stroke-width:0.26458335"
         inkscape:connector-curvature="0"
         d="m 187.50768,179.47317 -0.31077,-0.31002 c -0.47556,-0.47556 -0.47556,-1.25361 0,-1.72917 l 2.5599,-2.55991 c 0.47556,-0.47556 1.25362,-0.47556 1.72918,0 l 0.31077,0.31077 c 0.47556,0.47557 0.47556,1.25362 0,1.72918 l -2.5599,2.55915 c -0.47557,0.47556 -1.25362,0.47556 -1.72918,0 z"
         id="path1006" />
      <path
         inkscape:connector-curvature="0"
         d="m 188.37227,180.39419 c -0.47857,0 -0.92705,-0.18586 -1.2634,-0.52221 v 0 0 l -0.31077,-0.31002 c -0.69679,-0.69678 -0.69679,-1.83076 0,-2.52679 l 2.5599,-2.55991 c 0.69679,-0.69678 1.83076,-0.69678 2.5268,0 l 0.31077,0.31077 c 0.69679,0.69679 0.69679,1.83076 0,2.5268 l -2.5599,2.55915 c -0.33561,0.33635 -0.78483,0.52221 -1.2634,0.52221 z m 2.24988,-5.31394 c -0.16855,0 -0.3371,0.0647 -0.46578,0.19263 l -2.5599,2.55991 c -0.25659,0.25659 -0.25659,0.67421 0,0.9308 l 0.31077,0.31002 v 0 c 0.24681,0.24681 0.68475,0.24681 0.93081,0 l 2.5599,-2.55915 c 0.25659,-0.25659 0.25659,-0.67421 0,-0.93081 l -0.31077,-0.31077 c -0.12792,-0.12792 -0.29647,-0.19263 -0.46503,-0.19263 z"
         id="path1008"
         style="stroke-width:0.26458335" />
      <path
         style="fill:#ffffff;stroke-width:0.26458335"
         inkscape:connector-curvature="0"
         d="m 183.59559,172.25021 1.76905,-1.76906 c 0.47557,-0.47556 1.25437,-0.47556 1.72918,0 l 0.31077,0.31002 c 0.47556,0.47556 0.47556,1.25362 0,1.72918 l -1.76906,1.76981"
         id="path1012" />
      <path
         inkscape:connector-curvature="0"
         d="m 185.63553,174.85451 c -0.14447,0 -0.28894,-0.0549 -0.39881,-0.16554 -0.22047,-0.22048 -0.22047,-0.5779 0,-0.79837 l 1.76906,-1.76981 c 0.25659,-0.2566 0.25659,-0.67422 0,-0.93081 l -0.31077,-0.31002 c -0.25659,-0.25734 -0.67421,-0.25734 -0.93156,0 l -1.76905,1.76906 c -0.22048,0.22047 -0.5779,0.22047 -0.79837,0 -0.21973,-0.22047 -0.21973,-0.5779 0,-0.79837 l 1.76905,-1.76906 c 0.69679,-0.69754 1.83076,-0.69754 2.52755,0 l 0.31077,0.31002 c 0.69679,0.69679 0.69679,1.83076 0,2.52679 l -1.76906,1.76981 c -0.11061,0.11137 -0.25433,0.1663 -0.39881,0.1663 z"
         id="path1014"
         style="stroke-width:0.26458335" />
      <path
         style="fill:#ffffff;stroke-width:0.26458335"
         inkscape:connector-curvature="0"
         d="m 185.75518,174.54901 2.55915,-2.55915 c 0.47556,-0.47557 1.25437,-0.47557 1.72917,0 l 0.31077,0.31001 c 0.47557,0.47632 0.47557,1.25437 0,1.72993 l -2.5599,2.55915"
         id="path1018" />
      <path
         inkscape:connector-curvature="0"
         d="m 187.79512,177.15331 c -0.14447,0 -0.28895,-0.0549 -0.39881,-0.16555 -0.22047,-0.22047 -0.22047,-0.57789 0,-0.79837 l 2.55991,-2.55915 c 0.25659,-0.25734 0.25659,-0.67421 0,-0.93156 l -0.31002,-0.31002 c -0.25659,-0.25659 -0.67421,-0.25659 -0.93156,0 l -2.55915,2.55916 c -0.22047,0.22047 -0.5779,0.22047 -0.79837,0 -0.22047,-0.22048 -0.22047,-0.5779 0,-0.79837 l 2.55915,-2.55916 c 0.69679,-0.69678 1.83076,-0.69678 2.52755,0 l 0.31077,0.31002 c 0.69679,0.69754 0.69679,1.83076 0,2.52755 l -2.55991,2.55915 c -0.11061,0.11137 -0.25508,0.1663 -0.39956,0.1663 z"
         id="path1020"
         style="stroke-width:0.26458335" />
      <path
         style="fill:#ffffff;stroke-width:0.26458335"
         inkscape:connector-curvature="0"
         d="m 182.61437,175.58742 2.19947,2.20022 c 3.14306,0.86383 3.65399,-0.90372 3.65399,-0.90372 l -5.06788,-5.06713 c -4.71423,-0.78633 -5.65783,3.5351 -5.65783,3.5351 l -0.0782,6.20788 -6.09802,6.68645"
         id="path1024" />
      <path
         inkscape:connector-curvature="0"
         d="m 171.5651,188.80982 c -0.1362,0 -0.27165,-0.0482 -0.38,-0.14673 -0.23026,-0.20994 -0.24681,-0.56736 -0.0361,-0.79762 l 5.95354,-6.52843 0.076,-5.99267 c 7.5e-4,-0.0384 0.005,-0.0768 0.0128,-0.11287 0.0105,-0.0482 1.11742,-4.83688 6.30194,-3.97229 0.11588,0.0188 0.22273,0.0745 0.30626,0.15726 l 5.06788,5.06789 c 0.14523,0.14523 0.20016,0.35893 0.14297,0.55608 -0.0271,0.0941 -0.70732,2.29202 -4.34551,1.29123 -0.0941,-0.0263 -0.17984,-0.0768 -0.24907,-0.14522 l -2.20022,-2.20023 c -0.22048,-0.22047 -0.22048,-0.57789 0,-0.79837 0.22047,-0.22047 0.57789,-0.22047 0.79837,0 l 2.09262,2.09262 c 1.66898,0.42515 2.3763,0.008 2.65622,-0.30475 l -4.6307,-4.6307 c -3.75408,-0.52522 -4.70595,2.61484 -4.8256,3.0776 l -0.0782,6.14317 c -0.002,0.13921 -0.0542,0.27089 -0.14749,0.37323 l -6.09801,6.6872 c -0.11137,0.1219 -0.26412,0.1836 -0.41762,0.1836 z"
         id="path1026"
         style="stroke-width:0.26458335" />
      <polyline
         transform="matrix(0.75247013,0,0,0.75247013,44.349485,-733.24676)"
         style="fill:#ffffff;stroke-width:0.35161972"
         points="173.826,1201.057 176.315,1198.707 178.326,1196.807      "
         id="polyline1030" />
      <path
         inkscape:connector-curvature="0"
         d="m 175.14836,171.07711 c -0.14974,0 -0.29949,-0.0587 -0.4101,-0.17608 -0.2137,-0.22724 -0.20392,-0.58392 0.0226,-0.79837 l 3.38611,-3.198 c 0.22649,-0.2137 0.58392,-0.20392 0.79837,0.0226 0.2137,0.22649 0.20392,0.58391 -0.0226,0.79837 l -3.38612,3.198 c -0.10986,0.10233 -0.24907,0.1535 -0.38827,0.1535 z"
         id="path1032"
         style="stroke-width:0.26458335" />
      <line
         style="fill:#ffffff;stroke-width:0.26458335"
         x1="180.16507"
         y1="172.0809"
         x2="177.02126"
         y2="168.74448"
         id="line1036" />
      <path
         inkscape:connector-curvature="0"
         d="m 180.16508,172.64526 c -0.14975,0 -0.29949,-0.0594 -0.41085,-0.17759 l -3.14382,-3.33645 c -0.2137,-0.22649 -0.20317,-0.58316 0.0233,-0.79762 0.22725,-0.2137 0.58392,-0.20392 0.79837,0.0233 l 3.14382,3.33645 c 0.21371,0.22725 0.20317,0.58392 -0.0233,0.79837 -0.10986,0.10159 -0.24907,0.15351 -0.38752,0.15351 z"
         id="path1038"
         style="stroke-width:0.26458335" />
      <line
         style="fill:#ffffff;stroke-width:0.26458335"
         x1="194.08577"
         y1="185.81348"
         x2="190.94196"
         y2="182.47705"
         id="line1042" />
      <path
         inkscape:connector-curvature="0"
         d="m 194.08577,186.37784 c -0.14974,0 -0.29948,-0.0594 -0.41085,-0.17759 l -3.14382,-3.33645 c -0.2137,-0.22649 -0.20316,-0.58316 0.0233,-0.79762 0.22725,-0.2137 0.58392,-0.20392 0.79837,0.0233 l 3.14382,3.33645 c 0.2137,0.22725 0.20317,0.58392 -0.0233,0.79837 -0.10986,0.10159 -0.24907,0.15351 -0.38753,0.15351 z"
         id="path1044"
         style="stroke-width:0.26458335" />
      <line
         style="fill:#ffffff;stroke-width:0.26458335"
         x1="192.45517"
         y1="187.50653"
         x2="195.9045"
         y2="184.24535"
         id="line1048" />
      <path
         inkscape:connector-curvature="0"
         d="m 192.45517,188.07089 c -0.14974,0 -0.29873,-0.0594 -0.4101,-0.17683 -0.21445,-0.22649 -0.20391,-0.58316 0.0226,-0.79761 l 3.44857,-3.26121 c 0.22649,-0.2137 0.58392,-0.20392 0.79837,0.0226 0.2137,0.2265 0.20392,0.58317 -0.0226,0.79762 l -3.44857,3.26121 c -0.10987,0.10233 -0.24907,0.15425 -0.38828,0.15425 z"
         id="path1050"
         style="stroke-width:0.26458335" />
      <polygon
         transform="matrix(0.75247013,0,0,0.75247013,44.349485,-733.24676)"
         style="stroke-width:0.35161972"
         id="polygon1058"
         points="172.315,1196.373 173.815,1194.873 170.826,1193.224 " />
      <path
         id="path1062"
         d="m 179.8385,192.95744 c 0.92855,1.34165 -0.51318,2.82326 -1.87967,1.93234 -0.0662,-0.0436 -0.12641,-0.10158 -0.17156,-0.16705 -0.9278,-1.3409 0.51319,-2.82327 1.87967,-1.93234 0.0662,0.0436 0.12642,0.10233 0.17156,0.16705 z"
         inkscape:connector-curvature="0"
         style="fill:#ffffff;stroke-width:0.26458335" />
      <path
         style="stroke-width:0.26458335"
         id="path1064"
         d="m 178.83847,195.70169 c -1.02562,0.0143 -1.8729,-0.8089 -1.88719,-1.83602 -0.0143,-1.02562 0.80965,-1.8729 1.83527,-1.8872 1.02712,-0.015 1.8744,0.80891 1.8887,1.83528 0.0143,1.02637 -0.8089,1.8744 -1.83678,1.88794 z m -0.0361,-2.64041 c -0.42891,0.008 -0.77278,0.36043 -0.76676,0.78934 0.006,0.42891 0.35968,0.77278 0.78783,0.76752 0.42891,-0.008 0.77429,-0.36044 0.76827,-0.78859 -0.005,-0.42891 -0.36043,-0.77354 -0.78934,-0.76827 z"
         inkscape:connector-curvature="0" />
      <line
         style="fill:#ffffff;stroke-width:0.26458335"
         x1="183.07413"
         y1="161.86009"
         x2="185.41957"
         y2="164.14157"
         id="line1068" />
      <path
         inkscape:connector-curvature="0"
         d="m 185.42635,164.66305 c -0.13319,0 -0.26863,-0.0466 -0.37172,-0.14748 l -2.34545,-2.28074 c -0.20543,-0.20166 -0.20994,-0.53199 -0.0105,-0.73817 0.20091,-0.20693 0.53275,-0.21144 0.73968,-0.0105 l 2.34545,2.28073 c 0.20542,0.20166 0.20994,0.532 0.0105,0.73818 -0.10084,0.10384 -0.23402,0.15651 -0.36796,0.15801 z"
         id="path1070"
         style="stroke-width:0.26458335" />
      <line
         style="fill:#ffffff;stroke-width:0.26458335"
         x1="185.38797"
         y1="161.82776"
         x2="183.10573"
         y2="164.174"
         id="line1074" />
      <path
         inkscape:connector-curvature="0"
         d="m 183.11325,164.69541 c -0.13318,0 -0.26863,-0.0466 -0.37247,-0.14748 -0.20542,-0.20167 -0.20994,-0.532 -0.0105,-0.73818 l 2.28149,-2.34545 c 0.20166,-0.20693 0.53275,-0.21144 0.73967,-0.0105 0.20543,0.20166 0.20994,0.532 0.0105,0.73817 l -2.28149,2.34545 c -0.10008,0.10384 -0.23402,0.15652 -0.36721,0.15802 z"
         id="path1076"
         style="stroke-width:0.26458335" />
    </g>
  </g>
</svg>
