<?xml version="1.0" encoding="utf-8"?>
<!-- Generator: Adobe Illustrator 19.0.0, SVG Export Plug-In . SVG Version: 6.00 Build 0)  -->
<svg version="1.1" id="Capa_1" xmlns="http://www.w3.org/2000/svg" xmlns:xlink="http://www.w3.org/1999/xlink" x="0px" y="0px"
	 width="1260.3px" height="467.6px" viewBox="355 -178.6 1260.3 467.6" style="enable-background:new 355 -178.6 1260.3 467.6;"
	 xml:space="preserve">
<style type="text/css">
	.st0{fill:#FEFEFE;}
	.st1{fill:#EA626D;}
	.st2{fill:#E24852;}
</style>
<g id="Capa_2">
</g>
<g id="Capa_1_1_">
	<g>
		<path class="st0" d="M491,101.4c0,34.5-0.8,69,0.4,103.4c0.1,4.3,1.8,4.7,5.3,4.7c24.8,0,49.6-0.1,74.5,0.5c28,0.7,56,0.1,83.9,1
			c18.5,0.6,37,0.5,55.4,0.9c41.3,0.9,82.6,1.8,123.8,3.1c29.4,1,58.9,1.9,88.3,3c42.2,1.6,84.5,3.4,126.7,5.2
			c23.3,1,46.6,2.1,69.8,3.3c33.4,1.8,66.8,3.8,100.2,5.8c22.6,1.3,45.2,2.7,67.8,4.2c31.7,2.2,63.4,4.4,95.1,6.8
			c19.6,1.4,39.2,3.1,58.7,4.6c21.9,1.8,43.8,3.5,65.7,5.4c3.7,0.3,4.9-0.5,4.9-4.5c-0.2-11,0.1-22,0.2-33c0-10.7,0.1-10.9,10.4-8.4
			c3.8,0.9,5.1,0,5.1-3.7c0-0.8,0-1.7,0-2.5c1-39.7,0.3-79.3,0.3-119c0-3.7,1.2-4.5,4.5-4.4c7.2,0.3,14.3,0.1,21.5,0.5
			c3.7,0.2,5.1-0.5,5.1-4.8c0-18.6,0.7-37.3,0.8-55.9c0.1-23-0.1-46,0-69c0-4.2-1.3-5.6-5.8-5.6c-21.6-0.2-43.3-1-64.9-1.4
			c-40-0.7-79.9-1.4-119.9-2c-14.7-0.2-29.3-0.3-44-0.5c-3.2,0-5.8-0.3-6.3-4.5c-1.5-11.7-3.3-23.4-5.1-35.1
			c-3.1-20.2-6.1-40.5-10-60.6c-0.9-4.6-2.6-6.4-7.6-5.8c-14.6,1.6-29.2,2.8-43.7,4.1c-24,2.1-48.1,4.2-72.1,6.3
			c-28.2,2.5-56.3,5.1-84.5,7.6c-24.2,2.2-48.4,4.2-72.6,6.4c-31.7,2.8-63.3,5.8-95,8.6c-27.8,2.5-55.7,4.8-83.6,7.3
			c-31.8,2.8-63.6,5.8-95.5,8.7c-24.5,2.2-49.1,4.2-73.6,6.4c-31.3,2.8-62.6,5.7-94,8.5c-28.2,2.5-56.4,4.9-84.6,7.4
			c-7.5,0.7-7.5,0.8-6.4,8.4c0.3,2.1,0.5,4.3,1,6.4c0.9,3.9-0.4,5.1-4.5,5c-24.6-0.7-49.3-1.1-73.9-1.8c-3.3-0.1-4.3,1.1-4.3,4.3
			c0.1,6.2-0.1,12.3-0.1,18.5c-0.1,15.2,0,30.3-0.4,45.5c-0.6,21.3-0.5,42.6,0.3,63.9c0.1,2.2,0.6,3.4,3.1,3.4
			c18.3,0.2,36.6,0.5,54.9,0.8c5.9,1.1,11.9,0.6,17.8,0.5c4.5-0.1,6.2,1,6.1,6C490.5,77.6,489.9,89.5,491,101.4z"/>
		<path class="st1" d="M466.8,59.2c-18.3-0.3-36.6-0.6-54.9-0.8c-2.5,0-3.1-1.2-3.1-3.4c-0.8-21.3-0.9-42.6-0.3-63.9
			c0.4-15.2,0.3-30.3,0.4-45.5c0.1-6.2,0.3-12.3,0.1-18.5c-0.1-3.2,0.9-4.4,4.3-4.3c24.6,0.6,49.3,1,73.9,1.8c4.1,0.1,5.4-1.1,4.5-5
			c-0.5-2.1-0.7-4.3-1-6.4c-1.2-7.6-1.2-7.7,6.4-8.4c28.2-2.5,56.4-4.9,84.6-7.4c31.3-2.8,62.6-5.7,94-8.5
			c24.5-2.2,49.1-4.2,73.6-6.4c31.8-2.8,63.6-5.8,95.5-8.7c27.8-2.5,55.7-4.8,83.6-7.3c31.7-2.8,63.3-5.8,95-8.6
			c24.2-2.2,48.4-4.2,72.6-6.4c28.2-2.5,56.3-5.1,84.5-7.6c24-2.1,48.1-4.2,72.1-6.3c14.6-1.3,29.2-2.4,43.7-4.1
			c5-0.6,6.7,1.2,7.6,5.8c3.8,20.1,6.8,40.3,10,60.6c1.8,11.7,3.6,23.3,5.1,35.1c0.5,4.2,3.1,4.5,6.3,4.5c14.7,0.1,29.3,0.3,44,0.5
			c40,0.6,79.9,1.3,119.9,2c21.6,0.4,43.3,1.1,64.9,1.4c4.5,0,5.8,1.4,5.8,5.6c-0.1,23,0.2,46,0,69c-0.1,18.6-0.8,37.3-0.8,55.9
			c0,4.2-1.5,4.9-5.1,4.8c-7.2-0.3-14.3-0.2-21.5-0.5c-3.3-0.1-4.5,0.7-4.5,4.4c0,39.7,0.7,79.3-0.3,119c0,0.8,0,1.7,0,2.5
			c0.1,3.7-1.2,4.6-5.1,3.7c-10.4-2.5-10.4-2.3-10.4,8.4c0,11-0.4,22-0.2,33c0.1,3.9-1.2,4.8-4.9,4.5c-21.9-1.9-43.8-3.6-65.7-5.4
			c-19.6-1.6-39.1-3.2-58.7-4.6c-31.7-2.3-63.4-4.6-95.1-6.8c-22.6-1.5-45.2-2.9-67.8-4.2c-33.4-2-66.8-4-100.2-5.8
			c-23.3-1.3-46.5-2.3-69.8-3.3c-42.2-1.8-84.5-3.6-126.7-5.2c-29.4-1.1-58.9-2-88.3-3c-41.3-1.4-82.5-2.3-123.8-3.1
			c-18.5-0.4-37-0.3-55.4-0.9c-28-0.9-56-0.3-83.9-1c-24.8-0.6-49.6-0.5-74.5-0.5c-3.5,0-5.2-0.4-5.3-4.7
			c-1.2-34.5-0.4-69-0.4-103.4c2.1-0.3,4.2-0.8,6.4-0.9c12.9-0.7,25.8-1,38.7-2.2c5.6-0.5,11.3-0.5,16.9-1
			c10.4-0.9,20.7-2.5,31.2-1.5c-5.3,4.2-8.3,9.6-7.4,16.5c0.9,6.6,4.3,11.6,10.6,14c5.7,2.2,10.8,0.2,15.2-3.6
			c0.9-0.8,2.9-1.9,1.3-3.6c-1.4-1.4-2.2,0.2-3.2,1.1c-4.4,4-9.7,4.9-14.1,2.4c-4.8-2.8-7.4-8.9-6.3-15.2c1-5.6,4.8-9.6,10-10.3
			c3.1-0.4,5.8,0.3,8.5,2c1.4,0.8,2.1,4.9,4.3,2.2c1.7-2-1.5-3.5-2.9-5c-0.6-0.6-1.3-1-2-1.5c1.3-0.7,2.7-1.3,4.2-1.3
			c10.1-0.1,20.2-1.3,30.3-1.9c14.9-0.9,29.7-2.1,44.6-3c15.4-0.9,30.7-2.1,46.1-3c15-1,30.1-1.8,45.1-3.1c13.9-1.2,27.7-2.3,41.6-3
			c20.2-1,40.3-2.6,60.5-4c14.9-1,29.8-1.9,44.6-3c18.2-1.4,36.4-1.9,54.6-3.3c5.6-0.4,11.3-0.5,16.9-0.9
			c16.8-1.2,33.7-2.9,50.5-3.8c14.9-0.8,29.8-2,44.6-2.9c19.3-1.2,38.7-2.3,58-4c12.9-1.1,25.9-1.1,38.7-2.3
			c5.5-0.5,10.9-0.6,16.4-0.9c17.8-1.2,35.7-2.6,53.5-3.9c9.9-0.7,19.8-1.4,29.7-2c2.6-0.2,3.3-1.7,3.4-4
			c0.1-10.1,0.3-20.2,0.8-30.4c0.6-12.3-0.1-24.6-0.6-36.9c-0.7-18.3-0.2-36.7-0.2-55c0-9.6-0.4-9.7-10.2-8.8
			c-15.8,1.5-31.6,2.9-47.5,3.9c-14.5,0.9-29.1,2-43.6,2.9c-20.5,1.3-41,2.7-61.5,4.1c-14.5,1-29.1,2.1-43.6,2.9
			c-20.7,1.2-41.3,2.7-62,4.1c-15,1-30.1,2-45.1,3c-20.2,1.3-40.3,2.4-60.5,4.1c-13.9,1.2-27.7,2.2-41.6,3c-20.2,1-40.3,2.6-60.5,4
			c-14.9,1-29.7,2-44.6,3c-20.5,1.3-41,2.5-61.5,4.1c-12.9,1-25.9,1.1-38.7,2.2c-5.5,0.5-10.9,0.6-16.4,0.9
			c-18.3,1.3-36.7,2.6-55,3.9c-11.9,0.8-23.9,0.9-35.7,2.2c-15.8,1.8-31.7,2.1-47.5,3.7c-11.7,1.2-23.5,1.5-35.2,2.1
			c-2,0.1-3.3,0.6-3.1,2.8c0.5,4.7-1,9.2-1,13.9C466.7,9.2,466.7,34.2,466.8,59.2z M767.2,106.4c-1-1.2,0.4-3.8-2.1-3.5
			c-1.8,0.2-1.2,2.1-1.2,3.3c-0.1,5.8,0,11.6,0,17.5c0,1.2-0.4,3,1.6,3c2.1,0,1.5-1.8,1.5-3c0.1-3.7-0.1-7.3,0.2-11
			c0.4-4.2,3.9-7.4,7.6-7.3c5,0.2,5.1,4,5.2,7.5c0.2,3.7,0,7.3,0.1,11c0,1.3-0.1,2.9,1.9,2.8c1.6-0.1,1.4-1.6,1.4-2.7
			c0.1-3.8-0.2-7.7,0.2-11.5c0.4-4.1,4-7.2,7.7-7.1c4.8,0.2,4.8,3.9,5,7.2c0.2,4,0.1,8,0.1,12c0,1,0.1,2.1,1.5,2.1
			c1.3,0,1.7-0.8,1.7-2c-0.1-5.3,0.3-10.7-0.4-15.9c-0.8-6.2-7-8.4-12.1-4.9c-1.3,0.9-2.5,2.2-3.7,3.3
			C778.4,100.9,774.8,100.6,767.2,106.4z M1331.3,124c1.8-0.3,2.3,0.8,3.1,1.3c4.7,3,9.4,2.6,13.2-1.1c4.2-4.2,4.9-11.4,1.6-16.5
			c-3-4.5-8.3-6.3-13-4.6c-1.9,0.7-3.8,4.4-6.1,0c-0.6-1.1-2,0.4-2,1.7c0,9.8,0,19.6,0,29.4c0,1.2,0.2,2.4,1.9,2.3
			c1.4-0.1,1.4-1.2,1.4-2.2C1331.4,130.7,1331.3,127.3,1331.3,124z M1280.8,122.7c0,4.2-0.1,7.7,0,11.1c0.1,1.7,1.3,2.9,3,2.4
			c1.5-0.4,0.9-1.8,0.5-2.9c-1-2.4-0.5-4.9-0.5-7.4c-0.1-6.8,0-13.6,0-20.4c0-0.9,0.3-2.1-0.9-2.6c-0.5-0.2-1.7,0.1-1.7,0.3
			c-0.7,3.5-2.3,1.5-3.7,0.7c-1.6-0.9-3.3-1.5-5.2-1.5c-5.1-0.1-9.3,3.2-11,8.5c-1.7,5.2,0.2,11.3,4.3,14.3
			C1270.2,128.5,1274.1,128,1280.8,122.7z M638.1,105.9c-1.1-0.8,0.1-3.4-2.3-3.1c-1.4,0.2-1.1,1.4-1.1,2.4c0,9.6,0,19.3,0,28.9
			c0,0.9-0.2,2.1,1.3,2.3c1.8,0.2,1.7-1.2,1.7-2.3c0-3.6,0-7.2,0-11.1c7.8,5.4,12.9,5.4,17,0.6s4-12.7-0.2-17.4
			C650.3,101.3,644.9,101.2,638.1,105.9z M907.7,122.9c7.5,5.4,12.5,5.6,16.8,1c4.2-4.6,4.4-12.5,0.3-17.5
			c-4.2-5.1-9.6-5.3-16.7-0.5c-0.9-0.9,0.1-2.9-1.8-3.1c-1.5-0.2-1.5,1-1.5,2c0,9.8,0,19.6,0,29.4c0,1-0.1,2.1,1.4,2.2
			c1.8,0.1,1.6-1.3,1.6-2.4C907.7,130.4,907.7,127,907.7,122.9z M1152.2,116.1c2.3,0,4.7-0.1,7,0c2.8,0.2,3.5-1,3.1-3.6
			c-0.8-5.2-5.1-9.5-10.2-10.1c-5.8-0.6-11.1,2.6-12.9,8c-1.9,5.5,0.3,11.8,5.1,14.9c4.5,2.9,10.6,2.5,14.3-1.1
			c0.8-0.8,2.7-1.7,1.3-3.1s-2.2,0.5-3.2,1.3c-4.2,3.3-9.3,3-12.4-0.8c-1-1.3-2.3-2.8-1.5-4.5c0.8-1.7,2.6-0.9,4-1
			C1148.5,116,1150.3,116.1,1152.2,116.1z M1001,116.1c1.8,0,3.7,0,5.5,0c4.7,0,5.5-1.2,4-5.6c-1.7-5.1-6.3-8.3-11.8-8.1
			c-5.3,0.2-9.6,3.8-11,9.2c-1.4,5.6,0.9,11.3,5.8,14.1c4.5,2.5,10.4,2,13.9-1.5c0.8-0.8,2.6-1.7,1.1-3.2c-1.1-1.1-1.9,0.3-2.8,1
			c-4.8,3.9-10.3,3.3-13.3-1.3c-0.7-1.1-1.7-2.3-1.2-3.6c0.6-1.7,2.3-0.9,3.5-1C996.7,116,998.8,116.1,1001,116.1z M1247.1,116.1
			c2,0,4,0,6,0c4.8-0.1,5.5-1.1,3.8-5.7c-1.9-5.4-6.1-8.2-11.9-8c-5.3,0.2-9.7,3.9-11,9.2c-1.3,5.3,1,11,5.6,13.9
			c4.3,2.7,10.2,2.3,13.9-1.1c0.9-0.8,2.6-1.7,1.5-3.1c-1.2-1.6-2.2,0.1-3.2,0.9c-4.5,3.5-9.7,3.2-12.8-0.8c-0.9-1.2-2-2.5-1.4-4.1
			c0.6-2,2.5-1.1,3.9-1.2C1243.4,116,1245.3,116.1,1247.1,116.1z M608.8,107.4c3.4-1.1,5.5-1.9,7.7-2.4c3.7-0.7,6.7,0.4,7.9,4.2
			c0.7,2.4,1.2,4.7-3,3.5c-2.5-0.7-5.3-0.6-7.9,0.3c-3.6,1.3-6.3,3.4-5.7,7.6c0.6,4.3,3.6,6.1,7.6,6.6c2,0.2,4-0.4,5.8-1.3
			c1.8-0.9,3.3-1.9,5.2,0.2c0.9,1,3.3,0.7,2.7-0.9c-2.1-5.5,0-11.3-1.6-16.7c-1.1-3.8-3.8-5.8-7.7-6
			C615.9,102.3,612.2,102.6,608.8,107.4z M866.8,107.3c3.6-1.1,5.8-2,8.1-2.3c4-0.6,6.9,1,7.7,5.2c0.4,2.1,0.4,3.6-2.7,2.7
			c-2.7-0.8-5.6-0.8-8.4,0.1c-3.6,1.2-6.3,3.4-5.8,7.6c0.5,4.3,3.6,6.2,7.6,6.6c2,0.2,4-0.4,5.8-1.3c1.8-0.8,3.3-2.1,5.2,0.2
			c0.8,1.1,3.4,0.8,2.8-0.8c-2-5.5-0.1-11.3-1.5-16.7c-1-3.6-3.5-5.6-7.1-6C874.3,102.1,870.4,102.5,866.8,107.3z M746.9,112.4
			c-3.4,0.2-7.3,0.7-9.4,4.9c-1.5,3-0.4,5.6,1.8,7.7c3.4,3.2,7.3,2.7,11.2,0.9c0.3-0.1,0.6-0.3,0.9-0.5c1.4-0.8,2.7-2.2,3.8,0.5
			c0.4,0.9,1.6,1.1,2.6,0.5c0.9-0.5,0.7-1.4,0.4-2.2c-1.7-3.7-0.6-7.5-0.8-11.3c-0.2-4-0.9-7.8-5-9.6c-4.1-1.8-8.1-1.2-12,1
			c-0.9,0.5-2,1-1.2,2.2c0.6,0.9,1.5,0.3,2.2-0.1c2.6-1.3,5.3-2.1,8.2-1.3c3.3,0.9,4.7,3.4,4.3,6.4c-0.5,3.7-3.2,0.2-4.7,1
			C748.8,112.7,748.2,112.5,746.9,112.4z M673.6,112.4c-2.2,0.1-3.9,0.1-5.5,0.4c-4.7,1-7.5,4.5-6.8,8.3c0.9,4.3,5.3,7,10,6
			c1.4-0.3,2.9-0.8,4.2-1.5c1.6-0.9,3.1-2.7,4.2,0.6c0.2,0.6,1.4,0.9,2.2,0.5c1-0.4,0.9-1.4,0.6-2.1c-1.8-3.8-0.7-7.9-0.9-11.8
			c-0.2-4.1-1.1-7.7-5.2-9.4c-4.1-1.7-8.1-1.1-11.9,1.1c-0.7,0.4-1.6,0.8-1.1,1.8c0.7,1.4,1.6,0.6,2.5,0.1c2.4-1.3,5-1.9,7.7-1.3
			c3.3,0.7,4.9,3.1,4.4,6.2C677.5,114.7,674.7,111.8,673.6,112.4z M804.5,114.9c0.1,7,5.7,12.7,12.2,12.5
			c6.4-0.2,11.6-5.8,11.7-12.6c0-6.9-5.5-12.4-12.3-12.3C809.6,102.5,804.4,108.1,804.5,114.9z M969.8,115
			c0.1-7.3-4.9-12.6-11.8-12.6c-6.4,0-11.9,5.7-11.9,12.2c0,6.8,5.6,12.7,12.1,12.7C964.8,127.3,969.8,122,969.8,115z M1058.6,102.4
			c-6.5,0-11.8,5.4-11.8,12.2c-0.1,6.9,5.4,12.7,12,12.7c6.4,0,11.8-5.6,11.8-12.3C1070.6,107.9,1065.4,102.4,1058.6,102.4z
			 M1354.7,114.1c-0.3,6.9,4.8,12.9,11.5,13.2c6.3,0.3,12-5.1,12.3-11.8c0.3-6.8-4.6-12.6-11-13
			C1360.7,102,1355.1,107.2,1354.7,114.1z M1209.3,123.5c-2.9-6.7-5.1-12.2-7.6-17.6c-0.6-1.4-1-4-3.1-3c-2.2,1.1,0,3,0.5,4.2
			c2.3,5.7,4.9,11.3,7.3,16.9c1.7,4-0.1,7.1-2.8,9.7c-0.8,0.8-3.1,0.6-2.1,2.5c0.9,1.7,2.7,0.7,4,0.2c1.9-0.7,2.5-2.5,3.2-4.2
			c3.5-8.6,6.9-17.3,10.4-25.9c0.4-1.1,2-2.6,0.4-3.4c-1.9-1-2.4,1-2.9,2.4C1214.2,111,1212,116.7,1209.3,123.5z M1110.5,112.4
			c-0.8,0.1-2,0.1-3.1,0.3c-5,1-7.7,4.6-6.7,8.8c0.9,3.9,5.3,6.5,9.8,5.5c1.3-0.3,2.6-0.6,3.7-1.3c1.8-1.1,3.4-2.8,4.8,0.5
			c0.3,0.7,1.5,0.8,2.2,0.2c0.4-0.3,0.6-1.3,0.4-1.8c-1.8-3.7-0.8-7.5-0.9-11.3c-0.2-9.5-7.6-14-16-9.4c-0.9,0.5-2.6,0.8-2,2.3
			c0.8,1.9,2,0.2,2.8-0.2c3-1.2,6-2.3,9-0.4c2.3,1.5,3.6,3.9,2.9,6.4c-0.8,2.6-3,0-4.6,0.4C1112.3,112.7,1111.6,112.5,1110.5,112.4z
			 M1392.3,102.4c-1.1,0.1-1.8,0-2.4,0.1c-3.6,0.5-6.3,2.3-6.9,6.1c-0.7,4.1,2.2,5.5,5.4,6.5c1.9,0.6,3.9,0.9,5.8,1.5
			c2.1,0.7,4.3,1.6,3.7,4.4c-0.5,2.5-2.4,3.4-4.8,3.6c-2.9,0.2-5.6-0.2-8.1-1.9c-0.8-0.5-1.7-1.4-2.5-0.1c-0.7,1.2,0.1,1.9,1,2.3
			c4.4,2.4,9,3.3,13.8,1c2.5-1.2,3.9-3.2,3.9-5.9c0-2.8-1.7-4.6-4.3-5.5c-2.5-0.8-5.1-1.5-7.7-2.2c-1.9-0.6-3.4-1.5-3.1-3.8
			c0.2-2.1,1.6-3.1,3.6-3.6c1.8-0.4,3.6,0,5.4,0.2c1.6,0.1,3.5,3.2,4.4,0.6c0.7-2.2-2.5-2.5-4.3-3.1
			C1394.2,102.3,1393,102.5,1392.3,102.4z M1024.1,102.4c-1,0.1-1.9,0-2.7,0.2c-3.6,0.7-6.1,2.6-6.5,6.5s2.5,5.1,5.4,6
			c2.1,0.6,4.2,1,6.2,1.7s3.8,1.7,3.3,4.2c-0.4,2.2-2,3.3-4.2,3.5c-2.9,0.3-5.6,0.1-8.2-1.5c-0.8-0.5-1.9-2-2.9-0.4
			c-1.1,1.8,0.7,2.3,1.8,2.8c4.2,2,8.5,2.8,12.9,0.6c2.5-1.2,3.9-3.1,3.9-5.9s-1.7-4.6-4.3-5.5c-2.5-0.8-5.1-1.5-7.7-2.2
			c-1.9-0.5-3.4-1.5-3.2-3.8c0.2-2.1,1.6-3.2,3.6-3.6c1.8-0.4,3.6,0,5.4,0.2c1.6,0.1,3.7,3.1,4.4,0.7c0.7-2.3-2.8-2.6-4.7-3.3
			C1025.9,102.3,1024.8,102.5,1024.1,102.4z M1183.1,106.1c-3.5-4.4-11.6-5-15.2-1.2c-3,3.3-2.3,7.7,1.8,9.4
			c2.6,1.1,5.4,1.5,8.1,2.4c2,0.7,3.8,1.7,3.3,4.3c-0.5,2.2-2.1,3.3-4.3,3.5c-3.1,0.3-6-0.1-8.6-1.9c-0.8-0.6-1.8-1.3-2.5,0
			c-0.7,1.2,0.4,1.8,1.2,2.3c4.3,2.4,8.7,3.2,13.4,1.2c2.7-1.2,4.2-3.3,4.2-6.2c0-2.9-2-4.5-4.5-5.3s-5.1-1.4-7.7-2.2
			c-1.7-0.5-3-1.4-2.9-3.5c0.1-2.2,1.3-3.3,3.3-3.8c2.4-0.6,4.6-0.2,6.9,0.5C1180.7,106.1,1181.8,107.3,1183.1,106.1z M1310.8,114.1
			c0-3.2,0-5.8,0-8.5c0-1.2,0.4-3-1.7-2.8c-1.7,0.1-1.3,1.6-1.3,2.7c-0.1,3.7,0.1,7.3-0.1,11c-0.2,4.2-4.2,8-8.2,7.9
			c-5-0.1-5.7-3.8-5.8-7.7c-0.1-3.8,0-7.7-0.1-11.5c0-1.2,0-2.5-1.7-2.4c-1.4,0.1-1.2,1.4-1.3,2.3c0,4,0,8,0,12
			c0,3.6,0.3,7.1,3.8,9.1c3.7,2.1,7.2,0.9,10.3-1.2c1.6-1,2.8-2.6,3.9,0.4c0.4,1.1,1.6,1.3,2.5,0.8c0.8-0.5,0.7-1.5,0.3-2.3
			C1310.1,120.6,1311.3,117.1,1310.8,114.1z M841.9,102.4c-1,0.1-2,0-3,0.2c-3.4,0.8-5.7,2.5-6.2,6.3c-0.4,3.9,2.1,5.3,5.2,6.2
			c1.9,0.6,3.9,0.9,5.8,1.5c2.1,0.7,4.4,1.4,4,4.2c-0.4,2.8-2.6,3.6-5.1,3.8c-2.7,0.2-5.3-0.2-7.7-1.7c-0.8-0.5-1.9-1.1-2.6-0.1
			c-0.8,1.2,0.4,1.8,1.2,2.3c4.1,2.2,8.4,3.2,12.9,1.3c2.6-1.1,4.4-3,4.5-6.1c0.1-3.2-1.9-4.8-4.6-5.7c-2.5-0.8-5.1-1.4-7.7-2.2
			c-1.7-0.5-3-1.5-2.9-3.6c0.1-1.9,1.3-3,3-3.5c2.9-0.9,5.6-0.4,8.2,0.9c0.8,0.4,1.9,1.3,2.5,0c0.6-1.2-0.6-1.8-1.4-2.2
			C846.2,102.8,844.1,102.3,841.9,102.4z M1079.1,106.2c-1-1.1,0.2-3.7-2.1-3.4c-2.2,0.3-1.2,2.4-1.2,3.7c-0.1,5.5-0.1,11,0,16.5
			c0,1.3-0.9,3.5,1.6,3.4c2-0.1,1.3-2,1.3-3.2c0.1-3.2-0.1-6.3,0.1-9.5c0.2-4.7,4.5-8.8,8.8-8.4c5.1,0.5,5,4.5,5.1,8.2
			c0.1,3.3,0,6.7,0.1,10c0,1.2-0.5,3,1.7,2.9c1.7-0.1,1.3-1.7,1.3-2.7c0-4.5,0.2-9,0-13.5c-0.3-6.6-4.9-9.5-11-7.1
			C1082.8,103.9,1081.2,105.1,1079.1,106.2z M975.9,116.2c0,2.5,0,5,0,7.5c0,1.3-0.4,2.9,1.7,3c2,0.1,1.8-1.5,1.8-2.8
			c0-4.8,0.1-9.7,0-14.5c0-2.4,0.1-4.3,3.4-4c1,0.1,2.7,0.5,2.8-1.2c0.1-2.1-1.9-1.5-3-1.4c-4.1,0.1-3.3-2.4-2.5-4.7
			c0.8-2.2,2.6-2.8,4.9-2.5c1,0.1,2.5,1.3,2.7-0.7c0.2-1.6-1.4-1.7-2.5-1.9c-4-0.8-7.4,0.5-8.2,4.5c-0.6,3.3-5.8,6-1.4,10.5
			C977,109.4,975.8,113.4,975.9,116.2z M699,102.4c-6-0.1-10.5,3.2-12,8.4c-1.6,5.5,0.5,11.5,5.1,14.5c4.2,2.7,9.9,2.6,13.5-0.5
			c1-0.9,3-1.9,1.8-3.5c-1.3-1.8-2.5,0.1-3.6,0.9c-5,3.8-10.5,2.4-13.1-3.3c-1.9-4.2-1-9.1,2.4-11.8c3.6-2.9,7.4-2.7,10.9,0.2
			c1.2,0.9,2.4,1.8,3.4,0.5c0.8-1.1-0.7-2-1.5-2.8C703.9,103.1,701.4,102.3,699,102.4z M729.8,127.1c0.6-0.1,1.4-0.3,2.2-0.5
			c1.1-0.3,2.7-0.4,2.5-1.9c-0.2-1.7-1.8-1.1-2.8-0.9c-3.2,0.4-4.1-1.3-4.1-4.1c0.1-3.3,0.1-6.7,0-10c0-2.4-0.3-4.8,3.4-4.4
			c0.9,0.1,1.7-0.3,1.7-1.3c0-0.7-0.6-1.3-1.3-1.2c-4.8,0.5-3.7-2.9-3.8-5.5c-0.1-1.2,0-2.5-1.7-2.4c-1.4,0.1-1.1,1.4-1.3,2.3
			c-0.4,2.2,1.3,5.1-2.7,5.9c-1.1,0.2-0.9,2,0.3,2.1c3.1,0.4,2.4,2.7,2.4,4.5c0.1,4.2,0.1,8.3,0,12.5
			C724.5,125.6,726.6,126.7,729.8,127.1z M1127.7,108.9L1127.7,108.9c0,4.3-0.1,8.7,0.1,13c0.2,4.2,3.5,6.3,7.2,4.8
			c0.8-0.3,1.6-0.5,1.5-1.6c-0.1-0.8-0.7-1.1-1.4-1c-4.5,0.6-4.2-2.5-4.3-5.4c0-7.2,0-14.3,0-21.5c0-1.3,0.8-3.4-1.4-3.6
			c-2.5-0.1-1.6,2.1-1.6,3.4C1127.6,100.9,1127.7,104.9,1127.7,108.9z M936.7,106.2c-1.7-0.7,0-3.8-2.6-3.5
			c-0.7,0.1-1.2,0.7-1.2,1.4c0,7,0,14,0,21c0,0.7,0.5,1.2,1.2,1.3c1,0.1,1.5-0.5,1.6-1.4c0.1-0.8,0.1-1.7,0.1-2.5
			c0.2-7-1.9-15,8.2-17.2c0.7-0.1,0.8-1,0.6-1.7c-0.3-1-1.2-1-2-0.8C940.3,103.3,938.6,105,936.7,106.2z M1321.4,115.4
			c0-3.3,0-6.6,0-9.9c0-1.1,0.2-2.5-1.5-2.7s-1.8,1.1-1.8,2.3c0,6.5,0,12.9,0,19.4c0,1,0.2,2.1,1.5,2.2c1.6,0.1,1.8-1.1,1.8-2.3
			C1321.4,121.3,1321.4,118.4,1321.4,115.4z M1041.3,114.7c0-3.3,0-6.6,0-9.9c0-1.1-0.3-2-1.6-2c-1.3,0-1.6,0.9-1.6,2
			c0,6.6,0,13.2,0,19.9c0,1.1,0.3,2,1.6,2c1.3,0,1.6-0.9,1.6-2C1041.4,121.3,1041.3,118,1041.3,114.7z M716.6,114.7c0-3,0-6,0-9
			c0-1.2,0.5-3-1.6-2.9c-1.7,0.1-1.3,1.6-1.3,2.7c0,6.1,0,12.3,0,18.4c0,1.1-0.3,2.6,1.6,2.5c1.6-0.1,1.4-1.6,1.4-2.7
			C716.6,120.7,716.6,117.7,716.6,114.7z M1321.3,95.5c0-1.3-0.3-2.4-1.8-2.2c-1.2,0.1-1.4,1.1-1.4,2.2c0,1.3,0.3,2.4,1.8,2.2
			C1321.2,97.6,1321.4,96.6,1321.3,95.5z M1041.3,95.7c0-1.2,0-2.4-1.7-2.4c-1.3,0-1.6,0.9-1.6,2c0,1.2,0,2.4,1.7,2.4
			C1041,97.7,1041.3,96.8,1041.3,95.7z"/>
		<path class="st2" d="M584.1,95.8c-10.5-1-20.8,0.6-31.2,1.5c-5.6,0.5-11.2,0.5-16.9,1c-12.8,1.2-25.8,1.5-38.7,2.2
			c-2.1,0.1-4.2,0.6-6.4,0.9c-1.1-11.9-0.5-23.8-0.3-35.7c0.1-5-1.6-6.1-6.1-6c-5.9,0.1-11.9,0.7-17.8-0.5c0-25-0.1-50,0-75
			c0-4.6,1.5-9.2,1-13.9c-0.2-2.2,1.1-2.7,3.1-2.8c11.8-0.6,23.5-0.9,35.2-2.1c15.8-1.6,31.7-1.9,47.5-3.7
			c11.8-1.4,23.8-1.4,35.7-2.2c18.3-1.2,36.7-2.6,55-3.9c5.5-0.4,10.9-0.4,16.4-0.9c12.9-1.2,25.8-1.2,38.7-2.2
			c20.5-1.6,41-2.7,61.5-4.1c14.9-1,29.8-1.9,44.6-3c20.2-1.4,40.3-2.9,60.5-4c13.9-0.7,27.8-1.8,41.6-3c20.1-1.7,40.3-2.8,60.5-4.1
			c15-1,30.1-1.9,45.1-3c20.7-1.4,41.3-2.8,62-4.1c14.5-0.9,29.1-1.9,43.6-2.9c20.5-1.4,41-2.8,61.5-4.1c14.5-0.9,29.1-2,43.6-2.9
			c15.9-1,31.7-2.4,47.5-3.9c9.8-0.9,10.2-0.8,10.2,8.8c0,18.3-0.5,36.7,0.2,55c0.5,12.3,1.2,24.6,0.6,36.9
			c-0.5,10.1-0.8,20.2-0.8,30.4c0,2.3-0.7,3.8-3.4,4c-9.9,0.6-19.8,1.3-29.7,2c-17.8,1.3-35.7,2.6-53.5,3.9
			c-5.5,0.4-10.9,0.5-16.4,0.9c-12.9,1.1-25.9,1.1-38.7,2.3c-19.3,1.7-38.7,2.8-58,4c-14.9,0.9-29.7,2.1-44.6,2.9
			c-16.9,0.9-33.7,2.6-50.5,3.8c-5.6,0.4-11.2,0.5-16.9,0.9c-18.2,1.4-36.4,1.9-54.6,3.3c-14.9,1.1-29.8,2-44.6,3
			c-20.2,1.4-40.3,2.9-60.5,4c-13.9,0.7-27.8,1.8-41.6,3c-15,1.3-30.1,2.1-45.1,3.1c-15.4,1-30.7,2.1-46.1,3
			c-14.9,0.9-29.7,2-44.6,3c-10.1,0.6-20.1,1.8-30.3,1.9c-1.6,0-2.9,0.6-4.2,1.3C593.5,93.4,588.7,93.6,584.1,95.8z M851.5,8.5
			c4.3-0.3,7.2-0.4,10.1-0.7c3.2-0.3,6.2-1.1,9.1-2.5c7.8-3.6,11.3-9.1,11-17.2c-0.3-8-5.1-12.8-12.1-15.5c-7.2-2.8-14.6-2.8-22.1-1
			c-1.5,0.4-2.7,1.1-4.5-0.1c-7.2-4.7-5,4.4-8.2,6.1c-2.1,1.1-2.1,4.4,0.1,5.4c2.9,1.4,2.1,3.4,2.2,5.4c0.2,13.5,0.3,27,0.4,40.4
			c0,2.6,0,5.4,3.5,5.4c3.6-0.1,3.3-3,3.3-5.5c0.1-5-0.3-10.1,0.8-15.5c5.8,3.7,11.2,7,16.5,10.4c4.4,2.7,8.7,5.5,13.1,8.2
			c1.9,1.1,3.9,1.4,5.3-0.7c1.4-2.2,0.7-4.1-1.5-5.5c-1.3-0.8-2.6-1.6-3.8-2.4C867.4,18.5,860,13.9,851.5,8.5z M1004.9,3.3
			c0-19.3-13.7-33.7-32-33.6c-17.4,0.1-29.7,13.6-29.7,32.6c-0.1,19,11.4,30.8,30.2,30.8S1004.8,21.2,1004.9,3.3z M755.2-23.9
			c-4-3.7-8.4-6.3-14-6.6c-12.9-0.8-23.8,5.7-29,18.5c-5.1,12.6-5.4,25.3,3.9,36.2c8.9,10.4,20.8,11.8,33.4,8.3
			c9.5-2.6,16.1-10.7,16.4-19.2c0.1-2.2,0.4-4.5-2.8-4.9c-3.1-0.3-4.2,1.3-4.2,4.2c-0.1,4.2-1.8,7.7-5,10.5
			c-12,10.1-33.1,3.3-36.9-11.8c-2.1-8.4-0.9-16.6,3.4-24.1c7.8-13.5,23.3-15.1,33.9-3.7c0.9,1,1.6,2.2,2.7,2.9
			c2.7,1.9,5.1,1.3,5.6-2c0.5-3.9,0.3-8,0.1-12c-0.1-1.6-1.4-2.7-3.1-2.6c-1.8,0-3.2,0.9-3.5,2.9C755.7-26.3,756.3-25.1,755.2-23.9z
			 M815.7,23.7c0,3,0.1,4.8,0,6.6c-0.1,2.3,1.1,3.5,3.2,3.6c2.4,0.1,3.7-1.2,3.6-3.7c-0.3-19-0.5-38-0.7-57c0-3.1-1.9-4.1-4.7-3.2
			c-2.2,0.7-2,2.8-2,4.7c0.1,11,0.5,22,0.4,33c-0.2,10.6-9.1,19.9-18.3,19.6c-10-0.3-14.7-6.3-14.7-19.1c0-11,0.2-22,0.3-33
			c0-2.5-0.2-4.8-3.5-4.8c-3.1,0-3.4,2.3-3.4,4.5c-0.1,13.2-0.6,26.3-0.1,39.5c0.5,12,8.8,19.1,20.6,19.1
			C804.1,33.6,810,30.5,815.7,23.7z M913.2,33.6c10.2,0.1,17.9-5,19.4-13c1.7-9-2.7-15.6-13-19.6c-4.5-1.7-9.2-2.9-13.6-4.8
			c-6.7-2.8-8.4-9.5-4.1-15.2c3.7-4.9,9-5.4,14.4-4.4c5,1,8.1,4.3,9.2,9.4c0.4,1.7-0.3,3.8,2.2,4.5c3.4,1,5.4-1.2,4.7-5.4
			c-1.3-7-5.6-11.6-12.2-14c-7.8-2.8-15.2-1.8-21.5,3.6c-9.5,8.1-7.6,21.7,3.6,27.1c3.1,1.5,6.5,2.4,9.9,3.5c3.5,1.1,7,2.1,10,4.4
			c5.7,4.3,5.1,12.5-1,15.8c-9.1,5-19.8-0.2-21.2-10.4c-0.4-2.6-0.7-4.8-3.9-4.5c-3.6,0.3-3.3,3.1-3.1,5.6
			C893.9,26.7,901.9,33.5,913.2,33.6z M1035.9,33.6c10.6,0.1,17.6-4.9,19.3-13.7c1.6-8.3-2.8-14.9-12.7-18.8
			c-4.5-1.8-9.1-3.1-13.6-4.8c-3.7-1.5-6.5-3.8-6.6-8.4c0-6.1,4-10.8,10.2-11.5c8.1-1,14.2,2.6,15.3,9.3c0.5,2.9,0.8,5.5,4.6,4.8
			c3.7-0.7,2.5-3.8,2.3-6.1c-0.1-2.4-1.3-4.4-2.7-6.3c-7.2-10-22.9-11.3-31.7-2.6c-8.2,8.2-6.4,20.6,3.8,26c2.6,1.4,5.6,2.1,8.4,3.1
			c3.6,1.3,7.3,2.4,10.7,4.1c3.9,1.9,5.9,5.4,5.4,9.9c-0.6,4.5-3.5,6.8-7.7,8.1c-7.8,2.4-18.3-2.3-18.4-12.1c0-2.6-1.3-4.2-4-3.9
			c-3,0.3-3.1,2.5-2.9,4.8C1015.9,26.3,1024.1,33.5,1035.9,33.6z"/>
		<path class="st0" d="M767.2,106.4c7.6-5.7,11.1-5.5,16.1,0.9c1.2-1.1,2.3-2.4,3.7-3.3c5.2-3.5,11.3-1.3,12.1,4.9
			c0.7,5.2,0.3,10.6,0.4,15.9c0,1.2-0.4,2-1.7,2c-1.4,0-1.5-1.1-1.5-2.1c0-4,0.2-8-0.1-12c-0.2-3.3-0.3-7-5-7.2
			c-3.7-0.2-7.3,2.9-7.7,7.1c-0.3,3.8-0.1,7.6-0.2,11.5c0,1.1,0.2,2.6-1.4,2.7c-2,0.2-1.9-1.4-1.9-2.8c0-3.7,0.1-7.3-0.1-11
			c-0.1-3.5-0.2-7.3-5.2-7.5c-3.7-0.1-7.2,3.1-7.6,7.3c-0.3,3.6-0.1,7.3-0.2,11c0,1.2,0.6,3-1.5,3c-2,0-1.6-1.7-1.6-3
			c0-5.8,0-11.6,0-17.5c0-1.2-0.6-3.1,1.2-3.3C767.6,102.5,766.2,105.1,767.2,106.4z"/>
		<path class="st0" d="M1331.3,124c0,3.3,0,6.7,0,10.1c0,1,0,2.1-1.4,2.2c-1.7,0.2-1.9-1-1.9-2.3c0-9.8,0-19.6,0-29.4
			c0-1.3,1.4-2.8,2-1.7c2.3,4.4,4.2,0.7,6.1,0c4.7-1.7,10,0.1,13,4.6c3.3,5.1,2.7,12.3-1.6,16.5c-3.7,3.7-8.5,4.1-13.2,1.1
			C1333.6,124.8,1333.2,123.7,1331.3,124z M1331.4,114.6c0,5.8,3.3,9.8,8.1,9.8c4.7,0.1,8.4-4.3,8.4-9.8c-0.1-5.3-3.5-9.2-8.2-9.3
			C1334,105.2,1331.4,108.2,1331.4,114.6z"/>
		<path class="st0" d="M1280.8,122.7c-6.7,5.3-10.6,5.9-15.1,2.6c-4.1-3-6-9.2-4.3-14.3c1.7-5.3,5.9-8.5,11-8.5
			c1.9,0,3.6,0.6,5.2,1.5c1.4,0.8,3,2.8,3.7-0.7c0-0.2,1.3-0.5,1.7-0.3c1.1,0.5,0.9,1.7,0.9,2.6c0,6.8,0,13.6,0,20.4
			c0,2.5-0.5,5,0.5,7.4c0.4,1.1,1,2.5-0.5,2.9c-1.7,0.5-2.9-0.8-3-2.4C1280.7,130.3,1280.8,126.9,1280.8,122.7z M1280.7,114.9
			c0-6.4-2.7-9.6-8-9.6c-4.8,0-8.8,4.4-8.8,9.6c0,4.8,4.1,9.4,8.4,9.5C1277.1,124.6,1280.7,120.5,1280.7,114.9z"/>
		<path class="st0" d="M638.1,105.9c6.8-4.7,12.1-4.6,16.4,0.2c4.2,4.8,4.3,12.6,0.2,17.4c-4.1,4.9-9.2,4.8-17-0.6
			c0,3.9,0,7.5,0,11.1c0,1.2,0.1,2.5-1.7,2.3c-1.4-0.1-1.3-1.3-1.3-2.3c0-9.6,0-19.3,0-28.9c0-0.9-0.2-2.2,1.1-2.4
			C638.2,102.5,637.1,105.1,638.1,105.9z M637.7,114.5c0,5.6,3.4,9.9,8.1,10c4.7,0.1,8.7-4.3,8.7-9.6c0.1-5.2-3.9-9.5-8.8-9.5
			C640.5,105.4,637.7,108.5,637.7,114.5z"/>
		<path class="st0" d="M907.7,122.9c0,4.1,0,7.6,0,11.1c0,1.1,0.2,2.5-1.6,2.4c-1.4-0.1-1.4-1.2-1.4-2.2c0-9.8,0-19.6,0-29.4
			c0-1,0-2.1,1.5-2c2,0.2,0.9,2.3,1.8,3.1c7.2-4.7,12.5-4.6,16.7,0.5c4.1,4.9,3.9,12.9-0.3,17.5S915.2,128.3,907.7,122.9z
			 M907.7,114.6c0,5.6,3.5,9.8,8.2,9.9s8.6-4.4,8.6-9.7c0-5.2-4-9.4-8.9-9.4C910.5,105.4,907.7,108.6,907.7,114.6z"/>
		<path class="st0" d="M584.1,95.8c4.6-2.1,9.3-2.4,14.1-1c0.7,0.5,1.4,0.9,2,1.5c1.4,1.5,4.6,2.9,2.9,5c-2.2,2.7-2.9-1.4-4.3-2.2
			c-2.7-1.6-5.5-2.4-8.5-2c-5.2,0.7-9,4.7-10,10.3c-1.1,6.2,1.5,12.4,6.3,15.2c4.4,2.5,9.7,1.7,14.1-2.4c0.9-0.9,1.8-2.5,3.2-1.1
			c1.6,1.7-0.3,2.8-1.3,3.6c-4.4,3.8-9.5,5.7-15.2,3.6c-6.3-2.4-9.7-7.4-10.6-14C575.9,105.4,578.8,100,584.1,95.8z"/>
		<path class="st0" d="M1152.2,116.1c-1.8,0-3.7-0.1-5.5,0c-1.4,0.1-3.3-0.7-4,1c-0.8,1.7,0.5,3.2,1.5,4.5c3.1,3.8,8.2,4.1,12.4,0.8
			c1-0.7,1.7-2.7,3.2-1.3c1.4,1.4-0.5,2.3-1.3,3.1c-3.7,3.6-9.8,4-14.3,1.1c-4.8-3.1-6.9-9.4-5.1-14.9c1.8-5.4,7.1-8.6,12.9-8
			c5.2,0.6,9.5,4.9,10.2,10.1c0.4,2.6-0.4,3.8-3.1,3.6C1156.8,116,1154.5,116.1,1152.2,116.1z M1150.5,113.5c1.7,0,3.3-0.1,5,0
			c4.3,0.3,3.9-1.9,2.3-4.5c-2.8-4.6-9-5.6-12.9-2c-1.7,1.5-3.3,3.6-2.7,5.6s3.2,0.6,4.9,0.9
			C1148.2,113.6,1149.4,113.5,1150.5,113.5z"/>
		<path class="st0" d="M1001,116.1c-2.2,0-4.3-0.1-6.5,0c-1.2,0.1-2.9-0.7-3.5,1c-0.5,1.3,0.5,2.6,1.2,3.6c3.1,4.6,8.6,5.2,13.3,1.3
			c0.9-0.7,1.7-2.1,2.8-1c1.5,1.4-0.3,2.4-1.1,3.2c-3.5,3.4-9.3,4-13.9,1.5c-4.9-2.7-7.2-8.5-5.8-14.1c1.4-5.4,5.6-9,11-9.2
			c5.5-0.2,10.1,2.9,11.8,8.1c1.5,4.5,0.7,5.6-4,5.6C1004.6,116.1,1002.8,116.1,1001,116.1z M999,113.5c1,0,2,0.2,3,0
			c1.9-0.4,5,1.5,5.5-1.3c0.5-2.7-1.7-5.1-4.2-6.2c-3.6-1.7-7.1-1.5-10.1,1.5c-1.4,1.4-3,3.2-2.2,5.2c0.7,1.8,2.9,0.6,4.5,0.8
			C996.7,113.6,997.8,113.5,999,113.5z"/>
		<path class="st0" d="M1247.1,116.1c-1.8,0-3.7-0.1-5.5,0c-1.4,0.1-3.2-0.8-3.9,1.2c-0.5,1.6,0.6,2.9,1.4,4.1c3,4,8.3,4.3,12.8,0.8
			c1-0.8,1.9-2.5,3.2-0.9c1.1,1.4-0.6,2.3-1.5,3.1c-3.7,3.3-9.6,3.8-13.9,1.1c-4.6-2.8-6.9-8.6-5.6-13.9c1.3-5.3,5.7-9,11-9.2
			c5.7-0.2,9.9,2.6,11.9,8c1.7,4.6,1,5.6-3.8,5.7C1251.1,116.2,1249.1,116.1,1247.1,116.1z M1237.2,113.5c5,0,9.8-0.1,14.6,0
			c3.1,0.1,2.8-1.4,1.9-3.4c-1.7-3.7-4.7-5.8-8.7-5.3C1240.4,105.5,1237.6,108.3,1237.2,113.5z"/>
		<path class="st0" d="M608.8,107.4c3.4-4.8,7.1-5.2,11-4.9c3.9,0.3,6.6,2.3,7.7,6c1.5,5.4-0.5,11.2,1.6,16.7c0.6,1.7-1.9,2-2.7,0.9
			c-1.8-2.2-3.3-1.2-5.2-0.2c-1.8,0.9-3.7,1.5-5.8,1.3c-4-0.5-7.1-2.3-7.6-6.6c-0.6-4.2,2.1-6.4,5.7-7.6c2.6-0.9,5.4-1,7.9-0.3
			c4.2,1.2,3.8-1.2,3-3.5c-1.2-3.8-4.2-4.9-7.9-4.2C614.3,105.5,612.2,106.3,608.8,107.4z M618.9,114.4c-3.7,0.5-7.7,0.4-8.1,5.1
			c-0.2,3.6,2.4,5.1,5.9,5.2c4.7,0,8-2.5,8-6.2C624.9,113.7,621,115.4,618.9,114.4z"/>
		<path class="st0" d="M866.8,107.3c3.6-4.9,7.6-5.2,11.6-4.8c3.6,0.4,6.2,2.5,7.1,6c1.5,5.5-0.5,11.2,1.5,16.7
			c0.6,1.6-1.9,1.9-2.8,0.8c-1.8-2.3-3.4-1-5.2-0.2c-1.8,0.9-3.7,1.5-5.8,1.3c-4-0.5-7-2.3-7.6-6.6c-0.5-4.2,2.2-6.4,5.8-7.6
			c2.7-0.9,5.7-0.9,8.4-0.1c3.1,0.9,3.1-0.7,2.7-2.7c-0.9-4.2-3.7-5.8-7.7-5.2C872.6,105.3,870.3,106.3,866.8,107.3z M876.7,114.5
			c-5.1,0.1-8.4,2.4-7.9,5.4c0.5,3.6,3,4.8,6.5,4.7c4.5-0.2,7.6-2.6,7.6-6.2C882.8,113.5,878.8,115.3,876.7,114.5z"/>
		<path class="st0" d="M746.9,112.4c1.2,0.1,1.8,0.3,2.2,0.1c1.5-0.8,4.2,2.8,4.7-1c0.4-3-0.9-5.6-4.3-6.4c-2.9-0.7-5.6,0-8.2,1.3
			c-0.7,0.4-1.6,1-2.2,0.1c-0.8-1.2,0.3-1.7,1.2-2.2c3.8-2.2,7.9-2.8,12-1c4.1,1.8,4.8,5.6,5,9.6c0.2,3.8-0.9,7.6,0.8,11.3
			c0.4,0.8,0.5,1.7-0.4,2.2c-1,0.6-2.3,0.4-2.6-0.5c-1.1-2.7-2.4-1.3-3.8-0.5c-0.3,0.2-0.6,0.3-0.9,0.5c-3.9,1.8-7.8,2.2-11.2-0.9
			c-2.2-2.1-3.3-4.6-1.8-7.7C739.6,113.1,743.6,112.6,746.9,112.4z M747.8,114.4c-3.7,0.5-7.7,0.8-7.7,5.4c0,3.4,2.7,5,6.3,4.8
			c4.4-0.2,7.6-2.5,7.7-6.1C754.1,113.7,750.1,115.3,747.8,114.4z"/>
		<path class="st0" d="M673.6,112.4c1-0.6,3.8,2.3,4.3-1.1c0.5-3.1-1.1-5.5-4.4-6.2c-2.7-0.6-5.3,0-7.7,1.3
			c-0.8,0.5-1.8,1.3-2.5-0.1c-0.5-1,0.4-1.4,1.1-1.8c3.8-2.2,7.9-2.9,11.9-1.1c4.1,1.7,5,5.3,5.2,9.4c0.2,3.9-0.9,8,0.9,11.8
			c0.3,0.7,0.4,1.7-0.6,2.1c-0.8,0.4-2,0.1-2.2-0.5c-1.1-3.3-2.5-1.5-4.2-0.6c-1.3,0.7-2.7,1.2-4.2,1.5c-4.7,1-9.1-1.8-10-6
			c-0.8-3.8,2-7.3,6.8-8.3C669.7,112.4,671.4,112.5,673.6,112.4z M672.1,114.4c-3.6,0.5-7.6,0.6-7.6,5.4c0,3.5,2.4,4.8,5.7,4.8
			c4.7,0.1,8.6-2.9,8.3-6.7C678.2,113.7,674.4,115.2,672.1,114.4z"/>
		<path class="st0" d="M804.5,114.9c-0.1-6.7,5.1-12.3,11.6-12.4c6.8-0.1,12.3,5.4,12.3,12.3c0,6.7-5.2,12.3-11.7,12.6
			C810.1,127.6,804.6,121.9,804.5,114.9z M825,114.7c0-5.6-3.7-9.4-8.8-9.3c-4.6,0.1-8.3,4.2-8.4,9.4c-0.1,5.3,3.9,9.8,8.6,9.8
			C821.1,124.4,825,119.9,825,114.7z"/>
		<path class="st0" d="M969.8,115c-0.1,7-5.1,12.3-11.6,12.4c-6.5,0-12.1-5.9-12.1-12.7c0-6.5,5.5-12.2,11.9-12.2
			C965,102.4,969.9,107.6,969.8,115z M958.3,105.3c-5-0.1-8.7,4-8.7,9.4c0,5.3,3.9,9.7,8.7,9.7c4.7-0.1,8.6-4.6,8.6-9.9
			C966.8,109.5,963,105.4,958.3,105.3z"/>
		<path class="st0" d="M1058.6,102.4c6.8,0,12.1,5.5,12,12.5c-0.1,6.7-5.4,12.3-11.8,12.3c-6.6,0-12.1-5.7-12-12.7
			C1046.8,107.9,1052,102.5,1058.6,102.4z M1058.3,124.5c4.6,0.1,8.8-4.2,9.1-9.4c0.3-5.1-3.6-9.6-8.5-9.7c-4.8-0.2-8.9,4-9.1,9.2
			C1049.7,119.6,1053.7,124.3,1058.3,124.5z"/>
		<path class="st0" d="M1354.7,114.1c0.3-6.9,6-12.1,12.8-11.7c6.4,0.4,11.3,6.2,11,13c-0.3,6.7-6,12.1-12.3,11.8
			C1359.6,127,1354.4,121.1,1354.7,114.1z M1375.4,114.5c-0.1-5.2-4.1-9.3-9-9.2c-4.7,0.1-8.7,4.6-8.5,9.7c0.2,5.3,4.3,9.6,9,9.4
			C1371.5,124.3,1375.5,119.6,1375.4,114.5z"/>
		<path class="st0" d="M1209.3,123.5c2.7-6.8,5-12.5,7.2-18.2c0.5-1.4,1-3.4,2.9-2.4c1.6,0.8,0.1,2.3-0.4,3.4
			c-3.4,8.7-6.9,17.3-10.4,25.9c-0.7,1.7-1.3,3.5-3.2,4.2c-1.3,0.5-3.1,1.5-4-0.2c-1-1.9,1.3-1.7,2.1-2.5c2.8-2.6,4.5-5.7,2.8-9.7
			c-2.4-5.7-5-11.2-7.3-16.9c-0.5-1.3-2.7-3.2-0.5-4.2c2.1-1,2.5,1.6,3.1,3C1204.1,111.4,1206.4,116.9,1209.3,123.5z"/>
		<path class="st0" d="M1110.5,112.4c1,0.1,1.7,0.3,2.4,0.1c1.6-0.4,3.8,2.3,4.6-0.4c0.7-2.5-0.6-4.9-2.9-6.4c-3.1-2-6-0.8-9,0.4
			c-0.8,0.3-2,2.1-2.8,0.2c-0.6-1.5,1.1-1.8,2-2.3c8.3-4.6,15.7-0.1,16,9.4c0.1,3.8-0.9,7.6,0.9,11.3c0.2,0.5,0,1.4-0.4,1.8
			c-0.7,0.6-1.9,0.5-2.2-0.2c-1.4-3.2-3-1.5-4.8-0.5c-1.1,0.7-2.4,1-3.7,1.3c-4.5,0.9-8.9-1.6-9.8-5.5c-0.9-4.2,1.7-7.8,6.7-8.8
			C1108.6,112.5,1109.8,112.5,1110.5,112.4z M1111.6,114.5c-5.1,0-8.3,2.2-7.9,5.4c0.4,3.7,3,4.9,6.4,4.8c4.3-0.1,7.6-2.7,7.7-6.2
			C1117.8,113.5,1113.6,115.3,1111.6,114.5z"/>
		<path class="st0" d="M1392.3,102.4c0.7,0.1,1.9-0.1,3,0.3c1.7,0.7,5,1,4.3,3.1c-0.8,2.5-2.8-0.5-4.4-0.6c-1.8-0.1-3.6-0.6-5.4-0.2
			c-2,0.5-3.4,1.5-3.6,3.6c-0.2,2.3,1.2,3.3,3.1,3.8c2.5,0.7,5.1,1.4,7.7,2.2c2.6,0.8,4.3,2.7,4.3,5.5c0,2.7-1.4,4.7-3.9,5.9
			c-4.8,2.3-9.4,1.4-13.8-1c-0.9-0.5-1.8-1.2-1-2.3c0.8-1.3,1.7-0.4,2.5,0.1c2.5,1.7,5.2,2.1,8.1,1.9c2.4-0.2,4.3-1.1,4.8-3.6
			c0.5-2.8-1.6-3.7-3.7-4.4c-1.9-0.6-3.9-1-5.8-1.5c-3.2-1-6.1-2.3-5.4-6.5c0.6-3.8,3.2-5.6,6.9-6.1
			C1390.5,102.4,1391.1,102.5,1392.3,102.4z"/>
		<path class="st0" d="M1024.1,102.4c0.8,0.1,1.8-0.1,2.7,0.2c1.9,0.7,5.3,1,4.7,3.3c-0.7,2.4-2.8-0.5-4.4-0.7
			c-1.8-0.1-3.6-0.6-5.4-0.2c-2,0.5-3.3,1.5-3.6,3.6c-0.2,2.3,1.3,3.2,3.2,3.8c2.5,0.7,5.1,1.4,7.7,2.2c2.6,0.9,4.3,2.7,4.3,5.5
			c0,2.7-1.5,4.7-3.9,5.9c-4.4,2.2-8.7,1.4-12.9-0.6c-1.1-0.5-2.9-1-1.8-2.8c1-1.6,2-0.1,2.9,0.4c2.6,1.6,5.3,1.8,8.2,1.5
			c2.2-0.2,3.8-1.3,4.2-3.5c0.5-2.5-1.3-3.6-3.3-4.2c-2-0.7-4.2-1.1-6.2-1.7c-3-0.9-5.8-2.1-5.4-6c0.4-3.9,2.9-5.8,6.5-6.5
			C1022.2,102.4,1023,102.5,1024.1,102.4z"/>
		<path class="st0" d="M1183.1,106.1c-1.4,1.2-2.4,0-3.6-0.4c-2.2-0.8-4.5-1.1-6.9-0.5c-2,0.5-3.2,1.6-3.3,3.8
			c-0.1,2.1,1.2,3,2.9,3.5c2.6,0.7,5.2,1.3,7.7,2.2c2.5,0.8,4.5,2.4,4.5,5.3s-1.5,5.1-4.2,6.2c-4.6,2-9.1,1.2-13.4-1.2
			c-0.8-0.5-1.9-1.1-1.2-2.3c0.7-1.3,1.7-0.6,2.5,0c2.6,1.8,5.5,2.1,8.6,1.9c2.2-0.2,3.9-1.3,4.3-3.5c0.5-2.5-1.3-3.6-3.3-4.3
			c-2.7-0.9-5.5-1.4-8.1-2.4c-4.1-1.7-4.8-6.1-1.8-9.4C1171.5,101.1,1179.7,101.7,1183.1,106.1z"/>
		<path class="st0" d="M1310.8,114.1c0.4,2.9-0.7,6.5,0.7,9.9c0.3,0.8,0.5,1.8-0.3,2.3c-0.9,0.5-2.1,0.3-2.5-0.8
			c-1.1-3-2.3-1.5-3.9-0.4c-3.2,2.1-6.7,3.2-10.3,1.2s-3.8-5.6-3.8-9.1c0-4,0-8,0-12c0-1-0.1-2.2,1.3-2.3c1.7-0.2,1.7,1.2,1.7,2.4
			c0,3.8-0.1,7.7,0.1,11.5c0.1,3.9,0.9,7.6,5.8,7.7c4.1,0.1,8-3.7,8.2-7.9c0.2-3.7,0-7.3,0.1-11c0-1.1-0.4-2.6,1.3-2.7
			c2.1-0.1,1.7,1.6,1.7,2.8C1310.9,108.3,1310.8,111,1310.8,114.1z"/>
		<path class="st0" d="M841.9,102.4c2.2-0.1,4.3,0.4,6.2,1.5c0.8,0.5,2,1,1.4,2.2c-0.7,1.3-1.7,0.5-2.5,0c-2.6-1.4-5.3-1.9-8.2-0.9
			c-1.7,0.6-2.9,1.6-3,3.5c-0.1,2,1.2,3,2.9,3.6c2.5,0.8,5.2,1.3,7.7,2.2c2.7,0.9,4.7,2.5,4.6,5.7c-0.1,3-1.8,4.9-4.5,6.1
			c-4.5,1.9-8.8,0.9-12.9-1.3c-0.8-0.4-2-1.1-1.2-2.3c0.7-1.1,1.8-0.5,2.6,0.1c2.4,1.5,4.9,1.9,7.7,1.7c2.5-0.2,4.7-1,5.1-3.8
			c0.4-2.9-1.9-3.6-4-4.2c-1.9-0.6-3.9-0.9-5.8-1.5c-3-0.9-5.6-2.3-5.2-6.2c0.4-3.7,2.8-5.5,6.2-6.3
			C839.8,102.4,840.9,102.5,841.9,102.4z"/>
		<path class="st0" d="M1079.1,106.2c2.1-1.2,3.7-2.4,5.6-3.1c6.1-2.4,10.7,0.5,11,7.1c0.2,4.5,0.1,9,0,13.5c0,1.1,0.4,2.6-1.3,2.7
			c-2.2,0.2-1.6-1.7-1.7-2.9c-0.1-3.3,0-6.7-0.1-10c-0.1-3.7,0-7.7-5.1-8.2c-4.3-0.4-8.6,3.7-8.8,8.4c-0.2,3.2,0,6.3-0.1,9.5
			c0,1.2,0.7,3.1-1.3,3.2c-2.5,0.1-1.6-2.1-1.6-3.4c-0.1-5.5-0.1-11,0-16.5c0-1.3-1-3.4,1.2-3.7
			C1079.3,102.5,1078.1,105.2,1079.1,106.2z"/>
		<path class="st0" d="M975.8,116.2c0-2.8,1.2-6.8-0.2-8.3c-4.4-4.5,0.8-7.2,1.4-10.5c0.7-4,4.2-5.3,8.2-4.5c1,0.2,2.6,0.4,2.5,1.9
			c-0.2,2-1.8,0.8-2.7,0.7c-2.2-0.3-4.1,0.3-4.9,2.5c-0.8,2.2-1.6,4.8,2.5,4.7c1.1,0,3.1-0.7,3,1.4c-0.1,1.7-1.7,1.3-2.8,1.2
			c-3.2-0.3-3.4,1.6-3.4,4c0.1,4.8,0,9.7,0,14.5c0,1.3,0.2,2.9-1.8,2.8s-1.6-1.7-1.7-3C975.8,121.2,975.9,118.7,975.8,116.2z"/>
		<path class="st0" d="M699,102.4c2.4-0.1,4.9,0.7,6.9,2.7c0.8,0.8,2.3,1.7,1.5,2.8c-1,1.3-2.2,0.4-3.4-0.5
			c-3.5-2.9-7.3-3.1-10.9-0.2c-3.4,2.7-4.3,7.6-2.4,11.8c2.6,5.6,8.1,7,13.1,3.3c1.2-0.9,2.3-2.7,3.6-0.9c1.2,1.6-0.8,2.6-1.8,3.5
			c-3.6,3.1-9.3,3.2-13.5,0.5c-4.6-3-6.7-9-5.1-14.5C688.5,105.7,693.1,102.4,699,102.4z"/>
		<path class="st0" d="M729.8,127.1c-3.2-0.4-5.3-1.6-5.2-5c0.1-4.2,0.1-8.3,0-12.5c0-1.8,0.8-4.1-2.4-4.5c-1.2-0.2-1.4-1.9-0.3-2.1
			c4-0.7,2.3-3.7,2.7-5.9c0.2-0.9-0.1-2.2,1.3-2.3c1.7-0.2,1.7,1.2,1.7,2.4c0.1,2.6-1,6.1,3.8,5.5c0.7-0.1,1.3,0.5,1.3,1.2
			c0,1-0.8,1.4-1.7,1.3c-3.7-0.4-3.4,2-3.4,4.4c0.1,3.3,0.1,6.7,0,10c0,2.8,0.9,4.5,4.1,4.1c1.1-0.1,2.6-0.7,2.8,0.9
			c0.2,1.5-1.4,1.6-2.5,1.9C731.2,126.8,730.4,127,729.8,127.1z"/>
		<path class="st0" d="M1127.7,108.9c0-4-0.1-8,0-12c0-1.3-0.9-3.5,1.6-3.4c2.3,0.1,1.4,2.3,1.4,3.6c0.1,7.2,0,14.3,0,21.5
			c0,2.9-0.3,6,4.3,5.4c0.7-0.1,1.3,0.2,1.4,1c0.1,1.1-0.7,1.3-1.5,1.6c-3.8,1.5-7-0.5-7.2-4.8
			C1127.6,117.6,1127.7,113.2,1127.7,108.9L1127.7,108.9z"/>
		<path class="st0" d="M936.7,106.2c1.9-1.3,3.6-3,5.9-3.5c0.8-0.2,1.7-0.2,2,0.8c0.2,0.7,0.1,1.5-0.6,1.7
			c-10.1,2.2-8.1,10.2-8.2,17.2c0,0.8,0,1.7-0.1,2.5c-0.1,1-0.5,1.6-1.6,1.4c-0.7-0.1-1.2-0.6-1.2-1.3c0-7,0-14,0-21
			c0-0.7,0.4-1.3,1.2-1.4C936.8,102.5,935.1,105.6,936.7,106.2z"/>
		<path class="st0" d="M1321.4,115.4c0,3,0,6,0,8.9c0,1.2-0.2,2.4-1.8,2.3c-1.3-0.1-1.5-1.1-1.5-2.2c0-6.5,0-12.9,0-19.4
			c0-1.2,0.2-2.5,1.8-2.3s1.4,1.6,1.5,2.7C1321.4,108.8,1321.4,112.1,1321.4,115.4z"/>
		<path class="st0" d="M1041.3,114.7c0,3.3,0,6.6,0,9.9c0,1.1-0.4,2-1.6,2c-1.3,0-1.6-0.9-1.6-2c0-6.6,0-13.2,0-19.9
			c0-1.1,0.3-2,1.6-2c1.3,0,1.6,1,1.6,2C1041.4,108.1,1041.3,111.4,1041.3,114.7z"/>
		<path class="st0" d="M716.6,114.7c0,3,0,6,0,9c0,1.1,0.2,2.6-1.4,2.7c-1.8,0.2-1.6-1.4-1.6-2.5c0-6.1,0-12.3,0-18.4
			c0-1.1-0.3-2.7,1.3-2.7c2.1-0.1,1.6,1.7,1.6,2.9C716.6,108.8,716.6,111.8,716.6,114.7z"/>
		<path class="st0" d="M1321.3,95.5c0,1.1-0.1,2-1.4,2.2c-1.6,0.1-1.9-0.9-1.8-2.2c0-1.1,0.2-2,1.4-2.2
			C1321.1,93.2,1321.4,94.2,1321.3,95.5z"/>
		<path class="st0" d="M1041.3,95.7c0,1.1-0.3,2-1.6,2c-1.7,0-1.7-1.2-1.7-2.4c0-1.1,0.3-2,1.6-2
			C1041.4,93.3,1041.3,94.5,1041.3,95.7z"/>
		<path class="st0" d="M851.5,8.5c8.5,5.3,15.9,10,23.3,14.6c1.3,0.8,2.6,1.5,3.8,2.4c2.1,1.4,2.9,3.3,1.5,5.5
			c-1.4,2.1-3.4,1.9-5.3,0.7c-4.4-2.7-8.8-5.4-13.1-8.2c-5.3-3.3-10.7-6.7-16.5-10.4c-1.1,5.4-0.7,10.5-0.8,15.5
			c0,2.5,0.2,5.5-3.3,5.5c-3.5,0.1-3.5-2.8-3.5-5.4c-0.1-13.5-0.2-27-0.4-40.4c0-2,0.7-4-2.2-5.4c-2.2-1-2.2-4.3-0.1-5.4
			c3.1-1.7,0.9-10.7,8.2-6.1c1.9,1.2,3.1,0.5,4.5,0.1c7.5-1.8,14.9-1.8,22.1,1c7,2.7,11.8,7.5,12.1,15.5c0.3,8.1-3.2,13.7-11,17.2
			c-2.9,1.3-6,2.1-9.1,2.5C858.7,8.1,855.8,8.2,851.5,8.5z M856.2,1.9c2.3-0.1,5.8-0.1,9.1-1.3c4.8-1.8,8.4-4.6,8.7-10.3
			c0.3-5.2-2.4-9.3-7.6-11.7c-4.7-2.1-9.7-1.9-14.7-1.1c-7.7,1.2-8.3,2-7.9,9.9c0.1,1.7,0.3,3.3,0.4,4.9c0.4,9.6-1.5,8.7,9.8,9.6
			C854.4,1.9,854.7,1.9,856.2,1.9z"/>
		<path class="st0" d="M1004.9,3.3c0,17.9-12.7,29.9-31.6,29.8C954.5,33,943,21.3,943.1,2.3c0.1-19.1,12.4-32.5,29.7-32.6
			C991.2-30.4,1004.9-16,1004.9,3.3z M997.9,2.8c0-15.4-10.1-26.4-24.4-26.4c-14-0.1-23.5,10.4-23.6,25.9
			c-0.1,14.6,9.3,24.2,23.8,24.3C988.4,26.5,997.9,17.3,997.9,2.8z"/>
		<path class="st0" d="M755.2-23.9c1.1-1.2,0.6-2.4,0.7-3.4c0.3-2,1.7-2.8,3.5-2.9c1.7,0,3,1,3.1,2.6c0.2,4,0.4,8-0.1,12
			c-0.4,3.2-2.9,3.9-5.6,2c-1.1-0.8-1.8-2-2.7-2.9c-10.6-11.4-26.1-9.8-33.9,3.7c-4.3,7.5-5.5,15.7-3.4,24.1
			c3.8,15.2,24.9,21.9,36.9,11.8c3.2-2.7,4.9-6.2,5-10.5c0.1-2.8,1.2-4.5,4.2-4.2c3.2,0.3,2.9,2.7,2.8,4.9
			c-0.3,8.5-6.9,16.6-16.4,19.2c-12.6,3.5-24.5,2.1-33.4-8.3c-9.3-10.9-9-23.6-3.9-36.2c5.2-12.8,16.2-19.4,29-18.5
			C746.7-30.2,751.2-27.6,755.2-23.9z"/>
		<path class="st0" d="M815.7,23.7c-5.7,6.8-11.7,9.8-19.2,9.8c-11.9-0.1-20.2-7.1-20.6-19.1c-0.5-13.1,0-26.3,0.1-39.5
			c0-2.2,0.3-4.5,3.4-4.5c3.3,0,3.6,2.2,3.5,4.8c-0.1,11-0.3,22-0.3,33c0,12.8,4.6,18.8,14.7,19.1c9.1,0.3,18.1-9,18.3-19.6
			c0.2-11-0.2-22-0.4-33c0-1.8-0.2-3.9,2-4.7c2.8-0.9,4.7,0.1,4.7,3.2c0.3,19,0.5,38,0.7,57c0,2.5-1.3,3.8-3.6,3.7
			c-2.1-0.1-3.3-1.3-3.2-3.6C815.8,28.5,815.7,26.8,815.7,23.7z"/>
		<path class="st0" d="M913.2,33.6c-11.3-0.1-19.3-6.9-20.3-17.3c-0.2-2.5-0.5-5.3,3.1-5.6c3.2-0.3,3.5,1.9,3.9,4.5
			c1.5,10.2,12.1,15.4,21.2,10.4c6.1-3.4,6.7-11.5,1-15.8c-3-2.3-6.5-3.2-10-4.4c-3.3-1.1-6.7-2-9.9-3.5c-11.3-5.4-13.1-19-3.6-27.1
			c6.3-5.4,13.8-6.4,21.5-3.6c6.5,2.4,10.9,7,12.2,14c0.8,4.1-1.3,6.3-4.7,5.4c-2.5-0.7-1.9-2.8-2.2-4.5c-1.1-5-4.2-8.4-9.2-9.4
			c-5.4-1-10.7-0.6-14.4,4.4c-4.2,5.7-2.5,12.4,4.1,15.2c4.4,1.9,9.1,3.1,13.6,4.8c10.3,4,14.7,10.6,13,19.6
			C931.1,28.6,923.4,33.7,913.2,33.6z"/>
		<path class="st0" d="M1035.9,33.6c-11.7-0.1-19.9-7.4-20.4-18.1c-0.1-2.3,0-4.5,2.9-4.8c2.7-0.2,4,1.3,4,3.9
			c0.1,9.8,10.5,14.5,18.4,12.1c4.2-1.3,7.2-3.6,7.7-8.1c0.6-4.4-1.5-7.9-5.4-9.9c-3.4-1.7-7.1-2.8-10.7-4.1c-2.8-1-5.7-1.8-8.4-3.1
			c-10.2-5.4-12-17.8-3.8-26c8.7-8.7,24.5-7.4,31.7,2.6c1.4,1.9,2.6,4,2.7,6.3c0.1,2.3,1.4,5.4-2.3,6.1c-3.8,0.7-4.1-1.9-4.6-4.8
			c-1-6.7-7.2-10.3-15.3-9.3c-6.2,0.7-10.2,5.4-10.2,11.5c0,4.6,2.8,7,6.6,8.4c4.5,1.8,9.1,3.1,13.6,4.8
			c9.9,3.9,14.3,10.5,12.7,18.8C1053.5,28.7,1046.4,33.7,1035.9,33.6z"/>
		<path class="st1" d="M1331.4,114.6c0-6.4,2.7-9.4,8.3-9.3c4.7,0.1,8.2,4,8.2,9.3c0.1,5.5-3.7,9.9-8.4,9.8
			C1334.6,124.4,1331.4,120.4,1331.4,114.6z"/>
		<path class="st1" d="M1280.7,114.9c0,5.6-3.6,9.7-8.4,9.5c-4.4-0.2-8.4-4.7-8.4-9.5c0-5.2,4-9.6,8.8-9.6
			C1278,105.3,1280.7,108.6,1280.7,114.9z"/>
		<path class="st1" d="M637.7,114.5c0-5.9,2.8-9.1,8-9.1c4.9,0,8.9,4.2,8.8,9.5s-4.1,9.8-8.7,9.6
			C641.1,124.3,637.7,120.1,637.7,114.5z"/>
		<path class="st1" d="M907.7,114.6c0-5.9,2.7-9.1,7.9-9.2c4.9-0.1,8.9,4.1,8.9,9.4s-4,9.8-8.6,9.7
			C911.2,124.4,907.7,120.1,907.7,114.6z"/>
		<path class="st1" d="M1150.5,113.5c-1.2,0-2.4,0.2-3.5,0c-1.7-0.3-4.2,1.2-4.9-0.9c-0.6-2,1-4.1,2.7-5.6c4-3.6,10.1-2.6,12.9,2
			c1.6,2.7,2.1,4.8-2.3,4.5C1153.9,113.4,1152.2,113.5,1150.5,113.5z"/>
		<path class="st1" d="M999,113.5c-1.2,0-2.3,0.1-3.5,0c-1.5-0.2-3.8,1-4.5-0.8c-0.8-2,0.8-3.8,2.2-5.2c3-3,6.5-3.2,10.1-1.5
			c2.5,1.2,4.7,3.5,4.2,6.2c-0.6,2.9-3.6,0.9-5.5,1.3C1001,113.7,1000,113.5,999,113.5z"/>
		<path class="st1" d="M1237.2,113.5c0.4-5.2,3.2-8,7.8-8.6c4-0.5,7,1.5,8.7,5.3c0.9,2,1.2,3.4-1.9,3.4
			C1247,113.4,1242.2,113.5,1237.2,113.5z"/>
		<path class="st1" d="M618.9,114.4c2.1,1,6-0.7,5.9,4c-0.1,3.7-3.3,6.3-8,6.2c-3.5,0-6.2-1.6-5.9-5.2
			C611.2,114.8,615.3,114.8,618.9,114.4z"/>
		<path class="st1" d="M876.7,114.5c2.1,0.8,6.1-1,6.1,3.9c0,3.6-3.1,6-7.6,6.2c-3.4,0.1-5.9-1.1-6.5-4.7
			C868.3,116.8,871.6,114.6,876.7,114.5z"/>
		<path class="st1" d="M747.8,114.4c2.3,0.9,6.4-0.7,6.3,4.2c-0.1,3.5-3.2,5.9-7.7,6.1c-3.5,0.1-6.2-1.4-6.3-4.8
			C740.1,115.1,744.1,114.9,747.8,114.4z"/>
		<path class="st1" d="M672.1,114.4c2.3,0.9,6.1-0.7,6.4,3.6c0.3,3.7-3.6,6.7-8.3,6.7c-3.3,0-5.7-1.4-5.7-4.8
			C664.6,114.9,668.5,114.9,672.1,114.4z"/>
		<path class="st1" d="M825,114.7c0,5.3-3.9,9.8-8.6,9.8c-4.7,0-8.7-4.5-8.6-9.8c0.1-5.1,3.8-9.2,8.4-9.4
			C821.3,105.2,825,109.1,825,114.7z"/>
		<path class="st1" d="M958.3,105.3c4.7,0.1,8.4,4.1,8.5,9.2c0,5.3-3.9,9.8-8.6,9.9c-4.7,0.1-8.7-4.4-8.7-9.7
			C949.6,109.3,953.3,105.3,958.3,105.3z"/>
		<path class="st1" d="M1058.3,124.5c-4.6-0.1-8.6-4.8-8.4-10c0.2-5.2,4.3-9.3,9.1-9.2c4.9,0.2,8.8,4.6,8.5,9.7
			C1067.1,120.3,1062.9,124.6,1058.3,124.5z"/>
		<path class="st1" d="M1375.4,114.5c0.1,5-4,9.7-8.6,9.9c-4.6,0.2-8.8-4.1-9-9.4c-0.2-5.1,3.8-9.6,8.5-9.7
			C1371.3,105.2,1375.4,109.3,1375.4,114.5z"/>
		<path class="st1" d="M1111.6,114.5c2,0.9,6.2-1,6.1,3.9c0,3.5-3.3,6.1-7.7,6.2c-3.4,0.1-6-1-6.4-4.8
			C1103.3,116.7,1106.5,114.5,1111.6,114.5z"/>
		<path class="st2" d="M856.2,1.9c-1.5,0-1.8,0-2.2,0c-11.3-0.8-9.4,0-9.8-9.6c-0.1-1.7-0.3-3.3-0.4-4.9c-0.4-7.8,0.2-8.7,7.9-9.9
			c4.9-0.8,9.9-1,14.7,1.1c5.2,2.4,7.9,6.5,7.6,11.7c-0.3,5.7-3.9,8.5-8.7,10.3C862,1.8,858.5,1.8,856.2,1.9z"/>
		<path class="st2" d="M997.9,2.8c0,14.5-9.5,23.7-24.2,23.7c-14.5,0-23.9-9.6-23.8-24.3c0.1-15.5,9.6-25.9,23.6-25.9
			C987.8-23.6,997.9-12.7,997.9,2.8z"/>
	</g>
	<rect x="633.2" y="92" class="st1" width="824.8" height="77.4"/>
</g>
<rect x="678.5" y="-30.6" class="st2" width="432.1" height="74.2"/>
<polygon class="st1" points="551.3,110.6 576.6,94.9 607.7,93.4 644.3,110.6 633.2,150.1 588.7,148.1 "/>
</svg>
