<?xml version="1.0" encoding="utf-8"?>
<!-- Generator: Adobe Illustrator 19.0.0, SVG Export Plug-In . SVG Version: 6.00 Build 0)  -->
<svg version="1.1" id="Capa_1" xmlns="http://www.w3.org/2000/svg" xmlns:xlink="http://www.w3.org/1999/xlink" x="0px" y="0px"
	 width="702.2px" height="134px" viewBox="76 -12 702.2 134" style="enable-background:new 76 -12 702.2 134;" xml:space="preserve"
	>
<style type="text/css">
	.st0{fill:#FCFBFC;}
	.st1{fill:#0A0A0A;}
</style>
<g id="Capa_2">
</g>
<g id="Capa_1_1_">
	<g>
		<path class="st0" d="M378.2,8.3c67.5,0,135,1.1,202.5-0.4c37.3-0.8,74.7-1.4,112-2.7c5.3-0.2,10.6-0.5,16-0.6
			c5.2-0.1,7.7,1.9,7.9,7.2c0.5,12.8-2.3,25.1-5.4,37.5c-1,4.1-2.1,8.2-3.3,12.3c-3.6,12.1-7.7,23.9-14.8,34.5
			c-2.4,3.6-5.9,5.3-10.3,5.4c-24.8,0.6-49.7-0.2-74.4,1.5c-35.6,2.4-71.1,1-106.6,1.4c-42.2,0.5-84.4,1.4-126.5-0.5
			c-47.6-2.1-95.1-1.5-142.6-0.7c-25.8,0.4-51.7,0.5-77.6,1.5c-10.1,0.4-12.7-1.6-12.1-11.9c0.6-10.5,3.1-20.7,5.1-31
			c3-15.1,8.5-29.3,14.8-43.1c2.9-6.3,7.1-10.4,15.8-10.4c66.5,0.5,133,0.3,199.5,0.3C378.2,8.4,378.2,8.4,378.2,8.3z M327.2,81.7
			c3.5,0.7,7.3-1.4,11.2-2.8c6.1-2,12.1-10.2,12.2-16.5c0.1-2.9-1.2-3.8-3.7-4s-3,1.2-3.1,3.3c-0.1,1.9-0.1,3.6-1.4,5.5
			c-5.7,8.7-15.3,9.2-22.9,7.1c-7-1.9-13.3-10.5-13.8-17.9c-0.5-7.8,2.1-14.6,6.7-20.6c3.8-5.1,13-6.7,19.4-4.7
			c4,1.3,5.8,4.6,8.7,6.9c1.8,1.4,3.3,1.9,5.4,1c2-0.9,1.7-2.5,1.7-4.1c0-2.2-0.2-4.4,0-6.5c0.3-2.3-1-3.4-2.8-3.8
			c-1.7-0.4-3.5-0.1-3.9,2.1c-0.5,2.8-1.1,2.3-3,0.7c-4.9-4.3-20.7-4.5-25.5-0.4c-10.6,9.1-14.8,20-12.4,34.5
			C302.2,74.6,315,81.6,327.2,81.7z M499,39.3c-10.3-1-21.5,9.6-21,22.9c0.4,11.4,8.9,19.9,22.5,19.3c13-0.6,19.9-7.1,20.2-20
			C520.9,49,511.1,38.7,499,39.3z M455.7,81.7c1.6-0.1,2.3-0.1,3-0.1c5.5,0.2,10.5-4.2,11.9-8c1.8-4.7-0.8-8.4-6.2-12.5
			c-4.2-3.1-9.6-2.5-13.7-5.9c-2.7-2.3-3.6-5.1-1.3-7.7c2.6-2.8,5.9-3.1,9.3-2.1c3.1,0.9,5.4,2.7,5.6,6.3c0.1,1.8,0.6,3.3,3,2.8
			c2-0.4,3.6-2.3,3.1-3.6c-1.1-3-1.7-6.6-4.6-8.7c-5-3.7-13.2-5.2-19.9,0.1c-5.2,4.2-7,12.5,0.3,16.9c4.3,2.6,8.9,4.1,13.3,6.2
			c2,0.9,4.5,1.9,4.6,4.8c0,2.2-1,3.8-3,4.7c-4.8,2.3-11.3,0.4-13.6-4.3c-1.4-2.8-3.5-3.9-5.9-2.3c-2.7,1.8-0.8,4.8,0.4,6.1
			C445.9,78.6,450.3,82.3,455.7,81.7z M543.4,81.6c0.2,0,0.9,0,1.5-0.1c4.8-0.2,10.8-4,11.9-7.5c1.6-5-0.4-8.6-5.7-12.8
			c-4.3-3.4-10.1-2.7-14.3-6.2c-2.8-2.4-3-4.5-1.2-7c2.4-3.3,5.9-3.7,9.6-2.7c3.1,0.9,5.3,2.7,5.5,6.3c0.1,2.3,1.3,3,3.6,2.9
			c2.4-0.2,2.5-1.7,2.4-3.4c0-1.5-0.3-2.7-1-4.1c-4.7-9.8-16.4-9.8-23.6-4.8c-6.1,4.3-5.6,13.5,0.6,17.3c3.9,2.4,8.3,3.7,12.4,5.5
			c2.8,1.2,5.9,2.4,5.4,6.2c-0.4,3.8-3.5,4-6.5,4.4c-4.4,0.6-7.5-1.4-9.9-4.5c-0.7-0.9-1.3-1.6-2.2-2.3c-1.4-1.1-2.5-1.5-4-0.4
			s-1.1,2.4-0.5,4C529.2,77.5,536,81.7,543.4,81.6z M384.3,75.8c0.7,3.2,2.4,4.9,5.1,4.1c3.4-0.9,0.9-3.5,1-5.4
			c0.3-6.1-2.1-12-1.7-18.1c0.3-3.8,0-7.7,0-11.5c0-2.3,0.1-5.1-2.9-5.2c-3.2-0.1-2.6,3-2.4,4.9c0.6,7.5-0.9,14.8-2,22.1
			c-0.8,5.5-5.7,9.4-10.2,8.9c-4.9-0.6-6.7-2.6-6.8-9.6c-0.1-7.2-0.2-14.3,0-21.5c0.1-3.1-2-3.7-3.9-3.8c-2-0.1-3,1.4-3,3.7
			c0.1,7.3-0.2,14.7,0.2,22c0.2,4.8,0.8,9.7,5.9,12.4C371.4,83,377.4,82.3,384.3,75.8z M403.7,65.3c0,5.1-0.1,8.9,0,12.8
			c0,1.6-0.3,3.4,2.1,3.8c2.1,0.3,2.6-0.9,3.4-2.5s1-3.1,1-4.7c0.2-4.6,0.4-9.3,0.5-13.9c0.1-4.3,1.6-8.2,4-11.7
			c3.6-5.4,8.3-5,11.2,1c0.9,1.8,2.3,2.3,3.9,2.1c2.3-0.3,2-2.3,1.9-3.9c-0.4-4.7-4.2-6.7-7.6-8.5c-3.4-1.7-9.9,1-12.4,4.2
			c-0.7,0.9-0.8,3-2.6,2.3c-1.5-0.5-1.1-2.3-1.1-3.5c0.1-2.2-0.4-4-3.1-4c-2.9,0-3.2,1.9-3.2,4.3C401.6,50.9,405,58.5,403.7,65.3z"
			/>
		<path class="st1" d="M327.2,81.7c-12.2-0.1-25-7.1-27.1-20.1c-2.4-14.6,1.8-25.4,12.4-34.5c4.8-4.1,20.6-3.9,25.5,0.4
			c1.9,1.7,2.5,2.1,3-0.7c0.4-2.2,2.2-2.5,3.9-2.1c1.8,0.4,3.1,1.5,2.8,3.8c-0.2,2.1-0.1,4.3,0,6.5c0,1.6,0.3,3.3-1.7,4.1
			c-2.1,0.9-3.6,0.4-5.4-1c-2.9-2.3-4.7-5.6-8.7-6.9c-6.4-2-15.6-0.3-19.4,4.7c-4.5,6.1-7.2,12.8-6.7,20.6c0.5,7.4,6.8,16,13.8,17.9
			c7.6,2.1,17.3,1.6,22.9-7.1c1.2-1.9,1.3-3.7,1.4-5.5c0.1-2.2,0.6-3.5,3.1-3.3s3.8,1.1,3.7,4c-0.2,6.3-6.2,14.5-12.2,16.5
			C334.4,80.2,330.7,82.4,327.2,81.7z"/>
		<path class="st1" d="M499,39.3c12.1-0.6,21.9,9.7,21.6,22.1c-0.3,13-7.2,19.5-20.2,20c-13.6,0.6-22.1-7.8-22.5-19.3
			C477.5,48.9,488.7,38.3,499,39.3z M513.8,61.6c1-9.6-7.4-16.5-14.3-16.5c-8.8,0-14.6,6.4-14.8,16c-0.2,7.7,5.3,15,14.5,14.6
			C508.5,75.3,513.8,70.7,513.8,61.6z"/>
		<path class="st1" d="M455.7,81.7c-5.4,0.6-9.8-3.1-13.7-7.3c-1.2-1.3-3.1-4.3-0.4-6.1c2.4-1.5,4.5-0.5,5.9,2.3
			c2.3,4.7,8.9,6.5,13.6,4.3c2-1,3.1-2.5,3-4.7c-0.1-2.9-2.6-3.8-4.6-4.8c-4.4-2.1-9-3.6-13.3-6.2c-7.3-4.5-5.5-12.7-0.3-16.9
			c6.7-5.4,14.9-3.9,19.9-0.1c2.9,2.1,3.4,5.7,4.6,8.7c0.5,1.2-1.1,3.2-3.1,3.6c-2.3,0.5-2.8-1-3-2.8c-0.2-3.6-2.5-5.4-5.6-6.3
			c-3.4-1-6.7-0.7-9.3,2.1c-2.4,2.5-1.5,5.4,1.3,7.7c4,3.4,9.5,2.7,13.7,5.9c5.4,4.1,8,7.9,6.2,12.5c-1.4,3.8-6.4,8.2-11.9,8
			C458,81.6,457.3,81.6,455.7,81.7z"/>
		<path class="st1" d="M543.4,81.6c-7.4,0-14.2-4.2-15.9-9.4c-0.5-1.6-1-2.8,0.5-4c1.5-1.1,2.6-0.7,4,0.4c0.9,0.7,1.5,1.5,2.2,2.3
			c2.4,3.2,5.5,5.2,9.9,4.5c3-0.4,6.1-0.6,6.5-4.4c0.4-3.8-2.6-5-5.4-6.2c-4.2-1.8-8.5-3.1-12.4-5.5c-6.2-3.8-6.7-13.1-0.6-17.3
			c7.2-5,18.9-5,23.6,4.8c0.7,1.4,1,2.7,1,4.1c0,1.7,0,3.3-2.4,3.4c-2.3,0.2-3.5-0.6-3.6-2.9c-0.2-3.6-2.4-5.4-5.5-6.3
			c-3.7-1-7.2-0.6-9.6,2.7c-1.8,2.4-1.6,4.6,1.2,7c4.3,3.6,10,2.8,14.3,6.2c5.4,4.3,7.3,7.8,5.7,12.8c-1.1,3.5-7.1,7.3-11.9,7.5
			C544.2,81.6,543.6,81.6,543.4,81.6z"/>
		<path class="st1" d="M384.3,75.8c-7,6.5-12.9,7.2-20.5,3.1c-5.1-2.8-5.7-7.7-5.9-12.4c-0.4-7.3,0-14.7-0.2-22c0-2.3,0.9-3.8,3-3.7
			c1.9,0.1,4,0.7,3.9,3.8c-0.2,7.2-0.2,14.3,0,21.5c0.1,6.9,1.9,9,6.8,9.6c4.6,0.6,9.5-3.4,10.2-8.9c1-7.3,2.5-14.6,2-22.1
			c-0.1-1.9-0.8-5,2.4-4.9c3,0.1,2.9,2.9,2.9,5.2c0,3.8,0.2,7.7,0,11.5c-0.4,6.2,1.9,12,1.7,18.1c-0.1,1.9,2.5,4.4-1,5.4
			C386.7,80.7,385,79,384.3,75.8z"/>
		<path class="st1" d="M403.7,65.3c1.3-6.8-2.1-14.4-2-22.3c0-2.4,0.3-4.3,3.2-4.3c2.6,0,3.2,1.8,3.1,4c0,1.3-0.5,3,1.1,3.5
			c1.8,0.6,1.9-1.4,2.6-2.3c2.5-3.2,9.1-5.9,12.4-4.2c3.4,1.8,7.2,3.8,7.6,8.5c0.1,1.6,0.4,3.6-1.9,3.9c-1.6,0.2-3.1-0.3-3.9-2.1
			c-2.9-5.9-7.6-6.3-11.2-1c-2.4,3.5-3.9,7.3-4,11.7c-0.1,4.6-0.3,9.3-0.5,13.9c-0.1,1.6-0.2,3.1-1,4.7c-0.8,1.7-1.3,2.9-3.4,2.5
			c-2.4-0.4-2-2.3-2.1-3.8C403.6,74.2,403.7,70.4,403.7,65.3z"/>
		<path class="st0" d="M513.8,61.6c0,9.1-5.3,13.7-14.6,14.1c-9.2,0.4-14.7-6.9-14.5-14.6c0.2-9.6,6-16,14.8-16
			C506.4,45.1,514.8,52,513.8,61.6z"/>
	</g>
</g>
<polygon class="st0" points="290.5,16.5 578,31.5 573,90 290.5,90 "/>
</svg>
