<?xml version="1.0" encoding="UTF-8" standalone="no"?>
<!-- Created with Inkscape (http://www.inkscape.org/) -->

<svg
   xmlns:dc="http://purl.org/dc/elements/1.1/"
   xmlns:cc="http://creativecommons.org/ns#"
   xmlns:rdf="http://www.w3.org/1999/02/22-rdf-syntax-ns#"
   xmlns:svg="http://www.w3.org/2000/svg"
   xmlns="http://www.w3.org/2000/svg"
   xmlns:sodipodi="http://sodipodi.sourceforge.net/DTD/sodipodi-0.dtd"
   xmlns:inkscape="http://www.inkscape.org/namespaces/inkscape"
   width="150"
   height="146.22148"
   viewBox="0 0 39.687499 38.687767"
   version="1.1"
   id="svg8099"
   inkscape:version="0.92.1 r15371"
   sodipodi:docname="desarrollo-personal.svg">
  <defs
     id="defs8093" />
  <sodipodi:namedview
     id="base"
     pagecolor="#ffffff"
     bordercolor="#666666"
     borderopacity="1.0"
     inkscape:pageopacity="0.0"
     inkscape:pageshadow="2"
     inkscape:zoom="3.959798"
     inkscape:cx="99.584067"
     inkscape:cy="62.300045"
     inkscape:document-units="px"
     inkscape:current-layer="layer1"
     showgrid="false"
     units="px"
     fit-margin-top="10"
     fit-margin-left="10"
     fit-margin-right="10"
     fit-margin-bottom="10"
     inkscape:window-width="1920"
     inkscape:window-height="1021"
     inkscape:window-x="0"
     inkscape:window-y="0"
     inkscape:window-maximized="1" />
  <metadata
     id="metadata8096">
    <rdf:RDF>
      <cc:Work
         rdf:about="">
        <dc:format>image/svg+xml</dc:format>
        <dc:type
           rdf:resource="https://purl.org/dc/dcmitype/StillImage" />
        <dc:title></dc:title>
      </cc:Work>
    </rdf:RDF>
  </metadata>
  <g
     inkscape:label="Capa 1"
     inkscape:groupmode="layer"
     id="layer1"
     transform="translate(-253.78533,-219.80229)">
    <g
       id="g10036">
      <circle
         style="fill:#8ed3f1;stroke-width:0.26458332"
         cx="274.5206"
         cy="238.7545"
         r="16.306381"
         id="circle1596" />
      <path
         style="fill:#ffffff;stroke-width:0.26458332"
         inkscape:connector-curvature="0"
         d="m 263.47106,255.49547 -0.0448,-4.55623 c 0,0 1.10967,-2.11804 4.61577,-3.48522 0.1477,-0.058 0.30004,-0.11367 0.45547,-0.16858 3.86645,-1.35326 2.9416,-1.33006 2.9416,-1.33006 l 0.24823,-1.95642 -1.78785,-2.89984 c 0,0 -4.97845,-1.40121 -0.72535,-5.60636 0,0 0.0479,-5.84763 4.78512,-3.72108 0,0 2.40184,-1.0826 3.96312,-0.38664 1.4244,0.6341 1.51642,0.7702 1.88528,3.72107 0,0 2.78539,2.62069 2.27193,3.81851 -1.01456,2.36782 -2.92149,1.35249 -3.33443,2.12655 -0.49568,0.92872 -0.5676,1.06328 -1.83657,1.78785 l 0.86996,2.5132 c 0,0 4.27165,2.90602 7.8806,4.58174 l 0.0456,5.56074 h -22.23366"
         id="path1598" />
      <path
         style="fill:#82b945;stroke-width:0.26458332"
         inkscape:connector-curvature="0"
         d="m 263.52828,255.49547 v -4.55623 c 0,0 -0.41293,-2.01287 4.66836,-3.49991 l 2.68564,-1.11509 c 0,0 2.76761,3.677 7.31224,0.0418 l 1.73526,0.82587 z"
         id="path1670" />
      <path
         inkscape:connector-curvature="0"
         d="m 263.42698,255.84268 v 0 c -0.32091,0 -0.57996,-0.25983 -0.57996,-0.57997 v -4.25465 c -0.0936,-0.46706 -0.0951,-1.98581 3.30813,-3.25091 l 4.70857,-2.17449 c 0.12063,-0.0565 0.21962,-0.14848 0.27761,-0.26988 0.14229,-0.29695 0.30159,-0.77639 0.17709,-1.27129 -0.0642,-0.25519 0.0224,-0.52429 0.24745,-0.66194 h 0.002 c 0.33406,-0.20569 0.77019,-0.0255 0.87072,0.35339 0.35262,1.32697 -0.48872,2.50701 -0.53125,2.56501 -0.0588,0.0804 -0.1361,0.14461 -0.22657,0.18482 l -5.08052,2.34539 c -2.29126,0.85294 -2.66244,1.69892 -2.61605,1.9541 0.0224,0.0626 0.0224,0.0905 0.0224,0.15698 v 4.32347 c 7.7e-4,0.32169 -0.25905,0.58151 -0.5792,0.58151 z"
         id="path1600"
         style="stroke-width:0.26458332" />
      <path
         inkscape:connector-curvature="0"
         d="m 285.65987,252.89335 v 0 c -0.32015,0 -0.57997,-0.25983 -0.57997,-0.57997 v -1.37337 c 0,-0.0665 0.0116,-0.133 0.034,-0.19564 0.0356,-0.21652 -0.33638,-1.06327 -2.58743,-1.8992 l -5.1215,-2.3624 c -0.10208,-0.0472 -0.18869,-0.12296 -0.24823,-0.21807 -0.041,-0.0657 -0.86145,-1.40198 -0.51501,-2.7591 0.0974,-0.38201 0.53666,-0.56373 0.87227,-0.35804 h 0.002 c 0.22039,0.13533 0.31164,0.39902 0.249,0.65034 -0.13687,0.55136 0.0479,1.1437 0.20415,1.5056 0.0557,0.13223 0.1593,0.23508 0.28921,0.29462 l 4.71398,2.17527 c 3.36768,1.24964 3.36227,2.76683 3.26793,3.23467 v 1.30455 c -7.8e-4,0.31936 -0.2606,0.57919 -0.58074,0.57919 z"
         id="path1602"
         style="stroke-width:0.26458332" />
      <path
         inkscape:connector-curvature="0"
         d="m 274.7874,248.50183 c -2.4436,0 -4.29254,-1.74223 -4.3196,-1.76929 l 0.80344,-0.83593 c 0.13765,0.13146 3.4048,3.17823 6.6998,0 l 0.80499,0.83438 c -1.37568,1.32697 -2.75755,1.76929 -3.98863,1.76929 z"
         id="path1604"
         style="stroke-width:0.26458332" />
      <path
         inkscape:connector-curvature="0"
         d="m 274.42163,245.21998 c -2.42581,0 -4.39848,-1.97343 -4.39848,-4.39847 v -2.34462 c 0,-1.6618 0.92486,-3.16585 2.41499,-3.92368 l 0.52584,1.03466 c -1.09807,0.55909 -1.78089,1.66567 -1.78089,2.88902 v 2.34462 c 0,1.7863 1.45301,3.23854 3.23854,3.23854 1.78553,0 3.23854,-1.45302 3.23854,-3.23854 v -2.34462 c 0,-0.6457 -0.19177,-1.27052 -0.55522,-1.80641 l 0.96043,-0.65034 c 0.49336,0.72844 0.75473,1.57829 0.75473,2.45675 v 2.34462 c 0,2.42504 -1.97344,4.39847 -4.39848,4.39847 z"
         id="path1606"
         style="stroke-width:0.26458332" />
      <path
         inkscape:connector-curvature="0"
         d="m 277.24105,236.82746 c -4.05591,0 -6.26984,-2.47608 -6.37192,-2.59285 -0.21033,-0.24126 -0.18559,-0.6078 0.0549,-0.81891 0.24049,-0.21111 0.60626,-0.18559 0.81737,0.0541 0.10362,0.11599 2.4289,2.67095 6.69205,2.11882 0.31705,-0.0425 0.60858,0.18249 0.65034,0.50032 0.041,0.31705 -0.18327,0.6078 -0.50032,0.64956 -0.46784,0.0619 -0.91557,0.0889 -1.34243,0.0889 z"
         id="path1608"
         style="stroke-width:0.26458332" />
      <path
         inkscape:connector-curvature="0"
         d="m 270.30618,241.79276 c -0.7354,0 -1.4507,-0.22812 -2.06159,-0.66271 -0.77407,-0.5529 -1.28676,-1.37337 -1.44374,-2.31214 -0.15698,-0.938 0.0611,-1.88142 0.61399,-2.65625 0.55291,-0.77407 1.37337,-1.28676 2.31137,-1.44374 l 0.191,1.1437 c -0.63178,0.10594 -1.18545,0.4516 -1.55895,0.97357 -0.37195,0.52275 -0.51965,1.15839 -0.41371,1.79094 0.10594,0.63255 0.4516,1.18623 0.97434,1.55896 0.52198,0.37272 1.15839,0.51965 1.79017,0.41371 l 0.19178,1.14369 c -0.19796,0.034 -0.39747,0.0503 -0.59466,0.0503 z"
         id="path1610"
         style="stroke-width:0.26458332" />
      <path
         inkscape:connector-curvature="0"
         d="m 279.01421,241.79199 c -0.1941,0 -0.39129,-0.0162 -0.58925,-0.0487 l 0.191,-1.1437 c 1.30532,0.21962 2.54645,-0.66658 2.76451,-1.97266 0.21807,-1.30609 -0.66657,-2.54645 -1.97266,-2.76452 l 0.191,-1.1437 c 1.9371,0.32401 3.24937,2.1629 2.92536,4.09999 -0.28998,1.73836 -1.80254,2.97331 -3.50996,2.97331 z"
         id="path1612"
         style="stroke-width:0.26458332" />
      <path
         inkscape:connector-curvature="0"
         d="m 269.1532,236.21192 c -0.33019,-0.56064 -0.50418,-1.20247 -0.50418,-1.85513 0,-2.01906 1.64247,-3.66153 3.66153,-3.66153 0.82278,0 1.60071,0.26679 2.24873,0.77097 l -0.71298,0.91558 c -0.44232,-0.34411 -0.97357,-0.52661 -1.53575,-0.52661 -1.37955,0 -2.5016,1.12204 -2.5016,2.50159 0,0.44619 0.11832,0.88542 0.34334,1.26743 z"
         id="path1614"
         style="stroke-width:0.26458332" />
      <path
         inkscape:connector-curvature="0"
         d="m 280.19579,234.47124 h -1.15993 c 0,-1.5605 -1.26975,-2.8287 -2.8287,-2.8287 -0.9844,0 -1.88374,0.49955 -2.40416,1.33702 l -0.9844,-0.61322 c 0.73385,-1.17926 2.00128,-1.88373 3.38933,-1.88373 2.19847,-7.8e-4 3.98786,1.78862 3.98786,3.98863 z"
         id="path1616"
         style="stroke-width:0.26458332" />
      <rect
         x="274.15408"
         y="249.37489"
         width="1.1599361"
         height="0.84907323"
         id="rect1618"
         style="stroke-width:0.26458332" />
      <path
         inkscape:connector-curvature="0"
         d="m 274.49277,242.60471 c -1.13055,0 -2.00823,-0.40675 -2.06236,-0.43381 -0.28999,-0.13765 -0.41294,-0.48331 -0.27529,-0.77252 0.13764,-0.28844 0.4833,-0.41139 0.77174,-0.27529 0.0387,0.0178 1.56901,0.70601 2.92691,0.008 0.28457,-0.14537 0.63409,-0.034 0.78102,0.25132 0.14615,0.28458 0.034,0.6341 -0.25132,0.78103 -0.64492,0.33174 -1.30222,0.44077 -1.8907,0.44077 z"
         id="path1620"
         style="stroke-width:0.26458332" />
      <g
         transform="matrix(0.77329073,0,0,0.77329073,-274.25598,-700.45117)"
         id="g1628"
         style="stroke-width:0.34215245">
        <path
           inkscape:connector-curvature="0"
           d="m 698.083,1227.713 c -0.415,0 -0.75,-0.336 -0.75,-0.75 v -21.916 c 0,-0.414 0.335,-0.75 0.75,-0.75 0.414,0 0.75,0.336 0.75,0.75 v 21.916 c 0,0.414 -0.335,0.75 -0.75,0.75 z"
           id="path1624"
           style="stroke-width:0.34215245" />
        <path
           inkscape:connector-curvature="0"
           d="m 700.525,1207.7 c -0.227,0 -0.45,-0.102 -0.598,-0.296 l -1.852,-2.433 -1.842,2.362 c -0.255,0.327 -0.727,0.385 -1.053,0.131 -0.327,-0.255 -0.385,-0.727 -0.131,-1.053 l 2.441,-3.131 c 0.144,-0.184 0.387,-0.282 0.596,-0.289 0.232,0 0.452,0.111 0.593,0.296 l 2.441,3.208 c 0.25,0.33 0.187,0.801 -0.144,1.051 -0.133,0.104 -0.293,0.154 -0.451,0.154 z"
           id="path1626"
           style="stroke-width:0.34215245" />
      </g>
      <g
         transform="matrix(0.77329073,0,0,0.77329073,-274.25598,-700.45117)"
         id="g1634"
         style="stroke-width:0.34215245">
        <path
           inkscape:connector-curvature="0"
           d="m 721.303,1227.713 c -0.414,0 -0.75,-0.336 -0.75,-0.75 v -21.916 c 0,-0.414 0.336,-0.75 0.75,-0.75 0.414,0 0.75,0.336 0.75,0.75 v 21.916 c 0,0.414 -0.336,0.75 -0.75,0.75 z"
           id="path1630"
           style="stroke-width:0.34215245" />
        <path
           inkscape:connector-curvature="0"
           d="m 723.745,1207.7 c -0.226,0 -0.45,-0.102 -0.598,-0.296 l -1.851,-2.433 -1.843,2.362 c -0.255,0.327 -0.727,0.385 -1.053,0.131 -0.327,-0.255 -0.385,-0.727 -0.13,-1.053 l 2.441,-3.131 c 0.143,-0.184 0.37,-0.282 0.596,-0.289 0.232,0 0.451,0.111 0.592,0.297 l 2.441,3.207 c 0.25,0.33 0.187,0.801 -0.143,1.051 -0.135,0.104 -0.294,0.154 -0.452,0.154 z"
           id="path1632"
           style="stroke-width:0.34215245" />
      </g>
      <path
         inkscape:connector-curvature="0"
         d="m 274.54304,231.76395 c -0.32014,0 -0.57997,-0.25982 -0.57997,-0.57997 v -5.68987 c 0,-0.32014 0.25983,-0.57997 0.57997,-0.57997 0.32014,0 0.57997,0.25983 0.57997,0.57997 v 5.68987 c 0,0.32015 -0.25983,0.57997 -0.57997,0.57997 z"
         id="path1638"
         style="stroke-width:0.26458332" />
      <path
         inkscape:connector-curvature="0"
         d="m 276.43141,227.54565 c -0.17553,0 -0.34798,-0.0789 -0.46242,-0.22889 l -1.43214,-1.88142 -1.4244,1.82651 c -0.19719,0.25287 -0.56218,0.29772 -0.81505,0.10053 -0.25209,-0.19642 -0.29772,-0.56141 -0.10053,-0.8135 l 1.88761,-2.42118 c 0.11058,-0.14228 0.27761,-0.22734 0.46088,-0.22348 0.1794,0 0.34875,0.0858 0.45856,0.2289 l 1.88683,2.48071 c 0.19409,0.25519 0.14538,0.61864 -0.11058,0.81273 -0.10285,0.0804 -0.22658,0.11909 -0.34876,0.11909 z"
         id="path1640"
         style="stroke-width:0.26458332" />
      <path
         style="fill:#e7829b;stroke-width:0.26458332"
         inkscape:connector-curvature="0"
         d="m 285.40004,223.52918 c 0.95424,1.37878 -0.52661,2.90138 -1.93091,1.98581 -0.0688,-0.0449 -0.12991,-0.1044 -0.17708,-0.17167 -0.95347,-1.37801 0.52738,-2.90139 1.93168,-1.98504 0.0681,0.0441 0.12991,0.10439 0.17631,0.1709 z"
         id="path1648" />
      <path
         inkscape:connector-curvature="0"
         d="m 284.37311,226.35014 c -1.054,0.0155 -1.92472,-0.83128 -1.93941,-1.88605 -0.0147,-1.05477 0.83206,-1.9255 1.88605,-1.94019 1.05477,-0.0155 1.9255,0.83129 1.94019,1.88606 0.0155,1.05476 -0.83129,1.92549 -1.88683,1.94018 z m -0.0379,-2.7127 c -0.44078,0.008 -0.7934,0.36963 -0.78798,0.81041 0.005,0.44077 0.36963,0.79494 0.8104,0.78875 0.44001,-0.008 0.79495,-0.36963 0.78953,-0.8104 -0.005,-0.44078 -0.37118,-0.79572 -0.81195,-0.78876 z"
         id="path1650"
         style="stroke-width:0.26458332" />
      <line
         id="line1654"
         y2="238.29744"
         x2="259.37802"
         y1="235.95284"
         x1="256.96692"
         style="fill:#ffffff;stroke-width:0.26458332" />
      <path
         style="stroke-width:0.26458332"
         id="path1656"
         d="m 259.38499,238.83415 c -0.13764,0 -0.27606,-0.0487 -0.382,-0.15234 l -2.41035,-2.34384 c -0.21111,-0.20725 -0.21575,-0.54672 -0.0108,-0.7586 0.20647,-0.21266 0.54749,-0.2173 0.75938,-0.0108 l 2.41034,2.34385 c 0.21111,0.20724 0.21575,0.54671 0.0108,0.75859 -0.10285,0.10672 -0.24049,0.16085 -0.37737,0.16317 z"
         inkscape:connector-curvature="0" />
      <line
         id="line1660"
         y2="238.33076"
         x2="257.00018"
         y1="235.9196"
         x1="259.34555"
         style="fill:#ffffff;stroke-width:0.26458332" />
      <path
         style="stroke-width:0.26458332"
         id="path1662"
         d="m 257.0079,238.86663 c -0.13765,0 -0.27607,-0.0479 -0.38278,-0.15157 -0.21034,-0.20724 -0.21498,-0.54594 -0.0108,-0.7586 l 2.34462,-2.41034 c 0.20724,-0.21189 0.54749,-0.2173 0.76014,-0.0108 0.21034,0.20724 0.21498,0.54672 0.0108,0.7586 l -2.34462,2.41035 c -0.10284,0.10671 -0.24049,0.16084 -0.37736,0.16239 z"
         inkscape:connector-curvature="0" />
    </g>
  </g>
</svg>
