<?xml version="1.0" encoding="UTF-8" standalone="no"?>
<!-- Created with Inkscape (http://www.inkscape.org/) -->

<svg
   xmlns:dc="http://purl.org/dc/elements/1.1/"
   xmlns:cc="http://creativecommons.org/ns#"
   xmlns:rdf="http://www.w3.org/1999/02/22-rdf-syntax-ns#"
   xmlns:svg="http://www.w3.org/2000/svg"
   xmlns="http://www.w3.org/2000/svg"
   xmlns:sodipodi="http://sodipodi.sourceforge.net/DTD/sodipodi-0.dtd"
   xmlns:inkscape="http://www.inkscape.org/namespaces/inkscape"
   width="150"
   height="115.06905"
   viewBox="0 0 39.687499 30.44535"
   version="1.1"
   id="svg11636"
   inkscape:version="0.92.1 r15371"
   sodipodi:docname="desarrollo.svg">
  <defs
     id="defs11630" />
  <sodipodi:namedview
     id="base"
     pagecolor="#ffffff"
     bordercolor="#666666"
     borderopacity="1.0"
     inkscape:pageopacity="0.0"
     inkscape:pageshadow="2"
     inkscape:zoom="5.6"
     inkscape:cx="90.411756"
     inkscape:cy="39.37549"
     inkscape:document-units="px"
     inkscape:current-layer="layer1"
     showgrid="false"
     fit-margin-top="10"
     fit-margin-left="10"
     fit-margin-right="10"
     fit-margin-bottom="10"
     units="px"
     inkscape:window-width="1920"
     inkscape:window-height="1021"
     inkscape:window-x="0"
     inkscape:window-y="0"
     inkscape:window-maximized="1" />
  <metadata
     id="metadata11633">
    <rdf:RDF>
      <cc:Work
         rdf:about="">
        <dc:format>image/svg+xml</dc:format>
        <dc:type
           rdf:resource="http://purl.org/dc/dcmitype/StillImage" />
        <dc:title />
      </cc:Work>
    </rdf:RDF>
  </metadata>
  <g
     inkscape:label="Capa 1"
     inkscape:groupmode="layer"
     id="layer1"
     transform="translate(61.02199,-125.85557)">
    <g
       id="g10658">
      <circle
         style="fill:#8ed3f1;stroke-width:0.26458332"
         cx="-45.799316"
         cy="141.07825"
         r="12.576842"
         id="circle1760" />
      <path
         style="fill:#ffffff;stroke-width:0.26458332"
         inkscape:connector-curvature="0"
         d="m -55.070466,132.81195 c 0.851615,1.2298 -0.470665,2.58935 -1.723932,1.77224 -0.06073,-0.04 -0.115941,-0.0932 -0.157349,-0.15321 -0.850924,-1.23049 0.470665,-2.58935 1.723933,-1.77224 0.06073,0.04 0.115941,0.0932 0.157348,0.15321 z"
         id="path1762" />
      <path
         id="path1768"
         d="m -56.003515,134.88248 c 1.665272,0 1.668033,-2.58797 0,-2.58797 -1.665272,0 -1.668033,2.58797 0,2.58797 z"
         inkscape:connector-curvature="0"
         style="fill:#82b945;stroke-width:0.26458332" />
      <path
         inkscape:connector-curvature="0"
         d="m -55.986952,135.32884 c -0.940641,0.0131 -1.717722,-0.74258 -1.730834,-1.68391 -0.01311,-0.94133 0.742575,-1.71772 1.683215,-1.73152 0.942021,-0.0131 1.719102,0.74257 1.732215,1.6839 0.01311,0.94133 -0.742575,1.71841 -1.684596,1.73153 z m -0.03382,-2.42165 c -0.393371,0.007 -0.708069,0.33057 -0.703238,0.72394 0.0048,0.39337 0.32988,0.70876 0.722561,0.70393 0.393372,-0.007 0.710139,-0.33057 0.704618,-0.72395 -0.0048,-0.39268 -0.33057,-0.70875 -0.723941,-0.70392 z"
         id="path1764"
         style="stroke-width:0.26458332" />
      <rect
         style="fill:#ffffff;stroke-width:0.26458332"
         x="-52.13192"
         y="132.96793"
         width="24.42491"
         height="17.486391"
         id="rect1776" />
      <polygon
         transform="matrix(0.6901252,0,0,0.6901252,-353.35845,-694.32365)"
         style="fill:#e7829b;stroke-width:0.38338453"
         points="441.534,1223.097 471.874,1223.097 471.874,1220.13 439.761,1220.13 439.761,1201.903 436.236,1201.903 436.236,1220.766 436.236,1223.097 "
         id="polygon1808" />
      <path
         inkscape:connector-curvature="0"
         d="m -27.706311,150.9719 h -24.424911 c -0.285712,0 -0.517594,-0.23188 -0.517594,-0.51759 v -17.48639 c 0,-0.28571 0.231882,-0.5176 0.517594,-0.5176 h 24.424911 c 0.285711,0 0.517594,0.23189 0.517594,0.5176 v 17.48639 c 0,0.28571 -0.231883,0.51759 -0.517594,0.51759 z m -23.908008,-1.03518 h 23.389724 v -16.45121 h -23.389724 z"
         id="path1778"
         style="stroke-width:0.26458332" />
      <path
         style="stroke-width:0.26458332"
         id="path1782"
         d="m -27.914729,136.04036 h -24.122636 c -0.285712,0 -0.517594,-0.23189 -0.517594,-0.5176 0,-0.28571 0.231882,-0.51759 0.517594,-0.51759 h 24.122636 c 0.285712,0 0.517594,0.23188 0.517594,0.51759 0,0.28571 -0.231882,0.5176 -0.517594,0.5176 z"
         inkscape:connector-curvature="0" />
      <circle
         style="stroke-width:0.26458332"
         id="circle1784"
         r="0.36369598"
         cy="134.20808"
         cx="-50.218197" />
      <circle
         style="stroke-width:0.26458332"
         id="circle1786"
         r="0.36369598"
         cy="134.20808"
         cx="-48.987015" />
      <circle
         style="stroke-width:0.26458332"
         id="circle1788"
         r="0.36369598"
         cy="134.20808"
         cx="-47.840015" />
      <path
         style="stroke-width:0.26458332"
         id="path1790"
         d="m -43.648203,145.08928 c -0.154589,0 -0.308486,-0.058 -0.427878,-0.1746 l -2.051052,-2.00413 c -0.116631,-0.11387 -0.182883,-0.26984 -0.184264,-0.43271 -6.9e-4,-0.16287 0.0628,-0.32021 0.177363,-0.43616 l 1.956504,-1.97099 c 0.238094,-0.24017 0.625254,-0.24155 0.865417,-0.007 0.240164,0.23878 0.241544,0.62594 0.0035,0.86541 l -1.522416,1.53484 1.610062,1.57349 c 0.242234,0.23602 0.246375,0.62318 0.01035,0.86472 -0.120082,0.12216 -0.278811,0.18427 -0.437539,0.18427 z"
         inkscape:connector-curvature="0" />
      <path
         style="stroke-width:0.26458332"
         id="path1794"
         d="m -36.768345,145.08928 c -0.158729,0 -0.317458,-0.0621 -0.43754,-0.18496 -0.236713,-0.24154 -0.231882,-0.6287 0.0097,-0.86472 l 1.610062,-1.57349 -1.521726,-1.53484 c -0.238093,-0.23947 -0.236713,-0.62663 0.0035,-0.86541 0.240163,-0.23741 0.627323,-0.23603 0.865417,0.007 l 1.956505,1.97099 c 0.11456,0.11595 0.178742,0.27329 0.177362,0.43616 -0.0014,0.16287 -0.06763,0.31884 -0.184264,0.43271 l -2.051052,2.00413 c -0.119391,0.11732 -0.273979,0.17529 -0.427877,0.17529 z"
         inkscape:connector-curvature="0" />
      <line
         id="line1798"
         y2="138.97821"
         x2="-37.796638"
         y1="145.75252"
         x1="-42.085762"
         style="fill:#ffffff;stroke-width:0.26458332" />
      <path
         style="stroke-width:0.26458332"
         id="path1800"
         d="m -42.08645,146.36394 c -0.1118,0 -0.224981,-0.0304 -0.326429,-0.0952 -0.285712,-0.18081 -0.370598,-0.559 -0.189785,-0.84402 l 4.289818,-6.77427 c 0.180813,-0.28502 0.559002,-0.36991 0.844024,-0.1891 0.285711,0.18082 0.370597,0.55901 0.189784,0.84472 l -4.289818,6.77358 c -0.115941,0.18426 -0.314697,0.28433 -0.517594,0.28433 z"
         inkscape:connector-curvature="0" />
      <rect
         style="fill:#ffffff;stroke-width:0.26458332"
         x="-55.799244"
         y="150.27077"
         width="31.301317"
         height="1.4596148"
         id="rect1812" />
      <path
         inkscape:connector-curvature="0"
         d="m -24.497919,152.24795 h -31.301319 c -0.285712,0 -0.517594,-0.23189 -0.517594,-0.5176 v -1.45961 c 0,-0.28571 0.231882,-0.5176 0.517594,-0.5176 h 31.301319 c 0.285712,0 0.517594,0.23189 0.517594,0.5176 v 1.45961 c 0,0.28571 -0.231882,0.5176 -0.517594,0.5176 z m -30.783725,-1.03519 h 30.266131 v -0.42443 h -30.266131 z"
         id="path1814"
         style="stroke-width:0.26458332" />
    </g>
  </g>
</svg>
