<?xml version="1.0" encoding="UTF-8" standalone="no"?>
<!-- Created with Inkscape (http://www.inkscape.org/) -->

<svg
   xmlns:dc="http://purl.org/dc/elements/1.1/"
   xmlns:cc="http://creativecommons.org/ns#"
   xmlns:rdf="http://www.w3.org/1999/02/22-rdf-syntax-ns#"
   xmlns:svg="http://www.w3.org/2000/svg"
   xmlns="http://www.w3.org/2000/svg"
   xmlns:sodipodi="http://sodipodi.sourceforge.net/DTD/sodipodi-0.dtd"
   xmlns:inkscape="http://www.inkscape.org/namespaces/inkscape"
   width="69.133858"
   height="67.705757"
   viewBox="0 0 18.291666 17.913815"
   version="1.1"
   id="svg8099"
   inkscape:version="0.92.1 r15371"
   sodipodi:docname="desarrollo-personal.svg">
  <defs
     id="defs8093" />
  <sodipodi:namedview
     id="base"
     pagecolor="#ffffff"
     bordercolor="#666666"
     borderopacity="1.0"
     inkscape:pageopacity="0.0"
     inkscape:pageshadow="2"
     inkscape:zoom="1.4"
     inkscape:cx="10.811348"
     inkscape:cy="17.307795"
     inkscape:document-units="mm"
     inkscape:current-layer="layer1"
     showgrid="false"
     units="px"
     fit-margin-top="10"
     fit-margin-left="10"
     fit-margin-right="10"
     fit-margin-bottom="10"
     inkscape:window-width="1366"
     inkscape:window-height="709"
     inkscape:window-x="0"
     inkscape:window-y="0"
     inkscape:window-maximized="1" />
  <metadata
     id="metadata8096">
    <rdf:RDF>
      <cc:Work
         rdf:about="">
        <dc:format>image/svg+xml</dc:format>
        <dc:type
           rdf:resource="http://purl.org/dc/dcmitype/StillImage" />
        <dc:title></dc:title>
      </cc:Work>
    </rdf:RDF>
  </metadata>
  <g
     inkscape:label="Capa 1"
     inkscape:groupmode="layer"
     id="layer1"
     transform="translate(-253.78533,-240.57624)">
    <g
       transform="matrix(0.29226736,0,0,0.29226736,55.856498,-105.59025)"
       id="g1672"
       style="stroke-width:0.90527838">
      <g
         id="g1668"
         style="stroke-width:0.90527838">
        <g
           id="g1646"
           style="stroke-width:0.90527838">
          <circle
             style="fill:#8ed3f1;stroke-width:0.90527838"
             cx="709.664"
             cy="1214.557"
             r="21.087"
             id="circle1596" />
          <path
             style="fill:#ffffff;stroke-width:0.90527838"
             inkscape:connector-curvature="0"
             d="m 695.375,1236.206 -0.058,-5.892 c 0,0 1.435,-2.739 5.969,-4.507 0.191,-0.075 0.388,-0.147 0.589,-0.218 5,-1.75 3.804,-1.72 3.804,-1.72 l 0.321,-2.53 -2.312,-3.75 c 0,0 -6.438,-1.812 -0.938,-7.25 0,0 0.062,-7.562 6.188,-4.812 0,0 3.106,-1.4 5.125,-0.5 1.842,0.82 1.961,0.996 2.438,4.812 0,0 3.602,3.389 2.938,4.938 -1.312,3.062 -3.778,1.749 -4.312,2.75 -0.641,1.201 -0.734,1.375 -2.375,2.312 l 1.125,3.25 c 0,0 5.524,3.758 10.191,5.925 l 0.059,7.191 h -28.752"
             id="path1598" />
          <g
             id="g1644"
             style="stroke-width:0.90527838">
            <g
               id="g1622"
               style="stroke-width:0.90527838">
              <path
                 inkscape:connector-curvature="0"
                 d="m 695.318,1236.655 v 0 c -0.415,0 -0.75,-0.336 -0.75,-0.75 v -5.502 c -0.121,-0.604 -0.123,-2.568 4.278,-4.204 l 6.089,-2.812 c 0.156,-0.073 0.284,-0.192 0.359,-0.349 0.184,-0.384 0.39,-1.004 0.229,-1.644 -0.083,-0.33 0.029,-0.678 0.32,-0.856 h 0.002 c 0.432,-0.266 0.996,-0.033 1.126,0.457 0.456,1.716 -0.632,3.242 -0.687,3.317 -0.076,0.104 -0.176,0.187 -0.293,0.239 l -6.57,3.033 c -2.963,1.103 -3.443,2.197 -3.383,2.527 0.029,0.081 0.029,0.117 0.029,0.203 v 5.591 c 10e-4,0.416 -0.335,0.752 -0.749,0.752 z"
                 id="path1600"
                 style="stroke-width:0.90527838" />
              <path
                 inkscape:connector-curvature="0"
                 d="m 724.069,1232.841 v 0 c -0.414,0 -0.75,-0.336 -0.75,-0.75 v -1.776 c 0,-0.086 0.015,-0.172 0.044,-0.253 0.046,-0.28 -0.435,-1.375 -3.346,-2.456 l -6.623,-3.055 c -0.132,-0.061 -0.244,-0.159 -0.321,-0.282 -0.053,-0.085 -1.114,-1.813 -0.666,-3.568 0.126,-0.494 0.694,-0.729 1.128,-0.463 h 0.003 c 0.285,0.175 0.403,0.516 0.322,0.841 -0.177,0.713 0.062,1.479 0.264,1.947 0.072,0.171 0.206,0.304 0.374,0.381 l 6.096,2.813 c 4.355,1.616 4.348,3.578 4.226,4.183 v 1.687 c -0.001,0.413 -0.337,0.749 -0.751,0.749 z"
                 id="path1602"
                 style="stroke-width:0.90527838" />
              <path
                 inkscape:connector-curvature="0"
                 d="m 710.009,1227.162 c -3.16,0 -5.551,-2.253 -5.586,-2.288 l 1.039,-1.081 c 0.178,0.17 4.403,4.11 8.664,0 l 1.041,1.079 c -1.779,1.716 -3.566,2.288 -5.158,2.288 z"
                 id="path1604"
                 style="stroke-width:0.90527838" />
              <path
                 inkscape:connector-curvature="0"
                 d="m 709.536,1222.918 c -3.137,0 -5.688,-2.552 -5.688,-5.688 v -3.032 c 0,-2.149 1.196,-4.094 3.123,-5.074 l 0.68,1.338 c -1.42,0.723 -2.303,2.154 -2.303,3.736 v 3.032 c 0,2.31 1.879,4.188 4.188,4.188 2.309,0 4.188,-1.879 4.188,-4.188 v -3.032 c 0,-0.835 -0.248,-1.643 -0.718,-2.336 l 1.242,-0.841 c 0.638,0.942 0.976,2.041 0.976,3.177 v 3.032 c 0,3.136 -2.552,5.688 -5.688,5.688 z"
                 id="path1606"
                 style="stroke-width:0.90527838" />
              <path
                 inkscape:connector-curvature="0"
                 d="m 713.182,1212.065 c -5.245,0 -8.108,-3.202 -8.24,-3.353 -0.272,-0.312 -0.24,-0.786 0.071,-1.059 0.311,-0.273 0.784,-0.24 1.057,0.07 0.134,0.15 3.141,3.454 8.654,2.74 0.41,-0.055 0.787,0.236 0.841,0.647 0.053,0.41 -0.237,0.786 -0.647,0.84 -0.605,0.08 -1.184,0.115 -1.736,0.115 z"
                 id="path1608"
                 style="stroke-width:0.90527838" />
              <path
                 inkscape:connector-curvature="0"
                 d="m 704.214,1218.486 c -0.951,0 -1.876,-0.295 -2.666,-0.857 -1.001,-0.715 -1.664,-1.776 -1.867,-2.99 -0.203,-1.213 0.079,-2.433 0.794,-3.435 0.715,-1.001 1.776,-1.664 2.989,-1.867 l 0.247,1.479 c -0.817,0.137 -1.533,0.584 -2.016,1.259 -0.481,0.676 -0.672,1.498 -0.535,2.316 0.137,0.818 0.584,1.534 1.26,2.016 0.675,0.482 1.498,0.672 2.315,0.535 l 0.248,1.479 c -0.256,0.044 -0.514,0.065 -0.769,0.065 z"
                 id="path1610"
                 style="stroke-width:0.90527838" />
              <path
                 inkscape:connector-curvature="0"
                 d="m 715.475,1218.485 c -0.251,0 -0.506,-0.021 -0.762,-0.063 l 0.247,-1.479 c 1.688,0.284 3.293,-0.862 3.575,-2.551 0.282,-1.689 -0.862,-3.293 -2.551,-3.575 l 0.247,-1.479 c 2.505,0.419 4.202,2.797 3.783,5.302 -0.375,2.248 -2.331,3.845 -4.539,3.845 z"
                 id="path1612"
                 style="stroke-width:0.90527838" />
              <path
                 inkscape:connector-curvature="0"
                 d="m 702.723,1211.269 c -0.427,-0.725 -0.652,-1.555 -0.652,-2.399 0,-2.611 2.124,-4.735 4.735,-4.735 1.064,0 2.07,0.345 2.908,0.997 l -0.922,1.184 c -0.572,-0.445 -1.259,-0.681 -1.986,-0.681 -1.784,0 -3.235,1.451 -3.235,3.235 0,0.577 0.153,1.145 0.444,1.639 z"
                 id="path1614"
                 style="stroke-width:0.90527838" />
              <path
                 inkscape:connector-curvature="0"
                 d="m 717.003,1209.018 h -1.5 c 0,-2.018 -1.642,-3.658 -3.658,-3.658 -1.273,0 -2.436,0.646 -3.109,1.729 l -1.273,-0.793 c 0.949,-1.525 2.588,-2.436 4.383,-2.436 2.843,-10e-4 5.157,2.313 5.157,5.158 z"
                 id="path1616"
                 style="stroke-width:0.90527838" />
              <rect
                 x="709.19"
                 y="1228.291"
                 width="1.5"
                 height="1.098"
                 id="rect1618"
                 style="stroke-width:0.90527838" />
              <path
                 inkscape:connector-curvature="0"
                 d="m 709.628,1219.536 c -1.462,0 -2.597,-0.526 -2.667,-0.561 -0.375,-0.178 -0.534,-0.625 -0.356,-0.999 0.178,-0.373 0.625,-0.532 0.998,-0.356 0.05,0.023 2.029,0.913 3.785,0.011 0.368,-0.188 0.82,-0.044 1.01,0.325 0.189,0.368 0.044,0.82 -0.325,1.01 -0.834,0.429 -1.684,0.57 -2.445,0.57 z"
                 id="path1620"
                 style="stroke-width:0.90527838" />
            </g>
            <g
               id="g1636"
               style="stroke-width:0.90527838">
              <g
                 id="g1628"
                 style="stroke-width:0.90527838">
                <path
                   inkscape:connector-curvature="0"
                   d="m 698.083,1227.713 c -0.415,0 -0.75,-0.336 -0.75,-0.75 v -21.916 c 0,-0.414 0.335,-0.75 0.75,-0.75 0.414,0 0.75,0.336 0.75,0.75 v 21.916 c 0,0.414 -0.335,0.75 -0.75,0.75 z"
                   id="path1624"
                   style="stroke-width:0.90527838" />
                <path
                   inkscape:connector-curvature="0"
                   d="m 700.525,1207.7 c -0.227,0 -0.45,-0.102 -0.598,-0.296 l -1.852,-2.433 -1.842,2.362 c -0.255,0.327 -0.727,0.385 -1.053,0.131 -0.327,-0.255 -0.385,-0.727 -0.131,-1.053 l 2.441,-3.131 c 0.144,-0.184 0.387,-0.282 0.596,-0.289 0.232,0 0.452,0.111 0.593,0.296 l 2.441,3.208 c 0.25,0.33 0.187,0.801 -0.144,1.051 -0.133,0.104 -0.293,0.154 -0.451,0.154 z"
                   id="path1626"
                   style="stroke-width:0.90527838" />
              </g>
              <g
                 id="g1634"
                 style="stroke-width:0.90527838">
                <path
                   inkscape:connector-curvature="0"
                   d="m 721.303,1227.713 c -0.414,0 -0.75,-0.336 -0.75,-0.75 v -21.916 c 0,-0.414 0.336,-0.75 0.75,-0.75 0.414,0 0.75,0.336 0.75,0.75 v 21.916 c 0,0.414 -0.336,0.75 -0.75,0.75 z"
                   id="path1630"
                   style="stroke-width:0.90527838" />
                <path
                   inkscape:connector-curvature="0"
                   d="m 723.745,1207.7 c -0.226,0 -0.45,-0.102 -0.598,-0.296 l -1.851,-2.433 -1.843,2.362 c -0.255,0.327 -0.727,0.385 -1.053,0.131 -0.327,-0.255 -0.385,-0.727 -0.13,-1.053 l 2.441,-3.131 c 0.143,-0.184 0.37,-0.282 0.596,-0.289 0.232,0 0.451,0.111 0.592,0.297 l 2.441,3.207 c 0.25,0.33 0.187,0.801 -0.143,1.051 -0.135,0.104 -0.294,0.154 -0.452,0.154 z"
                   id="path1632"
                   style="stroke-width:0.90527838" />
              </g>
            </g>
            <g
               id="g1642"
               style="stroke-width:0.90527838">
              <path
                 inkscape:connector-curvature="0"
                 d="m 709.693,1205.517 c -0.414,0 -0.75,-0.336 -0.75,-0.75 v -7.358 c 0,-0.414 0.336,-0.75 0.75,-0.75 0.414,0 0.75,0.336 0.75,0.75 v 7.358 c 0,0.414 -0.336,0.75 -0.75,0.75 z"
                 id="path1638"
                 style="stroke-width:0.90527838" />
              <path
                 inkscape:connector-curvature="0"
                 d="m 712.135,1200.062 c -0.227,0 -0.45,-0.102 -0.598,-0.296 l -1.852,-2.433 -1.842,2.362 c -0.255,0.327 -0.727,0.385 -1.054,0.13 -0.326,-0.254 -0.385,-0.726 -0.13,-1.052 l 2.441,-3.131 c 0.143,-0.184 0.359,-0.294 0.596,-0.289 0.232,0 0.451,0.111 0.593,0.296 l 2.44,3.208 c 0.251,0.33 0.188,0.8 -0.143,1.051 -0.133,0.104 -0.293,0.154 -0.451,0.154 z"
                 id="path1640"
                 style="stroke-width:0.90527838" />
            </g>
          </g>
        </g>
        <g
           id="g1652"
           style="stroke-width:0.90527838">
          <path
             style="fill:#e7829b;stroke-width:0.90527838"
             inkscape:connector-curvature="0"
             d="m 723.733,1194.868 c 1.234,1.783 -0.681,3.752 -2.497,2.568 -0.089,-0.058 -0.168,-0.135 -0.229,-0.222 -1.233,-1.782 0.682,-3.752 2.498,-2.567 0.088,0.057 0.168,0.135 0.228,0.221 z"
             id="path1648" />
          <path
             inkscape:connector-curvature="0"
             d="m 722.405,1198.516 c -1.363,0.02 -2.489,-1.075 -2.508,-2.439 -0.019,-1.364 1.076,-2.49 2.439,-2.509 1.364,-0.02 2.49,1.075 2.509,2.439 0.02,1.364 -1.075,2.49 -2.44,2.509 z m -0.049,-3.508 c -0.57,0.01 -1.026,0.478 -1.019,1.048 0.007,0.57 0.478,1.028 1.048,1.02 0.569,-0.01 1.028,-0.478 1.021,-1.048 -0.007,-0.57 -0.48,-1.029 -1.05,-1.02 z"
             id="path1650"
             style="stroke-width:0.90527838" />
        </g>
        <g
           id="g1666"
           style="stroke-width:0.90527838">
          <g
             id="g1658"
             style="stroke-width:0.90527838">
            <line
               style="fill:#ffffff;stroke-width:0.90527838"
               x1="686.96399"
               y1="1210.934"
               x2="690.08197"
               y2="1213.9659"
               id="line1654" />
            <path
               inkscape:connector-curvature="0"
               d="m 690.091,1214.66 c -0.178,0 -0.357,-0.063 -0.494,-0.197 l -3.117,-3.031 c -0.273,-0.268 -0.279,-0.707 -0.014,-0.981 0.267,-0.275 0.708,-0.281 0.982,-0.014 l 3.117,3.031 c 0.273,0.268 0.279,0.707 0.014,0.981 -0.133,0.138 -0.311,0.208 -0.488,0.211 z"
               id="path1656"
               style="stroke-width:0.90527838" />
          </g>
          <g
             id="g1664"
             style="stroke-width:0.90527838">
            <line
               style="fill:#ffffff;stroke-width:0.90527838"
               x1="690.03998"
               y1="1210.891"
               x2="687.00702"
               y2="1214.009"
               id="line1660" />
            <path
               inkscape:connector-curvature="0"
               d="m 687.017,1214.702 c -0.178,0 -0.357,-0.062 -0.495,-0.196 -0.272,-0.268 -0.278,-0.706 -0.014,-0.981 l 3.032,-3.117 c 0.268,-0.274 0.708,-0.281 0.983,-0.014 0.272,0.268 0.278,0.707 0.014,0.981 l -3.032,3.117 c -0.133,0.138 -0.311,0.208 -0.488,0.21 z"
               id="path1662"
               style="stroke-width:0.90527838" />
          </g>
        </g>
      </g>
      <path
         style="fill:#82b945;stroke-width:0.90527838"
         inkscape:connector-curvature="0"
         d="m 695.449,1236.206 v -5.892 c 0,0 -0.534,-2.603 6.037,-4.526 l 3.473,-1.442 c 0,0 3.579,4.755 9.456,0.054 l 2.244,1.068 z"
         id="path1670" />
    </g>
  </g>
</svg>
