<?xml version="1.0" encoding="UTF-8" standalone="no"?>
<!-- Created with Inkscape (http://www.inkscape.org/) -->

<svg
   xmlns:dc="http://purl.org/dc/elements/1.1/"
   xmlns:cc="http://creativecommons.org/ns#"
   xmlns:rdf="http://www.w3.org/1999/02/22-rdf-syntax-ns#"
   xmlns:svg="http://www.w3.org/2000/svg"
   xmlns="http://www.w3.org/2000/svg"
   xmlns:sodipodi="http://sodipodi.sourceforge.net/DTD/sodipodi-0.dtd"
   xmlns:inkscape="http://www.inkscape.org/namespaces/inkscape"
   width="150"
   height="129.21643"
   viewBox="0 0 39.687499 34.188516"
   version="1.1"
   id="svg12323"
   inkscape:version="0.92.1 r15371"
   sodipodi:docname="equipos.svg">
  <defs
     id="defs12317" />
  <sodipodi:namedview
     id="base"
     pagecolor="#ffffff"
     bordercolor="#666666"
     borderopacity="1.0"
     inkscape:pageopacity="0.0"
     inkscape:pageshadow="2"
     inkscape:zoom="2.8"
     inkscape:cx="-14.39791"
     inkscape:cy="31.509072"
     inkscape:document-units="px"
     inkscape:current-layer="layer1"
     showgrid="false"
     units="px"
     fit-margin-top="10"
     fit-margin-left="10"
     fit-margin-right="10"
     fit-margin-bottom="10"
     inkscape:window-width="1366"
     inkscape:window-height="709"
     inkscape:window-x="0"
     inkscape:window-y="0"
     inkscape:window-maximized="1" />
  <metadata
     id="metadata12320">
    <rdf:RDF>
      <cc:Work
         rdf:about="">
        <dc:format>image/svg+xml</dc:format>
        <dc:type
           rdf:resource="http://purl.org/dc/dcmitype/StillImage" />
        <dc:title></dc:title>
      </cc:Work>
    </rdf:RDF>
  </metadata>
  <g
     inkscape:label="Capa 1"
     inkscape:groupmode="layer"
     id="layer1"
     transform="translate(61.202458,-122.98158)">
    <g
       transform="matrix(0.67173842,0,0,0.67173842,-428.41584,-670.26841)"
       id="g1758"
       style="stroke-width:0.39387852">
      <g
         id="g1752"
         style="stroke-width:0.39387852">
        <g
           id="g1730"
           style="stroke-width:0.39387852">
          <circle
             style="fill:#8ed3f1;stroke-width:0.39387852"
             cx="577.60797"
             cy="1205.917"
             r="21.087"
             id="circle1674" />
          <g
             id="g1694"
             style="stroke-width:0.39387852">
            <path
               style="fill:#ffffff;stroke-width:0.39387852"
               inkscape:connector-curvature="0"
               d="m 576.925,1220.863 -0.045,-4.235 c 0,0 1.124,-2.148 4.681,-3.534 0.149,-0.059 0.303,-0.115 0.462,-0.171 3.921,-1.372 2.982,-1.349 2.982,-1.349 l 0.252,-1.984 -1.291,-2.761 c 0,0 0.137,-4.078 0.375,-6.479 0.091,-0.908 -2.267,-0.162 -1.083,-1.333 0,0 -0.501,-3.984 4.303,-1.827 0,0 2.437,-1.098 4.02,-0.393 1.443,0.644 -0.051,0.603 0.323,3.595 0,0 0.708,1.348 0.188,2.562 -1.029,2.401 0.294,3.402 -0.125,4.188 -0.502,0.942 -0.15,1.515 -1.438,2.25 l 0.904,1.57 8.109,4.473 0.03,11.71 h -16.575"
               id="path1676" />
            <g
               id="g1692"
               style="stroke-width:0.39387852">
              <path
                 inkscape:connector-curvature="0"
                 d="m 577.63,1218.609 h -1.5 v -1.899 c -0.099,-0.545 -0.047,-2.157 3.461,-3.46 l 4.897,-2.263 c 0.169,-0.305 0.483,-1.028 0.083,-1.679 l 1.277,-0.786 c 1.044,1.696 -0.185,3.421 -0.238,3.493 -0.075,0.104 -0.176,0.187 -0.292,0.24 l -5.152,2.378 c -2.572,0.958 -2.562,1.804 -2.561,1.812 0.028,0.081 0.024,0.096 0.024,0.182 v 1.982 z"
                 id="path1678"
                 style="stroke-width:0.39387852" />
              <path
                 inkscape:connector-curvature="0"
                 d="m 600.178,1222.684 h -1.5 v -6.056 c 0,-0.085 0.015,-0.17 0.043,-0.251 -0.021,0.039 -0.032,-0.795 -2.527,-1.721 l -5.205,-2.4 c -0.133,-0.062 -0.244,-0.159 -0.321,-0.283 -0.052,-0.082 -1.243,-2.022 -0.219,-3.688 l 1.278,0.786 c -0.413,0.67 -0.066,1.555 0.116,1.928 l 4.926,2.273 c 3.463,1.284 3.508,2.896 3.409,3.439 z"
                 id="path1680"
                 style="stroke-width:0.39387852" />
              <path
                 inkscape:connector-curvature="0"
                 d="m 588.356,1214.32 c -1.911,0 -3.566,-0.992 -4.447,-1.842 l 1.039,-1.081 c 0.136,0.128 3.344,3.113 6.571,10e-4 l 1.041,1.08 c -1.407,1.358 -2.868,1.842 -4.204,1.842 z"
                 id="path1682"
                 style="stroke-width:0.39387852" />
              <path
                 inkscape:connector-curvature="0"
                 d="m 588.03,1210.99 c -2.549,0 -4.622,-2.074 -4.622,-4.623 v -8.226 c 0.121,-1.091 0.729,-2.846 2.271,-3.056 0.033,-0.01 0.067,-0.01 0.101,-0.01 h 4.562 c 0.859,0.063 2.375,0.652 2.375,2.438 l -0.063,8.851 c -10e-4,2.549 -2.074,4.623 -4.624,4.623 z m -2.189,-14.411 c -0.627,0.132 -0.9,1.33 -0.939,1.651 l 0.006,8.137 c 0,1.722 1.4,3.123 3.122,3.123 1.723,0 3.123,-1.401 3.123,-3.123 v -2.378 c 0,0 0,0 0,0 l 0.063,-6.477 c 0,-0.779 -0.719,-0.911 -0.939,-0.933 z"
                 id="path1684"
                 style="stroke-width:0.39387852" />
              <rect
                 x="587.59698"
                 y="1215.042"
                 width="1.5"
                 height="0.86000001"
                 id="rect1686"
                 style="stroke-width:0.39387852" />
              <rect
                 x="587.59698"
                 y="1218.042"
                 width="1.5"
                 height="0.86000001"
                 id="rect1688"
                 style="stroke-width:0.39387852" />
              <path
                 inkscape:connector-curvature="0"
                 d="m 588.106,1208.337 c -1.187,0 -2.106,-0.427 -2.164,-0.454 -0.374,-0.178 -0.534,-0.625 -0.355,-1 0.177,-0.373 0.624,-0.531 0.995,-0.356 v 0 c 0.016,0.01 1.513,0.687 2.827,0.012 0.368,-0.189 0.82,-0.044 1.01,0.324 0.19,0.368 0.044,0.82 -0.324,1.01 -0.68,0.348 -1.371,0.464 -1.989,0.464 z"
                 id="path1690"
                 style="stroke-width:0.39387852" />
            </g>
          </g>
          <g
             id="g1722"
             style="stroke-width:0.39387852">
            <path
               style="fill:#ffffff;stroke-width:0.39387852"
               inkscape:connector-curvature="0"
               d="m 552.875,1220.843 -0.061,-5.671 c 0,0 1.506,-2.876 6.267,-4.731 0.2,-0.078 0.406,-0.154 0.618,-0.229 5.25,-1.838 3.993,-1.806 3.993,-1.806 l 0.338,-2.657 -2.428,-3.937 c 0,0 -6.759,-1.903 -0.984,-7.612 0,0 0.065,-7.94 6.497,-5.054 0,0 3.261,-1.47 5.381,-0.524 1.933,0.861 2.059,1.047 2.559,5.053 0,0 3.781,3.559 3.085,5.185 -1.378,3.215 -3.968,1.836 -4.528,2.887 -0.673,1.262 -0.531,2.481 -2.254,3.466 l 0.941,2.375 c 0,0 6.081,4.455 10.121,5.705 l 0.385,2.812 0.427,11.104 h -30.363"
               id="path1696" />
            <g
               id="g1720"
               style="stroke-width:0.39387852">
              <path
                 inkscape:connector-curvature="0"
                 d="m 553.565,1218.236 h -1.5 v -2.562 c -0.126,-0.617 -0.142,-2.663 4.469,-4.375 l 6.648,-3.071 c 0.237,-0.4 0.788,-1.536 0.147,-2.577 l 1.277,-0.786 c 1.31,2.128 -0.24,4.304 -0.308,4.395 -0.075,0.104 -0.176,0.187 -0.292,0.24 l -6.898,3.184 c -3.145,1.171 -3.643,2.341 -3.573,2.694 0.028,0.081 0.029,0.12 0.029,0.206 v 2.652 z"
                 id="path1698"
                 style="stroke-width:0.39387852" />
              <path
                 inkscape:connector-curvature="0"
                 d="m 583.003,1227.848 v 0 c -0.415,0 -0.75,-0.335 -0.75,-0.75 v -11.515 c 0,-0.086 0.015,-0.171 0.043,-0.252 0.056,-0.308 -0.442,-1.478 -3.534,-2.627 l -6.951,-3.205 c -0.133,-0.062 -0.245,-0.159 -0.322,-0.283 -0.056,-0.089 -1.177,-1.916 -0.685,-3.756 0.132,-0.492 0.693,-0.729 1.128,-0.463 l 0.544,0.335 c -0.556,0.902 -0.207,2.032 0.062,2.645 0.074,0.169 0.205,0.301 0.373,0.378 l 6.427,2.966 c 4.564,1.693 4.542,3.737 4.416,4.354 v 11.423 c -10e-4,0.415 -0.337,0.75 -0.751,0.75 z"
                 id="path1700"
                 style="stroke-width:0.39387852" />
              <path
                 inkscape:connector-curvature="0"
                 d="m 568.24,1212.236 c -3.302,0 -5.801,-2.355 -5.838,-2.392 l 1.039,-1.08 c 0.188,0.179 4.648,4.341 9.149,0 l 1.041,1.079 c -1.859,1.795 -3.727,2.392 -5.391,2.392 z"
                 id="path1702"
                 style="stroke-width:0.39387852" />
              <path
                 inkscape:connector-curvature="0"
                 d="m 567.744,1207.781 c -3.273,0 -5.936,-2.663 -5.936,-5.936 v -3.184 c 0,-2.243 1.249,-4.271 3.259,-5.294 l 0.68,1.337 c -1.504,0.766 -2.438,2.281 -2.438,3.957 v 3.184 c 0,2.445 1.99,4.436 4.436,4.436 2.446,0 4.436,-1.99 4.436,-4.436 v -3.184 c 0,-0.885 -0.264,-1.74 -0.761,-2.475 l 1.242,-0.841 c 0.666,0.983 1.019,2.13 1.019,3.315 v 3.184 c -0.002,3.274 -2.665,5.937 -5.937,5.937 z"
                 id="path1704"
                 style="stroke-width:0.39387852" />
              <path
                 inkscape:connector-curvature="0"
                 d="m 571.572,1196.387 c -5.489,0 -8.486,-3.352 -8.623,-3.509 -0.273,-0.312 -0.241,-0.785 0.071,-1.058 0.311,-0.272 0.784,-0.241 1.057,0.07 0.139,0.156 3.307,3.642 9.119,2.889 0.41,-0.054 0.787,0.236 0.841,0.647 0.053,0.411 -0.237,0.787 -0.647,0.84 -0.634,0.083 -1.24,0.121 -1.818,0.121 z"
                 id="path1706"
                 style="stroke-width:0.39387852" />
              <path
                 inkscape:connector-curvature="0"
                 d="m 562.156,1203.127 c -0.99,0 -1.953,-0.307 -2.776,-0.894 -1.043,-0.744 -1.733,-1.851 -1.945,-3.114 -0.437,-2.609 1.332,-5.087 3.941,-5.523 l 0.247,1.479 c -1.793,0.3 -3.009,2.003 -2.709,3.797 0.146,0.868 0.62,1.629 1.338,2.141 0.717,0.512 1.591,0.714 2.459,0.568 l 0.247,1.479 c -0.268,0.045 -0.536,0.067 -0.802,0.067 z"
                 id="path1708"
                 style="stroke-width:0.39387852" />
              <path
                 inkscape:connector-curvature="0"
                 d="m 573.988,1203.127 c -0.267,0 -0.534,-0.021 -0.802,-0.066 l 0.247,-1.479 c 0.868,0.146 1.742,-0.057 2.46,-0.568 0.717,-0.512 1.192,-1.272 1.337,-2.141 0.3,-1.794 -0.915,-3.497 -2.709,-3.797 l 0.248,-1.479 c 2.609,0.437 4.377,2.914 3.94,5.523 -0.211,1.264 -0.902,2.37 -1.945,3.114 -0.822,0.586 -1.786,0.893 -2.776,0.893 z"
                 id="path1710"
                 style="stroke-width:0.39387852" />
              <path
                 inkscape:connector-curvature="0"
                 d="m 560.624,1195.568 c -0.445,-0.756 -0.68,-1.62 -0.68,-2.501 0,-2.721 2.213,-4.935 4.935,-4.935 1.108,0 2.156,0.359 3.029,1.039 l -0.922,1.184 c -0.607,-0.473 -1.336,-0.723 -2.107,-0.723 -1.895,0 -3.435,1.541 -3.435,3.435 0,0.613 0.163,1.215 0.472,1.739 z"
                 id="path1712"
                 style="stroke-width:0.39387852" />
              <path
                 inkscape:connector-curvature="0"
                 d="m 575.547,1193.224 h -1.5 c 0,-2.14 -1.74,-3.879 -3.879,-3.879 -1.35,0 -2.582,0.685 -3.297,1.833 l -1.273,-0.793 c 0.99,-1.591 2.698,-2.54 4.57,-2.54 2.966,0 5.379,2.413 5.379,5.379 z"
                 id="path1714"
                 style="stroke-width:0.39387852" />
              <path
                 inkscape:connector-curvature="0"
                 d="m 568.168,1222.35 v 0 c -0.415,0 -0.75,-0.335 -0.75,-0.75 v -7.391 c 0,-0.414 0.335,-0.75 0.75,-0.75 v 0 c 0.414,0 0.75,0.336 0.75,0.75 v 7.391 c 0,0.415 -0.335,0.75 -0.75,0.75 z"
                 id="path1716"
                 style="stroke-width:0.39387852" />
              <path
                 inkscape:connector-curvature="0"
                 d="m 567.841,1204.23 c -1.526,0 -2.711,-0.55 -2.785,-0.585 -0.374,-0.178 -0.533,-0.626 -0.355,-1 0.178,-0.373 0.623,-0.532 0.997,-0.356 0.038,0.018 2.14,0.971 4.008,0.012 0.368,-0.19 0.82,-0.044 1.01,0.324 0.188,0.368 0.044,0.82 -0.325,1.01 -0.871,0.447 -1.757,0.595 -2.55,0.595 z"
                 id="path1718"
                 style="stroke-width:0.39387852" />
            </g>
          </g>
          <g
             id="g1728"
             style="stroke-width:0.39387852">
            <path
               style="fill:#ffffff;stroke-width:0.39387852"
               inkscape:connector-curvature="0"
               d="m 592.787,1198.496 c -0.951,0.334 -2.695,-1.25 -2.695,-1.25 -2.316,2.007 -6.117,2.062 -6.117,2.062 h -1 c 0,0 -0.438,-3.875 2.625,-4.5 h 5.25 c 0,0 1.688,0.438 1.688,2 z"
               id="path1724" />
            <path
               inkscape:connector-curvature="0"
               d="m 582.974,1200.059 c -0.382,0 -0.703,-0.287 -0.746,-0.666 -0.178,-1.576 0.267,-4.716 3.221,-5.319 0.05,-0.01 0.1,-0.015 0.15,-0.015 h 5.25 c 0.063,0 0.126,0.01 0.188,0.023 0.77,0.199 2.215,1.012 2.249,2.667 l 0.242,1.637 c 0.053,0.355 -0.153,0.698 -0.492,0.817 -0.989,0.348 -2.228,-0.423 -2.96,-0.992 -2.486,1.773 -5.936,1.845 -6.091,1.848 z m 0.727,-1.5 h 0.273 c 0.023,-10e-4 3.55,-0.081 5.627,-1.88 0.286,-0.248 0.713,-0.243 0.994,0.012 0.437,0.395 0.918,0.717 1.3,0.909 l -0.101,-0.682 c -0.006,-0.036 -0.008,-0.073 -0.008,-0.109 0,-0.82 -0.778,-1.157 -1.05,-1.25 h -5.058 c -1.647,0.379 -1.945,2.048 -1.977,3 z"
               id="path1726"
               style="stroke-width:0.39387852" />
          </g>
        </g>
        <g
           id="g1736"
           style="stroke-width:0.39387852">
          <path
             style="fill:#ffffff;stroke-width:0.39387852"
             inkscape:connector-curvature="0"
             d="m 600.692,1221.298 c 1.233,1.783 -0.682,3.752 -2.497,2.568 -0.089,-0.058 -0.168,-0.135 -0.229,-0.222 -1.233,-1.782 0.682,-3.752 2.498,-2.567 0.088,0.058 0.168,0.135 0.228,0.221 z"
             id="path1732" />
          <path
             inkscape:connector-curvature="0"
             d="m 599.364,1224.945 c -1.363,0.02 -2.489,-1.075 -2.508,-2.439 -0.02,-1.364 1.075,-2.49 2.438,-2.509 1.365,-0.02 2.491,1.075 2.51,2.439 0.02,1.365 -1.075,2.491 -2.44,2.509 z m -0.049,-3.507 c -0.57,0.01 -1.027,0.478 -1.019,1.048 0.008,0.57 0.477,1.028 1.047,1.021 0.57,-0.01 1.029,-0.479 1.021,-1.049 -0.008,-0.571 -0.479,-1.029 -1.049,-1.02 z"
             id="path1734"
             style="stroke-width:0.39387852" />
        </g>
        <g
           id="g1750"
           style="stroke-width:0.39387852">
          <g
             id="g1742"
             style="stroke-width:0.39387852">
            <line
               style="fill:#ffffff;stroke-width:0.39387852"
               x1="551.29303"
               y1="1217.094"
               x2="554.41199"
               y2="1220.126"
               id="line1738" />
            <path
               inkscape:connector-curvature="0"
               d="m 554.42,1220.82 c -0.177,0 -0.357,-0.063 -0.495,-0.197 l -3.117,-3.031 c -0.272,-0.268 -0.278,-0.707 -0.013,-0.981 0.267,-0.274 0.708,-0.281 0.982,-0.014 l 3.117,3.032 c 0.273,0.267 0.279,0.706 0.014,0.98 -0.133,0.138 -0.311,0.208 -0.488,0.211 z"
               id="path1740"
               style="stroke-width:0.39387852" />
          </g>
          <g
             id="g1748"
             style="stroke-width:0.39387852">
            <line
               style="fill:#ffffff;stroke-width:0.39387852"
               x1="554.36902"
               y1="1217.051"
               x2="551.336"
               y2="1220.1689"
               id="line1744" />
            <path
               inkscape:connector-curvature="0"
               d="m 551.346,1220.862 c -0.178,0 -0.357,-0.062 -0.495,-0.196 -0.272,-0.268 -0.279,-0.706 -0.014,-0.981 l 3.032,-3.117 c 0.267,-0.274 0.708,-0.28 0.983,-0.014 0.272,0.268 0.279,0.707 0.014,0.981 l -3.032,3.117 c -0.133,0.138 -0.311,0.208 -0.488,0.21 z"
               id="path1746"
               style="stroke-width:0.39387852" />
          </g>
        </g>
      </g>
      <path
         style="fill:#e7829b;stroke-width:0.39387852"
         inkscape:connector-curvature="0"
         d="m 552.869,1216.148 0.361,-1.896 9.299,-4.784 c 0,0 3.431,3.61 10.562,0.36 l 8.396,2.894 -28.618,11.912 z"
         id="path1754" />
      <path
         style="fill:#82b945;stroke-width:0.39387852"
         inkscape:connector-curvature="0"
         d="m 582.661,1212.719 1.986,-1.084 c 0,0 0.541,1.535 0.993,1.625 0.451,0.091 1.173,0.271 1.173,0.271 l 2.503,0.119 2.812,-1.375 6.062,2.688 -15.53,7.812 v -10.056 z"
         id="path1756" />
    </g>
  </g>
</svg>
