<?xml version="1.0" encoding="UTF-8" standalone="no"?>
<!-- Created with Inkscape (http://www.inkscape.org/) -->

<svg
   xmlns:dc="http://purl.org/dc/elements/1.1/"
   xmlns:cc="http://creativecommons.org/ns#"
   xmlns:rdf="http://www.w3.org/1999/02/22-rdf-syntax-ns#"
   xmlns:svg="http://www.w3.org/2000/svg"
   xmlns="http://www.w3.org/2000/svg"
   xmlns:sodipodi="http://sodipodi.sourceforge.net/DTD/sodipodi-0.dtd"
   xmlns:inkscape="http://www.inkscape.org/namespaces/inkscape"
   width="150"
   height="129.21643"
   viewBox="0 0 39.687499 34.188516"
   version="1.1"
   id="svg12323"
   inkscape:version="0.92.1 r15371"
   sodipodi:docname="equipos.svg">
  <defs
     id="defs12317" />
  <sodipodi:namedview
     id="base"
     pagecolor="#ffffff"
     bordercolor="#666666"
     borderopacity="1.0"
     inkscape:pageopacity="0.0"
     inkscape:pageshadow="2"
     inkscape:zoom="3.959798"
     inkscape:cx="146.02726"
     inkscape:cy="76.208322"
     inkscape:document-units="px"
     inkscape:current-layer="layer1"
     showgrid="false"
     units="px"
     fit-margin-top="10"
     fit-margin-left="10"
     fit-margin-right="10"
     fit-margin-bottom="10"
     inkscape:window-width="1920"
     inkscape:window-height="1021"
     inkscape:window-x="0"
     inkscape:window-y="0"
     inkscape:window-maximized="1" />
  <metadata
     id="metadata12320">
    <rdf:RDF>
      <cc:Work
         rdf:about="">
        <dc:format>image/svg+xml</dc:format>
        <dc:type
           rdf:resource="http://purl.org/dc/dcmitype/StillImage" />
        <dc:title />
      </cc:Work>
    </rdf:RDF>
  </metadata>
  <g
     inkscape:label="Capa 1"
     inkscape:groupmode="layer"
     id="layer1"
     transform="translate(61.202458,-122.98158)">
    <g
       id="g10332">
      <circle
         style="fill:#8ed3f1;stroke-width:0.26458335"
         cx="-40.414375"
         cy="139.79236"
         r="14.164948"
         id="circle1674" />
      <path
         id="path1676"
         d="m -40.873152,149.83217 -0.03023,-2.84481 c 0,0 0.755034,-1.44289 3.144407,-2.37392 0.100089,-0.0396 0.203537,-0.0772 0.310343,-0.11487 2.633887,-0.92163 2.003124,-0.90618 2.003124,-0.90618 l 0.169278,-1.33272 -0.867214,-1.85467 c 0,0 0.09203,-2.73935 0.251902,-4.3522 0.06113,-0.60994 -1.522831,-0.10882 -0.727493,-0.89542 0,0 -0.336541,-2.67621 2.890491,-1.22727 0,0 1.637026,-0.73757 2.700388,-0.26399 0.969319,0.4326 -0.03426,0.40505 0.216972,2.4149 0,0 0.475591,0.9055 0.126287,1.72099 -0.691219,1.61284 0.197491,2.28525 -0.08397,2.81324 -0.337212,0.63278 -0.10076,1.01768 -0.96596,1.51141 l 0.607252,1.05463 5.447127,3.00469 0.02015,7.86605 h -11.134064"
         inkscape:connector-curvature="0"
         style="fill:#ffffff;stroke-width:0.26458335" />
      <path
         style="fill:#82b945;stroke-width:0.26458335"
         inkscape:connector-curvature="0"
         d="m -37.02006,144.36153 1.334072,-0.72816 c 0,0 0.363411,1.03112 0.667036,1.09158 0.302954,0.0611 0.787949,0.18204 0.787949,0.18204 l 1.681362,0.0799 1.888928,-0.92364 4.072078,1.80564 -10.432097,5.24762 v -6.75501 z"
         id="path1756" />
      <path
         inkscape:connector-curvature="0"
         d="m -40.399576,148.31807 h -1.007608 v -1.27563 c -0.0665,-0.36609 -0.03157,-1.44894 2.324887,-2.32421 l 3.289503,-1.52015 c 0.113523,-0.20488 0.324449,-0.69054 0.05575,-1.12784 l 0.85781,-0.52799 c 0.701295,1.13927 -0.124272,2.29802 -0.159874,2.34638 -0.05038,0.0699 -0.118226,0.12562 -0.196147,0.16122 l -3.460797,1.59739 c -1.727711,0.64353 -1.720994,1.21182 -1.720322,1.21719 0.01881,0.0544 0.01612,0.0645 0.01612,0.12226 v 1.33138 z"
         id="path1678"
         style="stroke-width:0.26458335" />
      <path
         inkscape:connector-curvature="0"
         d="m -25.253219,151.05541 h -1.007607 v -4.06805 c 0,-0.0571 0.01008,-0.1142 0.02889,-0.16861 -0.01411,0.0262 -0.0215,-0.53403 -1.697483,-1.15606 l -3.496399,-1.61217 c -0.08934,-0.0417 -0.163904,-0.10681 -0.215628,-0.1901 -0.03493,-0.0551 -0.834971,-1.35826 -0.147111,-2.47737 l 0.858482,0.52798 c -0.277428,0.45007 -0.04434,1.04456 0.07792,1.29511 l 3.308983,1.52687 c 2.32623,0.86251 2.356459,1.94535 2.289956,2.3101 z"
         id="path1680"
         style="stroke-width:0.26458335" />
      <path
         inkscape:connector-curvature="0"
         d="m -33.19451,145.43699 c -1.283692,0 -2.395419,-0.66637 -2.987221,-1.23734 l 0.697936,-0.72615 c 0.09136,0.086 2.246294,2.09112 4.413993,6.7e-4 l 0.69928,0.72548 c -0.945136,0.91222 -1.926546,1.23734 -2.823988,1.23734 z"
         id="path1682"
         style="stroke-width:0.26458335" />
      <path
         inkscape:connector-curvature="0"
         d="m -33.413497,143.2001 c -1.712261,0 -3.104775,-1.39319 -3.104775,-3.10545 v -5.52572 c 0.08128,-0.73286 0.489697,-1.91177 1.525518,-2.05283 0.02217,-0.007 0.04501,-0.007 0.06785,-0.007 h 3.06447 c 0.577024,0.0423 1.595379,0.43798 1.595379,1.6377 l -0.04232,5.94556 c -6.72e-4,1.71226 -1.393186,3.10544 -3.106119,3.10544 z m -1.470435,-9.68042 c -0.42118,0.0887 -0.604565,0.89341 -0.630763,1.10904 l 0.004,5.46593 c 0,1.15674 0.940434,2.09784 2.097167,2.09784 1.157405,0 2.097839,-0.9411 2.097839,-2.09784 v -1.59739 c 0,0 0,0 0,0 l 0.04232,-4.35085 c 0,-0.52329 -0.48298,-0.61195 -0.630763,-0.62673 z"
         id="path1684"
         style="stroke-width:0.26458335" />
      <rect
         x="-33.704369"
         y="145.92198"
         width="1.0076076"
         height="0.57769507"
         id="rect1686"
         style="stroke-width:0.26458335" />
      <rect
         x="-33.704369"
         y="147.93719"
         width="1.0076076"
         height="0.57769507"
         id="rect1688"
         style="stroke-width:0.26458335" />
      <path
         inkscape:connector-curvature="0"
         d="m -33.362445,141.41798 c -0.797353,0 -1.414681,-0.28684 -1.453642,-0.30497 -0.25123,-0.11957 -0.358708,-0.41984 -0.238467,-0.67174 0.118898,-0.25056 0.419165,-0.35669 0.66838,-0.23914 v 0 c 0.01075,0.007 1.01634,0.46148 1.899004,0.008 0.2472,-0.12696 0.550826,-0.0296 0.678456,0.21764 0.12763,0.2472 0.02956,0.55083 -0.217643,0.67846 -0.456782,0.23377 -0.920953,0.31169 -1.336088,0.31169 z"
         id="path1690"
         style="stroke-width:0.26458335" />
      <path
         sodipodi:nodetypes="ccccccccccccccccccc"
         id="path1696"
         d="m -57.028461,149.81874 -0.04098,-3.80943 c 0,0 1.011638,-1.93192 4.209785,-3.178 0.134347,-0.0524 0.272725,-0.10344 0.415134,-0.15382 3.526627,-1.23466 2.682251,-1.21316 2.682251,-1.21316 l 0.227048,-1.78481 -1.630981,-2.64464 c 0,0 -4.54028,-1.27831 -0.66099,-5.11327 0,0 0.04366,-5.3336 4.364284,-3.39496 0,0 2.190539,-0.98746 3.614624,-0.352 1.298471,0.57837 1.38311,0.70331 1.718979,3.3943 0,0 2.539843,2.39072 2.072313,3.48296 -0.925655,2.15964 -2.789054,2.86631 -3.161869,1.8285 -0.45208,0.84773 -0.236456,1.77739 -1.393861,2.43906 l 0.827586,2.38534 c 0,0 3.889361,2.20263 6.603185,3.0423 l 0.258619,1.88893 0.286832,7.45898 h -20.395993"
         inkscape:connector-curvature="0"
         style="fill:#ffffff;stroke-width:0.26458335" />
      <path
         style="fill:#e7829b;stroke-width:0.26458335"
         inkscape:connector-curvature="0"
         d="m -57.032491,146.66493 0.242497,-1.27362 6.246496,-3.2136 c 0,0 2.304734,2.42498 7.094901,0.24183 l 5.639916,1.94401 -19.22381,8.00175 z"
         id="path1754" />
      <path
         inkscape:connector-curvature="0"
         d="m -56.564962,148.06752 h -1.007607 v -1.721 c -0.08464,-0.41446 -0.09539,-1.78884 3.001999,-2.93885 l 4.465717,-2.06291 c 0.159202,-0.2687 0.52933,-1.03179 0.09875,-1.73107 l 0.85781,-0.52799 c 0.879978,1.42946 -0.161217,2.89116 -0.206895,2.95229 -0.05038,0.0699 -0.118226,0.12562 -0.196148,0.16122 l -4.633651,2.13881 c -2.112618,0.78661 -2.447143,1.57254 -2.400122,1.80967 0.01881,0.0544 0.01948,0.0806 0.01948,0.13838 v 1.78145 z"
         id="path1698"
         style="stroke-width:0.26458335" />
      <path
         inkscape:connector-curvature="0"
         d="m -36.790326,154.52427 v 0 c -0.278771,0 -0.503804,-0.22504 -0.503804,-0.50381 v -7.73507 c 0,-0.0578 0.01008,-0.11486 0.02889,-0.16927 0.03762,-0.2069 -0.296908,-0.99283 -2.373924,-1.76466 l -4.669253,-2.15292 c -0.08934,-0.0417 -0.164576,-0.10681 -0.2163,-0.1901 -0.03762,-0.0598 -0.790636,-1.28706 -0.460141,-2.52305 0.08867,-0.3305 0.465515,-0.4897 0.757721,-0.31102 l 0.365426,0.22503 c -0.373487,0.60591 -0.13905,1.36498 0.04165,1.77675 0.04971,0.11353 0.137706,0.20219 0.250558,0.25392 l 4.317263,1.99237 c 3.065814,1.13726 3.051036,2.51029 2.966397,2.92475 v 7.67327 c -6.72e-4,0.27877 -0.226376,0.50381 -0.504476,0.50381 z"
         id="path1700"
         style="stroke-width:0.26458335" />
      <path
         inkscape:connector-curvature="0"
         d="m -46.7072,144.03709 c -2.21808,0 -3.896755,-1.58195 -3.921609,-1.6068 l 0.697936,-0.72548 c 0.126287,0.12024 3.12224,2.91602 6.145735,0 l 0.69928,0.72481 c -1.248762,1.20577 -2.503569,1.60679 -3.621342,1.60679 z"
         id="path1702"
         style="stroke-width:0.26458335" />
      <path
         inkscape:connector-curvature="0"
         d="m -47.040382,141.04449 c -2.1986,0 -3.98744,-1.78884 -3.98744,-3.98744 v -2.13881 c 0,-1.50671 0.839002,-2.869 2.189196,-3.55619 l 0.456782,0.89812 c -1.010295,0.51455 -1.637698,1.53223 -1.637698,2.65807 v 2.13881 c 0,1.6424 1.336759,2.97983 2.979831,2.97983 1.643072,0 2.979832,-1.33676 2.979832,-2.97983 v -2.13881 c 0,-0.59449 -0.177339,-1.16883 -0.511193,-1.66256 l 0.834299,-0.56493 c 0.447378,0.66032 0.684502,1.4308 0.684502,2.22681 v 2.13882 c -0.0013,2.19927 -1.790183,3.98811 -3.988111,3.98811 z"
         id="path1704"
         style="stroke-width:0.26458335" />
      <path
         inkscape:connector-curvature="0"
         d="m -44.468968,133.3907 c -3.687172,0 -5.700372,-2.25166 -5.7924,-2.35713 -0.183385,-0.20958 -0.161889,-0.52731 0.04769,-0.7107 0.208911,-0.18271 0.526643,-0.16189 0.710028,0.047 0.09337,0.10479 2.221439,2.44647 6.125582,1.94065 0.275413,-0.0363 0.528659,0.15853 0.564932,0.43461 0.0356,0.27609 -0.159202,0.52866 -0.434614,0.56426 -0.425883,0.0558 -0.832956,0.0813 -1.221221,0.0813 z"
         id="path1706"
         style="stroke-width:0.26458335" />
      <path
         inkscape:connector-curvature="0"
         d="m -50.794057,137.91822 c -0.665021,0 -1.311905,-0.20622 -1.864746,-0.60053 -0.700623,-0.49978 -1.164122,-1.24339 -1.306531,-2.0918 -0.29355,-1.75256 0.894756,-3.41713 2.647321,-3.71001 l 0.16592,0.9935 c -1.204427,0.20152 -2.021261,1.34549 -1.81974,2.55059 0.09807,0.58307 0.416478,1.09426 0.898786,1.4382 0.481637,0.34393 1.068736,0.47962 1.651805,0.38154 l 0.165919,0.9935 c -0.180025,0.0302 -0.360051,0.045 -0.538734,0.045 z"
         id="path1708"
         style="stroke-width:0.26458335" />
      <path
         inkscape:connector-curvature="0"
         d="m -42.846048,137.91822 c -0.179354,0 -0.358708,-0.0141 -0.538734,-0.0443 l 0.165919,-0.99351 c 0.583069,0.0981 1.170169,-0.0383 1.652477,-0.38154 0.481636,-0.34393 0.800712,-0.85445 0.898114,-1.4382 0.201522,-1.20509 -0.61464,-2.34906 -1.819739,-2.55059 l 0.166591,-0.9935 c 1.752565,0.29355 2.940199,1.95745 2.646649,3.71001 -0.141737,0.84908 -0.605908,1.59202 -1.306531,2.0918 -0.552169,0.39364 -1.199725,0.59986 -1.864746,0.59986 z"
         id="path1710"
         style="stroke-width:0.26458335" />
      <path
         inkscape:connector-curvature="0"
         d="m -51.82316,132.84055 c -0.298924,-0.50783 -0.456782,-1.08822 -0.456782,-1.68002 0,-1.8278 1.486557,-3.31503 3.315029,-3.31503 0.744286,0 1.448268,0.24116 2.034696,0.69794 l -0.619343,0.79534 c -0.407745,-0.31774 -0.897443,-0.48567 -1.415353,-0.48567 -1.272944,0 -2.307422,1.03515 -2.307422,2.30742 0,0.41178 0.109494,0.81616 0.317061,1.16815 z"
         id="path1712"
         style="stroke-width:0.26458335" />
      <path
         inkscape:connector-curvature="0"
         d="m -41.798808,131.26599 h -1.007607 c 0,-1.43752 -1.168825,-2.60567 -2.605674,-2.60567 -0.906846,0 -1.734428,0.46014 -2.214721,1.2313 l -0.855123,-0.53269 c 0.665021,-1.06874 1.81235,-1.70622 3.069844,-1.70622 1.992377,0 3.613281,1.62091 3.613281,3.61328 z"
         id="path1714"
         style="stroke-width:0.26458335" />
      <path
         inkscape:connector-curvature="0"
         d="m -46.755565,150.83105 v 0 c -0.278772,0 -0.503804,-0.22503 -0.503804,-0.50381 v -4.96481 c 0,-0.2781 0.225032,-0.50381 0.503804,-0.50381 v 0 c 0.278099,0 0.503803,0.22571 0.503803,0.50381 v 4.96481 c 0,0.27878 -0.225032,0.50381 -0.503803,0.50381 z"
         id="path1716"
         style="stroke-width:0.26458335" />
      <path
         inkscape:connector-curvature="0"
         d="m -46.975224,138.65915 c -1.025073,0 -1.821083,-0.36946 -1.870791,-0.39297 -0.251231,-0.11957 -0.358037,-0.42051 -0.238467,-0.67174 0.119569,-0.25056 0.418493,-0.35736 0.669723,-0.23914 0.02553,0.0121 1.43752,0.65226 2.692327,0.008 0.2472,-0.12763 0.550826,-0.0296 0.678456,0.21765 0.126287,0.2472 0.02956,0.55082 -0.218315,0.67845 -0.585084,0.30027 -1.180244,0.39969 -1.712933,0.39969 z"
         id="path1718"
         style="stroke-width:0.26458335" />
      <path
         id="path1724"
         d="m -30.218037,134.8074 c -0.638823,0.22436 -1.810335,-0.83967 -1.810335,-0.83967 -1.555746,1.34818 -4.109024,1.38512 -4.109024,1.38512 h -0.671739 c 0,0 -0.294221,-2.60299 1.763314,-3.02282 h 3.526626 c 0,0 1.133895,0.29422 1.133895,1.34347 z"
         inkscape:connector-curvature="0"
         style="fill:#ffffff;stroke-width:0.26458335" />
      <path
         style="stroke-width:0.26458335"
         id="path1726"
         d="m -36.809806,135.85733 c -0.256604,0 -0.472232,-0.19279 -0.501117,-0.44738 -0.11957,-1.05866 0.179354,-3.16792 2.163669,-3.57298 0.03359,-0.007 0.06717,-0.0101 0.100761,-0.0101 h 3.526627 c 0.04232,0 0.08464,0.007 0.126287,0.0155 0.517238,0.13367 1.4879,0.6798 1.510739,1.79152 l 0.162561,1.09964 c 0.0356,0.23847 -0.102776,0.46887 -0.330495,0.54881 -0.66435,0.23376 -1.496634,-0.28415 -1.988346,-0.66637 -1.669942,1.191 -3.987439,1.23936 -4.091559,1.24138 z m 0.488353,-1.00761 h 0.183385 c 0.01545,-6.7e-4 2.384671,-0.0544 3.779872,-1.26287 0.192117,-0.16659 0.47895,-0.16323 0.667708,0.008 0.29355,0.26534 0.616656,0.48164 0.87326,0.61061 l -0.06784,-0.45812 c -0.004,-0.0242 -0.0054,-0.049 -0.0054,-0.0732 0,-0.55083 -0.522613,-0.7772 -0.705326,-0.83968 h -3.397653 c -1.106353,0.25459 -1.306531,1.37572 -1.328027,2.01522 z"
         inkscape:connector-curvature="0" />
      <path
         style="fill:#ffffff;stroke-width:0.26458335"
         inkscape:connector-curvature="0"
         d="m -24.907945,150.12438 c 0.828253,1.19771 -0.458126,2.52036 -1.677331,1.72502 -0.05978,-0.039 -0.112852,-0.0907 -0.153828,-0.14912 -0.828253,-1.19704 0.458126,-2.52037 1.678003,-1.72436 0.05911,0.039 0.112852,0.0907 0.153156,0.14846 z"
         id="path1732" />
      <path
         inkscape:connector-curvature="0"
         d="m -25.800014,152.57421 c -0.915579,0.0134 -1.671957,-0.72212 -1.68472,-1.63837 -0.01343,-0.91625 0.722119,-1.67263 1.637699,-1.68539 0.916923,-0.0134 1.6733,0.72212 1.686063,1.63837 0.01344,0.91692 -0.722119,1.6733 -1.639042,1.68539 z m -0.03291,-2.35579 c -0.382891,0.007 -0.689875,0.32109 -0.684501,0.70398 0.0054,0.3829 0.320419,0.69055 0.70331,0.68585 0.382891,-0.007 0.691219,-0.32176 0.685845,-0.70465 -0.0054,-0.38357 -0.321763,-0.69122 -0.704654,-0.68518 z"
         id="path1734"
         style="stroke-width:0.26458335" />
      <line
         id="line1738"
         y2="149.33708"
         x2="-55.996006"
         y1="147.30038"
         x1="-58.091133"
         style="fill:#ffffff;stroke-width:0.26458335" />
      <path
         style="stroke-width:0.26458335"
         id="path1740"
         d="m -55.990625,149.80329 c -0.118898,0 -0.239811,-0.0423 -0.332511,-0.13233 l -2.093808,-2.03604 c -0.182713,-0.18003 -0.186744,-0.47492 -0.0087,-0.65898 0.179354,-0.18406 0.475591,-0.18876 0.659647,-0.009 l 2.093809,2.03671 c 0.183384,0.17935 0.187415,0.47424 0.0094,0.6583 -0.08934,0.0927 -0.20891,0.13972 -0.327808,0.14174 z"
         inkscape:connector-curvature="0" />
      <line
         id="line1744"
         y2="149.36595"
         x2="-58.062267"
         y1="147.27153"
         x1="-56.024872"
         style="fill:#ffffff;stroke-width:0.26458335" />
      <path
         style="stroke-width:0.26458335"
         id="path1746"
         d="m -58.055549,149.8315 c -0.11957,0 -0.239811,-0.0417 -0.332511,-0.13166 -0.182712,-0.18003 -0.187415,-0.47425 -0.0094,-0.65898 l 2.036711,-2.0938 c 0.179354,-0.18406 0.475591,-0.18809 0.660319,-0.009 0.182713,0.18003 0.187415,0.47492 0.0094,0.65898 l -2.036711,2.09381 c -0.08934,0.0927 -0.20891,0.13972 -0.327808,0.14106 z"
         inkscape:connector-curvature="0" />
    </g>
  </g>
</svg>
