<?xml version="1.0" encoding="UTF-8" standalone="no"?>
<!-- Created with Inkscape (http://www.inkscape.org/) -->

<svg
   xmlns:dc="http://purl.org/dc/elements/1.1/"
   xmlns:cc="http://creativecommons.org/ns#"
   xmlns:rdf="http://www.w3.org/1999/02/22-rdf-syntax-ns#"
   xmlns:svg="http://www.w3.org/2000/svg"
   xmlns="http://www.w3.org/2000/svg"
   xmlns:sodipodi="http://sodipodi.sourceforge.net/DTD/sodipodi-0.dtd"
   xmlns:inkscape="http://www.inkscape.org/namespaces/inkscape"
   width="150"
   height="146.172"
   viewBox="0 0 39.687499 38.674675"
   version="1.1"
   id="svg9478"
   inkscape:version="0.92.1 r15371"
   sodipodi:docname="facilitaciones.svg">
  <defs
     id="defs9472" />
  <sodipodi:namedview
     id="base"
     pagecolor="#ffffff"
     bordercolor="#666666"
     borderopacity="1.0"
     inkscape:pageopacity="0.0"
     inkscape:pageshadow="2"
     inkscape:zoom="2.8"
     inkscape:cx="71.842029"
     inkscape:cy="65.222641"
     inkscape:document-units="px"
     inkscape:current-layer="layer1"
     showgrid="false"
     units="px"
     fit-margin-top="10"
     fit-margin-left="10"
     fit-margin-right="10"
     fit-margin-bottom="10"
     inkscape:window-width="1920"
     inkscape:window-height="1021"
     inkscape:window-x="0"
     inkscape:window-y="0"
     inkscape:window-maximized="1" />
  <metadata
     id="metadata9475">
    <rdf:RDF>
      <cc:Work
         rdf:about="">
        <dc:format>image/svg+xml</dc:format>
        <dc:type
           rdf:resource="https://purl.org/dc/dcmitype/StillImage" />
        <dc:title />
      </cc:Work>
    </rdf:RDF>
  </metadata>
  <g
     inkscape:label="Capa 1"
     inkscape:groupmode="layer"
     id="layer1"
     transform="translate(60.543354,-118.73922)">
    <g
       id="g10530">
      <circle
         id="circle1456"
         r="12.162292"
         cy="133.54735"
         cx="-44.104053"
         style="fill:#8ed3f1;stroke-width:0.26458332" />
      <line
         id="line1458"
         y2="154.20998"
         x2="-40.698856"
         y1="124.23728"
         x1="-40.698856"
         style="fill:#ffffff;stroke-width:0.26458332" />
      <path
         style="stroke-width:0.26458332"
         id="path1460"
         d="m -40.69886,154.76807 c -0.308819,0 -0.558108,-0.25004 -0.558108,-0.55811 v -29.97264 c 0,-0.30808 0.249289,-0.55811 0.558108,-0.55811 0.308076,0 0.558109,0.25003 0.558109,0.55811 v 29.97264 c 0,0.30807 -0.250033,0.55811 -0.558109,0.55811 z"
         inkscape:connector-curvature="0" />
      <line
         id="line1464"
         y2="139.22363"
         x2="-24.059803"
         y1="139.22363"
         x1="-57.339409"
         style="fill:#ffffff;stroke-width:0.26458332" />
      <path
         style="stroke-width:0.26458332"
         id="path1466"
         d="m -24.059795,139.78175 h -33.279617 c -0.308076,0 -0.558108,-0.25004 -0.558108,-0.55811 0,-0.30882 0.250032,-0.55811 0.558108,-0.55811 h 33.279617 c 0.308075,0 0.558108,0.24929 0.558108,0.55811 0,0.30882 -0.250033,0.55811 -0.558108,0.55811 z"
         inkscape:connector-curvature="0" />
      <polygon
         transform="matrix(0.7441442,0,0,0.7441442,-469.47698,-666.35934)"
         style="fill:#ffffff;stroke-width:0.35555384"
         points="572.327,1085.633 559.495,1085.633 559.495,1098.465 567.93,1098.465 572.327,1094.068 "
         id="polygon1470" />
      <path
         inkscape:connector-curvature="0"
         d="m -46.855909,151.61513 h -6.276856 c -0.308076,0 -0.558108,-0.25004 -0.558108,-0.55811 v -9.54886 c 0,-0.30808 0.250032,-0.55811 0.558108,-0.55811 h 9.548858 c 0.308076,0 0.558109,0.25003 0.558109,0.55811 v 6.2776 c 0,0.14809 -0.05879,0.29022 -0.163712,0.3944 l -3.271258,3.27126 c -0.10418,0.10492 -0.247056,0.16371 -0.395141,0.16371 z m -5.718004,-1.11622 h 5.488064 l 2.944578,-2.94458 v -5.48806 h -8.432642 z m 8.990751,-2.71389 h 0.0074 z"
         id="path1472"
         style="stroke-width:0.26458332" />
      <polygon
         transform="matrix(0.7441442,0,0,0.7441442,-469.47698,-666.35934)"
         style="fill:#ffffff;stroke-width:0.35555384"
         points="572.327,1093.668 568.129,1097.745 568.129,1093.668 "
         id="polygon1476" />
      <path
         inkscape:connector-curvature="0"
         d="m -46.707824,151.07934 c -0.07293,0 -0.146596,-0.0149 -0.216546,-0.0446 -0.206872,-0.0871 -0.341562,-0.28947 -0.341562,-0.51346 v -3.03387 c 0,-0.30808 0.250032,-0.55811 0.558108,-0.55811 h 3.123917 c 0.227709,0 0.431604,0.13767 0.516436,0.34826 0.08558,0.21059 0.03497,0.4517 -0.127992,0.6102 l -3.123174,3.03387 c -0.105668,0.10344 -0.246311,0.15776 -0.389187,0.15776 z m 0.558108,-3.03387 v 1.15565 l 1.190631,-1.15565 z"
         id="path1478"
         style="stroke-width:0.26458332" />
      <polygon
         transform="matrix(0.7441442,0,0,0.7441442,-469.47698,-666.35934)"
         style="fill:#ffffff;stroke-width:0.35555384"
         points="572.327,1066.336 559.495,1066.336 559.495,1079.168 567.93,1079.168 572.327,1074.771 "
         id="polygon1484" />
      <polygon
         transform="matrix(0.7441442,0,0,0.7441442,-469.47698,-666.35934)"
         style="fill:#82b945;stroke-width:0.35555384"
         points="563.06,1075.383 568.605,1075.383 568.605,1079.14 559.531,1079.14 559.963,1066.669 563.06,1066.669 "
         id="polygon1542" />
      <path
         inkscape:connector-curvature="0"
         d="m -46.855909,137.25538 h -6.276856 c -0.308076,0 -0.558108,-0.25004 -0.558108,-0.55811 v -9.54886 c 0,-0.30808 0.250032,-0.55811 0.558108,-0.55811 h 9.548858 c 0.308076,0 0.558109,0.25003 0.558109,0.55811 v 6.2776 c 0,0.14808 -0.05879,0.29022 -0.163712,0.3944 l -3.271258,3.27125 c -0.10418,0.10567 -0.247056,0.16372 -0.395141,0.16372 z m -5.718004,-1.11622 h 5.488064 l 2.944578,-2.94458 v -5.48806 h -8.432642 z m 8.990751,-2.71389 h 0.0074 z"
         id="path1486"
         style="stroke-width:0.26458332" />
      <polygon
         transform="matrix(0.7441442,0,0,0.7441442,-469.47698,-666.35934)"
         style="fill:#ffffff;stroke-width:0.35555384"
         points="572.327,1074.371 568.129,1078.449 568.129,1074.371 "
         id="polygon1490" />
      <path
         inkscape:connector-curvature="0"
         d="m -46.707824,136.72034 c -0.07293,0 -0.146596,-0.0149 -0.216546,-0.0446 -0.206872,-0.0871 -0.341562,-0.29022 -0.341562,-0.51346 v -3.03462 c 0,-0.30808 0.250032,-0.55811 0.558108,-0.55811 h 3.123917 c 0.227709,0 0.431604,0.13841 0.516436,0.349 0.08558,0.20985 0.03497,0.45096 -0.127992,0.60946 l -3.123174,3.03387 c -0.105668,0.10344 -0.246311,0.15851 -0.389187,0.15851 z m 0.558108,-3.03462 v 1.1564 l 1.190631,-1.1564 z"
         id="path1492"
         style="stroke-width:0.26458332" />
      <polygon
         transform="matrix(0.7441442,0,0,0.7441442,-469.47698,-666.35934)"
         style="fill:#ffffff;stroke-width:0.35555384"
         points="593.136,1085.633 580.304,1085.633 580.304,1098.465 588.74,1098.465 593.136,1094.068 "
         id="polygon1498" />
      <polygon
         transform="matrix(0.7441442,0,0,0.7441442,-469.47698,-666.35934)"
         style="fill:#e7829b;stroke-width:0.35555384"
         points="583.373,1094.683 588.917,1094.683 588.917,1098.44 579.843,1098.44 580.276,1085.969 583.373,1085.969 "
         id="polygon1544" />
      <path
         inkscape:connector-curvature="0"
         d="m -31.369524,151.61513 h -6.2776 c -0.308076,0 -0.558108,-0.25004 -0.558108,-0.55811 v -9.54886 c 0,-0.30808 0.250032,-0.55811 0.558108,-0.55811 h 9.548858 c 0.308076,0 0.558108,0.25003 0.558108,0.55811 v 6.2776 c 0,0.14809 -0.05879,0.29022 -0.163711,0.3944 l -3.271258,3.27126 c -0.104925,0.10492 -0.246312,0.16371 -0.394397,0.16371 z m -5.719492,-1.11622 h 5.488063 l 2.944579,-2.94458 v -5.48806 h -8.432642 z m 8.99075,-2.71389 h 0.0074 z"
         id="path1500"
         style="stroke-width:0.26458332" />
      <polygon
         transform="matrix(0.7441442,0,0,0.7441442,-469.47698,-666.35934)"
         style="fill:#ffffff;stroke-width:0.35555384"
         points="593.136,1093.668 588.939,1097.745 588.939,1093.668 "
         id="polygon1504" />
      <path
         inkscape:connector-curvature="0"
         d="m -31.221439,151.07934 c -0.07367,0 -0.147341,-0.0149 -0.21729,-0.0446 -0.206128,-0.0871 -0.340818,-0.28947 -0.340818,-0.51346 v -3.03387 c 0,-0.30808 0.250032,-0.55811 0.558108,-0.55811 h 3.123173 c 0.227708,0 0.431604,0.13767 0.51718,0.34826 0.08483,0.21059 0.03497,0.4517 -0.128737,0.6102 l -3.123173,3.03387 c -0.105668,0.10344 -0.246311,0.15776 -0.388443,0.15776 z m 0.558108,-3.03387 v 1.15565 l 1.189887,-1.15565 z"
         id="path1506"
         style="stroke-width:0.26458332" />
      <polyline
         transform="matrix(0.7441442,0,0,0.7441442,-469.47698,-666.35934)"
         style="fill:#ffffff;stroke-width:0.35555384"
         points="587.332,1066.336 580.304,1066.336 580.304,1079.168 588.74,1079.168 593.136,1074.771        593.136,1066.336 592.139,1066.336      "
         id="polyline1512" />
      <path
         inkscape:connector-curvature="0"
         d="m -31.369524,137.25538 h -6.2776 c -0.308076,0 -0.558108,-0.25004 -0.558108,-0.55811 v -9.54886 c 0,-0.30808 0.250032,-0.55811 0.558108,-0.55811 h 5.229101 c 0.308076,0 0.558108,0.25003 0.558108,0.55811 0,0.30882 -0.250032,0.55811 -0.558108,0.55811 h -4.670993 v 8.43264 h 5.488063 l 2.944579,-2.94458 v -5.48806 h -0.183804 c -0.308819,0 -0.558108,-0.24929 -0.558108,-0.55811 0,-0.30808 0.249289,-0.55811 0.558108,-0.55811 h 0.741912 c 0.308076,0 0.558108,0.25003 0.558108,0.55811 v 6.2776 c 0,0.14808 -0.05879,0.29022 -0.163711,0.3944 l -3.271258,3.27125 c -0.104925,0.10567 -0.246312,0.16372 -0.394397,0.16372 z"
         id="path1514"
         style="stroke-width:0.26458332" />
      <polygon
         transform="matrix(0.7441442,0,0,0.7441442,-469.47698,-666.35934)"
         style="fill:#ffffff;stroke-width:0.35555384"
         points="593.136,1074.371 588.939,1078.449 588.939,1074.371 "
         id="polygon1518" />
      <path
         inkscape:connector-curvature="0"
         d="m -31.221439,136.72034 c -0.07367,0 -0.147341,-0.0149 -0.21729,-0.0446 -0.206128,-0.0871 -0.340818,-0.29022 -0.340818,-0.51346 v -3.03462 c 0,-0.30808 0.250032,-0.55811 0.558108,-0.55811 h 3.123173 c 0.227708,0 0.431604,0.13841 0.51718,0.349 0.08483,0.20985 0.03497,0.45096 -0.128737,0.60946 l -3.123173,3.03387 c -0.105668,0.10344 -0.246311,0.15851 -0.388443,0.15851 z m 0.558108,-3.03462 v 1.1564 l 1.189887,-1.1564 z"
         id="path1520"
         style="stroke-width:0.26458332" />
      <polyline
         transform="matrix(0.7441442,0,0,0.7441442,-469.47698,-666.35934)"
         style="fill:#ffffff;stroke-width:0.35555384"
         points="584.615,1069.567 586.335,1072.284 593.852,1064.043    "
         id="polyline1528" />
      <path
         inkscape:connector-curvature="0"
         d="m -33.15919,132.13269 c -0.01563,0 -0.03274,0 -0.04837,0 -0.172641,-0.0156 -0.329656,-0.11014 -0.422674,-0.25748 l -1.279928,-2.02184 c -0.1652,-0.26119 -0.08781,-0.60499 0.171898,-0.77019 0.261194,-0.1652 0.604989,-0.0871 0.770189,0.17265 l 0.889252,1.4042 5.100364,-5.59225 c 0.207617,-0.22771 0.561085,-0.24408 0.788793,-0.0365 0.228453,0.20762 0.24408,0.56034 0.03646,0.78879 l -5.592987,6.13175 c -0.106413,0.11683 -0.25673,0.18306 -0.413,0.18306 z"
         id="path1530"
         style="stroke-width:0.26458332" />
      <path
         style="fill:#ffffff;stroke-width:0.26458332"
         inkscape:connector-curvature="0"
         d="m -53.361217,138.35671 c 0.91753,1.32681 -0.507507,2.79203 -1.858872,1.91096 -0.06548,-0.0432 -0.125017,-0.10046 -0.169665,-0.1652 -0.918274,-1.32606 0.506762,-2.79128 1.858128,-1.91022 0.06623,0.0432 0.125016,0.10046 0.170409,0.16446 z"
         id="path1534" />
      <path
         inkscape:connector-curvature="0"
         d="m -54.350185,141.07135 c -1.014268,0.0149 -1.852175,-0.79996 -1.866314,-1.81497 -0.01414,-1.01501 0.8007,-1.85292 1.814968,-1.86706 1.015757,-0.0149 1.852919,0.8007 1.867802,1.81497 0.01414,1.01576 -0.800699,1.85292 -1.816456,1.86706 z m -0.03646,-2.61046 c -0.424162,0.007 -0.763492,0.35644 -0.758283,0.77986 0.006,0.42417 0.355701,0.76498 0.779863,0.75977 0.423418,-0.007 0.76498,-0.35644 0.759771,-0.7806 -0.0052,-0.42417 -0.357189,-0.76498 -0.781351,-0.75903 z"
         id="path1536"
         style="stroke-width:0.26458332" />
    </g>
  </g>
</svg>
