<?xml version="1.0" encoding="utf-8"?>
<!-- Generator: Adobe Illustrator 19.0.0, SVG Export Plug-In . SVG Version: 6.00 Build 0)  -->
<svg version="1.1" id="Capa_1" xmlns="http://www.w3.org/2000/svg" xmlns:xlink="http://www.w3.org/1999/xlink" x="0px" y="0px"
	 width="702.2px" height="134px" viewBox="76 -12 702.2 134" style="enable-background:new 76 -12 702.2 134;" xml:space="preserve"
	>
<style type="text/css">
	.st0{fill:#FCFBFC;}
	.st1{fill:#0A0A0A;}
</style>
<g id="Capa_2">
</g>
<g id="Capa_1_1_">
	<g>
		<path class="st0" d="M574.7,113.3c-46.3,0-92.7,1.2-139-0.4c-38-1.3-76.1-0.8-114-3c-25.4-1.4-50.8-0.9-76-2.9
			c-29.8-2.4-59.7-1.4-89.5-4c-16.7-1.5-33.4-1.9-50-2.7c-7-0.4-10-3.2-10.4-9.9c-0.6-11-0.8-22.1,1.3-32.9
			c2.3-11.7,4.7-23.4,9.2-34.5c1.4-3.6,3.5-7,5.9-10.1c2-2.6,4.5-5.7,8.6-2.7c0.6,0.4,1.6,0.2,2.5,0.2c23.3,0.8,46.6,0.7,69.8,2.6
			c21.2,1.8,42.4,1.2,63.5,3c24.7,2.1,49.4,1.2,74,2.9c38.3,2.6,76.7,1.8,115,2.9c30.6,0.9,61.3,0.7,91.9,0.8
			c63.8,0.2,127.6-0.1,191.5-0.3c6.3,0,12.6-0.5,18.9-0.6c8.4-0.1,11,2.8,11.7,11.4c0.8,10.2-1.2,20.1-2.6,30
			c-2,13-5.2,25.7-10.2,37.9c-3.1,7.6-7.1,10.1-15,10.6C679.4,115.3,627,112.7,574.7,113.3z M595.5,45.4
			c-12.9,0.1-20.7,9.8-20.6,22.2c0.1,12.9,7.2,20,22.5,19.9c11.4-0.1,20.1-7.6,20.2-20.6C617.5,55,606.1,44.4,595.5,45.4z
			 M254.5,70.6c0-0.2-0.1,1,0,2.1c1.1,13.3,12.9,17.7,23.5,14.5c4.3-1.3,7.4-4.3,11.5,0c0.8,0.8,3.6,1,4.8-1.1
			c0.8-1.4,0.7-3.8-0.6-4c-6.7-0.8-4.5-5.9-4.5-9.5c-0.1-7.1,0.4-14.3,0.5-21.4c0-1.3,0.3-2.8-1.6-3.1c-1.2-0.2-3-0.3-3.2,0.7
			c-1.2,6.5-3.7,1.4-5.2,0.4c-1.5-0.9-2.9-1.3-4.5-1.5C262.5,46,253.4,55.3,254.5,70.6z M233.8,36.9c0,0.1,0,0.2,0,0.3
			c2.8,0.2,5.6,0.4,8.5,0.4c2.2,0,5,0.9,5.3-2.7c0.3-3.5-2.6-3.2-4.8-3.4c-6.5-0.4-12.9-1.2-19.4-0.6c-1.7,0.2-3.6,0.7-4.9-1.9
			c-1.2-2.4-4.4-2.3-5.8,0.4c-0.7,1.4-1.3,2-2.7,2.1s-2.1,1.4-2.6,2.6c1.6,0.6,0.6,3.4,2.9,3.5c1,0,2.3-0.4,2.6,1.5
			c0.4,3.4,1.2,6.7,1.6,10.1c0.6,3.8,0.1,7.1-4.5,8.2c-2.2,0.5-1.5,2.4-1.4,3.7c0.1,1.6,1.1,2.8,3,2.4c2.6-0.5,2.8,1,3,3.1
			c0.5,5.2-1.1,10.1-1.8,15.1c-0.5,3.2,1.7,5.2,3.4,5.4c2.2,0.2,3.6-2.1,3.6-4.9c-0.1-5.7,0.2-11.3,0.1-17c-0.1-2.9,0.9-3.7,3.7-3.6
			c5,0.2,10,0.1,15,0.1c1.8,0,4.1,0.4,4-2.3c-0.1-2.3-1.1-3.9-4-3.8c-4.5,0.1-9-0.3-13.5,0c-4.1,0.3-5.8-1-5.2-5.2
			c0.7-4.2-2.2-10.1,0.9-12.3C223.8,35.7,229.3,37.1,233.8,36.9z M473.9,47.5c-3.1,0.4-6.1,0.1-8.7,1.9c-8.8,5.7-11.1,14-9.9,23.8
			c1.3,10.8,15.5,19.2,25,13.9c4.1-2.3,6.6-3.5,10.3-0.1c1.1,1,3.4,1.4,4.6-0.9c0.9-1.8,0.4-4-1-4.2c-4.1-0.6-3.3-3.6-3.3-6
			c-0.1-7.6-0.3-15.3,0.7-22.9c0.2-1.4,1.1-3.6-0.9-4.5c-1.7-0.8-3.8-0.9-5.1,1.1c-1.1,1.7-3,1.2-3.7,0.3
			C479.6,47.2,476.5,48.1,473.9,47.5z M632.5,54.3c-0.6-1.6-1.2-2.6-1.4-3.7c-0.7-2.9-2.6-4.1-5.2-3c-3.5,1.4-1.5,4.3-0.3,5.5
			c1.8,1.8,1.1,3.7,1.2,5.5c0.3,8.6,0.5,17.3,0.8,25.9c0.1,1.7,0.4,3.2,2.8,3.1c2.3-0.1,3.4-1.1,3.4-3.3c0-1.5-0.1-3-0.1-4.5
			c0.3-7.5-1.1-15.2,3.2-22.1c2.2-3.6,5.4-6.3,9.3-5.7c3.9,0.6,5.7,4.1,5.6,8.5c-0.2,7.5,0.1,15,0,22.5c0,2.7,1.7,4.3,3.9,4.5
			c2.1,0.2,3.9-1.7,3.8-3.9c-0.6-9,1.3-18.1-1.5-27.1c-1.9-6-5.4-9.6-11-10.6C640.7,44.8,636.1,48.3,632.5,54.3z M524.3,81.6
			c-4.3,0.2-8.1-1.6-11-6.7c-3.7-6.5-1.8-11.9,1.3-17.4c2.2-3.9,6.1-5.4,10.2-5.9c6.3-0.8,10.1,3,12.8,7.9c1.4,2.6,3.4,1.7,5.1,1.1
			c2-0.7,1.2-2.8,0.6-3.8c-3.4-5.5-8-10-14.6-11c-11.1-1.8-18.5,4.6-22.9,13.4c-3.8,7.7-0.4,20.1,5.7,24.5
			c7.2,5.2,19.4,5.5,26.3,0.1c3.5-2.8,6.9-6.3,6.6-11.5c-0.1-1.7-0.5-3.6-3-3.7c-2.2-0.1-2.6,1.2-3.1,2.9
			C536.2,79,532.9,81.6,524.3,81.6z M324.1,45.5c-4.9-0.1-8.8,1.9-12.6,4.7c-4.4,3.3-6.1,7.6-7.3,12.9c-1.4,6.3,1,17.2,5.8,20.5
			c7.2,5.1,20.3,5.3,27.3-0.1c3.7-2.8,5.8-6.9,5.4-11.8c-0.1-1.3-0.5-2.9-2.5-3.1c-1.9-0.2-2.4,1.2-2.4,2.5c0.1,2.5-1.9,3.7-2.9,5.5
			c-3,5.5-14.8,7.1-19.4,2.9c-7.7-6.9-7.9-13.9-2.4-22.2c2.7-4,7.2-6.6,12.5-5.7c4.3,0.7,8.3,2.5,10,6.9c1.1,2.8,3.2,3.1,5,2.3
			c2.6-1.2,1.6-4,0.5-5.5C336.9,49.4,331.4,45.8,324.1,45.5z M425.1,65.3c0.2,3.5,0.6,6,0.4,8.5c-0.3,2.8,1.6,4.8,2.3,7.3
			c1.2,4.6,5.9,7.2,11,6.4c3.8-0.6,8.7-6.3,8.4-10c-0.1-1.8-1.1-3.2-3.1-3.3c-1.7-0.1-2.6,0.7-2.7,2.6c-0.1,2.5-0.9,5.1-4.3,4.6
			c-2.9-0.4-3.9-2.5-4.5-5.1c-0.9-4.3-0.9-8.6-0.8-12.9c0.1-2.5-0.8-5.4,0.9-7.2c1.4-1.5,4.1-0.4,6.2-0.6c1.4-0.1,2.7-0.2,2.7-2.1
			c0-1.1-0.1-2-1.4-2.2c-1.2-0.2-2.4-0.5-3.5-0.3c-4,0.6-4.3-1.5-3.9-4.6c0.4-3.3,2.4-6.1,2.1-9.6c-0.2-2.5-1.8-3.6-3.7-4.1
			c-2.3-0.5-2.7,1.6-3,3.1c-0.4,2.1,0.1,4.5-0.7,6.4c-1.4,3.3,0.4,9.7-6.9,8.3c-1.4-0.3-2,0.7-2.1,2.1c-0.2,2.1,1.3,2.8,2.8,2.6
			c4.8-0.7,4.5,2.3,4.2,5.5C425.3,62.7,425.2,64.5,425.1,65.3z M377.5,60.1c0.1,0,0.1,0,0.2,0c0,7.5,0,14.9,0,22.4
			c0,1.7-0.1,3.1,2.3,3.6c2.2,0.4,2.8-1.2,3.7-2.3c1.1-1.2,0.8-3,0.5-4.3c-1.5-6.5-1.3-13-1.3-19.6c0-10.6,0-21.3,0-31.9
			c0-2.2-0.3-4.8-2.7-4.9c-2.1-0.1-3.4,2.4-3.9,4.4c-0.4,1.7-0.7,3.9,0.1,5.4c1.6,3,1,6.1,1.1,9.2C377.6,48.1,377.5,54.1,377.5,60.1
			z M407.2,66c0.2,0,0.3,0,0.5,0c0-4.6-0.2-9.3,0.1-13.9c0.2-3-0.7-4.7-3.8-4.8c-3.3-0.1-3.1,2.2-3.1,4.4
			c-0.2,9.8-0.4,19.5-0.6,29.3c-0.1,2.5,0.1,5.8,2.8,5.9c2.5,0.1,3.8-2.9,4.2-5.6c0.1-0.3,0-0.7,0-1C407.2,75.6,407.2,70.8,407.2,66
			z M563.7,66.7c0.2,0,0.3,0,0.5,0c0-4.7,0.1-9.3,0-14c-0.1-2.2,1.2-5.2-3.1-5.4c-4.2-0.2-3.4,2.7-3.5,5c-0.2,9.8-0.3,19.6-0.6,29.5
			c-0.1,2.5,0.3,5.3,2.8,5.3c2.3-0.1,4.2-2.2,4-5.4C563.5,76.7,563.7,71.6,563.7,66.7z M361.9,67.5c0.2,0,0.5,0,0.7,0
			c0-5.3,0-10.6,0-15.9c0-2,0.4-4.3-2.7-4.3c-2.7,0-4.2,1.1-4.2,4.1c-0.1,10.4-0.2,20.9-0.5,31.3c-0.1,2.8,2.1,3.9,3.7,4.2
			c2.2,0.3,3-1.8,3-4C361.8,77.8,361.9,72.7,361.9,67.5z M560.8,31.5c-3.3-0.3-4.1,2.1-4.2,5.3c0,3,0.7,5.2,4.4,5
			c3.2-0.2,5.7-0.8,5.8-4.8C566.9,33.2,564.9,31.7,560.8,31.5z M404.5,41.7c3.9,0.9,5.3-2.5,5.3-5c0.1-2.3-1.2-5.3-5.1-5.2
			c-3.8,0.1-5.6,2.5-5.6,5.2C399.1,38.9,400.6,42.1,404.5,41.7z M604.2,31.9c-0.5-0.8-0.8-1.9-1.6-2.7c-1.2-1.1-1.8,0.3-2.8,0.9
			c-3.4,2.2-5.3,5.8-8.3,8.3c-1.6,1.3-0.5,3.3,0.5,4.5c1.3,1.5,2-0.6,3-1c3.8-1.5,4.8-5.8,8.3-7.5C603.7,34.2,603.8,33,604.2,31.9z
			 M359.4,41.7c4-0.1,5.8-1.6,5.8-5c0-3.8-2.1-5.3-5.6-5.1c-3.4,0.1-4.9,2-4.9,5.4C354.7,40.6,356.7,41.9,359.4,41.7z"/>
		<path class="st1" d="M595.5,45.4c10.7-1,22.1,9.6,22,21.5c-0.1,12.9-8.8,20.5-20.2,20.6c-15.3,0.1-22.3-7-22.5-19.9
			C574.7,55.2,582.5,45.4,595.5,45.4z M595.8,81.7c9.3,1,14.9-7,14.8-14.2c-0.2-10.3-6.2-16.1-15-16.4c-7.2-0.2-14.1,6.7-14.3,16.3
			C581.2,75.1,588,82.8,595.8,81.7z"/>
		<path class="st1" d="M254.5,70.6c-1.1-15.3,7.9-24.6,20.8-22.9c1.6,0.2,3.1,0.6,4.5,1.5c1.5,0.9,4,6,5.2-0.4
			c0.2-0.9,2-0.9,3.2-0.7c1.9,0.3,1.6,1.9,1.6,3.1c-0.2,7.1-0.7,14.3-0.5,21.4c0.1,3.6-2.2,8.6,4.5,9.5c1.3,0.2,1.3,2.5,0.6,4
			c-1.2,2.1-4,1.9-4.8,1.1c-4.1-4.3-7.2-1.3-11.5,0c-10.7,3.2-22.5-1.2-23.5-14.5C254.4,71.6,254.5,70.4,254.5,70.6z M282.7,69.1
			c0-2.4,0-4.1,0-5.7c0-4.3-1.6-8.1-5.8-9.2c-4.3-1.1-8.8-1.6-12.3,3c-4.5,5.9-6.1,11.6-2.6,18.5c3.9,7.7,11.2,9.2,17.8,3.8
			C283.6,76.5,282.4,72.2,282.7,69.1z"/>
		<path class="st1" d="M233.8,36.9c-4.5,0.2-10.1-1.1-13.1,1.1c-3.1,2.2-0.2,8.1-0.9,12.3s1.1,5.5,5.2,5.2c4.5-0.3,9,0.2,13.5,0
			c2.8-0.1,3.9,1.6,4,3.8c0.1,2.7-2.2,2.3-4,2.3c-5,0-10,0.1-15-0.1c-2.7-0.1-3.8,0.7-3.7,3.6c0.2,5.7-0.1,11.3-0.1,17
			c0,2.8-1.4,5.1-3.6,4.9c-1.6-0.2-3.8-2.1-3.4-5.4c0.7-5,2.3-9.9,1.8-15.1c-0.2-2.2-0.4-3.6-3-3.1c-2,0.4-2.9-0.8-3-2.4
			c-0.1-1.3-0.8-3.2,1.4-3.7c4.6-1,5.1-4.3,4.5-8.2c-0.5-3.4-1.2-6.7-1.6-10.1c-0.2-1.9-1.5-1.4-2.6-1.5c-2.3-0.1-1.3-2.9-2.9-3.5
			c0.5-1.2,1.1-2.4,2.6-2.6c1.5-0.1,2-0.7,2.7-2.1c1.4-2.7,4.5-2.8,5.8-0.4c1.4,2.6,3.2,2.1,4.9,1.9c6.5-0.6,13,0.2,19.4,0.6
			c2.2,0.1,5-0.1,4.8,3.4c-0.3,3.5-3.1,2.7-5.3,2.7c-2.8-0.1-5.6-0.3-8.5-0.4C233.8,37,233.8,37,233.8,36.9z"/>
		<path class="st1" d="M473.9,47.5c2.6,0.6,5.6-0.3,7.9,2.4c0.8,0.9,2.6,1.5,3.7-0.3c1.3-2.1,3.4-1.9,5.1-1.1c1.9,0.9,1.1,3,0.9,4.5
			c-1,7.6-0.7,15.3-0.7,22.9c0,2.4-0.8,5.4,3.3,6c1.4,0.2,1.9,2.4,1,4.2c-1.2,2.3-3.5,1.9-4.6,0.9c-3.7-3.3-6.2-2.1-10.3,0.1
			c-9.5,5.3-23.6-3.1-25-13.9c-1.2-9.8,1.1-18.1,9.9-23.8C467.9,47.7,470.8,47.9,473.9,47.5z M484.6,67c-0.1-1.5-0.1-3.7-0.4-5.8
			c-0.8-4.7-3.9-7.1-8.6-7.6c-6-0.6-9.5,1.4-11.5,6c-2.4,5.7-3.1,10.9-0.4,17c3,7,12.7,7.8,17.9,2.8C485.3,75.9,484.2,71.7,484.6,67
			z"/>
		<path class="st1" d="M632.5,54.3c3.7-5.9,8.3-9.5,14.6-8.4c5.6,1,9.1,4.6,11,10.6c2.8,9,0.9,18.1,1.5,27.1c0.1,2.2-1.7,4-3.8,3.9
			c-2.2-0.2-3.9-1.8-3.9-4.5c0-7.5-0.3-15,0-22.5c0.1-4.4-1.7-7.8-5.6-8.5c-3.9-0.6-7.1,2.1-9.3,5.7c-4.3,7-2.9,14.7-3.2,22.1
			c-0.1,1.5,0.1,3,0.1,4.5c0,2.2-1.2,3.2-3.4,3.3c-2.4,0.1-2.8-1.3-2.8-3.1c-0.3-8.6-0.4-17.3-0.8-25.9c-0.1-1.8,0.6-3.7-1.2-5.5
			c-1.2-1.2-3.2-4.1,0.3-5.5c2.6-1,4.5,0.1,5.2,3C631.3,51.6,631.8,52.6,632.5,54.3z"/>
		<path class="st1" d="M524.3,81.6c8.6,0,12-2.6,14.1-10.1c0.5-1.7,0.9-3,3.1-2.9c2.6,0.1,2.9,1.9,3,3.7c0.3,5.2-3.1,8.7-6.6,11.5
			c-6.8,5.5-19.1,5.1-26.3-0.1c-6.1-4.4-9.5-16.8-5.7-24.5c4.3-8.8,11.7-15.2,22.9-13.4c6.6,1.1,11.2,5.5,14.6,11
			c0.6,1,1.4,3.1-0.6,3.8c-1.7,0.6-3.7,1.5-5.1-1.1c-2.8-4.9-6.6-8.8-12.8-7.9c-4.1,0.5-8,2-10.2,5.9c-3.1,5.6-5,10.9-1.3,17.4
			C516.2,80,519.9,81.8,524.3,81.6z"/>
		<path class="st1" d="M324.1,45.5c7.3,0.3,12.8,3.9,16.9,9.7c1.1,1.6,2.1,4.3-0.5,5.5c-1.8,0.8-3.9,0.5-5-2.3
			c-1.7-4.4-5.7-6.2-10-6.9c-5.3-0.9-9.8,1.6-12.5,5.7c-5.5,8.3-5.3,15.3,2.4,22.2c4.6,4.1,16.4,2.5,19.4-2.9c1-1.8,3-3,2.9-5.5
			c-0.1-1.3,0.5-2.6,2.4-2.5c2,0.2,2.4,1.8,2.5,3.1c0.4,4.9-1.7,9-5.4,11.8c-7,5.4-20,5.2-27.3,0.1c-4.8-3.4-7.2-14.3-5.8-20.5
			c1.2-5.3,2.9-9.6,7.3-12.9C315.3,47.4,319.2,45.3,324.1,45.5z"/>
		<path class="st1" d="M425.1,65.3c0.1-0.8,0.1-2.6,0.3-4.4c0.3-3.1,0.6-6.1-4.2-5.5c-1.5,0.2-2.9-0.5-2.8-2.6
			c0.1-1.4,0.6-2.4,2.1-2.1c7.3,1.4,5.5-5,6.9-8.3c0.8-1.9,0.3-4.3,0.7-6.4c0.3-1.5,0.7-3.7,3-3.1c1.9,0.5,3.5,1.6,3.7,4.1
			c0.3,3.5-1.7,6.3-2.1,9.6c-0.4,3.1-0.1,5.3,3.9,4.6c1.1-0.2,2.3,0.2,3.5,0.3c1.3,0.2,1.4,1.2,1.4,2.2c0,1.9-1.3,2-2.7,2.1
			c-2.1,0.2-4.8-1-6.2,0.6c-1.7,1.8-0.8,4.8-0.9,7.2c-0.1,4.3-0.1,8.6,0.8,12.9c0.6,2.6,1.6,4.7,4.5,5.1c3.4,0.4,4.2-2.1,4.3-4.6
			c0.1-2,1-2.7,2.7-2.6c2,0.1,3,1.5,3.1,3.3c0.3,3.7-4.6,9.4-8.4,10c-5,0.8-9.8-1.8-11-6.4c-0.6-2.5-2.6-4.4-2.3-7.3
			C425.8,71.3,425.3,68.8,425.1,65.3z"/>
		<path class="st1" d="M377.5,60.1c0-6,0.1-12,0-17.9c-0.1-3.1,0.5-6.1-1.1-9.2c-0.7-1.4-0.5-3.7-0.1-5.4c0.5-2,1.8-4.4,3.9-4.4
			c2.5,0.1,2.7,2.6,2.7,4.9c0,10.6,0,21.3,0,31.9c0,6.6-0.3,13.1,1.3,19.6c0.3,1.3,0.6,3.1-0.5,4.3c-1,1.1-1.5,2.7-3.7,2.3
			c-2.4-0.5-2.3-1.9-2.3-3.6c0-7.5,0-14.9,0-22.4C377.6,60.1,377.6,60.1,377.5,60.1z"/>
		<path class="st1" d="M407.2,66c0,4.8,0,9.6,0,14.4c0,0.3,0,0.7,0,1c-0.4,2.7-1.7,5.7-4.2,5.6c-2.7-0.1-2.9-3.4-2.8-5.9
			c0.2-9.8,0.4-19.5,0.6-29.3c0-2.2-0.1-4.5,3.1-4.4c3.1,0.1,4,1.8,3.8,4.8c-0.3,4.6-0.1,9.3-0.1,13.9C407.5,66,407.4,66,407.2,66z"
			/>
		<path class="st1" d="M563.7,66.7c0,5-0.2,10,0.1,15c0.2,3.2-1.7,5.4-4,5.4c-2.6,0.1-2.9-2.8-2.8-5.3c0.3-9.8,0.4-19.6,0.6-29.5
			c0.1-2.3-0.7-5.2,3.5-5c4.3,0.2,3,3.1,3.1,5.4c0.1,4.7,0,9.3,0,14C564,66.7,563.9,66.7,563.7,66.7z"/>
		<path class="st1" d="M361.9,67.5c0,5.1,0,10.3,0,15.4c0,2.2-0.8,4.3-3,4c-1.6-0.2-3.8-1.3-3.7-4.2c0.3-10.4,0.4-20.9,0.5-31.3
			c0-3,1.5-4.1,4.2-4.1c3.1,0,2.7,2.3,2.7,4.3c0,5.3,0,10.6,0,15.9C362.3,67.5,362.1,67.5,361.9,67.5z"/>
		<path class="st1" d="M560.8,31.5c4.1,0.1,6.1,1.7,6,5.4c-0.1,4-2.6,4.6-5.8,4.8c-3.7,0.2-4.4-2-4.4-5
			C556.7,33.6,557.5,31.2,560.8,31.5z"/>
		<path class="st1" d="M404.5,41.7c-4,0.4-5.4-2.8-5.4-5c0-2.7,1.9-5.2,5.6-5.2c3.9-0.1,5.2,3,5.1,5.2
			C409.8,39.2,408.4,42.6,404.5,41.7z"/>
		<path class="st1" d="M604.2,31.9c-0.4,1.1-0.4,2.3-0.9,2.5c-3.5,1.7-4.5,6-8.3,7.5c-1,0.4-1.7,2.4-3,1c-1-1.1-2.1-3.2-0.5-4.5
			c3.1-2.5,4.9-6.2,8.3-8.3c0.9-0.6,1.6-2,2.8-0.9C603.3,29.9,603.7,31.1,604.2,31.9z"/>
		<path class="st1" d="M359.4,41.7c-2.6,0.1-4.7-1.1-4.7-4.8c0-3.3,1.5-5.2,4.9-5.4c3.5-0.1,5.6,1.4,5.6,5.1
			C365.2,40.1,363.4,41.7,359.4,41.7z"/>
		<path class="st0" d="M595.8,81.7c-7.8,1.1-14.7-6.6-14.5-14.3c0.2-9.5,7.1-16.5,14.3-16.3c8.8,0.3,14.8,6.1,15,16.4
			C610.8,74.7,605.1,82.7,595.8,81.7z"/>
		<path class="st0" d="M282.7,69.1c-0.2,3.2,0.9,7.4-2.9,10.5c-6.7,5.4-14,3.8-17.8-3.8c-3.5-6.9-1.9-12.7,2.6-18.5
			c3.5-4.6,8-4.2,12.3-3c4.2,1.1,5.8,4.9,5.8,9.2C282.7,65,282.7,66.7,282.7,69.1z"/>
		<path class="st0" d="M484.6,67c-0.4,4.7,0.7,8.9-2.9,12.4c-5.2,5-14.8,4.2-17.9-2.8c-2.7-6.2-2.1-11.3,0.4-17
			c1.9-4.5,5.4-6.6,11.5-6c4.7,0.5,7.7,2.8,8.6,7.6C484.5,63.3,484.5,65.5,484.6,67z"/>
	</g>
</g>
<polygon class="st0" points="197.7,19.7 203.7,94.3 671.7,101 667,31.5 355.2,23.2 "/>
</svg>
