<?xml version="1.0" encoding="UTF-8" standalone="no"?>
<!-- Created with Inkscape (http://www.inkscape.org/) -->

<svg
   xmlns:dc="http://purl.org/dc/elements/1.1/"
   xmlns:cc="http://creativecommons.org/ns#"
   xmlns:rdf="http://www.w3.org/1999/02/22-rdf-syntax-ns#"
   xmlns:svg="http://www.w3.org/2000/svg"
   xmlns="http://www.w3.org/2000/svg"
   xmlns:sodipodi="http://sodipodi.sourceforge.net/DTD/sodipodi-0.dtd"
   xmlns:inkscape="http://www.inkscape.org/namespaces/inkscape"
   width="150"
   height="146.172"
   viewBox="0 0 39.687499 38.674675"
   version="1.1"
   id="svg9478"
   inkscape:version="0.92.1 r15371"
   sodipodi:docname="facilitaciones.svg">
  <defs
     id="defs9472" />
  <sodipodi:namedview
     id="base"
     pagecolor="#ffffff"
     bordercolor="#666666"
     borderopacity="1.0"
     inkscape:pageopacity="0.0"
     inkscape:pageshadow="2"
     inkscape:zoom="2.8"
     inkscape:cx="78.092029"
     inkscape:cy="65.222641"
     inkscape:document-units="px"
     inkscape:current-layer="layer1"
     showgrid="false"
     units="px"
     fit-margin-top="10"
     fit-margin-left="10"
     fit-margin-right="10"
     fit-margin-bottom="10"
     inkscape:window-width="1366"
     inkscape:window-height="709"
     inkscape:window-x="0"
     inkscape:window-y="0"
     inkscape:window-maximized="1" />
  <metadata
     id="metadata9475">
    <rdf:RDF>
      <cc:Work
         rdf:about="">
        <dc:format>image/svg+xml</dc:format>
        <dc:type
           rdf:resource="http://purl.org/dc/dcmitype/StillImage" />
        <dc:title></dc:title>
      </cc:Work>
    </rdf:RDF>
  </metadata>
  <g
     inkscape:label="Capa 1"
     inkscape:groupmode="layer"
     id="layer1"
     transform="translate(60.543354,-118.73922)">
    <g
       transform="matrix(0.7441442,0,0,0.7441442,-469.47698,-666.35934)"
       id="g1546"
       style="stroke-width:0.35555384">
      <g
         id="g1540"
         style="stroke-width:0.35555384">
        <circle
           style="fill:#8ed3f1;stroke-width:0.35555384"
           cx="571.62701"
           cy="1074.9351"
           r="16.344"
           id="circle1456" />
        <g
           id="g1526"
           style="stroke-width:0.35555384">
          <g
             id="g1462"
             style="stroke-width:0.35555384">
            <line
               style="fill:#ffffff;stroke-width:0.35555384"
               x1="576.203"
               y1="1062.424"
               x2="576.203"
               y2="1102.702"
               id="line1458" />
            <path
               inkscape:connector-curvature="0"
               d="m 576.203,1103.452 c -0.415,0 -0.75,-0.336 -0.75,-0.75 v -40.278 c 0,-0.414 0.335,-0.75 0.75,-0.75 0.414,0 0.75,0.336 0.75,0.75 v 40.278 c 0,0.414 -0.336,0.75 -0.75,0.75 z"
               id="path1460"
               style="stroke-width:0.35555384" />
          </g>
          <g
             id="g1468"
             style="stroke-width:0.35555384">
            <line
               style="fill:#ffffff;stroke-width:0.35555384"
               x1="553.841"
               y1="1082.563"
               x2="598.56299"
               y2="1082.563"
               id="line1464" />
            <path
               inkscape:connector-curvature="0"
               d="m 598.563,1083.313 h -44.722 c -0.414,0 -0.75,-0.336 -0.75,-0.75 0,-0.415 0.336,-0.75 0.75,-0.75 h 44.722 c 0.414,0 0.75,0.335 0.75,0.75 0,0.415 -0.336,0.75 -0.75,0.75 z"
               id="path1466"
               style="stroke-width:0.35555384" />
          </g>
          <g
             id="g1482"
             style="stroke-width:0.35555384">
            <g
               id="g1474"
               style="stroke-width:0.35555384">
              <polygon
                 style="fill:#ffffff;stroke-width:0.35555384"
                 points="572.327,1085.633 559.495,1085.633 559.495,1098.465 567.93,1098.465 572.327,1094.068 "
                 id="polygon1470" />
              <path
                 inkscape:connector-curvature="0"
                 d="m 567.929,1099.215 h -8.435 c -0.414,0 -0.75,-0.336 -0.75,-0.75 v -12.832 c 0,-0.414 0.336,-0.75 0.75,-0.75 h 12.832 c 0.414,0 0.75,0.336 0.75,0.75 v 8.436 c 0,0.199 -0.079,0.39 -0.22,0.53 l -4.396,4.396 c -0.14,0.141 -0.332,0.22 -0.531,0.22 z m -7.684,-1.5 h 7.375 l 3.957,-3.957 v -7.375 h -11.332 z m 12.082,-3.647 h 0.01 z"
                 id="path1472"
                 style="stroke-width:0.35555384" />
            </g>
            <g
               id="g1480"
               style="stroke-width:0.35555384">
              <polygon
                 style="fill:#ffffff;stroke-width:0.35555384"
                 points="568.129,1093.668 572.327,1093.668 568.129,1097.745 "
                 id="polygon1476" />
              <path
                 inkscape:connector-curvature="0"
                 d="m 568.128,1098.495 c -0.098,0 -0.197,-0.02 -0.291,-0.06 -0.278,-0.117 -0.459,-0.389 -0.459,-0.69 v -4.077 c 0,-0.414 0.336,-0.75 0.75,-0.75 h 4.198 c 0.306,0 0.58,0.185 0.694,0.468 0.115,0.283 0.047,0.607 -0.172,0.82 l -4.197,4.077 c -0.142,0.139 -0.331,0.212 -0.523,0.212 z m 0.75,-4.077 v 1.553 l 1.6,-1.553 z"
                 id="path1478"
                 style="stroke-width:0.35555384" />
            </g>
          </g>
          <g
             id="g1496"
             style="stroke-width:0.35555384">
            <g
               id="g1488"
               style="stroke-width:0.35555384">
              <polygon
                 style="fill:#ffffff;stroke-width:0.35555384"
                 points="572.327,1066.336 559.495,1066.336 559.495,1079.168 567.93,1079.168 572.327,1074.771 "
                 id="polygon1484" />
              <path
                 inkscape:connector-curvature="0"
                 d="m 567.929,1079.918 h -8.435 c -0.414,0 -0.75,-0.336 -0.75,-0.75 v -12.832 c 0,-0.414 0.336,-0.75 0.75,-0.75 h 12.832 c 0.414,0 0.75,0.336 0.75,0.75 v 8.436 c 0,0.199 -0.079,0.39 -0.22,0.53 l -4.396,4.396 c -0.14,0.142 -0.332,0.22 -0.531,0.22 z m -7.684,-1.5 h 7.375 l 3.957,-3.957 v -7.375 h -11.332 z m 12.082,-3.647 h 0.01 z"
                 id="path1486"
                 style="stroke-width:0.35555384" />
            </g>
            <g
               id="g1494"
               style="stroke-width:0.35555384">
              <polygon
                 style="fill:#ffffff;stroke-width:0.35555384"
                 points="568.129,1074.371 572.327,1074.371 568.129,1078.449 "
                 id="polygon1490" />
              <path
                 inkscape:connector-curvature="0"
                 d="m 568.128,1079.199 c -0.098,0 -0.197,-0.02 -0.291,-0.06 -0.278,-0.117 -0.459,-0.39 -0.459,-0.69 v -4.078 c 0,-0.414 0.336,-0.75 0.75,-0.75 h 4.198 c 0.306,0 0.58,0.186 0.694,0.469 0.115,0.282 0.047,0.606 -0.172,0.819 l -4.197,4.077 c -0.142,0.139 -0.331,0.213 -0.523,0.213 z m 0.75,-4.078 v 1.554 l 1.6,-1.554 z"
                 id="path1492"
                 style="stroke-width:0.35555384" />
            </g>
          </g>
          <g
             id="g1510"
             style="stroke-width:0.35555384">
            <g
               id="g1502"
               style="stroke-width:0.35555384">
              <polygon
                 style="fill:#ffffff;stroke-width:0.35555384"
                 points="593.136,1085.633 580.304,1085.633 580.304,1098.465 588.74,1098.465 593.136,1094.068 "
                 id="polygon1498" />
              <path
                 inkscape:connector-curvature="0"
                 d="m 588.74,1099.215 h -8.436 c -0.414,0 -0.75,-0.336 -0.75,-0.75 v -12.832 c 0,-0.414 0.336,-0.75 0.75,-0.75 h 12.832 c 0.414,0 0.75,0.336 0.75,0.75 v 8.436 c 0,0.199 -0.079,0.39 -0.22,0.53 l -4.396,4.396 c -0.141,0.141 -0.331,0.22 -0.53,0.22 z m -7.686,-1.5 h 7.375 l 3.957,-3.957 v -7.375 h -11.332 z m 12.082,-3.647 h 0.01 z"
                 id="path1500"
                 style="stroke-width:0.35555384" />
            </g>
            <g
               id="g1508"
               style="stroke-width:0.35555384">
              <polygon
                 style="fill:#ffffff;stroke-width:0.35555384"
                 points="588.939,1093.668 593.136,1093.668 588.939,1097.745 "
                 id="polygon1504" />
              <path
                 inkscape:connector-curvature="0"
                 d="m 588.939,1098.495 c -0.099,0 -0.198,-0.02 -0.292,-0.06 -0.277,-0.117 -0.458,-0.389 -0.458,-0.69 v -4.077 c 0,-0.414 0.336,-0.75 0.75,-0.75 h 4.197 c 0.306,0 0.58,0.185 0.695,0.468 0.114,0.283 0.047,0.607 -0.173,0.82 l -4.197,4.077 c -0.142,0.139 -0.331,0.212 -0.522,0.212 z m 0.75,-4.077 v 1.553 l 1.599,-1.553 z"
                 id="path1506"
                 style="stroke-width:0.35555384" />
            </g>
          </g>
          <g
             id="g1524"
             style="stroke-width:0.35555384">
            <g
               id="g1516"
               style="stroke-width:0.35555384">
              <polyline
                 style="fill:#ffffff;stroke-width:0.35555384"
                 points="587.332,1066.336 580.304,1066.336 580.304,1079.168 588.74,1079.168 593.136,1074.771        593.136,1066.336 592.139,1066.336      "
                 id="polyline1512" />
              <path
                 inkscape:connector-curvature="0"
                 d="m 588.74,1079.918 h -8.436 c -0.414,0 -0.75,-0.336 -0.75,-0.75 v -12.832 c 0,-0.414 0.336,-0.75 0.75,-0.75 h 7.027 c 0.414,0 0.75,0.336 0.75,0.75 0,0.415 -0.336,0.75 -0.75,0.75 h -6.277 v 11.332 h 7.375 l 3.957,-3.957 v -7.375 h -0.247 c -0.415,0 -0.75,-0.335 -0.75,-0.75 0,-0.414 0.335,-0.75 0.75,-0.75 h 0.997 c 0.414,0 0.75,0.336 0.75,0.75 v 8.436 c 0,0.199 -0.079,0.39 -0.22,0.53 l -4.396,4.396 c -0.141,0.142 -0.331,0.22 -0.53,0.22 z"
                 id="path1514"
                 style="stroke-width:0.35555384" />
            </g>
            <g
               id="g1522"
               style="stroke-width:0.35555384">
              <polygon
                 style="fill:#ffffff;stroke-width:0.35555384"
                 points="588.939,1074.371 593.136,1074.371 588.939,1078.449 "
                 id="polygon1518" />
              <path
                 inkscape:connector-curvature="0"
                 d="m 588.939,1079.199 c -0.099,0 -0.198,-0.02 -0.292,-0.06 -0.277,-0.117 -0.458,-0.39 -0.458,-0.69 v -4.078 c 0,-0.414 0.336,-0.75 0.75,-0.75 h 4.197 c 0.306,0 0.58,0.186 0.695,0.469 0.114,0.282 0.047,0.606 -0.173,0.819 l -4.197,4.077 c -0.142,0.139 -0.331,0.213 -0.522,0.213 z m 0.75,-4.078 v 1.554 l 1.599,-1.554 z"
                 id="path1520"
                 style="stroke-width:0.35555384" />
            </g>
          </g>
        </g>
        <g
           id="g1532"
           style="stroke-width:0.35555384">
          <polyline
             style="fill:#ffffff;stroke-width:0.35555384"
             points="584.615,1069.567 586.335,1072.284 593.852,1064.043    "
             id="polyline1528" />
          <path
             inkscape:connector-curvature="0"
             d="m 586.335,1073.034 c -0.021,0 -0.044,0 -0.065,0 -0.232,-0.021 -0.443,-0.148 -0.568,-0.346 l -1.72,-2.717 c -0.222,-0.351 -0.118,-0.813 0.231,-1.035 0.351,-0.222 0.813,-0.117 1.035,0.232 l 1.195,1.887 6.854,-7.515 c 0.279,-0.306 0.754,-0.328 1.06,-0.049 0.307,0.279 0.328,0.753 0.049,1.06 l -7.516,8.24 c -0.143,0.157 -0.345,0.246 -0.555,0.246 z"
             id="path1530"
             style="stroke-width:0.35555384" />
        </g>
        <g
           id="g1538"
           style="stroke-width:0.35555384">
          <path
             style="fill:#ffffff;stroke-width:0.35555384"
             inkscape:connector-curvature="0"
             d="m 559.187,1081.398 c 1.233,1.783 -0.682,3.752 -2.498,2.568 -0.088,-0.058 -0.168,-0.135 -0.228,-0.222 -1.234,-1.782 0.681,-3.751 2.497,-2.567 0.089,0.058 0.168,0.135 0.229,0.221 z"
             id="path1534" />
          <path
             inkscape:connector-curvature="0"
             d="m 557.858,1085.046 c -1.363,0.02 -2.489,-1.075 -2.508,-2.439 -0.019,-1.364 1.076,-2.49 2.439,-2.509 1.365,-0.02 2.49,1.076 2.51,2.439 0.019,1.365 -1.076,2.49 -2.441,2.509 z m -0.049,-3.508 c -0.57,0.01 -1.026,0.479 -1.019,1.048 0.008,0.57 0.478,1.028 1.048,1.021 0.569,-0.01 1.028,-0.479 1.021,-1.049 -0.007,-0.57 -0.48,-1.028 -1.05,-1.02 z"
             id="path1536"
             style="stroke-width:0.35555384" />
        </g>
      </g>
      <polygon
         style="fill:#82b945;stroke-width:0.35555384"
         points="559.963,1066.669 563.06,1066.669 563.06,1075.383 568.605,1075.383 568.605,1079.14 559.531,1079.14 "
         id="polygon1542" />
      <polygon
         style="fill:#e7829b;stroke-width:0.35555384"
         points="580.276,1085.969 583.373,1085.969 583.373,1094.683 588.917,1094.683 588.917,1098.44 579.843,1098.44 "
         id="polygon1544" />
    </g>
  </g>
</svg>
