<?xml version="1.0" encoding="utf-8"?>
<!-- Generator: Adobe Illustrator 19.0.0, SVG Export Plug-In . SVG Version: 6.00 Build 0)  -->
<svg version="1.1" id="Capa_1" xmlns="http://www.w3.org/2000/svg" xmlns:xlink="http://www.w3.org/1999/xlink" x="0px" y="0px"
	 width="1260.3px" height="467.6px" viewBox="355 -178.6 1260.3 467.6" style="enable-background:new 355 -178.6 1260.3 467.6;"
	 xml:space="preserve">
<style type="text/css">
	.st0{fill:#EA626D;}
	.st1{fill:#E24852;}
	.st2{fill:#FEFEFE;}
</style>
<g id="Capa_2">
</g>
<g>
	<path class="st0" d="M660.9-105.4c9.7-1.8,19.5-2,29.3-3c28.8-2.7,57.7-5.3,86.5-7.8c24.4-2.2,48.8-4.2,73.1-6.4
		c27.8-2.5,55.7-5.1,83.5-7.6c24.2-2.2,48.4-4.2,72.6-6.4c28-2.5,56-5.1,84-7.6c24.2-2.2,48.4-4.2,72.6-6.4
		c28.2-2.5,56.4-5.1,84.5-7.6c16.6-1.5,33.2-2.8,49.7-4.5c4.6-0.5,6.2,1.3,6.9,5.4c2.6,16.1,5.5,32.1,8.1,48.2c1.9,12,3.7,24,5.3,36
		c0.5,3.6,2.1,4.4,5.5,4.4c37.6-0.8,75.3-1.4,112.9-2.1c37.8-0.7,75.6-1.3,113.4-2c10-0.2,9.8-0.1,10.1,9.8c1,39.3,1,78.6,0.7,117.9
		c-0.1,7.1-0.1,7.3-7.1,7.3c-27.6,0.1-55.1,0-82.7,0c0,0.7-0.1,1.3-0.1,2c9,2,18,4,27,6c8.9,2,17.8,4.1,26.8,5.9
		c2.9,0.6,4.3,1.6,4.3,4.8c0,42,0.5,84-0.4,126c-0.1,4.4-1.4,5.4-5.9,4.3c-14.7-3.6-29.5-6.7-44.5-10c-0.1,1.3-0.3,2.3-0.3,3.3
		c-0.2,8.8-0.2,8.8-8.7,8.8c-21,0-42-0.3-63,0.2c-28.1,0.7-56.3,0.5-84.4,0.9c-34.5,0.6-68.9,1.2-103.4,2
		c-36.1,0.9-72.2,1.9-108.3,3c-28.1,0.9-56.2,1.9-84.3,3c-38.4,1.6-76.8,3.2-115.2,5c-38.1,1.8-76.1,3.8-114.2,6
		c-37.6,2.2-75.1,4.4-112.6,7c-46.3,3.1-92.6,6.5-138.9,10c-26.7,2-53.4,4.4-80.1,6.6c-6.8,0.6-6.7,0.5-6.8-6.2
		c-0.5-36-1.2-71.9-1.7-107.9c-0.1-5.5,0.6-11,0.6-16.5c0-3,0.9-4.3,4.3-4.5c9.1-0.6,18.2-1.7,27.4-2.3c3.4-0.2,4-1.7,4-4.7
		c-0.2-9.8-0.3-19.7-0.2-29.5c0.1-3.5-1-4.5-4.5-4.5c-22.5,0.5-45,0.8-67.4,1.2c-9.8,0.2-9.8,0.3-9.9-9.3c-0.2-16.3-0.3-32.7-0.5-49
		c-0.2-18.2-0.4-36.3-0.5-54.5c0-6.2,0.5-12.3,0.6-18.5c0-3.1,1.2-3.9,4.1-4c19.1-0.2,38.3-0.6,57.4-1c7-0.1,14-0.6,21-0.6
		c2.8,0,3.8-0.7,3.3-3.7c-1.5-8.5-2.6-17.1-4-25.6c-1.1-6.6-1.1-6.6,5.3-7.4c1-0.1,2,0,3-0.1c0,8-0.2,16,0,24
		c0.4,27.8-1.1,55.6,1,83.3c0.1,1.9-0.5,4.4,2.7,4.3c4.8-0.2,9.5,1.3,14.4,1.1c6.8-0.2,13.6,0.7,20.4,1.1c15.4,0.9,30.7,2.4,46,3.7
		c1.2,0.1,2.3-0.3,2.9-1.5c0.6,0.2,1.1,0.3,1.7,0.5c0.7,0.3,1.4,0.9,2.2,1c13.2,1,26.4,2.3,39.6,3c20.2,1,40.3,2.6,60.5,4
		c14.7,1,29.4,2,44.1,2.9c15.5,1,31.1,2,46.6,3.1c14.9,1,29.8,2,44.6,3c15,1,30.1,2,45.1,3s30.1,1.9,45.1,3
		c14.2,1.1,28.4,2,42.6,2.9c20.2,1.3,40.3,2.6,60.5,4c14.9,1,29.8,2,44.6,3c15.4,1,30.8,1.9,46.1,3c18,1.3,36.1,1.8,54.1,3.3
		c5.5,0.4,10.9,0.4,16.4,1c14.5,1.4,29.1,2.4,43.6,2.9c0.4,1.5-0.5,1.9-1.8,2.3c-1.5,0.5-1.6,2-0.1,2.4c2.8,0.6,2,2.6,2.1,4.3
		c0.1,4.1-0.1,8.3,0.1,12.4c0.2,4.5,4.7,6.8,8.6,4.6c0.8-0.4,1.4-0.9,1.2-1.9c-0.3-1.1-1.2-1-2-0.8c-4.2,0.8-4.7-1.7-4.7-4.9
		c0-2.5,0-5,0-7.5c0-3-0.9-6.6,4.3-6.2c1.3,0.1,1-1.5,1.2-2.4c3.2-1.6,6.5-3.2,9.1,0.9c-1.1,1.2-2.4,2.3-3.4,3.6
		c-3.9,5.4-3,12.8,2,17.1c4.5,3.8,11.5,3.8,15.6-0.2c0.8-0.8,2.6-1.7,1.1-3.2c-1.2-1.2-1.9,0.4-2.8,1c-5.4,4.2-11.9,2.8-14.1-2.9
		c-0.8-2.1-0.5-3.2,2-3.2c3.8,0,7.7,0.1,11.5-0.1c2-0.1,4.8,1.3,5.8-1.2c1-2.4-0.1-4.9-1.6-7c-1-1.3-2.2-2.5-3.3-3.8
		c3.2-1.9,6.7,0.2,10-0.6c0,6.8,0.1,13.6,0.1,20.5c0,1.1-0.3,2.6,1.5,2.5c1.8,0,1.4-1.5,1.4-2.6c0.1-3.3-0.1-6.7,0.1-10
		c0.2-4.7,4.4-8.8,8.7-8.5c5.1,0.4,5.1,4.4,5.2,8.1c0.1,3.5,0,7,0.1,10.5c0,1.1-0.3,2.5,1.5,2.5c1.4,0,1.4-1.2,1.4-2.1
		c-0.3-6.3,0.8-12.6-0.9-18.9c3.1,0.1,6.3,0.2,9.4,0.3c-1.6,2.2-2.7,4.6-3.2,7.2c-0.8,4.8,1.9,10.3,6.2,12.7
		c4.4,2.5,10.1,2,13.5-1.3c0.8-0.8,2.7-1.6,1.4-3.1c-1.2-1.4-2.2-0.2-3.3,0.7c-4.7,3.5-8.7,3.3-12-0.4c-3.2-3.5-3.3-9.9-0.3-13.4
		c3.1-3.6,7.3-3.9,11.9-0.7c1.6,1.1,3.1,2.5,3.8-0.7c3.2-0.6,2.4-3.1,2.5-5.1c0.5-11,0.5-21.9,0.7-32.9c0.6-31.1,0.9-62.2-0.7-93.4
		c-0.1-2.3-0.8-3.8-3.4-3.9c-5.5-0.3-10.9-0.7-16.4-1c-6.5-0.4-12.9-0.8-19.4-1.2c-17.4-1-34.7-2.6-52-3.8
		c-12.6-0.9-25.2-1.3-37.7-2.1c-18.7-1.2-37.3-2.5-56-4c-5.8-0.5-11.6-0.7-17.4-1c-18-1.1-36-2.6-54-3.8
		c-11.9-0.8-23.8-1.3-35.7-2.1c-17-1.2-34-2.8-51-3.8c-14.7-0.9-29.4-2-44.1-2.9c-20.5-1.3-41-2.6-61.5-4.1c-14.5-1-29.1-1.8-43.6-3
		c-17.2-1.4-34.4-1.9-51.6-3.2c-5.8-0.4-11.6-0.7-17.4-1c-18.7-1.2-37.3-2.6-56-3.9c-11.1-0.8-22.1-2-33.2-2
		C662-103.6,661.1-104,660.9-105.4z M944.7,139.1c1.8,0,3.7,0,5.5,0c4.9,0,5.8-1.3,4-6c-1.9-5.2-6.4-8.1-12-7.7
		c-5.3,0.3-9.4,3.9-10.7,9.5c-1.3,5.2,1.2,11,5.8,13.7c4.3,2.5,10.5,2,13.9-1.4c0.8-0.8,2.6-1.7,1.1-3.2c-1.2-1.2-1.9,0.3-2.8,1
		c-4.6,3.6-9.7,3.3-12.8-0.7c-1-1.3-2.4-2.8-1.5-4.5c0.8-1.6,2.7-0.8,4.1-0.9C941.1,139,942.9,139.1,944.7,139.1z M750.5,135.4
		c-1,0.1-2,0-3,0.2c-5,0.8-8.1,4.2-7.5,8.2c0.6,4.4,5.3,7.2,10.3,6.2c1-0.2,2-0.5,2.8-0.9c1.9-1,3.5-2.2,5.6,0.2
		c1.1,1.3,3.4,0.4,2.5-1.7c-1.7-3.9-0.7-7.9-0.9-11.8c-0.5-9.3-8.5-13.6-16.6-8.6c-0.8,0.5-2.1,0.9-1.6,2.1c0.6,1.5,1.7,0.4,2.5,0.1
		c3-1.4,6-2.2,9.1-0.7c2.5,1.2,3.7,3.7,3.2,6.2c-0.6,3.1-2.9,0.2-4.4,0.7C751.9,135.7,751.1,135.5,750.5,135.4z M589.9,130.2
		c3.6-1,5.8-1.9,8.1-2.3c4-0.6,6.9,0.9,7.8,5.1c0.4,1.9,0.6,3.7-2.6,2.8c-3.2-0.9-6.6-0.9-9.8,0.6c-2.7,1.3-4.7,3.2-4.5,6.5
		c0.2,3.4,2.1,5.5,5.1,6.7c2.7,1.1,5.3,0.6,7.7-0.5c2.1-0.9,3.9-2.3,6.1,0.2c0.9,1,3.1,0.3,2.4-1.5c-2-5-0.3-10.2-1.3-15.3
		c-0.7-3.9-3-6.4-6.8-7C597.9,124.9,593.8,125.3,589.9,130.2z M829.2,137.3c0,3.2,0,6.3,0,9.5c0,1.1-0.2,2.6,1.4,2.7
		c2,0.2,1.9-1.4,1.9-2.8c0-3.5-0.1-7,0.1-10.5c0.3-4.4,4.5-8.2,8.7-8c5.1,0.3,4.8,4.3,4.9,7.7c0.2,3.7,0,7.3,0.1,11
		c0,1.2,0,2.5,1.6,2.5c1.7,0,1.6-1.3,1.6-2.5c0-4,0.1-8,0-12c-0.2-9-5-11.9-13.1-8.2c-1,0.5-1.8,1.5-3.2,1c-4-1.4-4-1.4-4,2.9
		C829.2,133,829.2,135.2,829.2,137.3z M915,137.7c0-7.1-4.9-12.2-11.6-12.3c-6.6-0.1-12.4,5.8-12.2,12.5s5.5,12.3,11.9,12.4
		C909.9,150.4,915,144.9,915,137.7z M824,137.9c0-7.1-4.7-12.3-11.4-12.5c-6.7-0.2-12.4,5.5-12.4,12.3s5.6,12.7,12.1,12.6
		C819,150.2,824,144.9,824,137.9z M701.7,125.4c-6.7-0.1-11.8,5.1-11.9,12c-0.1,7.2,5,12.8,11.7,12.9c6.4,0,11.9-5.5,12.1-12.1
		C713.7,131.2,708.4,125.4,701.7,125.4z M961.5,137.6c0-3.6,1.2-6.6,4.4-8.3c3.2-1.7,6.4-1.5,9.3,0.9c1.2,1,2.8,2.3,3.8,0.8
		c1-1.4-1-2.6-2.1-3.4c-4.4-3.6-12-2.7-15.9,1.7c-4.3,4.9-4,13.1,0.8,17.7c4.4,4.2,11.6,4.5,15.9,0.4c0.8-0.8,2.7-1.6,1.4-3.1
		c-1.2-1.4-2.2-0.3-3.3,0.7c-2.9,2.5-6.1,3.4-9.6,1.4C962.9,144.4,961.6,141.4,961.5,137.6z M668.3,129.2c-1.3-1.1-0.1-3.8-2.5-3.3
		c-1.7,0.4-1,2.2-1,3.5c-0.1,5.8,0,11.6,0,17.5c0,1.1-0.3,2.6,1.4,2.6c1.7,0,1.5-1.5,1.5-2.6c0-3.7-0.2-7.3,0.1-11
		c0.3-4,4.7-7.6,8.6-7.5c4.8,0.2,4.9,4,5.2,7.2c0.4,3.6,0.1,7.3,0.2,11c0,1.2-0.6,3,1.6,2.9c1.6-0.1,1.4-1.6,1.4-2.7
		c0-4.3,0.2-8.7,0-13c-0.4-7.5-5.8-10.5-12.5-7.1C670.9,127.3,669.7,128.2,668.3,129.2z M641.2,129.1c-1.2-0.8,0-3.6-2.2-3.3
		c-2,0.3-1.2,2.5-1.2,3.8c-0.1,5.7-0.1,11.3,0,17c0,1-0.4,2.6,1.2,2.8c2.1,0.2,1.7-1.6,1.7-2.8c0.1-3.2-0.1-6.3,0-9.5
		c0.2-4.8,4.1-8.8,8.5-8.7c5.4,0.1,5.1,4.4,5.4,7.9c0.3,3.6,0.1,7.3,0.1,11c0,1,0,2.1,1.4,2.2c1.4,0,1.6-1,1.6-2.1
		c0-5.2,0.3-10.3-0.3-15.4c-0.7-5.7-5.1-8-10.7-5.9C644.9,126.6,643.3,127.9,641.2,129.1z M777.8,125.4c-6,0-10.2,2.9-11.9,8
		c-1.9,5.5,0,11.5,4.5,14.7c4.1,2.9,9.7,3,13.6,0.1c1.2-0.9,3.5-2.1,2.4-3.7c-1.4-2.2-2.7,0.1-4,1c-5.8,4.1-12.8,1-13.7-6.1
		c-0.5-3.9,0.2-7.4,3.7-9.7c3.6-2.3,7.3-2,10.5,1c1,0.9,2.2,1.3,3.1,0.4c1.2-1.2-0.3-2-1-2.8C782.9,126.1,780.3,125.2,777.8,125.4z
		 M879.2,125.3c-6.3,0-10.7,3.3-12.3,8.6c-1.6,5.3,0.4,11.2,4.7,14.1c4.3,3,10.1,2.9,13.9-0.3c1-0.9,3.1-1.9,1.9-3.5
		c-1.3-1.8-2.4,0-3.6,0.9c-5,3.8-11.2,2.2-13.4-3.5c-1.6-4.2-1.1-8.4,2.4-11.4c3.4-2.9,7.3-2.9,10.9,0.1c1.1,0.9,2.4,1.9,3.4,0.7
		c1.2-1.4-0.6-2.3-1.5-3.1C883.7,126,881.2,125.2,879.2,125.3z M726.7,146.6c-2.8-7.1-5-12.8-7.3-18.4c-0.5-1.1-0.8-3-2.6-2.3
		c-2,0.7-0.7,2.2-0.3,3.3c2.3,5.8,4.7,11.7,7.1,17.5c0.6,1.4,0.9,2.9,2.8,3c2.3,0.1,2.5-1.8,3.1-3.2c2.4-5.6,4.7-11.3,6.9-17
		c0.4-1,2-2.6,0.3-3.4c-1.9-0.9-2.4,1.1-3,2.4C731.7,133.9,729.5,139.6,726.7,146.6z M920.2,131.9
		C920.3,131.9,920.3,131.9,920.2,131.9c0.1,4.3-0.2,8.7,0.1,13s3.7,6.3,7.3,4.8c0.8-0.3,1.6-0.6,1.4-1.6c-0.1-0.6-0.5-1.2-1.4-1.1
		c-4.7,0.6-3.9-2.8-3.9-5.6c0-7.3,0-14.6,0-21.9c0-1.2,0.5-3-1.5-3.1c-2.4-0.2-1.9,1.8-2,3.2C920.2,123.6,920.2,127.8,920.2,131.9z
		 M792,137.5c0,3.3,0,6.6,0,10c0,1.1,0.3,2,1.6,2c1.1,0,1.3-0.9,1.3-1.7c0-6.6,0-13.3,0-19.9c0-1-0.2-2.1-1.6-2
		c-1.3,0.1-1.4,1.2-1.4,2.3C792,131.1,792,134.3,792,137.5z M630.7,137.5c0-3.2,0-6.3,0-9.5c0-1,0-2.2-1.3-2.3
		c-1.8-0.2-1.6,1.3-1.6,2.4c0,6.3,0,12.6,0,18.9c0,0.9-0.1,2.2,1.3,2.3c1.7,0.1,1.7-1.2,1.7-2.4
		C630.8,143.8,630.7,140.6,630.7,137.5z"/>
	<path class="st1" d="M586.2,24.9c-0.6,1.2-1.7,1.6-2.9,1.5c-15.3-1.3-30.6-2.9-46-3.7c-6.8-0.4-13.6-1.3-20.4-1.1
		c-4.9,0.1-9.5-1.3-14.4-1.1c-3.2,0.1-2.5-2.4-2.7-4.3c-2.1-27.8-0.5-55.6-1-83.3c-0.1-8,0-16,0-24c11.6-2,23.5-2.4,35.2-3.5
		c25-2.4,50-4.6,75-6.8c17.2-1.5,34.5-2.6,51.7-3.9c0.2,1.4,1.2,1.9,2.5,1.9c11.1,0,22.2,1.2,33.2,2c18.7,1.3,37.3,2.7,56,3.9
		c5.8,0.4,11.6,0.6,17.4,1c17.2,1.3,34.4,1.9,51.6,3.2c14.5,1.2,29.1,2,43.6,3c20.5,1.4,41,2.8,61.5,4.1c14.7,0.9,29.4,2.1,44.1,2.9
		c17,1,34,2.6,51,3.8c11.9,0.8,23.8,1.3,35.7,2.1c18,1.2,36,2.7,54,3.8c5.8,0.4,11.6,0.6,17.4,1c18.6,1.5,37.3,2.8,56,4
		c12.6,0.8,25.2,1.3,37.7,2.1c17.3,1.2,34.7,2.8,52,3.8c6.5,0.4,12.9,0.8,19.4,1.2c5.5,0.3,10.9,0.7,16.4,1c2.6,0.1,3.3,1.6,3.4,3.9
		c1.6,31.1,1.3,62.3,0.7,93.4c-0.2,10.9-0.2,21.9-0.7,32.9c-0.1,2,0.7,4.6-2.5,5.1c-6.1-5.7-10.6-6-18-1c-3.1-0.1-6.3-0.2-9.4-0.3
		c-5-4.4-8-4.3-15.5,0.7c-1.3-0.7,0.1-5.3-3.7-2.7c-3.3,0.8-6.8-1.3-10,0.6c-4.2-2.1-8.5-2.2-12.8-0.3c-2.7-4.1-5.9-2.5-9.1-0.9
		c-2.3-0.7-6.1,1-5.7-3.9c0.1-1.4,1-3.9-1.3-4c-2.9-0.1-1.3,2.7-1.7,4.1c-0.1,0.5-0.1,1-0.2,1.5c-14.6-0.4-29.1-1.5-43.6-2.9
		c-5.4-0.5-10.9-0.5-16.4-1c-18-1.4-36.1-1.9-54.1-3.3c-15.4-1.1-30.8-2-46.1-3c-14.9-1-29.8-1.9-44.6-3c-20.2-1.4-40.3-2.7-60.5-4
		c-14.2-0.9-28.4-1.8-42.6-2.9c-15-1.2-30.1-2.1-45.1-3c-15-1-30.1-2-45.1-3c-14.9-1-29.8-2-44.6-3c-15.5-1-31.1-2.1-46.6-3.1
		c-14.7-0.9-29.4-1.9-44.1-2.9c-20.2-1.4-40.3-2.9-60.5-4c-13.2-0.7-26.4-1.9-39.6-3c-0.7-0.1-1.4-0.6-2.2-1
		c3.1-0.6,3.9-2.6,3.9-5.5c0.1-6.5,0.6-13,0.6-19.5c0-3.1,1.1-4.2,4-4.1c5.2,0.2,10.3,0.2,15.5,0.3c2.1,0.1,4.6,0.9,5-2.3
		c0.4-3.3-2-3.8-4.5-3.9c-5.5-0.1-11-0.3-16.5-0.2c-2.5,0.1-3.6-0.5-3.5-3.2c0-4.7-0.1-9.3-0.6-14c-0.5-3.9,1.1-4.9,4.6-4.8
		c7.3,0.1,14.7-0.1,21.9,1c1.8,0.3,3.4,0,3.8-2.2c0.4-2.2-0.7-3.5-2.8-3.9c-2.3-0.4-4.6-0.8-6.9-0.9c-6.5-0.1-13-0.2-19.5-0.1
		c-3.1,0.1-2.5-4.3-6-4.1s-2.2,4.9-5.6,4.8c-2,0-2.8,1.5-2.6,3.5c0.1,1.9,1.3,2.8,3,2.7c3-0.2,3.1,1.6,3.2,3.8
		c0.1,4.3,0.1,8.7,0.6,13c0.3,3.1,0.8,5.6-3.7,5.7c-2.1,0-3.2,1.7-2.8,3.9c0.3,2.1,1.8,2.7,3.7,2.2c3.1-0.8,3.3,0.9,3.1,3.2
		c-0.3,6.3-0.6,12.6-0.9,18.9C584.8,21.7,584.2,23.6,586.2,24.9z"/>
	<path class="st2" d="M1170.7,91.8c0,3.2,0,6.4,0,9.7c0,1.1,0.3,2.6-1.3,2.7c-1.8,0.2-1.6-1.3-1.6-2.4c0-9.7,0-19.3,0-29
		c0-1.2,1.2-3,1.7-2c2.2,4.2,4.1,0.8,6,0.1c4.7-1.8,10,0,13,4.6c3.3,5.1,2.7,12.4-1.5,16.6c-3.5,3.5-8.3,4-12.8,1.3
		C1173.3,92.9,1172.7,91.6,1170.7,91.8z M1187.2,82.7c0-5.6-3.5-9.5-8.6-9.4c-5.2,0-7.9,3.2-7.9,9.1c0,5.7,3.3,9.8,8,10
		C1183.5,92.6,1187.2,88.4,1187.2,82.7z"/>
	<path class="st2" d="M1064.7,90.5c0,4.6,0,7.8,0,11.1c0,1.1,0.3,2.6-1.4,2.7c-1.8,0.2-1.6-1.4-1.6-2.4c0-9.7,0-19.3,0-29
		c0-0.8-0.1-1.7,0.9-2.1c1-0.3,1.5,0.4,1.8,1.2c0.8,2.6,1.9,0.7,2.9,0.2c6.5-3.5,12.4-1.9,15.7,4.2c3.4,6.2,1.3,14.4-4.5,17.5
		C1073.6,96.6,1069.4,94.9,1064.7,90.5z M1064.7,82.2c0,6,3.5,10.2,8.3,10.2c4.6-0.1,8.1-4.1,8.2-9.5c0.1-5.7-3.3-9.6-8.4-9.6
		C1067.6,73.3,1064.8,76.3,1064.7,82.2z"/>
	<path class="st2" d="M1241.9,71.7c4.3-1.8,8.6-1.8,12.8,0.3c1.1,1.2,2.3,2.4,3.3,3.8c1.5,2.1,2.6,4.7,1.6,7c-1,2.5-3.8,1.1-5.8,1.2
		c-3.8,0.2-7.7,0.1-11.5,0.1c-2.5,0-2.8,1.1-2,3.2c2.2,5.7,8.7,7.1,14.1,2.9c0.9-0.7,1.5-2.3,2.8-1c1.5,1.5-0.3,2.4-1.1,3.2
		c-4.1,3.9-11.1,3.9-15.6,0.2c-5-4.3-6-11.7-2-17.1C1239.5,73.9,1240.8,72.9,1241.9,71.7z M1248.3,81.4c1.8,0,3.7-0.1,5.5,0
		c2.9,0.2,3.5-0.8,2.3-3.4c-2.4-5.2-9.1-6.9-13.3-3.2c-1.7,1.4-3.4,3.3-2.7,5.5s3.2,0.8,4.8,1.1
		C1245.9,81.6,1247.1,81.4,1248.3,81.4z"/>
	<path class="st2" d="M944.7,139.1c-1.8,0-3.7-0.1-5.5,0c-1.4,0.1-3.3-0.8-4.1,0.9c-0.8,1.7,0.5,3.2,1.5,4.5c3.1,4,8.2,4.2,12.8,0.7
		c0.9-0.7,1.6-2.2,2.8-1c1.5,1.4-0.3,2.4-1.1,3.2c-3.5,3.3-9.6,3.9-13.9,1.4c-4.6-2.7-7.1-8.5-5.8-13.7c1.4-5.6,5.4-9.1,10.7-9.5
		c5.6-0.4,10.1,2.5,12,7.7c1.7,4.7,0.9,5.9-4,6C948.4,139.1,946.6,139.1,944.7,139.1z M943.3,136.4c1.8,0,3.7-0.1,5.5,0
		c3,0.2,3.5-0.8,2.3-3.5c-2.6-5.5-9.4-7-13.7-2.9c-1.5,1.4-3.1,3.2-2.4,5.2c0.8,2.2,3.2,0.8,4.8,1.1
		C940.9,136.6,942.1,136.4,943.3,136.4z"/>
	<path class="st2" d="M998.9,82.7c0-6,4.1-11.3,9.7-12.2c6.3-1.1,11.6,2.1,13.6,8.2c1.2,3.6,0.9,5.8-3.8,5.4
		c-4.1-0.3-8.3,0-12.5-0.1c-3.9-0.1-3.7,1.8-2.2,4.3c2.6,4.6,8.4,5.6,12.9,2.2c1-0.8,2-3.2,3.5-1.4c1.5,1.8-0.9,2.8-2,3.7
		c-3.8,2.8-8,3.1-12.3,1.2C1001.7,92.2,998.9,87.5,998.9,82.7z M1010.8,81.4c1.8,0,3.7-0.1,5.5,0c4,0.4,3.6-1.5,2.3-4.1
		c-3.1-5.8-11.1-6.2-14.8-0.7c-0.8,1.3-1.8,2.8-1.1,4.1c0.6,1.3,2.4,0.5,3.7,0.6C1007.8,81.5,1009.3,81.4,1010.8,81.4z"/>
	<path class="st2" d="M944.1,84.1c-2,0-4-0.1-6,0c-1.3,0.1-3.3-0.9-3.9,1c-0.5,1.5,0.7,2.8,1.6,4c3.2,4.1,8.4,4.6,12.7,1.2
		c1-0.8,1.8-2.7,3.1-1.3c1.4,1.6-0.6,2.6-1.6,3.5c-3.8,3.3-9.4,3.6-13.9,0.8c-4.6-2.8-6.7-8.4-5.3-13.8s5.7-8.9,11-9.1
		c5.3-0.2,9.7,2.7,11.6,7.7c1.8,4.7,1,6-3.9,6C947.7,84.1,945.9,84.1,944.1,84.1z M942.2,81.4c1.8,0,3.7-0.1,5.5,0
		c3.2,0.2,3.8-1,2.4-3.8c-2.8-5.7-10.7-6.5-14.5-1.5c-1,1.3-2.3,2.9-1.5,4.5c0.8,1.5,2.7,0.6,4.1,0.8
		C939.6,81.5,940.9,81.4,942.2,81.4z"/>
	<path class="st2" d="M750.5,135.4c0.7,0.1,1.4,0.3,2,0.1c1.5-0.5,3.8,2.4,4.4-0.7c0.5-2.6-0.7-5-3.2-6.2c-3.1-1.5-6.1-0.7-9.1,0.7
		c-0.8,0.4-1.9,1.4-2.5-0.1c-0.5-1.2,0.8-1.6,1.6-2.1c8-5,16.1-0.7,16.6,8.6c0.2,3.9-0.7,7.9,0.9,11.8c0.9,2.1-1.3,2.9-2.5,1.7
		c-2.1-2.3-3.7-1.1-5.6-0.2c-0.9,0.5-1.9,0.7-2.8,0.9c-4.9,1.1-9.6-1.8-10.3-6.2c-0.6-4.1,2.5-7.5,7.5-8.2
		C748.5,135.4,749.5,135.5,750.5,135.4z M750.7,137.3c-3.6,0.6-7.7,0.7-7.7,5.4c0,3.6,2.8,4.9,6.2,4.9c4.5-0.1,7.6-2.5,7.7-6.1
		C757.2,136.6,753.1,138.2,750.7,137.3z"/>
	<path class="st2" d="M1138.9,80.4c1.1,0.1,1.7,0.3,2.1,0.1c1.6-0.8,4.2,2.7,4.8-0.7c0.5-3-1-5.5-4.2-6.5c-2.9-0.9-5.6-0.1-8.2,1.1
		c-0.8,0.4-1.8,1.4-2.4-0.2c-0.4-1,0.5-1.4,1.3-1.8c3.8-2.2,7.8-2.8,11.9-1c4,1.7,4.7,5.2,5,9c0.3,4.1-0.7,8.2,1,12.3
		c0.9,2.2-1.5,2.8-2.6,1.6c-2.1-2.4-3.7-0.9-5.6-0.1c-1.5,0.6-3.2,1.1-4.8,1.1c-4.2,0.2-7.8-2.7-8.2-6.5c-0.5-4.5,2.3-6.7,6.1-7.8
		C1136.5,80.5,1138,80.5,1138.9,80.4z M1139.9,82.3c-3.6,0.5-7.7,0.6-7.9,5.3c-0.1,3.6,2.6,5,6.1,5c4.7,0,8-2.6,7.9-6.4
		C1145.9,81.6,1142.1,83.3,1139.9,82.3z"/>
	<path class="st2" d="M1098.6,80.4c0.9,0.1,1.5,0.2,1.9,0.1c1.5-0.5,3.9,2.2,4.5-0.7c0.6-2.7-0.5-5.3-3.4-6.5
		c-3-1.2-5.9-0.5-8.7,0.9c-0.8,0.4-1.9,1.4-2.6,0.1c-0.7-1.2,0.6-1.7,1.4-2.1c3.9-2.1,7.9-2.7,12-0.8c4,1.9,4.7,5.7,4.9,9.7
		c0.2,3.8-0.9,7.6,0.9,11.3c0.4,0.8,0.3,1.7-0.6,2.1c-0.8,0.4-1.9,0.3-2.3-0.4c-1.4-3.1-3-1.1-4.7-0.4c-1.1,0.5-2.1,0.9-3.3,1.2
		c-4.9,1.2-9.6-1.5-10.5-5.9c-0.8-3.9,2.3-7.5,7.3-8.4C1096.7,80.4,1097.8,80.5,1098.6,80.4z M1097.3,92.6c4.7-0.1,7.9-2.6,7.9-6.1
		c0-4.8-3.9-3.7-6.5-3.9c-4.5-0.3-8,2.3-7.5,5.3C1091.7,91.2,1094.1,92.8,1097.3,92.6z"/>
	<path class="st2" d="M1335.5,80.4c0.8,0.1,1.6,0.3,2.2,0.1c1.4-0.5,3.8,2.4,4.3-0.9c0.4-2.6-0.6-5-3.2-6.2
		c-3.2-1.3-6.2-0.6-9.1,0.9c-0.8,0.4-1.9,1.2-2.4-0.2c-0.4-1,0.6-1.4,1.3-1.8c3.8-2.2,7.9-2.8,12-1.1c4.1,1.8,4.8,5.5,5.1,9.5
		c0.2,3.9-0.9,8,0.9,11.8c0.3,0.6,0.2,1.3-0.4,1.8c-0.8,0.5-1.9,0.6-2.3-0.1c-1.5-3.3-3.3-1.3-5.1-0.4c-0.9,0.4-1.8,0.8-2.8,1
		c-5,1.3-9.6-1.1-10.7-5.6c-1-4.1,2.2-7.8,7.5-8.7C1333.7,80.4,1334.7,80.5,1335.5,80.4z M1335.8,82.3c-3.6,0.4-7.4,0.8-7.6,5
		c-0.2,3.8,2.7,5.3,6.4,5.2c4.4-0.2,7.6-2.6,7.5-6.2C1342.2,81.5,1338.1,83.2,1335.8,82.3z"/>
	<path class="st2" d="M829.2,137.3c0-2.2,0-4.3,0-6.5c0-4.3,0-4.3,4-2.9c1.3,0.5,2.1-0.6,3.2-1c8.2-3.8,12.9-0.8,13.1,8.2
		c0.1,4,0,8,0,12c0,1.2,0,2.5-1.6,2.5c-1.7,0-1.6-1.3-1.6-2.5c0-3.7,0.1-7.3-0.1-11c-0.2-3.4,0.2-7.4-4.9-7.7
		c-4.2-0.2-8.4,3.6-8.7,8c-0.2,3.5,0,7-0.1,10.5c0,1.3,0.2,2.9-1.9,2.8c-1.6-0.1-1.4-1.6-1.4-2.7
		C829.2,143.7,829.2,140.5,829.2,137.3z"/>
	<path class="st2" d="M915,137.7c0,7.3-5.2,12.8-11.9,12.6c-6.4-0.1-11.7-5.7-11.9-12.4c-0.2-6.7,5.6-12.5,12.2-12.5
		C910.2,125.4,915,130.6,915,137.7z M894.8,137.9c0,5.3,4,9.7,8.8,9.5c4.7-0.1,8.5-4.7,8.4-10c-0.1-5.1-3.9-9.1-8.6-9.1
		C898.4,128.3,894.7,132.3,894.8,137.9z"/>
	<path class="st2" d="M1218,82.7c0,7.1-4.8,12.4-11.4,12.6c-6.5,0.2-12.2-5.6-12.3-12.5c-0.1-6.7,5.6-12.5,12.2-12.4
		C1213.2,70.4,1218,75.6,1218,82.7z M1206.5,73.3c-5-0.1-8.7,4-8.7,9.5c0,5.3,4,9.7,8.7,9.6s8.6-4.6,8.5-9.9
		C1214.9,77.4,1211.2,73.3,1206.5,73.3z"/>
	<path class="st2" d="M824,137.9c0,7-5,12.4-11.6,12.4c-6.5,0.1-12.1-5.8-12.1-12.6c0-6.7,5.7-12.4,12.4-12.3
		C819.3,125.5,824.1,130.7,824,137.9z M812.6,128.3c-5-0.1-8.8,3.9-8.8,9.4c-0.1,5.3,3.8,9.8,8.6,9.8c4.7,0,8.6-4.5,8.6-9.8
		C821,132.5,817.3,128.4,812.6,128.3z"/>
	<path class="st2" d="M701.7,125.4c6.7,0.1,12,5.8,11.8,12.7c-0.2,6.7-5.7,12.2-12.1,12.1c-6.7-0.1-11.8-5.7-11.7-12.9
		C689.9,130.5,695,125.3,701.7,125.4z M710.2,137.6c0-5.6-3.7-9.4-8.8-9.3c-4.6,0.1-8.3,4.2-8.4,9.4c-0.1,5.3,3.9,9.8,8.7,9.8
		C706.2,147.4,710.2,142.9,710.2,137.6z"/>
	<path class="st2" d="M1042.6,135.4c1,0.1,1.7,0.2,2.4,0.1c1.6-0.4,3.9,2.2,4.6-0.3c0.8-2.7-0.6-5.2-3.2-6.7c-3.2-1.8-6.1-0.5-9,0.8
		c-0.7,0.3-1.8,1.5-2.4,0c-0.5-1.2,0.6-1.7,1.5-2.1c3.9-2.1,7.9-2.6,11.9-0.7c3.8,1.9,4.4,5.4,4.5,9.2c0.1,3.9-1,8,0.9,11.8
		c0.3,0.7,0.4,1.7-0.7,2.1c-0.9,0.3-1.9,0.1-2.2-0.7c-1.1-3-2.4-1.3-4-0.4c-1.4,0.8-3.1,1.4-4.7,1.6c-4.5,0.8-8.8-2-9.4-6
		c-0.7-4.1,1.9-7.3,6.7-8.4C1040.7,135.5,1041.9,135.5,1042.6,135.4z M1043.4,137.3c-3.5,0.5-7.3,0.7-7.5,5.1
		c-0.2,4,2.8,5.3,6.4,5.1c4.3-0.1,7.6-2.8,7.6-6.3C1049.8,136.3,1045.7,138.3,1043.4,137.3z"/>
	<path class="st2" d="M961.5,137.6c0,3.8,1.4,6.8,4.8,8.7c3.5,2,6.8,1.1,9.6-1.4c1.1-0.9,2.1-2.1,3.3-0.7c1.3,1.5-0.6,2.4-1.4,3.1
		c-4.2,4-11.5,3.8-15.9-0.4c-4.8-4.6-5.2-12.8-0.8-17.7c3.9-4.4,11.5-5.3,15.9-1.7c1.1,0.9,3.1,2,2.1,3.4c-1,1.5-2.6,0.2-3.8-0.8
		c-2.9-2.4-6.1-2.6-9.3-0.9C962.7,131,961.5,134,961.5,137.6z"/>
	<path class="st2" d="M668.3,129.2c1.4-0.9,2.6-1.9,3.9-2.6c6.7-3.5,12.1-0.5,12.5,7.1c0.2,4.3,0.1,8.6,0,13c0,1.1,0.3,2.6-1.4,2.7
		c-2.2,0.1-1.5-1.8-1.6-2.9c-0.1-3.7,0.2-7.3-0.2-11c-0.3-3.2-0.4-7-5.2-7.2c-3.9-0.1-8.3,3.5-8.6,7.5c-0.3,3.6-0.1,7.3-0.1,11
		c0,1.1,0.2,2.6-1.5,2.6c-1.7,0-1.4-1.5-1.4-2.6c0-5.8-0.1-11.6,0-17.5c0-1.2-0.7-3.1,1-3.5C668.2,125.3,667,128.1,668.3,129.2z"/>
	<path class="st2" d="M641.2,129.1c2.1-1.2,3.7-2.4,5.5-3.1c5.6-2.1,10,0.2,10.7,5.9c0.6,5.1,0.2,10.3,0.3,15.4c0,1-0.2,2.1-1.6,2.1
		c-1.4,0-1.4-1.2-1.4-2.2c0-3.7,0.2-7.3-0.1-11c-0.3-3.5,0-7.8-5.4-7.9c-4.4-0.1-8.3,3.9-8.5,8.7c-0.1,3.2,0,6.3,0,9.5
		c0,1.2,0.4,3-1.7,2.8c-1.7-0.1-1.2-1.7-1.2-2.8c-0.1-5.7-0.1-11.3,0-17c0-1.3-0.9-3.5,1.2-3.8C641.2,125.4,640,128.2,641.2,129.1z"
		/>
	<path class="st2" d="M777.8,125.4c2.5-0.1,5.1,0.8,7.2,3c0.7,0.7,2.2,1.6,1,2.8c-0.9,0.9-2.1,0.5-3.1-0.4c-3.2-3-6.9-3.3-10.5-1
		c-3.5,2.2-4.2,5.8-3.7,9.7c0.9,7,8,10.1,13.7,6.1c1.3-0.9,2.6-3.2,4-1c1.1,1.7-1.2,2.8-2.4,3.7c-3.9,2.9-9.5,2.8-13.6-0.1
		c-4.5-3.2-6.3-9.2-4.5-14.7C767.6,128.3,771.8,125.4,777.8,125.4z"/>
	<path class="st2" d="M1293.4,73.7c7.4-5,11.9-4.8,18,1c-0.7,3.2-2.2,1.8-3.8,0.7c-4.6-3.2-8.8-2.9-11.9,0.7
		c-3,3.5-2.8,9.9,0.3,13.4c3.3,3.6,7.3,3.8,12,0.4c1.1-0.8,2.2-2.1,3.3-0.7c1.2,1.5-0.6,2.3-1.4,3.1c-3.4,3.3-9.1,3.8-13.5,1.3
		c-4.3-2.4-7-7.9-6.2-12.7C1290.6,78.3,1291.8,75.9,1293.4,73.7z"/>
	<path class="st2" d="M1264.8,71.4c3.8-2.7,2.4,1.9,3.7,2.7c7.5-4.9,10.5-5,15.5-0.7c1.7,6.2,0.6,12.6,0.9,18.9c0,1,0,2.1-1.4,2.1
		c-1.8,0-1.5-1.4-1.5-2.5c0-3.5,0.1-7-0.1-10.5c-0.1-3.7-0.1-7.7-5.2-8.1c-4.3-0.3-8.5,3.8-8.7,8.5c-0.2,3.3,0,6.7-0.1,10
		c0,1.1,0.3,2.6-1.4,2.6c-1.8,0-1.5-1.5-1.5-2.5C1264.8,85,1264.8,78.2,1264.8,71.4z"/>
	<path class="st2" d="M962.5,74.7c2.5-2,5.2-4.2,8.9-4.3c4.5-0.1,7.1,2,7.4,6.3c0.4,5.1,0.2,10.3,0.2,15.4c0,1,0.1,2.2-1.3,2.3
		c-1.7,0.1-1.7-1.3-1.7-2.4c0-3.5,0.1-7,0-10.5c-0.1-3.6,0.3-7.8-5-8.1c-4.2-0.3-8.4,3.3-8.9,7.8c-0.3,3.1,0,6.3-0.2,9.5
		c-0.1,1.3,0.9,3.6-1.3,3.6c-2.6,0.1-1.6-2.4-1.6-3.8c-0.1-5.1-0.1-10.3,0-15.5c0-1.5-1.1-3.9,1.3-4.1
		C963.1,70.6,961,73.6,962.5,74.7z"/>
	<path class="st2" d="M879.2,125.3c2-0.1,4.5,0.6,6.5,2.6c0.8,0.8,2.7,1.7,1.5,3.1c-1,1.2-2.3,0.2-3.4-0.7c-3.6-3-7.4-3-10.9-0.1
		c-3.5,3-4,7.2-2.4,11.4c2.2,5.8,8.4,7.4,13.4,3.5c1.2-0.9,2.3-2.6,3.6-0.9c1.2,1.6-0.8,2.6-1.9,3.5c-3.8,3.2-9.6,3.2-13.9,0.3
		c-4.3-3-6.3-8.9-4.7-14.1C868.5,128.6,872.9,125.3,879.2,125.3z"/>
	<path class="st2" d="M1043.5,74.1c-1.6,1.3-2.8-0.3-4.1-0.7c-2.3-0.7-4.5-1.2-6.8-0.2c-1.7,0.7-2.7,1.7-2.8,3.7
		c-0.1,2.1,1.1,3,2.8,3.5c2.9,0.9,5.8,1.5,8.6,2.5c2.1,0.8,3.6,2.3,3.7,4.8c0.1,2.6-1,4.5-3.1,5.8c-3.8,2.4-11.3,2-14.7-0.8
		c-0.6-0.5-1.4-1-1-2c0.6-1.3,1.6-0.8,2.4-0.2c2.6,1.8,5.5,2.2,8.6,1.9c2.4-0.2,4.3-1.3,4.6-3.8c0.4-2.5-1.7-3.4-3.6-4
		c-2.4-0.8-4.8-1.3-7.2-2.1c-2.4-0.7-4.2-2-4.2-4.8c-0.1-3,1-5.1,3.7-6.4C1035.1,69.1,1040.9,70.3,1043.5,74.1z"/>
	<path class="st2" d="M1223.8,68.4c0.1-0.5,0.1-1,0.2-1.5c0.4-1.5-1.2-4.3,1.7-4.1c2.3,0.1,1.4,2.7,1.3,4c-0.4,4.8,3.4,3.2,5.7,3.9
		c-0.2,0.9,0.1,2.5-1.2,2.4c-5.2-0.5-4.3,3.1-4.3,6.2c0,2.5,0,5,0,7.5c-0.1,3.2,0.5,5.8,4.7,4.9c0.8-0.2,1.7-0.3,2,0.8
		c0.2,1-0.4,1.4-1.2,1.9c-3.9,2.2-8.4-0.1-8.6-4.6c-0.2-4.1,0-8.3-0.1-12.4c0-1.7,0.7-3.6-2.1-4.3c-1.5-0.3-1.4-1.8,0.1-2.4
		C1223.3,70.3,1224.2,70,1223.8,68.4z"/>
	<path class="st2" d="M1019.6,146.2c2.4-5.9,4.4-11,6.4-16.1c0.5-1.2,1-2.5,1.6-3.6c0.4-0.8,1.3-1.2,2.1-0.8
		c1.2,0.5,0.5,1.4,0.3,2.1c-2.7,6.8-5.3,13.6-8.3,20.2c-1.1,2.4-3.5,2.4-4.5,0c-3-6.7-5.6-13.5-8.3-20.2c-0.3-0.7-0.9-1.7,0.3-2
		c1.6-0.5,2.3,0.5,2.9,1.9c1.9,5.1,4,10.2,6,15.3C1018.3,143.7,1018.7,144.4,1019.6,146.2z"/>
	<path class="st2" d="M726.7,146.6c2.8-7,5-12.7,7.3-18.3c0.5-1.4,1.1-3.3,3-2.4c1.6,0.8,0.1,2.4-0.3,3.4c-2.2,5.7-4.5,11.4-6.9,17
		c-0.6,1.4-0.8,3.4-3.1,3.2c-2-0.1-2.3-1.6-2.8-3c-2.4-5.8-4.8-11.6-7.1-17.5c-0.4-1.1-1.7-2.6,0.3-3.3c1.8-0.6,2.1,1.2,2.6,2.3
		C721.7,133.8,723.9,139.5,726.7,146.6z"/>
	<path class="st2" d="M920.2,131.9c0-4.2,0-8.3,0-12.5c0-1.4-0.4-3.3,2-3.2c2,0.1,1.5,1.8,1.5,3.1c0,7.3,0,14.6,0,21.9
		c0,2.7-0.8,6.1,3.9,5.6c0.8-0.1,1.2,0.5,1.4,1.1c0.2,1.1-0.6,1.3-1.4,1.6c-3.7,1.5-7-0.5-7.3-4.8
		C920.1,140.6,920.3,136.2,920.2,131.9C920.3,131.9,920.3,131.9,920.2,131.9z"/>
	<path class="st2" d="M986.7,82.2c-1.3-2.8,2.7-7.6-3.1-9.6c-0.5-0.2-0.4-1.5,0.3-1.6c3.8-0.6,2.6-3.5,2.8-5.7
		c0.1-1.1-0.2-2.6,1.6-2.5c1.3,0.1,1.4,1.2,1.4,2.2c0.1,2.9-0.9,6.4,4.2,5.8c0.6-0.1,1,0.7,0.9,1.5c-0.2,0.8-0.8,1.1-1.5,1
		c-4.1-0.5-3.6,2.3-3.5,4.8c0,2.3,0,4.7,0,7c0,3.7-0.7,7.9,5.4,6.6c0.7-0.1,1.4,0.2,1.5,0.9c0.2,1-0.6,1.4-1.4,1.8
		c-4.4,2.2-8.4-0.1-8.5-5.1C986.7,87.1,986.7,84.9,986.7,82.2z"/>
	<path class="st2" d="M986,137.3c-1.1-2.9,2.4-7.6-2.9-9.9c-0.1-0.1,0-1.3,0.1-1.3c3.9-0.9,2.4-4,2.7-6.4c0.1-1,0.2-2.1,1.6-2
		c1.1,0,1.3,0.9,1.3,1.8c-0.1,3.3-0.5,6.9,4.7,6.3c0.2,0,0.8,0.7,0.8,1.1c0.1,1-0.8,1.5-1.6,1.4c-4.3-0.6-4,2.2-3.9,5
		c0.1,2.5,0,5,0,7.5c0,3.6,0,7,5.3,5.9c0.6-0.1,1.3-0.1,1.6,0.7c0.2,0.8-0.1,1.4-0.7,1.7c-1.9,0.7-3.7,1.5-5.8,0.7s-3.3-2.2-3.4-4.5
		C986,142.8,986,140.3,986,137.3z"/>
	<path class="st2" d="M1355.9,74.4c2-1.8,3.8-3.2,6.2-3.7c0.9-0.2,1.7,0.1,1.8,1.1c0.1,0.7-0.1,1.4-0.8,1.6
		c-8.8,1.9-8.1,8.7-8.1,15.3c0,1.9,1.4,5.4-1.3,5.4c-3,0.1-1.4-3.4-1.5-5.3c-0.2-4.8-0.1-9.7,0-14.5c0-1.3-0.9-3.4,1.5-3.6
		C1355.8,70.6,1354.4,73.2,1355.9,74.4z"/>
	<path class="st2" d="M1118.9,74.4c0.8-0.7,1.4-1.3,2.1-1.7c1.8-1,4.4-3.4,5.5-1.3c1.6,2.9-2.3,2.2-3.7,3.1
		c-2.9,1.8-4.7,4.2-4.7,7.7c0,3,0.1,6-0.1,9c0,1.2,0.7,3.1-1.3,3.2c-2.4,0.1-1.6-2.1-1.6-3.4c-0.1-5.5-0.1-11,0-16.5
		c0-1.3-0.9-3.4,1.4-3.7C1118.8,70.5,1117.5,73.1,1118.9,74.4z"/>
	<path class="st2" d="M1003.7,137.6c0,3.3,0,6.6,0,10c0,1.1-0.5,1.9-1.8,1.8c-1.1-0.1-1.2-1.1-1.2-1.9c0-6.6,0-13.3,0-19.9
		c0-0.8,0.1-1.7,1.2-1.8c1.3-0.1,1.7,0.8,1.7,1.9C1003.7,131,1003.7,134.3,1003.7,137.6z"/>
	<path class="st2" d="M792,137.5c0-3.2,0-6.3,0-9.5c0-1,0-2.1,1.4-2.3c1.4-0.1,1.6,1,1.6,2c0,6.6,0,13.3,0,19.9
		c0,0.8-0.2,1.7-1.3,1.7c-1.3,0.1-1.6-0.9-1.6-2C792,144.1,792,140.8,792,137.5z"/>
	<path class="st2" d="M925,82.9c0,3.2,0,6.3,0,9.5c0,1-0.1,2.1-1.5,2.1c-1.3-0.1-1.5-1.1-1.5-2.2c0-6.5,0-12.9,0-19.4
		c0-1,0.2-2.1,1.5-2.1c1.4,0,1.4,1.2,1.4,2.2C925,76.2,925,79.5,925,82.9z"/>
	<path class="st2" d="M1317,82.3c0-3.2,0-6.3,0-9.5c0-1,0.2-2.1,1.5-2.1c1.4,0,1.4,1.2,1.4,2.2c0,6.5,0,12.9,0,19.4
		c0,1-0.1,2.1-1.5,2.1c-1.3,0-1.5-1.1-1.5-2.2C1317,88.9,1317,85.6,1317,82.3z"/>
	<path class="st2" d="M630.7,137.5c0,3.2,0,6.3,0,9.5c0,1.2,0,2.5-1.7,2.4c-1.4-0.1-1.3-1.3-1.3-2.3c0-6.3,0-12.6,0-18.9
		c0-1.1-0.2-2.6,1.6-2.4c1.3,0.1,1.3,1.3,1.3,2.3C630.7,131.2,630.7,134.3,630.7,137.5z"/>
	<path class="st0" d="M582,78c0-1.2-0.3-2.4,0.1-3.5c1.1-3.1-3-8.3,2.8-9.3c8.9-1.5,15.1,1.5,16.7,7.9c1.3,5.2,1.4,10.6-2.6,15
		c-4.2,4.6-9.7,3.5-14.9,3.6c-2.2,0-2.1-1.7-2.1-3.2C582,85,582,81.5,582,78z"/>
	<path class="st0" d="M1187.2,82.7c0,5.6-3.7,9.8-8.5,9.7c-4.7-0.2-8-4.3-8-10c0-6,2.7-9.1,7.9-9.1
		C1183.7,73.2,1187.2,77.1,1187.2,82.7z"/>
	<path class="st0" d="M1064.7,82.2c0-5.9,2.8-9,8.1-8.9c5,0,8.5,4,8.4,9.6c-0.1,5.4-3.5,9.4-8.2,9.5
		C1068.2,92.5,1064.7,88.2,1064.7,82.2z"/>
	<path class="st0" d="M1248.3,81.4c-1.2,0-2.4,0.2-3.5,0c-1.7-0.3-4.1,1.2-4.8-1.1c-0.7-2.2,1.1-4.1,2.7-5.5
		c4.2-3.7,10.9-2,13.3,3.2c1.2,2.7,0.6,3.6-2.3,3.4C1252,81.3,1250.1,81.4,1248.3,81.4z"/>
	<path class="st0" d="M943.3,136.4c-1.2,0-2.4,0.2-3.5,0c-1.7-0.3-4.1,1.2-4.8-1.1c-0.7-2,0.9-3.8,2.4-5.2
		c4.3-4.2,11.1-2.7,13.7,2.9c1.2,2.6,0.7,3.7-2.3,3.5C947,136.3,945.1,136.4,943.3,136.4z"/>
	<path class="st0" d="M1010.8,81.4c-1.5,0-3,0.1-4.5,0c-1.3-0.1-3,0.7-3.7-0.6c-0.7-1.3,0.3-2.9,1.1-4.1c3.7-5.5,11.7-5.1,14.8,0.7
		c1.3,2.5,1.7,4.5-2.3,4.1C1014.5,81.3,1012.6,81.4,1010.8,81.4z"/>
	<path class="st0" d="M942.2,81.4c-1.3,0-2.7,0.1-4,0c-1.4-0.1-3.3,0.8-4.1-0.8c-0.8-1.6,0.5-3.2,1.5-4.5c3.8-5,11.7-4.1,14.5,1.5
		c1.4,2.8,0.8,4-2.4,3.8C945.9,81.3,944.1,81.4,942.2,81.4z"/>
	<path class="st0" d="M750.7,137.3c2.4,0.9,6.4-0.7,6.3,4.2c-0.1,3.5-3.2,6-7.7,6.1c-3.5,0.1-6.2-1.3-6.2-4.9
		C743,138,747.2,137.9,750.7,137.3z"/>
	<path class="st0" d="M1139.9,82.3c2.1,1,6-0.7,6.1,3.8c0.1,3.8-3.1,6.4-7.9,6.4c-3.5,0-6.2-1.4-6.1-5
		C1132.2,82.9,1136.3,82.8,1139.9,82.3z"/>
	<path class="st0" d="M1097.3,92.6c-3.2,0.3-5.6-1.3-6.1-4.8c-0.5-3,3-5.5,7.5-5.3c2.6,0.2,6.5-0.9,6.5,3.9
		C1105.2,90,1102,92.5,1097.3,92.6z"/>
	<path class="st0" d="M1335.8,82.3c2.3,0.9,6.3-0.8,6.4,4c0,3.6-3.1,6-7.5,6.2c-3.7,0.1-6.5-1.4-6.4-5.2
		C1328.5,83.1,1332.3,82.8,1335.8,82.3z"/>
	<path class="st0" d="M766.6,82.6c0.1-5.6,3.7-9.4,8.9-9.3c4.7,0.2,8.4,4.3,8.4,9.4s-4.2,9.7-8.8,9.7
		C770.3,92.4,766.5,87.9,766.6,82.6z"/>
	<path class="st0" d="M894.8,137.9c0-5.5,3.7-9.6,8.6-9.6c4.7,0,8.5,4,8.6,9.1c0.1,5.3-3.8,9.8-8.4,10
		C898.8,147.5,894.8,143.2,894.8,137.9z"/>
	<path class="st0" d="M1206.5,73.3c4.7,0.1,8.5,4.1,8.5,9.2c0.1,5.3-3.8,9.8-8.5,9.9s-8.7-4.3-8.7-9.6
		C1197.8,77.3,1201.5,73.2,1206.5,73.3z"/>
	<path class="st0" d="M812.6,128.3c4.7,0.1,8.4,4.2,8.4,9.3c0,5.3-4,9.8-8.6,9.8c-4.7,0-8.6-4.4-8.6-9.8S807.6,128.2,812.6,128.3z"
		/>
	<path class="st0" d="M710.2,137.6c0,5.3-3.9,9.8-8.6,9.8c-4.7,0-8.7-4.5-8.7-9.8c0.1-5.1,3.8-9.2,8.4-9.4
		C706.5,128.2,710.1,132,710.2,137.6z"/>
	<path class="st0" d="M835.3,82.3c2.3,0.9,6.1-0.7,6.4,3.6c0.3,3.7-3.6,6.7-8.3,6.7c-3.3,0-5.7-1.4-5.7-4.8
		C827.7,82.9,831.7,82.9,835.3,82.3z"/>
	<path class="st0" d="M1043.4,137.3c2.3,1,6.4-1,6.5,3.9c0,3.5-3.2,6.2-7.6,6.3c-3.6,0.1-6.6-1.1-6.4-5.1
		C1036.1,138,1039.9,137.8,1043.4,137.3z"/>
	<path class="st0" d="M706.5,82.3c2.3,1,6.5-0.9,6.4,4.1c-0.1,3.5-3.4,6.1-7.7,6.2c-3.4,0.1-6.2-1.1-6.3-4.8
		C698.9,83,702.8,82.8,706.5,82.3z"/>
	<path class="st1" d="M1086.9-5.8c0-15.6,9.4-26,23.4-26c14.2,0,24.6,11.1,24.6,26.4c0,14.4-9.6,23.8-24.2,23.8
		C1096.1,18.4,1086.9,9,1086.9-5.8z"/>
	<path class="st1" d="M946-29.1c3.9,10.4,6.4,21.2,9.8,32.2c-6.5,0.9-12.7,0-18.9,0.2c-1.9,0.1-2.2-0.9-1.7-2.5
		c3.2-9.9,6.3-19.9,9.5-29.8C945.2-29.1,945.6-29.1,946-29.1z"/>
</g>
<rect x="567" y="95.4" class="st0" width="749.9" height="64"/>
<rect x="906.7" y="62.8" class="st0" width="250.3" height="79.7"/>
<rect x="1316.9" y="65.4" class="st0" width="62.1" height="47"/>
<rect x="1139.7" y="74.8" class="st0" width="191.8" height="29.5"/>
<rect x="1163" y="67.9" transform="matrix(0.999 4.397166e-02 -4.397166e-02 0.999 4.9474 -54.3936)" class="st0" width="151.8" height="34.7"/>
<polygon class="st1" points="1210.5,62.8 1220.8,67.1 1309.5,70.1 1304.5,55.2 "/>
<polygon class="st1" points="567,-48.1 564,23.4 622.5,27.9 633.5,-48.1 "/>
</svg>
