<?xml version="1.0" encoding="utf-8"?>
<!-- Generator: Adobe Illustrator 23.0.4, SVG Export Plug-In . SVG Version: 6.00 Build 0)  -->
<svg version="1.1" id="Capa_1" xmlns="http://www.w3.org/2000/svg" xmlns:xlink="http://www.w3.org/1999/xlink" x="0px" y="0px"
	 viewBox="0 0 1260.3 467.6" style="enable-background:new 0 0 1260.3 467.6;" xml:space="preserve">
<style type="text/css">
	.st0{fill:#FEFEFE;}
	.st1{fill:#EA626D;}
	.st2{fill:#E24852;}
</style>
<path class="st0" d="M332.5,240.2c-1,3.8-3.5,4.6-6.4,3c-2.5-1.3-4.6-1.4-6.8,0.5c0.6-3.3,2.6-4.7,5.6-3.2
	C327.6,242.1,329.9,242.1,332.5,240.2z"/>
<path class="st0" d="M258,244.2c-1.3,0-1.7-0.7-1.7-1.8s-0.1-2.4,1.5-2.6c1.3-0.1,1.7,0.7,1.7,1.8C259.5,242.8,259.6,244,258,244.2z
	"/>
<path class="st1" d="M1203.9,115.6c-0.3-9.9-0.1-10-10.1-9.8c-37.8,0.7-75.6,1.3-113.4,2c-37.6,0.7-75.3,1.3-112.9,2.1
	c-3.4,0-5-0.8-5.5-4.4c-1.6-12-3.4-24-5.3-36c-2.6-16.1-5.5-32.1-8.1-48.2c-0.7-4.1-2.3-5.9-6.9-5.4c-16.5,1.7-33.1,3-49.7,4.5
	c-28.1,2.5-56.3,5.1-84.5,7.6c-24.2,2.2-48.4,4.2-72.6,6.4c-28,2.5-56,5.1-84,7.6c-24.2,2.2-48.4,4.2-72.6,6.4
	c-27.8,2.5-55.7,5.1-83.5,7.6c-24.3,2.2-48.7,4.2-73.1,6.4c-28.8,2.5-57.7,5.1-86.5,7.8c-9.8,1-19.6,1.2-29.3,3
	c0.2,1.4,1.1,1.8,2.4,1.2c0.6,0,1.1,0,1.7,0v0.8c-0.6,0-1.2,0-1.8,0c-1.3,0-2.3-0.5-2.5-1.9c-17.2,1.3-34.5,2.4-51.7,3.9
	c-25,2.2-50,4.4-75,6.8c-11.6,1.1-23.4,1.5-34.9,3.5c0-0.2,0-0.3,0-0.5c-1,0.1-2,0-3,0.1c-6.4,0.8-6.4,0.8-5.3,7.4
	c1.4,8.5,2.5,17.1,4,25.6c0.5,3-0.5,3.7-3.3,3.7c-7,0-14,0.5-21,0.6c-19.1,0.4-38.3,0.8-57.4,1c-2.9,0.1-4.1,0.9-4.1,4
	c-0.1,6.2-0.6,12.3-0.6,18.5c0.1,18.2,0.3,36.3,0.5,54.5c0.2,16.3,0.3,32.7,0.5,49c0.1,9.6,0.1,9.5,9.9,9.3
	c22.4-0.4,44.9-0.7,67.4-1.2c3.5,0,4.6,1,4.5,4.5c-0.1,9.8,0,19.7,0.2,29.5c0,3-0.6,4.5-4,4.7c-9.2,0.6-18.3,1.7-27.4,2.3
	c-3.4,0.2-4.3,1.5-4.3,4.5c0,5.5-0.7,11-0.6,16.5c0.5,36,1.2,71.9,1.7,107.9c0.1,6.7,0,6.8,6.8,6.2c26.7-2.2,53.4-4.6,80.1-6.6
	c46.3-3.5,92.6-6.9,138.9-10c37.5-2.6,75-4.8,112.6-7c38.1-2.2,76.1-4.2,114.2-6c38.4-1.8,76.8-3.4,115.2-5
	c28.1-1.1,56.2-2.1,84.3-3c36.1-1.1,72.2-2.1,108.3-3c34.5-0.8,68.9-1.4,103.4-2c28.1-0.4,56.3-0.2,84.4-0.9c21-0.5,42-0.2,63-0.2
	c8.5,0,8.5,0,8.7-8.8c0-1,0.2-2,0.3-3.3c15,3.3,29.8,6.4,44.5,10c4.5,1.1,5.8,0.1,5.9-4.3c0.9-42,0.4-84,0.4-126
	c0-3.2-1.4-4.2-4.3-4.8c-9-1.8-17.9-3.9-26.8-5.9l-27-6c0-0.7,0.1-1.3,0.1-2c27.6,0,55.1,0.1,82.7,0c7,0,7-0.2,7.1-7.3
	C1204.9,194.2,1204.9,154.9,1203.9,115.6z"/>
<path class="st2" d="M959.3,215.4c0.6-31.1,0.9-62.3-0.7-93.4c-0.1-2.3-0.8-3.8-3.4-3.9c-5.5-0.3-10.9-0.7-16.4-1
	c-6.5-0.4-12.9-0.8-19.4-1.2c-17.3-1-34.7-2.6-52-3.8c-12.5-0.8-25.1-1.3-37.7-2.1c-18.7-1.2-37.4-2.5-56-4
	c-5.8-0.4-11.6-0.6-17.4-1c-18-1.1-36-2.6-54-3.8c-11.9-0.8-23.8-1.3-35.7-2.1c-17-1.2-34-2.8-51-3.8c-14.7-0.8-29.4-2-44.1-2.9
	c-20.5-1.3-41-2.7-61.5-4.1c-14.5-1-29.1-1.8-43.6-3c-17.2-1.3-34.4-1.9-51.6-3.2c-5.8-0.4-11.6-0.6-17.4-1
	c-18.7-1.2-37.3-2.6-56-3.9c-11-0.8-22.1-2-33.2-2c-1.3,0-2.3-0.5-2.5-1.9c-17.2,1.3-34.5,2.4-51.7,3.9c-25,2.2-50,4.4-75,6.8
	c-11.7,1.1-23.6,1.5-35.2,3.5c0,8-0.1,16,0,24c0.5,27.7-1.1,55.5,1,83.3c0.2,1.9-0.5,4.4,2.7,4.3c4.9-0.2,9.5,1.2,14.4,1.1
	c6.8-0.2,13.6,0.7,20.4,1.1c15.4,0.8,30.7,2.4,46,3.7c1.2,0.1,2.3-0.3,2.9-1.5c-1.1-0.7-1.4-1.7-1.4-2.7c0.1,1,0.3,2,1.4,2.7
	c0.6,0.2,1.1,0.3,1.6,0.7c0.1,0,0.2-0.1,0.3-0.1c0.8,0.4,1.5,0.9,2.1,1c13.2,1.1,26.4,2.3,39.6,3c20.2,1.1,40.3,2.6,60.5,4
	c14.7,1,29.4,2,44.1,2.9c15.5,1,31.1,2.1,46.6,3.1c14.8,1,29.7,2,44.6,3c15,1,30.1,2,45.1,3c15,0.9,30.1,1.8,45.1,3
	c14.2,1.1,28.4,2,42.6,2.9c20.2,1.3,40.3,2.6,60.5,4c14.8,1.1,29.7,2,44.6,3c15.3,1,30.7,1.9,46.1,3c2.3,0.2,4.6,0.3,6.9,0.5
	l196.2,16.8l0.5-5.1c0.6-1.1,0.3-2.6,0.4-3.9C959.1,237.3,959.1,226.3,959.3,215.4z"/>
</svg>
