<?xml version="1.0" encoding="utf-8"?>
<!-- Generator: Adobe Illustrator 23.0.3, SVG Export Plug-In . SVG Version: 6.00 Build 0)  -->
<svg version="1.1" xmlns="http://www.w3.org/2000/svg" xmlns:xlink="http://www.w3.org/1999/xlink" x="0px" y="0px"
	 viewBox="0 0 235.5 244.8" style="enable-background:new 0 0 235.5 244.8;" xml:space="preserve">
<style type="text/css">
	.st0{fill:#FCFCFC;}
	.st1{fill:#FEFEFE;}
	.st2{fill:#B8B8B8;}
	.st3{fill:#868686;}
	.st4{fill:#232120;}
	.st5{fill:#2E2320;}
	.st6{fill:#00A4BF;}
	.st7{fill:#E5656D;}
	.st8{fill:#00B0CC;}
	.st9{fill:#D02A30;}
	.st10{fill:#00181C;}
	.st11{fill:#2C1907;}
	.st12{fill:#ECB935;}
	.st13{fill:#007BA5;}
	.st14{fill:#DC880B;}
	.st15{fill:#006B90;}
	.st16{fill:#EA626D;}
	.st17{fill:#E24852;}
	.st18{fill:#FDFEFE;}
	.st19{fill:#45AEE1;}
	.st20{fill:#8FCDEC;}
	.st21{fill:#232627;}
	.st22{fill:#211D06;}
	.st23{fill:#8CCAE9;}
	.st24{fill:#42A9DB;}
	.st25{fill:#91CEED;}
	.st26{fill:#EAD52D;}
	.st27{fill:#3EAADE;}
	.st28{fill:#D06267;}
	.st29{fill:#43872E;}
	.st30{fill:#5D9650;}
	.st31{fill:#EED82B;}
	.st32{fill:#FCFBFC;}
	.st33{fill:#0A0A0A;}
	.st34{fill:#FDFDFE;}
	.st35{fill:#FDFDFD;}
	.st36{fill:#262525;}
	.st37{fill:#25221F;}
	.st38{fill:#92CFED;}
	.st39{fill:#3EAADD;}
	.st40{fill:#101C20;}
	.st41{fill:#91CEEC;}
	.st42{fill:#1D0906;}
	.st43{fill:#8DC0DA;}
	.st44{fill:#90CEED;}
	.st45{fill:#EDE2E3;}
	.st46{fill:#ECD529;}
	.st47{fill:#D26369;}
	.st48{fill:#C7550F;}
	.st49{fill:#262104;}
	.st50{fill:#3EA8DB;}
	.st51{fill:#241914;}
	.st52{fill:#91CFEE;}
	.st53{fill:#3FABDF;}
	.st54{fill:#92D0EF;}
	.st55{fill:#2D2C2B;}
	.st56{fill:#2A2928;}
	.st57{fill:#8EC5E0;}
	.st58{fill:#EBD42C;}
	.st59{fill:#D26268;}
	.st60{fill:#F8F8F8;}
	.st61{fill:#F5F5F5;}
	.st62{fill:#F7F6F6;}
	.st63{fill:#CBDFE9;}
	.st64{fill:#EBEFF1;}
	.st65{fill:#CD3434;}
	.st66{fill:#251915;}
	.st67{fill:#1F1F1F;}
	.st68{fill:#E37272;}
	.st69{fill:#241712;}
	.st70{fill:#241611;}
	.st71{fill:#220B09;}
	.st72{fill:#6FC0E0;}
	.st73{fill:#0E1312;}
	.st74{fill:#6FC2E2;}
	.st75{fill:#2A1F1A;}
	.st76{fill:#3194CA;}
	.st77{fill:#010102;}
	.st78{fill:#7AC9E9;}
	.st79{fill:#211B19;}
	.st80{fill:#031619;}
	.st81{fill:#00A3BE;}
	.st82{fill:#FBFBFA;}
	.st83{fill:#CF2A30;}
	.st84{fill:#006A90;}
	.st85{fill:#EBB834;}
</style>
<g id="Capa_2">
</g>
<g id="Capa_1">
	<g>
		<path class="st34" d="M12.7,93.5c0,0,21-113.2,135.6-62.2c0,0,49.6,22.4,41.9,72.7s-53.8,107.7-123.7,76.9
			C66.5,180.9,4.3,161.3,12.7,93.5z"/>
		<g>
			<path class="st35" d="M97.2,184.5c-5.6,0.1-11.1,0.1-16.7,0.2c-1.6-0.4-3.3-0.8-4.9-1.2c-0.6-0.3-1.1-0.8-1.7-1
				c-11.6-4.8-22.7-10.3-32.3-18.5C11.5,138.3,1.7,84.5,36.7,47.3C52.1,30.9,69.9,19.8,93.3,20c4.3,0,5.1,1.6,4.7,5.2
				c-0.6,6-1,11.9-1.6,17.9c-0.2,2.5-1.1,5.4,2.6,5.8c3.5,0.4,3.2-2.8,3.4-4.9c0.6-6.5,1.2-12.9,1.5-19.4c0.1-3,0.7-3.9,4-3.4
				c16.7,2.5,32,8.6,46.8,16.6c2,1.1,4.2,2.9,6-0.1c1.9-3.1-0.8-4.1-2.8-5.2c-7.1-3.9-14.5-7.4-22.1-10.2
				c-17.9-6.7-36.3-10.3-55.3-7.5c-21.7,3.3-38,15.9-51.8,32.2C-3.9,85.3,3.5,144.5,44.2,173.8c7.3,5.3,15.3,9.3,23.6,12.9
				c1.2,0.5,4.2,0.3,2.1,3.4c-0.7,1.1,0.9,2.4,1.7,3.4c13.6,16.5,31.1,26.1,52.3,29.3c15.1,2.3,29.5-0.6,43.4-6.2
				c0.9,0.1,1.8,0.1,2.2-1l-0.1,0c13.2-1.7,23.3-8.9,32.2-18.2c12.6-13.2,18.6-29.7,21.8-47.2c2.4-12.6,3.7-25.4-0.9-37.8
				c-4.1-11-10.2-20.2-22.7-23c-0.5-0.5-1-1.1-1.5-1.6c-0.9-3.7-3.5-5.8-6.9-7.1c-0.3-0.4-0.6-0.7-0.9-1.1c-2-9.5-6.4-17.8-12.7-25
				c-2.9-3.4-2.7-5.6-0.1-8.7c2.6-3.2,4.8-6.8,7.2-10.2c0.9-1.4,1.2-2.8-0.1-4.1c-1.2-1.2-2.6-1.3-4.1-0.5c-0.9,0.5-1.7,1-2.6,1.5
				C148.6,50.1,118.6,67,88.3,83.2c-12.2,6.5-24.4,12.9-36.6,19.3c-1.9,1-3.7,2-2.3,4.5c1.3,2.3,3.1,2,5.1,0.8
				c2-1.2,4.1-2.2,6.2-3.1c0.8-0.4,2.2-1.7,2.3,0.7c0.1,3,2.4,3.1,4.6,3.4c10.9,1.6,21.9-0.2,32.8,0.5c0.7,0.4,1.8,0.2,2.1,1.3
				c-1.8,13-3.6,26-5.4,39c-0.3,2.3-1.1,4.9,1.9,5.9c2.7,0.9,3.6-1.7,4.8-3.4c15.3-22,30.5-43.9,45.8-65.9c7-10.1,14-20.1,21.2-30.4
				c6.5,7.5,11.3,15.3,13.4,24.6c-7.5,1.4-11.8,7.3-10.7,15.3c2.2,14.7-0.2,28.7-5.2,42.5c-9.5,26.1-37.5,46.2-65,46.6
				c0.1-4,0.2-8,0.4-12c0.1-2.1,0.2-4.2-2.6-4.5c-2.6-0.2-3.4,1.7-3.5,3.8C97.6,176.2,97.4,180.4,97.2,184.5z"/>
			<path class="st36" d="M167.3,216.4c-14,5.6-28.3,8.5-43.4,6.2c-21.1-3.2-38.7-12.7-52.3-29.3c-0.8-1-2.4-2.2-1.7-3.4
				c2-3.1-0.9-2.8-2.1-3.4c-8.3-3.6-16.3-7.6-23.6-12.9C3.5,144.5-3.9,85.3,28.6,47c13.8-16.3,30.1-29,51.8-32.2
				c19-2.9,37.4,0.8,55.3,7.5c7.6,2.9,15,6.3,22.1,10.2c2,1.1,4.7,2.1,2.8,5.2c-1.8,3-3.9,1.2-6,0.1c-14.7-7.9-30.1-14-46.8-16.6
				c-3.3-0.5-3.9,0.3-4,3.4c-0.3,6.5-0.9,12.9-1.5,19.4c-0.2,2.2,0.1,5.3-3.4,4.9c-3.7-0.4-2.8-3.4-2.6-5.8c0.5-6,1-11.9,1.6-17.9
				c0.4-3.6-0.5-5.2-4.7-5.2c-23.4-0.2-41.2,10.9-56.6,27.3c-35,37.2-25.1,91,4.9,116.7c9.6,8.2,20.7,13.8,32.3,18.5
				c0.6,0.2,1.1,0.7,1.7,1c-1.6,2-0.5,3.9,0,5.9c-0.3,0.3-0.5,0.6-0.8,0.8c0.3,0.1,0.5,0.2,0.8,0.4c0,0-0.1-0.1-0.1-0.1
				c1,2.4,2.7,4.2,4.9,5.6c15,15.7,33.7,23.1,55,22.7c32.9-0.7,60.7-22.7,69.8-54.3c4.6-16.1,4.2-31.8-5.5-46.4
				c-0.7-1.7-1.4-3.5,0.8-4.7c2-0.1,2.9,1.4,3.7,2.9c2.2,3.7,4.1,7.6,5.4,11.8c6.8,22.3,1,42.3-11.4,61.1
				c-7.4,11.2-17.6,19.3-28.8,26.4c0,0,0.1,0,0.1,0C168.6,215.4,167.8,215.6,167.3,216.4z"/>
			<path class="st37" d="M184.4,80.4c-2.1-9.3-6.9-17.1-13.4-24.6c-7.2,10.3-14.2,20.4-21.2,30.4c-15.3,22-30.5,43.9-45.8,65.9
				c-1.2,1.7-2.1,4.3-4.8,3.4c-3-1-2.3-3.6-1.9-5.9c1.8-13,3.6-26,5.4-39c2.9,0.4,4.2,1.9,3.9,4.9c-0.1,1.4-0.4,2.9,0.8,4.1
				c-0.5,3.3-1,6.7-1.5,10c-2,2.3-2.2,5-2.2,7.8c0,2.1,1.2,3.5,3.2,4c2.2,0.6,3.5-0.7,4.2-2.6c1.1-3.4,3-6.7,2.6-10.5
				c1.7-2.8,3.4-5.6,5.1-8.4c1.1-0.8,2.1-1.7,2-3.2l0,0c3.9-4.6,8.1-9,9.8-15.1c1.1-1.4,2.2-2.8,3.4-4.2c5.9-6.4,10-14.2,15.5-20.9
				c0.4-0.4,0.8-0.7,1.1-1.1c0,0-0.1,0.1-0.1,0.1c1-0.3,1.1-1.1,1.1-2l-0.1,0.1c0.3-0.4,0.7-0.7,1-1.1c0,0-0.1,0.1-0.1,0.1
				c0.4-0.4,0.7-0.7,1.1-1.1c0,0-0.1,0.1-0.1,0.1c1.1-0.3,1.2-1.1,1.1-2l-0.1,0c1.5,0.1,2.3-0.6,1.9-2.2l0,0.1
				c1.7-0.3,2.4-1.4,2-3.1l0,0.1c1.1-0.3,1.2-1.1,1.1-2l0,0.1c1-0.3,1.1-1.2,1.1-2l0,0.1c0.3-0.5,0.7-1,1-1.5
				c0.1-0.5,0.1-0.9,0.2-1.4c0.3-0.4,0.6-0.9,1-1.3c2.4-2.5,4.8-5,0.9-8.1c-3.7-3.3-4.2-0.3-4.8,2.4l0.1-0.1c-0.9-0.1-1.7,0-2.1,1
				l0.1-0.1c-0.4,0.3-0.7,0.7-1.1,1c-2,1.5-4,3.1-6.1,4.6c-1.1,0.3-2.3,0.5-3.3,1.1c-26.6,15.1-53.5,29.7-80.6,44
				c-2,4,0.6,5.7,3.7,5.1c4.1-0.9,8.2-0.6,12.2-1.5c9.2-2,18-5.3,26.9-8.3c-0.3,1.4-0.6,2.8-0.8,4.2l0-0.1c-0.9-0.1-1.7,0.1-2.1,1.1
				l0.2,0c-4,0.4-4.9,3.3-5.2,6.6c-10.9-0.7-21.9,1.1-32.8-0.5c-2.2-0.3-4.5-0.4-4.6-3.4c-0.1-2.4-1.5-1.1-2.3-0.7
				c-2.1,1-4.2,2-6.2,3.1c-2,1.1-3.8,1.4-5.1-0.8c-1.4-2.5,0.4-3.5,2.3-4.5c12.2-6.4,24.4-12.8,36.6-19.3
				c30.3-16.2,60.3-33.1,89.8-50.6c0.9-0.5,1.7-1,2.6-1.5c1.5-0.9,2.9-0.7,4.1,0.5c1.3,1.3,1,2.7,0.1,4.1c-2.4,3.4-4.5,7-7.2,10.2
				c-2.6,3.1-2.8,5.3,0.1,8.7c6.2,7.2,10.7,15.6,12.7,25c-1.8,0.2-4-0.7-5.3,1.5C185,80.8,184.7,80.6,184.4,80.4z"/>
			<path class="st38" d="M169.4,215.5c11.2-7,21.4-15.2,28.8-26.4c12.4-18.7,18.2-38.7,11.4-61.1c-1.3-4.2-3.2-8-5.4-11.8
				c-0.9-1.4-1.7-2.9-3.7-2.9c0-8,0.2-16.1-0.7-24.1c12.5,2.8,18.6,12,22.7,23c4.6,12.4,3.3,25.2,0.9,37.8
				c-3.3,17.5-9.2,34-21.8,47.2C192.7,206.6,182.6,213.8,169.4,215.5z"/>
			<path class="st39" d="M199.9,89.4c0.8,8,0.7,16.1,0.7,24.1c-2.3,1.2-1.5,3-0.8,4.7c-3.5,24.8-13.4,46.3-32.4,63.2
				c-17.6,15.6-38.4,21.9-61.6,20c-4.8-0.4-9.8-0.9-14.7-3.6c7.6-1,14.8,1.2,21.6-2.1c46.4-10.7,89.2-53.9,80.4-108
				c1.8,0,3.6,0,5.4-0.1C198.8,88.3,199.3,88.8,199.9,89.4z"/>
			<path class="st40" d="M192.9,87.8c8.8,54.1-34,97.3-80.4,108c-10.3-0.1-20.6-1-30.6-3.6l-0.1,0c-0.7-0.3-1.5-0.6-2.2-0.9
				c-1.3-0.5-2.4-2.2-4.1-0.8c0,0,0.1,0.1,0.1,0.1c0.5-0.4,0.5-0.8,0-1.2c-0.6-2-1.6-3.9,0-5.9c1.6,0.4,3.3,0.8,4.9,1.2
				c4.2,2.1,8.8,2.6,13.2,3.8c2.7,0.7,3.6-0.6,3.8-2.9c1.9,0,3.7,0,5.6,0c-0.2,2.4-0.1,4.1,3.4,3.6c32.2-4.2,55.3-21.5,71.2-49.3
				c9.8-16.4,11.9-34,8.6-52.5c-0.4-2.1-0.7-4.3-1.1-6.4c1.3-2.2,3.4-1.3,5.3-1.5c0.3,0.4,0.6,0.7,0.9,1.1
				C191.9,83,192.4,85.4,192.9,87.8z"/>
			<path class="st41" d="M185.2,81.1c0.4,2.1,0.7,4.3,1.1,6.4c-3.5-0.2-5,1.3-4.9,5c0.3,6.3,0.1,12.6,0.1,18.9
				c0,1.3-0.4,2.9,0.6,3.8c3.6,3.1,1.6,6.2,0.4,9.4c-1.9,5-5.3,9.6-4.8,15.3c-15.9,27.8-39,45-71.2,49.3c-3.4,0.4-3.6-1.2-3.4-3.6
				c0.1-0.3,0.3-0.6,0.4-0.9c27.6-0.3,55.6-20.5,65-46.6c5-13.8,7.3-27.8,5.2-42.5c-1.2-8,3.2-13.9,10.7-15.3
				C184.7,80.6,185,80.8,185.2,81.1z"/>
			<path class="st36" d="M103.6,184.7c-0.1,0.3-0.3,0.6-0.4,0.9c-1.9,0-3.7,0-5.6,0c-0.1-0.3-0.2-0.7-0.3-1
				c0.2-4.2,0.4-8.3,0.6-12.5c0.1-2.2,0.9-4.1,3.5-3.8c2.8,0.2,2.7,2.4,2.6,4.5C103.8,176.7,103.7,180.7,103.6,184.7z"/>
			<path class="st42" d="M107.3,119.6c-1.2-1.2-0.9-2.7-0.8-4.1c0.3-3-1-4.5-3.9-4.9c-0.3-1-1.4-0.9-2.1-1.3
				c0.3-3.3,1.2-6.2,5.2-6.6c2.6,1.4,3.6,3.5,3,6.5C108.1,112.7,107.8,116.1,107.3,119.6z"/>
			<path class="st43" d="M97.2,184.5c0.1,0.3,0.2,0.7,0.3,1c-0.2,2.3-1.2,3.6-3.8,2.9c-4.4-1.2-9.1-1.7-13.2-3.8
				C86.1,184.6,91.7,184.6,97.2,184.5z"/>
			<path class="st41" d="M192.9,87.8c-0.5-2.4-1-4.7-1.5-7.1c3.4,1.3,6,3.3,6.9,7.1C196.5,87.7,194.7,87.8,192.9,87.8z"/>
			<path class="st38" d="M167.3,216.4c0.5-0.8,1.3-1.1,2.2-1C169.1,216.5,168.2,216.6,167.3,216.4z"/>
			<path class="st44" d="M81.9,192.2c10,2.6,20.3,3.5,30.6,3.6c-6.7,3.3-14,1.1-21.6,2.1c4.9,2.7,10,3.2,14.7,3.6
				c23.2,1.9,44-4.4,61.6-20c19-16.8,28.9-38.4,32.4-63.2c9.7,14.5,10.2,30.2,5.5,46.4c-9.1,31.6-37,53.6-69.8,54.3
				c-21.3,0.4-40-7-55-22.7C83.9,195.9,82.1,193.8,81.9,192.2z"/>
			<path class="st45" d="M81.9,192.2c0.2,1.6,2,3.7-1.5,4c-2.2-1.4-3.9-3.2-4.9-5.6c1.7-1.4,2.8,0.3,4.1,0.8
				C80,192.4,80.8,192.6,81.9,192.2L81.9,192.2z"/>
			<path class="st45" d="M75.6,189.4c0.5,0.4,0.5,0.8,0,1.2c-0.3-0.1-0.5-0.2-0.8-0.4C75.1,190,75.3,189.7,75.6,189.4z"/>
			<path class="st46" d="M65.7,102.3c27-14.3,54-28.9,80.6-44c1-0.6,2.2-0.7,3.3-1.1c0.4,2-1.1,3-2.1,4.2
				c-4.6,5.1-9.3,10.3-13.9,15.4c-5.4,5.6-11.7,10.1-18,14.6C100.2,101,83.6,104.8,65.7,102.3z"/>
			<path class="st47" d="M107.3,119.6c0.5-3.4,0.8-6.9,1.4-10.3c0.6-3-0.3-5.1-3-6.5c0,0-0.2,0-0.2,0c0.8-0.1,1.7-0.1,2.1-1.1
				c0,0,0,0.1,0,0.1c11.3-4.5,20.6-12,29.7-19.7c1.5-1.2,1.6-2.8,1.2-4.5c7.6-6.7,14.8-13.8,23-19.8c-0.1,0.5-0.1,0.9-0.2,1.4
				c-0.3,0.5-0.7,1-1,1.4c0,0,0-0.1,0-0.1c-0.8,0.5-1.1,1.1-1.1,2c0,0,0-0.1,0-0.1c-0.9,0.4-1.4,1-1.1,2c0,0,0-0.1,0-0.1
				c-1.5,0.5-2.2,1.5-2,3.1c0,0,0-0.1,0-0.1c-1.3,0.1-1.6,1.1-1.9,2.2c0,0,0.1,0,0.1,0c-0.9,0.4-1.3,1.1-1.1,2c0,0,0.1-0.1,0.1-0.1
				c-0.8,0-1,0.5-1.1,1.1c0,0,0.1-0.1,0.1-0.1c-0.3,0.4-0.7,0.7-1,1.1c0,0,0.1-0.1,0.1-0.1c-0.8,0.4-1.2,1.1-1.1,2
				c0,0,0.1-0.1,0.1-0.1c-0.4,0.4-0.8,0.7-1.1,1.1c-5.5,6.7-9.7,14.4-15.5,20.9c-1.2,1.3-2.3,2.8-3.4,4.2c-4.5,4.2-8.8,8.6-9.8,15.1
				c0,0,0,0,0,0c-2.5-0.1-2.3,1.6-2,3.2c-1.7,2.8-3.4,5.6-5.1,8.4c-3.1,2.7-4,7.4-8.3,9.6c0.3-3,0.5-5.6,0.7-8.2
				C106.3,126.3,106.8,122.9,107.3,119.6z M118.1,102.2c-2.4,1.6-5.8,2.6-4,7.3c1.8-2.6,3.6-4.4,4.5-7c0.7-0.3,1.1-1,0.5-1.4
				C118.5,100.8,118.3,101.8,118.1,102.2z"/>
			<path class="st48" d="M161.6,57.7c-8.2,6-15.4,13.2-23,19.8c-1.6-1.3-3.3-1.2-5.1-0.8c4.6-5.1,9.3-10.2,13.9-15.4
				c1.1-1.2,2.6-2.2,2.1-4.2c2-1.5,4-3.1,6.1-4.6c0.4-0.3,0.7-0.7,1.1-1c0,0-0.1,0.1-0.1,0.1c0.6-0.1,1.3-0.1,1.9-0.2
				c2.3,0.8,3.8,2.4,4.1,4.9C162.3,56.9,162,57.3,161.6,57.7z"/>
			<path class="st42" d="M133.5,76.8c1.8-0.4,3.6-0.5,5.1,0.8c0.4,1.7,0.3,3.3-1.2,4.5c-9.1,7.7-18.4,15.2-29.7,19.7
				c0.3-1.4,0.6-2.8,0.8-4.2c0,0,0,0,0,0c0.8,0,1.6-0.2,2-1c1.7-1.7,5-1.8,4.9-5.2C121.7,86.9,128,82.3,133.5,76.8z"/>
			<path class="st49" d="M115.5,91.4c0,3.3-3.3,3.5-4.9,5.2c-0.8,0-1.6,0.2-2,1c0,0,0,0,0,0c-8.9,2.9-17.7,6.3-26.9,8.3
				c-4.1,0.9-8.2,0.6-12.2,1.5c-3.1,0.7-5.7-1-3.7-5.1C83.6,104.8,100.2,101,115.5,91.4z"/>
			<path class="st42" d="M105.8,129.6c-0.2,2.6-0.4,5.2-0.7,8.2c4.3-2.1,5.2-6.9,8.3-9.6c0.5,3.8-1.4,7.1-2.6,10.5
				c-0.6,1.9-2,3.2-4.2,2.6c-1.9-0.5-3.2-1.9-3.2-4C103.6,134.6,103.8,131.8,105.8,129.6z"/>
			<path class="st45" d="M120.6,116.6c1-6.5,5.3-10.9,9.8-15.1C128.8,107.6,124.5,112,120.6,116.6z"/>
			<path class="st47" d="M162.6,56.4c-0.3-2.5-1.8-4-4.1-4.9c0.1-0.3,0.2-0.6,0.2-0.9c0,0-0.1,0.1-0.1,0.1c1.6-0.8,3.2-1.6,4.8-2.4
				C167.4,51.5,165,53.9,162.6,56.4z"/>
			<path class="st42" d="M163.5,48.3c-1.6,0.8-3.2,1.6-4.8,2.4C159.3,48,159.8,45,163.5,48.3z"/>
			<path class="st42" d="M156.3,67.4c-0.1-1.6,0.5-2.6,2-3.1C158.6,66,158,67.1,156.3,67.4z"/>
			<path class="st45" d="M118.6,119.9c-0.2-1.7-0.5-3.3,2-3.2C120.7,118.2,119.7,119.1,118.6,119.9z"/>
			<path class="st42" d="M154.4,69.5c0.3-1,0.6-2,1.9-2.2C156.6,68.9,155.9,69.5,154.4,69.5z"/>
			<path class="st42" d="M150.4,75.5c0-0.9,0.3-1.6,1.1-2C151.5,74.4,151.4,75.2,150.4,75.5z"/>
			<path class="st42" d="M153.3,71.5c-0.2-1,0.2-1.6,1.1-2C154.5,70.4,154.4,71.2,153.3,71.5z"/>
			<path class="st42" d="M107.7,101.7c-0.4,1-1.2,1-2.1,1.1C105.9,101.7,106.7,101.6,107.7,101.7z"/>
			<path class="st42" d="M158.3,64.5c-0.3-1,0.2-1.7,1.1-2C159.5,63.4,159.4,64.2,158.3,64.5z"/>
			<path class="st42" d="M159.4,62.5c0-0.9,0.4-1.6,1.1-2C160.5,61.4,160.4,62.2,159.4,62.5z"/>
			<path class="st42" d="M158.7,50.7c0,0.3-0.1,0.6-0.2,0.9c-0.6,0.1-1.3,0.1-1.9,0.2C157,50.7,157.8,50.6,158.7,50.7z"/>
			<path class="st42" d="M149.3,76.5c0.4-0.4,0.8-0.7,1.1-1.1C150.1,75.8,149.7,76.2,149.3,76.5z"/>
			<path class="st42" d="M151.4,73.5c0.3-0.4,0.7-0.7,1-1.1C152.1,72.8,151.8,73.2,151.4,73.5z"/>
			<path class="st42" d="M152.4,72.5c0.1-0.7,0.3-1.2,1.1-1.1C153.1,71.8,152.7,72.1,152.4,72.5z"/>
			<path class="st42" d="M160.5,60.6c0.3-0.5,0.7-1,1-1.4C161.1,59.6,160.8,60.1,160.5,60.6z"/>
			<path class="st42" d="M156.6,51.6c-0.4,0.3-0.7,0.7-1.1,1C155.9,52.3,156.3,51.9,156.6,51.6z"/>
			<path class="st50" d="M177.7,140c-0.4-5.8,3-10.3,4.8-15.3c1.2-3.2,3.2-6.3-0.4-9.4c-1.1-0.9-0.6-2.5-0.6-3.8
				c0-6.3,0.2-12.6-0.1-18.9c-0.2-3.7,1.3-5.2,4.9-5C189.6,106,187.5,123.6,177.7,140z"/>
			<path class="st44" d="M81.8,192.2c-1,0.5-1.8,0.2-2.2-0.9C80.3,191.6,81.1,191.9,81.8,192.2z"/>
			<path class="st35" d="M118.6,102.6c-0.9,2.5-2.7,4.4-4.5,7c-1.8-4.7,1.6-5.7,4-7.3C118.2,102.3,118.4,102.5,118.6,102.6z"/>
			<path class="st35" d="M118.1,102.2c0.3-0.4,0.4-1.4,1.1-1c0.6,0.4,0.1,1.1-0.5,1.4C118.4,102.5,118.2,102.3,118.1,102.2z"/>
			<path class="st37" d="M108.5,97.6c0.4-0.8,1.2-1,2-1C110.1,97.4,109.4,97.6,108.5,97.6z"/>
		</g>
	</g>
</g>
</svg>
