<?xml version="1.0" encoding="utf-8"?>
<!-- Generator: Adobe Illustrator 23.0.3, SVG Export Plug-In . SVG Version: 6.00 Build 0)  -->
<svg version="1.1" xmlns="http://www.w3.org/2000/svg" xmlns:xlink="http://www.w3.org/1999/xlink" x="0px" y="0px"
	 viewBox="0 0 235.5 244.8" style="enable-background:new 0 0 235.5 244.8;" xml:space="preserve">
<style type="text/css">
	.st0{fill:#FCFCFC;}
	.st1{fill:#FEFEFE;}
	.st2{fill:#B8B8B8;}
	.st3{fill:#868686;}
	.st4{fill:#232120;}
	.st5{fill:#2E2320;}
	.st6{fill:#00A4BF;}
	.st7{fill:#E5656D;}
	.st8{fill:#00B0CC;}
	.st9{fill:#D02A30;}
	.st10{fill:#00181C;}
	.st11{fill:#2C1907;}
	.st12{fill:#ECB935;}
	.st13{fill:#007BA5;}
	.st14{fill:#DC880B;}
	.st15{fill:#006B90;}
	.st16{fill:#EA626D;}
	.st17{fill:#E24852;}
	.st18{fill:#FDFEFE;}
	.st19{fill:#45AEE1;}
	.st20{fill:#8FCDEC;}
	.st21{fill:#232627;}
	.st22{fill:#211D06;}
	.st23{fill:#8CCAE9;}
	.st24{fill:#42A9DB;}
	.st25{fill:#91CEED;}
	.st26{fill:#EAD52D;}
	.st27{fill:#3EAADE;}
	.st28{fill:#D06267;}
	.st29{fill:#43872E;}
	.st30{fill:#5D9650;}
	.st31{fill:#EED82B;}
	.st32{fill:#FCFBFC;}
	.st33{fill:#0A0A0A;}
	.st34{fill:#FDFDFE;}
	.st35{fill:#FDFDFD;}
	.st36{fill:#262525;}
	.st37{fill:#25221F;}
	.st38{fill:#92CFED;}
	.st39{fill:#3EAADD;}
	.st40{fill:#101C20;}
	.st41{fill:#91CEEC;}
	.st42{fill:#1D0906;}
	.st43{fill:#8DC0DA;}
	.st44{fill:#90CEED;}
	.st45{fill:#EDE2E3;}
	.st46{fill:#ECD529;}
	.st47{fill:#D26369;}
	.st48{fill:#C7550F;}
	.st49{fill:#262104;}
	.st50{fill:#3EA8DB;}
	.st51{fill:#241914;}
	.st52{fill:#91CFEE;}
	.st53{fill:#3FABDF;}
	.st54{fill:#92D0EF;}
	.st55{fill:#2D2C2B;}
	.st56{fill:#2A2928;}
	.st57{fill:#8EC5E0;}
	.st58{fill:#EBD42C;}
	.st59{fill:#D26268;}
	.st60{fill:#F8F8F8;}
	.st61{fill:#F5F5F5;}
	.st62{fill:#F7F6F6;}
	.st63{fill:#CBDFE9;}
	.st64{fill:#EBEFF1;}
	.st65{fill:#CD3434;}
	.st66{fill:#251915;}
	.st67{fill:#1F1F1F;}
	.st68{fill:#E37272;}
	.st69{fill:#241712;}
	.st70{fill:#241611;}
	.st71{fill:#220B09;}
	.st72{fill:#6FC0E0;}
	.st73{fill:#0E1312;}
	.st74{fill:#6FC2E2;}
	.st75{fill:#2A1F1A;}
	.st76{fill:#3194CA;}
	.st77{fill:#010102;}
	.st78{fill:#7AC9E9;}
	.st79{fill:#211B19;}
	.st80{fill:#031619;}
	.st81{fill:#00A3BE;}
	.st82{fill:#FBFBFA;}
	.st83{fill:#CF2A30;}
	.st84{fill:#006A90;}
	.st85{fill:#EBB834;}
</style>
<g id="Capa_2">
</g>
<g id="Capa_1">
	<g>
		<path class="st34" d="M36.5,99.8c0,0,26.6-76.2,100.7-58s67.8,94.4,67.8,94.4s-3.5,47.5-39.8,65s-76.2,13.3-76.2,13.3l-7.7,10.5
			c0,0-49.6-4.2-51-37.7l15.4-14L36.5,99.8z"/>
		<g>
			<path class="st34" d="M98.2,219.8c3.9,2.2,8.3,2,12.5,2.2c23.6,0.8,44.2-6.8,62.1-22.2c1.6-1.4,3.4-2.7,3.2-5.3
				c10,8.2,20,7.3,28.5-2.5c2.7-3.1,4.9-6.6,6.8-10.3c2.3-4.3,2.1-8.5-1-12.5c-3.6-4.5-7.2-9-10.7-13.5c2.3-6.5,3-13.3,2.8-20
				c-0.7-22.7-9.2-42.6-25.3-58.5c-22.6-22.4-49.7-32.9-81.8-28.5c-3.2-3.6-8.5-5.7-8-12.1c0.2-2-2-3.5-4.3-3
				c-1.4,0.3-2.3,0.4-3.6-0.4C67.1,26.1,53,24.8,39.8,20.8c-4.2-1.3-6.6,1.8-5,6.1c2.7,7.4,5.4,14.9,8.3,22.2
				c2.8,6.8,4.3,14.2,8.8,20.3c-3.2,5.8-8.8,8.7-14.5,11.5c-0.5-2.5,4.9-4.6,1.3-6.6c-3.7-2.1-4.3,2.9-6.2,4.8
				c-0.5,0.5-0.8,1.1-1,1.7C21,101.9,15.7,124,18.2,147.7c0.8,7.9,3.1,15.5,6.7,22.6c2.7,5.3,5.8,6.1,10,3.2
				c0.7,0.4,1.5,0.9,2.2,1.3c-5.5,5.3-10.9,10.6-16.4,15.9c-2,1.9-4,4-1.2,6.6c2.5,2.4,4.7,1.1,6.9-0.9c15.9-14.5,30.8-29.9,45.1-46
				c3.2-3.6,4.9-7.7,5.2-12.5c0.5-9.6,1.2-19.1,1.9-28.7c0.4-5.8,1.4-11.5,3.8-16.8c6.1-13.4,22.1-17.4,33.6-8.4
				c8.8,7,12.3,17.5,18.2,27.8c-2-0.6-2.8-0.7-3.5-1c-7-3.1-12.5-8-16.1-14.8c-1.3-2.4-2.9-3.7-5.5-2.5c-2.5,1.1-2.9,3.2-2,5.8
				c0.8,2.3,1.3,4.8,1.8,7.2c3,14.8,3.9,29.3-7.6,41.5c-1.8,1.9-1.6,3.9,0.2,5.7c2,1.8,3.9,1.3,5.7-0.4c4.4-4.2,7.1-9.4,9.4-15.1
				c8.1,7.5,16,15,24,22.4c1.4,1.3,1.5,2.2,0.2,3.6c-4.9,5.6-9.9,11.1-16,15.5c-2.3,1.7-4.9,2.8-7.8,2.7c-3.6-0.1-6.3,1.5-8.8,3.8
				c-11.9,11.3-22.6,23.6-32,37.1c-1.5,2.2-3,4.5-0.1,6.4c2.6,1.8,4.9,0.9,6.7-1.8c2.3-3.4,5-6.5,7.5-9.8c0.6,0.1,1.1,0.3,1.7,0.4
				C93.3,222.2,95.9,220.1,98.2,219.8z M118.8,33c-4.1,0-8.3-0.2-12.4,0.1c-1.7,0.1-4.6-0.7-4.5,2.4c0.1,3.3,2.9,2,4.6,2
				c10.8-0.4,21.5-0.1,32.1,2c31,6.4,53,23.5,62.3,54.3c5.6,18.7,7.4,37.9,1.9,57.2c-0.4,1.4-1.5,3.4,1.1,4c2.3,0.6,2.7-1.2,3.2-2.9
				c0.5-1.9,1.1-3.8,1.6-5.7c3-13.1,1.7-26.3-0.1-39.4c-2.9-21.7-12.2-40-29.3-54C161.7,38.6,140.9,33.7,118.8,33z"/>
			<path class="st51" d="M199.5,155.8c3.6,4.5,7.2,9,10.7,13.5c3.1,3.9,3.3,8.1,1,12.5c-1.9,3.6-4.1,7.1-6.8,10.3
				c-8.5,9.9-18.5,10.8-28.5,2.5c-3.1-3.7-6.2-7.3-10-10.2c-4.6-5.1-9.7-9.8-15.1-14.1c-1.5-2.5-3-3-4.9-0.2
				c-1.2,1.9-2.8,3.6-4.2,5.4c-3.6,3.3-7.2,6.6-10.8,10c0,0,0.1,0,0.1,0c-0.5,0.3-1,0.7-1.5,1c-14,3.6-24.7,11.6-32.3,23.8
				c-1.1,0.3-1.9,0.8-2.1,2l0.1,0c-0.7,0-1,0.4-1.1,1.1l0-0.1c-0.8,0.4-1.6,0.8-1.2,2l0-0.2c-1.7,0.4-2.1,1.9-2.8,3.1
				c-2.5,3.3-5.2,6.4-7.5,9.8c-1.8,2.7-4.1,3.5-6.7,1.8c-2.8-1.9-1.4-4.2,0.1-6.4c9.4-13.5,20.1-25.8,32-37.1
				c2.5-2.3,5.2-3.9,8.8-3.8c2.9,0.1,5.5-1,7.8-2.7c6.1-4.4,11.1-9.9,16-15.5c1.3-1.5,1.2-2.3-0.2-3.6c-8-7.4-16-14.8-24-22.4
				c-2.2,5.6-5,10.9-9.4,15.1c-1.8,1.7-3.7,2.2-5.7,0.4c-1.9-1.7-2-3.8-0.2-5.7c11.5-12.2,10.6-26.7,7.6-41.5
				c-0.5-2.4-1-4.9-1.8-7.2c-1-2.6-0.5-4.7,2-5.8c2.6-1.2,4.3,0.1,5.5,2.5c3.6,6.8,9.1,11.7,16.1,14.8c0.7,0.3,1.5,0.4,3.5,1
				c-5.9-10.3-9.3-20.8-18.2-27.8c-11.5-9.1-27.5-5-33.6,8.4c-2.4,5.3-3.4,11-3.8,16.8c-0.7,9.6-1.4,19.1-1.9,28.7
				c-0.3,4.8-2,8.9-5.2,12.5c-14.2,16.1-29.2,31.6-45.1,46c-2.2,2-4.4,3.2-6.9,0.9c-2.8-2.6-0.8-4.7,1.2-6.6
				c5.5-5.3,10.9-10.6,16.4-15.9c10.4-9.6,19.9-20.2,29.2-30.9c1.8-2.1,2.4-4.7,2.6-7.3c1.2-14.6,0.8-29.4,4.8-43.7
				c0.5-2-0.7-2.7-1.7-3.7C65.3,82.6,58.6,76,51.8,69.4c-4.5-6.1-6-13.5-8.8-20.3c-3-7.3-5.6-14.8-8.3-22.2c-1.5-4.2,0.8-7.3,5-6.1
				c13.2,4,27.3,5.3,39.4,12.5c1.3,0.8,2.3,0.7,3.6,0.4c2.3-0.5,4.5,1,4.3,3c-0.5,6.3,4.8,8.4,8,12.1c4.9,4.8,10,9.5,14.7,14.6
				c2.4,2.6,3.7,3.2,6.7,0.4c11.4-10.7,25.3-6.9,28,6c6.5-1.7,13.4-4.6,18.9,1.6c5.4,6.1,0.2,11.3-2.8,16.4
				c11,2.5,11.3,2.9,10.2,14.7c-0.3,2.8,1.7,1.9,2.9,2.1c8,1.8,12.5,6.6,13.2,14.5c0.5,5.9-1.4,11.1-4.9,15.7c-1.2,1.5-1.7,2.4,0,4
				C188,144.4,193.7,150.1,199.5,155.8z M168.7,113.2c-0.8-0.2-2.1-0.8-2.3-0.5c-3.7,4.9-7.3,9.8-11,14.8c0,0.1,0.1,0.3,0.2,0.4
				c2.9,2.3,1.3,5.5,1.8,8.3c0.6,3.6,2.6,5,5.9,3.4c6.5-3.1,12.2-7.1,15-14.2C180.9,116.3,176.8,111.2,168.7,113.2z M118.5,113.4
				c0,4.2,0.3,8-0.1,11.7c-0.2,2.6,0.7,4.1,2.5,5.9c14.9,15,30.9,28.9,46.5,43.1c1.1,1,2.3,4.5,4.4,1.5c1.6-2.2,6-3.7,2.6-8.1
				c-4.4-5.7-9.6-10.4-14.7-15.3c-3.7-3.5-8.6-6.6-9.3-12c-0.7-5.1-2.9-5.9-7.5-5.5c-8.5,0.8-12.9-3.6-13.1-12
				c0-1.3,0.5-2.9-1.1-3.4C124.8,118.2,122.4,114.7,118.5,113.4z M188.6,192.2c5.5,0.1,16-10.4,15.8-15.8c0-0.9-0.3-2.1-0.8-2.8
				c-2.2-2.4-4-5.1-6.4-7.4c-1.9-1.7-3.3-1.4-5.1-0.1c-5.4,4.4-10.1,9.5-14.4,14.9c-0.6,0.8-1.2,1.5-0.7,2.6
				C178.3,187,185.2,192.2,188.6,192.2z M105.1,71.2c-6.3-6.6-12.3-13-18.5-19.4c-7-7.3-7-7.2-14.6-0.4c-1.9,1.7-1.6,2.5,0.1,4.1
				c5.6,5.3,11.1,10.8,16.6,16.3c1.1,1.1,2.2,1.9,3.9,1.2C96.6,71.3,100.9,71.2,105.1,71.2z M138.7,102.6c6-7.6,11.8-15,17.6-22.4
				c0.8-1,1.9-2.1,1.2-3.5c-0.5-1-1.6-1-2.6-1c-10.3-0.1-15.7,8.2-22.9,13.4c0.5,5,4.1,8.5,6,12.9C138,102,138.2,102.1,138.7,102.6z
				 M141.6,127c3-0.2,5.1-2.1,7-4.2c6.1-6.8,10.4-14.8,14.8-22.6c0.6-1.1,1.5-2.4,0.2-3.6c-1.1-0.9-2.2-0.1-3.2,0.3
				c-5.7,2.8-10.5,6.7-15.1,11c-2.1,2-2.5,3.4-0.4,5.6c1.4,1.4,2.3,3.2,1.4,5.4c-1,2.4-3,2.2-5,2.1c-2.2-0.1-4.2,0-4,2.8
				C137.6,126.1,139.3,127.1,141.6,127z M54.2,56c6.8-5.6,13.1-10.9,19.6-16.3c-3.3-2.2-10.9-5.3-12.9-5.2c-2.9,0.1-3,3.3-5.2,4.6
				c-6.4,4-6.3,4.2-3.7,11.2C52.7,52.1,53.3,53.7,54.2,56z M78.7,82.7c1.2-1.3,2.5-2.5,3.5-3.9c0.9-1.3,0-2.5-1-3.4
				c-5.4-5-10.8-10.1-16.2-15.1c-2.6-2.4-3.6,0.9-5.1,1.7c-1.9,1-1.7,2.4-0.1,3.9c4.4,4.2,8.7,8.6,13.1,12.7
				C74.5,80.1,76.6,81.2,78.7,82.7z M166.8,147.2c4.7,4.4,9.1,9,12.8,14.3c2,2.9,3.2,2.6,5.5,0.4c4.7-4.6,4.8-4.4,0.1-9.2
				c-1.6-1.6-3.3-3.2-5-4.8C174,142.2,174,142.2,166.8,147.2z M130.3,65.3c-3.6,0.1-13.6,7.5-12.5,9.1c2.1,3.1,5.3,5.6,8.5,7.6
				c1.6,1,10-8.6,9.9-11.1C136,66.9,133.3,65.7,130.3,65.3z"/>
			<path class="st52" d="M51.8,69.4C58.6,76,65.3,82.6,72,89.2c1,1,2.3,1.7,1.7,3.7c-4,14.3-3.5,29.1-4.8,43.7
				c-0.2,2.7-0.8,5.3-2.6,7.3c-9.3,10.7-18.8,21.2-29.2,30.9c-0.7-0.4-1.5-0.9-2.2-1.3c-0.1-1.4-0.7-2.5-2-3
				c-4.2-9.5-8.2-19.1-9.3-29.6c0-0.4-1-0.7-1.5-1c-1.1-11.1,1.8-21.6,4.4-32.1c2.2-8.9,4.4-17.9,9.7-25.6c0.7-0.1,1.3-0.3,1.5-1.1
				l-0.3-0.1C43,78.1,48.6,75.2,51.8,69.4z"/>
			<path class="st41" d="M199.5,155.8c-5.8-5.7-11.5-11.4-17.3-16.9c-1.7-1.6-1.2-2.5,0-4c3.5-4.6,5.5-9.8,4.9-15.7
				c-0.7-7.9-5.2-12.7-13.2-14.5c-1.1-0.3-3.1,0.6-2.9-2.1c1.1-11.8,0.8-12.2-10.2-14.7c3-5.2,8.2-10.4,2.8-16.4
				c-5.5-6.2-12.4-3.3-18.9-1.6c-2.7-12.9-16.6-16.7-28-6c-3,2.9-4.3,2.3-6.7-0.4c-4.7-5.1-9.8-9.7-14.7-14.6
				c32.1-4.4,59.3,6.1,81.8,28.5c16.1,15.9,24.6,35.8,25.3,58.5C202.5,142.5,201.8,149.3,199.5,155.8z"/>
			<path class="st53" d="M150.9,170.2c5.4,4.3,10.4,9,15.1,14.1c-0.4,2.4-1.5,4.4-3.4,5.9c-5.3,4.4-10.7,8.8-16.7,12.2
				c-5.4,3-10.9,5.8-17,1.3c-0.7-0.5-2-0.6-2.9-0.4c-11,2.5-20.6,7.4-27.7,16.5c-2.2,0.3-4.8,2.3-6.2-1.4c0.6-1.1,1.6-2.1,1.1-3.6
				c0,0,0,0.2,0,0.2c1.1-0.2,1.3-1,1.2-2c0,0,0,0.1,0,0.1c0.4-0.4,0.7-0.7,1.1-1.1c0,0-0.1,0-0.1,0c1.4,0.1,2.1-0.6,2.1-2
				c7.6-12.2,18.4-20.2,32.4-23.8c0.5-0.3,1-0.7,1.5-1c0,0-0.1,0-0.1,0c6.2-0.8,10.5-4.1,13.1-9.8
				C146.3,173.8,147.8,171,150.9,170.2z"/>
			<path class="st54" d="M98.2,219.8c7.1-9.1,16.7-14,27.7-16.5c0.9-0.2,2.2-0.1,2.9,0.4c6.1,4.5,11.6,1.7,17-1.3
				c6.1-3.4,11.4-7.8,16.7-12.2c1.8-1.5,3-3.5,3.4-5.9c3.8,3,6.9,6.6,10,10.2c0.2,2.5-1.6,3.9-3.2,5.3c-17.8,15.4-38.5,23-62.1,22.2
				C106.5,221.8,102,222.1,98.2,219.8z"/>
			<path class="st55" d="M118.8,33c22.1,0.6,42.9,5.6,60.4,20c17,14,26.3,32.3,29.3,54c1.8,13.1,3.1,26.3,0.1,39.4
				c-0.4,1.9-1,3.8-1.6,5.7c-0.5,1.6-0.9,3.4-3.2,2.9c-2.6-0.6-1.5-2.6-1.1-4c5.5-19.3,3.8-38.5-1.9-57.2
				c-9.3-30.8-31.3-47.9-62.3-54.3c-10.6-2.2-21.3-2.4-32.1-2c-1.7,0.1-4.5,1.3-4.6-2c-0.1-3.1,2.8-2.3,4.5-2.4
				C110.5,32.9,114.7,33,118.8,33z"/>
			<path class="st56" d="M32.9,170.5c1.3,0.6,2,1.6,2,3c-4.3,3-7.3,2.1-10-3.2c-3.6-7.1-5.9-14.8-6.7-22.6
				C15.7,124,21,101.9,31.5,80.7c0.3-0.6,0.6-1.2,1-1.7c1.9-1.9,2.5-6.8,6.2-4.8c3.6,2-1.8,4.1-1.3,6.6c0,0,0.3,0.1,0.3,0.1
				c-1.1-0.5-1.2,0.5-1.5,1.1c-5.3,7.8-7.5,16.7-9.7,25.6c-2.6,10.5-5.5,21.1-4.4,32.1c0.3,9.2,2.3,18.1,5.7,26.6
				C28.6,168.7,29.5,171.3,32.9,170.5z"/>
			<path class="st57" d="M93,214.9c0.5,1.4-0.4,2.5-1.1,3.6c-0.6-0.1-1.1-0.3-1.7-0.4C90.9,216.8,91.4,215.3,93,214.9z"/>
			<path class="st58" d="M118.5,113.4c4,1.4,6.3,4.9,10.1,6c1.6,0.5,1.1,2.1,1.1,3.4c0.2,8.5,4.6,12.8,13.1,12
				c4.6-0.4,6.8,0.4,7.5,5.5c0.7,5.4,5.6,8.5,9.3,12c5.2,4.9,10.4,9.6,14.7,15.3c3.4,4.4-1,5.9-2.6,8.1c-2.1,3-3.3-0.5-4.4-1.5
				c-15.6-14.2-31.6-28.1-46.5-43.1c-1.8-1.8-2.7-3.3-2.5-5.9C118.7,121.3,118.5,117.5,118.5,113.4z"/>
			<path class="st59" d="M188.6,192.2c-3.4,0-10.3-5.2-11.6-8.5c-0.5-1.2,0.1-1.9,0.7-2.6c4.3-5.4,8.9-10.6,14.4-14.9
				c1.7-1.4,3.1-1.7,5.1,0.1c2.5,2.2,4.3,4.9,6.4,7.4c0.6,0.7,0.8,1.8,0.8,2.8C204.6,181.8,194.1,192.3,188.6,192.2z"/>
			<path class="st60" d="M105.1,71.2c-4.3,0-8.5,0.1-12.6,1.8c-1.7,0.7-2.7-0.1-3.9-1.2c-5.5-5.5-10.9-11-16.6-16.3
				c-1.7-1.6-2-2.4-0.1-4.1c7.6-6.7,7.6-6.8,14.6,0.4C92.8,58.1,98.9,64.6,105.1,71.2z"/>
			<path class="st60" d="M178.3,125.3c-2.8,7-8.5,11.1-15,14.2c-3.3,1.6-5.2,0.2-5.9-3.4c-0.5-2.8,1-6-1.8-8.3
				c-0.1-0.1-0.2-0.3-0.2-0.4c3.6-5,7.2-9.9,11-14.8c0.2-0.3,1.5,0.3,2.3,0.5c0,1.6-0.1,3.1,2,3.9
				C174.6,118.5,176.9,121.6,178.3,125.3z"/>
			<path class="st61" d="M138.7,102.6c-0.5-0.4-0.7-0.5-0.7-0.7c-1.9-4.3-5.6-7.9-6-12.9c7.2-5.2,12.6-13.4,22.9-13.4
				c1,0,2.2,0,2.6,1c0.7,1.4-0.4,2.5-1.2,3.5C150.5,87.6,144.6,95,138.7,102.6z"/>
			<path class="st61" d="M141.6,127c-2.3,0.1-4-0.9-4.2-3.2c-0.3-2.8,1.8-3,4-2.8c2,0.1,4,0.3,5-2.1c0.9-2.2-0.1-3.9-1.4-5.4
				c-2.1-2.2-1.7-3.6,0.4-5.6c4.6-4.3,9.4-8.2,15.1-11c1-0.5,2.1-1.3,3.2-0.3c1.3,1.2,0.5,2.5-0.2,3.6c-4.5,7.9-8.7,15.9-14.8,22.6
				C146.7,124.9,144.6,126.8,141.6,127z"/>
			<path class="st62" d="M54.2,56c-0.9-2.3-1.5-3.9-2.2-5.6c-2.6-7-2.8-7.2,3.7-11.2c2.1-1.3,2.3-4.5,5.2-4.6c2-0.1,9.6,3,12.9,5.2
				C67.3,45.1,61,50.4,54.2,56z"/>
			<path class="st58" d="M78.7,82.7c-2.1-1.4-4.2-2.5-5.8-4.1c-4.5-4.2-8.7-8.5-13.1-12.7C58.2,64.4,58,63,59.9,62
				c1.6-0.8,2.5-4.2,5.1-1.7c5.4,5,10.8,10,16.2,15.1c1,0.9,1.9,2.1,1,3.4C81.2,80.2,79.9,81.4,78.7,82.7z"/>
			<path class="st61" d="M166.8,147.2c7.2-4.9,7.2-4.9,13.3,0.7c1.7,1.6,3.4,3.2,5,4.8c4.8,4.8,4.6,4.6-0.1,9.2
				c-2.3,2.3-3.5,2.5-5.5-0.4C175.9,156.2,171.5,151.6,166.8,147.2z"/>
			<path class="st60" d="M130.3,65.3c3,0.4,5.7,1.6,5.9,5.6c0.1,2.5-8.3,12.1-9.9,11.1c-3.2-2-6.4-4.5-8.5-7.6
				C116.7,72.8,126.7,65.4,130.3,65.3z"/>
			<path class="st57" d="M178.3,125.3c-1.5-3.7-3.8-6.9-7.7-8.3c-2.1-0.8-2-2.2-2-3.9C176.8,111.2,180.9,116.3,178.3,125.3z"/>
			<path class="st41" d="M144.1,175.6c-2.6,5.7-6.9,8.9-13.1,9.8c3.6-3.3,7.2-6.6,10.8-10C142.6,175.5,143.3,175.5,144.1,175.6z"/>
			<path class="st63" d="M144.1,175.6c-0.8-0.1-1.6-0.1-2.4-0.2c1.4-1.8,3-3.5,4.2-5.4c1.8-2.8,3.4-2.3,4.9,0.2
				C147.8,171,146.3,173.8,144.1,175.6z"/>
			<path class="st57" d="M97.3,210.2c0,1.4-0.6,2.1-2.1,2C95.3,210.9,96.2,210.4,97.3,210.2z"/>
			<path class="st57" d="M94.3,213.1c0.1,0.9-0.1,1.7-1.2,2C92.7,213.9,93.5,213.6,94.3,213.1z"/>
			<path class="st41" d="M131.1,185.3c-0.5,0.3-1,0.7-1.5,1C130.1,186,130.6,185.7,131.1,185.3z"/>
			<path class="st57" d="M95.3,212.1c-0.4,0.4-0.7,0.7-1.1,1.1C94.3,212.6,94.6,212.1,95.3,212.1z"/>
			<path class="st64" d="M32.9,170.5c-3.4,0.9-4.3-1.8-5.1-4c-3.4-8.5-5.4-17.4-5.7-26.6c0.5,0.3,1.4,0.6,1.5,1
				C24.6,151.4,28.7,160.9,32.9,170.5z"/>
			<path class="st34" d="M36.2,82.1c0.3-0.6,0.3-1.6,1.5-1.1C37.5,81.8,36.9,82,36.2,82.1z"/>
		</g>
	</g>
</g>
</svg>
