<?xml version="1.0" encoding="utf-8"?>
<!-- Generator: Adobe Illustrator 23.0.3, SVG Export Plug-In . SVG Version: 6.00 Build 0)  -->
<svg version="1.1" xmlns="http://www.w3.org/2000/svg" xmlns:xlink="http://www.w3.org/1999/xlink" x="0px" y="0px"
	 viewBox="0 0 235.5 244.8" style="enable-background:new 0 0 235.5 244.8;" xml:space="preserve">
<style type="text/css">
	.st0{fill:#FCFCFC;}
	.st1{fill:#FEFEFE;}
	.st2{fill:#B8B8B8;}
	.st3{fill:#868686;}
	.st4{fill:#232120;}
	.st5{fill:#2E2320;}
	.st6{fill:#00A4BF;}
	.st7{fill:#E5656D;}
	.st8{fill:#00B0CC;}
	.st9{fill:#D02A30;}
	.st10{fill:#00181C;}
	.st11{fill:#2C1907;}
	.st12{fill:#ECB935;}
	.st13{fill:#007BA5;}
	.st14{fill:#DC880B;}
	.st15{fill:#006B90;}
	.st16{fill:#EA626D;}
	.st17{fill:#E24852;}
	.st18{fill:#FDFEFE;}
	.st19{fill:#45AEE1;}
	.st20{fill:#8FCDEC;}
	.st21{fill:#232627;}
	.st22{fill:#211D06;}
	.st23{fill:#8CCAE9;}
	.st24{fill:#42A9DB;}
	.st25{fill:#91CEED;}
	.st26{fill:#EAD52D;}
	.st27{fill:#3EAADE;}
	.st28{fill:#D06267;}
	.st29{fill:#43872E;}
	.st30{fill:#5D9650;}
	.st31{fill:#EED82B;}
	.st32{fill:#FCFBFC;}
	.st33{fill:#0A0A0A;}
	.st34{fill:#FDFDFE;}
	.st35{fill:#FDFDFD;}
	.st36{fill:#262525;}
	.st37{fill:#25221F;}
	.st38{fill:#92CFED;}
	.st39{fill:#3EAADD;}
	.st40{fill:#101C20;}
	.st41{fill:#91CEEC;}
	.st42{fill:#1D0906;}
	.st43{fill:#8DC0DA;}
	.st44{fill:#90CEED;}
	.st45{fill:#EDE2E3;}
	.st46{fill:#ECD529;}
	.st47{fill:#D26369;}
	.st48{fill:#C7550F;}
	.st49{fill:#262104;}
	.st50{fill:#3EA8DB;}
	.st51{fill:#241914;}
	.st52{fill:#91CFEE;}
	.st53{fill:#3FABDF;}
	.st54{fill:#92D0EF;}
	.st55{fill:#2D2C2B;}
	.st56{fill:#2A2928;}
	.st57{fill:#8EC5E0;}
	.st58{fill:#EBD42C;}
	.st59{fill:#D26268;}
	.st60{fill:#F8F8F8;}
	.st61{fill:#F5F5F5;}
	.st62{fill:#F7F6F6;}
	.st63{fill:#CBDFE9;}
	.st64{fill:#EBEFF1;}
	.st65{fill:#CD3434;}
	.st66{fill:#251915;}
	.st67{fill:#1F1F1F;}
	.st68{fill:#E37272;}
	.st69{fill:#241712;}
	.st70{fill:#241611;}
	.st71{fill:#220B09;}
	.st72{fill:#6FC0E0;}
	.st73{fill:#0E1312;}
	.st74{fill:#6FC2E2;}
	.st75{fill:#2A1F1A;}
	.st76{fill:#3194CA;}
	.st77{fill:#010102;}
	.st78{fill:#7AC9E9;}
	.st79{fill:#211B19;}
	.st80{fill:#031619;}
	.st81{fill:#00A3BE;}
	.st82{fill:#FBFBFA;}
	.st83{fill:#CF2A30;}
	.st84{fill:#006A90;}
	.st85{fill:#EBB834;}
</style>
<g id="Capa_2">
</g>
<g id="Capa_1">
	<g>
		<path class="st18" d="M217.2,173.6c0.7-0.1,0.9-0.5,0.8-1.1l0,0c1.1-0.3,1.2-1.1,1-2l0,0c1.1-0.3,1.3-1,1.1-2l0,0
			c1-0.3,1.3-1,1.1-2l0,0c1-0.4,1.2-1.1,1-2l0,0c1-0.4,1.1-1.2,0.9-2.1l0,0.1c1-0.5,1.1-1.3,1-2.3c1.2-4.3,2.5-8.6,3.3-13
			c1.7-9.7-0.2-19.1-1.2-28.7c3.4-3.7,2.4-8.3,1.7-12.3c-1.6-9-3.6-18.1-9.1-25.7c-3.8-10.9-11.4-19-19.8-26.4
			c1.8-2.2,3.2-4.3,0.3-6.7c-2.5-4.8-5.4-2.4-8.2-0.4c-28.6-22.4-96.2-12.6-116.2,5.1c0.9,0.4,2,0.4,2.5,1.4
			c-4.3-0.2-8.6-0.3-13-0.5c-9-0.5-17.9-1-26.9-1.5c-2.7-0.2-5.2,0.4-4.4,3.6c1.5,5.7-0.1,11.3,0.5,16.8c0.5,4.5-0.5,6.9-5.7,6.2
			c-2.7-0.4-5.6,0.5-8.4,0.7c-4.1,0.4-5.4,2.4-5.2,6.7c0.8,16.1,1.5,32.2,1.5,48.4c0.1,25.8-0.2,51.6-1.8,77.3
			c-0.3,5,1.6,6.2,6.2,6.5c25.1,1.4,50.1,3.2,75.2,4.5c10.4,0.5,20.8,0,28.4-8.9c0.4,0.1,0.8,0.2,1.2,0.3c0.7,3.6,3.8,2.7,6,2.7
			c7.7,0.1,15.4-0.2,23.2-0.3c3.5,3.6,7.5,4.7,12.6,3.9c15.8-2.3,27.9-10.9,37.9-22.8c5.3-6.3,10.2-13,11.7-21.5l0-0.1
			C217.3,175.4,217.4,174.7,217.2,173.6L217.2,173.6z"/>
		<path class="st4" d="M123.7,213.3c-7.6,8.9-18,9.5-28.4,8.9c-25.1-1.3-50.1-3.1-75.2-4.5c-4.6-0.3-6.5-1.4-6.2-6.5
			c1.6-25.7,1.9-51.5,1.8-77.3c0-16.1-0.7-32.3-1.5-48.4c-0.2-4.3,1-6.3,5.2-6.7c2.8-0.3,5.7-1.1,8.4-0.7c5.3,0.7,6.2-1.7,5.7-6.2
			c-0.6-5.6,1-11.2-0.5-16.8c-0.9-3.2,1.7-3.7,4.4-3.6c9,0.5,17.9,1,26.9,1.5c4.3,0.2,8.6,0.4,13,0.5c1.7,0.4,3.4,1.4,5.1,0
			c1.9,1.5,4.2,0.8,6.3,0.9c11.1,0.8,22.2,1.4,33.4,2c2.3,0.1,3.9,0.8,3.9,3.4c0.1,2.9-1.9,3.1-4.1,3.1c-0.7,0-1.3-0.2-2-0.2
			c-25.3-1.4-50.5-2.8-75.8-4.4c-2.9-0.2-4,0.3-4.1,3.6c-0.7,43.1-1.5,86.2-2.3,129.3c-0.1,3.3,1,4.8,4.4,5.1
			c25.2,2.7,50.4,4.1,75.8,2.3c3.4-0.2,4.3-1.1,4.3-4.6c0-13.6,0.5-27.3,0.7-40.9c0.1-4.3,1.4-8.1,6-8.5c14.7-1.4,29.5-2.3,44.3-3.4
			c1.9-0.1,3.4,0.6,3.5,2.6c0.1,2-0.9,3.5-3.2,3.7c-1,0.1-2,0.3-3,0.3c-11.9,0.9-23.9,1.9-35.8,2.6c-3.3,0.2-5.3,0.7-5,4.7
			c0.3,3.8-0.4,7.6-0.4,11.5c-0.1,9.9,0,19.7,0,29.6c1.8,0,2.7-1.2,3.6-2c14-13,28-26.1,42.1-39.1c2.8-2.6,3.7-5.7,3.6-9.4
			c-0.3-21.1-0.5-42.3-0.7-63.4c0.4-3.6,0.5-7.2-0.2-10.8c1.3-2.1,2.4-4.4,5.5-4.1c2.1,4.2,0.3,8.7,1.2,13
			c0.3,20.5,0.3,40.9,0.9,61.4c0.2,8.4-1.9,15.2-8.3,20.9c-8.9,7.8-17.3,16.1-26.1,24c-5.7,5.1-10.3,11.9-17.4,14.8
			C127.6,204,125.3,208.1,123.7,213.3z M119.2,206.6c0.1-0.2,0.2-0.5,0.2-0.7c0-0.1-0.2-0.3-0.4-0.3c-4.4-0.2-8.7-0.1-12.9,1.1
			c-21.8-0.5-43.5-0.9-65.2-4c-7.2-1-9.6-3.3-9.6-10.7c0-5.4,0.4-10.9,0.5-16.3c0.5-28.6,0.9-57.2,1.4-85.8c0.1-5.5-4-4.7-7.1-5.1
			c-3.5-0.4-5.4,0.7-5.1,5c1,15.6,1.1,31.2,1.2,46.9c0.1,24.9-0.5,49.7-1.5,74.5c10.8,0.6,21.3,1.4,31.7,1.8
			c16.8,0.7,33.5,2.8,50.3,2.5c3-0.1,6.3,0.5,8.6-2.4C115.4,212.7,118,210.5,119.2,206.6z"/>
		<path class="st19" d="M82.5,53.6c-1.7,1.4-3.4,0.4-5.1,0c-0.5-1-1.6-1-2.5-1.4c20-17.7,87.6-27.4,116.2-5.1
			c-7.6,6.2-15.1,12.5-22.7,18.7c-2-0.9-4.1-1.8-6.1-2.6c-0.3-0.8-0.9-1.3-1.8-1.5c-8.1-2.1-16.4-2.7-24.7-2.8
			c-4.7-3.3-9.6-5.8-15.6-5.7C107.7,53.4,95.1,53.5,82.5,53.6z"/>
		<path class="st20" d="M123.7,213.3c1.7-5.2,3.9-9.3,9.8-11.7c7.1-2.9,11.7-9.7,17.4-14.8c8.8-7.9,17.3-16.2,26.1-24
			c6.4-5.7,8.6-12.5,8.3-20.9c-0.6-20.5-0.6-40.9-0.9-61.4c3.3,2,4.2,5.4,5,8.8c4.9,19.6,7.3,39.1,2.8,59.4
			c-4.2,19-13.4,33.3-30.8,42c-10.9,5.4-12.7,8.7-11.3,20.7c-6.7,0.9-13.5,0.4-20.2,0.2c-1.9,0-4.1-0.7-5.1,1.8
			C124.5,213.5,124.1,213.4,123.7,213.3z"/>
		<path class="st21" d="M124.9,213.6c1-2.6,3.2-1.9,5.1-1.8c6.7,0.2,13.5,0.7,20.2-0.2c0.5,0,1,0.1,1.5,0.1
			c23.3-1,40.3-13.2,54.2-30.7c9.5-12,17.4-25,17.3-41.1c-0.2-23-6.5-44.4-19.1-63.6c-3.8-5.8-8.4-11.2-14.7-14.6
			c-0.4-0.7-0.8-1.5-1.3-2.2c-0.2-2.1,0.8-3,2.9-2.8c0.9,0.4,1.9,0.8,2.8,1.2c4.3,5,9.3,9.2,13.3,14.6c7.4,10.1,11.5,21.8,15.8,33.3
			l0-0.1c-0.1,1.5,0.1,3,1.1,4.2c0.5,3,0.8,6,2.1,8.8c1,9.5,2.9,19,1.2,28.7c-0.8,4.4-2,8.7-3.3,13c-0.9,0.5-1,1.3-1,2.3
			c0,0,0-0.1,0-0.1c-1,0.4-1,1.2-0.9,2.1c0,0,0,0,0,0c-0.9,0.4-1.1,1.1-1,2c0,0,0,0,0,0c-0.9,0.4-1.2,1.1-1.1,2c0,0,0,0,0,0
			c-1,0.3-1.1,1.1-1.1,2c0,0,0,0,0,0c-1,0.3-1.2,1.1-1,2c0,0,0,0,0,0c-0.7,0.1-0.9,0.5-0.8,1.1c0,0,0,0.1,0,0.1
			c-0.9,0.3-1.2,1-1,1.9c0,0,0,0.1,0,0.1c-1.9,0.7-2.4,2.7-3.4,4.1C197.8,199.4,179.8,214,154,216c-7.7,0.1-15.4,0.4-23.2,0.3
			C128.7,216.3,125.6,217.2,124.9,213.6z"/>
		<path class="st22" d="M190.9,56.6c-2-0.2-3.1,0.6-2.9,2.8c-5.6,1.8-9,6.4-13.1,10.1c-0.3,0.3-0.6,0.7-0.9,1
			c-1.5,1.1-3,2.1-4.3,3.3c-10.2,9.1-20.1,18.4-29.4,28.4c-11.8,12.6-23.5,25.3-33.6,39.4c-0.2,0.1-0.4,0.1-0.7,0.1
			c-5.6-1.6-3.2-5.7-2.9-9.2c1.4,0.8,2-0.1,2.8-1c2.2-2.8,4.5-5.6,6.7-8.4c1.5-1.7,3.1-3.5,4.6-5.2c15.8-18.6,33.2-35.5,51.1-52
			c7.6-6.2,15.1-12.5,22.7-18.7c2.8-2,5.7-4.4,8.2,0.4c0.3,2.7-3,2.8-3.5,4.9C193.6,53.2,192,54.6,190.9,56.6z"/>
		<path class="st23" d="M154,216c25.8-2,43.8-16.6,58.7-36.2c1.1-1.4,1.6-3.3,3.4-4.1c-1.5,8.5-6.4,15.2-11.7,21.5
			c-9.9,11.8-22,20.4-37.9,22.8C161.6,220.7,157.5,219.6,154,216z"/>
		<path class="st24" d="M222.8,105.7c-4.3-11.6-8.4-23.2-15.8-33.3c-3.9-5.4-9-9.6-13.3-14.6c1.3-1.1,2.5-2.2,3.8-3.3
			c0.4-0.1,0.9-0.2,1.3-0.3c8.4,7.5,16,15.6,19.8,26.4c-1.1,1.3-0.1,2.5,0.2,3.7C220.2,91.5,223.4,98.2,222.8,105.7z"/>
		<path class="st25" d="M222.8,105.7c0.6-7.5-2.6-14.3-4-21.4c-0.2-1.3-1.3-2.4-0.2-3.7c5.5,7.7,7.5,16.7,9.1,25.7
			c0.7,4,1.7,8.6-1.7,12.3c-1.3-2.8-1.6-5.8-2.1-8.8C224,108.3,224.6,106.7,222.8,105.7L222.8,105.7z"/>
		<path class="st26" d="M198.9,54.2c-0.4,0.1-0.9,0.2-1.3,0.3c-0.6-0.7-1.2-1.4-1.9-2.1c0.5-2.1,3.8-2.2,3.5-4.9
			C202.1,49.9,200.7,52,198.9,54.2z"/>
		<path class="st23" d="M223,162.6c-0.1-0.9,0.1-1.7,1-2.3C224.1,161.3,224,162.1,223,162.6z"/>
		<path class="st23" d="M222.1,164.6c-0.1-0.9,0-1.7,0.9-2.1C223.2,163.4,223.1,164.2,222.1,164.6z"/>
		<path class="st23" d="M221.1,166.6c-0.1-0.9,0.2-1.6,1-2C222.3,165.5,222.1,166.3,221.1,166.6z"/>
		<path class="st23" d="M220,168.6c-0.1-0.9,0.1-1.6,1.1-2C221.3,167.5,221.1,168.3,220,168.6z"/>
		<path class="st23" d="M219,170.6c0-0.9,0.1-1.7,1.1-2C220.3,169.5,220.1,170.3,219,170.6z"/>
		<path class="st23" d="M218,172.5c-0.1-0.9,0-1.7,1-2C219.2,171.5,219,172.2,218,172.5z"/>
		<path class="st23" d="M216.2,175.6c-0.2-0.9,0.1-1.6,1-1.9C217.4,174.7,217.3,175.4,216.2,175.6z"/>
		<path class="st23" d="M217.2,173.6c-0.1-0.6,0-1.1,0.8-1.1C218.1,173.1,217.9,173.5,217.2,173.6z"/>
		<path class="st0" d="M168.3,65.8c-17.9,16.5-35.4,33.4-51.1,52c-1.5,1.8-3,3.5-4.6,5.2c-2.8-9.3-9.8-16.5-13.2-25.6
			c-1-2.6-9.1-4.8-10.5-3c-2.4,3-5.6,5.7-6,9.9c-2.6,1.6-2.5,3.5-0.9,5.8c6.6,9.7,12.7,19.8,18.2,30.2c1.4,2.7,3.3,3.6,5.8,1.2
			c0.2,0,0.5,0,0.7-0.1c5.2-2.2,9.9-5.9,13.3-9.7c17.8-19.8,35.9-39.2,55.3-57.4c3.1,2,1.3,5.5,2.6,8.1c0.2,21.1,0.4,42.3,0.7,63.4
			c0,3.7-0.9,6.8-3.6,9.4c-14,13-28,26.1-42.1,39.1c-0.9,0.9-1.8,2-3.6,2c0-9.9-0.1-19.8,0-29.6c0-3.8,0.7-7.7,0.4-11.5
			c-0.3-4,1.7-4.5,5-4.7c12-0.7,23.9-1.7,35.8-2.6c1-0.1,2-0.3,3-0.3c2.3-0.1,3.3-1.7,3.2-3.7c-0.1-2-1.5-2.8-3.5-2.6
			c-14.8,1.1-29.6,2-44.3,3.4c-4.6,0.4-5.9,4.2-6,8.5c-0.2,13.6-0.7,27.3-0.7,40.9c0,3.5-0.9,4.3-4.3,4.6
			c-25.3,1.9-50.6,0.5-75.8-2.3c-3.4-0.4-4.5-1.8-4.4-5.1c0.8-43.1,1.6-86.2,2.3-129.3c0.1-3.3,1.2-3.8,4.1-3.6
			c25.2,1.5,50.5,2.9,75.8,4.4c0.7,0,1.3,0.2,2,0.2c2.1,0,4.1-0.2,4.1-3.1c0-2.6-1.6-3.3-3.9-3.4c-11.1-0.6-22.3-1.2-33.4-2
			c-2.1-0.1-4.4,0.6-6.3-0.9c12.6-0.1,25.2-0.2,37.8-0.4c6-0.1,10.9,2.4,15.6,5.7c2.1,4,4.3,7.5,10,5.7c5.3-1.6,10.9-1.9,16.4-1.4
			C164.3,64,166.3,64.9,168.3,65.8z"/>
		<path class="st27" d="M189.3,61.5c6.3,3.5,10.8,8.8,14.7,14.6c12.7,19.3,18.9,40.6,19.1,63.6c0.2,16.1-7.8,29-17.3,41.1
			c-13.8,17.5-30.8,29.8-54.2,30.7c-0.5,0-1,0-1.5-0.1c-1.4-12,0.4-15.3,11.3-20.7c17.5-8.7,26.6-23,30.8-42
			c4.5-20.3,2.1-39.8-2.8-59.4c-0.8-3.4-1.7-6.8-5-8.8c-0.9-4.3,1-8.8-1.2-13C185.3,65.6,187.3,63.6,189.3,61.5z"/>
		<path class="st28" d="M111.3,213.1c-2.3,2.9-5.6,2.4-8.6,2.4c-16.8,0.3-33.5-1.8-50.3-2.5c-10.5-0.4-20.9-1.2-31.7-1.8
			c1-24.8,1.7-49.7,1.5-74.5C22.1,121,22,105.4,21,89.8c-0.3-4.3,1.6-5.5,5.1-5c3.1,0.4,7.2-0.4,7.1,5.1
			c-0.6,28.6-0.9,57.2-1.4,85.8c-0.1,5.4-0.5,10.9-0.5,16.3c0,7.4,2.4,9.6,9.6,10.7c21.6,3.1,43.4,3.5,65.2,4
			c1.3,0.6,2.6,1.3,3.9,1.9C110.5,210.1,110.9,211.6,111.3,213.1z"/>
		<path class="st29" d="M189.3,61.5c-2,2-4.1,4-6.1,6.1c-3.1-0.3-4.2,2-5.5,4.1c-1.3-0.2-2.2-1-2.7-2.2c4.1-3.7,7.5-8.3,13.1-10.1
			C188.5,60.1,188.9,60.8,189.3,61.5z"/>
		<path class="st25" d="M111.3,213.1c-0.4-1.5-0.8-3-1.2-4.5c3-0.7,5.8-2.5,9.1-2C118,210.5,115.4,212.7,111.3,213.1z"/>
		<path class="st30" d="M175,69.5c0.5,1.2,1.4,2,2.7,2.2c0.7,3.6,0.6,7.2,0.2,10.8c-1.2-2.6,0.5-6.1-2.6-8.1
			c-0.4-1.3-0.9-2.6-1.3-3.9C174.3,70.2,174.7,69.8,175,69.5z"/>
		<path class="st0" d="M119.2,206.6c-3.3-0.5-6.1,1.4-9.1,2c-1.3-0.6-2.6-1.3-3.9-1.9c4.2-1.2,8.6-1.3,12.9-1.1
			c0.1,0,0.4,0.2,0.4,0.3C119.4,206.1,119.2,206.3,119.2,206.6z"/>
		<path class="st25" d="M162.3,63.1c-5.6-0.5-11.1-0.2-16.4,1.4c-5.7,1.8-7.9-1.7-10-5.7c8.3,0.1,16.6,0.7,24.7,2.8
			C161.4,61.8,161.9,62.3,162.3,63.1z"/>
		<path class="st29" d="M195.7,52.4c0.6,0.7,1.2,1.4,1.9,2.1c-1.3,1.1-2.5,2.2-3.8,3.3c-0.9-0.4-1.9-0.8-2.8-1.2
			C192,54.6,193.6,53.2,195.7,52.4z"/>
		<path class="st24" d="M222.8,105.6c1.8,1,1.1,2.7,1.1,4.2C222.9,108.6,222.8,107.1,222.8,105.6z"/>
		<path class="st31" d="M83,104.3c0.4-4.2,3.6-6.9,6-9.9c1.4-1.7,9.5,0.4,10.5,3c3.4,9.1,10.4,16.2,13.2,25.6
			c-2.3,2.8-4.5,5.6-6.8,8.4c-0.7,0.9-1.4,1.9-2.8,1c0,0,0,0.1,0,0.1c-3.4-7.1-7.3-13.8-12-20.1l0,0c-2.4-2.9-2.3-8.3-8-7.8
			L83,104.3z"/>
		<path class="st26" d="M174,70.5c0.4,1.3,0.9,2.6,1.3,3.9c-19.5,18.2-37.6,37.6-55.3,57.4c-3.4,3.8-8.1,7.5-13.3,9.7
			c10.1-14.1,21.8-26.7,33.6-39.4c9.3-10,19.2-19.3,29.4-28.4C171,72.6,172.6,71.6,174,70.5z"/>
		<path class="st4" d="M106,141.6c-2.5,2.4-4.4,1.5-5.8-1.2C94.7,130,88.6,119.9,82,110.2c-1.6-2.4-1.6-4.2,0.9-5.8
			c0,0,0.2,0.4,0.2,0.4c1.6,3.7,4,6.5,8,7.8c0,0,0,0,0,0c1.2,7.3,6,12.8,9.4,19c0.5,0.9,1.6,1.1,2.7,1.1c0,0,0-0.1,0-0.1
			C102.8,135.9,100.4,140.1,106,141.6z"/>
		<path class="st22" d="M103.2,132.5c-1.1,0-2.2-0.2-2.7-1.1c-3.3-6.2-8.2-11.7-9.4-19C95.8,118.7,99.8,125.5,103.2,132.5z"/>
		<path class="st22" d="M91.2,112.5c-4-1.2-6.5-4-8-7.8C88.9,104.2,88.8,109.6,91.2,112.5z"/>
	</g>
</g>
</svg>
