<?xml version="1.0" encoding="utf-8"?>
<!-- Generator: Adobe Illustrator 23.0.4, SVG Export Plug-In . SVG Version: 6.00 Build 0)  -->
<svg version="1.1" id="Capa_1" xmlns="http://www.w3.org/2000/svg" xmlns:xlink="http://www.w3.org/1999/xlink" x="0px" y="0px"
	 viewBox="0 0 235.5 244.8" style="enable-background:new 0 0 235.5 244.8;" xml:space="preserve">
<style type="text/css">
	.st0{fill:#FEFEFE;}
	.st1{fill:#21201E;}
	.st2{fill:#46ADDD;}
	.st3{fill:#93D1ED;}
	.st4{fill:#D26268;}
	.st5{fill:#EBD42C;}
	.st6{fill:#2D2C2B;}
	.st7{fill:#91CFEE;}
	.st8{fill:#21201F;}
	.st9{fill:#92D0EC;}
	.st10{fill:#3FABDF;}
	.st11{fill:#FDFDFD;}
	.st12{fill:#94D1ED;}
	.st13{fill:#201F1D;}
	.st14{fill:#44ACDC;}
</style>
<g>
	<polygon class="st0" points="8.1,86.2 49.1,86.2 39.4,176.6 8.1,201.4 	"/>
	<g>
		<path class="st0" d="M11.4,178.4c-0.1-29-0.1-58-0.2-87c0-1.9,0.3-2.5,2.3-1.9c0.6,0.2,1.4,0.1,2,0.1c1.5-0.2,2.8-1.7,2.7-3.3
			c0-1.6-1-2.4-2.6-2.6c-1.9-0.3-3.8-0.6-5.7-0.8c-4-0.5-5.1,0.5-5,4.5C5,93.2,5.1,99,5.1,104.8c0.1,13.8,0.1,27.5,0.1,41.3
			c0,18.5,0,37-0.1,55.5c0,3,1,3.9,4,4c4,0.1,8,0.3,11.9,0.5c16.9,0.7,33.7,1.5,50.6,2.2c4.5,0.2,4.5,0.1,4.6,4.5
			c0.1,2.8,1.6,4,4.4,3.3c11.3-2.6,22.7-2.8,34.1-0.8c3,0.5,4.2-0.3,4.6-3.2c0.4-2.9,2-4.8,4.9-5.7c2.4-0.7,4.8-0.9,7.2-0.7
			c9.9,0.9,19.7,1.5,29.6,1.7c10.2,0.2,20.3-0.1,30.4-0.7c2.6-0.2,3.7-1.4,3.4-3.9c-1.1-11.4-2.2-22.9-3.3-34.3
			c0.2-0.2,0.5-0.3,0.8-0.3c3.5,0.7,6.6-0.3,9.5-2.3c4.8-3.2,9.1-7,12.8-11.5c8.7-10.5,13-22.6,13.3-36.1c0.1-3.7-0.9-7.3-1-10.9
			c-0.2-8.9-2.2-17.2-5.8-25.3C216,69.9,207.9,59.7,196.6,52c-5.3-3.6-11.3-5.9-17.1-8.5c-12.6-5.6-25.7-7.6-39.5-6.3
			c-10.9,1-21.1,4-30.4,9.6c-9.2,5.6-16.2,13.1-20.3,23.1c-0.9,2.3-1.3,4.7-2.5,6.9c-1.5-0.7-2.9-1.4-4.4-2
			c-7.5-3.1-15.5-3.8-23.5-4.4c-11.3-0.9-22.6-0.7-33.9-1.1c-3-0.1-4.2,1.3-3.6,4.2c0.4,2.1,0.8,4.1,1.2,6.1
			c2.3,14,1.8,28.1,0.9,42.2c-0.9,13.8-1.9,27.5-2.8,41.3c-0.4,6.1-0.9,12.2-1.4,18.3c-0.7-0.3-1.1-0.6-1.4-1.3
			c-0.7-1.5-2-2.2-3.6-2.1C13.2,178,12.3,178.3,11.4,178.4z"/>
		<path class="st12" d="M86.8,76.7c1.2-2.2,1.6-4.6,2.5-6.9c4.1-10,11.1-17.5,20.3-23.1c9.3-5.6,19.6-8.6,30.4-9.6
			c13.7-1.3,26.8,0.7,39.5,6.3c5.9,2.6,11.8,4.9,17.1,8.5c11.3,7.7,19.3,17.9,24.8,30.2c3.5,8,5.6,16.4,5.8,25.3
			c0.1,3.6,1,7.3,1,10.9c-0.3,13.5-4.6,25.6-13.3,36.1c-3.7,4.4-8,8.3-12.8,11.5c-2.9,1.9-6,3-9.5,2.3c-0.3-0.1-0.6,0.1-0.8,0.3
			c-0.4-4.8-1.1-9.6-1.2-14.4c2-1.1,3.5-2.7,4.6-4.7c4.9-9.1,7.4-19,8-29.2c0.4-6.4-0.1-12.9-1.4-19.2c-4-18.6-13.7-32.9-31.9-40.8
			c-5.8-2.5-11.9-4-18.2-4.5c-5.4-0.4-10.9-0.3-16.4,0.6c-8.5,1.4-16.3,4.7-23.4,9.5c-6.8,4.6-11.7,11-17.2,16.8
			C92.1,80.4,89.5,78.5,86.8,76.7z"/>
		<path class="st13" d="M86.8,76.7c2.7,1.8,5.4,3.7,7.8,5.8c1.1,1.4,2.1,2.7,3.2,4.2c0.3-0.5,0.6-0.9,0.9-1.3
			c3.4-5.4,8.1-8.9,14.2-10.7c6.9-2,14-1.9,21.1-1.2c6.8,0.6,13.6,1.6,20.4,2.3c5.8,0.6,11.7,0.8,17.5-0.2c3-0.6,4.6,1.3,3.8,4.3
			c-0.3,1.1-0.7,2.2-0.7,3.4c-0.9,2.9-1.2,5.8-1.4,8.8c-0.5,3.1-0.5,6.1-0.1,9.2c-0.7,0.2-0.4,0.8-0.4,1.3c0,1.7,0.1,3.4,0.1,5.1
			c-0.2,2.2,0.3,4.3,0.4,6.5c-0.2,1.5,0.3,2.9,0.4,4.4c0.5,6.5,1.3,13.1,1.6,19.6c0.4,6.9,0.6,13.8,0.3,20.8
			c-0.2,5.2-0.5,10.4-0.8,15.6c-0.1,1.3-0.2,2.6-0.4,3.9c-0.4,3-0.6,6.1-1.1,9.1c-0.3,2.1-1.6,2.9-3.5,2.7
			c-15.2-1.7-30.4-1.7-45.6,0.4c-5.6,0.8-10.4,2.4-13.3,7.8c-1.9,3.6-6.3,4-9.4,6c-2.2-0.6-4.4-0.4-6.5,0c-4,0.6-6.9-0.6-9.2-3.8
			c-2.1-3-5-4.9-8.6-5.7c-12.3-2.9-24.8-4.6-37.5-4.9c-5.9-0.1-11.7,0.1-17.5,0.6c-2.4,0.2-3.9-1.4-3.7-3.7c0.2-1.8,0.2-3.5,0.3-5.3
			c0.5-6.1,1-12.2,1.4-18.3c1-13.8,1.9-27.5,2.8-41.3c0.9-14.1,1.4-28.2-0.9-42.2c-0.3-2.1-0.8-4.1-1.2-6.1c-0.5-3,0.7-4.3,3.6-4.2
			c11.3,0.4,22.7,0.3,33.9,1.1c8,0.6,16,1.3,23.5,4.4C83.9,75.3,85.3,76.1,86.8,76.7z M92.8,144.3c0-2.2,0-4.4,0-6.6
			c-0.2-14.4-0.3-28.9,0.1-43.3c0.1-3.5-1.3-5.8-3.5-8c-0.8-0.8-1.7-1.6-2.7-2.3c-6.6-4.8-14.3-6.4-22.3-7
			c-11.6-0.9-23.3-1.2-34.9-1.6c-1.2,0-1.6,0.1-1.3,1.4c1.3,6.7,1.8,13.5,2,20.3c0.4,16.5-1.3,33-2.4,49.5c-0.8,12-1.6,24-2.5,36
			c-0.1,1.1,0.2,1.5,1.4,1.4c14.4-0.8,28.8,0,43,2.8c4.8,0.9,9.7,1.7,14.3,3.6c3.4,1.4,5.8,4,8,6.7c0.8,0.9,1.8,1.5,2.9,1
			c1.1-0.4,0.4-1.5,0.4-2.3c-0.4-7.8-0.9-15.7-1.3-23.5C93.5,163.1,93.1,153.7,92.8,144.3z M98.8,144.5c0.1,0,0.2,0,0.3,0
			c0.5,11.3,0.9,22.7,1.4,34c0.2,4.8,0.6,9.7,0.8,14.5c0.1,1.7,1.7,1.5,2.4,2.5c0.4,0.6,1.1-0.4,1.6-0.8c1.8-1.4,3.6-2.8,5.2-4.5
			c3.1-3.3,6.9-4.9,11.3-5.5c1.7-0.2,3.5-0.4,5.2-0.6c12.3-1.4,24.6-1.7,36.9-0.7c4.1,0.4,4.1,0.4,4.6-3.7c0.1-0.7,0.2-1.3,0.3-2
			c2-19.8,1.1-39.5-0.8-59.2c-1.2-11.7-1.6-23.5,0.8-35.2c0.2-1,0-1.2-1.1-1.2c-8.5,0.6-16.8-0.8-25.1-2.1
			c-7.5-1.1-15.1-1.9-22.7-0.5c-7.8,1.4-14.2,4.9-17.6,12.4c-0.7,1.4-0.9,3.1-2.8,3.6C98.8,95.8,99,96.5,99,97
			c-0.1,4.5-0.2,9-0.2,13.4C98.8,121.8,98.8,133.1,98.8,144.5z"/>
		<path class="st13" d="M190.5,154.1c0.1,4.8,0.8,9.6,1.2,14.4c1.1,11.4,2.2,22.9,3.3,34.3c0.2,2.6-0.8,3.8-3.4,3.9
			c-10.1,0.6-20.3,0.9-30.4,0.7c-9.9-0.2-19.8-0.8-29.6-1.7c-2.4-0.2-4.9,0-7.2,0.7c-2.8,0.8-4.5,2.7-4.9,5.7
			c-0.4,2.9-1.5,3.7-4.6,3.2c-11.4-2-22.8-1.8-34.1,0.8c-2.8,0.6-4.3-0.6-4.4-3.3c-0.2-4.4-0.2-4.4-4.6-4.5
			c-16.9-0.7-33.7-1.4-50.6-2.2c-4-0.2-8-0.3-11.9-0.5c-3-0.1-4-1.1-4-4c0-18.5,0.1-37,0.1-55.5c0-13.8,0-27.5-0.1-41.3
			C5.1,99,5,93.2,4.9,87.3c-0.1-4,1-5,5-4.5c1.9,0.2,3.8,0.5,5.7,0.8c1.6,0.2,2.6,1,2.6,2.6c0,1.6-1.3,3.1-2.7,3.3
			c-0.7,0.1-1.4,0.1-2-0.1c-1.9-0.7-2.3,0-2.3,1.9c0.1,29,0.2,58,0.2,87c0,6.5,0,13-0.2,19.5c0,1.5,0.6,1.8,1.9,1.9
			c11.1,0.4,22.3,0.9,33.4,1.4c10.6,0.4,21.1,0.8,31.7,1.3c2.7,0.1,3.8,1.1,4,3.6c0.3,3.3,0.3,3.4,3.6,2.9c6-0.9,12.1-1.1,18.2-1.1
			c3,0.4,6,0.7,9,1.1c0.7,0.1,0.8-0.4,1-0.8c1.6-4.1,4.9-6.2,9-7.2c5.1-1.2,10.2-0.9,15.4-0.6c10,0.7,20.1,1.1,30.2,1.1
			c6.3-0.1,12.7-0.1,19-0.5c0.9-0.1,0.9-0.6,0.9-1.3c-0.2-2.5-0.5-5-0.7-7.5c-0.9-9.8-1.8-19.5-2.8-29.3c-1-10.3-1.8-20.7-2-31
			c-0.4-13.5-0.4-27,1.4-40.5c0.1-1.1-0.2-1.6-1.4-1.5c-1.4,0.1-2.9,0.3-4.1-0.7c-0.4-0.9-0.7-1.8-0.6-2.9c0.5-1.7,1.7-2.4,3.5-2.5
			c2-0.1,4,0.1,5.9,0.5c2.7,0.5,3.3,1.3,3.1,4c-0.2,2.7-0.6,5.4-0.8,8C188.1,115.6,188.8,134.8,190.5,154.1z"/>
		<path class="st4" d="M104,207.9c-6.1,0-12.2,0.2-18.2,1.1c-3.3,0.5-3.3,0.4-3.6-2.9c-0.2-2.5-1.3-3.5-4-3.6
			c-10.6-0.4-21.1-0.8-31.7-1.3c-11.1-0.5-22.3-1-33.4-1.4c-1.3-0.1-2-0.3-1.9-1.9c0.1-6.5,0.1-13,0.2-19.5c0.9-0.1,1.8-0.3,2.7-0.4
			c1.6,0,2.9,0.7,3.6,2.1c0.3,0.7,0.8,1.1,1.4,1.3c-0.1,1.8-0.2,3.6-0.3,5.3c-0.2,2.4,1.3,3.9,3.7,3.7c5.8-0.5,11.7-0.7,17.5-0.6
			c12.7,0.3,25.1,1.9,37.5,4.9c3.6,0.9,6.5,2.7,8.6,5.7c2.2,3.2,5.2,4.4,9.2,3.8c2.1-0.3,4.4-0.6,6.5,0
			C102.9,205.3,104,206.3,104,207.9z"/>
		<path class="st14" d="M190.5,154.1c-1.7-19.3-2.4-38.5-0.5-57.8c0.3-2.7,0.6-5.4,0.8-8c0.2-2.7-0.4-3.5-3.1-4
			c-2-0.4-3.9-0.6-5.9-0.5c-1.7,0.1-3,0.8-3.5,2.5c-1-1-2-2.2-3.2-3c0-1.2,0.4-2.3,0.7-3.4c0.8-3-0.8-4.9-3.8-4.3
			c-5.8,1.1-11.7,0.8-17.5,0.2c-6.8-0.7-13.6-1.6-20.4-2.3c-7.1-0.7-14.2-0.8-21.1,1.2c-6.1,1.8-10.9,5.3-14.2,10.7
			c-0.3,0.4-0.6,0.8-0.9,1.3c-1.1-1.4-2.2-2.8-3.2-4.2c5.5-5.8,10.4-12.2,17.2-16.8c7.1-4.8,14.9-8,23.4-9.5
			c5.4-0.9,10.9-1,16.4-0.6c6.3,0.5,12.4,2,18.2,4.5c18.2,7.9,27.9,22.1,31.9,40.8c1.3,6.3,1.8,12.8,1.4,19.2
			c-0.7,10.2-3.1,20.1-8,29.2C194,151.3,192.5,153,190.5,154.1z"/>
		<path class="st0" d="M92.8,144.3c0.3,9.4,0.7,18.8,1.1,28.2c0.4,7.8,0.9,15.7,1.3,23.5c0,0.7,0.7,1.8-0.4,2.3
			c-1.2,0.5-2.2-0.1-2.9-1c-2.3-2.7-4.6-5.3-8-6.7c-4.6-1.9-9.4-2.6-14.3-3.6c-14.2-2.8-28.5-3.6-43-2.8c-1.2,0.1-1.4-0.3-1.4-1.4
			c0.9-12,1.7-24,2.5-36c1.1-16.5,2.8-32.9,2.4-49.5c-0.2-6.8-0.7-13.6-2-20.3c-0.3-1.4,0.1-1.5,1.3-1.4c11.6,0.4,23.3,0.6,34.9,1.6
			c7.9,0.6,15.7,2.2,22.3,7c0.9,0.7,1.9,1.4,2.7,2.3c2.3,2.2,3.6,4.5,3.5,8c-0.4,14.4-0.3,28.9-0.1,43.3
			C92.8,139.9,92.8,142.1,92.8,144.3z"/>
		<path class="st11" d="M98.8,144.5c0-11.4,0-22.7,0-34.1c0-4.5,0.2-9,0.2-13.4c0-0.5-0.2-1.1,0.4-1.3c1.8-0.6,2.1-2.2,2.8-3.6
			c3.4-7.5,9.8-10.9,17.6-12.4c7.6-1.4,15.1-0.6,22.7,0.5c8.3,1.2,16.6,2.7,25.1,2.1c1-0.1,1.3,0.2,1.1,1.2
			c-2.4,11.7-1.9,23.5-0.8,35.2c1.9,19.7,2.8,39.4,0.8,59.2c-0.1,0.7-0.2,1.3-0.3,2c-0.5,4.1-0.5,4.1-4.6,3.7
			c-12.3-1.1-24.6-0.8-36.9,0.7c-1.7,0.2-3.5,0.4-5.2,0.6c-4.4,0.6-8.2,2.2-11.3,5.5c-1.6,1.6-3.4,3-5.2,4.5
			c-0.5,0.4-1.2,1.3-1.6,0.8c-0.7-1-2.3-0.8-2.4-2.5c-0.2-4.8-0.6-9.7-0.8-14.5c-0.5-11.3-0.9-22.7-1.4-34
			C99,144.5,98.9,144.5,98.8,144.5z M136.8,93.6c0,0.1,0,0.1,0,0.2c4.7,0,9.5,0,14.2,0c2.2,0,3.3-1.2,3.2-3.2
			c-0.1-1.9-1.2-2.8-3.4-2.8c-1.6,0-3.2,0-4.9,0c-6.9,0.1-13.8,0.2-20.7,0.3c-0.9,0-1.9,0-2.6-0.7c-1.3-1.2-2.7-1.6-4.2-0.7
			c-1.3,0.7-1.4,1.9-1.3,3.2c0.1,1.8,1.2,2.8,2.8,3.3c1.3,0.4,2.6,0.5,3.9,0.5C128,93.6,132.4,93.6,136.8,93.6z M124,104.8
			c-1.6,0-3.5-0.7-4.8,0.6c-1,1-2,1.4-3.3,1.6c-1.9,0.2-3.2,2.1-2.8,3.9c0.3,1.8,1.4,2.4,3.7,2.1c3.4-0.4,6.8-0.7,10.2-0.5
			c3.2,0.1,6.4,0.4,9.6,1c1.9,0.3,3.4-0.6,3.8-2.4c0.5-1.7-0.2-2.7-1.8-3.5c-1.4-0.6-2.7-1.1-4.2-1.4C131,105.5,127.5,105,124,104.8
			z"/>
		<path class="st5" d="M178.9,89.1c1.2,1,2.7,0.8,4.1,0.7c1.2-0.1,1.5,0.4,1.4,1.5c-1.7,13.4-1.7,27-1.4,40.5c0.3,10.4,1,20.7,2,31
			c1,9.8,1.8,19.5,2.8,29.3c0.2,2.5,0.5,5,0.7,7.5c0.1,0.6,0.1,1.2-0.9,1.3c-6.3,0.4-12.7,0.4-19,0.5c-0.9-4.7,0.6-6.3,5.5-5.6
			c0.1,0,0.2,0.1,0.4,0.1c0.8,0.2,1-0.2,1-0.9c-0.2-5.6,0.2-11.1-0.2-16.7c0.2-1.3,0.4-2.6-0.1-3.9c0.3-5.2,0.6-10.4,0.8-15.6
			c0.3-6.9,0-13.9-0.3-20.8c-0.4-6.5-1.1-13.1-1.6-19.6c-0.1-1.5-0.6-2.9-0.4-4.4c0.7-2.1,0.3-4.3,0.3-6.5c-0.1-2.1-0.2-4.3-0.3-6.4
			c-0.5-3.1-0.4-6.1,0.1-9.2C175,90.5,177.6,91,178.9,89.1z"/>
		<path class="st11" d="M175.2,178.4c0.4,5.6,0.1,11.1,0.2,16.7c0,0.7-0.2,1.1-1,0.9c-0.1,0-0.2-0.1-0.4-0.1
			c-4.8-0.7-6.4,0.9-5.5,5.6c-10.1,0.1-20.1-0.4-30.2-1.1c-5.1-0.4-10.3-0.7-15.4,0.6c-4.1,1-7.4,3.1-9,7.2c-0.2,0.5-0.3,0.9-1,0.8
			c-3-0.4-6-0.7-9-1.1c0-1.6-1.1-2.6-2.3-3.6c3.1-2,7.5-2.4,9.4-6c2.9-5.4,7.7-7,13.3-7.8c15.2-2.1,30.4-2.1,45.6-0.4
			c2,0.2,3.2-0.6,3.5-2.7c0.5-3,0.8-6.1,1.1-9.1C174.9,178.4,175.1,178.4,175.2,178.4z"/>
		<path class="st11" d="M178.9,89.1c-1.3,1.8-3.8,1.4-5.3,3c0.2-3,0.6-5.9,1.4-8.8c1.3,0.8,2.2,1.9,3.2,3
			C178.2,87.3,178.4,88.2,178.9,89.1z"/>
		<path class="st12" d="M173.9,107.7c0,2.2,0.4,4.3-0.3,6.5c-0.1-2.2-0.5-4.3-0.4-6.5C173.4,107.7,173.6,107.7,173.9,107.7z"/>
		<path class="st11" d="M173.9,107.7c-0.2,0-0.4,0-0.6,0c0-1.7-0.1-3.4-0.1-5.1c0-0.4-0.3-1,0.4-1.3
			C173.6,103.4,173.7,105.6,173.9,107.7z"/>
		<path class="st12" d="M175.2,178.4c-0.1,0-0.3,0-0.4,0c0.1-1.3,0.2-2.6,0.4-3.9C175.6,175.8,175.4,177.1,175.2,178.4z"/>
		<path class="st13" d="M136.8,93.6c-4.4,0-8.7,0-13.1,0c-1.3,0-2.6-0.1-3.9-0.5c-1.6-0.5-2.7-1.5-2.8-3.3c-0.1-1.3,0-2.5,1.3-3.2
			c1.6-0.8,3-0.5,4.2,0.7c0.7,0.7,1.7,0.7,2.6,0.7c6.9-0.1,13.8-0.2,20.7-0.3c1.6,0,3.2,0,4.9,0c2.2,0,3.3,0.9,3.4,2.8
			c0.1,2-1,3.2-3.2,3.2c-4.7,0.1-9.5,0-14.2,0C136.8,93.7,136.8,93.6,136.8,93.6z"/>
		<path class="st13" d="M124,104.8c3.5,0.2,6.9,0.7,10.4,1.3c1.5,0.3,2.8,0.8,4.2,1.4c1.6,0.8,2.3,1.8,1.8,3.5
			c-0.5,1.8-1.9,2.7-3.8,2.4c-3.2-0.6-6.4-0.9-9.6-1c-3.4-0.1-6.8,0.1-10.2,0.5c-2.2,0.3-3.4-0.3-3.7-2.1c-0.3-1.8,0.9-3.7,2.8-3.9
			c1.3-0.2,2.3-0.5,3.3-1.6C120.5,104.1,122.4,104.8,124,104.8z"/>
	</g>
	<g>
		<path class="st6" d="M151.1,37.6c19,0.6,36.8,5,51.8,17.5c14.5,12.1,22.5,28,24.9,46.7c1.5,11.3,2.6,22.7-0.1,34
			c-0.4,1.6-0.9,3.3-1.4,4.9c-0.4,1.4-0.8,2.9-2.8,2.5c-2.2-0.5-1.3-2.2-0.9-3.5c4.8-16.6,3.4-33.2-1.4-49.3
			c-7.9-26.6-26.7-41.4-53.3-47.1c-9.1-1.9-18.3-2.2-27.6-1.9c-1.5,0.1-3.9,1.1-3.9-1.7c-0.1-2.7,2.4-2,3.9-2.1
			C144,37.5,147.6,37.6,151.1,37.6z"/>
	</g>
</g>
</svg>
