<?xml version="1.0" encoding="UTF-8" standalone="no"?>
<!-- Created with Inkscape (http://www.inkscape.org/) -->

<svg
   xmlns:dc="http://purl.org/dc/elements/1.1/"
   xmlns:cc="http://creativecommons.org/ns#"
   xmlns:rdf="http://www.w3.org/1999/02/22-rdf-syntax-ns#"
   xmlns:svg="http://www.w3.org/2000/svg"
   xmlns="http://www.w3.org/2000/svg"
   xmlns:sodipodi="http://sodipodi.sourceforge.net/DTD/sodipodi-0.dtd"
   xmlns:inkscape="http://www.inkscape.org/namespaces/inkscape"
   width="150"
   height="116.35513"
   viewBox="0 0 39.6875 30.785629"
   version="1.1"
   id="svg7441"
   inkscape:version="0.92.1 r15371"
   sodipodi:docname="libros.svg">
  <defs
     id="defs7435" />
  <sodipodi:namedview
     id="base"
     pagecolor="#ffffff"
     bordercolor="#666666"
     borderopacity="1.0"
     inkscape:pageopacity="0.0"
     inkscape:pageshadow="2"
     inkscape:zoom="5.6568542"
     inkscape:cx="28.133609"
     inkscape:cy="36.817611"
     inkscape:document-units="px"
     inkscape:current-layer="layer1"
     showgrid="false"
     fit-margin-top="10"
     fit-margin-left="10"
     fit-margin-right="10"
     fit-margin-bottom="10"
     units="px"
     inkscape:window-width="1920"
     inkscape:window-height="1021"
     inkscape:window-x="0"
     inkscape:window-y="0"
     inkscape:window-maximized="1" />
  <metadata
     id="metadata7438">
    <rdf:RDF>
      <cc:Work
         rdf:about="">
        <dc:format>image/svg+xml</dc:format>
        <dc:type
           rdf:resource="http://purl.org/dc/dcmitype/StillImage" />
        <dc:title />
      </cc:Work>
    </rdf:RDF>
  </metadata>
  <g
     inkscape:label="Capa 1"
     inkscape:groupmode="layer"
     id="layer1"
     transform="translate(-31.559523,-55.908377)">
    <g
       id="g9854">
      <rect
         style="fill:#ffffff;stroke-width:0.26458332"
         x="61.043377"
         y="63.727592"
         width="2.337703"
         height="5.5660582"
         id="rect1822" />
      <path
         id="path1824"
         d="m 58.615572,58.55421 c -5.514474,0 -9.984928,4.471142 -9.984928,9.985616 0,5.515164 4.470454,9.985617 9.984928,9.985617 0.856264,0 1.682954,-0.119663 2.475944,-0.32256 l 0.07084,-14.011775 h 2.38172 V 77.21732 c 3.017899,-1.717343 5.057114,-4.956701 5.057114,-8.677494 -6.88e-4,-5.514474 -4.471141,-9.985616 -9.985617,-9.985616 z"
         inkscape:connector-curvature="0"
         style="fill:#e7e7e8;stroke-width:0.26458332" />
      <path
         id="path1826"
         d="m 37.13264,64.378868 h -1.085976 v 17.758014 h 9.383137 c 0,0 1.550903,0 1.550903,1.395468 h 5.195353"
         inkscape:connector-curvature="0"
         style="fill:#ffffff;stroke-width:0.26458332" />
      <path
         id="path1832"
         d="m 62.458787,64.378868 h 1.085288 v 17.758014 h -9.383136 c 0,0 -1.550903,0 -1.550903,1.395468 h -5.195355"
         inkscape:connector-curvature="0"
         style="fill:#ffffff;stroke-width:0.26458332" />
      <path
         id="path1838"
         d="m 38.542551,62.5618 0.03302,17.295151 h 7.530994 c 0,0 2.231787,0.139612 2.231787,1.255166 h 1.394782 V 65.631282 c 0,0 -0.139613,-3.068107 -3.486265,-3.068107 z"
         inkscape:connector-curvature="0"
         style="fill:#ffffff;stroke-width:0.26458332" />
      <path
         id="path1844"
         d="m 61.169234,62.5618 -0.03233,17.295151 H 53.60591 c 0,0 -2.231789,0.139612 -2.231789,1.255166 h -1.39478 V 65.631282 c 0,0 0.139613,-3.068107 3.486953,-3.068107 z"
         inkscape:connector-curvature="0"
         style="fill:#ffffff;stroke-width:0.26458332" />
      <line
         style="fill:#ffffff;stroke-width:0.26458332"
         x1="53.411968"
         y1="65.257172"
         x2="58.340466"
         y2="65.257172"
         id="line1852" />
      <path
         inkscape:connector-curvature="0"
         d="m 58.340467,65.77296 h -4.929189 c -0.284734,0 -0.515822,-0.231088 -0.515822,-0.515821 0,-0.284733 0.231088,-0.515822 0.515822,-0.515822 h 4.929189 c 0.285422,0 0.515823,0.231089 0.515823,0.515822 0,0.284733 -0.230401,0.515821 -0.515823,0.515821 z"
         id="path1854"
         style="stroke-width:0.26458332" />
      <line
         style="fill:#ffffff;stroke-width:0.26458332"
         x1="53.411968"
         y1="67.549492"
         x2="54.901657"
         y2="67.549492"
         id="line1858" />
      <path
         inkscape:connector-curvature="0"
         d="m 54.901658,68.065272 h -1.49038 c -0.284734,0 -0.515822,-0.230401 -0.515822,-0.515822 0,-0.284734 0.231088,-0.515823 0.515822,-0.515823 h 1.49038 c 0.284734,0 0.515822,0.231089 0.515822,0.515823 0,0.285421 -0.231088,0.515822 -0.515822,0.515822 z"
         id="path1860"
         style="stroke-width:0.26458332" />
      <path
         id="path1870"
         d="m 36.101684,78.633422 h 2.579108 v 1.203583 h 7.866621 c 0,0 1.60455,0.272354 1.790932,1.275112 h 3.195342 v 2.464249 h -4.556423 c 0,0 -0.301239,-1.547463 -2.235225,-1.547463 h -8.554384 z"
         inkscape:connector-curvature="0"
         style="fill:#82b945;stroke-width:0.26458332" />
      <polygon
         transform="matrix(0.68776199,0,0,0.68776199,-75.23185,-669.75479)"
         id="polygon1872"
         points="198.315,1092.838 198.378,1067.088 201.503,1067.088 201.503,1092.838 "
         style="fill:#82b945;stroke-width:0.38470188" />
      <path
         style="stroke-width:0.26458332"
         id="path1828"
         d="m 52.176744,84.048172 h -5.195352 c -0.284734,0 -0.515823,-0.231088 -0.515823,-0.515822 0,-0.824626 -0.864516,-0.877584 -1.03852,-0.879648 h -9.380385 c -0.284734,0 -0.515822,-0.231088 -0.515822,-0.51582 V 64.378868 c 0,-0.284734 0.231088,-0.515823 0.515822,-0.515823 h 1.085976 c 0.28542,0 0.515821,0.231089 0.515821,0.515823 0,0.284732 -0.230401,0.51582 -0.515821,0.51582 H 36.562485 V 81.62106 h 8.868004 c 0.719397,0 1.743476,0.382395 2.004137,1.39547 h 4.742118 c 0.285422,0 0.515823,0.231086 0.515823,0.51582 0,0.284734 -0.230401,0.515822 -0.515823,0.515822 z"
         inkscape:connector-curvature="0" />
      <path
         style="fill:#e7829b;stroke-width:0.26458332"
         inkscape:connector-curvature="0"
         d="m 36.844467,73.662279 c 0.848698,1.226278 -0.469053,2.580482 -1.718029,1.766172 -0.06052,-0.0399 -0.115553,-0.09285 -0.15681,-0.152683 -0.848011,-1.225592 0.469054,-2.580483 1.71803,-1.765485 0.06052,0.03919 0.115553,0.09285 0.156809,0.151996 z"
         id="path1864" />
      <path
         inkscape:connector-curvature="0"
         d="m 35.930432,76.170547 c -0.93742,0.01376 -1.711839,-0.739346 -1.724908,-1.677452 -0.01307,-0.938107 0.740032,-1.712528 1.677452,-1.725595 0.938795,-0.01376 1.713215,0.739344 1.726282,1.677451 0.01307,0.938108 -0.739343,1.713215 -1.678826,1.725596 z m -0.03302,-2.41267 c -0.392025,0.0069 -0.705644,0.329438 -0.700829,0.721463 0.0048,0.392024 0.328751,0.70633 0.720087,0.701516 0.392023,-0.0069 0.707707,-0.329438 0.702205,-0.720775 -0.0048,-0.392711 -0.329438,-0.707706 -0.721463,-0.702204 z"
         id="path1866"
         style="stroke-width:0.26458332" />
      <path
         style="stroke-width:0.26458332"
         id="path1840"
         d="m 49.732439,81.628625 h -1.394782 c -0.284732,0 -0.51582,-0.231088 -0.51582,-0.515822 0,-0.403716 -1.033707,-0.694639 -1.748292,-0.74072 h -7.49798 c -0.284734,0 -0.515823,-0.2304 -0.515823,-0.515132 l -0.033,-17.295151 c 0,-0.136862 0.05433,-0.268916 0.15062,-0.365202 0.09698,-0.09698 0.228337,-0.151307 0.365201,-0.151307 0,0 0,0 0,0 h 7.702935 c 3.037845,0 3.94569,2.329449 4.001399,3.560543 l 6.88e-4,15.504219 c 6.88e-4,0.284046 -0.2304,0.515132 -0.515134,0.515132 z m -0.981437,-1.031643 h 0.465615 V 65.63197 c -0.01376,-0.238654 -0.218708,-2.552286 -2.970443,-2.552286 h -7.186425 l 0.03094,16.263508 h 7.01586 c 0.271667,0.01651 2.178142,0.169881 2.644445,1.255854 z"
         inkscape:connector-curvature="0" />
      <path
         style="stroke-width:0.26458332"
         id="path1846"
         d="m 51.374126,81.628625 h -1.39478 c -0.284734,0 -0.515822,-0.231088 -0.515822,-0.515822 V 65.63197 c 0.05639,-1.254478 0.96493,-3.583929 4.002087,-3.583929 h 7.702935 c 0.136861,0 0.268913,0.05433 0.365201,0.151307 0.09629,0.09698 0.151307,0.228337 0.150619,0.365201 l -0.03233,17.29515 c -6.86e-4,0.284734 -0.231086,0.515134 -0.51582,0.515134 h -7.530993 c -0.681573,0.0447 -1.715967,0.335628 -1.715967,0.739344 6.88e-4,0.285422 -0.229713,0.51651 -0.515135,0.51651 z m -0.878959,-0.515822 h 0.0069 z m 0,-0.515821 h 0.465614 c 0.465615,-1.085976 2.368654,-1.239347 2.612121,-1.254478 l 7.048184,-6.88e-4 0.03096,-16.263506 h -7.186425 c -2.821887,0 -2.966317,2.470441 -2.971132,2.575668 z"
         inkscape:connector-curvature="0" />
      <path
         style="stroke-width:0.26458332"
         id="path1834"
         d="m 52.610036,84.048172 h -5.195355 c -0.285422,0 -0.51582,-0.231088 -0.51582,-0.515822 0,-0.284734 0.230398,-0.51582 0.51582,-0.51582 H 52.1568 c 0.260662,-1.013763 1.284739,-1.39547 2.004139,-1.39547 h 8.867314 V 64.894688 h -0.569466 c -0.285422,0 -0.515822,-0.231088 -0.515822,-0.51582 0,-0.284734 0.2304,-0.515823 0.515822,-0.515823 h 1.085288 c 0.285422,0 0.515822,0.231089 0.515822,0.515823 v 17.758014 c 0,0.284732 -0.2304,0.51582 -0.515822,0.51582 h -9.383136 c -0.170569,0 -1.035083,0.05502 -1.035083,0.879648 0,0.285422 -0.231088,0.515822 -0.51582,0.515822 z"
         inkscape:connector-curvature="0" />
    </g>
  </g>
</svg>
