<?xml version="1.0" encoding="UTF-8" standalone="no"?>
<!-- Created with Inkscape (http://www.inkscape.org/) -->

<svg
   xmlns:dc="http://purl.org/dc/elements/1.1/"
   xmlns:cc="http://creativecommons.org/ns#"
   xmlns:rdf="http://www.w3.org/1999/02/22-rdf-syntax-ns#"
   xmlns:svg="http://www.w3.org/2000/svg"
   xmlns="http://www.w3.org/2000/svg"
   xmlns:sodipodi="http://sodipodi.sourceforge.net/DTD/sodipodi-0.dtd"
   xmlns:inkscape="http://www.inkscape.org/namespaces/inkscape"
   width="95.590553"
   height="76.027214"
   viewBox="0 0 25.291667 20.115534"
   version="1.1"
   id="svg7441"
   inkscape:version="0.92.1 r15371"
   sodipodi:docname="libro.svg">
  <defs
     id="defs7435" />
  <sodipodi:namedview
     id="base"
     pagecolor="#ffffff"
     bordercolor="#666666"
     borderopacity="1.0"
     inkscape:pageopacity="0.0"
     inkscape:pageshadow="2"
     inkscape:zoom="2.8284271"
     inkscape:cx="20.908091"
     inkscape:cy="5.9549097"
     inkscape:document-units="mm"
     inkscape:current-layer="layer1"
     showgrid="false"
     fit-margin-top="10"
     fit-margin-left="10"
     fit-margin-right="10"
     fit-margin-bottom="10"
     units="px"
     inkscape:window-width="1366"
     inkscape:window-height="709"
     inkscape:window-x="0"
     inkscape:window-y="0"
     inkscape:window-maximized="1" />
  <metadata
     id="metadata7438">
    <rdf:RDF>
      <cc:Work
         rdf:about="">
        <dc:format>image/svg+xml</dc:format>
        <dc:type
           rdf:resource="http://purl.org/dc/dcmitype/StillImage" />
        <dc:title></dc:title>
      </cc:Work>
    </rdf:RDF>
  </metadata>
  <g
     inkscape:label="Capa 1"
     inkscape:groupmode="layer"
     id="layer1"
     transform="translate(-31.559525,-66.578475)">
    <g
       transform="matrix(0.39991007,0,0,0.39991007,-29.428635,-354.26246)"
       id="g1876"
       style="stroke-width:0.66160709">
      <rect
         style="fill:#ffffff;stroke-width:0.66160709"
         x="198.14301"
         y="1066.4771"
         width="3.3989999"
         height="8.0930004"
         id="rect1822" />
      <g
         id="g1874"
         style="stroke-width:0.66160709">
        <path
           style="fill:#8ed3f1;stroke-width:0.66160709"
           inkscape:connector-curvature="0"
           d="m 194.613,1058.955 c -8.018,0 -14.518,6.501 -14.518,14.519 0,8.019 6.5,14.519 14.518,14.519 1.245,0 2.447,-0.174 3.6,-0.469 l 0.103,-20.373 h 3.463 v 18.94 c 4.388,-2.497 7.353,-7.207 7.353,-12.617 -0.001,-8.018 -6.501,-14.519 -14.519,-14.519 z"
           id="path1824" />
        <g
           id="g1850"
           style="stroke-width:0.66160709">
          <g
             id="g1830"
             style="stroke-width:0.66160709">
            <path
               style="fill:#ffffff;stroke-width:0.66160709"
               inkscape:connector-curvature="0"
               d="m 163.377,1067.424 h -1.579 v 25.82 h 13.643 c 0,0 2.255,0 2.255,2.029 h 7.554"
               id="path1826" />
            <path
               inkscape:connector-curvature="0"
               d="m 185.251,1096.023 h -7.554 c -0.414,0 -0.75,-0.336 -0.75,-0.75 0,-1.199 -1.257,-1.276 -1.51,-1.279 h -13.639 c -0.414,0 -0.75,-0.336 -0.75,-0.75 v -25.82 c 0,-0.414 0.336,-0.75 0.75,-0.75 h 1.579 c 0.415,0 0.75,0.336 0.75,0.75 0,0.414 -0.335,0.75 -0.75,0.75 h -0.829 v 24.32 h 12.894 c 1.046,0 2.535,0.556 2.914,2.029 h 6.895 c 0.415,0 0.75,0.336 0.75,0.75 0,0.414 -0.335,0.75 -0.75,0.75 z"
               id="path1828"
               style="stroke-width:0.66160709" />
          </g>
          <g
             id="g1836"
             style="stroke-width:0.66160709">
            <path
               style="fill:#ffffff;stroke-width:0.66160709"
               inkscape:connector-curvature="0"
               d="m 200.201,1067.424 h 1.578 v 25.82 h -13.643 c 0,0 -2.255,0 -2.255,2.029 h -7.554"
               id="path1832" />
            <path
               inkscape:connector-curvature="0"
               d="m 185.881,1096.023 h -7.554 c -0.415,0 -0.75,-0.336 -0.75,-0.75 0,-0.414 0.335,-0.75 0.75,-0.75 h 6.895 c 0.379,-1.474 1.868,-2.029 2.914,-2.029 h 12.893 v -24.32 h -0.828 c -0.415,0 -0.75,-0.336 -0.75,-0.75 0,-0.414 0.335,-0.75 0.75,-0.75 h 1.578 c 0.415,0 0.75,0.336 0.75,0.75 v 25.82 c 0,0.414 -0.335,0.75 -0.75,0.75 h -13.643 c -0.248,0 -1.505,0.08 -1.505,1.279 0,0.415 -0.336,0.75 -0.75,0.75 z"
               id="path1834"
               style="stroke-width:0.66160709" />
          </g>
          <g
             id="g1842"
             style="stroke-width:0.66160709">
            <path
               style="fill:#ffffff;stroke-width:0.66160709"
               inkscape:connector-curvature="0"
               d="m 165.427,1064.782 0.048,25.147 h 10.95 c 0,0 3.245,0.203 3.245,1.825 h 2.028 v -22.509 c 0,0 -0.203,-4.461 -5.069,-4.461 z"
               id="path1838" />
            <path
               inkscape:connector-curvature="0"
               d="m 181.697,1092.505 h -2.028 c -0.414,0 -0.75,-0.336 -0.75,-0.75 0,-0.587 -1.503,-1.01 -2.542,-1.077 h -10.902 c -0.414,0 -0.75,-0.335 -0.75,-0.749 l -0.048,-25.147 c 0,-0.199 0.079,-0.391 0.219,-0.531 0.141,-0.141 0.332,-0.22 0.531,-0.22 0,0 0,0 0,0 h 11.2 c 4.417,0 5.737,3.387 5.818,5.177 l 0.001,22.543 c 0.001,0.413 -0.335,0.749 -0.749,0.749 z m -1.427,-1.5 h 0.677 v -21.759 c -0.02,-0.347 -0.318,-3.711 -4.319,-3.711 h -10.449 l 0.045,23.647 h 10.201 c 0.395,0.024 3.167,0.247 3.845,1.826 z"
               id="path1840"
               style="stroke-width:0.66160709" />
          </g>
          <g
             id="g1848"
             style="stroke-width:0.66160709">
            <path
               style="fill:#ffffff;stroke-width:0.66160709"
               inkscape:connector-curvature="0"
               d="m 198.326,1064.782 -0.047,25.147 h -10.95 c 0,0 -3.245,0.203 -3.245,1.825 h -2.028 v -22.509 c 0,0 0.203,-4.461 5.07,-4.461 z"
               id="path1844" />
            <path
               inkscape:connector-curvature="0"
               d="m 184.084,1092.505 h -2.028 c -0.414,0 -0.75,-0.336 -0.75,-0.75 v -22.509 c 0.082,-1.824 1.403,-5.211 5.819,-5.211 h 11.2 c 0.199,0 0.391,0.079 0.531,0.22 0.14,0.141 0.22,0.332 0.219,0.531 l -0.047,25.147 c -0.001,0.414 -0.336,0.749 -0.75,0.749 h -10.95 c -0.991,0.065 -2.495,0.488 -2.495,1.075 0.001,0.415 -0.334,0.751 -0.749,0.751 z m -1.278,-0.75 h 0.01 z m 0,-0.75 h 0.677 c 0.677,-1.579 3.444,-1.802 3.798,-1.824 l 10.248,-10e-4 0.045,-23.647 h -10.449 c -4.103,0 -4.313,3.592 -4.32,3.745 z"
               id="path1846"
               style="stroke-width:0.66160709" />
          </g>
        </g>
        <g
           id="g1856"
           style="stroke-width:0.66160709">
          <line
             style="fill:#ffffff;stroke-width:0.66160709"
             x1="187.047"
             y1="1068.701"
             x2="194.213"
             y2="1068.701"
             id="line1852" />
          <path
             inkscape:connector-curvature="0"
             d="m 194.213,1069.451 h -7.167 c -0.414,0 -0.75,-0.336 -0.75,-0.75 0,-0.414 0.336,-0.75 0.75,-0.75 h 7.167 c 0.415,0 0.75,0.336 0.75,0.75 0,0.414 -0.335,0.75 -0.75,0.75 z"
             id="path1854"
             style="stroke-width:0.66160709" />
        </g>
        <g
           id="g1862"
           style="stroke-width:0.66160709">
          <line
             style="fill:#ffffff;stroke-width:0.66160709"
             x1="187.047"
             y1="1072.0341"
             x2="189.213"
             y2="1072.0341"
             id="line1858" />
          <path
             inkscape:connector-curvature="0"
             d="m 189.213,1072.784 h -2.167 c -0.414,0 -0.75,-0.335 -0.75,-0.75 0,-0.414 0.336,-0.75 0.75,-0.75 h 2.167 c 0.414,0 0.75,0.336 0.75,0.75 0,0.415 -0.336,0.75 -0.75,0.75 z"
             id="path1860"
             style="stroke-width:0.66160709" />
        </g>
        <g
           id="g1868"
           style="stroke-width:0.66160709">
          <path
             style="fill:#e7829b;stroke-width:0.66160709"
             inkscape:connector-curvature="0"
             d="m 162.958,1080.922 c 1.234,1.783 -0.682,3.752 -2.498,2.568 -0.088,-0.058 -0.168,-0.135 -0.228,-0.222 -1.233,-1.782 0.682,-3.752 2.498,-2.567 0.088,0.057 0.168,0.135 0.228,0.221 z"
             id="path1864" />
          <path
             inkscape:connector-curvature="0"
             d="m 161.629,1084.569 c -1.363,0.02 -2.489,-1.075 -2.508,-2.439 -0.019,-1.364 1.076,-2.49 2.439,-2.509 1.365,-0.02 2.491,1.075 2.51,2.439 0.019,1.364 -1.075,2.491 -2.441,2.509 z m -0.048,-3.508 c -0.57,0.01 -1.026,0.479 -1.019,1.049 0.007,0.57 0.478,1.027 1.047,1.02 0.57,-0.01 1.029,-0.479 1.021,-1.048 -0.007,-0.571 -0.479,-1.029 -1.049,-1.021 z"
             id="path1866"
             style="stroke-width:0.66160709" />
        </g>
        <path
           style="fill:#82b945;stroke-width:0.66160709"
           inkscape:connector-curvature="0"
           d="m 161.878,1088.15 h 3.75 v 1.75 h 11.438 c 0,0 2.333,0.396 2.604,1.854 h 4.646 v 3.583 h -6.625 c 0,0 -0.438,-2.25 -3.25,-2.25 h -12.438 z"
           id="path1870" />
        <polygon
           style="fill:#82b945;stroke-width:0.66160709"
           points="201.503,1067.088 201.503,1092.838 198.315,1092.838 198.378,1067.088 "
           id="polygon1872" />
      </g>
    </g>
  </g>
</svg>
