<?xml version="1.0" encoding="UTF-8" standalone="no"?>
<!-- Created with Inkscape (http://www.inkscape.org/) -->

<svg
   xmlns:dc="http://purl.org/dc/elements/1.1/"
   xmlns:cc="http://creativecommons.org/ns#"
   xmlns:rdf="http://www.w3.org/1999/02/22-rdf-syntax-ns#"
   xmlns:svg="http://www.w3.org/2000/svg"
   xmlns="http://www.w3.org/2000/svg"
   xmlns:sodipodi="http://sodipodi.sourceforge.net/DTD/sodipodi-0.dtd"
   xmlns:inkscape="http://www.inkscape.org/namespaces/inkscape"
   width="130.89293"
   height="150"
   viewBox="0 0 34.632086 39.687499"
   version="1.1"
   id="svg10959"
   inkscape:version="0.92.1 r15371"
   sodipodi:docname="productos.svg">
  <defs
     id="defs10953" />
  <sodipodi:namedview
     id="base"
     pagecolor="#ffffff"
     bordercolor="#666666"
     borderopacity="1.0"
     inkscape:pageopacity="0.0"
     inkscape:pageshadow="2"
     inkscape:zoom="5.6"
     inkscape:cx="92.462113"
     inkscape:cy="66.443794"
     inkscape:document-units="px"
     inkscape:current-layer="layer1"
     showgrid="false"
     units="px"
     fit-margin-top="10"
     fit-margin-left="10"
     fit-margin-right="10"
     fit-margin-bottom="10"
     inkscape:window-width="1920"
     inkscape:window-height="1021"
     inkscape:window-x="0"
     inkscape:window-y="0"
     inkscape:window-maximized="1" />
  <metadata
     id="metadata10956">
    <rdf:RDF>
      <cc:Work
         rdf:about="">
        <dc:format>image/svg+xml</dc:format>
        <dc:type
           rdf:resource="http://purl.org/dc/dcmitype/StillImage" />
        <dc:title />
      </cc:Work>
    </rdf:RDF>
  </metadata>
  <g
     inkscape:label="Capa 1"
     inkscape:groupmode="layer"
     id="layer1"
     transform="translate(-181.25668,-267.30182)">
    <g
       id="g10774">
      <polygon
         transform="matrix(0.89649433,0,0,0.89649433,-83.995995,-796.66003)"
         style="fill:#ffffff;stroke-width:0.29513106"
         points="319.366,1226.33 319.366,1223.784 313.16,1223.784 312.762,1223.864 312.762,1226.171 314.194,1227.604 318.093,1227.604 "
         id="polygon1878" />
      <circle
         id="circle1880"
         r="11.390858"
         cy="281.3385"
         cx="195.29337"
         style="fill:#8ed3f1;stroke-width:0.26458332" />
      <path
         style="fill:#ffffff;stroke-width:0.26458332"
         inkscape:connector-curvature="0"
         d="m 195.47804,297.90934 v -3.66487 c 0,-0.62485 -0.17212,-1.23716 -0.49845,-1.77057 l -0.485,-0.7934 c -0.16944,-0.27702 -0.38639,-0.51907 -0.62575,-0.73871 -1.61818,-1.49177 -2.63211,-3.62901 -2.63211,-6.00293 0,-4.82852 4.19021,-8.67806 9.13259,-8.11148 3.60032,0.41239 6.56861,3.26772 7.1074,6.85101 0.40343,2.68321 -0.50652,5.15664 -2.17579,6.89942 -0.21785,0.22771 -0.42314,0.46708 -0.59168,0.73244 l -0.87946,1.38508 c -0.24564,0.38818 -0.37653,0.83733 -0.37653,1.29544 v 3.91768 h -7.97522 z"
         id="path1882" />
      <line
         id="line1884"
         y2="297.90396"
         x2="203.68726"
         y1="297.90396"
         x1="195.26825"
         style="fill:#ffffff;stroke-width:0.26458332" />
      <path
         style="stroke-width:0.26458332"
         id="path1886"
         d="m 203.68724,298.57634 h -8.41898 c -0.37204,0 -0.67237,-0.30123 -0.67237,-0.67238 0,-0.37114 0.30033,-0.67237 0.67237,-0.67237 h 8.41898 c 0.37205,0 0.67237,0.30123 0.67237,0.67237 0,0.37115 -0.30122,0.67238 -0.67237,0.67238 z"
         inkscape:connector-curvature="0" />
      <line
         id="line1890"
         y2="300.43027"
         x2="203.18164"
         y1="300.43027"
         x1="195.77299"
         style="fill:#ffffff;stroke-width:0.26458332" />
      <polygon
         transform="matrix(0.89649433,0,0,0.89649433,-83.995995,-796.66003)"
         style="fill:#e7829b;stroke-width:0.29513106"
         points="319.366,1226.33 319.366,1223.784 313.16,1223.784 312.762,1223.864 312.762,1226.171 314.194,1227.604 318.093,1227.604 "
         id="polygon1938" />
      <path
         style="stroke-width:0.26458332"
         id="path1892"
         d="m 203.18162,301.10266 h -7.40863 c -0.37204,0 -0.67237,-0.30123 -0.67237,-0.67237 0,-0.37205 0.30033,-0.67238 0.67237,-0.67238 h 7.40863 c 0.37204,0 0.67237,0.30033 0.67237,0.67238 0,0.37114 -0.30033,0.67237 -0.67237,0.67237 z"
         inkscape:connector-curvature="0" />
      <path
         inkscape:connector-curvature="0"
         d="m 197.98375,304.34348 c -1.28647,0 -1.96064,-1.04979 -2.15607,-1.66927 -0.11207,-0.35501 0.0843,-0.73154 0.43838,-0.8436 0.35232,-0.11027 0.72796,0.0834 0.84181,0.4339 0.0143,0.0412 0.26088,0.73423 0.87588,0.73423 h 2.84099 c -0.0143,0 0.42135,-0.0717 0.63382,-0.63741 0.13089,-0.34784 0.51817,-0.52355 0.86601,-0.39266 0.34784,0.13089 0.52355,0.51728 0.39267,0.86512 -0.41867,1.11703 -1.3564,1.47383 -1.84409,1.5088 z"
         id="path1896"
         style="stroke-width:0.26458332" />
      <path
         style="stroke-width:0.26458332"
         id="path1898"
         d="m 199.40469,298.58171 c -0.37205,0 -0.67237,-0.30122 -0.67237,-0.67237 v -7.49828 c 0,-0.37114 0.30032,-0.67237 0.67237,-0.67237 0.37115,0 0.67237,0.30123 0.67237,0.67237 v 7.49828 c 0,0.37115 -0.30122,0.67237 -0.67237,0.67237 z"
         inkscape:connector-curvature="0" />
      <path
         style="stroke-width:0.26458332"
         id="path1900"
         d="m 201.01479,290.83152 h -3.2202 c -0.37205,0 -0.67238,-0.30122 -0.67238,-0.67237 0,-0.37115 0.30033,-0.67237 0.67238,-0.67237 h 3.2202 c 0.37115,0 0.67237,0.30122 0.67237,0.67237 0,0.37115 -0.30122,0.67237 -0.67237,0.67237 z"
         inkscape:connector-curvature="0" />
      <path
         inkscape:connector-curvature="0"
         d="m 191.54243,278.01344 c -0.17123,0 -0.34425,-0.0654 -0.47514,-0.19722 l -4.04139,-4.0414 c -0.26268,-0.26267 -0.26268,-0.68851 0,-0.95118 0.26267,-0.26267 0.6885,-0.26267 0.95118,0 l 4.04139,4.0414 c 0.26268,0.26267 0.26268,0.6885 0,0.95118 -0.13178,0.13178 -0.30391,0.19722 -0.47604,0.19722 z"
         id="path1904"
         style="stroke-width:0.26458332" />
      <path
         inkscape:connector-curvature="0"
         d="m 188.95336,281.80203 c -0.0834,0 -0.16765,-0.0161 -0.24923,-0.0484 l -2.52542,-1.01035 c -0.34426,-0.13806 -0.5119,-0.52893 -0.37384,-0.87408 0.13806,-0.34515 0.52893,-0.5119 0.87408,-0.37474 l 2.52543,1.01035 c 0.34425,0.13717 0.51279,0.52893 0.37383,0.87408 -0.10578,0.26357 -0.3577,0.42315 -0.62485,0.42315 z"
         id="path1906"
         style="stroke-width:0.26458332" />
      <path
         inkscape:connector-curvature="0"
         d="m 195.0791,275.55077 c -0.24384,0 -0.47962,-0.13268 -0.59885,-0.36487 l -1.19951,-2.33626 c -0.16944,-0.32991 -0.0395,-0.73513 0.29136,-0.90546 0.32991,-0.16944 0.73512,-0.0395 0.90546,0.29046 l 1.19951,2.33627 c 0.16943,0.32991 0.0394,0.73512 -0.29136,0.90546 -0.0977,0.0511 -0.20261,0.0744 -0.30661,0.0744 z"
         id="path1908"
         style="stroke-width:0.26458332" />
      <path
         inkscape:connector-curvature="0"
         d="m 186.55524,291.58906 c -0.24923,0 -0.48859,-0.13896 -0.60514,-0.37743 -0.16226,-0.33439 -0.0233,-0.73691 0.31019,-0.89918 l 2.46267,-1.20041 c 0.3335,-0.16316 0.73692,-0.0233 0.89918,0.31019 0.16316,0.33439 0.0242,0.73602 -0.31018,0.89919 l -2.46267,1.2004 c -0.095,0.0448 -0.19544,0.0672 -0.29405,0.0672 z"
         id="path1910"
         style="stroke-width:0.26458332" />
      <path
         inkscape:connector-curvature="0"
         d="m 187.24912,298.09223 c -0.17571,0 -0.35053,-0.0681 -0.48231,-0.2053 -0.25909,-0.26626 -0.25281,-0.6912 0.0143,-0.95118 l 4.16691,-4.0414 c 0.26715,-0.25819 0.69209,-0.25191 0.95118,0.0152 0.25819,0.26716 0.25191,0.6921 -0.0143,0.95118 l -4.1669,4.0414 c -0.13179,0.1273 -0.30033,0.19006 -0.46887,0.19006 z"
         id="path1912"
         style="stroke-width:0.26458332" />
      <path
         inkscape:connector-curvature="0"
         d="m 207.4561,278.01344 c -0.17212,0 -0.34425,-0.0654 -0.47514,-0.19722 -0.26267,-0.26268 -0.26267,-0.68851 0,-0.95118 l 4.0414,-4.0414 c 0.26267,-0.26267 0.68851,-0.26267 0.95118,0 0.26267,0.26267 0.26267,0.68851 0,0.95118 l -4.0414,4.0414 c -0.13178,0.13178 -0.30391,0.19722 -0.47604,0.19722 z"
         id="path1914"
         style="stroke-width:0.26458332" />
      <path
         inkscape:connector-curvature="0"
         d="m 210.04518,281.80203 c -0.26716,0 -0.51997,-0.15958 -0.62486,-0.42315 -0.13806,-0.34515 0.0296,-0.73602 0.37474,-0.87408 l 2.52542,-1.01035 c 0.34426,-0.13716 0.73602,0.0296 0.87408,0.37474 0.13807,0.34515 -0.0296,0.73512 -0.37383,0.87408 l -2.52632,1.01035 c -0.0816,0.0323 -0.16586,0.0484 -0.24923,0.0484 z"
         id="path1916"
         style="stroke-width:0.26458332" />
      <path
         inkscape:connector-curvature="0"
         d="m 203.91943,275.55077 c -0.10309,0 -0.20798,-0.0233 -0.3066,-0.0744 -0.3308,-0.16944 -0.46079,-0.57555 -0.29136,-0.90546 l 1.19951,-2.33627 c 0.16944,-0.32991 0.57555,-0.4608 0.90457,-0.29046 0.3308,0.16944 0.46079,0.57555 0.29136,0.90546 l -1.19951,2.33626 c -0.11834,0.2313 -0.35322,0.36487 -0.59797,0.36487 z"
         id="path1918"
         style="stroke-width:0.26458332" />
      <path
         inkscape:connector-curvature="0"
         d="m 212.4442,291.58906 c -0.0995,0 -0.19902,-0.0215 -0.29405,-0.0672 l -2.46267,-1.2004 c -0.33439,-0.16317 -0.47245,-0.5648 -0.31019,-0.89919 0.16227,-0.33349 0.56479,-0.47155 0.89829,-0.31019 l 2.46267,1.20041 c 0.33439,0.16227 0.47245,0.56479 0.31019,0.89918 -0.11565,0.23758 -0.35502,0.37743 -0.60424,0.37743 z"
         id="path1920"
         style="stroke-width:0.26458332" />
      <path
         inkscape:connector-curvature="0"
         d="m 211.75031,298.09223 c -0.16854,0 -0.33708,-0.0628 -0.46797,-0.19006 l -4.1669,-4.0414 c -0.26626,-0.25819 -0.27254,-0.68402 -0.0144,-0.95118 0.25819,-0.26715 0.68403,-0.27343 0.95118,-0.0152 l 4.16691,4.0414 c 0.26626,0.25909 0.27343,0.68492 0.0143,0.95118 -0.13268,0.13716 -0.30839,0.2053 -0.48321,0.2053 z"
         id="path1922"
         style="stroke-width:0.26458332" />
      <path
         inkscape:connector-curvature="0"
         d="m 203.45236,296.63991 c -0.37115,0 -0.67237,-0.30122 -0.67237,-0.67237 v -1.97588 c 0,-0.5872 0.16675,-1.16006 0.48142,-1.65672 l 0.88036,-1.38508 c 0.17212,-0.27164 0.38638,-0.5379 0.67326,-0.83733 1.61997,-1.69168 2.34792,-4.00016 1.9965,-6.33463 -0.49039,-3.26413 -3.23187,-5.9061 -6.51842,-6.28263 -2.1731,-0.24833 -4.25924,0.40701 -5.87562,1.84857 -1.59397,1.42184 -2.50749,3.46137 -2.50749,5.59502 0,2.08525 0.88035,4.0925 2.41515,5.50896 0.31378,0.28957 0.55673,0.57914 0.7432,0.88305 l 0.485,0.7925 c 0.39087,0.6392 0.59796,1.37164 0.59796,2.1211 v 1.72307 c 0,0.37115 -0.30122,0.67237 -0.67237,0.67237 -0.37115,0 -0.67237,-0.30122 -0.67237,-0.67237 v -1.72307 c 0,-0.50203 -0.13806,-0.99152 -0.39984,-1.42004 l -0.485,-0.7925 c -0.12013,-0.19723 -0.28688,-0.39177 -0.50742,-0.59528 -1.81002,-1.67016 -2.84816,-4.03781 -2.84816,-6.49779 0,-2.51735 1.07759,-4.92175 2.95754,-6.59819 1.87815,-1.67466 4.39999,-2.46985 6.92362,-2.18118 3.88003,0.44467 7.11637,3.56447 7.69551,7.41849 0.41328,2.74866 -0.44556,5.47041 -2.35509,7.46422 -0.22412,0.23398 -0.38639,0.4339 -0.50921,0.62844 l -0.88036,1.38508 c -0.1775,0.27971 -0.27164,0.60334 -0.27164,0.93505 v 1.97587 c -0.002,0.37205 -0.30301,0.67327 -0.67416,0.67327 z"
         id="path1924"
         style="stroke-width:0.26458332" />
      <path
         style="fill:#ffffff;stroke-width:0.26458332"
         inkscape:connector-curvature="0"
         d="m 192.52589,283.73129 c 1.10627,1.59755 -0.61141,3.36364 -2.23944,2.3013 -0.0789,-0.052 -0.15062,-0.12103 -0.20441,-0.19903 -1.10627,-1.59755 0.61141,-3.36275 2.23945,-2.3013 0.0798,0.052 0.15061,0.12103 0.2044,0.19903 z"
         id="path1928" />
      <path
         id="path1934"
         d="m 192.48196,284.98817 c 0,-0.12641 0,-0.25102 0,-0.37742 0,-0.73961 -0.65086,-1.44874 -1.41556,-1.41467 -0.76651,0.0341 -1.41467,0.62127 -1.41467,1.41467 0,0.1264 0,0.25101 0,0.37742 0,0.73961 0.65085,1.44874 1.41467,1.41467 0.7665,-0.0341 1.41556,-0.62127 1.41556,-1.41467 z"
         inkscape:connector-curvature="0"
         style="fill:#82b945;stroke-width:0.26458332" />
      <path
         inkscape:connector-curvature="0"
         d="m 191.33534,287.0008 c -1.22192,0.017 -2.23137,-0.96463 -2.2484,-2.18745 -0.017,-1.22281 0.96462,-2.23227 2.18655,-2.2493 1.22371,-0.017 2.23316,0.96463 2.2502,2.18745 0.017,1.22281 -0.96463,2.23227 -2.18835,2.2493 z m -0.0439,-3.1449 c -0.51101,0.009 -0.91981,0.42942 -0.91353,0.93952 0.007,0.51101 0.42852,0.9216 0.93863,0.91532 0.511,-0.009 0.92249,-0.42942 0.91532,-0.94042 -0.007,-0.5119 -0.42942,-0.92159 -0.94042,-0.91442 z"
         id="path1930"
         style="stroke-width:0.26458332" />
    </g>
  </g>
</svg>
