<?xml version="1.0" encoding="UTF-8" standalone="no"?>
<!-- Created with Inkscape (http://www.inkscape.org/) -->

<svg
   xmlns:dc="http://purl.org/dc/elements/1.1/"
   xmlns:cc="http://creativecommons.org/ns#"
   xmlns:rdf="http://www.w3.org/1999/02/22-rdf-syntax-ns#"
   xmlns:svg="http://www.w3.org/2000/svg"
   xmlns="http://www.w3.org/2000/svg"
   xmlns:sodipodi="http://sodipodi.sourceforge.net/DTD/sodipodi-0.dtd"
   xmlns:inkscape="http://www.inkscape.org/namespaces/inkscape"
   width="130.89293"
   height="150"
   viewBox="0 0 34.632086 39.687499"
   version="1.1"
   id="svg10959"
   inkscape:version="0.92.1 r15371"
   sodipodi:docname="productos.svg">
  <defs
     id="defs10953" />
  <sodipodi:namedview
     id="base"
     pagecolor="#ffffff"
     bordercolor="#666666"
     borderopacity="1.0"
     inkscape:pageopacity="0.0"
     inkscape:pageshadow="2"
     inkscape:zoom="0.98994949"
     inkscape:cx="-3.2530753"
     inkscape:cy="74.300937"
     inkscape:document-units="px"
     inkscape:current-layer="layer1"
     showgrid="false"
     units="px"
     fit-margin-top="10"
     fit-margin-left="10"
     fit-margin-right="10"
     fit-margin-bottom="10"
     inkscape:window-width="1366"
     inkscape:window-height="709"
     inkscape:window-x="0"
     inkscape:window-y="0"
     inkscape:window-maximized="1" />
  <metadata
     id="metadata10956">
    <rdf:RDF>
      <cc:Work
         rdf:about="">
        <dc:format>image/svg+xml</dc:format>
        <dc:type
           rdf:resource="http://purl.org/dc/dcmitype/StillImage" />
        <dc:title></dc:title>
      </cc:Work>
    </rdf:RDF>
  </metadata>
  <g
     inkscape:label="Capa 1"
     inkscape:groupmode="layer"
     id="layer1"
     transform="translate(-181.25668,-267.30182)">
    <g
       transform="matrix(0.89649433,0,0,0.89649433,-83.995995,-796.66003)"
       id="g1940"
       style="stroke-width:0.29513106">
      <polygon
         style="fill:#ffffff;stroke-width:0.29513106"
         points="314.194,1227.604 318.093,1227.604 319.366,1226.33 319.366,1223.784 313.16,1223.784 312.762,1223.864 312.762,1226.171 "
         id="polygon1878" />
      <g
         id="g1936"
         style="stroke-width:0.29513106">
        <circle
           style="fill:#8ed3f1;stroke-width:0.29513106"
           cx="311.535"
           cy="1202.46"
           r="12.706"
           id="circle1880" />
        <g
           id="g1926"
           style="stroke-width:0.29513106">
          <path
             style="fill:#ffffff;stroke-width:0.29513106"
             inkscape:connector-curvature="0"
             d="m 311.741,1220.944 v -4.088 c 0,-0.697 -0.192,-1.38 -0.556,-1.975 l -0.541,-0.885 c -0.189,-0.309 -0.431,-0.579 -0.698,-0.824 -1.805,-1.664 -2.936,-4.048 -2.936,-6.696 0,-5.386 4.674,-9.68 10.187,-9.048 4.016,0.46 7.327,3.645 7.928,7.642 0.45,2.993 -0.565,5.752 -2.427,7.696 -0.243,0.254 -0.472,0.521 -0.66,0.817 l -0.981,1.545 c -0.274,0.433 -0.42,0.934 -0.42,1.445 v 4.37 h -8.896 z"
             id="path1882" />
          <g
             id="g1888"
             style="stroke-width:0.29513106">
            <line
               style="fill:#ffffff;stroke-width:0.29513106"
               x1="311.50699"
               y1="1220.938"
               x2="320.89801"
               y2="1220.938"
               id="line1884" />
            <path
               inkscape:connector-curvature="0"
               d="m 320.898,1221.688 h -9.391 c -0.415,0 -0.75,-0.336 -0.75,-0.75 0,-0.414 0.335,-0.75 0.75,-0.75 h 9.391 c 0.415,0 0.75,0.336 0.75,0.75 0,0.414 -0.336,0.75 -0.75,0.75 z"
               id="path1886"
               style="stroke-width:0.29513106" />
          </g>
          <g
             id="g1894"
             style="stroke-width:0.29513106">
            <line
               style="fill:#ffffff;stroke-width:0.29513106"
               x1="312.07001"
               y1="1223.756"
               x2="320.33401"
               y2="1223.756"
               id="line1890" />
            <path
               inkscape:connector-curvature="0"
               d="m 320.334,1224.506 h -8.264 c -0.415,0 -0.75,-0.336 -0.75,-0.75 0,-0.415 0.335,-0.75 0.75,-0.75 h 8.264 c 0.415,0 0.75,0.335 0.75,0.75 0,0.414 -0.335,0.75 -0.75,0.75 z"
               id="path1892"
               style="stroke-width:0.29513106" />
          </g>
          <path
             inkscape:connector-curvature="0"
             d="m 314.536,1228.121 c -1.435,0 -2.187,-1.171 -2.405,-1.862 -0.125,-0.396 0.094,-0.816 0.489,-0.941 0.393,-0.123 0.812,0.093 0.939,0.484 0.016,0.046 0.291,0.819 0.977,0.819 h 3.169 c -0.016,0 0.47,-0.08 0.707,-0.711 0.146,-0.388 0.578,-0.584 0.966,-0.438 0.388,0.146 0.584,0.577 0.438,0.965 -0.467,1.246 -1.513,1.644 -2.057,1.683 z"
             id="path1896"
             style="stroke-width:0.29513106" />
          <g
             id="g1902"
             style="stroke-width:0.29513106">
            <path
               inkscape:connector-curvature="0"
               d="m 316.121,1221.694 c -0.415,0 -0.75,-0.336 -0.75,-0.75 v -8.364 c 0,-0.414 0.335,-0.75 0.75,-0.75 0.414,0 0.75,0.336 0.75,0.75 v 8.364 c 0,0.414 -0.336,0.75 -0.75,0.75 z"
               id="path1898"
               style="stroke-width:0.29513106" />
            <path
               inkscape:connector-curvature="0"
               d="m 317.917,1213.049 h -3.592 c -0.415,0 -0.75,-0.336 -0.75,-0.75 0,-0.414 0.335,-0.75 0.75,-0.75 h 3.592 c 0.414,0 0.75,0.336 0.75,0.75 0,0.414 -0.336,0.75 -0.75,0.75 z"
               id="path1900"
               style="stroke-width:0.29513106" />
          </g>
          <path
             inkscape:connector-curvature="0"
             d="m 307.351,1198.751 c -0.191,0 -0.384,-0.073 -0.53,-0.22 l -4.508,-4.508 c -0.293,-0.293 -0.293,-0.768 0,-1.061 0.293,-0.293 0.768,-0.293 1.061,0 l 4.508,4.508 c 0.293,0.293 0.293,0.768 0,1.061 -0.147,0.147 -0.339,0.22 -0.531,0.22 z"
             id="path1904"
             style="stroke-width:0.29513106" />
          <path
             inkscape:connector-curvature="0"
             d="m 304.463,1202.977 c -0.093,0 -0.187,-0.018 -0.278,-0.054 l -2.817,-1.127 c -0.384,-0.154 -0.571,-0.59 -0.417,-0.975 0.154,-0.385 0.59,-0.571 0.975,-0.418 l 2.817,1.127 c 0.384,0.153 0.572,0.59 0.417,0.975 -0.118,0.294 -0.399,0.472 -0.697,0.472 z"
             id="path1906"
             style="stroke-width:0.29513106" />
          <path
             inkscape:connector-curvature="0"
             d="m 311.296,1196.004 c -0.272,0 -0.535,-0.148 -0.668,-0.407 l -1.338,-2.606 c -0.189,-0.368 -0.044,-0.82 0.325,-1.01 0.368,-0.189 0.82,-0.044 1.01,0.324 l 1.338,2.606 c 0.189,0.368 0.044,0.82 -0.325,1.01 -0.109,0.057 -0.226,0.083 -0.342,0.083 z"
             id="path1908"
             style="stroke-width:0.29513106" />
          <path
             inkscape:connector-curvature="0"
             d="m 301.788,1213.894 c -0.278,0 -0.545,-0.155 -0.675,-0.421 -0.181,-0.373 -0.026,-0.822 0.346,-1.003 l 2.747,-1.339 c 0.372,-0.182 0.822,-0.026 1.003,0.346 0.182,0.373 0.027,0.821 -0.346,1.003 l -2.747,1.339 c -0.106,0.05 -0.218,0.075 -0.328,0.075 z"
             id="path1910"
             style="stroke-width:0.29513106" />
          <path
             inkscape:connector-curvature="0"
             d="m 302.562,1221.148 c -0.196,0 -0.391,-0.076 -0.538,-0.229 -0.289,-0.297 -0.282,-0.771 0.016,-1.061 l 4.648,-4.508 c 0.298,-0.288 0.772,-0.281 1.061,0.017 0.288,0.298 0.281,0.772 -0.016,1.061 l -4.648,4.508 c -0.147,0.142 -0.335,0.212 -0.523,0.212 z"
             id="path1912"
             style="stroke-width:0.29513106" />
          <path
             inkscape:connector-curvature="0"
             d="m 325.102,1198.751 c -0.192,0 -0.384,-0.073 -0.53,-0.22 -0.293,-0.293 -0.293,-0.768 0,-1.061 l 4.508,-4.508 c 0.293,-0.293 0.768,-0.293 1.061,0 0.293,0.293 0.293,0.768 0,1.061 l -4.508,4.508 c -0.147,0.147 -0.339,0.22 -0.531,0.22 z"
             id="path1914"
             style="stroke-width:0.29513106" />
          <path
             inkscape:connector-curvature="0"
             d="m 327.99,1202.977 c -0.298,0 -0.58,-0.178 -0.697,-0.472 -0.154,-0.385 0.033,-0.821 0.418,-0.975 l 2.817,-1.127 c 0.384,-0.153 0.821,0.033 0.975,0.418 0.154,0.385 -0.033,0.82 -0.417,0.975 l -2.818,1.127 c -0.091,0.036 -0.185,0.054 -0.278,0.054 z"
             id="path1916"
             style="stroke-width:0.29513106" />
          <path
             inkscape:connector-curvature="0"
             d="m 321.157,1196.004 c -0.115,0 -0.232,-0.026 -0.342,-0.083 -0.369,-0.189 -0.514,-0.642 -0.325,-1.01 l 1.338,-2.606 c 0.189,-0.368 0.642,-0.514 1.009,-0.324 0.369,0.189 0.514,0.642 0.325,1.01 l -1.338,2.606 c -0.132,0.258 -0.394,0.407 -0.667,0.407 z"
             id="path1918"
             style="stroke-width:0.29513106" />
          <path
             inkscape:connector-curvature="0"
             d="m 330.666,1213.894 c -0.111,0 -0.222,-0.024 -0.328,-0.075 l -2.747,-1.339 c -0.373,-0.182 -0.527,-0.63 -0.346,-1.003 0.181,-0.372 0.63,-0.526 1.002,-0.346 l 2.747,1.339 c 0.373,0.181 0.527,0.63 0.346,1.003 -0.129,0.265 -0.396,0.421 -0.674,0.421 z"
             id="path1920"
             style="stroke-width:0.29513106" />
          <path
             inkscape:connector-curvature="0"
             d="m 329.892,1221.148 c -0.188,0 -0.376,-0.07 -0.522,-0.212 l -4.648,-4.508 c -0.297,-0.288 -0.304,-0.763 -0.016,-1.061 0.288,-0.298 0.763,-0.305 1.061,-0.017 l 4.648,4.508 c 0.297,0.289 0.305,0.764 0.016,1.061 -0.148,0.153 -0.344,0.229 -0.539,0.229 z"
             id="path1922"
             style="stroke-width:0.29513106" />
          <path
             inkscape:connector-curvature="0"
             d="m 320.636,1219.528 c -0.414,0 -0.75,-0.336 -0.75,-0.75 v -2.204 c 0,-0.655 0.186,-1.294 0.537,-1.848 l 0.982,-1.545 c 0.192,-0.303 0.431,-0.6 0.751,-0.934 1.807,-1.887 2.619,-4.462 2.227,-7.066 -0.547,-3.641 -3.605,-6.588 -7.271,-7.008 -2.424,-0.277 -4.751,0.454 -6.554,2.062 -1.778,1.586 -2.797,3.861 -2.797,6.241 0,2.326 0.982,4.565 2.694,6.145 0.35,0.323 0.621,0.646 0.829,0.985 l 0.541,0.884 c 0.436,0.713 0.667,1.53 0.667,2.366 v 1.922 c 0,0.414 -0.336,0.75 -0.75,0.75 -0.414,0 -0.75,-0.336 -0.75,-0.75 v -1.922 c 0,-0.56 -0.154,-1.106 -0.446,-1.584 l -0.541,-0.884 c -0.134,-0.22 -0.32,-0.437 -0.566,-0.664 -2.019,-1.863 -3.177,-4.504 -3.177,-7.248 0,-2.808 1.202,-5.49 3.299,-7.36 2.095,-1.868 4.908,-2.755 7.723,-2.433 4.328,0.496 7.938,3.976 8.584,8.275 0.461,3.066 -0.497,6.102 -2.627,8.326 -0.25,0.261 -0.431,0.484 -0.568,0.701 l -0.982,1.545 c -0.198,0.312 -0.303,0.673 -0.303,1.043 v 2.204 c -0.002,0.415 -0.338,0.751 -0.752,0.751 z"
             id="path1924"
             style="stroke-width:0.29513106" />
        </g>
        <g
           id="g1932"
           style="stroke-width:0.29513106">
          <path
             style="fill:#ffffff;stroke-width:0.29513106"
             inkscape:connector-curvature="0"
             d="m 308.448,1205.129 c 1.234,1.782 -0.682,3.752 -2.498,2.567 -0.088,-0.058 -0.168,-0.135 -0.228,-0.222 -1.234,-1.782 0.682,-3.751 2.498,-2.567 0.089,0.058 0.168,0.135 0.228,0.222 z"
             id="path1928" />
          <path
             inkscape:connector-curvature="0"
             d="m 307.12,1208.776 c -1.363,0.019 -2.489,-1.076 -2.508,-2.44 -0.019,-1.364 1.076,-2.49 2.439,-2.509 1.365,-0.019 2.491,1.076 2.51,2.44 0.019,1.364 -1.076,2.49 -2.441,2.509 z m -0.049,-3.508 c -0.57,0.01 -1.026,0.479 -1.019,1.048 0.008,0.57 0.478,1.028 1.047,1.021 0.57,-0.01 1.029,-0.479 1.021,-1.049 -0.008,-0.571 -0.479,-1.028 -1.049,-1.02 z"
             id="path1930"
             style="stroke-width:0.29513106" />
        </g>
        <path
           style="fill:#82b945;stroke-width:0.29513106"
           inkscape:connector-curvature="0"
           d="m 308.399,1206.531 c 0,-0.141 0,-0.28 0,-0.421 0,-0.825 -0.726,-1.616 -1.579,-1.578 -0.855,0.038 -1.578,0.693 -1.578,1.578 0,0.141 0,0.28 0,0.421 0,0.825 0.726,1.616 1.578,1.578 0.855,-0.038 1.579,-0.693 1.579,-1.578 z"
           id="path1934" />
      </g>
      <polygon
         style="fill:#e7829b;stroke-width:0.29513106"
         points="314.194,1227.604 318.093,1227.604 319.366,1226.33 319.366,1223.784 313.16,1223.784 312.762,1223.864 312.762,1226.171 "
         id="polygon1938" />
    </g>
  </g>
</svg>
