<?xml version="1.0" encoding="utf-8"?>
<!-- Generator: Adobe Illustrator 23.0.4, SVG Export Plug-In . SVG Version: 6.00 Build 0)  -->
<svg version="1.1" id="Capa_1" xmlns="http://www.w3.org/2000/svg" xmlns:xlink="http://www.w3.org/1999/xlink" x="0px" y="0px"
	 viewBox="0 0 235.5 244.8" style="enable-background:new 0 0 235.5 244.8;" xml:space="preserve">
<style type="text/css">
	.st0{fill:#FEFEFE;}
	.st1{fill:#21201E;}
	.st2{fill:#46ADDD;}
	.st3{fill:#93D1ED;}
	.st4{fill:#D26268;}
	.st5{fill:#EBD42C;}
	.st6{fill:#2D2C2B;}
	.st7{fill:#91CFEE;}
	.st8{fill:#21201F;}
	.st9{fill:#92D0EC;}
	.st10{fill:#3FABDF;}
	.st11{fill:#FDFDFD;}
	.st12{fill:#94D1ED;}
	.st13{fill:#201F1D;}
	.st14{fill:#44ACDC;}
</style>
<g>
	<g>
		<path class="st0" d="M231.8,116.9c-0.4-9.9-1.6-19.8-2.6-29.7c-0.6-5.6-1.1-11.3-3.2-16.7c-1.2-3.1-3.4-4.9-6.6-5.6
			c-2.2-0.5-4.5-0.5-6.8-0.5c-18.3-0.1-36.6-0.1-54.9-0.2c-0.5,0-1.1,0.3-1.5-0.3c0.3-0.3,0.6-0.5,0.8-0.8
			c11.5-9.4,22.1-19.8,31.8-31.1c1.5-1.7,3-3.5,4.4-5.3c1.2-1.5,0.9-3.4-0.5-4.4c-1.3-1-2.6-0.7-3.9,0.9c-1.8,2.1-3.6,4.3-5.4,6.4
			c-10.6,12.1-22.3,23.2-34.9,33.2c-1.3,1-2.5,1.5-4.2,1.4c-7.1-0.2-14.2-0.2-21.3-0.3c-1,0-1.6-0.4-2.1-1.2
			c-4.4-6.1-9-12.1-13.8-18c-5.5-6.8-11.1-13.4-16.9-19.9c-1.5-1.7-3.4-1.7-4.6-0.2c-1,1.3-0.8,2.7,0.6,4.3
			c6.7,7.5,13.1,15.1,19.3,23c3,3.8,5.9,7.7,9.1,11.8c-1,0-1.5,0-2,0c-7.2,0-14.5,0-21.7,0.1c-7,0.1-14,0.2-20.9-0.2
			c-5.3-0.3-10.6-0.3-15.8,0.9c-0.1,0.9-0.6,1.8-1.4,2.6c-9.9,10-22.8,15.8-32.2,26.3c-2.6,2.9-5.2,6-7.6,9.2c-1,2.4-1.9,4.7-3.1,7
			c0,0.3-0.1,0.7-0.2,1c-1.4,3.9-1.4,8-3.6,11.7c-0.5,0.8-1.1,1.4-1.7,1.7c-1,10.5-2,21.2-0.6,31.5c0.9,0.2,1.7,0.8,2.3,1.9
			c1.7,3.4,2.3,7,2.5,10.6c0.5,0.7,0.9,1.4,1.5,2.1c14,19.1,34.2,34.3,57.1,40.5c1-1.7,2.9-2.9,5.4-2.3c12.1,2.7,26.4,4.4,39.2,1.9
			c4.8-1.6,9.4-3.6,14.2-5.3c0.2-0.1,0.5-0.1,0.7-0.2c0.2-0.1,0.4-0.2,0.6-0.4c1.2-0.8,2.4-1.6,3.5-2.4c0.9-0.8,1.8-1.5,2.8-2.1
			c2.7-2,5.4-3.9,8.4-5.3c0.4-2.1,2-4,4.7-4c0.5,0,0.9,0.1,1.3,0.2c2.2-1.3,4.8-1.7,7.9-0.7c0.7-0.2,1.4-0.2,2.2,0
			c19.8,4,40.2-0.4,60.2,0.9c0.5,0,1,0.1,1.5,0.3c5.1-2.5,8-7.4,9-14.9c1-7.8,1.9-15.7,2.4-23.6C232.2,141,232.3,128.9,231.8,116.9z
			"/>
		<path class="st7" d="M9.9,116.5c0.6-1.6,1.1-3.3,1.7-4.9c0.2-0.1,0.4-0.3,0.5-0.4c5.7-11.5,13.1-21.6,23.3-29.6
			c4.6-3.6,9.4-6.8,14.9-8.9c-0.6,1.4-1.2,2.8-1.7,4.2c-0.7,2.3-0.8,4.7-1.3,7c-0.6,0.4-1,0.9-1.4,1.4c-4.3,5.8-7.1,12.3-9.2,19.1
			c-2.6,8.3-4.7,16.8-5.7,25.5c-0.7,6.2-0.8,12.3,0.2,18.4c1.9,12,8,21.6,17.6,29c8.8,6.7,18.8,10.3,29.8,11.2
			c6.5,0.5,13.1,0.2,19.5-1.4c3.3-0.8,6.7-1.6,9.7-3.4c13.9-0.2,27.8-0.4,41.7-0.6c-0.2,2.8-1.4,5.1-3.3,7.1
			c-5.4,5.7-11.7,10.4-18.6,14.3c-1.7,1-3.7,1.5-5.1,3c-2.2,0.7-4.3,1.4-6.5,2.1c-0.3-0.3-0.6-0.2-1-0.1c-8.1,1.7-16.3,2.3-24.5,2.6
			c-6,0.2-12-0.3-18-0.7c-2.6-0.2-5.2-0.6-7.8-0.9c-3.3-0.4-6.6-0.8-9.8-1.3c-1.4-0.4-2.9-0.9-4.3-1.3c-0.3-0.8-1-0.8-1.6-1.1
			C38.7,201.6,30,194.8,22.8,186C12.4,173.2,7.5,158.5,7,142.2c-0.1-3.1,0.3-6.2,0.4-9.3c0.1-2.3,0.5-4.6,0.9-6.9
			C8.8,122.8,9.4,119.7,9.9,116.5z"/>
		<path class="st8" d="M39.6,84.8c0.6-2.5,0.6-5.1,1.4-7.6c0.5-1.6,1.1-3.1,1.8-4.6c1.9-3.2,4.7-5.4,8-7c6.3-2.2,12.8-2.2,19.2-1.9
			c7,0.4,14,0.2,20.9,0.2c7.2-0.1,14.5-0.1,21.7-0.1c0.5,0,1.1,0,2,0c-3.2-4.1-6.1-8-9.1-11.8C99.4,44.1,93,36.5,86.3,29
			c-1.4-1.6-1.6-3-0.6-4.3c1.2-1.6,3.1-1.5,4.6,0.2c5.8,6.5,11.5,13.1,16.9,19.9c4.7,5.9,9.3,11.9,13.8,18c0.5,0.7,1.1,1.2,2.1,1.2
			c7.1,0,14.2,0.1,21.3,0.3c1.6,0,2.8-0.4,4.2-1.4c12.6-10,24.3-21,34.9-33.2c1.8-2.1,3.6-4.2,5.4-6.4c1.4-1.6,2.6-1.9,3.9-0.9
			c1.4,1.1,1.7,2.9,0.5,4.4c-1.4,1.8-2.9,3.5-4.4,5.3c-9.7,11.3-20.3,21.7-31.8,31.1c-0.3,0.2-0.6,0.5-0.8,0.8
			c0.4,0.6,1,0.3,1.5,0.3c18.3,0.1,36.6,0.1,54.9,0.2c2.3,0,4.6,0,6.8,0.5c3.2,0.8,5.4,2.6,6.6,5.6c2.1,5.4,2.6,11,3.2,16.7
			c1,9.9,2.2,19.8,2.6,29.7c0.5,12.1,0.4,24.1-0.4,36.1c-0.5,7.9-1.4,15.8-2.4,23.6c-1.5,11.6-7.4,16.8-19.2,17
			c-9.2,0.2-18.4-0.8-27.6-0.8c-8.4,0-16.8-0.3-25.2,0.1c-2.5,0-5,0-7.5,0c-15,0.2-29.9,0.4-44.9,0.6c-8.7-0.1-17.4-0.1-26.1-0.3
			c-7.4-0.1-14.8-0.1-22.2-0.8c-7-0.7-11.6-4.4-13.8-11.2c-0.8-2.4-1.2-4.8-1.4-7.3c-0.7-8.3-1.1-16.7-1.3-25
			c-0.4-15.7-0.6-31.4-0.9-47.1C38.8,96.3,39.2,90.6,39.6,84.8z M46.4,168.5c-0.1,2.4,0.1,4.8,0.5,7.2c1.3,7.6,4.2,10.5,11.8,11.6
			c0.9,0.1,1.8,0.2,2.8,0.2c8.7,0.1,17.4,0.2,26.1,0.4c4.3,0.1,8.6,0.3,13,0c0.4,0,0.9,0.1,1.3,0.1c10.3-0.2,20.5-0.4,30.8-0.5
			c9.8-0.1,19.7-0.7,29.5-0.4c1.1,0,1.8,0.1,1.6-1.5c-0.3-4.1-0.4-8.1-0.4-12.2c-0.1-12.6,0.6-25.2,1.2-37.8
			c1.1-21.4,2.2-42.8,3.4-64.2c0.1-1.2-0.3-1.5-1.5-1.5c-2.8,0.1-5.7,0-8.5,0c-24.3,0-48.6-0.1-72.9-0.1c-3.6,0-7.3,0-10.9-0.3
			c-5.1-0.5-10.2-1.1-15.3-0.5c-7,0.8-10.9,4.1-12.4,11c-0.3,1.5-0.6,3-0.6,4.6c-0.6,10.2-0.7,20.4-0.7,30.6
			c0,6.7,0.2,13.5,0.2,20.2C45.3,146.4,45.7,157.4,46.4,168.5z M170.5,129.8c-0.3,6.5-0.7,14.4-1.1,22.3c-0.5,11.1-0.6,22.2,0,33.4
			c0.1,1.2,0.4,1.6,1.7,1.6c8.4,0,16.8,0.2,25.2,0.3c5.2,0.1,10.4,0.9,15.7,0.4c5.4-0.5,8.8-3.2,10.4-8.3c0.4-1.4,0.8-2.7,1-4.1
			c2-13.2,2.9-26.4,3-39.7c0.2-16.6-0.9-33.1-3.1-49.5c-0.5-3.8-0.6-7.8-2.1-11.4c-1.4-3.4-3.2-4.7-6.9-4.7c-13.1,0-26.1,0-39.2,0
			c-1.1,0-1.5,0.2-1.6,1.5C172.6,90.4,171.5,109.4,170.5,129.8z"/>
		<path class="st9" d="M9.9,116.5c-0.6,3.2-1.1,6.3-1.7,9.5c-0.4,2.3-0.8,4.6-0.9,6.9c-0.1,3.1-0.5,6.2-0.4,9.3
			c0.5,16.3,5.4,31,15.8,43.8c7.2,8.8,15.9,15.6,26.1,20.7c0.6,0.3,1.4,0.4,1.6,1.1c-3.4-0.3-6.5-1.6-9.7-2.8
			c-8.5-3.2-16.1-8-22.4-14.5c-8-8.4-13-18.4-15-29.8c-0.8-4.4-1.2-8.9-1-13.4c0.6-10.4,2.8-20.5,6.8-30.1
			C9.5,116.9,9.7,116.7,9.9,116.5z"/>
		<path class="st10" d="M39.6,84.8c-0.4,5.7-0.8,11.5-0.7,17.2c0.2,15.7,0.5,31.4,0.9,47.1c0.2,8.3,0.6,16.7,1.3,25
			c0.2,2.5,0.7,4.9,1.4,7.3c2.2,6.7,6.8,10.5,13.8,11.2c7.4,0.7,14.8,0.7,22.2,0.8c8.7,0.1,17.4,0.2,26.1,0.3
			c-3.2,1.9-6.8,2.7-10.4,3.7c-6.9,1.8-13.9,2.1-21,1.5c-11.8-1-22.6-4.9-32.1-12.2c-10.4-8.1-16.9-18.5-19-31.6
			c-1.1-6.7-1-13.3-0.2-20.1c1.1-9.5,3.3-18.7,6.2-27.7c2.3-7.4,5.3-14.5,9.9-20.8C38.5,85.8,39,85.2,39.6,84.8z"/>
		<path class="st11" d="M46.4,168.5c-0.7-11-1.1-22.1-1.3-33.2c-0.1-6.7-0.3-13.5-0.2-20.2c0-10.2,0.2-20.4,0.7-30.6
			c0.1-1.5,0.3-3.1,0.6-4.6c1.5-6.8,5.4-10.2,12.4-11c5.2-0.6,10.2,0,15.3,0.5c3.6,0.3,7.3,0.3,10.9,0.3c24.3,0.1,48.6,0.1,72.9,0.1
			c2.8,0,5.7,0,8.5,0c1.1,0,1.5,0.3,1.5,1.5c-1.1,21.4-2.2,42.8-3.4,64.2c-0.7,12.6-1.3,25.2-1.2,37.8c0,4.1,0.1,8.2,0.4,12.2
			c0.1,1.6-0.5,1.6-1.6,1.5c-9.8-0.3-19.7,0.3-29.5,0.4c-10.3,0.1-20.5,0.3-30.8,0.5c-0.4,0-0.9,0-1.3-0.1c-0.2,0-0.5-0.1-0.7-0.1
			c-8.3-0.2-16.5-0.5-24.8-0.7c-3-0.1-6-0.2-9-0.8c-4.9-0.9-9.5-2.5-13.2-6.1C49.5,176.8,47.7,172.8,46.4,168.5z M97.8,102.9
			c-1.9,0.8-3.1,1.6-3.3,3.3c-1.7,14.2-2.4,28.4-1.6,42.7c0.2,2.7,1.6,3.8,4.2,3.1c15-4,26.7-12.5,34.9-25.7c1.2-2,0.9-3.4-1.1-4.7
			c-2.7-1.7-5.4-3.4-8.1-5.2c-8.2-5.6-15.8-11.9-22.9-18.8c-1.3-1.3-2.9-1.2-4.1,0.1c-1.2,1.2-1.1,2.6,0.1,3.9
			C96.5,102,97.1,102.3,97.8,102.9z"/>
		<path class="st11" d="M170.5,129.8c1.1-20.4,2.1-39.4,3.1-58.4c0.1-1.3,0.5-1.5,1.6-1.5c13.1,0,26.1,0,39.2,0
			c3.7,0,5.5,1.3,6.9,4.7c1.5,3.7,1.5,7.6,2.1,11.4c2.3,16.4,3.4,32.9,3.1,49.5c-0.2,13.3-1.1,26.5-3,39.7c-0.2,1.4-0.6,2.8-1,4.1
			c-1.6,5.1-5,7.8-10.4,8.3c-5.3,0.5-10.5-0.3-15.7-0.4c-8.4-0.2-16.8-0.3-25.2-0.3c-1.3,0-1.7-0.4-1.7-1.6
			c-0.5-11.1-0.4-22.2,0-33.4C169.7,144.2,170.1,136.3,170.5,129.8z M193.5,83.7c-5.7,0-11.4,2.9-14.5,7.4c-0.8,1.2-1,2.3,0,3.4
			c0.6,0.6,0.4,1.1,0.3,1.8c-2.1,9.2,4.8,18.1,14.2,18.3c8.5,0.2,15.1-6.7,15.3-15.9C209,90.2,202.3,83.8,193.5,83.7z M197.9,151.4
			c2.3-0.1,5.5,0.1,8.7,0.3c2.2,0.1,3.3-0.7,3.4-2.5c0.1-1.9-0.9-3-3-3.1c-8.5-0.7-16.9-0.3-25.3,0.5c-2,0.2-3.3,1.6-3.1,3.4
			c0.1,1.7,1.2,2.4,3.5,2.2C187,151.8,192,151.4,197.9,151.4z M182.8,130.2c0.1,0-0.3,0-0.6,0c-2.1,0.2-3.2,1.3-3.2,3.1
			c0,1.6,1,2.5,3.1,2.7c1.7,0.1,3.3,0.1,4.8,1c0.6,0.3,1.3,0.3,1.8,0c1.7-1.2,3.6-1,5.5-1.1c3.6-0.3,7.1-0.7,10.6-1.4
			c2-0.4,2.8-1.4,2.5-3.1c-0.3-1.7-1.8-2.7-3.6-2.4C197,130.1,190.2,130.8,182.8,130.2z"/>
		<path class="st9" d="M46.4,168.5c1.3,4.3,3.1,8.4,6.5,11.6c3.7,3.6,8.3,5.2,13.2,6.1c3,0.6,6,0.7,9,0.8c8.3,0.2,16.5,0.4,24.8,0.7
			c0.2,0,0.5,0.1,0.7,0.1c-4.3,0.3-8.6,0.1-13,0c-8.7-0.2-17.4-0.3-26.1-0.4c-0.9,0-1.9,0-2.8-0.2c-7.5-1.1-10.5-4-11.8-11.6
			C46.5,173.3,46.3,170.9,46.4,168.5z"/>
		<path class="st8" d="M97.8,102.9c-0.7-0.5-1.3-0.8-1.7-1.3c-1.3-1.3-1.3-2.7-0.1-3.9c1.2-1.3,2.8-1.3,4.1-0.1
			c7.1,6.9,14.7,13.3,22.9,18.8c2.7,1.8,5.4,3.5,8.1,5.2c2,1.3,2.3,2.7,1.1,4.7c-8.2,13.2-19.9,21.7-34.9,25.7
			c-2.6,0.7-4-0.4-4.2-3.1c-0.8-14.3-0.1-28.5,1.6-42.7C94.8,104.4,95.9,103.6,97.8,102.9z M103.5,143.6L103.5,143.6
			c1,0.1,1.8-0.5,2.6-1.1c0.6-0.3,1.3-0.5,1.8-0.8c6.7-3.7,12.3-8.5,16.7-14.8c1.1-1.5,0.7-2-0.6-2.8c-2.3-1.4-4.5-2.9-6.6-4.4
			c-4.3-3.1-8.6-6.3-12.6-9.7c-1.5-1.3-2.8-2.8-4.7-3.9c-0.6,5.1-1.1,10-1.4,14.8c-0.5,7.8-0.7,15.7-0.5,23.5c0,1,0.2,1.4,1.3,1
			c1.1-0.5,2.3-0.9,3.4-1.4C103.3,143.9,103.6,144,103.5,143.6z"/>
		<path class="st8" d="M193.5,83.7c8.8,0,15.5,6.5,15.3,14.9c-0.2,9.2-6.9,16.1-15.3,15.9c-9.4-0.2-16.3-9-14.2-18.3
			c0.2-0.7,0.3-1.2-0.3-1.8c-1-1-0.8-2.2,0-3.4C182.1,86.7,187.8,83.7,193.5,83.7z M196.3,108.3L196.3,108.3
			c2.7-0.5,5.2-2.9,5.4-5.2c1.6-1.5,1.2-3.5,1.1-5.4c-0.2-3.9-4.7-8.2-8.6-7.8c-3.5,0.3-6.3,2.1-8.2,5.1c-2.1,3.2-1.9,7,0.4,10.1
			c2.2,2.9,6,4.4,9.1,3.5C195.8,108.6,196.2,108.8,196.3,108.3z"/>
		<path class="st8" d="M197.9,151.4c-5.9,0-10.9,0.4-15.9,0.8c-2.3,0.2-3.4-0.5-3.5-2.2c-0.1-1.8,1.1-3.2,3.1-3.4
			c8.4-0.8,16.9-1.2,25.3-0.5c2.1,0.2,3.1,1.3,3,3.1c-0.1,1.8-1.1,2.6-3.4,2.5C203.4,151.5,200.2,151.3,197.9,151.4z"/>
		<path class="st8" d="M182.8,130.2c7.4,0.6,14.2-0.1,20.9-1.4c1.8-0.3,3.3,0.7,3.6,2.4c0.3,1.7-0.4,2.7-2.5,3.1
			c-3.5,0.7-7.1,1.1-10.6,1.4c-1.9,0.2-3.8-0.1-5.5,1.1c-0.5,0.4-1.2,0.4-1.8,0c-1.5-0.8-3.2-0.9-4.8-1c-2.1-0.1-3.1-1-3.1-2.7
			c0-1.8,1.1-2.9,3.2-3.1C182.6,130.2,183,130.2,182.8,130.2z"/>
		<path class="st4" d="M103.1,143.9c-1.1,0.5-2.3,0.9-3.4,1.4c-1,0.4-1.2-0.1-1.3-1c-0.2-7.8,0-15.7,0.5-23.5
			c0.3-4.9,0.8-9.7,1.4-14.8c1.8,1.1,3.2,2.6,4.7,3.9c4,3.5,8.3,6.6,12.6,9.7c2.1,1.6,4.4,3,6.6,4.4c1.3,0.8,1.6,1.3,0.6,2.8
			c-4.4,6.3-10.1,11.1-16.7,14.8c-0.6,0.3-1.2,0.5-1.8,0.8c-1.5-1.1-2.2-0.3-2.7,1.1c0,0,0,0,0,0
			C103.4,143.7,103.2,143.8,103.1,143.9z"/>
		<path class="st11" d="M103.5,143.6c0.4-1.4,1.2-2.2,2.7-1.1C105.4,143.1,104.5,143.7,103.5,143.6z"/>
		<path class="st11" d="M103.1,143.9c0.1-0.1,0.3-0.2,0.4-0.4C103.6,144,103.3,143.9,103.1,143.9z"/>
		<path class="st5" d="M195.5,108.6c-3.1,0.8-6.9-0.6-9.1-3.5c-2.3-3-2.4-6.8-0.4-10.1c1.9-3,4.7-4.8,8.2-5.1
			c3.8-0.3,8.3,3.9,8.6,7.8c0.1,1.9,0.5,3.9-1.1,5.4c-1.8,1.7-3.9,3.3-5.5,5.3c0,0,0,0,0,0C196,108.4,195.8,108.5,195.5,108.6z"/>
		<path class="st11" d="M196.3,108.3c1.6-2,3.6-3.5,5.5-5.3C201.5,105.4,199,107.8,196.3,108.3z"/>
		<path class="st11" d="M195.5,108.6c0.3-0.1,0.5-0.2,0.8-0.2C196.2,108.8,195.8,108.6,195.5,108.6z"/>
	</g>
	<g>
		<path class="st6" d="M36.9,197.3c-6.7-6.3-13-12.9-18-20.7C4.2,154,1.5,130.2,15,105.8c5.2-9.6,11.6-18.3,19.5-25.5
			c-1-0.9-2-1.6-3.2-2.1c0,0,0,0,0,0c-4.6,4.6-8.8,9.7-12.8,14.9C6.9,108.1,1.2,124.9,2.8,143.8c1.6,19.4,11,35,23.9,48.8
			c2.5,2.5,4.9,5.1,7.6,7.5c1.1,1,2.3,3.2,4.2,1.3C40.4,199.3,37.9,198.3,36.9,197.3z"/>
	</g>
</g>
</svg>
