<?xml version="1.0" encoding="UTF-8" standalone="no"?>
<!-- Created with Inkscape (http://www.inkscape.org/) -->

<svg
   xmlns:dc="http://purl.org/dc/elements/1.1/"
   xmlns:cc="http://creativecommons.org/ns#"
   xmlns:rdf="http://www.w3.org/1999/02/22-rdf-syntax-ns#"
   xmlns:svg="http://www.w3.org/2000/svg"
   xmlns="http://www.w3.org/2000/svg"
   xmlns:sodipodi="http://sodipodi.sourceforge.net/DTD/sodipodi-0.dtd"
   xmlns:inkscape="http://www.inkscape.org/namespaces/inkscape"
   width="150"
   height="139.12833"
   viewBox="0 0 39.6875 36.811038"
   version="1.1"
   id="svg8765"
   inkscape:version="0.92.1 r15371"
   sodipodi:docname="videos.svg">
  <defs
     id="defs8759" />
  <sodipodi:namedview
     id="base"
     pagecolor="#ffffff"
     bordercolor="#666666"
     borderopacity="1.0"
     inkscape:pageopacity="0.0"
     inkscape:pageshadow="2"
     inkscape:zoom="5.6"
     inkscape:cx="131.50227"
     inkscape:cy="74.337427"
     inkscape:document-units="px"
     inkscape:current-layer="g1154"
     showgrid="false"
     units="px"
     fit-margin-top="10"
     fit-margin-left="10"
     fit-margin-right="10"
     fit-margin-bottom="10"
     inkscape:window-width="1920"
     inkscape:window-height="1021"
     inkscape:window-x="0"
     inkscape:window-y="0"
     inkscape:window-maximized="1" />
  <metadata
     id="metadata8762">
    <rdf:RDF>
      <cc:Work
         rdf:about="">
        <dc:format>image/svg+xml</dc:format>
        <dc:type
           rdf:resource="https://purl.org/dc/dcmitype/StillImage" />
        <dc:title />
      </cc:Work>
    </rdf:RDF>
  </metadata>
  <g
     inkscape:label="Capa 1"
     inkscape:groupmode="layer"
     id="layer1"
     transform="translate(60.991427,-120.68217)">
    <g
       transform="matrix(0.40315257,0,0,0.40315257,-228.10548,-289.52554)"
       id="g1154"
       style="stroke-width:0.65628588">
      <g
         id="g1128"
         style="stroke-width:0.65628588" />
      <circle
         id="circle1090"
         r="27.864065"
         cy="1074.381"
         cx="448.94507"
         style="fill:#e7e7e8;stroke-width:0.65628588" />
      <path
         style="stroke-width:0.65628588"
         id="path1094"
         d="m 470.39605,1046.5582 c -0.35772,0 -0.69824,-0.1479 -0.94245,-0.4093 l -18.58923,-19.9152 c -0.4867,-0.5211 -0.45746,-1.3362 0.0636,-1.8247 0.5211,-0.485 1.338,-0.4574 1.82298,0.064 l 17.64507,18.9039 17.20307,-18.4602 c 0.48326,-0.5211 1.30016,-0.5504 1.82298,-0.064 0.5211,0.485 0.54861,1.3019 0.0636,1.823 l -18.14552,19.4732 c -0.24249,0.2597 -0.58645,0.4093 -0.94416,0.4093 z"
         inkscape:connector-curvature="0" />
      <path
         style="fill:#ffffff;stroke-width:0.65628588"
         inkscape:connector-curvature="0"
         d="m 498.22915,1088.841 h -56.10648 c -3.78354,0 -6.87917,-3.0956 -6.87917,-6.8791 v -34.1465 c 0,-3.7835 3.09563,-6.8792 6.87917,-6.8792 h 56.10648 c 3.78355,0 6.87917,3.0957 6.87917,6.8792 v 34.1465 c 0,3.7835 -3.09562,6.8791 -6.87917,6.8791 z"
         id="path1096" />
      <path
         inkscape:connector-curvature="0"
         d="m 498.22915,1090.1309 h -56.10648 c -4.50413,0 -8.16901,-3.6649 -8.16901,-8.169 v -34.1465 c 0,-4.5041 3.66488,-8.169 8.16901,-8.169 h 56.10648 c 4.50414,0 8.16902,3.6649 8.16902,8.169 v 34.1465 c 0,4.5041 -3.66488,8.169 -8.16902,8.169 z m -56.10648,-47.9048 c -3.08187,0 -5.58932,2.5074 -5.58932,5.5893 v 34.1465 c 0,3.0835 2.50745,5.5893 5.58932,5.5893 h 56.10648 c 3.08187,0 5.58933,-2.5058 5.58933,-5.5893 v -34.1465 c 0,-3.0819 -2.50746,-5.5893 -5.58933,-5.5893 z"
         id="path1098"
         style="stroke-width:0.65628588" />
      <line
         style="fill:#ffffff;stroke-width:0.65628588"
         x1="483.6694"
         y1="1041.729"
         x2="483.6694"
         y2="1088.6398"
         id="line1102" />
      <path
         inkscape:connector-curvature="0"
         d="m 483.6694,1089.9297 c -0.712,0 -1.28985,-0.5779 -1.28985,-1.2899 v -46.9107 c 0,-0.712 0.57785,-1.2899 1.28985,-1.2899 0.71371,0 1.28984,0.5779 1.28984,1.2899 v 46.9107 c 0,0.712 -0.57613,1.2899 -1.28984,1.2899 z"
         id="path1104"
         style="stroke-width:0.65628588" />
      <circle
         style="fill:#ffffff;stroke-width:0.65628588"
         cx="494.29083"
         cy="1053.6782"
         r="5.7527032"
         id="circle1108" />
      <line
         style="fill:#ffffff;stroke-width:0.65628588"
         x1="488.53812"
         y1="1068.2826"
         x2="499.15955"
         y2="1068.2826"
         id="line1114" />
      <path
         inkscape:connector-curvature="0"
         d="m 499.15956,1069.5725 h -10.62143 c -0.71372,0 -1.28985,-0.5779 -1.28985,-1.2899 0,-0.7137 0.57613,-1.2898 1.28985,-1.2898 h 10.62143 c 0.71372,0 1.28985,0.5761 1.28985,1.2898 0,0.712 -0.57613,1.2899 -1.28985,1.2899 z"
         id="path1116"
         style="stroke-width:0.65628588" />
      <line
         style="fill:#ffffff;stroke-width:0.65628588"
         x1="488.53812"
         y1="1074.0354"
         x2="499.15955"
         y2="1074.0354"
         id="line1120" />
      <path
         inkscape:connector-curvature="0"
         d="m 499.15956,1075.3252 h -10.62143 c -0.71372,0 -1.28985,-0.5779 -1.28985,-1.2899 0,-0.712 0.57613,-1.2898 1.28985,-1.2898 h 10.62143 c 0.71372,0 1.28985,0.5778 1.28985,1.2898 0,0.712 -0.57613,1.2899 -1.28985,1.2899 z"
         id="path1122"
         style="stroke-width:0.65628588" />
      <line
         style="fill:#ffffff;stroke-width:0.65628588"
         x1="443.08749"
         y1="1086.079"
         x2="448.44977"
         y2="1091.2933"
         id="line1130" />
      <path
         inkscape:connector-curvature="0"
         d="m 448.46526,1092.4869 c -0.3044,0 -0.61396,-0.1083 -0.84958,-0.3388 l -5.36059,-5.2126 c -0.4695,-0.4609 -0.47982,-1.2159 -0.0241,-1.6872 0.4609,-0.4729 1.21761,-0.4832 1.69055,-0.024 l 5.36059,5.2127 c 0.46951,0.4609 0.47983,1.2158 0.0241,1.6871 -0.23045,0.2373 -0.53657,0.3577 -0.84098,0.3628 z"
         id="path1132"
         style="stroke-width:0.65628588" />
      <line
         style="fill:#ffffff;stroke-width:0.65628588"
         x1="448.37756"
         y1="1086.005"
         x2="443.16144"
         y2="1091.3674"
         id="line1136" />
      <path
         inkscape:connector-curvature="0"
         d="m 443.17862,1092.5592 c -0.3044,0 -0.61396,-0.1067 -0.85129,-0.3371 -0.46951,-0.4609 -0.47983,-1.2159 -0.0224,-1.6871 l 5.21441,-5.3606 c 0.45918,-0.4712 1.21761,-0.4833 1.69055,-0.024 0.46951,0.4609 0.47982,1.2159 0.0241,1.6871 l -5.21441,5.3606 c -0.23045,0.2374 -0.53657,0.3577 -0.84098,0.3612 z"
         id="path1138"
         style="stroke-width:0.65628588" />
      <polygon
         id="polygon1144"
         points="447.607,1080.698 441.196,1084.908 441.196,1075.436 "
         style="fill:#ffffff;stroke-width:0.38160777"
         transform="matrix(1.7197917,0,0,1.7197917,-303.09059,-793.38676)" />
      <path
         style="fill:#82b945;stroke-width:0.65628588"
         inkscape:connector-curvature="0"
         d="m 499.17504,1056.4435 c 0.89429,-2.277 -0.007,-5.0458 -1.62864,-6.7587 -1.72495,-1.8179 -4.23585,-2.5625 -6.66935,-1.9572 -2.18414,0.5452 -3.70616,3.1163 -3.00276,5.2884 0.73091,2.2598 2.94944,3.5875 5.28836,3.0028 0.65868,-0.1651 -0.68104,0.045 -0.90289,0.017 -0.95277,-0.1411 0.34224,0.2218 -0.49702,-0.1479 -0.77047,-0.3371 -0.0998,0.038 0.031,0.067 -0.18057,-0.1376 -0.36287,-0.2734 -0.54345,-0.411 0.22013,0.2356 0.20122,0.1926 -0.055,-0.1255 -0.41791,-0.6054 -0.10663,-0.1445 -0.0361,0 0.21669,0.4351 -0.25969,-1.0302 -0.1651,-0.3595 -0.009,-0.069 -0.0619,-1.123 -0.0825,-0.54 0.0361,-1.111 0.15478,-0.8049 -0.0258,-0.3474 -0.38351,0.9751 -2.28388,2.0483 -1.77654,2.9151 0.5211,0.8925 3.7543,2.1394 4.7793,2.3733 2.4679,0.5641 4.40439,-0.755 5.28664,-3.0028 z"
         id="path1150" />
      <path
         style="fill:#e7829b;stroke-width:0.65628588"
         inkscape:connector-curvature="0"
         d="m 464.87723,1064.2978 c 0.0206,-1.0886 0.60365,0.4781 -0.0654,-0.38 -1.75075,-2.2512 -6.30475,-8.5766 -8.74514,-5.0528 -1.92617,2.7792 -1.30188,7.1303 -0.1135,10.2431 0.81002,2.1205 3.00963,-0.3887 5.56352,-1.1351 2.32688,-0.681 3.34156,0.3543 2.47306,-1.9227 -0.0946,-0.2476 -0.34052,-1.6751 -0.2786,-0.6965 -0.0241,-0.3801 -0.0155,-0.7533 0.007,-1.1334 -0.055,0.9287 0.098,-0.1444 0.15307,-0.3388 0.18401,-0.4695 0.18057,-0.4763 -0.007,-0.022 0.12726,-0.2253 0.26828,-0.4437 0.42307,-0.6535 -2.95633,-0.7241 -5.91265,-1.4464 -8.87069,-2.1704 -0.0206,1.0869 -0.0396,2.1755 -0.0602,3.2624 -0.0413,2.2495 2.21853,4.4027 4.76038,4.2995 2.6158,-0.1066 4.71739,-1.89 4.76038,-4.2995 z"
         id="path1152" />
      <path
         style="stroke-width:0.65628588"
         id="path1146"
         d="m 455.67463,1073.7189 c -0.20982,0 -0.42135,-0.05 -0.61225,-0.1548 -0.41791,-0.2253 -0.67759,-0.6621 -0.67759,-1.1351 v -16.2916 c 0,-0.4987 0.2872,-0.9527 0.73779,-1.166 0.4523,-0.2132 0.98544,-0.1462 1.37067,0.1703 l 11.02386,9.0512 c 0.31817,0.2597 0.49186,0.6553 0.46951,1.0646 -0.0224,0.4093 -0.23733,0.7842 -0.57957,1.0095 l -11.02559,7.2403 c -0.21325,0.141 -0.45918,0.2116 -0.70683,0.2116 z m 1.28984,-14.8522 v 11.1718 l 7.56193,-4.9668 z"
         inkscape:connector-curvature="0" />
      <path
         inkscape:connector-curvature="0"
         d="m 494.29255,1060.7207 c -3.88501,0 -7.04427,-3.1592 -7.04427,-7.0425 0,-3.885 3.15926,-7.0443 7.04427,-7.0443 3.88329,0 7.04255,3.1593 7.04255,7.0443 0,3.8833 -3.15926,7.0425 -7.04255,7.0425 z m 0,-11.5071 c -2.46274,0 -4.46458,2.0018 -4.46458,4.4646 0,2.461 2.00184,4.4628 4.46458,4.4628 2.46102,0 4.46286,-2.0018 4.46286,-4.4628 0,-2.4628 -2.00184,-4.4646 -4.46286,-4.4646 z"
         id="path1110"
         style="stroke-width:0.65628588" />
    </g>
  </g>
</svg>
