<?xml version="1.0" encoding="UTF-8" standalone="no"?>
<!-- Created with Inkscape (http://www.inkscape.org/) -->

<svg
   xmlns:dc="http://purl.org/dc/elements/1.1/"
   xmlns:cc="http://creativecommons.org/ns#"
   xmlns:rdf="http://www.w3.org/1999/02/22-rdf-syntax-ns#"
   xmlns:svg="http://www.w3.org/2000/svg"
   xmlns="http://www.w3.org/2000/svg"
   xmlns:sodipodi="http://sodipodi.sourceforge.net/DTD/sodipodi-0.dtd"
   xmlns:inkscape="http://www.inkscape.org/namespaces/inkscape"
   width="95.590553"
   height="89.269043"
   viewBox="0 0 25.291667 23.619102"
   version="1.1"
   id="svg8765"
   inkscape:version="0.92.1 r15371"
   sodipodi:docname="videos.svg">
  <defs
     id="defs8759" />
  <sodipodi:namedview
     id="base"
     pagecolor="#ffffff"
     bordercolor="#666666"
     borderopacity="1.0"
     inkscape:pageopacity="0.0"
     inkscape:pageshadow="2"
     inkscape:zoom="1.979899"
     inkscape:cx="34.804506"
     inkscape:cy="32.730184"
     inkscape:document-units="mm"
     inkscape:current-layer="layer1"
     showgrid="false"
     units="px"
     fit-margin-top="10"
     fit-margin-left="10"
     fit-margin-right="10"
     fit-margin-bottom="10"
     inkscape:window-width="1366"
     inkscape:window-height="709"
     inkscape:window-x="0"
     inkscape:window-y="0"
     inkscape:window-maximized="1" />
  <metadata
     id="metadata8762">
    <rdf:RDF>
      <cc:Work
         rdf:about="">
        <dc:format>image/svg+xml</dc:format>
        <dc:type
           rdf:resource="http://purl.org/dc/dcmitype/StillImage" />
        <dc:title></dc:title>
      </cc:Work>
    </rdf:RDF>
  </metadata>
  <g
     inkscape:label="Capa 1"
     inkscape:groupmode="layer"
     id="layer1"
     transform="translate(60.99143,-133.87408)">
    <g
       transform="matrix(0.40315257,0,0,0.40315257,-228.10548,-289.52554)"
       id="g1154"
       style="stroke-width:0.65628588">
      <g
         id="g1128"
         style="stroke-width:0.65628588">
        <g
           id="g1092"
           style="stroke-width:0.65628588">
          <circle
             style="fill:#8ed3f1;stroke-width:0.65628588"
             cx="437.28299"
             cy="1086.043"
             r="16.202"
             id="circle1090" />
        </g>
        <g
           id="g1126"
           style="stroke-width:0.65628588">
          <path
             inkscape:connector-curvature="0"
             d="m 449.756,1069.865 c -0.208,0 -0.406,-0.086 -0.548,-0.238 l -10.809,-11.58 c -0.283,-0.303 -0.266,-0.777 0.037,-1.061 0.303,-0.282 0.778,-0.266 1.06,0.037 l 10.26,10.992 10.003,-10.734 c 0.281,-0.303 0.756,-0.32 1.06,-0.037 0.303,0.282 0.319,0.757 0.037,1.06 l -10.551,11.323 c -0.141,0.151 -0.341,0.238 -0.549,0.238 z"
             id="path1094"
             style="stroke-width:0.65628588" />
          <g
             id="g1100"
             style="stroke-width:0.65628588">
            <path
               style="fill:#ffffff;stroke-width:0.65628588"
               inkscape:connector-curvature="0"
               d="m 465.94,1094.451 h -32.624 c -2.2,0 -4,-1.8 -4,-4 v -19.855 c 0,-2.2 1.8,-4 4,-4 h 32.624 c 2.2,0 4,1.8 4,4 v 19.855 c 0,2.2 -1.8,4 -4,4 z"
               id="path1096" />
            <path
               inkscape:connector-curvature="0"
               d="m 465.94,1095.201 h -32.624 c -2.619,0 -4.75,-2.131 -4.75,-4.75 v -19.855 c 0,-2.619 2.131,-4.75 4.75,-4.75 h 32.624 c 2.619,0 4.75,2.131 4.75,4.75 v 19.855 c 0,2.619 -2.131,4.75 -4.75,4.75 z m -32.624,-27.855 c -1.792,0 -3.25,1.458 -3.25,3.25 v 19.855 c 0,1.793 1.458,3.25 3.25,3.25 h 32.624 c 1.792,0 3.25,-1.457 3.25,-3.25 v -19.855 c 0,-1.792 -1.458,-3.25 -3.25,-3.25 z"
               id="path1098"
               style="stroke-width:0.65628588" />
          </g>
          <g
             id="g1106"
             style="stroke-width:0.65628588">
            <line
               style="fill:#ffffff;stroke-width:0.65628588"
               x1="457.474"
               y1="1067.057"
               x2="457.474"
               y2="1094.334"
               id="line1102" />
            <path
               inkscape:connector-curvature="0"
               d="m 457.474,1095.084 c -0.414,0 -0.75,-0.336 -0.75,-0.75 v -27.277 c 0,-0.414 0.336,-0.75 0.75,-0.75 0.415,0 0.75,0.336 0.75,0.75 v 27.277 c 0,0.414 -0.335,0.75 -0.75,0.75 z"
               id="path1104"
               style="stroke-width:0.65628588" />
          </g>
          <g
             id="g1112"
             style="stroke-width:0.65628588">
            <circle
               style="fill:#ffffff;stroke-width:0.65628588"
               cx="463.64999"
               cy="1074.005"
               r="3.345"
               id="circle1108" />
            <path
               inkscape:connector-curvature="0"
               d="m 463.651,1078.1 c -2.259,0 -4.096,-1.837 -4.096,-4.095 0,-2.259 1.837,-4.096 4.096,-4.096 2.258,0 4.095,1.837 4.095,4.096 0,2.258 -1.837,4.095 -4.095,4.095 z m 0,-6.691 c -1.432,0 -2.596,1.164 -2.596,2.596 0,1.431 1.164,2.595 2.596,2.595 1.431,0 2.595,-1.164 2.595,-2.595 0,-1.432 -1.164,-2.596 -2.595,-2.596 z"
               id="path1110"
               style="stroke-width:0.65628588" />
          </g>
          <g
             id="g1118"
             style="stroke-width:0.65628588">
            <line
               style="fill:#ffffff;stroke-width:0.65628588"
               x1="460.30499"
               y1="1082.4969"
               x2="466.48099"
               y2="1082.4969"
               id="line1114" />
            <path
               inkscape:connector-curvature="0"
               d="m 466.481,1083.247 h -6.176 c -0.415,0 -0.75,-0.336 -0.75,-0.75 0,-0.415 0.335,-0.75 0.75,-0.75 h 6.176 c 0.415,0 0.75,0.335 0.75,0.75 0,0.414 -0.335,0.75 -0.75,0.75 z"
               id="path1116"
               style="stroke-width:0.65628588" />
          </g>
          <g
             id="g1124"
             style="stroke-width:0.65628588">
            <line
               style="fill:#ffffff;stroke-width:0.65628588"
               x1="460.30499"
               y1="1085.842"
               x2="466.48099"
               y2="1085.842"
               id="line1120" />
            <path
               inkscape:connector-curvature="0"
               d="m 466.481,1086.592 h -6.176 c -0.415,0 -0.75,-0.336 -0.75,-0.75 0,-0.414 0.335,-0.75 0.75,-0.75 h 6.176 c 0.415,0 0.75,0.336 0.75,0.75 0,0.414 -0.335,0.75 -0.75,0.75 z"
               id="path1122"
               style="stroke-width:0.65628588" />
          </g>
        </g>
      </g>
      <g
         id="g1142"
         style="stroke-width:0.65628588">
        <g
           id="g1134"
           style="stroke-width:0.65628588">
          <line
             style="fill:#ffffff;stroke-width:0.65628588"
             x1="433.87701"
             y1="1092.845"
             x2="436.995"
             y2="1095.877"
             id="line1130" />
          <path
             inkscape:connector-curvature="0"
             d="m 437.004,1096.571 c -0.177,0 -0.357,-0.063 -0.494,-0.197 l -3.117,-3.031 c -0.273,-0.268 -0.279,-0.707 -0.014,-0.981 0.268,-0.275 0.708,-0.281 0.983,-0.014 l 3.117,3.031 c 0.273,0.268 0.279,0.707 0.014,0.981 -0.134,0.138 -0.312,0.208 -0.489,0.211 z"
             id="path1132"
             style="stroke-width:0.65628588" />
        </g>
        <g
           id="g1140"
           style="stroke-width:0.65628588">
          <line
             style="fill:#ffffff;stroke-width:0.65628588"
             x1="436.953"
             y1="1092.802"
             x2="433.92001"
             y2="1095.92"
             id="line1136" />
          <path
             inkscape:connector-curvature="0"
             d="m 433.93,1096.613 c -0.177,0 -0.357,-0.062 -0.495,-0.196 -0.273,-0.268 -0.279,-0.707 -0.013,-0.981 l 3.032,-3.117 c 0.267,-0.274 0.708,-0.281 0.983,-0.014 0.273,0.268 0.279,0.707 0.014,0.981 l -3.032,3.117 c -0.134,0.138 -0.312,0.208 -0.489,0.21 z"
             id="path1138"
             style="stroke-width:0.65628588" />
        </g>
      </g>
      <g
         id="g1148"
         style="stroke-width:0.65628588">
        <polygon
           style="fill:#ffffff;stroke-width:0.65628588"
           points="447.607,1080.698 441.196,1084.908 441.196,1075.436 "
           id="polygon1144" />
        <path
           inkscape:connector-curvature="0"
           d="m 441.196,1085.658 c -0.122,0 -0.245,-0.029 -0.356,-0.09 -0.243,-0.131 -0.394,-0.385 -0.394,-0.66 v -9.473 c 0,-0.29 0.167,-0.554 0.429,-0.678 0.263,-0.124 0.573,-0.085 0.797,0.099 l 6.41,5.263 c 0.185,0.151 0.286,0.381 0.273,0.619 -0.013,0.238 -0.138,0.456 -0.337,0.587 l -6.411,4.21 c -0.124,0.082 -0.267,0.123 -0.411,0.123 z m 0.75,-8.636 v 6.496 l 4.397,-2.888 z"
           id="path1146"
           style="stroke-width:0.65628588" />
      </g>
      <path
         style="fill:#82b945;stroke-width:0.65628588"
         inkscape:connector-curvature="0"
         d="m 466.49,1075.613 c 0.52,-1.324 -0.004,-2.934 -0.947,-3.93 -1.003,-1.057 -2.463,-1.49 -3.878,-1.138 -1.27,0.317 -2.155,1.812 -1.746,3.075 0.425,1.314 1.715,2.086 3.075,1.746 0.383,-0.096 -0.396,0.026 -0.525,0.01 -0.554,-0.082 0.199,0.129 -0.289,-0.086 -0.448,-0.196 -0.058,0.022 0.018,0.039 -0.105,-0.08 -0.211,-0.159 -0.316,-0.239 0.128,0.137 0.117,0.112 -0.032,-0.073 -0.243,-0.352 -0.062,-0.084 -0.021,0 0.126,0.253 -0.151,-0.599 -0.096,-0.209 -0.005,-0.04 -0.036,-0.653 -0.048,-0.314 0.021,-0.646 0.09,-0.468 -0.015,-0.202 -0.223,0.567 -1.328,1.191 -1.033,1.695 0.303,0.519 2.183,1.244 2.779,1.38 1.435,0.328 2.561,-0.439 3.074,-1.746 z"
         id="path1150" />
      <path
         style="fill:#e7829b;stroke-width:0.65628588"
         inkscape:connector-curvature="0"
         d="m 446.547,1080.18 c 0.012,-0.633 0.351,0.278 -0.038,-0.221 -1.018,-1.309 -3.666,-4.987 -5.085,-2.938 -1.12,1.616 -0.757,4.146 -0.066,5.956 0.471,1.233 1.75,-0.226 3.235,-0.66 1.353,-0.396 1.943,0.206 1.438,-1.118 -0.055,-0.144 -0.198,-0.974 -0.162,-0.405 -0.014,-0.221 -0.009,-0.438 0.004,-0.659 -0.032,0.54 0.057,-0.084 0.089,-0.197 0.107,-0.273 0.105,-0.277 -0.004,-0.013 0.074,-0.131 0.156,-0.258 0.246,-0.38 -1.719,-0.421 -3.438,-0.841 -5.158,-1.262 -0.012,0.632 -0.023,1.265 -0.035,1.897 -0.024,1.308 1.29,2.56 2.768,2.5 1.521,-0.062 2.743,-1.099 2.768,-2.5 z"
         id="path1152" />
    </g>
  </g>
</svg>
