<svg width="40" height="40" viewBox="0 0 40 40" fill="none" xmlns="http://www.w3.org/2000/svg">
<path fill-rule="evenodd" clip-rule="evenodd" d="M15 14.375C15 13.6846 15.5596 13.125 16.25 13.125H23.75C24.4404 13.125 25 13.6846 25 14.375C25 15.0654 24.4404 15.625 23.75 15.625H16.25C15.5596 15.625 15 15.0654 15 14.375Z" fill="#333333"/>
<path fill-rule="evenodd" clip-rule="evenodd" d="M22.8709 7.70518C23.8099 6.77614 25.0775 6.25504 26.3984 6.25504C27.7194 6.25504 28.987 6.77614 29.926 7.70518C30.0378 7.81575 30.1277 7.94639 30.191 8.09028L37.0191 23.6059C37.2972 24.2378 37.0104 24.9754 36.3785 25.2535C35.7466 25.5316 35.009 25.2448 34.7309 24.6129L28.0087 9.33789C27.5584 8.96272 26.989 8.75504 26.3984 8.75504C25.897 8.75504 25.4109 8.90474 25 9.17954V26.25C25 26.9404 24.4404 27.5 23.75 27.5C23.0596 27.5 22.5 26.9404 22.5 26.25V8.59378C22.5 8.25994 22.6335 7.93998 22.8709 7.70518Z" fill="#333333"/>
<path fill-rule="evenodd" clip-rule="evenodd" d="M10.074 7.70518C11.0131 6.77614 12.2807 6.25504 13.6016 6.25504C14.9226 6.25504 16.1902 6.77614 17.1292 7.70518C17.3665 7.93998 17.5001 8.25994 17.5001 8.59378V26.25C17.5001 26.9404 16.9404 27.5 16.2501 27.5C15.5597 27.5 15.0001 26.9404 15.0001 26.25V9.17954C14.5891 8.90474 14.103 8.75504 13.6016 8.75504C13.011 8.75504 12.4417 8.96272 11.9914 9.33789L5.26918 24.6129C4.9911 25.2448 4.25344 25.5316 3.62157 25.2535C2.9897 24.9754 2.70288 24.2378 2.98096 23.6059L9.80908 8.09028C9.87241 7.94639 9.9623 7.81575 10.074 7.70518Z" fill="#333333"/>
<path fill-rule="evenodd" clip-rule="evenodd" d="M10 21.25C7.23858 21.25 5 23.4886 5 26.25C5 29.0114 7.23858 31.25 10 31.25C12.7614 31.25 15 29.0114 15 26.25C15 23.4886 12.7614 21.25 10 21.25ZM2.5 26.25C2.5 22.1079 5.85786 18.75 10 18.75C14.1421 18.75 17.5 22.1079 17.5 26.25C17.5 30.3921 14.1421 33.75 10 33.75C5.85786 33.75 2.5 30.3921 2.5 26.25Z" fill="#333333"/>
<path fill-rule="evenodd" clip-rule="evenodd" d="M30 21.25C27.2386 21.25 25 23.4886 25 26.25C25 29.0114 27.2386 31.25 30 31.25C32.7614 31.25 35 29.0114 35 26.25C35 23.4886 32.7614 21.25 30 21.25ZM22.5 26.25C22.5 22.1079 25.8579 18.75 30 18.75C34.1421 18.75 37.5 22.1079 37.5 26.25C37.5 30.3921 34.1421 33.75 30 33.75C25.8579 33.75 22.5 30.3921 22.5 26.25Z" fill="#333333"/>
</svg>
