<svg width="64" height="64" viewBox="0 0 64 64" fill="none" xmlns="http://www.w3.org/2000/svg">
<path d="M58.6666 13.7333V23.6C58.6666 29.6 56.2666 32 50.2666 32H43.0666C37.0666 32 34.6666 29.6 34.6666 23.6V13.7333C34.6666 7.73331 37.0666 5.33331 43.0666 5.33331H50.2666C56.2666 5.33331 58.6666 7.73331 58.6666 13.7333Z" stroke="black" stroke-width="3" stroke-linecap="round" stroke-linejoin="round"/>
<path d="M29.3334 40.4V50.2667C29.3334 56.2667 26.9334 58.6667 20.9334 58.6667H13.7334C7.73337 58.6667 5.33337 56.2667 5.33337 50.2667V40.4C5.33337 34.4 7.73337 32 13.7334 32H20.9334C26.9334 32 29.3334 34.4 29.3334 40.4Z" stroke="black" stroke-width="3" stroke-linecap="round" stroke-linejoin="round"/>
<path d="M58.6667 40C58.6667 50.32 50.32 58.6667 40 58.6667L42.8 54" stroke="black" stroke-width="3" stroke-linecap="round" stroke-linejoin="round"/>
<path d="M5.33337 24C5.33337 13.68 13.68 5.33331 24 5.33331L21.2 9.99998" stroke="black" stroke-width="3" stroke-linecap="round" stroke-linejoin="round"/>
</svg>
