<svg width="180" height="180" viewBox="0 0 180 180" fill="none" xmlns="http://www.w3.org/2000/svg">
<path d="M82.5 121.125V141.375C82.5 158.25 75.75 165 58.875 165H38.625C21.75 165 15 158.25 15 141.375V121.125C15 104.25 21.75 97.5 38.625 97.5H58.875C75.75 97.5 82.5 104.25 82.5 121.125Z" stroke="#292D32" stroke-width="10" stroke-linecap="round" stroke-linejoin="round"/>
<path d="M165 112.5C165 141.525 141.525 165 112.5 165L120.375 151.875" stroke="#292D32" stroke-width="10" stroke-linecap="round" stroke-linejoin="round"/>
<path d="M15 67.5C15 38.475 38.475 15 67.5 15L59.625 28.125" stroke="#292D32" stroke-width="10" stroke-linecap="round" stroke-linejoin="round"/>
<path d="M131.25 82.5C149.89 82.5 165 67.3896 165 48.75C165 30.1104 149.89 15 131.25 15C112.61 15 97.5 30.1104 97.5 48.75C97.5 67.3896 112.61 82.5 131.25 82.5Z" stroke="#292D32" stroke-width="10" stroke-linecap="round" stroke-linejoin="round"/>
</svg>
