<svg width="32" height="32" viewBox="0 0 32 32" fill="none" xmlns="http://www.w3.org/2000/svg">
<path fill-rule="evenodd" clip-rule="evenodd" d="M16 5C9.92487 5 5 9.92487 5 16C5 22.0751 9.92487 27 16 27C22.0751 27 27 22.0751 27 16C27 9.92487 22.0751 5 16 5ZM3 16C3 8.8203 8.8203 3 16 3C23.1797 3 29 8.8203 29 16C29 23.1797 23.1797 29 16 29C8.8203 29 3 23.1797 3 16Z" fill="#333333"/>
<path fill-rule="evenodd" clip-rule="evenodd" d="M11 18C11 17.4477 11.4477 17 12 17H20C20.5523 17 21 17.4477 21 18C21 18.5523 20.5523 19 20 19H12C11.4477 19 11 18.5523 11 18Z" fill="#333333"/>
<path fill-rule="evenodd" clip-rule="evenodd" d="M19 12C17.8954 12 17 12.8954 17 14V28C17 28.5523 16.5523 29 16 29C15.4477 29 15 28.5523 15 28V14C15 11.7909 16.7909 10 19 10H21C21.5523 10 22 10.4477 22 11C22 11.5523 21.5523 12 21 12H19Z" fill="#333333"/>
</svg>
