<svg width="40" height="40" viewBox="0 0 40 40" fill="none" xmlns="http://www.w3.org/2000/svg">
<path fill-rule="evenodd" clip-rule="evenodd" d="M20 13.75C21.7259 13.75 23.125 12.3509 23.125 10.625C23.125 8.89911 21.7259 7.5 20 7.5C18.2741 7.5 16.875 8.89911 16.875 10.625C16.875 12.3509 18.2741 13.75 20 13.75ZM25.625 10.625C25.625 13.7316 23.1066 16.25 20 16.25C16.8934 16.25 14.375 13.7316 14.375 10.625C14.375 7.5184 16.8934 5 20 5C23.1066 5 25.625 7.5184 25.625 10.625Z" fill="#333333"/>
<path fill-rule="evenodd" clip-rule="evenodd" d="M10.625 32.5C12.3509 32.5 13.75 31.1009 13.75 29.375C13.75 27.6491 12.3509 26.25 10.625 26.25C8.89911 26.25 7.5 27.6491 7.5 29.375C7.5 31.1009 8.89911 32.5 10.625 32.5ZM16.25 29.375C16.25 32.4816 13.7316 35 10.625 35C7.5184 35 5 32.4816 5 29.375C5 26.2684 7.5184 23.75 10.625 23.75C13.7316 23.75 16.25 26.2684 16.25 29.375Z" fill="#333333"/>
<path fill-rule="evenodd" clip-rule="evenodd" d="M29.375 32.5C31.1009 32.5 32.5 31.1009 32.5 29.375C32.5 27.6491 31.1009 26.25 29.375 26.25C27.6491 26.25 26.25 27.6491 26.25 29.375C26.25 31.1009 27.6491 32.5 29.375 32.5ZM35 29.375C35 32.4816 32.4816 35 29.375 35C26.2684 35 23.75 32.4816 23.75 29.375C23.75 26.2684 26.2684 23.75 29.375 23.75C32.4816 23.75 35 26.2684 35 29.375Z" fill="#333333"/>
<path fill-rule="evenodd" clip-rule="evenodd" d="M14.3751 21.2501C12.9944 21.2501 11.8751 22.3694 11.8751 23.7501V25.6251H9.37512V23.7501C9.37512 20.9887 11.6137 18.7501 14.3751 18.7501H25.6251C28.3865 18.7501 30.6251 20.9887 30.6251 23.7501V25.6251H28.1251V23.7501C28.1251 22.3694 27.0058 21.2501 25.6251 21.2501H14.3751Z" fill="#333333"/>
<path fill-rule="evenodd" clip-rule="evenodd" d="M20 21.25C19.3096 21.25 18.75 20.6904 18.75 20L18.75 15C18.75 14.3096 19.3096 13.75 20 13.75C20.6904 13.75 21.25 14.3096 21.25 15L21.25 20C21.25 20.6904 20.6904 21.25 20 21.25Z" fill="#333333"/>
</svg>
