<svg width="64" height="64" viewBox="0 0 64 64" fill="none" xmlns="http://www.w3.org/2000/svg">
<path d="M28.9634 8.96891C30.3145 6.54518 30.9901 5.33331 32 5.33331C33.01 5.33331 33.6856 6.54518 35.0367 8.96891L35.3862 9.59596C35.7701 10.2847 35.9621 10.6291 36.2614 10.8563C36.5608 11.0835 36.9335 11.1679 37.6791 11.3366L38.3579 11.4901C40.9815 12.0838 42.2934 12.3806 42.6055 13.3842C42.9176 14.3879 42.0232 15.4337 40.2346 17.5252L39.7719 18.0663C39.2636 18.6607 39.0095 18.9579 38.8951 19.3255C38.7808 19.6932 38.8192 20.0897 38.8961 20.8827L38.966 21.6047C39.2364 24.3953 39.3716 25.7906 38.5546 26.4109C37.7375 27.0312 36.5092 26.4656 34.0527 25.3346L33.4171 25.0419C32.7191 24.7205 32.37 24.5598 32 24.5598C31.6301 24.5598 31.281 24.7205 30.583 25.0419L29.9474 25.3346C27.4909 26.4656 26.2626 27.0312 25.4455 26.4109C24.6284 25.7906 24.7636 24.3953 25.0341 21.6047L25.104 20.8827C25.1809 20.0897 25.2193 19.6932 25.105 19.3255C24.9906 18.9579 24.7365 18.6607 24.2282 18.0664L23.7655 17.5252C21.9768 15.4337 21.0825 14.3879 21.3946 13.3842C21.7067 12.3806 23.0186 12.0838 25.6422 11.4901L26.321 11.3366C27.0665 11.1679 27.4393 11.0835 27.7386 10.8563C28.038 10.6291 28.2299 10.2847 28.6139 9.59596L28.9634 8.96891Z" stroke="black" stroke-width="3"/>
<path d="M51.815 20.4845C52.4906 19.2726 52.8283 18.6667 53.3333 18.6667C53.8383 18.6667 54.1761 19.2726 54.8516 20.4845L55.0264 20.798C55.2184 21.1424 55.3144 21.3146 55.464 21.4282C55.6137 21.5418 55.8001 21.584 56.1729 21.6683L56.5122 21.7451C57.8241 22.0419 58.48 22.1903 58.636 22.6921C58.7921 23.194 58.3449 23.7169 57.4506 24.7626L57.2192 25.0332C56.9651 25.3304 56.838 25.479 56.7809 25.6628C56.7237 25.8466 56.7429 26.0449 56.7813 26.4414L56.8163 26.8024C56.9515 28.1977 57.0191 28.8953 56.6106 29.2055C56.202 29.5156 55.5879 29.2328 54.3596 28.6673L54.0419 28.521C53.6928 28.3603 53.5183 28.2799 53.3333 28.2799C53.1483 28.2799 52.9738 28.3603 52.6248 28.521L52.307 28.6673C51.0788 29.2328 50.4646 29.5156 50.0561 29.2055C49.6475 28.8953 49.7151 28.1977 49.8503 26.8024L49.8853 26.4414C49.9237 26.0449 49.943 25.8466 49.8858 25.6628C49.8286 25.479 49.7016 25.3304 49.4474 25.0332L49.2161 24.7626C48.3217 23.7169 47.8746 23.194 48.0306 22.6921C48.1867 22.1903 48.8426 22.0419 50.1544 21.7451L50.4938 21.6683C50.8666 21.584 51.053 21.5418 51.2026 21.4282C51.3523 21.3146 51.4483 21.1424 51.6402 20.798L51.815 20.4845Z" stroke="black" stroke-width="3"/>
<path d="M9.14839 20.4845C9.82394 19.2726 10.1617 18.6667 10.6667 18.6667C11.1717 18.6667 11.5095 19.2726 12.185 20.4845L12.3598 20.798C12.5518 21.1424 12.6477 21.3146 12.7974 21.4282C12.9471 21.5418 13.1335 21.584 13.5062 21.6683L13.8456 21.7451C15.1575 22.0419 15.8134 22.1903 15.9694 22.6921C16.1255 23.194 15.6783 23.7169 14.784 24.7626L14.5526 25.0332C14.2985 25.3304 14.1714 25.479 14.1142 25.6628C14.0571 25.8466 14.0763 26.0449 14.1147 26.4414L14.1497 26.8024C14.2849 28.1977 14.3525 28.8953 13.944 29.2055C13.5354 29.5156 12.9213 29.2328 11.693 28.6673L11.3752 28.521C11.0262 28.3603 10.8517 28.2799 10.6667 28.2799C10.4817 28.2799 10.3072 28.3603 9.95817 28.521L9.6404 28.6673C8.41213 29.2328 7.798 29.5156 7.38945 29.2055C6.98091 28.8953 7.04851 28.1977 7.18372 26.8024L7.2187 26.4414C7.25712 26.0449 7.27633 25.8466 7.21917 25.6628C7.162 25.479 7.03493 25.3304 6.7808 25.0332L6.54943 24.7626C5.65511 23.7169 5.20795 23.194 5.364 22.6921C5.52005 22.1903 6.17596 22.0419 7.48779 21.7451L7.82718 21.6683C8.19996 21.584 8.38635 21.5418 8.53601 21.4282C8.68567 21.3146 8.78165 21.1424 8.97362 20.798L9.14839 20.4845Z" stroke="black" stroke-width="3"/>
<path d="M13.3334 54.369H19.3599C22.0555 54.369 24.7801 54.6498 27.4036 55.1903C32.0442 56.1464 36.9303 56.2622 41.6186 55.5033C43.9302 55.1291 46.2028 54.557 48.26 53.5641C50.1171 52.6677 52.3919 51.4043 53.9199 49.9891C55.4456 48.5759 57.0347 46.2631 58.1625 44.4553C59.1297 42.9051 58.6619 41.0032 57.1321 39.8481C55.4329 38.565 52.9113 38.5653 51.2124 39.8487L46.3932 43.4891C44.5255 44.9 42.4853 46.1988 40.0549 46.5864C39.7627 46.633 39.4565 46.6755 39.137 46.7125M39.137 46.7125C39.0408 46.7236 38.9434 46.7343 38.8449 46.7444M39.137 46.7125C39.5258 46.6292 39.9119 46.3894 40.2741 46.0733C41.9893 44.5763 42.0977 42.0533 40.6095 40.3817C40.2642 39.9938 39.8601 39.6703 39.4109 39.4024C31.9513 34.9532 20.3451 38.3419 13.3334 43.3144M39.137 46.7125C39.0397 46.7334 38.9422 46.7444 38.8449 46.7444M38.8449 46.7444C37.4492 46.8877 35.8165 46.9247 34.0048 46.7537" stroke="black" stroke-width="3" stroke-linecap="round"/>
<rect x="5.33337" y="37.3333" width="8" height="21.3333" rx="1.5" stroke="black" stroke-width="3"/>
</svg>
