<svg width="40" height="40" viewBox="0 0 40 40" fill="none" xmlns="http://www.w3.org/2000/svg">
<path fill-rule="evenodd" clip-rule="evenodd" d="M5 8.75C5 8.05964 5.55964 7.5 6.25 7.5H33.75C34.4404 7.5 35 8.05964 35 8.75V27.5C35 28.163 34.7366 28.7989 34.2678 29.2678C33.7989 29.7366 33.163 30 32.5 30H26.25C25.587 30 24.9511 29.7366 24.4822 29.2678C24.0134 28.7989 23.75 28.163 23.75 27.5V25H16.25V32.5C16.25 33.163 15.9866 33.7989 15.5178 34.2678C15.0489 34.7366 14.413 35 13.75 35H7.5C6.83696 35 6.20108 34.7366 5.73223 34.2678C5.26339 33.7989 5 33.163 5 32.5V8.75ZM7.5 10V32.5H13.75V23.75C13.75 23.0596 14.3096 22.5 15 22.5H25C25.6904 22.5 26.25 23.0596 26.25 23.75V27.5H32.5V10H7.5Z" fill="#333333"/>
<path fill-rule="evenodd" clip-rule="evenodd" d="M5 18.75C5 18.0596 5.55964 17.5 6.25 17.5H15C15.6904 17.5 16.25 18.0596 16.25 18.75C16.25 19.4404 15.6904 20 15 20H6.25C5.55964 20 5 19.4404 5 18.75Z" fill="#333333"/>
<path fill-rule="evenodd" clip-rule="evenodd" d="M15 7.5C15.6904 7.5 16.25 8.05964 16.25 8.75V23.75C16.25 24.4404 15.6904 25 15 25C14.3096 25 13.75 24.4404 13.75 23.75V8.75C13.75 8.05964 14.3096 7.5 15 7.5Z" fill="#333333"/>
<path fill-rule="evenodd" clip-rule="evenodd" d="M23.75 18.75C23.75 18.0596 24.3096 17.5 25 17.5H33.75C34.4404 17.5 35 18.0596 35 18.75C35 19.4404 34.4404 20 33.75 20H25C24.3096 20 23.75 19.4404 23.75 18.75Z" fill="#333333"/>
<path fill-rule="evenodd" clip-rule="evenodd" d="M25 7.5C25.6904 7.5 26.25 8.05964 26.25 8.75V23.75C26.25 24.4404 25.6904 25 25 25C24.3096 25 23.75 24.4404 23.75 23.75V8.75C23.75 8.05964 24.3096 7.5 25 7.5Z" fill="#333333"/>
</svg>
