<svg width="64" height="64" viewBox="0 0 64 64" fill="none" xmlns="http://www.w3.org/2000/svg">
<path d="M28.6667 6.53318C30.5067 4.95985 33.52 4.95985 35.3866 6.53318L39.6 10.1601C40.4 10.8535 41.8933 11.4134 42.96 11.4134H47.4933C50.32 11.4134 52.64 13.7332 52.64 16.5599V21.0934C52.64 22.1334 53.2 23.6534 53.8933 24.4534L57.52 28.6666C59.0934 30.5066 59.0934 33.52 57.52 35.3867L53.8933 39.5999C53.2 40.3999 52.64 41.8933 52.64 42.9599V47.4935C52.64 50.3201 50.32 52.6399 47.4933 52.6399H42.96C41.92 52.6399 40.4 53.1999 39.6 53.8932L35.3866 57.5198C33.5466 59.0932 30.5333 59.0932 28.6667 57.5198L24.4534 53.8932C23.6534 53.1999 22.16 52.6399 21.0933 52.6399H16.48C13.6533 52.6399 11.3333 50.3201 11.3333 47.4935V42.9332C11.3333 41.8932 10.7734 40.3999 10.1067 39.5999L6.50668 35.36C4.96001 33.52 4.96001 30.5333 6.50668 28.6933L10.1067 24.4534C10.7734 23.6534 11.3333 22.1601 11.3333 21.1201V16.5599C11.3333 13.7332 13.6533 11.4134 16.48 11.4134H21.0933C22.1333 11.4134 23.6534 10.8535 24.4534 10.1601L28.6667 6.53318Z" stroke="black" stroke-width="3" stroke-linecap="round" stroke-linejoin="round"/>
<path d="M26.3733 39.5199L30.2399 42.5066C30.7466 43.0133 31.8667 43.2533 32.6133 43.2533H37.3333C38.8266 43.2533 40.4533 42.1334 40.8266 40.6401L43.8133 31.5199C44.4266 29.7866 43.3066 28.2667 41.44 28.2667H36.4533C35.7067 28.2667 35.0933 27.6535 35.2 26.7735L35.8133 22.7735C36.0533 21.6535 35.3066 20.4001 34.1866 20.0268C33.2 19.6535 31.9466 20.16 31.44 20.9067L26.3199 28.5066" stroke="black" stroke-width="3" stroke-miterlimit="10"/>
<path d="M20 39.5198V27.3066C20 25.5466 20.7467 24.9333 22.5067 24.9333H23.76C25.4933 24.9333 26.2667 25.5466 26.2667 27.3066V39.5198C26.2667 41.2532 25.52 41.8932 23.76 41.8932H22.5067C20.7467 41.8932 20 41.2798 20 39.5198Z" stroke="black" stroke-width="3" stroke-linecap="round" stroke-linejoin="round"/>
</svg>
