<svg width="32" height="32" viewBox="0 0 32 32" fill="none" xmlns="http://www.w3.org/2000/svg">
<path fill-rule="evenodd" clip-rule="evenodd" d="M16 3C11.0294 3 7 7.02944 7 12C7 16.9706 11.0294 21 16 21C20.9706 21 25 16.9706 25 12C25 7.02944 20.9706 3 16 3ZM5 12C5 5.92487 9.92487 1 16 1C22.0751 1 27 5.92487 27 12C27 18.0751 22.0751 23 16 23C9.92487 23 5 18.0751 5 12Z" fill="#333333"/>
<path fill-rule="evenodd" clip-rule="evenodd" d="M16 7C13.2386 7 11 9.23858 11 12C11 14.7614 13.2386 17 16 17C18.7614 17 21 14.7614 21 12C21 9.23858 18.7614 7 16 7ZM9 12C9 8.13401 12.134 5 16 5C19.866 5 23 8.13401 23 12C23 15.866 19.866 19 16 19C12.134 19 9 15.866 9 12Z" fill="#333333"/>
<path fill-rule="evenodd" clip-rule="evenodd" d="M10 19C10.5523 19 11 19.4477 11 20V28.382L15.5528 26.1056C15.8343 25.9648 16.1657 25.9648 16.4472 26.1056L21 28.382V20C21 19.4477 21.4477 19 22 19C22.5523 19 23 19.4477 23 20V30C23 30.3466 22.8205 30.6684 22.5257 30.8507C22.2309 31.0329 21.8628 31.0494 21.5528 30.8944L16 28.118L10.4472 30.8944C10.1372 31.0494 9.76909 31.0329 9.47427 30.8507C9.17945 30.6684 9 30.3466 9 30V20C9 19.4477 9.44772 19 10 19Z" fill="#333333"/>
</svg>
