<svg width="40" height="40" viewBox="0 0 40 40" fill="none" xmlns="http://www.w3.org/2000/svg">
<path fill-rule="evenodd" clip-rule="evenodd" d="M26.25 5C21.4175 5 17.5 8.91751 17.5 13.75C17.5 18.5825 21.4175 22.5 26.25 22.5C31.0825 22.5 35 18.5825 35 13.75C35 8.91751 31.0825 5 26.25 5ZM15 13.75C15 7.5368 20.0368 2.5 26.25 2.5C32.4632 2.5 37.5 7.5368 37.5 13.75C37.5 19.9632 32.4632 25 26.25 25C20.0368 25 15 19.9632 15 13.75Z" fill="#333333"/>
<path fill-rule="evenodd" clip-rule="evenodd" d="M18.288 5.78802C18.7761 5.29987 19.5676 5.29987 20.0558 5.78802L34.212 19.9443C34.7002 20.4324 34.7002 21.2239 34.212 21.712C33.7239 22.2002 32.9324 22.2002 32.4442 21.712L18.288 7.55579C17.7998 7.06763 17.7998 6.27618 18.288 5.78802Z" fill="#333333"/>
<path fill-rule="evenodd" clip-rule="evenodd" d="M16.5089 23.4911C16.997 23.9793 16.997 24.7707 16.5089 25.2589L14.6339 27.1339C14.1457 27.622 13.3543 27.622 12.8661 27.1339C12.378 26.6457 12.378 25.8543 12.8661 25.3661L14.7411 23.4911C15.2293 23.003 16.0207 23.003 16.5089 23.4911Z" fill="#333333"/>
<path fill-rule="evenodd" clip-rule="evenodd" d="M17.1142 14.2888C17.6709 14.697 17.7913 15.4793 17.3831 16.036L5.39868 32.3798L5.39959 32.3817L7.61954 34.6017L23.964 22.6169C24.5207 22.2087 25.303 22.3291 25.7112 22.8858C26.1194 23.4425 25.999 24.2248 25.4423 24.633L9.10336 36.6139C8.62189 36.973 8.02652 37.1456 7.42746 37.0995C6.82858 37.0534 6.26676 36.792 5.84591 36.3636L3.63627 34.154C3.20802 33.7332 2.94658 33.1714 2.90051 32.5725C2.85443 31.9735 3.02702 31.3781 3.38614 30.8966L15.367 14.5577C15.7752 14.001 16.5575 13.8806 17.1142 14.2888Z" fill="#333333"/>
</svg>
