<svg width="40" height="40" viewBox="0 0 40 40" fill="none" xmlns="http://www.w3.org/2000/svg">
<path fill-rule="evenodd" clip-rule="evenodd" d="M22.0544 5.09673C21.6105 4.97906 21.1461 4.9607 20.6942 5.04295C20.2424 5.1252 19.8142 5.30603 19.4402 5.57259C19.0662 5.83914 18.7555 6.18485 18.5303 6.58513C18.3051 6.98541 18.1709 7.4304 18.1372 7.88844L18.1366 7.89725L18.1366 7.89725C18.0932 8.43507 18.1927 8.97479 18.4251 9.46178C18.6098 9.84907 18.583 10.3041 18.354 10.667C18.1251 11.0299 17.7259 11.25 17.2968 11.25H9.99997V17.9218C9.99997 18.3509 9.77994 18.7499 9.41712 18.9789C9.0543 19.2079 8.59939 19.2348 8.2121 19.0502C7.79752 18.8526 7.34447 18.7488 6.8852 18.7462C6.42593 18.7435 5.97173 18.8422 5.55492 19.0351C5.13812 19.228 4.76896 19.5104 4.47371 19.8622C4.17846 20.214 3.96439 20.6266 3.84673 21.0705C3.72906 21.5145 3.7107 21.9789 3.79295 22.4307C3.8752 22.8826 4.05603 23.3108 4.32259 23.6848C4.58914 24.0588 4.93485 24.3695 5.33513 24.5947C5.7354 24.8199 6.1804 24.9541 6.63844 24.9877L6.64725 24.9884L6.64725 24.9884C7.18507 25.0317 7.72479 24.9322 8.21178 24.6999C8.59907 24.5151 9.05406 24.542 9.41697 24.7709C9.77987 24.9999 9.99997 25.399 9.99997 25.8281V32.5H32.5V27.4682C32.301 27.4907 32.1005 27.5026 31.8994 27.5037C31.0727 27.5084 30.2552 27.3309 29.5049 26.9837C28.7547 26.6364 28.0902 26.1281 27.5587 25.4949C27.0273 24.8616 26.642 24.119 26.4302 23.3199C26.2184 22.5208 26.1853 21.6848 26.3334 20.8715C26.4814 20.0582 26.8069 19.2875 27.2867 18.6142C27.7665 17.941 28.3888 17.3818 29.1093 16.9765C29.8285 16.5718 30.628 16.3304 31.4509 16.2693C31.8017 16.2413 32.1529 16.2468 32.5 16.2849V11.25H25.2031C24.7741 11.25 24.375 11.0299 24.146 10.6671C23.917 10.3043 23.8901 9.84939 24.0747 9.4621C24.2724 9.04752 24.3762 8.59447 24.3788 8.1352C24.3814 7.67593 24.2827 7.22173 24.0898 6.80492C23.8969 6.38812 23.6145 6.01896 23.2627 5.72371C22.9109 5.42846 22.4984 5.21439 22.0544 5.09673ZM20.2465 2.58336C21.0598 2.43532 21.8958 2.46837 22.6949 2.68016C23.494 2.89196 24.2366 3.27729 24.8699 3.80873C25.5031 4.34018 26.0114 5.00467 26.3587 5.75492C26.7059 6.50517 26.8834 7.32273 26.8787 8.14941C26.8776 8.35054 26.8657 8.55101 26.8432 8.74997H32.5C33.163 8.74997 33.7989 9.01336 34.2677 9.48221C34.7366 9.95105 35 10.5869 35 11.25V17.9218C35 18.3509 34.7799 18.7501 34.417 18.979C34.0541 19.208 33.5991 19.2348 33.2118 19.0501C32.7248 18.8177 32.1851 18.7182 31.6472 18.7616L31.6384 18.7622C31.1804 18.7959 30.7354 18.9301 30.3351 19.1553C29.9349 19.3805 29.5891 19.6912 29.3226 20.0652C29.056 20.4392 28.8752 20.8673 28.7929 21.3192C28.7107 21.7711 28.7291 22.2355 28.8467 22.6794C28.9644 23.1234 29.1785 23.5359 29.4737 23.8877C29.769 24.2395 30.1381 24.5219 30.5549 24.7148C30.9717 24.9077 31.4259 25.0064 31.8852 25.0038C32.3445 25.0012 32.7975 24.8974 33.2121 24.6997C33.5994 24.5151 34.0543 24.542 34.4171 24.771C34.7799 25 35 25.3991 35 25.8281V32.5C35 33.163 34.7366 33.7989 34.2677 34.2677C33.7989 34.7366 33.163 35 32.5 35H9.99997C9.33693 35 8.70105 34.7366 8.23221 34.2677C7.76336 33.7989 7.49997 33.163 7.49997 32.5V27.4651C7.15299 27.5032 6.80184 27.5086 6.45112 27.4807C5.6281 27.4196 4.82858 27.1782 4.10929 26.7735C3.38879 26.3681 2.7665 25.8089 2.28671 25.1357C1.80691 24.4625 1.48141 23.6918 1.33336 22.8784C1.18532 22.0651 1.21837 21.2291 1.43016 20.43C1.64196 19.6309 2.02729 18.8883 2.55873 18.2551C3.09018 17.6218 3.75467 17.1135 4.50492 16.7663C5.25517 16.4191 6.07273 16.2415 6.89941 16.2462C7.10054 16.2473 7.30101 16.2593 7.49997 16.2818V11.25C7.49997 10.5869 7.76337 9.95105 8.23221 9.48221C8.70105 9.01337 9.33693 8.74997 9.99997 8.74997H15.6599C15.6218 8.40292 15.6163 8.0517 15.6443 7.7009C15.7054 6.87796 15.9468 6.07852 16.3515 5.35929C16.7568 4.63879 17.316 4.0165 17.9892 3.53671C18.6625 3.05691 19.4332 2.73141 20.2465 2.58336Z" fill="#333333"/>
</svg>
