<svg width="66" height="69" viewBox="0 0 66 69" fill="none" xmlns="http://www.w3.org/2000/svg">
<g filter="url(#filter0_d_17_1313)">
<path d="M43.6666 58.6667V34.6667C43.6666 30.8954 43.6666 29.0098 42.495 27.8382C41.3234 26.6667 39.4378 26.6667 35.6666 26.6667H30.3333C26.562 26.6667 24.6764 26.6667 23.5048 27.8382C22.3333 29.0098 22.3333 30.8954 22.3333 34.6667V58.6667" stroke="black" stroke-width="3" stroke-linecap="round"/>
<path d="M22.3333 58.6667C22.3333 54.8954 22.3333 53.0098 21.1617 51.8382C19.9901 50.6667 18.1045 50.6667 14.3333 50.6667C10.562 50.6667 8.6764 50.6667 7.50482 51.8382C6.33325 53.0098 6.33325 54.8954 6.33325 58.6667" stroke="black" stroke-width="3" stroke-linecap="round"/>
<path d="M59.6667 58.6667V50.6667C59.6667 46.8954 59.6667 45.0098 58.4952 43.8382C57.3236 42.6667 55.438 42.6667 51.6667 42.6667C47.8955 42.6667 46.0099 42.6667 44.8383 43.8382C43.6667 45.0098 43.6667 46.8954 43.6667 50.6667V58.6667" stroke="black" stroke-width="3" stroke-linecap="round"/>
<path d="M30.7225 8.06004C31.7359 6.24224 32.2425 5.33334 33 5.33334C33.7575 5.33334 34.2642 6.24224 35.2775 8.06004L35.5396 8.53032C35.8276 9.04688 35.9716 9.30517 36.196 9.47558C36.4205 9.646 36.7001 9.70926 37.2593 9.83577L37.7684 9.95096C39.7361 10.3962 40.72 10.6188 40.9541 11.3715C41.1881 12.1243 40.5174 12.9086 39.1759 14.4773L38.8289 14.8831C38.4477 15.3289 38.2571 15.5518 38.1713 15.8275C38.0856 16.1032 38.1144 16.4006 38.172 16.9954L38.2245 17.5369C38.4273 19.6298 38.5287 20.6763 37.9159 21.1415C37.3031 21.6067 36.3819 21.1826 34.5395 20.3343L34.0628 20.1148C33.5393 19.8737 33.2775 19.7532 33 19.7532C32.7225 19.7532 32.4607 19.8737 31.9372 20.1148L31.4605 20.3343C29.6181 21.1826 28.6969 21.6067 28.0841 21.1415C27.4713 20.6763 27.5727 19.6298 27.7755 17.5369L27.828 16.9954C27.8856 16.4006 27.9144 16.1032 27.8287 15.8275C27.7429 15.5518 27.5523 15.3289 27.1711 14.8831L26.8241 14.4773C25.4826 12.9086 24.8119 12.1243 25.0459 11.3715C25.28 10.6188 26.2639 10.3962 28.2316 9.95096L28.7407 9.83578C29.2999 9.70926 29.5795 9.646 29.804 9.47558C30.0284 9.30517 30.1724 9.04688 30.4604 8.53032L30.7225 8.06004Z" stroke="black" stroke-width="3"/>
</g>
<defs>
<filter id="filter0_d_17_1313" x="-3" y="0" width="72" height="72" filterUnits="userSpaceOnUse" color-interpolation-filters="sRGB">
<feFlood flood-opacity="0" result="BackgroundImageFix"/>
<feColorMatrix in="SourceAlpha" type="matrix" values="0 0 0 0 0 0 0 0 0 0 0 0 0 0 0 0 0 0 127 0" result="hardAlpha"/>
<feOffset dy="4"/>
<feGaussianBlur stdDeviation="2"/>
<feComposite in2="hardAlpha" operator="out"/>
<feColorMatrix type="matrix" values="0 0 0 0 0 0 0 0 0 0 0 0 0 0 0 0 0 0 0.25 0"/>
<feBlend mode="normal" in2="BackgroundImageFix" result="effect1_dropShadow_17_1313"/>
<feBlend mode="normal" in="SourceGraphic" in2="effect1_dropShadow_17_1313" result="shape"/>
</filter>
</defs>
</svg>
