<svg width="30" height="30" viewBox="0 0 30 30" fill="none" xmlns="http://www.w3.org/2000/svg">
<path d="M27.5 6.70649L28.25 6.70649V6.70649H27.5ZM11.8182 16.6286L12.3474 16.0971L11.8182 16.6286ZM11.8182 10.6797L12.3474 11.2111L11.8182 10.6797ZM19.2857 18.1158L18.7565 17.5843V17.5843L19.2857 18.1158ZM13.3117 18.1158L12.7825 18.6472L13.3117 18.1158ZM25.6441 11.7842L26.1733 12.3156L25.6441 11.7842ZM27.5 7.32252L26.75 7.32251V7.32252H27.5ZM18.1766 4.34808L17.6474 3.81663V3.81663L18.1766 4.34808ZM15.3344 15.6728C15.6279 15.3805 15.6289 14.9057 15.3366 14.6121C15.0443 14.3186 14.5695 14.3176 14.276 14.6099L15.3344 15.6728ZM9.63613 12.8525L10.1661 12.3219L10.1653 12.3211L9.63613 12.8525ZM14.3985 8.33504C14.7469 8.55903 15.211 8.45814 15.435 8.10971C15.6589 7.76128 15.558 7.29724 15.2096 7.07326L14.3985 8.33504ZM14.1198 7.26428L13.7142 7.89518L13.7142 7.89518L14.1198 7.26428ZM11.3253 5.83215L11.4349 5.09019L11.3253 5.83215ZM5.99501 9.04226L6.52421 9.57371L5.99501 9.04226ZM9.38175 6.08024L9.66888 6.7731L9.38175 6.08024ZM6.68883 10.5659L6.96482 9.86856L6.96482 9.86856L6.68883 10.5659ZM6.82283 10.6195L6.53742 11.3131L6.82283 10.6195ZM8.59134 11.8121L9.12055 11.2807L8.59134 11.8121ZM8.48889 11.7108L7.96695 12.2494L8.48889 11.7108ZM6.27705 10.403L6.00106 11.1003L6.00106 11.1003L6.27705 10.403ZM17.1688 20.4218L16.6388 20.9524C16.6504 20.964 16.6624 20.9752 16.6747 20.986L17.1688 20.4218ZM22.9032 14.7345C22.6778 14.3869 22.2134 14.2878 21.8659 14.5131C21.5183 14.7385 21.4192 15.2029 21.6445 15.5504L22.9032 14.7345ZM22.7156 15.8238L22.0862 16.2318V16.2318L22.7156 15.8238ZM24.1538 18.6065L24.8956 18.4961L24.1538 18.6065ZM20.9301 23.9144L21.4593 24.4459L21.4593 24.4459L20.9301 23.9144ZM23.9046 20.5419L24.5966 20.8311L23.9046 20.5419ZM19.6146 23.7614L20.3112 23.4834L19.6146 23.7614ZM19.099 22.5754L18.4416 22.9364L19.099 22.5754ZM17.7375 20.9197L18.2667 20.3883L18.2496 20.3713L18.2316 20.3555L17.7375 20.9197ZM18.6269 21.8609L19.217 21.3979L18.6269 21.8609ZM20.8387 24.0054L20.3095 23.474L20.3095 23.474L20.8387 24.0054ZM16.863 20.1164L16.6041 19.4125L16.863 20.1164ZM9.82779 13.044L10.5235 13.3241L9.82779 13.044ZM7.46526 16.6388C7.75833 16.3461 7.75862 15.8712 7.46591 15.5781C7.17319 15.2851 6.69832 15.2848 6.40525 15.5775L7.46526 16.6388ZM4.82058 18.2202L4.29057 17.6896L4.82058 18.2202ZM2.89815 16.3001L2.36814 15.7695H2.36814L2.89815 16.3001ZM3.6204 16.6388C3.91347 16.3461 3.91376 15.8712 3.62104 15.5781C3.32833 15.2851 2.85346 15.2848 2.56038 15.5775L3.6204 16.6388ZM14.3746 23.6008C14.6677 23.3081 14.668 22.8332 14.3753 22.5401C14.0825 22.2471 13.6077 22.2468 13.3146 22.5395L14.3746 23.6008ZM11.7299 25.1822L12.2599 25.7129L11.7299 25.1822ZM13.6524 27.1023L14.1824 27.633V27.633L13.6524 27.1023ZM14.3746 27.441C14.6677 27.1483 14.668 26.6734 14.3753 26.3803C14.0825 26.0872 13.6077 26.087 13.3146 26.3797L14.3746 27.441ZM13.1584 21.3496C13.4513 21.0567 13.4513 20.5818 13.1584 20.289C12.8655 19.9961 12.3906 19.9961 12.0977 20.289L13.1584 21.3496ZM9.46967 22.917C9.17678 23.2099 9.17678 23.6848 9.46967 23.9776C9.76256 24.2705 10.2374 24.2705 10.5303 23.9776L9.46967 22.917ZM9.68873 17.8842C9.98162 17.5913 9.98162 17.1164 9.68873 16.8235C9.39583 16.5306 8.92096 16.5306 8.62807 16.8235L9.68873 17.8842ZM5.98194 19.4697C5.68904 19.7626 5.68904 20.2374 5.98194 20.5303C6.27483 20.8232 6.7497 20.8232 7.0426 20.5303L5.98194 19.4697ZM9.19443 21.8429C9.49056 21.5533 9.49585 21.0784 9.20623 20.7823C8.91662 20.4861 8.44177 20.4809 8.14564 20.7705L9.19443 21.8429ZM6.00867 22.8604C5.71254 23.15 5.70725 23.6249 5.99687 23.921C6.28649 24.2171 6.76133 24.2224 7.05746 23.9328L6.00867 22.8604ZM25.1149 11.2527L18.7565 17.5843L19.8149 18.6472L26.1733 12.3156L25.1149 11.2527ZM13.8409 17.5843L12.3474 16.0971L11.2889 17.16L12.7825 18.6472L13.8409 17.5843ZM12.3474 11.2111L18.7058 4.87953L17.6474 3.81663L11.289 10.1483L12.3474 11.2111ZM22.6571 3.25H23.2757V1.75H22.6571V3.25ZM26.75 6.70649L26.75 7.32251L28.25 7.32252L28.25 6.70649L26.75 6.70649ZM23.2757 3.25C24.2925 3.25 24.98 3.25158 25.4938 3.32037C25.9864 3.38632 26.2055 3.50148 26.3522 3.64747L27.4106 2.58458C26.9386 2.11455 26.3506 1.9217 25.6928 1.83364C25.0563 1.74842 24.2503 1.75 23.2757 1.75V3.25ZM28.25 6.70649C28.25 5.7363 28.2516 4.93289 28.1659 4.29831C28.0773 3.64182 27.883 3.05504 27.4106 2.58458L26.3522 3.64747C26.4983 3.79304 26.6134 4.01001 26.6794 4.49901C26.7484 5.00991 26.75 5.69372 26.75 6.70649H28.25ZM12.3474 16.0971C11.6283 15.3811 11.1436 14.8962 10.8294 14.4861C10.5283 14.0932 10.456 13.8588 10.456 13.6541H8.95602C8.95602 14.3206 9.23571 14.8724 9.63872 15.3984C10.0286 15.9072 10.5999 16.4739 11.2889 17.16L12.3474 16.0971ZM12.7825 18.6472C13.4715 19.3334 14.0406 19.9023 14.5514 20.2904C15.0797 20.6918 15.6323 20.969 16.2987 20.969V19.469C16.0902 19.469 15.8533 19.3958 15.4589 19.096C15.0469 18.7831 14.5599 18.3004 13.8409 17.5843L12.7825 18.6472ZM26.1733 12.3156C27.0455 11.4471 27.6394 10.8745 27.9513 10.1247L26.5664 9.54857C26.3959 9.95826 26.0742 10.2975 25.1149 11.2527L26.1733 12.3156ZM26.75 7.32252C26.75 8.67346 26.7366 9.13922 26.5664 9.54857L27.9513 10.1247C28.2634 9.37447 28.25 8.55067 28.25 7.32252H26.75ZM18.7058 4.87953C19.6647 3.92467 20.0058 3.60365 20.4183 3.43349L19.8464 2.04681C19.0945 2.35695 18.5199 2.94778 17.6474 3.81663L18.7058 4.87953ZM22.6571 1.75C21.4231 1.75 20.5979 1.73682 19.8464 2.04681L20.4183 3.43349C20.8312 3.26318 21.3011 3.25 22.6571 3.25V1.75ZM13.0941 17.9036L15.3344 15.6728L14.276 14.6099L12.0357 16.8407L13.0941 17.9036ZM15.2096 7.07326L14.5253 6.63339L13.7142 7.89518L14.3985 8.33504L15.2096 7.07326ZM14.5254 6.63339C13.8487 6.19843 13.3057 5.84877 12.8391 5.59761C12.363 5.34137 11.9212 5.16198 11.4349 5.09019L11.2158 6.57411C11.465 6.61088 11.7341 6.70637 12.1282 6.91846C12.5317 7.13563 13.0182 7.44776 13.7142 7.89518L14.5254 6.63339ZM6.52421 9.57371C7.13628 8.96423 7.79413 8.30937 8.38563 7.77043C8.68118 7.50114 8.95122 7.26905 9.18358 7.09017C9.42755 6.90236 9.58731 6.8069 9.66888 6.7731L9.09462 5.38738C8.82323 5.49984 8.53545 5.69613 8.26857 5.90158C7.9901 6.11596 7.68599 6.37864 7.37538 6.66165C6.75455 7.22731 6.07199 7.90718 5.46581 8.5108L6.52421 9.57371ZM11.4349 5.09019C10.6482 4.97407 9.83882 5.07897 9.09462 5.38738L9.66888 6.7731C10.1697 6.56554 10.7053 6.49876 11.2158 6.57411L11.4349 5.09019ZM6.00106 11.1003L6.41283 11.2633L6.96482 9.86856L6.55305 9.70559L6.00106 11.1003ZM8.06213 12.3436L9.10692 13.384L10.1653 12.3211L9.12055 11.2807L8.06213 12.3436ZM6.41283 11.2633C6.48188 11.2906 6.51006 11.3018 6.53742 11.3131L7.10823 9.92591C7.06934 9.9099 7.03027 9.89446 6.96482 9.86856L6.41283 11.2633ZM9.12055 11.2807C9.07073 11.2311 9.04102 11.2015 9.01084 11.1722L7.96695 12.2494C7.98815 12.27 8.00961 12.2913 8.06213 12.3436L9.12055 11.2807ZM6.53742 11.3131C7.06951 11.532 7.55465 11.8498 7.96695 12.2494L9.01084 11.1722C8.46173 10.6401 7.81599 10.2172 7.10823 9.92591L6.53742 11.3131ZM5.46581 8.5108C4.65696 9.31622 4.94281 10.6815 6.00106 11.1003L6.55305 9.70559C6.49561 9.68286 6.48411 9.61364 6.52421 9.57371L5.46581 8.5108ZM21.6445 15.5504L22.0862 16.2318L23.3449 15.4159L22.9032 14.7345L21.6445 15.5504ZM20.4009 23.383L20.3095 23.474L21.3679 24.5369L21.4593 24.4459L20.4009 23.383ZM22.0862 16.2318C22.5356 16.925 22.8489 17.4093 23.0669 17.8109C23.2798 18.2031 23.3752 18.4703 23.4119 18.7169L24.8956 18.4961C24.8233 18.0104 24.6427 17.5697 24.3852 17.0954C24.1329 16.6304 23.7817 16.0896 23.3449 15.4159L22.0862 16.2318ZM21.4593 24.4459C22.0655 23.8422 22.7482 23.1625 23.3163 22.5443C23.6005 22.235 23.8643 21.9321 24.0796 21.6548C24.2859 21.3891 24.4834 21.1021 24.5966 20.8311L23.2126 20.2527C23.179 20.3332 23.0835 20.4919 22.8948 20.7349C22.7152 20.9662 22.4822 21.2351 22.2118 21.5294C21.6705 22.1184 21.0129 22.7735 20.4009 23.383L21.4593 24.4459ZM23.4119 18.7169C23.4873 19.2235 23.4206 19.7552 23.2126 20.2527L24.5966 20.8311C24.9068 20.0889 25.0125 19.2813 24.8956 18.4961L23.4119 18.7169ZM18.2316 20.3555L17.6629 19.8576L16.6747 20.986L17.2433 21.484L18.2316 20.3555ZM20.3112 23.4834C20.0772 22.897 19.9384 22.546 19.7564 22.2144L18.4416 22.9364C18.5693 23.169 18.6711 23.4205 18.9181 24.0394L20.3112 23.4834ZM17.2082 21.4512C17.6811 21.9221 17.8729 22.1149 18.0369 22.3238L19.217 21.3979C18.9834 21.1002 18.7147 20.8345 18.2667 20.3883L17.2082 21.4512ZM19.7564 22.2144C19.5991 21.9281 19.4187 21.655 19.217 21.3979L18.0369 22.3238C18.1883 22.5168 18.3236 22.7217 18.4416 22.9364L19.7564 22.2144ZM21.7435 10.1483C21.2113 10.6782 20.3471 10.6782 19.8149 10.1483L18.7565 11.2111C19.874 12.3239 21.6845 12.3239 22.8019 11.2111L21.7435 10.1483ZM19.8149 10.1483C19.2845 9.62003 19.2845 8.76493 19.8149 8.23671L18.7565 7.17382C17.6373 8.28833 17.6373 10.0966 18.7565 11.2111L19.8149 10.1483ZM19.8149 8.23671C20.3471 7.70675 21.2113 7.70675 21.7435 8.23671L22.8019 7.17382C21.6845 6.06105 19.874 6.06104 18.7565 7.17382L19.8149 8.23671ZM21.7435 8.23671C22.274 8.76493 22.274 9.62003 21.7435 10.1483L22.8019 11.2111C23.9212 10.0966 23.9212 8.28833 22.8019 7.17382L21.7435 8.23671ZM20.3095 23.474C20.3082 23.4752 20.3082 23.4749 20.3094 23.4743C20.3105 23.4737 20.3114 23.4733 20.3118 23.4732C20.312 23.4731 20.3094 23.4738 20.305 23.4729C20.3007 23.4721 20.3002 23.4708 20.3029 23.4729C20.3044 23.4741 20.3064 23.4761 20.3083 23.4786C20.3092 23.4798 20.3099 23.481 20.3105 23.4819C20.311 23.4829 20.3112 23.4834 20.3112 23.4834L18.9181 24.0394C19.318 25.0416 20.618 25.2836 21.3679 24.5369L20.3095 23.474ZM18.7565 17.5843C18.201 18.1375 17.7808 18.5553 17.4191 18.8673C17.0562 19.1803 16.8059 19.3382 16.6041 19.4125L17.122 20.8202C17.5761 20.6531 17.9887 20.3569 18.3989 20.0031C18.8103 19.6482 19.2734 19.1865 19.8149 18.6472L18.7565 17.5843ZM16.6041 19.4125C16.4966 19.452 16.3992 19.469 16.2987 19.469V20.969C16.5848 20.969 16.8573 20.9176 17.122 20.8202L16.6041 19.4125ZM17.6988 19.8911L17.393 19.5857L16.333 20.647L16.6388 20.9524L17.6988 19.8911ZM11.289 10.1483C10.7604 10.6745 10.3064 11.1261 9.95428 11.5275C9.60352 11.9273 9.30774 12.3275 9.13206 12.7639L10.5235 13.3241C10.6047 13.1223 10.7692 12.8731 11.0818 12.5167C11.3932 12.1619 11.8059 11.7504 12.3474 11.2111L11.289 10.1483ZM9.13206 12.7639C9.01756 13.0482 8.95602 13.3424 8.95602 13.6541H10.456C10.456 13.5475 10.4757 13.4429 10.5235 13.3241L9.13206 12.7639ZM9.10612 13.3832L9.29778 13.5746L10.3578 12.5133L10.1661 12.3219L9.10612 13.3832ZM6.40525 15.5775L4.29057 17.6896L5.35059 18.7509L7.46526 16.6388L6.40525 15.5775ZM3.42816 16.8308L3.6204 16.6388L2.56038 15.5775L2.36814 15.7695L3.42816 16.8308ZM3.42816 17.6896C3.19061 17.4523 3.19061 17.068 3.42816 16.8308L2.36814 15.7695C1.54395 16.5927 1.54395 17.9277 2.36814 18.7509L3.42816 17.6896ZM4.29057 17.6896C4.05253 17.9273 3.6662 17.9273 3.42816 17.6896L2.36814 18.7509C3.19183 19.5736 4.5269 19.5736 5.35059 18.7509L4.29057 17.6896ZM13.3146 22.5395L11.1999 24.6516L12.2599 25.7129L14.3746 23.6008L13.3146 22.5395ZM14.1824 27.633L14.3746 27.441L13.3146 26.3797L13.1224 26.5717L14.1824 27.633ZM11.1999 27.633C12.0236 28.4557 13.3587 28.4557 14.1824 27.633L13.1224 26.5717C12.8843 26.8094 12.498 26.8094 12.2599 26.5717L11.1999 27.633ZM11.1999 24.6516C10.3757 25.4748 10.3757 26.8098 11.1999 27.633L12.2599 26.5717C12.0224 26.3344 12.0224 25.9501 12.2599 25.7129L11.1999 24.6516ZM12.0977 20.289L9.46967 22.917L10.5303 23.9776L13.1584 21.3496L12.0977 20.289ZM8.62807 16.8235L5.98194 19.4697L7.0426 20.5303L9.68873 17.8842L8.62807 16.8235ZM8.14564 20.7705L6.00867 22.8604L7.05746 23.9328L9.19443 21.8429L8.14564 20.7705Z" fill="black"/>
</svg>
