<svg width="18" height="18" viewBox="0 0 18 18" fill="none" xmlns="http://www.w3.org/2000/svg">
<path d="M12.1491 11.1005C11.7989 11.1004 11.4522 11.1706 11.1296 11.3069C10.807 11.4432 10.515 11.6428 10.2709 11.8939L7.24558 9.94948C7.48356 9.33923 7.48356 8.66185 7.24558 8.0516L10.2709 6.10713C10.7253 6.57262 11.3364 6.8528 11.9857 6.89334C12.6349 6.93388 13.2761 6.73189 13.7849 6.32655C14.2937 5.9212 14.6339 5.34137 14.7394 4.69947C14.845 4.05757 14.7085 3.39933 14.3563 2.85238C14.0042 2.30542 13.4614 1.90871 12.8334 1.73917C12.2054 1.56962 11.5367 1.63931 10.9572 1.93473C10.3776 2.23015 9.92835 2.73025 9.69655 3.33808C9.46475 3.9459 9.4669 4.61815 9.70258 5.22448L6.67727 7.16894C6.31296 6.79493 5.8454 6.53805 5.33435 6.43115C4.82329 6.32425 4.29197 6.37217 3.80829 6.5688C3.32462 6.76543 2.91057 7.10183 2.61907 7.535C2.32758 7.96817 2.17188 8.47842 2.17188 9.00054C2.17187 9.52265 2.32758 10.0329 2.61907 10.4661C2.91057 10.8992 3.32462 11.2356 3.80829 11.4323C4.29197 11.6289 4.82329 11.6768 5.33435 11.5699C5.8454 11.463 6.31296 11.2061 6.67727 10.8321L9.70258 12.7766C9.49991 13.2993 9.46992 13.8732 9.617 14.4142C9.76408 14.9552 10.0805 15.4349 10.5199 15.783C10.9594 16.1312 11.4987 16.3295 12.059 16.349C12.6193 16.3684 13.1711 16.2079 13.6336 15.8911C14.0962 15.5742 14.4451 15.1176 14.6293 14.5881C14.8135 14.0586 14.8234 13.484 14.6574 12.9485C14.4915 12.413 14.1584 11.9447 13.7071 11.6122C13.2557 11.2796 12.7097 11.1003 12.1491 11.1005ZM12.1491 2.70054C12.4606 2.70054 12.7651 2.79291 13.0241 2.96597C13.2831 3.13904 13.485 3.38502 13.6042 3.67281C13.7234 3.96061 13.7546 4.27729 13.6938 4.58281C13.633 4.88833 13.483 5.16896 13.2628 5.38923C13.0425 5.6095 12.7619 5.7595 12.4563 5.82028C12.1508 5.88105 11.8341 5.84986 11.5464 5.73065C11.2586 5.61144 11.0126 5.40957 10.8395 5.15056C10.6665 4.89155 10.5741 4.58704 10.5741 4.27554C10.5741 3.85782 10.74 3.45722 11.0354 3.16185C11.3308 2.86648 11.7314 2.70054 12.1491 2.70054ZM4.79908 10.5755C4.48758 10.5755 4.18307 10.4832 3.92406 10.3101C3.66505 10.137 3.46318 9.89106 3.34397 9.60326C3.22477 9.31547 3.19357 8.99879 3.25435 8.69327C3.31512 8.38775 3.46512 8.10711 3.68539 7.88684C3.90566 7.66658 4.1863 7.51657 4.49182 7.4558C4.79734 7.39503 5.11402 7.42622 5.40181 7.54543C5.6896 7.66464 5.93558 7.86651 6.10865 8.12551C6.28171 8.38452 6.37408 8.68903 6.37408 9.00054C6.37408 9.41825 6.20815 9.81886 5.91278 10.1142C5.61741 10.4096 5.2168 10.5755 4.79908 10.5755ZM12.1491 15.3005C11.8376 15.3005 11.5331 15.2082 11.2741 15.0351C11.0151 14.862 10.8132 14.6161 10.694 14.3283C10.5748 14.0405 10.5436 13.7238 10.6043 13.4183C10.6651 13.1127 10.8151 12.8321 11.0354 12.6118C11.2557 12.3916 11.5363 12.2416 11.8418 12.1808C12.1473 12.12 12.464 12.1512 12.7518 12.2704C13.0396 12.3896 13.2856 12.5915 13.4586 12.8505C13.6317 13.1095 13.7241 13.414 13.7241 13.7255C13.7241 14.1433 13.5581 14.5439 13.2628 14.8392C12.9674 15.1346 12.5668 15.3005 12.1491 15.3005Z" fill="#333333"/>
</svg>
