<svg width="64" height="64" viewBox="0 0 64 64" fill="none" xmlns="http://www.w3.org/2000/svg">
<path d="M26.5672 15.251L27.1238 16.6439L26.5672 15.251ZM29.4676 12.233L30.8754 12.7507V12.7507L29.4676 12.233ZM24.3059 24.6911L25.2742 23.5455H25.2742L24.3059 24.6911ZM25.6258 15.6271L25.0693 14.2342H25.0693L25.6258 15.6271ZM26.999 29.1843L25.5019 29.2762V29.2762L26.999 29.1843ZM25.0953 25.3583L24.127 26.5039H24.127L25.0953 25.3583ZM34.9843 34.4345L35.8165 35.6825H35.8165L34.9843 34.4345ZM27.0635 30.2329L28.5606 30.141V30.141L27.0635 30.2329ZM39.9087 33.2161L40.3094 31.7706L40.3093 31.7706L39.9087 33.2161ZM35.8316 33.8695L34.9994 32.6215H34.9994L35.8316 33.8695ZM47.1051 27.0208L48.5563 26.6414L48.5563 26.6414L47.1051 27.0208ZM40.8898 33.488L40.4891 34.9335L40.4891 34.9335L40.8898 33.488ZM47.4554 21.7746L46.1779 20.9883L46.1779 20.9883L47.4554 21.7746ZM46.8394 26.0044L45.3881 26.3837V26.3838L46.8394 26.0044ZM43.9178 12.6954L43.8243 14.1925L43.9178 12.6954ZM47.9973 20.894L49.2748 21.6802V21.6802L47.9973 20.894ZM39.2099 10.6715L40.3859 9.74045V9.74045L39.2099 10.6715ZM42.9062 12.6323L42.9997 11.1352L42.9062 12.6323ZM38.5637 9.85534L37.3876 10.7864L37.3876 10.7864L38.5637 9.85534ZM29.8271 11.2556L28.4193 10.7378V10.7378L29.8271 11.2556ZM20.7427 20.5195C21.4114 20.0304 21.5569 19.0919 21.0679 18.4232C20.5788 17.7546 19.6403 17.609 18.9716 18.0981L20.7427 20.5195ZM11.3291 48L9.84793 48.2368C9.95677 48.9176 10.5157 49.4366 11.2027 49.4947C11.8897 49.5528 12.5279 49.1351 12.7495 48.4822L11.3291 48ZM27.9215 35.3624C28.7065 35.0977 29.1282 34.2467 28.8635 33.4617C28.5987 32.6767 27.7478 32.255 26.9628 32.5197L27.9215 35.3624ZM37.3876 10.7864L38.0338 11.6026L40.3859 9.74045L39.7397 8.92425L37.3876 10.7864ZM42.8128 14.1293L43.8243 14.1925L44.0112 11.1983L42.9997 11.1352L42.8128 14.1293ZM46.7199 20.1078L46.1779 20.9883L48.7328 22.5608L49.2748 21.6802L46.7199 20.1078ZM45.3881 26.3838L45.6539 27.4002L48.5563 26.6414L48.2906 25.625L45.3881 26.3838ZM41.2905 32.0425L40.3094 31.7706L39.508 34.6615L40.4891 34.9335L41.2905 32.0425ZM34.9994 32.6215L34.1521 33.1865L35.8165 35.6825L36.6638 35.1175L34.9994 32.6215ZM28.5606 30.141L28.4962 29.0923L25.5019 29.2762L25.5663 30.3249L28.5606 30.141ZM26.0636 24.2127L25.2742 23.5455L23.3376 25.8367L24.127 26.5039L26.0636 24.2127ZM26.1824 17.0201L27.1238 16.6439L26.0106 13.8581L25.0693 14.2342L26.1824 17.0201ZM30.8754 12.7507L31.2349 11.7734L28.4193 10.7378L28.0598 11.7152L30.8754 12.7507ZM27.1238 16.6439C28.0352 16.2797 28.9234 15.9581 29.5782 15.2767L27.4152 13.1979C27.3128 13.3045 27.1671 13.396 26.0106 13.8581L27.1238 16.6439ZM28.0598 11.7152C27.6189 12.914 27.5247 13.0839 27.4152 13.1979L29.5782 15.2767C30.226 14.6027 30.5267 13.6991 30.8754 12.7507L28.0598 11.7152ZM25.2742 23.5455C23.7106 22.2239 22.6703 21.3396 22.0253 20.6088C21.3927 19.892 21.4187 19.6291 21.4329 19.5315L18.4642 19.0992C18.2589 20.5089 18.938 21.6444 19.7761 22.594C20.6018 23.5295 21.85 24.5793 23.3376 25.8367L25.2742 23.5455ZM25.0693 14.2342C23.2983 14.9419 21.8036 15.5346 20.7439 16.1587C19.6597 16.7972 18.6717 17.6748 18.4642 19.0992L21.4329 19.5315C21.445 19.4485 21.4763 19.209 22.2663 18.7437C23.0807 18.264 24.3149 17.7663 26.1824 17.0201L25.0693 14.2342ZM28.4962 29.0923C28.4332 28.0666 28.4031 27.1244 27.9873 26.2888L25.3014 27.6253C25.3827 27.7886 25.4234 27.9982 25.5019 29.2762L28.4962 29.0923ZM24.127 26.5039C25.0899 27.3178 25.2228 27.4673 25.3014 27.6253L27.9873 26.2888C27.5689 25.4479 26.8348 24.8645 26.0636 24.2127L24.127 26.5039ZM34.1521 33.1865C32.4709 34.3076 31.3557 35.0462 30.501 35.4448C29.6637 35.8353 29.4873 35.7027 29.4571 35.6867L28.0513 38.3369C29.3384 39.0196 30.6394 38.6904 31.769 38.1636C32.8813 37.6449 34.2224 36.7455 35.8165 35.6825L34.1521 33.1865ZM25.5663 30.3249C25.6878 32.303 25.7854 33.9524 26.0391 35.1832C26.2937 36.418 26.7876 37.6666 28.0513 38.3369L29.4571 35.6867C29.4036 35.6583 29.1766 35.5442 28.9774 34.5775C28.7773 33.607 28.6881 32.2163 28.5606 30.141L25.5663 30.3249ZM40.3093 31.7706C39.3641 31.5085 38.4533 31.223 37.5225 31.3722L37.9973 34.3344C38.1309 34.3129 38.2978 34.3261 39.508 34.6615L40.3093 31.7706ZM36.6638 35.1175C37.7089 34.4206 37.8635 34.3558 37.9973 34.3344L37.5225 31.3722C36.5918 31.5213 35.8158 32.0772 34.9994 32.6215L36.6638 35.1175ZM45.6539 27.4002C46.1797 29.4116 46.5285 30.7607 46.641 31.7453C46.753 32.7257 46.5731 32.9057 46.5305 32.95L48.6935 35.0288C49.6845 33.9976 49.7647 32.6576 49.6216 31.4048C49.479 30.1562 49.0575 28.5587 48.5563 26.6414L45.6539 27.4002ZM40.4891 34.9335C42.3348 35.4451 43.8895 35.8805 45.108 36.0257C46.3458 36.1732 47.6841 36.0791 48.6935 35.0288L46.5305 32.95C46.5063 32.9752 46.3797 33.156 45.4629 33.0468C44.5268 32.9352 43.2372 32.5822 41.2905 32.0425L40.4891 34.9335ZM46.1779 20.9883C45.6484 21.8488 45.133 22.6321 44.9977 23.5614L47.9664 23.9937C47.9919 23.8187 48.0718 23.6348 48.7328 22.5608L46.1779 20.9883ZM48.2906 25.625C47.9668 24.3863 47.9401 24.1744 47.9664 23.9937L44.9977 23.5614C44.8632 24.4851 45.1283 25.3896 45.3881 26.3837L48.2906 25.625ZM43.8243 14.1925C45.8312 14.3178 47.1588 14.4049 48.0819 14.606C48.9774 14.8011 49.0812 15.0187 49.1182 15.0932L51.8041 13.7567C51.1627 12.4677 49.9497 11.9426 48.7206 11.6748C47.5191 11.413 45.9143 11.3171 44.0112 11.1983L43.8243 14.1925ZM49.2748 21.6802C50.2961 20.0206 51.1546 18.6333 51.6473 17.4866C52.1474 16.3229 52.4387 15.0321 51.8041 13.7567L49.1182 15.0932C49.162 15.1813 49.2688 15.4231 48.8911 16.3021C48.506 17.1981 47.7933 18.3636 46.7199 20.1078L49.2748 21.6802ZM38.0338 11.6026C38.6607 12.3944 39.2283 13.1593 40.0542 13.5974L41.46 10.9472C41.3208 10.8733 41.1786 10.7417 40.3859 9.74045L38.0338 11.6026ZM42.9997 11.1352C41.7567 11.0576 41.5901 11.0162 41.46 10.9472L40.0542 13.5974C40.8891 14.0403 41.8335 14.0682 42.8128 14.1293L42.9997 11.1352ZM39.7397 8.92425C38.5221 7.38623 37.506 6.09658 36.6009 5.24358C35.6934 4.38837 34.5598 3.64513 33.1268 3.8748L33.6016 6.837C33.6215 6.83381 33.8388 6.76286 34.5434 7.42686C35.2503 8.09307 36.1076 9.16957 37.3876 10.7864L39.7397 8.92425ZM31.2349 11.7734C31.947 9.83728 32.4259 8.5465 32.8899 7.69249C33.3524 6.84116 33.5814 6.84024 33.6016 6.837L33.1268 3.8748C31.6941 4.10443 30.8492 5.16441 30.2538 6.26024C29.6599 7.35338 29.0967 8.89601 28.4193 10.7378L31.2349 11.7734ZM18.9716 18.0981C12.2017 23.0499 7.3119 32.3727 9.84793 48.2368L12.8103 47.7633C10.4145 32.7762 15.0592 24.6767 20.7427 20.5195L18.9716 18.0981ZM12.7495 48.4822C14.7283 42.6533 20.8266 37.7551 27.9215 35.3624L26.9628 32.5197C19.357 35.0847 12.2957 40.4866 9.90874 47.5179L12.7495 48.4822Z" fill="black"/>
<path d="M27.4155 42.6666C27.4155 42.6666 29.1027 46.3755 31.1827 47.651C33.2627 48.9266 37.3334 48.7488 37.3334 48.7488C37.3334 48.7488 33.6245 50.436 32.349 52.5159C31.0734 54.5959 31.2512 58.6666 31.2512 58.6666C31.2512 58.6666 29.564 54.9578 27.4841 53.6822C25.4041 52.4067 21.3334 52.5845 21.3334 52.5845C21.3334 52.5845 25.0422 50.8973 26.3178 48.8173C27.5933 46.7373 27.4155 42.6666 27.4155 42.6666Z" stroke="black" stroke-width="1.5" stroke-linejoin="round"/>
<path d="M49.2785 40C49.2785 40 48.1537 42.4726 46.7671 43.3229C45.3804 44.1733 42.6666 44.0548 42.6666 44.0548C42.6666 44.0548 45.1392 45.1796 45.9896 46.5662C46.8399 47.9529 46.7214 50.6667 46.7214 50.6667C46.7214 50.6667 47.8462 48.1941 49.2328 47.3437C50.6195 46.4934 53.3333 46.6119 53.3333 46.6119C53.3333 46.6119 50.8607 45.4871 50.0103 44.1005C49.16 42.7138 49.2785 40 49.2785 40Z" stroke="black" stroke-width="1.5" stroke-linejoin="round"/>
</svg>
