<svg width="64" height="64" viewBox="0 0 64 64" fill="none" xmlns="http://www.w3.org/2000/svg">
<path d="M26.8803 21.059C29.7514 15.9086 31.1869 13.3334 33.3332 13.3334C35.4794 13.3334 36.9149 15.9086 39.786 21.059L40.5288 22.3915C41.3446 23.8551 41.7526 24.5869 42.3886 25.0697C43.0247 25.5526 43.8168 25.7318 45.4012 26.0903L46.8435 26.4166C52.4188 27.6781 55.2065 28.3088 55.8697 30.4416C56.5329 32.5743 54.6325 34.7966 50.8316 39.2412L49.8483 40.3911C48.7682 41.6541 48.2282 42.2856 47.9852 43.0669C47.7423 43.8481 47.8239 44.6907 47.9872 46.3758L48.1359 47.91C48.7105 53.8401 48.9978 56.8051 47.2615 58.1232C45.5252 59.4413 42.9151 58.2395 37.695 55.836L36.3445 55.2142C34.8611 54.5312 34.1194 54.1897 33.3332 54.1897C32.547 54.1897 31.8053 54.5312 30.3219 55.2142L28.9714 55.836C23.7512 58.2395 21.1412 59.4413 19.4048 58.1232C17.6685 56.8051 17.9558 53.8401 18.5305 47.91L18.6791 46.3758C18.8424 44.6907 18.9241 43.8481 18.6811 43.0669C18.4382 42.2856 17.8981 41.6541 16.8181 40.3911L15.8347 39.2412C12.0339 34.7966 10.1334 32.5743 10.7967 30.4416C11.4599 28.3088 14.2475 27.6781 19.8228 26.4166L21.2652 26.0903C22.8495 25.7318 23.6417 25.5526 24.2777 25.0697C24.9138 24.5869 25.3217 23.8551 26.1376 22.3915L26.8803 21.059Z" stroke="black" stroke-width="3"/>
<path d="M13.3065 5.33337C13.3065 5.33337 14.0743 9.22061 15.7577 10.8927C17.4412 12.5648 21.3335 13.3064 21.3335 13.3064C21.3335 13.3064 17.4463 14.0742 15.7742 15.7576C14.1021 17.441 13.3605 21.3334 13.3605 21.3334C13.3605 21.3334 12.5927 17.4461 10.9093 15.774C9.22583 14.1019 5.3335 13.3604 5.3335 13.3604C5.3335 13.3604 9.22073 12.5926 10.8928 10.9091C12.5649 9.22571 13.3065 5.33337 13.3065 5.33337Z" stroke="black" stroke-width="3" stroke-linejoin="round"/>
<path d="M48 13.3333H53.3333M50.6667 16L50.6667 10.6666" stroke="black" stroke-width="3" stroke-linecap="round"/>
</svg>
