<svg width="40" height="40" viewBox="0 0 40 40" fill="none" xmlns="http://www.w3.org/2000/svg">
<path fill-rule="evenodd" clip-rule="evenodd" d="M10.625 26.25C8.89911 26.25 7.5 27.6491 7.5 29.375C7.5 31.1009 8.89911 32.5 10.625 32.5C12.3509 32.5 13.75 31.1009 13.75 29.375C13.75 27.6491 12.3509 26.25 10.625 26.25ZM5 29.375C5 26.2684 7.5184 23.75 10.625 23.75C13.7316 23.75 16.25 26.2684 16.25 29.375C16.25 32.4816 13.7316 35 10.625 35C7.5184 35 5 32.4816 5 29.375Z" fill="#333333"/>
<path fill-rule="evenodd" clip-rule="evenodd" d="M5.36612 10.3661C5.85427 9.87796 6.64573 9.87796 7.13388 10.3661L13.3839 16.6161C13.872 17.1043 13.872 17.8957 13.3839 18.3839C12.8957 18.872 12.1043 18.872 11.6161 18.3839L5.36612 12.1339C4.87796 11.6457 4.87796 10.8543 5.36612 10.3661Z" fill="#333333"/>
<path fill-rule="evenodd" clip-rule="evenodd" d="M13.3839 10.3661C13.872 10.8543 13.872 11.6457 13.3839 12.1339L7.13388 18.3839C6.64573 18.872 5.85427 18.872 5.36612 18.3839C4.87796 17.8957 4.87796 17.1043 5.36612 16.6161L11.6161 10.3661C12.1043 9.87796 12.8957 9.87796 13.3839 10.3661Z" fill="#333333"/>
<path fill-rule="evenodd" clip-rule="evenodd" d="M26.6161 25.3661C27.1043 24.878 27.8957 24.878 28.3839 25.3661L34.6339 31.6161C35.122 32.1043 35.122 32.8957 34.6339 33.3839C34.1457 33.872 33.3543 33.872 32.8661 33.3839L26.6161 27.1339C26.128 26.6457 26.128 25.8543 26.6161 25.3661Z" fill="#333333"/>
<path fill-rule="evenodd" clip-rule="evenodd" d="M34.6339 25.3661C35.122 25.8543 35.122 26.6457 34.6339 27.1339L28.3839 33.3839C27.8957 33.872 27.1043 33.872 26.6161 33.3839C26.128 32.8957 26.128 32.1043 26.6161 31.6161L32.8661 25.3661C33.3543 24.878 34.1457 24.878 34.6339 25.3661Z" fill="#333333"/>
<path fill-rule="evenodd" clip-rule="evenodd" d="M20 6.25C20 5.55964 20.5596 5 21.25 5H27.5C28.1904 5 28.75 5.55964 28.75 6.25C28.75 6.94036 28.1904 7.5 27.5 7.5H22.5V12.5C22.5 13.1904 21.9404 13.75 21.25 13.75C20.5596 13.75 20 13.1904 20 12.5V6.25Z" fill="#333333"/>
<path fill-rule="evenodd" clip-rule="evenodd" d="M20.3662 5.36612C20.8543 4.87796 21.6458 4.87796 22.1339 5.36612L24.6339 7.86612C28.1134 11.3456 28.5302 15.3089 27.2588 18.5781C26.0287 21.7413 23.2243 24.2324 20.3032 24.9627C19.6335 25.1301 18.9548 24.7229 18.7874 24.0532C18.6199 23.3834 19.0271 22.7048 19.6969 22.5373C21.7758 22.0176 23.9715 20.1337 24.9288 17.6719C25.8449 15.3161 25.6367 12.4044 22.8662 9.63388L20.3662 7.13388C19.878 6.64573 19.878 5.85427 20.3662 5.36612Z" fill="#333333"/>
</svg>
