<svg width="32" height="32" viewBox="0 0 32 32" fill="none" xmlns="http://www.w3.org/2000/svg">
<path fill-rule="evenodd" clip-rule="evenodd" d="M19.1163 5.394C20.2634 4.95619 21.5172 4.88122 22.7083 5.17924C23.6777 5.42181 24.5675 5.90194 25.2995 6.57175C26.2381 6.23336 27.1279 5.7702 27.9447 5.19405C28.2854 4.95378 28.7393 4.95 29.0839 5.18456C29.4284 5.41913 29.5914 5.84283 29.4927 6.24783C29.1115 7.81341 28.3432 9.25515 27.2619 10.4424C27.2813 10.6354 27.2913 10.8294 27.2919 11.0236L27.292 11.0269C27.2919 17.7858 24.0399 22.7336 19.3776 25.2152C14.7396 27.6838 8.80655 27.6591 3.51434 24.7189C3.10953 24.494 2.91208 24.0206 3.03713 23.5748C3.16218 23.1289 3.577 22.8272 4.03973 22.8456C6.01007 22.9239 7.9598 22.5143 9.71973 21.665C7.96288 20.6169 6.71299 19.3611 5.85458 18.0057C4.74888 16.2599 4.33062 14.4093 4.25494 12.7442C4.17945 11.0835 4.44329 9.58688 4.72115 8.51249C4.86068 7.97297 5.00539 7.53362 5.11677 7.22555C5.17252 7.07136 5.22009 6.94958 5.25472 6.86408C5.27205 6.82132 5.28615 6.78759 5.29645 6.76337L5.31297 6.7251L5.31437 6.72192L5.31492 6.72068C5.31555 6.71926 6.84088 7.39768 5.31537 6.71967C5.46168 6.39046 5.77376 6.1654 6.13232 6.13051C6.49088 6.09561 6.84049 6.25628 7.04753 6.5511C8.07886 8.01964 9.45736 9.21033 11.0603 10.0171C12.3723 10.6775 13.8013 11.0639 15.2606 11.1569V11.0667C15.2456 9.84146 15.6065 8.64103 16.2948 7.62716C16.9843 6.61134 17.9693 5.83181 19.1163 5.394ZM6.61707 9.17338C6.38895 10.1022 6.19257 11.3267 6.25287 12.6534C6.31651 14.0535 6.66454 15.5466 7.54422 16.9356C8.41987 18.3182 9.86036 19.6582 12.2083 20.7018C12.5401 20.8492 12.7659 21.165 12.7982 21.5266C12.8305 21.8883 12.6642 22.239 12.3638 22.443C11.0178 23.3566 9.53164 24.0223 7.9751 24.42C11.6698 25.4691 15.4029 25.0651 18.4379 23.4497C22.4133 21.3337 25.2914 17.0867 25.2919 11.0286C25.291 10.7805 25.2671 10.5331 25.2206 10.2895C25.1579 9.96167 25.2629 9.62416 25.5006 9.38978C25.8461 9.04907 26.1566 8.67762 26.429 8.28112C26.0625 8.42869 25.689 8.55985 25.3096 8.67407C24.933 8.78749 24.5249 8.66957 24.2668 8.37278C23.7299 7.75551 23.0164 7.318 22.2228 7.11943C21.4292 6.92086 20.5938 6.97081 19.8295 7.26252C19.0652 7.55423 18.409 8.07363 17.9495 8.75048C17.49 9.42732 17.2495 10.2289 17.2605 11.0469L17.2607 11.0603L17.2606 12.1749C17.2606 12.7171 16.8285 13.1605 16.2865 13.1746C14.1629 13.2297 12.0586 12.7587 10.1611 11.8036C8.833 11.1351 7.63506 10.244 6.61707 9.17338Z" fill="#333333"/>
</svg>
