<svg width="180" height="180" viewBox="0 0 180 180" fill="none" xmlns="http://www.w3.org/2000/svg">
<path d="M158.099 64.35V115.65C158.099 124.05 153.599 131.85 146.324 136.125L101.774 161.85C94.4993 166.05 85.4993 166.05 78.1493 161.85L33.5993 136.125C26.3243 131.925 21.8243 124.125 21.8243 115.65V64.35C21.8243 55.95 26.3243 48.1497 33.5993 43.8747L78.1493 18.1498C85.4243 13.9498 94.4243 13.9498 101.774 18.1498L146.324 43.8747C153.599 48.1497 158.099 55.875 158.099 64.35Z" stroke="#292D32" stroke-width="10" stroke-linecap="round" stroke-linejoin="round"/>
<path d="M91.1819 78.8513C96.3876 78.8513 100.608 74.6312 100.608 69.4255C100.608 64.2198 96.3876 60 91.1819 60C85.9762 60 81.7562 64.2198 81.7562 69.4255C81.7562 74.6312 85.9762 78.8513 91.1819 78.8513Z" stroke="#292D32" stroke-width="6" stroke-linecap="round" stroke-linejoin="round"/>
<path d="M107.363 101.749C107.363 94.4671 100.121 88.561 91.1811 88.561C82.2408 88.561 74.9996 94.4671 74.9996 101.749" stroke="#292D32" stroke-width="6" stroke-linecap="round" stroke-linejoin="round"/>
<path d="M61.1823 86.3513C66.3879 86.3513 70.608 82.1312 70.608 76.9255C70.608 71.7198 66.3879 67.5 61.1823 67.5C55.9766 67.5 51.7566 71.7198 51.7566 76.9255C51.7566 82.1312 55.9766 86.3513 61.1823 86.3513Z" stroke="#292D32" stroke-width="6" stroke-linecap="round" stroke-linejoin="round"/>
<path d="M77.3629 109.249C77.3629 101.967 70.1217 96.061 61.1814 96.061C52.2412 96.061 45 101.967 45 109.249" stroke="#292D32" stroke-width="6" stroke-linecap="round" stroke-linejoin="round"/>
<path d="M121.183 86.3513C126.388 86.3513 130.608 82.1312 130.608 76.9255C130.608 71.7198 126.388 67.5 121.183 67.5C115.977 67.5 111.757 71.7198 111.757 76.9255C111.757 82.1312 115.977 86.3513 121.183 86.3513Z" stroke="#292D32" stroke-width="6" stroke-linecap="round" stroke-linejoin="round"/>
<path d="M137.363 109.249C137.363 101.967 130.122 96.061 121.182 96.061C112.242 96.061 105 101.967 105 109.249" stroke="#292D32" stroke-width="6" stroke-linecap="round" stroke-linejoin="round"/>
</svg>
