<svg width="32" height="32" viewBox="0 0 32 32" fill="none" xmlns="http://www.w3.org/2000/svg">
<path fill-rule="evenodd" clip-rule="evenodd" d="M1.58579 7.08579C1.96086 6.71071 2.46957 6.5 3 6.5H19C20.3261 6.5 21.5979 7.02678 22.5355 7.96447C23.4732 8.90215 24 10.1739 24 11.5V23.5C24 24.0304 23.7893 24.5391 23.4142 24.9142C23.0391 25.2893 22.5304 25.5 22 25.5H6C4.67392 25.5 3.40215 24.9732 2.46447 24.0355C1.52678 23.0979 1 21.8261 1 20.5V8.5C1 7.96957 1.21071 7.46086 1.58579 7.08579ZM3 8.5V20.5C3 21.2956 3.31607 22.0587 3.87868 22.6213C4.44129 23.1839 5.20435 23.5 6 23.5H22V11.5C22 10.7044 21.6839 9.94129 21.1213 9.37868C20.5587 8.81607 19.7956 8.5 19 8.5L3 8.5Z" fill="#333333"/>
<path fill-rule="evenodd" clip-rule="evenodd" d="M30.502 9.13509C30.8103 9.31401 31 9.64353 31 10V22C31 22.3565 30.8103 22.686 30.502 22.8649C30.1937 23.0438 29.8134 23.0451 29.5039 22.8682L22.5039 18.8682C22.0244 18.5942 21.8578 17.9834 22.1318 17.5039C22.4058 17.0243 23.0167 16.8577 23.4962 17.1318L29 20.2768V11.7232L23.4962 14.8682C23.0167 15.1423 22.4058 14.9757 22.1318 14.4961C21.8578 14.0166 22.0244 13.4058 22.5039 13.1318L29.5039 9.13176C29.8134 8.9549 30.1937 8.95617 30.502 9.13509Z" fill="#333333"/>
</svg>
