<svg width="32" height="32" viewBox="0 0 32 32" fill="none" xmlns="http://www.w3.org/2000/svg">
<path fill-rule="evenodd" clip-rule="evenodd" d="M16.6744 5.0468C14.0032 4.87939 11.3627 5.69277 9.24862 7.33424C7.13458 8.97571 5.69238 11.3324 5.19278 13.9618C4.69318 16.5913 5.17053 19.3127 6.53522 21.6151C6.67497 21.8509 6.71182 22.1337 6.63715 22.3974L5.46594 26.534L9.60255 25.3628C9.86627 25.2881 10.1491 25.325 10.3849 25.4647C12.6873 26.8294 15.4087 27.3068 18.0381 26.8072C20.6676 26.3076 23.0242 24.8654 24.6657 22.7513C26.3072 20.6373 27.1206 17.9968 26.9532 15.3255C26.7857 12.6543 25.6491 10.136 23.7565 8.24345C21.8639 6.35089 19.3456 5.2142 16.6744 5.0468ZM8.02203 5.75453C10.5209 3.81427 13.642 2.85283 16.7995 3.05071C19.957 3.24859 22.9337 4.59218 25.1707 6.82923C27.4078 9.06629 28.7514 12.043 28.9492 15.2005C29.1471 18.3579 28.1857 21.4791 26.2454 23.9779C24.3052 26.4768 21.5195 28.1815 18.4115 28.772C15.4465 29.3354 12.3826 28.8478 9.74409 27.4013L6.00087 28.4612C5.66007 28.5599 5.29902 28.5656 4.95523 28.4777C4.60981 28.3893 4.29451 28.2097 4.04239 27.9576C3.79028 27.7054 3.61062 27.3901 3.52227 27.0447C3.43433 26.7009 3.44004 26.3399 3.53877 25.9991L4.59861 22.2559C3.15213 19.6173 2.66458 16.5535 3.22793 13.5885C3.81847 10.4804 5.52319 7.69478 8.02203 5.75453Z" fill="#333333"/>
<path fill-rule="evenodd" clip-rule="evenodd" d="M12.4205 10.5013C11.7878 10.5214 11.1851 10.7809 10.7353 11.2291C10.2669 11.6959 10.0025 12.3293 9.99997 12.9906C9.99707 14.1745 10.2281 15.3472 10.6798 16.4415C11.1315 17.536 11.7951 18.5304 12.6323 19.3677C13.4696 20.2049 14.464 20.8685 15.5585 21.3202C16.6523 21.7717 17.8244 22.0027 19.0077 22C19.6685 21.9947 20.3007 21.7292 20.7673 21.261C21.2148 20.8119 21.4753 20.2109 21.4983 19.5793L19.0223 18.1592C19.0206 18.1584 19.0188 18.158 19.0169 18.158C19.0148 18.1581 19.0128 18.1586 19.011 18.1596C19.0109 18.1597 19.0111 18.1596 19.011 18.1596L17.0512 19.333C16.7706 19.501 16.4257 19.5212 16.1275 19.3871C14.5655 18.685 13.315 17.4345 12.6129 15.8725C12.4788 15.5743 12.499 15.2294 12.667 14.9488L13.8402 12.9893C13.8403 12.9892 13.8401 12.9894 13.8402 12.9893C13.8412 12.9875 13.8419 12.9852 13.842 12.9831C13.842 12.9812 13.8416 12.9794 13.8408 12.9777L12.4205 10.5013ZM12.4965 8.50003C12.8275 8.49819 13.153 8.5852 13.4389 8.75201C13.7238 8.91817 13.959 9.15743 14.1203 9.44496L15.5846 11.9982C15.7575 12.3063 15.8462 12.6545 15.8418 13.0078C15.8374 13.3611 15.7402 13.707 15.5597 14.0107L15.558 14.0137L14.667 15.5019C15.1059 16.2624 15.7376 16.8941 16.4981 17.333L17.9863 16.4421L17.9893 16.4403C18.293 16.2598 18.6389 16.1626 18.9922 16.1582C19.3455 16.1538 19.6937 16.2425 20.0018 16.4154L20.01 16.42L22.5551 17.8798C22.8426 18.041 23.0818 18.2762 23.248 18.5611C23.4152 18.8477 23.5022 19.174 23.5 19.5058C23.5 19.5065 23.4999 19.5073 23.4999 19.508L23.5 19.5036C23.5 19.5043 23.5 19.505 23.5 19.5058C23.4952 20.6934 23.0224 21.8314 22.184 22.6727C21.3451 23.5146 20.208 23.9916 19.0196 24L19.015 24C17.5674 24.0037 16.1335 23.7212 14.7954 23.1689C13.4574 22.6167 12.2417 21.8055 11.2181 20.7819C10.1945 19.7583 9.38332 18.5426 8.83105 17.2046C8.27878 15.8665 7.99635 14.4325 7.99997 12.985L7.99998 12.984C8.00423 11.7933 8.48021 10.6528 9.32366 9.81236C10.1663 8.97274 11.3071 8.50094 12.4965 8.50003ZM12.4965 8.50003C12.495 8.50004 12.4935 8.50005 12.492 8.50006C12.4949 8.50005 12.5034 8.50002 12.4965 8.50003Z" fill="#333333"/>
</svg>
